<?xml version="1.0" encoding="utf-8"?>
<!-- Generator: Adobe Illustrator 26.5.0, SVG Export Plug-In . SVG Version: 6.00 Build 0)  -->
<svg version="1.1" id="Layer_1" xmlns="http://www.w3.org/2000/svg" xmlns:xlink="http://www.w3.org/1999/xlink" x="0px" y="0px"
	 viewBox="0 0 1080 608" style="enable-background:new 0 0 1080 608;" xml:space="preserve">
<style type="text/css">
	.st0{fill:#F4F4F4;}
	.st1{fill:#565151;}
	.st2{fill:none;stroke:#565151;}
	.st3{fill:#FFFFFF;}
	.st4{fill:#8F8B8B;}
	.st5{fill:none;stroke:#8F8B8B;}
	.st6{fill:#CAC5C4;stroke:#CAC5C4;}
	.st7{fill:#161616;}
	.st8{fill:none;stroke:#000000;}
</style>
<rect class="st0" width="1080" height="607.5"/>
<path class="st1" d="M984,528.5c4.7,0,8.5-3.8,8.5-8.5V197h2.4l-2.9-5l-2.9,5h2.4v323c0,4.1-3.4,7.5-7.5,7.5h-87.6
	c-4.1,0-7.5-3.4-7.5-7.5v-96c0-0.6-0.1-1.1-0.2-1.6V360c0-4.7-3.8-8.5-8.5-8.5H863v1h17.3c4.1,0,7.5,3.4,7.5,7.5v59.7
	c-1.5-2.5-4.2-4.2-7.3-4.2H863v1h17.4c3.6,0,6.6,2.6,7.3,6V520c0,3.2,1.8,6.1,4.5,7.5h-277c-4.1,0-7.5-3.4-7.5-7.5V360
	c0-4.7-3.8-8.5-8.5-8.5H582v1h17.3c4.1,0,7.5,3.4,7.5,7.5v160c0,3.2,1.8,6.1,4.5,7.5H336c-4.1,0-7.5-3.4-7.5-7.5V360
	c0-4.7-3.8-8.5-8.5-8.5h-17.3v1H320c4.1,0,7.5,3.4,7.5,7.5v60c-1.4-2.7-4.3-4.5-7.5-4.5h-17.2v1H320c4.1,0,7.5,3.4,7.5,7.5l0,60
	c-1.4-2.7-4.3-4.5-7.5-4.5h-16.7v1H320c4.1,0,7.4,3.2,7.5,7.3l0,32.2c0,4.7,3.8,8.5,8.5,8.5H984z"/>
<path class="st1" d="M79.1,247.5c0.3,0,0.6,0,0.9,0h115.5v1H80c-4.1,0-7.5,3.4-7.5,7.5v88.1c0,4.1,3.4,7.4,7.5,7.4h11v-2.4l5,2.9
	l-5,2.9v-2.4H80c-3.2,0-6.1-1.8-7.5-4.5v60c0,4.1,3.4,7.5,7.5,7.5h11v-2.4l5,2.9l-5,2.9v-2.4H80c-3.2,0-6.1-1.8-7.5-4.5v60
	c0,4.1,3.4,7.5,7.5,7.5h11v-2.4l5,2.9l-5,2.9v-2.4H80c-4.7,0-8.5-3.8-8.5-8.5V256C71.5,251.6,74.8,248,79.1,247.5z"/>
<path class="st1" d="M486,247.5v1H360c-4.1,0-7.5,3.4-7.5,7.5v88c0,4.1,3.4,7.5,7.5,7.5h11v-2.4l5,2.9l-5,2.9v-2.4h-11
	c-4.7,0-8.5-3.8-8.5-8.5v-88c0-4.7,3.8-8.5,8.5-8.5H486z"/>
<path class="st1" d="M640,248.5h97v-1h-97c-4.7,0-8.5,3.8-8.5,8.5l0,152c0,4.7,3.8,8.5,8.5,8.5h11v2.4l5-2.9l-5-2.9v2.4h-11
	c-4.1,0-7.5-3.4-7.5-7.5v-60c1.4,2.7,4.3,4.5,7.5,4.5h11v2.4l5-2.9l-5-2.9v2.4h-11c-4.1,0-7.5-3.4-7.5-7.5v-88
	C632.5,251.9,635.9,248.5,640,248.5z"/>
<path class="st2" d="M56,52.5h35.5c4.4,0,8,3.6,8,8V96"/>
<path class="st2" d="M60,48.5h35.5c4.4,0,8,3.6,8,8V92"/>
<path class="st1" d="M56,56h32c4.4,0,8,3.6,8,8v32c0,4.4-3.6,8-8,8H56c-4.4,0-8-3.6-8-8V64C48,59.6,51.6,56,56,56z"/>
<path class="st3" d="M78.6,74.1c-0.1-0.1-0.3-0.2-0.4-0.3c-0.2-0.1-0.3-0.1-0.5-0.1h-5.1v-2.5h-1.2v6.2h-5.1c-0.2,0-0.3,0-0.5,0.1
	c-0.2,0.1-0.3,0.2-0.4,0.3L63.2,80l2.1,2.1c0.1,0.1,0.3,0.2,0.4,0.3c0.2,0.1,0.3,0.1,0.5,0.1h5.1v6.2h1.2v-10h5.1
	c0.2,0,0.3,0,0.5-0.1c0.2-0.1,0.3-0.2,0.4-0.3l2.1-2.1L78.6,74.1z M66.3,81.2L65,80l1.2-1.2h5.1v2.5H66.3z M77.7,77.5h-5.1V75h5.1
	l1.2,1.2L77.7,77.5z"/>
<path d="M73.6,126v-1.5h-2.2v-8.3h-2.8l-2.4,2.9l1.1,1l2.1-2.5h0.1v6.9h-2.7v1.5H73.6z M76.3,126.2c0.8,0,1.1-0.4,1.1-1v-0.3
	c0-0.6-0.3-1-1.1-1c-0.8,0-1.1,0.4-1.1,1v0.3C75.2,125.7,75.5,126.2,76.3,126.2z"/>
<path d="M60.4,144v-4.2h2.7c1.8,0,2.7-1.1,2.7-2.8s-1-2.8-2.7-2.8h-3.9v9.8H60.4z M60.4,135.3h2.7c0.9,0,1.5,0.5,1.5,1.4v0.7
	c0,0.9-0.5,1.4-1.5,1.4h-2.7V135.3z M69.9,144v-1h-1.1v-9.4h-1.1v9.2c0,0.7,0.4,1.2,1.2,1.2H69.9z M77.6,144v-1h-0.8v-4
	c0-1.5-1-2.4-2.8-2.4c-1.3,0-2.2,0.6-2.6,1.4l0.7,0.6c0.4-0.7,1-1.1,1.8-1.1c1.1,0,1.7,0.6,1.7,1.6v0.7h-1.4c-2.1,0-3.1,0.8-3.1,2.1
	c0,1.3,0.9,2.2,2.4,2.2c1,0,1.8-0.5,2.1-1.3h0.1c0.1,0.7,0.4,1.2,1.2,1.2H77.6z M73.7,143.2c-0.9,0-1.4-0.4-1.4-1.1v-0.3
	c0-0.7,0.6-1.1,1.8-1.1h1.5v1.2C75.6,142.6,74.8,143.2,73.7,143.2z M80.5,144v-5c0-0.9,0.9-1.4,1.8-1.4c1.1,0,1.6,0.7,1.6,1.9v4.4
	H85v-4.6c0-1.8-0.9-2.8-2.4-2.8c-1.1,0-1.7,0.5-2,1.3h-0.1v-1.2h-1.1v7.2H80.5z"/>
<rect x="96.5" y="328.5" class="st3" width="207" height="47"/>
<path class="st4" d="M100,328h-4v48h4V328z"/>
<path d="M117,357.2c2.6,0,4.3-1.8,4.3-5.1c0-3.3-1.7-5.1-4.3-5.1c-2.6,0-4.3,1.8-4.3,5.1C112.7,355.4,114.4,357.2,117,357.2z
	 M117,355.5c-1.4,0-2.3-1-2.3-2.7v-1.5c0-1.7,0.9-2.7,2.3-2.7s2.3,1,2.3,2.7v1.5C119.3,354.5,118.4,355.5,117,355.5z M125,357v-4.8
	c0-0.8,0.7-1.2,1.5-1.2c0.9,0,1.2,0.5,1.2,1.6v4.4h1.8v-4.6c0-1.8-0.8-2.9-2.3-2.9c-1.1,0-1.8,0.6-2,1.4H125v-1.2h-1.8v7.3H125z
	 M135.3,353.6v-1.8h-4v1.8H135.3z M137.3,359.8h1.8v-4h0.1c0.3,0.8,1.1,1.4,2,1.4c1.8,0,2.9-1.4,2.9-3.8c0-2.4-1-3.8-2.9-3.8
	c-1,0-1.8,0.5-2,1.4h-0.1v-1.2h-1.8V359.8z M140.6,355.7c-0.9,0-1.5-0.4-1.5-1.2v-2.3c0-0.7,0.6-1.2,1.5-1.2c0.9,0,1.6,0.7,1.6,1.7
	v1.3C142.2,355,141.6,355.7,140.6,355.7z M147.7,357v-4.5c0-0.8,0.6-1.1,1.8-1.1h0.6v-1.7h-0.4c-1.2,0-1.8,0.7-1.9,1.5h-0.1v-1.5
	h-1.8v7.3H147.7z M154.4,357.2c1.4,0,2.4-0.5,3-1.3l-1-1.1c-0.4,0.6-1,1-1.9,1c-1.2,0-1.8-0.7-1.8-1.8v-0.2h4.9v-0.6
	c0-2-1.1-3.7-3.3-3.7c-2.1,0-3.4,1.5-3.4,3.8C151,355.7,152.3,357.2,154.4,357.2z M154.4,350.9c0.9,0,1.4,0.7,1.4,1.7v0.1h-3v-0.1
	C152.9,351.6,153.5,350.9,154.4,350.9z M161.2,357v-4.8c0-0.8,0.7-1.2,1.4-1.2c0.8,0,1.2,0.5,1.2,1.6v4.4h1.8v-4.8
	c0-0.8,0.7-1.2,1.4-1.2c0.8,0,1.2,0.5,1.2,1.6v4.4h1.8v-4.6c0-1.8-0.8-2.9-2.2-2.9c-1.2,0-2,0.7-2.2,1.5h0c-0.4-1-1.1-1.5-2.1-1.5
	c-1.1,0-1.7,0.6-2,1.4h-0.1v-1.2h-1.8v7.3H161.2z M172.9,348.6c0.7,0,1.1-0.4,1.1-0.9v-0.3c0-0.5-0.3-0.9-1.1-0.9
	c-0.7,0-1,0.4-1,0.9v0.3C171.9,348.2,172.2,348.6,172.9,348.6z M172,357h1.8v-7.3H172V357z M178.5,357.2c1.8,0,3-1,3-2.4
	c0-1.2-0.8-1.9-2.4-2.2l-0.7-0.1c-0.7-0.1-1-0.3-1-0.8c0-0.4,0.3-0.8,1.1-0.8c0.7,0,1.3,0.3,1.8,0.8l1.1-1c-0.7-0.7-1.4-1.1-2.9-1.1
	c-1.7,0-2.8,0.9-2.8,2.3c0,1.3,0.9,2,2.4,2.2l0.7,0.1c0.6,0.1,0.9,0.3,0.9,0.8c0,0.5-0.4,0.8-1.2,0.8c-0.8,0-1.5-0.4-2-1l-1.1,1.1
	C176.2,356.7,177.1,357.2,178.5,357.2z M186.2,357.2c1.4,0,2.4-0.5,3-1.3l-1-1.1c-0.4,0.6-1,1-1.9,1c-1.2,0-1.8-0.7-1.8-1.8v-0.2
	h4.9v-0.6c0-2-1.1-3.7-3.3-3.7c-2.1,0-3.4,1.5-3.4,3.8C182.7,355.7,184,357.2,186.2,357.2z M186.1,350.9c0.9,0,1.4,0.7,1.4,1.7v0.1
	h-3v-0.1C184.6,351.6,185.2,350.9,186.1,350.9z M193.6,357.2c1.8,0,3-1,3-2.4c0-1.2-0.8-1.9-2.4-2.2l-0.7-0.1c-0.7-0.1-1-0.3-1-0.8
	c0-0.4,0.3-0.8,1.1-0.8c0.7,0,1.3,0.3,1.8,0.8l1.1-1c-0.7-0.7-1.4-1.1-2.9-1.1c-1.7,0-2.8,0.9-2.8,2.3c0,1.3,0.9,2,2.4,2.2l0.7,0.1
	c0.6,0.1,0.9,0.3,0.9,0.8c0,0.5-0.4,0.8-1.2,0.8c-0.8,0-1.5-0.4-2-1l-1.1,1.1C191.3,356.7,192.2,357.2,193.6,357.2z M208.4,357h2.2
	l-1.9-2.1c0.3-0.5,0.5-1.1,0.6-1.7h0.9v-1.5H208c0,0.7-0.2,1.4-0.4,2.1l-1.7-1.8c1.1-0.6,2-1.4,2-2.6c0-1.4-1.1-2.2-2.7-2.2
	c-1.7,0-2.8,1-2.8,2.3c0,0.9,0.5,1.7,1.1,2.3c-1.1,0.6-2,1.4-2,2.7c0,1.5,1.1,2.7,3.2,2.7c1.4,0,2.3-0.6,2.8-1.1L208.4,357z
	 M205.2,348.4c0.6,0,1,0.3,1,0.9v0.1c0,0.6-0.5,1.1-1.2,1.5c-0.6-0.6-0.8-1-0.8-1.4v-0.1C204.2,348.8,204.6,348.4,205.2,348.4z
	 M205,355.7c-1.1,0-1.6-0.6-1.6-1.4v-0.2c0-0.7,0.4-1.1,1-1.5l2.2,2.4C206.2,355.4,205.7,355.7,205,355.7z M218.4,357.2
	c1.4,0,2.4-0.5,3-1.3l-1-1.1c-0.4,0.6-1,1-1.9,1c-1.2,0-1.8-0.7-1.8-1.8v-0.2h4.9v-0.6c0-2-1.1-3.7-3.3-3.7c-2.1,0-3.4,1.5-3.4,3.8
	C214.9,355.7,216.2,357.2,218.4,357.2z M218.3,350.9c0.9,0,1.4,0.7,1.4,1.7v0.1h-3v-0.1C216.8,351.6,217.4,350.9,218.3,350.9z
	 M227.9,357h1.8v-10.4h-1.8v4.3h-0.1c-0.3-0.8-1.1-1.4-2-1.4c-1.8,0-2.9,1.4-2.9,3.8c0,2.5,1,3.8,2.9,3.8c1,0,1.8-0.6,2-1.4h0.1V357
	z M226.4,355.7c-0.9,0-1.6-0.7-1.6-1.7v-1.3c0-1,0.6-1.7,1.6-1.7c0.9,0,1.5,0.5,1.5,1.2v2.3C227.9,355.2,227.3,355.7,226.4,355.7z
	 M238.5,357.6c0-1.3-0.8-2.1-2.6-2.1h-2c-0.6,0-1-0.2-1-0.5c0-0.3,0.2-0.5,0.5-0.7c0.3,0.1,0.7,0.1,1.1,0.1c2,0,3-1,3-2.4
	c0-0.9-0.4-1.6-1.1-2v-0.2h1.6v-1.4H237c-0.7,0-1,0.4-1,1.1v0.2c-0.4-0.1-0.8-0.2-1.3-0.2c-2,0-3,1-3,2.5c0,1,0.4,1.7,1.3,2.1v0.1
	c-0.7,0.2-1.3,0.5-1.3,1.3c0,0.6,0.3,1.1,0.9,1.2v0.2c-0.8,0.1-1.3,0.6-1.3,1.4c0,1.1,0.9,1.7,3.4,1.7
	C237.5,360,238.5,359.1,238.5,357.6z M236.8,357.8c0,0.6-0.5,0.9-1.7,0.9h-0.9c-1.1,0-1.5-0.3-1.5-0.9c0-0.3,0.1-0.6,0.4-0.8h2.5
	C236.5,357.1,236.8,357.4,236.8,357.8z M234.7,353.2c-0.9,0-1.3-0.4-1.3-1.1v-0.2c0-0.7,0.5-1.1,1.3-1.1s1.3,0.4,1.3,1.1v0.2
	C236,352.8,235.5,353.2,234.7,353.2z M242.6,357.2c1.4,0,2.4-0.5,3-1.3l-1-1.1c-0.4,0.6-1,1-1.9,1c-1.2,0-1.8-0.7-1.8-1.8v-0.2h4.9
	v-0.6c0-2-1.1-3.7-3.3-3.7c-2.1,0-3.4,1.5-3.4,3.8C239.1,355.7,240.4,357.2,242.6,357.2z M242.6,350.9c0.9,0,1.4,0.7,1.4,1.7v0.1h-3
	v-0.1C241,351.6,241.6,350.9,242.6,350.9z"/>
<rect x="96.5" y="328.5" class="st5" width="207" height="47"/>
<rect x="96.5" y="392.5" class="st3" width="207" height="47"/>
<path class="st4" d="M100,392h-4v48h4V392z"/>
<path d="M118.9,421h2v-9.8h-1.8v7h0l-1-2l-2.9-5h-2v9.8h1.8v-7h0l1,2L118.9,421z M126.2,421.2c2.1,0,3.4-1.5,3.4-3.8
	c0-2.3-1.3-3.8-3.4-3.8c-2.1,0-3.4,1.5-3.4,3.8C122.8,419.7,124.1,421.2,126.2,421.2z M126.2,419.7c-0.9,0-1.5-0.6-1.5-1.7v-1.4
	c0-1.1,0.6-1.7,1.5-1.7c0.9,0,1.5,0.6,1.5,1.7v1.4C127.7,419.1,127.1,419.7,126.2,419.7z M133.1,421v-4.8c0-0.8,0.7-1.2,1.5-1.2
	c0.9,0,1.2,0.5,1.2,1.6v4.4h1.8v-4.6c0-1.8-0.8-2.9-2.3-2.9c-1.1,0-1.8,0.6-2,1.4h-0.1v-1.2h-1.8v7.3H133.1z M143.5,417.6v-1.8h-4
	v1.8H143.5z M149.2,421v-1.5h-1.3v-6.8h1.3v-1.5h-4.4v1.5h1.3v6.8h-1.3v1.5H149.2z M151.3,421h5c1.4,0,2.5-1.2,2.5-2.8
	c0-1.7-1.3-2.3-2.1-2.3v-0.1c0.9-0.1,1.8-0.6,1.8-2.1c0-1.5-1-2.5-2.6-2.5h-4.5V421z M153.1,416.8h2.6c0.7,0,1.1,0.4,1.1,1.1v0.5
	c0,0.7-0.4,1.1-1.1,1.1h-2.6V416.8z M153.1,412.8h2.3c0.7,0,1.1,0.4,1.1,1v0.4c0,0.6-0.4,1-1.1,1h-2.3V412.8z M160.7,421h1.8v-7h0.1
	l0.8,1.6l2,3.7l2-3.7l0.8-1.6h0.1v7h1.8v-9.8h-2l-2.5,4.8h-0.1l-2.5-4.8h-2.1V421z M178.5,421.2c1.4,0,2.4-0.6,2.9-1.9l-1.4-0.7
	c-0.3,0.7-0.7,1.1-1.5,1.1c-1,0-1.5-0.7-1.5-1.7v-1.3c0-1,0.5-1.7,1.5-1.7c0.8,0,1.2,0.4,1.4,1.1l1.5-0.7c-0.4-1.1-1.4-1.8-2.9-1.8
	c-2.2,0-3.4,1.5-3.4,3.8C175.2,419.7,176.4,421.2,178.5,421.2z M185.7,421v-1.4h-1v-8.9H183v8.6c0,1.1,0.6,1.8,1.8,1.8H185.7z
	 M190.2,421.2c2.1,0,3.4-1.5,3.4-3.8c0-2.3-1.3-3.8-3.4-3.8c-2.1,0-3.4,1.5-3.4,3.8C186.8,419.7,188.1,421.2,190.2,421.2z
	 M190.2,419.7c-0.9,0-1.5-0.6-1.5-1.7v-1.4c0-1.1,0.6-1.7,1.5-1.7c0.9,0,1.5,0.6,1.5,1.7v1.4C191.7,419.1,191.1,419.7,190.2,419.7z
	 M199.7,421h1.8v-7.3h-1.8v4.8c0,0.8-0.7,1.2-1.4,1.2c-0.9,0-1.2-0.5-1.2-1.6v-4.4h-1.8v4.6c0,1.8,0.8,2.9,2.3,2.9
	c1.2,0,1.8-0.7,2-1.4h0.1V421z M208.2,421h1.8v-10.4h-1.8v4.3h-0.1c-0.3-0.8-1.1-1.4-2-1.4c-1.8,0-2.9,1.4-2.9,3.8
	c0,2.5,1,3.8,2.9,3.8c1,0,1.8-0.6,2-1.4h0.1V421z M206.7,419.7c-0.9,0-1.6-0.7-1.6-1.7v-1.3c0-1,0.6-1.7,1.6-1.7
	c0.9,0,1.5,0.5,1.5,1.2v2.3C208.2,419.2,207.6,419.7,206.7,419.7z M215.7,423.8h1.8v-4h0.1c0.3,0.8,1.1,1.4,2,1.4
	c1.8,0,2.9-1.4,2.9-3.8c0-2.4-1-3.8-2.9-3.8c-1,0-1.8,0.5-2,1.4h-0.1v-1.2h-1.8V423.8z M219,419.7c-0.9,0-1.5-0.4-1.5-1.2v-2.3
	c0-0.7,0.6-1.2,1.5-1.2c0.9,0,1.6,0.7,1.6,1.7v1.3C220.6,419,219.9,419.7,219,419.7z M226.1,421v-4.5c0-0.8,0.6-1.1,1.8-1.1h0.6
	v-1.7h-0.4c-1.2,0-1.8,0.7-1.9,1.5h-0.1v-1.5h-1.8v7.3H226.1z M232.8,421.2c2.1,0,3.4-1.5,3.4-3.8c0-2.3-1.3-3.8-3.4-3.8
	c-2.1,0-3.4,1.5-3.4,3.8C229.4,419.7,230.7,421.2,232.8,421.2z M232.8,419.7c-0.9,0-1.5-0.6-1.5-1.7v-1.4c0-1.1,0.6-1.7,1.5-1.7
	c0.9,0,1.5,0.6,1.5,1.7v1.4C234.3,419.1,233.7,419.7,232.8,419.7z M241.5,421l2.4-7.3h-1.7l-1,3.2l-0.7,2.6h-0.1l-0.7-2.6l-1-3.2
	h-1.8l2.4,7.3H241.5z M246.2,412.6c0.7,0,1.1-0.4,1.1-0.9v-0.3c0-0.5-0.3-0.9-1.1-0.9c-0.7,0-1.1,0.4-1.1,0.9v0.3
	C245.2,412.2,245.5,412.6,246.2,412.6z M245.3,421h1.8v-7.3h-1.8V421z M253.9,421h1.8v-10.4h-1.8v4.3h-0.1c-0.3-0.8-1.1-1.4-2-1.4
	c-1.8,0-2.9,1.4-2.9,3.8c0,2.5,1,3.8,2.9,3.8c1,0,1.8-0.6,2-1.4h0.1V421z M252.4,419.7c-0.9,0-1.6-0.7-1.6-1.7v-1.3
	c0-1,0.6-1.7,1.6-1.7c0.9,0,1.5,0.5,1.5,1.2v2.3C253.9,419.2,253.2,419.7,252.4,419.7z M260.8,421.2c1.4,0,2.4-0.5,3-1.3l-1-1.1
	c-0.4,0.6-1,1-1.9,1c-1.2,0-1.8-0.7-1.8-1.8v-0.2h4.9v-0.6c0-2-1-3.7-3.3-3.7c-2.1,0-3.4,1.5-3.4,3.8
	C257.4,419.7,258.7,421.2,260.8,421.2z M260.8,414.9c0.9,0,1.4,0.7,1.4,1.7v0.1h-3v-0.1C259.3,415.6,259.9,414.9,260.8,414.9z
	 M267.6,421v-4.5c0-0.8,0.6-1.1,1.8-1.1h0.6v-1.7h-0.4c-1.2,0-1.8,0.7-1.9,1.5h-0.1v-1.5h-1.8v7.3H267.6z"/>
<rect x="96.5" y="392.5" class="st5" width="207" height="47"/>
<path class="st6" d="M761.1,225.8l21.2,21.2c0.6,0.6,0.6,1.5,0,2.1l-21.2,21.2c-0.6,0.6-1.5,0.6-2.1,0l-21.2-21.2
	c-0.6-0.6-0.6-1.5,0-2.1l21.2-21.2C759.5,225.2,760.5,225.2,761.1,225.8z"/>
<path d="M760,239.2c-1.7,0-3.4,0.5-4.9,1.5c-1.4,1-2.6,2.3-3.2,3.9c-0.7,1.6-0.8,3.4-0.5,5.1c0.3,1.7,1.2,3.3,2.4,4.5
	s2.8,2.1,4.5,2.4c1.7,0.3,3.5,0.2,5.1-0.5c1.6-0.7,3-1.8,3.9-3.2c1-1.4,1.5-3.1,1.5-4.9c0-2.3-0.9-4.5-2.6-6.2
	C764.5,240.2,762.3,239.2,760,239.2z M760,255.5c-1.5,0-2.9-0.4-4.2-1.3c-1.2-0.8-2.2-2-2.8-3.4c-0.6-1.4-0.7-2.9-0.4-4.3
	c0.3-1.5,1-2.8,2.1-3.8c1-1,2.4-1.8,3.8-2.1s3-0.1,4.3,0.4c1.4,0.6,2.5,1.5,3.4,2.8c0.8,1.2,1.3,2.7,1.3,4.2c0,2-0.8,3.9-2.2,5.3
	C763.9,254.7,762,255.5,760,255.5z"/>
<path d="M760,253.6c0.5,0,0.9-0.4,0.9-0.9c0-0.5-0.4-0.9-0.9-0.9s-0.9,0.4-0.9,0.9C759.1,253.2,759.5,253.6,760,253.6z"/>
<path d="M760.6,243h-0.9c-0.4,0-0.7,0.1-1.1,0.2c-0.3,0.1-0.7,0.3-0.9,0.6c-0.3,0.3-0.5,0.6-0.6,0.9c-0.1,0.3-0.2,0.7-0.2,1.1v0.3
	h1.2v-0.3c0-0.4,0.2-0.8,0.5-1.1c0.3-0.3,0.7-0.5,1.1-0.5h0.9c0.4,0,0.8,0.2,1.1,0.5c0.3,0.3,0.5,0.7,0.5,1.1c0,0.4-0.2,0.8-0.5,1.1
	c-0.3,0.3-0.7,0.5-1.1,0.5h-1.2v2.8h1.2v-1.6c0.7,0,1.5-0.3,2-0.8c0.5-0.5,0.8-1.2,0.8-2c0-0.7-0.3-1.5-0.8-2
	C762.1,243.3,761.4,243,760.6,243z"/>
<path d="M748.2,294h1.8v-9.8h-1.8v4h-4.1v-4h-1.8v9.8h1.8v-4.1h4.1V294z M755.3,294.2c2.1,0,3.4-1.5,3.4-3.8c0-2.3-1.3-3.8-3.4-3.8
	c-2.1,0-3.4,1.5-3.4,3.8C751.9,292.7,753.2,294.2,755.3,294.2z M755.3,292.7c-0.9,0-1.5-0.6-1.5-1.7v-1.4c0-1.1,0.6-1.7,1.5-1.7
	c0.9,0,1.5,0.6,1.5,1.7v1.4C756.8,292.1,756.2,292.7,755.3,292.7z M762.9,294.2c1.8,0,3-1,3-2.4c0-1.2-0.8-1.9-2.4-2.2l-0.7-0.1
	c-0.7-0.1-1-0.3-1-0.8c0-0.4,0.3-0.8,1.1-0.8c0.7,0,1.3,0.3,1.8,0.8l1-1c-0.7-0.7-1.4-1.1-2.9-1.1c-1.7,0-2.8,0.9-2.8,2.3
	c0,1.3,0.9,2,2.4,2.2l0.7,0.1c0.6,0.1,0.9,0.3,0.9,0.8c0,0.5-0.4,0.8-1.2,0.8c-0.8,0-1.5-0.4-2-1l-1.1,1.1
	C760.6,293.7,761.5,294.2,762.9,294.2z M769.8,294h1.3v-1.4h-1.4v-4.5h1.5v-1.4h-1.5v-2h-1.6v1.2c0,0.5-0.2,0.8-0.7,0.8h-0.6v1.4
	h1.1v4C767.9,293.3,768.5,294,769.8,294z M775.3,294.2c1.8,0,3-1,3-2.4c0-1.2-0.8-1.9-2.4-2.2l-0.7-0.1c-0.7-0.1-1-0.3-1-0.8
	c0-0.4,0.3-0.8,1.1-0.8c0.7,0,1.3,0.3,1.8,0.8l1.1-1c-0.7-0.7-1.4-1.1-2.9-1.1c-1.7,0-2.8,0.9-2.8,2.3c0,1.3,0.9,2,2.4,2.2l0.7,0.1
	c0.6,0.1,0.9,0.3,0.9,0.8c0,0.5-0.4,0.8-1.2,0.8c-0.8,0-1.5-0.4-2-1l-1.1,1.1C773,293.7,773.9,294.2,775.3,294.2z"/>
<rect x="656.5" y="328.5" class="st3" width="207" height="47"/>
<path class="st4" d="M660,328h-4v48h4V328z"/>
<path d="M678.9,357h2v-9.8h-1.8v7h0l-1-2l-2.9-5h-2v9.8h1.8v-7h0l1,2L678.9,357z M687.6,357h1.8v-7.3h-1.8v4.8
	c0,0.8-0.7,1.2-1.4,1.2c-0.9,0-1.2-0.5-1.2-1.6v-4.4h-1.8v4.6c0,1.8,0.8,2.9,2.3,2.9c1.2,0,1.8-0.7,2-1.4h0.1V357z M693.4,357v-4.8
	c0-0.8,0.7-1.2,1.4-1.2c0.8,0,1.2,0.5,1.2,1.6v4.4h1.8v-4.8c0-0.8,0.7-1.2,1.4-1.2c0.8,0,1.2,0.5,1.2,1.6v4.4h1.8v-4.6
	c0-1.8-0.8-2.9-2.2-2.9c-1.2,0-2,0.7-2.2,1.5h0c-0.4-1-1.1-1.5-2.1-1.5c-1.1,0-1.7,0.6-2,1.4h-0.1v-1.2h-1.8v7.3H693.4z M704.2,357
	h1.8v-1.2h0.1c0.3,0.8,1,1.4,2,1.4c1.8,0,2.9-1.4,2.9-3.8c0-2.4-1-3.8-2.9-3.8c-1,0-1.8,0.5-2,1.4H706v-4.3h-1.8V357z M707.5,355.7
	c-0.9,0-1.5-0.4-1.5-1.2v-2.3c0-0.7,0.6-1.2,1.5-1.2c0.9,0,1.6,0.7,1.6,1.7v1.3C709.1,355,708.5,355.7,707.5,355.7z M715.7,357.2
	c1.4,0,2.4-0.5,3-1.3l-1-1.1c-0.4,0.6-1,1-1.9,1c-1.2,0-1.8-0.7-1.8-1.8v-0.2h4.9v-0.6c0-2-1-3.7-3.3-3.7c-2.1,0-3.4,1.5-3.4,3.8
	C712.3,355.7,713.6,357.2,715.7,357.2z M715.7,350.9c0.9,0,1.4,0.7,1.4,1.7v0.1h-3v-0.1C714.2,351.6,714.8,350.9,715.7,350.9z
	 M722.5,357v-4.5c0-0.8,0.6-1.1,1.8-1.1h0.6v-1.7h-0.4c-1.2,0-1.8,0.7-1.9,1.5h-0.1v-1.5h-1.8v7.3H722.5z M731.7,357.2
	c1.1,0,1.9-0.5,2.1-1.4h0.1c0.1,0.8,0.6,1.3,1.4,1.3h1v-1.4h-0.7v-3.4c0-1.7-1.1-2.6-3-2.6c-1.5,0-2.3,0.6-2.9,1.4l1.1,1
	c0.4-0.5,0.8-0.9,1.7-0.9c1,0,1.4,0.5,1.4,1.3v0.5h-1.2c-2,0-3.1,0.7-3.1,2.2C729.4,356.3,730.2,357.2,731.7,357.2z M732.3,355.9
	c-0.7,0-1.1-0.3-1.1-0.9v-0.2c0-0.6,0.5-0.9,1.4-0.9h1.1v1C733.7,355.5,733.1,355.9,732.3,355.9z M739.7,357v-4.8
	c0-0.8,0.7-1.2,1.5-1.2c0.9,0,1.2,0.5,1.2,1.6v4.4h1.8v-4.6c0-1.8-0.8-2.9-2.3-2.9c-1.1,0-1.8,0.6-2,1.4h-0.1v-1.2h-1.8v7.3H739.7z
	 M750.8,357h1.8v-10.4h-1.8v4.3h-0.1c-0.3-0.8-1-1.4-2-1.4c-1.8,0-2.9,1.4-2.9,3.8c0,2.5,1,3.8,2.9,3.8c1,0,1.8-0.6,2-1.4h0.1V357z
	 M749.3,355.7c-0.9,0-1.6-0.7-1.6-1.7v-1.3c0-1,0.6-1.7,1.6-1.7c0.9,0,1.5,0.5,1.5,1.2v2.3C750.8,355.2,750.1,355.7,749.3,355.7z
	 M760.6,357h1.3v-1.4h-1.4v-4.5h1.5v-1.4h-1.5v-2h-1.6v1.2c0,0.5-0.2,0.8-0.7,0.8h-0.6v1.4h1.1v4C758.7,356.3,759.3,357,760.6,357z
	 M766.9,353.6l-0.5,1.8h-0.1l-0.5-1.8l-1.3-3.9h-1.8l2.6,7.7l-0.3,1h-1.3v1.4h1.1c1.2,0,1.7-0.4,2.1-1.5l2.9-8.6h-1.7L766.9,353.6z
	 M771.2,359.8h1.8v-4h0.1c0.3,0.8,1,1.4,2,1.4c1.8,0,2.9-1.4,2.9-3.8c0-2.4-1-3.8-2.9-3.8c-1,0-1.8,0.5-2,1.4H773v-1.2h-1.8V359.8z
	 M774.5,355.7c-0.9,0-1.5-0.4-1.5-1.2v-2.3c0-0.7,0.6-1.2,1.5-1.2c0.9,0,1.6,0.7,1.6,1.7v1.3C776,355,775.4,355.7,774.5,355.7z
	 M782.7,357.2c1.4,0,2.4-0.5,3-1.3l-1-1.1c-0.4,0.6-1,1-1.9,1c-1.2,0-1.8-0.7-1.8-1.8v-0.2h4.9v-0.6c0-2-1-3.7-3.3-3.7
	c-2.1,0-3.4,1.5-3.4,3.8C779.2,355.7,780.5,357.2,782.7,357.2z M782.7,350.9c0.9,0,1.4,0.7,1.4,1.7v0.1h-3v-0.1
	C781.1,351.6,781.7,350.9,782.7,350.9z M794.1,357.2c2.1,0,3.4-1.5,3.4-3.8c0-2.3-1.3-3.8-3.4-3.8c-2.1,0-3.4,1.5-3.4,3.8
	C790.7,355.7,792,357.2,794.1,357.2z M794.1,355.7c-0.9,0-1.5-0.6-1.5-1.7v-1.4c0-1.1,0.6-1.7,1.5-1.7c0.9,0,1.5,0.6,1.5,1.7v1.4
	C795.6,355.1,795,355.7,794.1,355.7z M799.5,357h1.8v-5.9h1.5v-1.4h-1.5v-1.6h1.5v-1.4h-1.3c-1.3,0-2,0.7-2,2v1h-1.1v1.4h1.1V357z
	 M807.7,357h1.8v-4.8c0-0.8,0.7-1.2,1.5-1.2c0.9,0,1.2,0.5,1.2,1.6v4.4h1.8v-4.6c0-1.8-0.8-2.9-2.3-2.9c-1.1,0-1.8,0.6-2,1.4h-0.1
	v-4.3h-1.8V357z M818.9,357.2c2.1,0,3.4-1.5,3.4-3.8c0-2.3-1.3-3.8-3.4-3.8c-2.1,0-3.4,1.5-3.4,3.8
	C815.6,355.7,816.9,357.2,818.9,357.2z M818.9,355.7c-0.9,0-1.5-0.6-1.5-1.7v-1.4c0-1.1,0.6-1.7,1.5-1.7c0.9,0,1.5,0.6,1.5,1.7v1.4
	C820.5,355.1,819.9,355.7,818.9,355.7z M826.5,357.2c1.8,0,3-1,3-2.4c0-1.2-0.8-1.9-2.4-2.2l-0.7-0.1c-0.7-0.1-1-0.3-1-0.8
	c0-0.4,0.3-0.8,1.1-0.8c0.7,0,1.3,0.3,1.8,0.8l1-1c-0.7-0.7-1.4-1.1-2.9-1.1c-1.7,0-2.8,0.9-2.8,2.3c0,1.3,0.9,2,2.4,2.2l0.7,0.1
	c0.6,0.1,0.9,0.3,0.9,0.8c0,0.5-0.4,0.8-1.2,0.8c-0.8,0-1.5-0.4-2-1l-1.1,1.1C824.2,356.7,825.1,357.2,826.5,357.2z M833.4,357h1.3
	v-1.4h-1.4v-4.5h1.5v-1.4h-1.5v-2h-1.6v1.2c0,0.5-0.2,0.8-0.7,0.8h-0.6v1.4h1.1v4C831.5,356.3,832.2,357,833.4,357z M838.9,357.2
	c1.8,0,3-1,3-2.4c0-1.2-0.8-1.9-2.4-2.2l-0.7-0.1c-0.7-0.1-1-0.3-1-0.8c0-0.4,0.3-0.8,1.1-0.8c0.7,0,1.3,0.3,1.8,0.8l1-1
	c-0.7-0.7-1.4-1.1-2.9-1.1c-1.7,0-2.8,0.9-2.8,2.3c0,1.3,0.9,2,2.4,2.2l0.7,0.1c0.6,0.1,0.9,0.3,0.9,0.8c0,0.5-0.4,0.8-1.2,0.8
	c-0.8,0-1.5-0.4-2-1l-1.1,1.1C836.6,356.7,837.5,357.2,838.9,357.2z"/>
<rect x="656.5" y="328.5" class="st5" width="207" height="47"/>
<rect x="376.5" y="328.5" class="st3" width="207" height="47"/>
<path class="st4" d="M380,328h-4v48h4V328z"/>
<path d="M396.2,357.2c2.3,0,3.7-1.3,3.7-3.1c0-1.6-0.9-2.5-2.9-2.8L396,351c-0.9-0.2-1.4-0.5-1.4-1.2c0-0.7,0.5-1.1,1.6-1.1
	c1,0,1.7,0.4,2.2,1l1.3-1.2c-0.8-0.9-1.9-1.4-3.3-1.4c-2.2,0-3.5,1.1-3.5,2.9c0,1.6,1,2.5,2.9,2.8l0.9,0.1c1,0.2,1.3,0.6,1.3,1.2
	c0,0.8-0.6,1.4-1.7,1.4c-1,0-1.8-0.4-2.5-1.2l-1.2,1.2C393.4,356.5,394.5,357.2,396.2,357.2z M403.6,357.2c1.1,0,1.9-0.5,2.1-1.4
	h0.1c0.1,0.8,0.6,1.3,1.4,1.3h1v-1.4h-0.7v-3.4c0-1.7-1.1-2.6-3-2.6c-1.5,0-2.3,0.6-2.9,1.4l1.1,1c0.4-0.5,0.8-0.9,1.7-0.9
	c1,0,1.4,0.5,1.4,1.3v0.5h-1.2c-2,0-3.1,0.7-3.1,2.2C401.2,356.3,402.1,357.2,403.6,357.2z M404.2,355.9c-0.7,0-1.1-0.3-1.1-0.9
	v-0.2c0-0.6,0.5-0.9,1.4-0.9h1.1v1C405.6,355.5,405,355.9,404.2,355.9z M412,357h1.3v-1.4h-1.4v-4.5h1.5v-1.4h-1.5v-2h-1.6v1.2
	c0,0.5-0.2,0.8-0.7,0.8H409v1.4h1.1v4C410.1,356.3,410.7,357,412,357z M418,357.2c1.4,0,2.4-0.5,3-1.3l-1-1.1c-0.4,0.6-1,1-1.9,1
	c-1.2,0-1.8-0.7-1.8-1.8v-0.2h4.9v-0.6c0-2-1.1-3.7-3.3-3.7c-2.1,0-3.4,1.5-3.4,3.8C414.5,355.7,415.8,357.2,418,357.2z
	 M417.9,350.9c0.9,0,1.4,0.7,1.4,1.7v0.1h-3v-0.1C416.4,351.6,417,350.9,417.9,350.9z M425.7,357v-1.4h-1v-8.9H423v8.6
	c0,1.1,0.6,1.8,1.8,1.8H425.7z M429.9,357v-1.4h-1v-8.9h-1.8v8.6c0,1.1,0.6,1.8,1.8,1.8H429.9z M432.3,348.6c0.7,0,1.1-0.4,1.1-0.9
	v-0.3c0-0.5-0.3-0.9-1.1-0.9c-0.7,0-1,0.4-1,0.9v0.3C431.3,348.2,431.6,348.6,432.3,348.6z M431.4,357h1.8v-7.3h-1.8V357z
	 M437.8,357h1.3v-1.4h-1.4v-4.5h1.5v-1.4h-1.5v-2H436v1.2c0,0.5-0.2,0.8-0.7,0.8h-0.6v1.4h1.1v4C435.9,356.3,436.5,357,437.8,357z
	 M443.8,357.2c1.4,0,2.4-0.5,3-1.3l-1-1.1c-0.4,0.6-1,1-1.9,1c-1.2,0-1.8-0.7-1.8-1.8v-0.2h4.9v-0.6c0-2-1.1-3.7-3.3-3.7
	c-2.1,0-3.4,1.5-3.4,3.8C440.3,355.7,441.6,357.2,443.8,357.2z M443.7,350.9c0.9,0,1.4,0.7,1.4,1.7v0.1h-3v-0.1
	C442.2,351.6,442.8,350.9,443.7,350.9z M452.7,353.6v-1.8h-4v1.8H452.7z M457.8,357.2c1.4,0,2.4-0.5,3-1.3l-1-1.1
	c-0.4,0.6-1,1-1.9,1c-1.2,0-1.8-0.7-1.8-1.8v-0.2h4.9v-0.6c0-2-1-3.7-3.3-3.7c-2.1,0-3.4,1.5-3.4,3.8
	C454.4,355.7,455.6,357.2,457.8,357.2z M457.8,350.9c0.9,0,1.4,0.7,1.4,1.7v0.1h-3v-0.1C456.2,351.6,456.8,350.9,457.8,350.9z
	 M464.6,357v-4.8c0-0.8,0.7-1.2,1.5-1.2c0.9,0,1.2,0.5,1.2,1.6v4.4h1.8v-4.6c0-1.8-0.8-2.9-2.3-2.9c-1.1,0-1.8,0.6-2,1.4h-0.1v-1.2
	h-1.8v7.3H464.6z M473,357.2c1.1,0,1.9-0.5,2.1-1.4h0.1c0.1,0.8,0.6,1.3,1.4,1.3h1v-1.4h-0.7v-3.4c0-1.7-1.1-2.6-3-2.6
	c-1.5,0-2.3,0.6-2.9,1.4l1.1,1c0.4-0.5,0.8-0.9,1.7-0.9c1,0,1.4,0.5,1.4,1.3v0.5h-1.2c-2,0-3.1,0.7-3.1,2.2
	C470.7,356.3,471.5,357.2,473,357.2z M473.6,355.9c-0.7,0-1.1-0.3-1.1-0.9v-0.2c0-0.6,0.5-0.9,1.4-0.9h1.1v1
	C475.1,355.5,474.4,355.9,473.6,355.9z M479.2,357h1.8v-1.2h0.1c0.3,0.8,1,1.4,2,1.4c1.8,0,2.9-1.4,2.9-3.8c0-2.4-1-3.8-2.9-3.8
	c-1,0-1.8,0.5-2,1.4H481v-4.3h-1.8V357z M482.5,355.7c-0.9,0-1.5-0.4-1.5-1.2v-2.3c0-0.7,0.6-1.2,1.5-1.2c0.9,0,1.6,0.7,1.6,1.7v1.3
	C484,355,483.4,355.7,482.5,355.7z M490.5,357v-1.4h-1v-8.9h-1.8v8.6c0,1.1,0.6,1.8,1.8,1.8H490.5z M495,357.2c1.4,0,2.4-0.5,3-1.3
	l-1-1.1c-0.4,0.6-1,1-1.9,1c-1.2,0-1.8-0.7-1.8-1.8v-0.2h4.9v-0.6c0-2-1-3.7-3.3-3.7c-2.1,0-3.4,1.5-3.4,3.8
	C491.5,355.7,492.8,357.2,495,357.2z M494.9,350.9c0.9,0,1.4,0.7,1.4,1.7v0.1h-3v-0.1C493.4,351.6,494,350.9,494.9,350.9z
	 M504.5,357h1.8v-10.4h-1.8v4.3h-0.1c-0.3-0.8-1-1.4-2-1.4c-1.8,0-2.9,1.4-2.9,3.8c0,2.5,1,3.8,2.9,3.8c1,0,1.8-0.6,2-1.4h0.1V357z
	 M503,355.7c-0.9,0-1.6-0.7-1.6-1.7v-1.3c0-1,0.6-1.7,1.6-1.7c0.9,0,1.5,0.5,1.5,1.2v2.3C504.5,355.2,503.9,355.7,503,355.7z
	 M514.4,357.2c1.8,0,3-1,3-2.4c0-1.2-0.8-1.9-2.4-2.2l-0.7-0.1c-0.7-0.1-1-0.3-1-0.8c0-0.4,0.3-0.8,1.1-0.8c0.7,0,1.3,0.3,1.8,0.8
	l1.1-1c-0.7-0.7-1.4-1.1-2.9-1.1c-1.7,0-2.8,0.9-2.8,2.3c0,1.3,0.9,2,2.4,2.2l0.7,0.1c0.6,0.1,0.9,0.3,0.9,0.8
	c0,0.5-0.4,0.8-1.2,0.8c-0.8,0-1.5-0.4-2-1l-1.1,1.1C512.1,356.7,513,357.2,514.4,357.2z M522.1,357.2c1.4,0,2.4-0.5,3-1.3l-1-1.1
	c-0.4,0.6-1,1-1.9,1c-1.2,0-1.8-0.7-1.8-1.8v-0.2h4.9v-0.6c0-2-1-3.7-3.3-3.7c-2.1,0-3.4,1.5-3.4,3.8
	C518.7,355.7,519.9,357.2,522.1,357.2z M522.1,350.9c0.9,0,1.4,0.7,1.4,1.7v0.1h-3v-0.1C520.5,351.6,521.1,350.9,522.1,350.9z
	 M528.9,357v-4.5c0-0.8,0.6-1.1,1.8-1.1h0.6v-1.7h-0.4c-1.2,0-1.8,0.7-1.9,1.5h-0.1v-1.5h-1.8v7.3H528.9z M536.6,357l2.5-7.3h-1.7
	l-1,3.2l-0.7,2.6h-0.1l-0.7-2.6l-1-3.2H532l2.4,7.3H536.6z M541.3,348.6c0.7,0,1-0.4,1-0.9v-0.3c0-0.5-0.3-0.9-1-0.9
	c-0.7,0-1.1,0.4-1.1,0.9v0.3C540.2,348.2,540.5,348.6,541.3,348.6z M540.4,357h1.8v-7.3h-1.8V357z M547.3,357.2
	c1.4,0,2.4-0.6,2.9-1.9l-1.4-0.7c-0.3,0.7-0.7,1.1-1.5,1.1c-1,0-1.5-0.7-1.5-1.7v-1.3c0-1,0.5-1.7,1.5-1.7c0.8,0,1.2,0.4,1.4,1.1
	l1.5-0.7c-0.4-1.1-1.4-1.8-2.9-1.8c-2.2,0-3.4,1.5-3.4,3.8C543.9,355.7,545.1,357.2,547.3,357.2z M554.6,357.2c1.4,0,2.4-0.5,3-1.3
	l-1-1.1c-0.4,0.6-1,1-1.9,1c-1.2,0-1.8-0.7-1.8-1.8v-0.2h4.9v-0.6c0-2-1.1-3.7-3.3-3.7c-2.1,0-3.4,1.5-3.4,3.8
	C551.2,355.7,552.5,357.2,554.6,357.2z M554.6,350.9c0.9,0,1.4,0.7,1.4,1.7v0.1h-3v-0.1C553.1,351.6,553.7,350.9,554.6,350.9z
	 M562,357.2c1.8,0,3-1,3-2.4c0-1.2-0.8-1.9-2.4-2.2l-0.7-0.1c-0.7-0.1-1-0.3-1-0.8c0-0.4,0.3-0.8,1.1-0.8c0.7,0,1.3,0.3,1.8,0.8l1-1
	c-0.7-0.7-1.4-1.1-2.9-1.1c-1.7,0-2.8,0.9-2.8,2.3c0,1.3,0.9,2,2.4,2.2l0.7,0.1c0.6,0.1,0.9,0.3,0.9,0.8c0,0.5-0.4,0.8-1.2,0.8
	c-0.8,0-1.5-0.4-2-1l-1.1,1.1C559.7,356.7,560.7,357.2,562,357.2z"/>
<rect x="376.5" y="328.5" class="st5" width="207" height="47"/>
<rect x="656.5" y="392.5" class="st3" width="207" height="47"/>
<path class="st4" d="M660,392h-4v48h4V392z"/>
<path d="M677,421.2c2.6,0,4.3-1.8,4.3-5.1c0-3.3-1.7-5.1-4.3-5.1c-2.6,0-4.3,1.8-4.3,5.1C672.7,419.4,674.4,421.2,677,421.2z
	 M677,419.5c-1.4,0-2.3-1-2.3-2.7v-1.5c0-1.7,0.9-2.7,2.3-2.7c1.4,0,2.3,1,2.3,2.7v1.5C679.3,418.5,678.4,419.5,677,419.5z
	 M683.2,423.8h1.8v-4h0.1c0.3,0.8,1,1.4,2,1.4c1.8,0,2.9-1.4,2.9-3.8c0-2.4-1-3.8-2.9-3.8c-1,0-1.8,0.5-2,1.4H685v-1.2h-1.8V423.8z
	 M686.5,419.7c-0.9,0-1.5-0.4-1.5-1.2v-2.3c0-0.7,0.6-1.2,1.5-1.2c0.9,0,1.6,0.7,1.6,1.7v1.3C688,419,687.4,419.7,686.5,419.7z
	 M694.7,421.2c1.4,0,2.4-0.5,3-1.3l-1-1.1c-0.4,0.6-1,1-1.9,1c-1.2,0-1.8-0.7-1.8-1.8v-0.2h4.9v-0.6c0-2-1.1-3.7-3.3-3.7
	c-2.1,0-3.4,1.5-3.4,3.8C691.2,419.7,692.5,421.2,694.7,421.2z M694.6,414.9c0.9,0,1.4,0.7,1.4,1.7v0.1h-3v-0.1
	C693.1,415.6,693.7,414.9,694.6,414.9z M701.5,421v-4.5c0-0.8,0.6-1.1,1.8-1.1h0.6v-1.7h-0.4c-1.2,0-1.8,0.7-1.9,1.5h-0.1v-1.5h-1.8
	v7.3H701.5z M707,421.2c1.1,0,1.9-0.5,2.1-1.4h0.1c0.1,0.8,0.6,1.3,1.4,1.3h1v-1.4h-0.7v-3.4c0-1.7-1-2.6-3-2.6
	c-1.5,0-2.3,0.6-2.9,1.4l1.1,1c0.4-0.5,0.8-0.9,1.7-0.9c1,0,1.4,0.5,1.4,1.3v0.5h-1.2c-2,0-3.1,0.7-3.1,2.2
	C704.7,420.3,705.5,421.2,707,421.2z M707.6,419.9c-0.7,0-1.1-0.3-1.1-0.9v-0.2c0-0.6,0.5-0.9,1.4-0.9h1.1v1
	C709,419.5,708.4,419.9,707.6,419.9z M715.4,421h1.3v-1.4h-1.4v-4.5h1.5v-1.4h-1.5v-2h-1.6v1.2c0,0.5-0.2,0.8-0.7,0.8h-0.6v1.4h1.1
	v4C713.5,420.3,714.2,421,715.4,421z M719.4,412.6c0.7,0,1-0.4,1-0.9v-0.3c0-0.5-0.3-0.9-1-0.9c-0.7,0-1.1,0.4-1.1,0.9v0.3
	C718.4,412.2,718.7,412.6,719.4,412.6z M718.5,421h1.8v-7.3h-1.8V421z M724.3,421v-4.8c0-0.8,0.7-1.2,1.5-1.2c0.9,0,1.2,0.5,1.2,1.6
	v4.4h1.8v-4.6c0-1.8-0.8-2.9-2.3-2.9c-1.1,0-1.8,0.6-2,1.4h-0.1v-1.2h-1.8v7.3H724.3z M737.5,421.6c0-1.3-0.8-2.1-2.6-2.1h-2
	c-0.6,0-1-0.2-1-0.5c0-0.3,0.2-0.5,0.5-0.7c0.3,0.1,0.7,0.1,1.1,0.1c2,0,3-1,3-2.4c0-0.9-0.4-1.6-1.1-2v-0.2h1.6v-1.4H736
	c-0.7,0-1,0.4-1,1.1v0.2c-0.4-0.1-0.8-0.2-1.3-0.2c-2,0-3,1-3,2.5c0,1,0.4,1.7,1.3,2.1v0.1c-0.7,0.2-1.3,0.5-1.3,1.3
	c0,0.6,0.3,1.1,0.9,1.2v0.2c-0.8,0.1-1.3,0.6-1.3,1.4c0,1.1,0.9,1.7,3.4,1.7C736.5,424,737.5,423.1,737.5,421.6z M735.8,421.8
	c0,0.6-0.5,0.9-1.7,0.9h-0.9c-1.1,0-1.5-0.3-1.5-0.9c0-0.3,0.1-0.6,0.4-0.8h2.5C735.5,421.1,735.8,421.4,735.8,421.8z M733.7,417.2
	c-0.9,0-1.3-0.4-1.3-1.1v-0.2c0-0.7,0.5-1.1,1.3-1.1s1.3,0.4,1.3,1.1v0.2C735,416.8,734.5,417.2,733.7,417.2z M744.6,421.2
	c1.8,0,3-1,3-2.4c0-1.2-0.8-1.9-2.4-2.2l-0.7-0.1c-0.7-0.1-1-0.3-1-0.8c0-0.4,0.3-0.8,1.1-0.8c0.7,0,1.3,0.3,1.8,0.8l1.1-1
	c-0.7-0.7-1.4-1.1-2.9-1.1c-1.7,0-2.8,0.9-2.8,2.3c0,1.3,0.9,2,2.4,2.2l0.7,0.1c0.6,0.1,0.9,0.3,0.9,0.8c0,0.5-0.4,0.8-1.2,0.8
	c-0.8,0-1.5-0.4-2-1l-1.1,1.1C742.3,420.7,743.2,421.2,744.6,421.2z M752.4,417.6l-0.5,1.8h-0.1l-0.5-1.8l-1.3-3.9h-1.8l2.6,7.7
	l-0.3,1h-1.3v1.4h1.1c1.2,0,1.7-0.4,2.1-1.5l2.9-8.6h-1.7L752.4,417.6z M759,421.2c1.8,0,3-1,3-2.4c0-1.2-0.8-1.9-2.4-2.2l-0.7-0.1
	c-0.7-0.1-1-0.3-1-0.8c0-0.4,0.3-0.8,1.1-0.8c0.7,0,1.3,0.3,1.8,0.8l1-1c-0.7-0.7-1.4-1.1-2.9-1.1c-1.7,0-2.8,0.9-2.8,2.3
	c0,1.3,0.9,2,2.4,2.2l0.7,0.1c0.6,0.1,0.9,0.3,0.9,0.8c0,0.5-0.4,0.8-1.2,0.8c-0.8,0-1.5-0.4-2-1l-1.1,1.1
	C756.7,420.7,757.6,421.2,759,421.2z M765.9,421h1.3v-1.4h-1.4v-4.5h1.5v-1.4h-1.5v-2h-1.6v1.2c0,0.5-0.2,0.8-0.7,0.8h-0.6v1.4h1.1
	v4C764,420.3,764.7,421,765.9,421z M771.9,421.2c1.4,0,2.4-0.5,3-1.3l-1-1.1c-0.4,0.6-1,1-1.9,1c-1.2,0-1.8-0.7-1.8-1.8v-0.2h4.9
	v-0.6c0-2-1-3.7-3.3-3.7c-2.1,0-3.4,1.5-3.4,3.8C768.5,419.7,769.7,421.2,771.9,421.2z M771.9,414.9c0.9,0,1.4,0.7,1.4,1.7v0.1h-3
	v-0.1C770.3,415.6,770.9,414.9,771.9,414.9z M778.7,421v-4.8c0-0.8,0.7-1.2,1.4-1.2c0.8,0,1.2,0.5,1.2,1.6v4.4h1.8v-4.8
	c0-0.8,0.7-1.2,1.4-1.2c0.8,0,1.2,0.5,1.2,1.6v4.4h1.8v-4.6c0-1.8-0.8-2.9-2.2-2.9c-1.2,0-2,0.7-2.2,1.5h0c-0.3-1-1.1-1.5-2.1-1.5
	c-1.1,0-1.7,0.6-2,1.4h-0.1v-1.2h-1.8v7.3H778.7z"/>
<rect x="656.5" y="392.5" class="st5" width="207" height="47"/>
<rect x="96.5" y="456.5" class="st3" width="207" height="47"/>
<path class="st4" d="M100,456h-4v48h4V456z"/>
<path d="M117.2,485v-1.5h-1.3v-6.8h1.3v-1.5h-4.4v1.5h1.3v6.8h-1.3v1.5H117.2z M119.2,485h5c1.4,0,2.5-1.2,2.5-2.8
	c0-1.7-1.3-2.3-2.1-2.3v-0.1c0.9-0.1,1.8-0.6,1.8-2.1c0-1.5-1-2.5-2.6-2.5h-4.5V485z M121.1,480.8h2.6c0.7,0,1.1,0.4,1.1,1.1v0.5
	c0,0.7-0.4,1.1-1.1,1.1h-2.6V480.8z M121.1,476.8h2.3c0.7,0,1.1,0.4,1.1,1v0.4c0,0.6-0.4,1-1.1,1h-2.3V476.8z M128.7,485h1.8v-7h0.1
	l0.8,1.6l2,3.7l2-3.7l0.8-1.6h0.1v7h1.8v-9.8h-2l-2.5,4.8h-0.1l-2.5-4.8h-2.1V485z M147.5,485.2c1.8,0,2.9-0.9,3.6-2.3l-1.5-0.9
	c-0.3,0.9-1,1.6-2.1,1.6c-1.4,0-2.3-1-2.3-2.6v-1.5c0-1.7,0.9-2.7,2.3-2.7c1.1,0,1.7,0.6,2,1.5l1.6-0.8c-0.7-1.5-1.8-2.3-3.6-2.3
	c-2.6,0-4.2,1.8-4.2,5.1C143.3,483.5,144.9,485.2,147.5,485.2z M155.5,485v-1.4h-1v-8.9h-1.8v8.6c0,1.1,0.6,1.8,1.8,1.8H155.5z
	 M159.9,485.2c2.1,0,3.4-1.5,3.4-3.8c0-2.3-1.3-3.8-3.4-3.8c-2.1,0-3.4,1.5-3.4,3.8C156.5,483.7,157.8,485.2,159.9,485.2z
	 M159.9,483.7c-0.9,0-1.5-0.6-1.5-1.7v-1.4c0-1.1,0.6-1.7,1.5-1.7c0.9,0,1.5,0.6,1.5,1.7v1.4C161.5,483.1,160.9,483.7,159.9,483.7z
	 M169.5,485h1.8v-7.3h-1.8v4.8c0,0.8-0.7,1.2-1.4,1.2c-0.9,0-1.2-0.5-1.2-1.6v-4.4H165v4.6c0,1.8,0.8,2.9,2.3,2.9
	c1.2,0,1.8-0.7,2-1.4h0.1V485z M178,485h1.8v-10.4H178v4.3h-0.1c-0.3-0.8-1.1-1.4-2-1.4c-1.8,0-2.9,1.4-2.9,3.8c0,2.5,1,3.8,2.9,3.8
	c1,0,1.8-0.6,2-1.4h0.1V485z M176.5,483.7c-0.9,0-1.6-0.7-1.6-1.7v-1.3c0-1,0.6-1.7,1.6-1.7c0.9,0,1.5,0.5,1.5,1.2v2.3
	C178,483.2,177.4,483.7,176.5,483.7z"/>
<rect x="96.5" y="456.5" class="st5" width="207" height="47"/>
<path class="st6" d="M193.6,225.8l21.2,21.2c0.6,0.6,0.6,1.5,0,2.1l-21.2,21.2c-0.6,0.6-1.5,0.6-2.1,0l-21.2-21.2
	c-0.6-0.6-0.6-1.5,0-2.1l21.2-21.2C192,225.2,193,225.2,193.6,225.8z"/>
<path d="M193,239.2c-1.7,0-3.4,0.5-4.9,1.5c-1.4,1-2.6,2.3-3.2,3.9c-0.7,1.6-0.8,3.4-0.5,5.1c0.3,1.7,1.2,3.3,2.4,4.5
	s2.8,2.1,4.5,2.4c1.7,0.3,3.5,0.2,5.1-0.5c1.6-0.7,3-1.8,3.9-3.2c1-1.4,1.5-3.1,1.5-4.9c0-2.3-0.9-4.5-2.6-6.2
	C197.5,240.2,195.3,239.2,193,239.2z M193,255.5c-1.5,0-2.9-0.4-4.2-1.3c-1.2-0.8-2.2-2-2.8-3.4c-0.6-1.4-0.7-2.9-0.4-4.3
	c0.3-1.5,1-2.8,2.1-3.8c1-1,2.4-1.8,3.8-2.1s3-0.1,4.3,0.4c1.4,0.6,2.5,1.5,3.4,2.8c0.8,1.2,1.3,2.7,1.3,4.2c0,2-0.8,3.9-2.2,5.3
	C196.9,254.7,195,255.5,193,255.5z"/>
<path d="M193,253.6c0.5,0,0.9-0.4,0.9-0.9c0-0.5-0.4-0.9-0.9-0.9s-0.9,0.4-0.9,0.9C192.1,253.2,192.5,253.6,193,253.6z"/>
<path d="M193.6,243h-0.9c-0.4,0-0.7,0.1-1.1,0.2c-0.3,0.1-0.7,0.3-0.9,0.6c-0.3,0.3-0.5,0.6-0.6,0.9c-0.1,0.3-0.2,0.7-0.2,1.1v0.3
	h1.2v-0.3c0-0.4,0.2-0.8,0.5-1.1c0.3-0.3,0.7-0.5,1.1-0.5h0.9c0.4,0,0.8,0.2,1.1,0.5c0.3,0.3,0.5,0.7,0.5,1.1c0,0.4-0.2,0.8-0.5,1.1
	c-0.3,0.3-0.7,0.5-1.1,0.5h-1.2v2.8h1.2v-1.6c0.7,0,1.5-0.3,2-0.8c0.5-0.5,0.8-1.2,0.8-2c0-0.7-0.3-1.5-0.8-2
	C195.1,243.3,194.4,243,193.6,243z"/>
<path d="M150.7,294v-1.5h-1.3v-6.8h1.3v-1.5h-4.4v1.5h1.3v6.8h-1.3v1.5H150.7z M154.4,294v-4.8c0-0.8,0.7-1.2,1.5-1.2
	c0.9,0,1.2,0.5,1.2,1.6v4.4h1.8v-4.6c0-1.8-0.8-2.9-2.3-2.9c-1.1,0-1.8,0.6-2,1.4h-0.1v-1.2h-1.8v7.3H154.4z M161.4,294h1.8v-5.9
	h1.5v-1.4h-1.5v-1.6h1.5v-1.4h-1.3c-1.3,0-2,0.7-2,2v1h-1.1v1.4h1.1V294z M167.8,294v-4.5c0-0.8,0.6-1.1,1.8-1.1h0.6v-1.7h-0.4
	c-1.2,0-1.8,0.7-1.9,1.5h-0.1v-1.5h-1.8v7.3H167.8z M173.4,294.2c1.1,0,1.9-0.5,2.1-1.4h0.1c0.1,0.8,0.6,1.3,1.4,1.3h1v-1.4h-0.7
	v-3.4c0-1.7-1-2.6-3-2.6c-1.5,0-2.3,0.6-2.9,1.4l1.1,1c0.4-0.5,0.8-0.9,1.7-0.9c1,0,1.4,0.5,1.4,1.3v0.5h-1.2c-2,0-3.1,0.7-3.1,2.2
	C171,293.3,171.9,294.2,173.4,294.2z M174,292.9c-0.7,0-1.1-0.3-1.1-0.9v-0.2c0-0.6,0.5-0.9,1.4-0.9h1.1v1
	C175.4,292.5,174.8,292.9,174,292.9z M181.9,294.2c1.8,0,3-1,3-2.4c0-1.2-0.8-1.9-2.4-2.2l-0.7-0.1c-0.7-0.1-1-0.3-1-0.8
	c0-0.4,0.3-0.8,1.1-0.8c0.7,0,1.3,0.3,1.8,0.8l1.1-1c-0.7-0.7-1.4-1.1-2.9-1.1c-1.7,0-2.8,0.9-2.8,2.3c0,1.3,0.9,2,2.4,2.2l0.7,0.1
	c0.6,0.1,0.9,0.3,0.9,0.8c0,0.5-0.4,0.8-1.2,0.8c-0.8,0-1.5-0.4-2-1l-1.1,1.1C179.6,293.7,180.6,294.2,181.9,294.2z M188.9,294h1.3
	v-1.4h-1.4v-4.5h1.5v-1.4h-1.5v-2h-1.6v1.2c0,0.5-0.2,0.8-0.7,0.8h-0.6v1.4h1.1v4C187,293.3,187.6,294,188.9,294z M193.8,294v-4.5
	c0-0.8,0.6-1.1,1.8-1.1h0.6v-1.7h-0.4c-1.2,0-1.8,0.7-1.9,1.5h-0.1v-1.5H192v7.3H193.8z M202,294h1.8v-7.3H202v4.8
	c0,0.8-0.7,1.2-1.4,1.2c-0.9,0-1.2-0.5-1.2-1.6v-4.4h-1.8v4.6c0,1.8,0.8,2.9,2.3,2.9c1.2,0,1.8-0.7,2-1.4h0.1V294z M208.9,294.2
	c1.4,0,2.4-0.6,2.9-1.9l-1.4-0.7c-0.3,0.7-0.7,1.1-1.5,1.1c-1,0-1.5-0.7-1.5-1.7v-1.3c0-1,0.5-1.7,1.5-1.7c0.8,0,1.2,0.4,1.4,1.1
	l1.5-0.7c-0.4-1.1-1.4-1.8-2.9-1.8c-2.2,0-3.4,1.5-3.4,3.8C205.5,292.7,206.8,294.2,208.9,294.2z M215.6,294h1.3v-1.4h-1.4v-4.5h1.5
	v-1.4h-1.5v-2h-1.6v1.2c0,0.5-0.2,0.8-0.7,0.8h-0.6v1.4h1.1v4C213.8,293.3,214.4,294,215.6,294z M223.1,294h1.8v-7.3h-1.8v4.8
	c0,0.8-0.7,1.2-1.4,1.2c-0.9,0-1.2-0.5-1.2-1.6v-4.4h-1.8v4.6c0,1.8,0.8,2.9,2.3,2.9c1.2,0,1.8-0.7,2-1.4h0.1V294z M228.9,294v-4.5
	c0-0.8,0.6-1.1,1.8-1.1h0.6v-1.7h-0.4c-1.2,0-1.8,0.7-1.9,1.5h-0.1v-1.5h-1.8v7.3H228.9z M235.7,294.2c1.4,0,2.4-0.5,3-1.3l-1-1.1
	c-0.4,0.6-1,1-1.9,1c-1.2,0-1.8-0.7-1.8-1.8v-0.2h4.9v-0.6c0-2-1.1-3.7-3.3-3.7c-2.1,0-3.4,1.5-3.4,3.8
	C232.2,292.7,233.5,294.2,235.7,294.2z M235.7,287.9c0.9,0,1.4,0.7,1.4,1.7v0.1h-3v-0.1C234.1,288.6,234.7,287.9,235.7,287.9z"/>
<path class="st6" d="M473.1,225.8l21.2,21.2c0.6,0.6,0.6,1.5,0,2.1l-21.2,21.2c-0.6,0.6-1.5,0.6-2.1,0l-21.2-21.2
	c-0.6-0.6-0.6-1.5,0-2.1l21.2-21.2C471.5,225.2,472.5,225.2,473.1,225.8z"/>
<path d="M472.5,239.2c-1.7,0-3.4,0.5-4.9,1.5c-1.4,1-2.6,2.3-3.2,3.9c-0.7,1.6-0.8,3.4-0.5,5.1c0.3,1.7,1.2,3.3,2.4,4.5
	s2.8,2.1,4.5,2.4c1.7,0.3,3.5,0.2,5.1-0.5c1.6-0.7,3-1.8,3.9-3.2c1-1.4,1.5-3.1,1.5-4.9c0-2.3-0.9-4.5-2.6-6.2
	C477,240.2,474.8,239.2,472.5,239.2z M472.5,255.5c-1.5,0-2.9-0.4-4.2-1.3c-1.2-0.8-2.2-2-2.8-3.4c-0.6-1.4-0.7-2.9-0.4-4.3
	c0.3-1.5,1-2.8,2.1-3.8c1-1,2.4-1.8,3.8-2.1c1.5-0.3,3-0.1,4.3,0.4c1.4,0.6,2.5,1.5,3.4,2.8c0.8,1.2,1.3,2.7,1.3,4.2
	c0,2-0.8,3.9-2.2,5.3C476.4,254.7,474.5,255.5,472.5,255.5z"/>
<path d="M472.5,253.6c0.5,0,0.9-0.4,0.9-0.9c0-0.5-0.4-0.9-0.9-0.9s-0.9,0.4-0.9,0.9C471.6,253.2,472,253.6,472.5,253.6z"/>
<path d="M473.1,243h-0.9c-0.4,0-0.7,0.1-1.1,0.2c-0.3,0.1-0.7,0.3-0.9,0.6c-0.3,0.3-0.5,0.6-0.6,0.9c-0.1,0.3-0.2,0.7-0.2,1.1v0.3
	h1.2v-0.3c0-0.4,0.2-0.8,0.5-1.1c0.3-0.3,0.7-0.5,1.1-0.5h0.9c0.4,0,0.8,0.2,1.1,0.5c0.3,0.3,0.5,0.7,0.5,1.1c0,0.4-0.2,0.8-0.5,1.1
	c-0.3,0.3-0.7,0.5-1.1,0.5h-1.2v2.8h1.2v-1.6c0.7,0,1.5-0.3,2-0.8c0.5-0.5,0.8-1.2,0.8-2c0-0.7-0.3-1.5-0.8-2
	C474.6,243.3,473.9,243,473.1,243z"/>
<path d="M448.1,294.2c2.3,0,3.7-1.3,3.7-3.1c0-1.6-0.9-2.5-2.9-2.8l-0.9-0.2c-0.9-0.2-1.4-0.5-1.4-1.2c0-0.7,0.5-1.1,1.6-1.1
	c1,0,1.7,0.4,2.2,1l1.3-1.2c-0.8-0.9-1.9-1.4-3.3-1.4c-2.2,0-3.5,1.1-3.5,2.9c0,1.6,1,2.5,2.9,2.8l0.9,0.1c1,0.2,1.3,0.6,1.3,1.2
	c0,0.8-0.6,1.4-1.7,1.4c-1,0-1.8-0.4-2.5-1.2l-1.2,1.2C445.3,293.5,446.4,294.2,448.1,294.2z M456.6,294.2c1.4,0,2.4-0.5,3-1.3
	l-1-1.1c-0.4,0.6-1,1-1.9,1c-1.2,0-1.8-0.7-1.8-1.8v-0.2h4.9v-0.6c0-2-1-3.7-3.3-3.7c-2.1,0-3.4,1.5-3.4,3.8
	C453.2,292.7,454.5,294.2,456.6,294.2z M456.6,287.9c0.9,0,1.4,0.7,1.4,1.7v0.1h-3v-0.1C455,288.6,455.6,287.9,456.6,287.9z
	 M463.4,294v-4.5c0-0.8,0.6-1.1,1.8-1.1h0.6v-1.7h-0.4c-1.2,0-1.8,0.7-1.9,1.5h-0.1v-1.5h-1.8v7.3H463.4z M471.1,294l2.5-7.3h-1.7
	l-1,3.2l-0.7,2.6H470l-0.7-2.6l-1-3.2h-1.8l2.4,7.3H471.1z M475.8,285.6c0.7,0,1.1-0.4,1.1-0.9v-0.3c0-0.5-0.3-0.9-1.1-0.9
	c-0.7,0-1,0.4-1,0.9v0.3C474.7,285.2,475,285.6,475.8,285.6z M474.9,294h1.8v-7.3h-1.8V294z M481.8,294.2c1.4,0,2.4-0.6,2.9-1.9
	l-1.4-0.7c-0.3,0.7-0.7,1.1-1.5,1.1c-1,0-1.5-0.7-1.5-1.7v-1.3c0-1,0.5-1.7,1.5-1.7c0.8,0,1.2,0.4,1.4,1.1l1.5-0.7
	c-0.4-1.1-1.4-1.8-2.9-1.8c-2.2,0-3.4,1.5-3.4,3.8C478.4,292.7,479.6,294.2,481.8,294.2z M489.1,294.2c1.4,0,2.4-0.5,3-1.3l-1-1.1
	c-0.4,0.6-1,1-1.9,1c-1.2,0-1.8-0.7-1.8-1.8v-0.2h4.9v-0.6c0-2-1.1-3.7-3.3-3.7c-2.1,0-3.4,1.5-3.4,3.8
	C485.7,292.7,487,294.2,489.1,294.2z M489.1,287.9c0.9,0,1.4,0.7,1.4,1.7v0.1h-3v-0.1C487.6,288.6,488.2,287.9,489.1,287.9z
	 M496.5,294.2c1.8,0,3-1,3-2.4c0-1.2-0.8-1.9-2.4-2.2l-0.7-0.1c-0.7-0.1-1-0.3-1-0.8c0-0.4,0.3-0.8,1.1-0.8c0.7,0,1.3,0.3,1.8,0.8
	l1.1-1c-0.7-0.7-1.4-1.1-2.9-1.1c-1.7,0-2.8,0.9-2.8,2.3c0,1.3,0.9,2,2.4,2.2l0.7,0.1c0.6,0.1,0.9,0.3,0.9,0.8
	c0,0.5-0.4,0.8-1.2,0.8c-0.8,0-1.5-0.4-2-1l-1.1,1.1C494.2,293.7,495.2,294.2,496.5,294.2z"/>
<path class="st1" d="M72.5,184v-32h-1v32c0,4.7,3.8,8.5,8.5,8.5h112v27.3h-2.4l2.9,5l2.9-5H193v-27.3h278.5v27.3h-2.4l2.9,5l2.9-5
	h-2.4v-27.3l279.5,0c4.1,0,7.5,3.4,7.5,7.5v19.8h-2.4l2.9,5l2.9-5h-2.4V200c0-4.7-3.8-8.5-8.5-8.5l-672,0
	C75.9,191.5,72.5,188.1,72.5,184z"/>
<path class="st3" d="M968,168.5h48c6.4,0,11.5,5.1,11.5,11.5l0,0c0,6.4-5.1,11.5-11.5,11.5h-48c-6.4,0-11.5-5.1-11.5-11.5l0,0
	C956.5,173.6,961.6,168.5,968,168.5z"/>
<path class="st7" d="M970.6,176.5v-0.9h-6.3v0.9h2.7v7.5h1v-7.5H970.6z M973.8,184.1c1.7,0,2.8-1.3,2.8-3.2c0-2-1.1-3.2-2.8-3.2
	s-2.8,1.3-2.8,3.2C971,182.9,972.1,184.1,973.8,184.1z M973.8,183.3c-1,0-1.8-0.6-1.8-1.9v-0.9c0-1.3,0.7-1.9,1.8-1.9
	c1,0,1.8,0.6,1.8,1.9v0.9C975.5,182.7,974.8,183.3,973.8,183.3z M983.5,184.1c1.4,0,2.3-0.7,2.3-1.9c0-0.9-0.5-1.5-1.9-1.7l-0.5-0.1
	c-0.8-0.1-1.2-0.4-1.2-1c0-0.6,0.4-1,1.2-1c0.8,0,1.3,0.4,1.6,0.8l0.6-0.6c-0.5-0.6-1.2-1-2.2-1c-1.3,0-2.2,0.6-2.2,1.8
	c0,1.2,0.9,1.6,2,1.8l0.5,0.1c0.8,0.1,1.1,0.5,1.1,1c0,0.6-0.5,1-1.3,1c-0.8,0-1.4-0.3-1.8-0.9l-0.7,0.6
	C981.6,183.7,982.3,184.1,983.5,184.1z M990.3,184v-0.8H989v-4.5h1.4v-0.8H989v-1.7h-0.9v1.2c0,0.4-0.1,0.6-0.5,0.6H987v0.8h1v4.3
	c0,0.6,0.4,1,1,1H990.3z M994.5,184.1c1.2,0,2.1-0.6,2.4-1.4l-0.7-0.5c-0.3,0.7-0.9,1.1-1.7,1.1c-1.2,0-1.8-0.8-1.8-1.9v-0.3h4.5
	v-0.5c0-1.8-1-3-2.7-3c-1.7,0-2.8,1.3-2.8,3.2C991.7,182.9,992.8,184.1,994.5,184.1z M994.5,178.5c1,0,1.6,0.7,1.6,1.8v0.1h-3.4
	v-0.1C992.7,179.3,993.5,178.5,994.5,178.5z M999.1,186.4h1V183h0.1c0.4,0.8,1,1.2,1.8,1.2c1.5,0,2.5-1.3,2.5-3.2c0-2-1-3.2-2.5-3.2
	c-0.9,0-1.5,0.4-1.8,1.2h-0.1v-1h-1V186.4z M1001.6,183.3c-0.9,0-1.6-0.5-1.6-1.3v-2.3c0-0.7,0.7-1.2,1.6-1.2c1.1,0,1.8,0.7,1.8,1.8
	v1.1C1003.4,182.5,1002.7,183.3,1001.6,183.3z M1014.9,183.1h-4.4l2.3-2c1.1-1,1.8-1.9,1.8-3.2c0-1.4-0.9-2.4-2.6-2.4
	c-1.6,0-2.4,1-2.7,2l0.9,0.3c0.2-0.8,0.7-1.4,1.7-1.4c1,0,1.6,0.6,1.6,1.6v0.1c0,0.8-0.6,1.6-1.4,2.4l-2.7,2.5v1h5.5V183.1z
	 M1017.7,184.1c0.5,0,0.7-0.3,0.7-0.7v-0.2c0-0.4-0.2-0.7-0.7-0.7c-0.5,0-0.7,0.3-0.7,0.7v0.2
	C1016.9,183.9,1017.1,184.1,1017.7,184.1z"/>
<path class="st8" d="M968,168.5h48c6.4,0,11.5,5.1,11.5,11.5l0,0c0,6.4-5.1,11.5-11.5,11.5h-48c-6.4,0-11.5-5.1-11.5-11.5l0,0
	C956.5,173.6,961.6,168.5,968,168.5z"/>
</svg>
