<?xml version="1.0" encoding="utf-8"?>
<!-- Generator: Adobe Illustrator 26.4.1, SVG Export Plug-In . SVG Version: 6.00 Build 0)  -->
<svg version="1.1" id="Layer_1" xmlns="http://www.w3.org/2000/svg" xmlns:xlink="http://www.w3.org/1999/xlink" x="0px" y="0px"
	 viewBox="0 0 1080 607.5" style="enable-background:new 0 0 1080 607.5;" xml:space="preserve">
<style type="text/css">
	.st0{fill:#F4F4F4;}
	.st1{fill:#565151;}
	.st2{fill:#FFFFFF;}
	.st3{fill:none;stroke:#565151;}
	.st4{fill:#8F8B8B;}
	.st5{fill:none;stroke:#8F8B8B;}
	.st6{fill-rule:evenodd;clip-rule:evenodd;fill:#565151;}
	.st7{fill:#CAC5C4;stroke:#CAC5C4;}
	.st8{fill:none;stroke:#000000;}
</style>
<rect class="st0" width="1080" height="607.5"/>
<path class="st1" d="M984,526.8c4.7,0,8.5-3.8,8.5-8.5v-307h2.4l-2.9-5l-2.9,5h2.4v307c0,4.1-3.4,7.5-7.5,7.5h-87.6
	c-4.1,0-7.5-3.4-7.5-7.5v-96c0-0.6-0.1-1.1-0.2-1.6v-62.4c0-4.7-3.8-8.5-8.5-8.5H863v1h17.3c4.1,0,7.5,3.4,7.5,7.5V418
	c-1.5-2.5-4.2-4.2-7.3-4.2H863v1h17.4c3.6,0,6.6,2.6,7.3,6v97.5c0,3.2,1.8,6.1,4.5,7.5h-277c-4.1,0-7.5-3.4-7.5-7.5v-160
	c0-4.7-3.8-8.5-8.5-8.5H582v1h17.3c4.1,0,7.5,3.4,7.5,7.5v160c0,3.2,1.8,6.1,4.5,7.5H336c-4.1,0-7.5-3.4-7.5-7.5v-160
	c0-4.7-3.8-8.5-8.5-8.5h-17.3v1H320c4.1,0,7.5,3.4,7.5,7.5v60c-1.4-2.7-4.3-4.5-7.5-4.5h-17.2v1H320c4.1,0,7.5,3.4,7.5,7.5v60
	c-1.4-2.7-4.3-4.5-7.5-4.5h-16.7v1H320c4.1,0,7.4,3.2,7.5,7.3v32.2c0,4.7,3.8,8.5,8.5,8.5H984z"/>
<path class="st1" d="M56,46.2h32c4.4,0,8,3.6,8,8v32c0,4.4-3.6,8-8,8H56c-4.4,0-8-3.6-8-8v-32C48,49.8,51.6,46.2,56,46.2z"/>
<path class="st2" d="M78.6,64.3c-0.1-0.1-0.3-0.2-0.4-0.3c-0.2-0.1-0.3-0.1-0.5-0.1h-5.1v-2.5h-1.2v6.2h-5.1c-0.2,0-0.3,0-0.5,0.1
	s-0.3,0.2-0.4,0.3l-2.2,2.2l2.1,2.1c0.1,0.1,0.3,0.2,0.4,0.3c0.2,0.1,0.3,0.1,0.5,0.1h5.1v6.2h1.2v-10h5.1c0.2,0,0.3,0,0.5-0.1
	s0.3-0.2,0.4-0.3l2.1-2.1L78.6,64.3z M66.3,71.4L65,70.2l1.2-1.2h5.1v2.5h-5V71.4z M77.7,67.8h-5.1v-2.5h5.1l1.2,1.2L77.7,67.8z"/>
<path d="M73.6,116.2v-1.5h-2.2v-8.3h-2.8l-2.4,2.9l1.1,1l2.1-2.5h0.1v6.9h-2.7v1.5H73.6z M76.3,116.4c0.8,0,1.1-0.4,1.1-1v-0.3
	c0-0.6-0.3-1-1.1-1c-0.8,0-1.1,0.4-1.1,1v0.3C75.2,115.9,75.5,116.4,76.3,116.4z"/>
<path d="M60.4,134.2v-4.2h2.7c1.8,0,2.7-1.1,2.7-2.8s-1-2.8-2.7-2.8h-3.9v9.8H60.4z M60.4,125.6h2.7c0.9,0,1.5,0.5,1.5,1.4v0.7
	c0,0.9-0.5,1.4-1.5,1.4h-2.7C60.4,129,60.4,125.6,60.4,125.6z M69.9,134.2v-1h-1.1v-9.4h-1.1v9.2c0,0.7,0.4,1.2,1.2,1.2H69.9z
	 M77.6,134.2v-1h-0.8v-4c0-1.5-1-2.4-2.8-2.4c-1.3,0-2.2,0.6-2.6,1.4l0.7,0.6c0.4-0.7,1-1.1,1.8-1.1c1.1,0,1.7,0.6,1.7,1.6v0.7h-1.4
	c-2.1,0-3.1,0.8-3.1,2.1s0.9,2.2,2.4,2.2c1,0,1.8-0.5,2.1-1.3h0.1c0.1,0.7,0.4,1.2,1.2,1.2H77.6z M73.7,133.4
	c-0.9,0-1.4-0.4-1.4-1.1V132c0-0.7,0.6-1.1,1.8-1.1h1.5v1.2C75.6,132.9,74.8,133.4,73.7,133.4z M80.5,134.2v-5
	c0-0.9,0.9-1.4,1.8-1.4c1.1,0,1.6,0.7,1.6,1.9v4.4H85v-4.6c0-1.8-0.9-2.8-2.4-2.8c-1.1,0-1.7,0.5-2,1.3h-0.1v-1.2h-1.1v7.2h1.1
	V134.2z"/>
<path class="st3" d="M56,42.8h35.5c4.4,0,8,3.6,8,8v35.5"/>
<path class="st3" d="M60,38.8h35.5c4.4,0,8,3.6,8,8v35.5"/>
<path class="st1" d="M72.5,182.2v-39.9h-1v39.9c0,4.7,3.8,8.5,8.5,8.5h112v27.3h-2.4l2.9,5l2.9-5H193v-27.3h278.5v27.3h-2.4l2.9,5
	l2.9-5h-2.4v-27.3H752c4.1,0,7.5,3.4,7.5,7.5v19.8h-2.4l2.9,5l2.9-5h-2.4v-19.8c0-4.7-3.8-8.5-8.5-8.5H80
	C75.9,189.8,72.5,186.4,72.5,182.2z"/>
<path class="st1" d="M486,245.8H360c-4.7,0-8.5,3.8-8.5,8.5v88c0,4.7,3.8,8.5,8.5,8.5h11v2.4l5-2.9l-5-2.9v2.4h-11
	c-4.1,0-7.5-3.4-7.5-7.5v-88c0-4.1,3.4-7.5,7.5-7.5h126V245.8z"/>
<path class="st1" d="M737,246.8h-97c-4.1,0-7.5,3.4-7.5,7.5v88c0,4.1,3.4,7.5,7.5,7.5h11v-2.4l5,2.9l-5,2.9v-2.4h-11
	c-3.2,0-6.1-1.8-7.5-4.5v60c0,4.1,3.4,7.5,7.5,7.5h11v-2.4l5,2.9l-5,2.9v-2.4h-11c-4.7,0-8.5-3.8-8.5-8.5v-152
	c0-4.7,3.8-8.5,8.5-8.5h97V246.8z"/>
<rect x="96.5" y="326.8" class="st2" width="207" height="47"/>
<path class="st4" d="M100,326.2h-4v48h4V326.2z"/>
<path d="M117,355.5c2.6,0,4.3-1.8,4.3-5.1c0-3.3-1.7-5.1-4.3-5.1c-2.6,0-4.3,1.8-4.3,5.1C112.7,353.6,114.4,355.5,117,355.5z
	 M117,353.8c-1.4,0-2.3-1-2.3-2.7v-1.5c0-1.7,0.9-2.7,2.3-2.7s2.3,1,2.3,2.7v1.5C119.3,352.8,118.4,353.8,117,353.8z M125,355.2
	v-4.8c0-0.8,0.7-1.2,1.5-1.2c0.9,0,1.2,0.5,1.2,1.6v4.4h1.8v-4.6c0-1.8-0.8-2.9-2.3-2.9c-1.1,0-1.8,0.6-2,1.4H125v-1.2h-1.8v7.3
	L125,355.2L125,355.2z M135.3,351.9v-1.8h-4v1.8H135.3z M137.3,358h1.8v-4h0.1c0.3,0.8,1.1,1.4,2,1.4c1.8,0,2.9-1.4,2.9-3.8
	s-1-3.8-2.9-3.8c-1,0-1.8,0.5-2,1.4h-0.1V348h-1.8V358z M140.6,354c-0.9,0-1.5-0.4-1.5-1.2v-2.3c0-0.7,0.6-1.2,1.5-1.2
	s1.6,0.7,1.6,1.7v1.3C142.2,353.2,141.6,354,140.6,354z M147.7,355.2v-4.5c0-0.8,0.6-1.1,1.8-1.1h0.6v-1.7h-0.4
	c-1.2,0-1.8,0.7-1.9,1.5h-0.1v-1.5h-1.8v7.3L147.7,355.2L147.7,355.2z M154.4,355.5c1.4,0,2.4-0.5,3-1.3l-1-1.1c-0.4,0.6-1,1-1.9,1
	c-1.2,0-1.8-0.7-1.8-1.8v-0.2h4.9v-0.6c0-2-1.1-3.7-3.3-3.7c-2.1,0-3.4,1.5-3.4,3.8C151,354,152.3,355.5,154.4,355.5z M154.4,349.1
	c0.9,0,1.4,0.7,1.4,1.7v0.1h-3v-0.1C152.9,349.9,153.5,349.1,154.4,349.1z M161.2,355.2v-4.8c0-0.8,0.7-1.2,1.4-1.2
	c0.8,0,1.2,0.5,1.2,1.6v4.4h1.8v-4.8c0-0.8,0.7-1.2,1.4-1.2c0.8,0,1.2,0.5,1.2,1.6v4.4h1.8v-4.6c0-1.8-0.8-2.9-2.2-2.9
	c-1.2,0-2,0.7-2.2,1.5l0,0c-0.4-1-1.1-1.5-2.1-1.5c-1.1,0-1.7,0.6-2,1.4h-0.1v-1.2h-1.8v7.3L161.2,355.2L161.2,355.2z M172.9,346.9
	c0.7,0,1.1-0.4,1.1-0.9v-0.3c0-0.5-0.3-0.9-1.1-0.9c-0.7,0-1,0.4-1,0.9v0.3C171.9,346.5,172.2,346.9,172.9,346.9z M172,355.2h1.8
	V348H172V355.2z M178.5,355.5c1.8,0,3-1,3-2.4c0-1.2-0.8-1.9-2.4-2.2l-0.7-0.1c-0.7-0.1-1-0.3-1-0.8c0-0.4,0.3-0.8,1.1-0.8
	c0.7,0,1.3,0.3,1.8,0.8l1.1-1c-0.7-0.7-1.4-1.1-2.9-1.1c-1.7,0-2.8,0.9-2.8,2.3c0,1.3,0.9,2,2.4,2.2l0.7,0.1
	c0.6,0.1,0.9,0.3,0.9,0.8s-0.4,0.8-1.2,0.8s-1.5-0.4-2-1l-1.1,1.1C176.2,355,177.1,355.5,178.5,355.5z M186.2,355.5
	c1.4,0,2.4-0.5,3-1.3l-1-1.1c-0.4,0.6-1,1-1.9,1c-1.2,0-1.8-0.7-1.8-1.8v-0.2h4.9v-0.6c0-2-1.1-3.7-3.3-3.7c-2.1,0-3.4,1.5-3.4,3.8
	C182.7,354,184,355.5,186.2,355.5z M186.1,349.1c0.9,0,1.4,0.7,1.4,1.7v0.1h-3v-0.1C184.6,349.9,185.2,349.1,186.1,349.1z
	 M193.6,355.5c1.8,0,3-1,3-2.4c0-1.2-0.8-1.9-2.4-2.2l-0.7-0.1c-0.7-0.1-1-0.3-1-0.8c0-0.4,0.3-0.8,1.1-0.8c0.7,0,1.3,0.3,1.8,0.8
	l1.1-1c-0.7-0.7-1.4-1.1-2.9-1.1c-1.7,0-2.8,0.9-2.8,2.3c0,1.3,0.9,2,2.4,2.2l0.7,0.1c0.6,0.1,0.9,0.3,0.9,0.8s-0.4,0.8-1.2,0.8
	s-1.5-0.4-2-1l-1.1,1.1C191.3,355,192.2,355.5,193.6,355.5z M208.4,355.2h2.2l-1.9-2.1c0.3-0.5,0.5-1.1,0.6-1.7h0.9v-1.5H208
	c0,0.7-0.2,1.4-0.4,2.1l-1.7-1.8c1.1-0.6,2-1.4,2-2.6c0-1.4-1.1-2.2-2.7-2.2c-1.7,0-2.8,1-2.8,2.3c0,0.9,0.5,1.7,1.1,2.3
	c-1.1,0.6-2,1.4-2,2.7c0,1.5,1.1,2.7,3.2,2.7c1.4,0,2.3-0.6,2.8-1.1L208.4,355.2z M205.2,346.6c0.6,0,1,0.3,1,0.9v0.1
	c0,0.6-0.5,1.1-1.2,1.5c-0.6-0.6-0.8-1-0.8-1.4v-0.1C204.2,347,204.6,346.6,205.2,346.6z M205,354c-1.1,0-1.6-0.6-1.6-1.4v-0.2
	c0-0.7,0.4-1.1,1-1.5l2.2,2.4C206.2,353.6,205.7,354,205,354z M218.4,355.5c1.4,0,2.4-0.5,3-1.3l-1-1.1c-0.4,0.6-1,1-1.9,1
	c-1.2,0-1.8-0.7-1.8-1.8v-0.2h4.9v-0.6c0-2-1.1-3.7-3.3-3.7c-2.1,0-3.4,1.5-3.4,3.8C214.9,354,216.2,355.5,218.4,355.5z
	 M218.3,349.1c0.9,0,1.4,0.7,1.4,1.7v0.1h-3v-0.1C216.8,349.9,217.4,349.1,218.3,349.1z M227.9,355.2h1.8v-10.4h-1.8v4.3h-0.1
	c-0.3-0.8-1.1-1.4-2-1.4c-1.8,0-2.9,1.4-2.9,3.8c0,2.5,1,3.8,2.9,3.8c1,0,1.8-0.6,2-1.4h0.1V355.2z M226.4,354
	c-0.9,0-1.6-0.7-1.6-1.7V351c0-1,0.6-1.7,1.6-1.7c0.9,0,1.5,0.5,1.5,1.2v2.3C227.9,353.5,227.3,354,226.4,354z M238.5,355.9
	c0-1.3-0.8-2.1-2.6-2.1h-2c-0.6,0-1-0.2-1-0.5s0.2-0.5,0.5-0.7c0.3,0.1,0.7,0.1,1.1,0.1c2,0,3-1,3-2.4c0-0.9-0.4-1.6-1.1-2V348h1.6
	v-1.4h-1c-0.7,0-1,0.4-1,1.1v0.2c-0.4-0.1-0.8-0.2-1.3-0.2c-2,0-3,1-3,2.5c0,1,0.4,1.7,1.3,2.1v0.1c-0.7,0.2-1.3,0.5-1.3,1.3
	c0,0.6,0.3,1.1,0.9,1.2v0.2c-0.8,0.1-1.3,0.6-1.3,1.4c0,1.1,0.9,1.7,3.4,1.7C237.5,358.2,238.5,357.4,238.5,355.9z M236.8,356
	c0,0.6-0.5,0.9-1.7,0.9h-0.9c-1.1,0-1.5-0.3-1.5-0.9c0-0.3,0.1-0.6,0.4-0.8h2.5C236.5,355.4,236.8,355.6,236.8,356z M234.7,351.5
	c-0.9,0-1.3-0.4-1.3-1.1v-0.2c0-0.7,0.5-1.1,1.3-1.1s1.3,0.4,1.3,1.1v0.2C236,351,235.5,351.5,234.7,351.5z M242.6,355.5
	c1.4,0,2.4-0.5,3-1.3l-1-1.1c-0.4,0.6-1,1-1.9,1c-1.2,0-1.8-0.7-1.8-1.8v-0.2h4.9v-0.6c0-2-1.1-3.7-3.3-3.7c-2.1,0-3.4,1.5-3.4,3.8
	C239.1,354,240.4,355.5,242.6,355.5z M242.6,349.1c0.9,0,1.4,0.7,1.4,1.7v0.1h-3v-0.1C241,349.9,241.6,349.1,242.6,349.1z"/>
<rect x="96.5" y="326.8" class="st5" width="207" height="47"/>
<rect x="96.5" y="390.8" class="st2" width="207" height="47"/>
<path class="st4" d="M100,390.2h-4v48h4V390.2z"/>
<path d="M118.9,419.2h2v-9.8h-1.8v7l0,0l-1-2l-2.9-5h-2v9.8h1.8v-7l0,0l1,2L118.9,419.2z M126.2,419.5c2.1,0,3.4-1.5,3.4-3.8
	s-1.3-3.8-3.4-3.8s-3.4,1.5-3.4,3.8C122.8,418,124.1,419.5,126.2,419.5z M126.2,418c-0.9,0-1.5-0.6-1.5-1.7v-1.4
	c0-1.1,0.6-1.7,1.5-1.7s1.5,0.6,1.5,1.7v1.4C127.7,417.4,127.1,418,126.2,418z M133.1,419.2v-4.8c0-0.8,0.7-1.2,1.5-1.2
	c0.9,0,1.2,0.5,1.2,1.6v4.4h1.8v-4.6c0-1.8-0.8-2.9-2.3-2.9c-1.1,0-1.8,0.6-2,1.4h-0.1v-1.2h-1.8v7.3L133.1,419.2L133.1,419.2z
	 M143.5,415.9v-1.8h-4v1.8H143.5z M149.2,419.2v-1.5h-1.3V411h1.3v-1.5h-4.4v1.5h1.3v6.8h-1.3v1.5H149.2z M151.3,419.2h5
	c1.4,0,2.5-1.2,2.5-2.8c0-1.7-1.3-2.3-2.1-2.3v-0.1c0.9-0.1,1.8-0.6,1.8-2.1s-1-2.5-2.6-2.5h-4.5L151.3,419.2L151.3,419.2z
	 M153.1,415h2.6c0.7,0,1.1,0.4,1.1,1.1v0.5c0,0.7-0.4,1.1-1.1,1.1h-2.6V415z M153.1,411h2.3c0.7,0,1.1,0.4,1.1,1v0.4
	c0,0.6-0.4,1-1.1,1h-2.3V411z M160.7,419.2h1.8v-7h0.1l0.8,1.6l2,3.7l2-3.7l0.8-1.6h0.1v7h1.8v-9.8h-2l-2.5,4.8h-0.1l-2.5-4.8h-2.1
	v9.8H160.7z M178.5,419.5c1.4,0,2.4-0.6,2.9-1.9l-1.4-0.7c-0.3,0.7-0.7,1.1-1.5,1.1c-1,0-1.5-0.7-1.5-1.7V415c0-1,0.5-1.7,1.5-1.7
	c0.8,0,1.2,0.4,1.4,1.1l1.5-0.7c-0.4-1.1-1.4-1.8-2.9-1.8c-2.2,0-3.4,1.5-3.4,3.8C175.2,418,176.4,419.5,178.5,419.5z M185.7,419.2
	v-1.4h-1V409H183v8.6c0,1.1,0.6,1.8,1.8,1.8h0.9V419.2z M190.2,419.5c2.1,0,3.4-1.5,3.4-3.8s-1.3-3.8-3.4-3.8
	c-2.1,0-3.4,1.5-3.4,3.8S188.1,419.5,190.2,419.5z M190.2,418c-0.9,0-1.5-0.6-1.5-1.7v-1.4c0-1.1,0.6-1.7,1.5-1.7s1.5,0.6,1.5,1.7
	v1.4C191.7,417.4,191.1,418,190.2,418z M199.7,419.2h1.8V412h-1.8v4.8c0,0.8-0.7,1.2-1.4,1.2c-0.9,0-1.2-0.5-1.2-1.6V412h-1.8v4.6
	c0,1.8,0.8,2.9,2.3,2.9c1.2,0,1.8-0.7,2-1.4h0.1L199.7,419.2L199.7,419.2z M208.2,419.2h1.8v-10.4h-1.8v4.3h-0.1
	c-0.3-0.8-1.1-1.4-2-1.4c-1.8,0-2.9,1.4-2.9,3.8c0,2.5,1,3.8,2.9,3.8c1,0,1.8-0.6,2-1.4h0.1V419.2z M206.7,418
	c-0.9,0-1.6-0.7-1.6-1.7V415c0-1,0.6-1.7,1.6-1.7c0.9,0,1.5,0.5,1.5,1.2v2.3C208.2,417.5,207.6,418,206.7,418z M215.7,422h1.8v-4
	h0.1c0.3,0.8,1.1,1.4,2,1.4c1.8,0,2.9-1.4,2.9-3.8s-1-3.8-2.9-3.8c-1,0-1.8,0.5-2,1.4h-0.1V412h-1.8V422z M219,418
	c-0.9,0-1.5-0.4-1.5-1.2v-2.3c0-0.7,0.6-1.2,1.5-1.2s1.6,0.7,1.6,1.7v1.3C220.6,417.2,219.9,418,219,418z M226.1,419.2v-4.5
	c0-0.8,0.6-1.1,1.8-1.1h0.6v-1.7h-0.4c-1.2,0-1.8,0.7-1.9,1.5h-0.1v-1.5h-1.8v7.3L226.1,419.2L226.1,419.2z M232.8,419.5
	c2.1,0,3.4-1.5,3.4-3.8s-1.3-3.8-3.4-3.8c-2.1,0-3.4,1.5-3.4,3.8C229.4,418,230.7,419.5,232.8,419.5z M232.8,418
	c-0.9,0-1.5-0.6-1.5-1.7v-1.4c0-1.1,0.6-1.7,1.5-1.7s1.5,0.6,1.5,1.7v1.4C234.3,417.4,233.7,418,232.8,418z M241.5,419.2l2.4-7.3
	h-1.7l-1,3.2l-0.7,2.6h-0.1l-0.7-2.6l-1-3.2h-1.8l2.4,7.3H241.5z M246.2,410.9c0.7,0,1.1-0.4,1.1-0.9v-0.3c0-0.5-0.3-0.9-1.1-0.9
	c-0.7,0-1.1,0.4-1.1,0.9v0.3C245.2,410.5,245.5,410.9,246.2,410.9z M245.3,419.2h1.8V412h-1.8V419.2z M253.9,419.2h1.8v-10.4h-1.8
	v4.3h-0.1c-0.3-0.8-1.1-1.4-2-1.4c-1.8,0-2.9,1.4-2.9,3.8c0,2.5,1,3.8,2.9,3.8c1,0,1.8-0.6,2-1.4h0.1V419.2z M252.4,418
	c-0.9,0-1.6-0.7-1.6-1.7V415c0-1,0.6-1.7,1.6-1.7c0.9,0,1.5,0.5,1.5,1.2v2.3C253.9,417.5,253.2,418,252.4,418z M260.8,419.5
	c1.4,0,2.4-0.5,3-1.3l-1-1.1c-0.4,0.6-1,1-1.9,1c-1.2,0-1.8-0.7-1.8-1.8v-0.2h4.9v-0.6c0-2-1-3.7-3.3-3.7c-2.1,0-3.4,1.5-3.4,3.8
	C257.4,418,258.7,419.5,260.8,419.5z M260.8,413.1c0.9,0,1.4,0.7,1.4,1.7v0.1h-3v-0.1C259.3,413.9,259.9,413.1,260.8,413.1z
	 M267.6,419.2v-4.5c0-0.8,0.6-1.1,1.8-1.1h0.6v-1.7h-0.4c-1.2,0-1.8,0.7-1.9,1.5h-0.1v-1.5h-1.8v7.3L267.6,419.2L267.6,419.2z"/>
<rect x="96.5" y="390.8" class="st5" width="207" height="47"/>
<path class="st6" d="M71.5,254.2c0-4.7,3.8-8.5,8.5-8.5l0,0l0,0h73.6h2.4h1.8h34.7h0.9h2.1v1h-2.1h-0.9h-34.7H156h-2.4H80
	c-4.1,0-7.5,3.4-7.5,7.5v88.1c0,4.1,3.4,7.4,7.5,7.4h11v-2.4l5,2.9l-5,2.9v-2.4H80c-3.2,0-6.1-1.8-7.5-4.5v60c0,4.1,3.4,7.5,7.5,7.5
	h11v-2.4l5,2.9l-5,2.9v-2.4H80c-3.2,0-6.1-1.8-7.5-4.5v60c0,4.1,3.4,7.5,7.5,7.5h11v-2.4l5,2.9l-5,2.9v-2.4H80
	c-4.7,0-8.5-3.8-8.5-8.5V254.2z"/>
<path class="st7" d="M761.1,224.1l21.2,21.2c0.6,0.6,0.6,1.5,0,2.1l-21.2,21.2c-0.6,0.6-1.5,0.6-2.1,0l-21.2-21.2
	c-0.6-0.6-0.6-1.5,0-2.1l21.2-21.2C759.5,223.4,760.5,223.4,761.1,224.1z"/>
<path d="M760,237.4c-1.7,0-3.4,0.5-4.9,1.5c-1.4,1-2.6,2.3-3.2,3.9c-0.7,1.6-0.8,3.4-0.5,5.1c0.3,1.7,1.2,3.3,2.4,4.5
	s2.8,2.1,4.5,2.4c1.7,0.3,3.5,0.2,5.1-0.5c1.6-0.7,3-1.8,3.9-3.2c1-1.4,1.5-3.1,1.5-4.9c0-2.3-0.9-4.5-2.6-6.2
	C764.5,238.4,762.3,237.4,760,237.4z M760,253.8c-1.5,0-2.9-0.4-4.2-1.3c-1.2-0.8-2.2-2-2.8-3.4s-0.7-2.9-0.4-4.3
	c0.3-1.5,1-2.8,2.1-3.8c1-1,2.4-1.8,3.8-2.1s3-0.1,4.3,0.4c1.4,0.6,2.5,1.5,3.4,2.8c0.8,1.2,1.3,2.7,1.3,4.2c0,2-0.8,3.9-2.2,5.3
	C763.9,252.9,762,253.8,760,253.8z"/>
<path d="M760,251.9c0.5,0,0.9-0.4,0.9-0.9s-0.4-0.9-0.9-0.9s-0.9,0.4-0.9,0.9C759.1,251.4,759.5,251.9,760,251.9z"/>
<path d="M760.6,241.2h-0.9c-0.4,0-0.7,0.1-1.1,0.2c-0.3,0.1-0.7,0.3-0.9,0.6c-0.3,0.3-0.5,0.6-0.6,0.9c-0.1,0.3-0.2,0.7-0.2,1.1v0.3
	h1.2v-0.3c0-0.4,0.2-0.8,0.5-1.1s0.7-0.5,1.1-0.5h0.9c0.4,0,0.8,0.2,1.1,0.5s0.5,0.7,0.5,1.1c0,0.4-0.2,0.8-0.5,1.1
	s-0.7,0.5-1.1,0.5h-1.2v2.8h1.2v-1.6c0.7,0,1.5-0.3,2-0.8s0.8-1.2,0.8-2c0-0.7-0.3-1.5-0.8-2S761.4,241.2,760.6,241.2z"/>
<path d="M748.2,288.2h1.8v-9.8h-1.8v4h-4.1v-4h-1.8v9.8h1.8v-4.1h4.1V288.2z M755.3,288.5c2.1,0,3.4-1.5,3.4-3.8s-1.3-3.8-3.4-3.8
	c-2.1,0-3.4,1.5-3.4,3.8C751.9,287,753.2,288.5,755.3,288.5z M755.3,287c-0.9,0-1.5-0.6-1.5-1.7v-1.4c0-1.1,0.6-1.7,1.5-1.7
	s1.5,0.6,1.5,1.7v1.4C756.8,286.4,756.2,287,755.3,287z M762.9,288.5c1.8,0,3-1,3-2.4c0-1.2-0.8-1.9-2.4-2.2l-0.7-0.1
	c-0.7-0.1-1-0.3-1-0.8c0-0.4,0.3-0.8,1.1-0.8c0.7,0,1.3,0.3,1.8,0.8l1-1c-0.7-0.7-1.4-1.1-2.9-1.1c-1.7,0-2.8,0.9-2.8,2.3
	c0,1.3,0.9,2,2.4,2.2l0.7,0.1c0.6,0.1,0.9,0.3,0.9,0.8s-0.4,0.8-1.2,0.8s-1.5-0.4-2-1l-1.1,1.1C760.6,288,761.5,288.5,762.9,288.5z
	 M769.8,288.2h1.3v-1.4h-1.4v-4.5h1.5V281h-1.5v-2h-1.6v1.2c0,0.5-0.2,0.8-0.7,0.8h-0.6v1.4h1.1v4
	C767.9,287.5,768.5,288.2,769.8,288.2z M775.3,288.5c1.8,0,3-1,3-2.4c0-1.2-0.8-1.9-2.4-2.2l-0.7-0.1c-0.7-0.1-1-0.3-1-0.8
	c0-0.4,0.3-0.8,1.1-0.8c0.7,0,1.3,0.3,1.8,0.8l1.1-1c-0.7-0.7-1.4-1.1-2.9-1.1c-1.7,0-2.8,0.9-2.8,2.3c0,1.3,0.9,2,2.4,2.2l0.7,0.1
	c0.6,0.1,0.9,0.3,0.9,0.8s-0.4,0.8-1.2,0.8s-1.5-0.4-2-1l-1.1,1.1C773,288,773.9,288.5,775.3,288.5z"/>
<rect x="656.5" y="326.8" class="st2" width="207" height="47"/>
<path class="st4" d="M660,326.2h-4v48h4V326.2z"/>
<path d="M678.9,355.2h2v-9.8h-1.8v7l0,0l-1-2l-2.9-5h-2v9.8h1.8v-7l0,0l1,2L678.9,355.2z M687.6,355.2h1.8V348h-1.8v4.8
	c0,0.8-0.7,1.2-1.4,1.2c-0.9,0-1.2-0.5-1.2-1.6V348h-1.8v4.6c0,1.8,0.8,2.9,2.3,2.9c1.2,0,1.8-0.7,2-1.4h0.1L687.6,355.2
	L687.6,355.2z M693.4,355.2v-4.8c0-0.8,0.7-1.2,1.4-1.2c0.8,0,1.2,0.5,1.2,1.6v4.4h1.8v-4.8c0-0.8,0.7-1.2,1.4-1.2
	c0.8,0,1.2,0.5,1.2,1.6v4.4h1.8v-4.6c0-1.8-0.8-2.9-2.2-2.9c-1.2,0-2,0.7-2.2,1.5l0,0c-0.4-1-1.1-1.5-2.1-1.5c-1.1,0-1.7,0.6-2,1.4
	h-0.1v-1.2h-1.8v7.3L693.4,355.2L693.4,355.2z M704.2,355.2h1.8V354h0.1c0.3,0.8,1,1.4,2,1.4c1.8,0,2.9-1.4,2.9-3.8s-1-3.8-2.9-3.8
	c-1,0-1.8,0.5-2,1.4H706V345h-1.8V355.2z M707.5,354c-0.9,0-1.5-0.4-1.5-1.2v-2.3c0-0.7,0.6-1.2,1.5-1.2s1.6,0.7,1.6,1.7v1.3
	C709.1,353.2,708.5,354,707.5,354z M715.7,355.5c1.4,0,2.4-0.5,3-1.3l-1-1.1c-0.4,0.6-1,1-1.9,1c-1.2,0-1.8-0.7-1.8-1.8v-0.2h4.9
	v-0.6c0-2-1-3.7-3.3-3.7c-2.1,0-3.4,1.5-3.4,3.8C712.3,354,713.6,355.5,715.7,355.5z M715.7,349.1c0.9,0,1.4,0.7,1.4,1.7v0.1h-3
	v-0.1C714.2,349.9,714.8,349.1,715.7,349.1z M722.5,355.2v-4.5c0-0.8,0.6-1.1,1.8-1.1h0.6v-1.7h-0.4c-1.2,0-1.8,0.7-1.9,1.5h-0.1
	v-1.5h-1.8v7.3L722.5,355.2L722.5,355.2z M731.7,355.5c1.1,0,1.9-0.5,2.1-1.4h0.1c0.1,0.8,0.6,1.3,1.4,1.3h1V354h-0.7v-3.4
	c0-1.7-1.1-2.6-3-2.6c-1.5,0-2.3,0.6-2.9,1.4l1.1,1c0.4-0.5,0.8-0.9,1.7-0.9c1,0,1.4,0.5,1.4,1.3v0.5h-1.2c-2,0-3.1,0.7-3.1,2.2
	C729.4,354.5,730.2,355.5,731.7,355.5z M732.3,354.1c-0.7,0-1.1-0.3-1.1-0.9V353c0-0.6,0.5-0.9,1.4-0.9h1.1v1
	C733.7,353.8,733.1,354.1,732.3,354.1z M739.7,355.2v-4.8c0-0.8,0.7-1.2,1.5-1.2c0.9,0,1.2,0.5,1.2,1.6v4.4h1.8v-4.6
	c0-1.8-0.8-2.9-2.3-2.9c-1.1,0-1.8,0.6-2,1.4h-0.1v-1.2H738v7.3L739.7,355.2L739.7,355.2z M750.8,355.2h1.8v-10.4h-1.8v4.3h-0.1
	c-0.3-0.8-1-1.4-2-1.4c-1.8,0-2.9,1.4-2.9,3.8c0,2.5,1,3.8,2.9,3.8c1,0,1.8-0.6,2-1.4h0.1V355.2z M749.3,354c-0.9,0-1.6-0.7-1.6-1.7
	V351c0-1,0.6-1.7,1.6-1.7c0.9,0,1.5,0.5,1.5,1.2v2.3C750.8,353.5,750.1,354,749.3,354z M760.6,355.2h1.3v-1.4h-1.4v-4.5h1.5V348
	h-1.5v-2h-1.6v1.2c0,0.5-0.2,0.8-0.7,0.8h-0.6v1.4h1.1v4C758.7,354.5,759.3,355.2,760.6,355.2z M766.9,351.9l-0.5,1.8h-0.1l-0.5-1.8
	l-1.3-3.9h-1.8l2.6,7.7l-0.3,1h-1.3v1.4h1.1c1.2,0,1.7-0.4,2.1-1.5l2.9-8.6h-1.7L766.9,351.9z M771.2,358h1.8v-4h0.1
	c0.3,0.8,1,1.4,2,1.4c1.8,0,2.9-1.4,2.9-3.8s-1-3.8-2.9-3.8c-1,0-1.8,0.5-2,1.4H773V348h-1.8V358z M774.5,354
	c-0.9,0-1.5-0.4-1.5-1.2v-2.3c0-0.7,0.6-1.2,1.5-1.2s1.6,0.7,1.6,1.7v1.3C776,353.2,775.4,354,774.5,354z M782.7,355.5
	c1.4,0,2.4-0.5,3-1.3l-1-1.1c-0.4,0.6-1,1-1.9,1c-1.2,0-1.8-0.7-1.8-1.8v-0.2h4.9v-0.6c0-2-1-3.7-3.3-3.7c-2.1,0-3.4,1.5-3.4,3.8
	C779.2,354,780.5,355.5,782.7,355.5z M782.7,349.1c0.9,0,1.4,0.7,1.4,1.7v0.1h-3v-0.1C781.1,349.9,781.7,349.1,782.7,349.1z
	 M794.1,355.5c2.1,0,3.4-1.5,3.4-3.8s-1.3-3.8-3.4-3.8c-2.1,0-3.4,1.5-3.4,3.8C790.7,354,792,355.5,794.1,355.5z M794.1,354
	c-0.9,0-1.5-0.6-1.5-1.7v-1.4c0-1.1,0.6-1.7,1.5-1.7s1.5,0.6,1.5,1.7v1.4C795.6,353.4,795,354,794.1,354z M799.5,355.2h1.8v-5.9h1.5
	V348h-1.5v-1.6h1.5V345h-1.3c-1.3,0-2,0.7-2,2v1h-1.1v1.4h1.1V355.2z M807.7,355.2h1.8v-4.8c0-0.8,0.7-1.2,1.5-1.2
	c0.9,0,1.2,0.5,1.2,1.6v4.4h1.8v-4.6c0-1.8-0.8-2.9-2.3-2.9c-1.1,0-1.8,0.6-2,1.4h-0.1v-4.3h-1.8v10.4H807.7z M818.9,355.5
	c2.1,0,3.4-1.5,3.4-3.8s-1.3-3.8-3.4-3.8c-2.1,0-3.4,1.5-3.4,3.8C815.6,354,816.9,355.5,818.9,355.5z M818.9,354
	c-0.9,0-1.5-0.6-1.5-1.7v-1.4c0-1.1,0.6-1.7,1.5-1.7s1.5,0.6,1.5,1.7v1.4C820.5,353.4,819.9,354,818.9,354z M826.5,355.5
	c1.8,0,3-1,3-2.4c0-1.2-0.8-1.9-2.4-2.2l-0.7-0.1c-0.7-0.1-1-0.3-1-0.8c0-0.4,0.3-0.8,1.1-0.8c0.7,0,1.3,0.3,1.8,0.8l1-1
	c-0.7-0.7-1.4-1.1-2.9-1.1c-1.7,0-2.8,0.9-2.8,2.3c0,1.3,0.9,2,2.4,2.2l0.7,0.1c0.6,0.1,0.9,0.3,0.9,0.8s-0.4,0.8-1.2,0.8
	s-1.5-0.4-2-1l-1.1,1.1C824.2,355,825.1,355.5,826.5,355.5z M833.4,355.2h1.3v-1.4h-1.4v-4.5h1.5V348h-1.5v-2h-1.6v1.2
	c0,0.5-0.2,0.8-0.7,0.8h-0.6v1.4h1.1v4C831.5,354.5,832.2,355.2,833.4,355.2z M838.9,355.5c1.8,0,3-1,3-2.4c0-1.2-0.8-1.9-2.4-2.2
	l-0.7-0.1c-0.7-0.1-1-0.3-1-0.8c0-0.4,0.3-0.8,1.1-0.8c0.7,0,1.3,0.3,1.8,0.8l1-1c-0.7-0.7-1.4-1.1-2.9-1.1c-1.7,0-2.8,0.9-2.8,2.3
	c0,1.3,0.9,2,2.4,2.2l0.7,0.1c0.6,0.1,0.9,0.3,0.9,0.8s-0.4,0.8-1.2,0.8s-1.5-0.4-2-1l-1.1,1.1C836.6,355,837.5,355.5,838.9,355.5z"
	/>
<rect x="656.5" y="326.8" class="st5" width="207" height="47"/>
<rect x="376.5" y="326.8" class="st2" width="207" height="47"/>
<path class="st4" d="M380,326.2h-4v48h4V326.2z"/>
<path d="M396.2,355.5c2.3,0,3.7-1.3,3.7-3.1c0-1.6-0.9-2.5-2.9-2.8l-1-0.3c-0.9-0.2-1.4-0.5-1.4-1.2s0.5-1.1,1.6-1.1
	c1,0,1.7,0.4,2.2,1l1.3-1.2c-0.8-0.9-1.9-1.4-3.3-1.4c-2.2,0-3.5,1.1-3.5,2.9c0,1.6,1,2.5,2.9,2.8l0.9,0.1c1,0.2,1.3,0.6,1.3,1.2
	c0,0.8-0.6,1.4-1.7,1.4c-1,0-1.8-0.4-2.5-1.2l-1.2,1.2C393.4,354.8,394.5,355.5,396.2,355.5z M403.6,355.5c1.1,0,1.9-0.5,2.1-1.4
	h0.1c0.1,0.8,0.6,1.3,1.4,1.3h1V354h-0.7v-3.4c0-1.7-1.1-2.6-3-2.6c-1.5,0-2.3,0.6-2.9,1.4l1.1,1c0.4-0.5,0.8-0.9,1.7-0.9
	c1,0,1.4,0.5,1.4,1.3v0.5h-1.2c-2,0-3.1,0.7-3.1,2.2C401.2,354.5,402.1,355.5,403.6,355.5z M404.2,354.1c-0.7,0-1.1-0.3-1.1-0.9V353
	c0-0.6,0.5-0.9,1.4-0.9h1.1v1C405.6,353.8,405,354.1,404.2,354.1z M412,355.2h1.3v-1.4h-1.4v-4.5h1.5V348h-1.5v-2h-1.6v1.2
	c0,0.5-0.2,0.8-0.7,0.8H409v1.4h1.1v4C410.1,354.5,410.7,355.2,412,355.2z M418,355.5c1.4,0,2.4-0.5,3-1.3l-1-1.1
	c-0.4,0.6-1,1-1.9,1c-1.2,0-1.8-0.7-1.8-1.8v-0.2h4.9v-0.6c0-2-1.1-3.7-3.3-3.7c-2.1,0-3.4,1.5-3.4,3.8
	C414.5,354,415.8,355.5,418,355.5z M417.9,349.1c0.9,0,1.4,0.7,1.4,1.7v0.1h-3v-0.1C416.4,349.9,417,349.1,417.9,349.1z
	 M425.7,355.2v-1.4h-1V345H423v8.6c0,1.1,0.6,1.8,1.8,1.8h0.9V355.2z M429.9,355.2v-1.4h-1V345h-1.8v8.6c0,1.1,0.6,1.8,1.8,1.8h1
	V355.2z M432.3,346.9c0.7,0,1.1-0.4,1.1-0.9v-0.3c0-0.5-0.3-0.9-1.1-0.9c-0.7,0-1,0.4-1,0.9v0.3
	C431.3,346.5,431.6,346.9,432.3,346.9z M431.4,355.2h1.8V348h-1.8V355.2z M437.8,355.2h1.3v-1.4h-1.4v-4.5h1.5V348h-1.5v-2H436v1.2
	c0,0.5-0.2,0.8-0.7,0.8h-0.6v1.4h1.1v4C435.9,354.5,436.5,355.2,437.8,355.2z M443.8,355.5c1.4,0,2.4-0.5,3-1.3l-1-1.1
	c-0.4,0.6-1,1-1.9,1c-1.2,0-1.8-0.7-1.8-1.8v-0.2h4.9v-0.6c0-2-1.1-3.7-3.3-3.7c-2.1,0-3.4,1.5-3.4,3.8
	C440.3,354,441.6,355.5,443.8,355.5z M443.7,349.1c0.9,0,1.4,0.7,1.4,1.7v0.1h-3v-0.1C442.2,349.9,442.8,349.1,443.7,349.1z
	 M452.7,351.9v-1.8h-4v1.8H452.7z M457.8,355.5c1.4,0,2.4-0.5,3-1.3l-1-1.1c-0.4,0.6-1,1-1.9,1c-1.2,0-1.8-0.7-1.8-1.8v-0.2h4.9
	v-0.6c0-2-1-3.7-3.3-3.7c-2.1,0-3.4,1.5-3.4,3.8C454.4,354,455.6,355.5,457.8,355.5z M457.8,349.1c0.9,0,1.4,0.7,1.4,1.7v0.1h-3
	v-0.1C456.2,349.9,456.8,349.1,457.8,349.1z M464.6,355.2v-4.8c0-0.8,0.7-1.2,1.5-1.2c0.9,0,1.2,0.5,1.2,1.6v4.4h1.8v-4.6
	c0-1.8-0.8-2.9-2.3-2.9c-1.1,0-1.8,0.6-2,1.4h-0.1v-1.2h-1.8v7.3L464.6,355.2L464.6,355.2z M473,355.5c1.1,0,1.9-0.5,2.1-1.4h0.1
	c0.1,0.8,0.6,1.3,1.4,1.3h1V354h-0.7v-3.4c0-1.7-1.1-2.6-3-2.6c-1.5,0-2.3,0.6-2.9,1.4l1.1,1c0.4-0.5,0.8-0.9,1.7-0.9
	c1,0,1.4,0.5,1.4,1.3v0.5H474c-2,0-3.1,0.7-3.1,2.2C470.7,354.5,471.5,355.5,473,355.5z M473.6,354.1c-0.7,0-1.1-0.3-1.1-0.9V353
	c0-0.6,0.5-0.9,1.4-0.9h1.1v1C475.1,353.8,474.4,354.1,473.6,354.1z M479.2,355.2h1.8V354h0.1c0.3,0.8,1,1.4,2,1.4
	c1.8,0,2.9-1.4,2.9-3.8s-1-3.8-2.9-3.8c-1,0-1.8,0.5-2,1.4H481V345h-1.8V355.2z M482.5,354c-0.9,0-1.5-0.4-1.5-1.2v-2.3
	c0-0.7,0.6-1.2,1.5-1.2s1.6,0.7,1.6,1.7v1.3C484,353.2,483.4,354,482.5,354z M490.5,355.2v-1.4h-1V345h-1.8v8.6
	c0,1.1,0.6,1.8,1.8,1.8h1V355.2z M495,355.5c1.4,0,2.4-0.5,3-1.3l-1-1.1c-0.4,0.6-1,1-1.9,1c-1.2,0-1.8-0.7-1.8-1.8v-0.2h4.9v-0.6
	c0-2-1-3.7-3.3-3.7c-2.1,0-3.4,1.5-3.4,3.8C491.5,354,492.8,355.5,495,355.5z M494.9,349.1c0.9,0,1.4,0.7,1.4,1.7v0.1h-3v-0.1
	C493.4,349.9,494,349.1,494.9,349.1z M504.5,355.2h1.8v-10.4h-1.8v4.3h-0.1c-0.3-0.8-1-1.4-2-1.4c-1.8,0-2.9,1.4-2.9,3.8
	c0,2.5,1,3.8,2.9,3.8c1,0,1.8-0.6,2-1.4h0.1V355.2z M503,354c-0.9,0-1.6-0.7-1.6-1.7V351c0-1,0.6-1.7,1.6-1.7c0.9,0,1.5,0.5,1.5,1.2
	v2.3C504.5,353.5,503.9,354,503,354z M514.4,355.5c1.8,0,3-1,3-2.4c0-1.2-0.8-1.9-2.4-2.2l-0.7-0.1c-0.7-0.1-1-0.3-1-0.8
	c0-0.4,0.3-0.8,1.1-0.8c0.7,0,1.3,0.3,1.8,0.8l1.1-1c-0.7-0.7-1.4-1.1-2.9-1.1c-1.7,0-2.8,0.9-2.8,2.3c0,1.3,0.9,2,2.4,2.2l0.7,0.1
	c0.6,0.1,0.9,0.3,0.9,0.8s-0.4,0.8-1.2,0.8s-1.5-0.4-2-1l-1.1,1.1C512.1,355,513,355.5,514.4,355.5z M522.1,355.5
	c1.4,0,2.4-0.5,3-1.3l-1-1.1c-0.4,0.6-1,1-1.9,1c-1.2,0-1.8-0.7-1.8-1.8v-0.2h4.9v-0.6c0-2-1-3.7-3.3-3.7c-2.1,0-3.4,1.5-3.4,3.8
	C518.7,354,519.9,355.5,522.1,355.5z M522.1,349.1c0.9,0,1.4,0.7,1.4,1.7v0.1h-3v-0.1C520.5,349.9,521.1,349.1,522.1,349.1z
	 M528.9,355.2v-4.5c0-0.8,0.6-1.1,1.8-1.1h0.6v-1.7h-0.4c-1.2,0-1.8,0.7-1.9,1.5h-0.1v-1.5h-1.8v7.3L528.9,355.2L528.9,355.2z
	 M536.6,355.2l2.5-7.3h-1.7l-1,3.2l-0.7,2.6h-0.1l-0.7-2.6l-1-3.2H532l2.4,7.3H536.6z M541.3,346.9c0.7,0,1-0.4,1-0.9v-0.3
	c0-0.5-0.3-0.9-1-0.9s-1.1,0.4-1.1,0.9v0.3C540.2,346.5,540.5,346.9,541.3,346.9z M540.4,355.2h1.8V348h-1.8V355.2z M547.3,355.5
	c1.4,0,2.4-0.6,2.9-1.9l-1.4-0.7c-0.3,0.7-0.7,1.1-1.5,1.1c-1,0-1.5-0.7-1.5-1.7V351c0-1,0.5-1.7,1.5-1.7c0.8,0,1.2,0.4,1.4,1.1
	l1.5-0.7c-0.4-1.1-1.4-1.8-2.9-1.8c-2.2,0-3.4,1.5-3.4,3.8C543.9,354,545.1,355.5,547.3,355.5z M554.6,355.5c1.4,0,2.4-0.5,3-1.3
	l-1-1.1c-0.4,0.6-1,1-1.9,1c-1.2,0-1.8-0.7-1.8-1.8v-0.2h4.9v-0.6c0-2-1.1-3.7-3.3-3.7c-2.1,0-3.4,1.5-3.4,3.8
	C551.2,354,552.5,355.5,554.6,355.5z M554.6,349.1c0.9,0,1.4,0.7,1.4,1.7v0.1h-3v-0.1C553.1,349.9,553.7,349.1,554.6,349.1z
	 M562,355.5c1.8,0,3-1,3-2.4c0-1.2-0.8-1.9-2.4-2.2l-0.7-0.1c-0.7-0.1-1-0.3-1-0.8c0-0.4,0.3-0.8,1.1-0.8c0.7,0,1.3,0.3,1.8,0.8l1-1
	c-0.7-0.7-1.4-1.1-2.9-1.1c-1.7,0-2.8,0.9-2.8,2.3c0,1.3,0.9,2,2.4,2.2l0.7,0.1c0.6,0.1,0.9,0.3,0.9,0.8s-0.4,0.8-1.2,0.8
	s-1.5-0.4-2-1l-1.1,1.1C559.7,355,560.7,355.5,562,355.5z"/>
<rect x="376.5" y="326.8" class="st5" width="207" height="47"/>
<rect x="656.5" y="390.8" class="st2" width="207" height="47"/>
<path class="st4" d="M660,390.2h-4v48h4V390.2z"/>
<path d="M677,419.5c2.6,0,4.3-1.8,4.3-5.1c0-3.3-1.7-5.1-4.3-5.1s-4.3,1.8-4.3,5.1C672.7,417.6,674.4,419.5,677,419.5z M677,417.8
	c-1.4,0-2.3-1-2.3-2.7v-1.5c0-1.7,0.9-2.7,2.3-2.7c1.4,0,2.3,1,2.3,2.7v1.5C679.3,416.8,678.4,417.8,677,417.8z M683.2,422h1.8v-4
	h0.1c0.3,0.8,1,1.4,2,1.4c1.8,0,2.9-1.4,2.9-3.8s-1-3.8-2.9-3.8c-1,0-1.8,0.5-2,1.4H685V412h-1.8V422z M686.5,418
	c-0.9,0-1.5-0.4-1.5-1.2v-2.3c0-0.7,0.6-1.2,1.5-1.2s1.6,0.7,1.6,1.7v1.3C688,417.2,687.4,418,686.5,418z M694.7,419.5
	c1.4,0,2.4-0.5,3-1.3l-1-1.1c-0.4,0.6-1,1-1.9,1c-1.2,0-1.8-0.7-1.8-1.8v-0.2h4.9v-0.6c0-2-1.1-3.7-3.3-3.7c-2.1,0-3.4,1.5-3.4,3.8
	C691.2,418,692.5,419.5,694.7,419.5z M694.6,413.1c0.9,0,1.4,0.7,1.4,1.7v0.1h-3v-0.1C693.1,413.9,693.7,413.1,694.6,413.1z
	 M701.5,419.2v-4.5c0-0.8,0.6-1.1,1.8-1.1h0.6v-1.7h-0.4c-1.2,0-1.8,0.7-1.9,1.5h-0.1v-1.5h-1.8v7.3L701.5,419.2L701.5,419.2z
	 M707,419.5c1.1,0,1.9-0.5,2.1-1.4h0.1c0.1,0.8,0.6,1.3,1.4,1.3h1V418h-0.7v-3.4c0-1.7-1-2.6-3-2.6c-1.5,0-2.3,0.6-2.9,1.4l1.1,1
	c0.4-0.5,0.8-0.9,1.7-0.9c1,0,1.4,0.5,1.4,1.3v0.5H708c-2,0-3.1,0.7-3.1,2.2C704.7,418.5,705.5,419.5,707,419.5z M707.6,418.1
	c-0.7,0-1.1-0.3-1.1-0.9V417c0-0.6,0.5-0.9,1.4-0.9h1.1v1C709,417.8,708.4,418.1,707.6,418.1z M715.4,419.2h1.3v-1.4h-1.4v-4.5h1.5
	V412h-1.5v-2h-1.6v1.2c0,0.5-0.2,0.8-0.7,0.8h-0.6v1.4h1.1v4C713.5,418.5,714.2,419.2,715.4,419.2z M719.4,410.9c0.7,0,1-0.4,1-0.9
	v-0.3c0-0.5-0.3-0.9-1-0.9s-1.1,0.4-1.1,0.9v0.3C718.4,410.5,718.7,410.9,719.4,410.9z M718.5,419.2h1.8V412h-1.8V419.2z
	 M724.3,419.2v-4.8c0-0.8,0.7-1.2,1.5-1.2c0.9,0,1.2,0.5,1.2,1.6v4.4h1.8v-4.6c0-1.8-0.8-2.9-2.3-2.9c-1.1,0-1.8,0.6-2,1.4h-0.1
	v-1.2h-1.8v7.3L724.3,419.2L724.3,419.2z M737.5,419.9c0-1.3-0.8-2.1-2.6-2.1h-2c-0.6,0-1-0.2-1-0.5s0.2-0.5,0.5-0.7
	c0.3,0.1,0.7,0.1,1.1,0.1c2,0,3-1,3-2.4c0-0.9-0.4-1.6-1.1-2V412h1.6v-1.4h-1c-0.7,0-1,0.4-1,1.1v0.2c-0.4-0.1-0.8-0.2-1.3-0.2
	c-2,0-3,1-3,2.5c0,1,0.4,1.7,1.3,2.1v0.1c-0.7,0.2-1.3,0.5-1.3,1.3c0,0.6,0.3,1.1,0.9,1.2v0.2c-0.8,0.1-1.3,0.6-1.3,1.4
	c0,1.1,0.9,1.7,3.4,1.7C736.5,422.2,737.5,421.4,737.5,419.9z M735.8,420c0,0.6-0.5,0.9-1.7,0.9h-0.9c-1.1,0-1.5-0.3-1.5-0.9
	c0-0.3,0.1-0.6,0.4-0.8h2.5C735.5,419.4,735.8,419.6,735.8,420z M733.7,415.5c-0.9,0-1.3-0.4-1.3-1.1v-0.2c0-0.7,0.5-1.1,1.3-1.1
	s1.3,0.4,1.3,1.1v0.2C735,415,734.5,415.5,733.7,415.5z M744.6,419.5c1.8,0,3-1,3-2.4c0-1.2-0.8-1.9-2.4-2.2l-0.7-0.1
	c-0.7-0.1-1-0.3-1-0.8c0-0.4,0.3-0.8,1.1-0.8c0.7,0,1.3,0.3,1.8,0.8l1.1-1c-0.7-0.7-1.4-1.1-2.9-1.1c-1.7,0-2.8,0.9-2.8,2.3
	c0,1.3,0.9,2,2.4,2.2l0.7,0.1c0.6,0.1,0.9,0.3,0.9,0.8s-0.4,0.8-1.2,0.8s-1.5-0.4-2-1l-1.1,1.1C742.3,419,743.2,419.5,744.6,419.5z
	 M752.4,415.9l-0.5,1.8h-0.1l-0.5-1.8L750,412h-1.8l2.6,7.7l-0.3,1h-1.3v1.4h1.1c1.2,0,1.7-0.4,2.1-1.5l2.9-8.6h-1.7L752.4,415.9z
	 M759,419.5c1.8,0,3-1,3-2.4c0-1.2-0.8-1.9-2.4-2.2l-0.7-0.1c-0.7-0.1-1-0.3-1-0.8c0-0.4,0.3-0.8,1.1-0.8c0.7,0,1.3,0.3,1.8,0.8l1-1
	c-0.7-0.7-1.4-1.1-2.9-1.1c-1.7,0-2.8,0.9-2.8,2.3c0,1.3,0.9,2,2.4,2.2l0.7,0.1c0.6,0.1,0.9,0.3,0.9,0.8s-0.4,0.8-1.2,0.8
	s-1.5-0.4-2-1l-1.1,1.1C756.7,419,757.6,419.5,759,419.5z M765.9,419.2h1.3v-1.4h-1.4v-4.5h1.5V412h-1.5v-2h-1.6v1.2
	c0,0.5-0.2,0.8-0.7,0.8h-0.6v1.4h1.1v4C764,418.5,764.7,419.2,765.9,419.2z M771.9,419.5c1.4,0,2.4-0.5,3-1.3l-1-1.1
	c-0.4,0.6-1,1-1.9,1c-1.2,0-1.8-0.7-1.8-1.8v-0.2h4.9v-0.6c0-2-1-3.7-3.3-3.7c-2.1,0-3.4,1.5-3.4,3.8
	C768.5,418,769.7,419.5,771.9,419.5z M771.9,413.1c0.9,0,1.4,0.7,1.4,1.7v0.1h-3v-0.1C770.3,413.9,770.9,413.1,771.9,413.1z
	 M778.7,419.2v-4.8c0-0.8,0.7-1.2,1.4-1.2c0.8,0,1.2,0.5,1.2,1.6v4.4h1.8v-4.8c0-0.8,0.7-1.2,1.4-1.2c0.8,0,1.2,0.5,1.2,1.6v4.4h1.8
	v-4.6c0-1.8-0.8-2.9-2.2-2.9c-1.2,0-2,0.7-2.2,1.5l0,0c-0.3-1-1.1-1.5-2.1-1.5c-1.1,0-1.7,0.6-2,1.4h-0.1v-1.2h-1.8v7.3L778.7,419.2
	L778.7,419.2z"/>
<rect x="656.5" y="390.8" class="st5" width="207" height="47"/>
<rect x="96.5" y="454.8" class="st2" width="207" height="47"/>
<path class="st4" d="M100,454.2h-4v48h4V454.2z"/>
<path d="M117.2,483.2v-1.5h-1.3V475h1.3v-1.5h-4.4v1.5h1.3v6.8h-1.3v1.5H117.2z M119.2,483.2h5c1.4,0,2.5-1.2,2.5-2.8
	c0-1.7-1.3-2.3-2.1-2.3v-0.1c0.9-0.1,1.8-0.6,1.8-2.1s-1-2.5-2.6-2.5h-4.5v9.8H119.2z M121.1,479h2.6c0.7,0,1.1,0.4,1.1,1.1v0.5
	c0,0.7-0.4,1.1-1.1,1.1h-2.6V479z M121.1,475h2.3c0.7,0,1.1,0.4,1.1,1v0.4c0,0.6-0.4,1-1.1,1h-2.3V475z M128.7,483.2h1.8v-7h0.1
	l0.8,1.6l2,3.7l2-3.7l0.8-1.6h0.1v7h1.8v-9.8h-2l-2.5,4.8h-0.1l-2.5-4.8h-2.1v9.8H128.7z M147.5,483.5c1.8,0,2.9-0.9,3.6-2.3
	l-1.5-0.9c-0.3,0.9-1,1.6-2.1,1.6c-1.4,0-2.3-1-2.3-2.6v-1.5c0-1.7,0.9-2.7,2.3-2.7c1.1,0,1.7,0.6,2,1.5l1.6-0.8
	c-0.7-1.5-1.8-2.3-3.6-2.3c-2.6,0-4.2,1.8-4.2,5.1C143.3,481.8,144.9,483.5,147.5,483.5z M155.5,483.2v-1.4h-1V473h-1.8v8.6
	c0,1.1,0.6,1.8,1.8,1.8h1V483.2z M159.9,483.5c2.1,0,3.4-1.5,3.4-3.8s-1.3-3.8-3.4-3.8c-2.1,0-3.4,1.5-3.4,3.8
	S157.8,483.5,159.9,483.5z M159.9,482c-0.9,0-1.5-0.6-1.5-1.7v-1.4c0-1.1,0.6-1.7,1.5-1.7s1.5,0.6,1.5,1.7v1.4
	C161.5,481.4,160.9,482,159.9,482z M169.5,483.2h1.8V476h-1.8v4.8c0,0.8-0.7,1.2-1.4,1.2c-0.9,0-1.2-0.5-1.2-1.6V476H165v4.6
	c0,1.8,0.8,2.9,2.3,2.9c1.2,0,1.8-0.7,2-1.4h0.1L169.5,483.2L169.5,483.2z M178,483.2h1.8v-10.4H178v4.3h-0.1
	c-0.3-0.8-1.1-1.4-2-1.4c-1.8,0-2.9,1.4-2.9,3.8c0,2.5,1,3.8,2.9,3.8c1,0,1.8-0.6,2-1.4h0.1V483.2z M176.5,482
	c-0.9,0-1.6-0.7-1.6-1.7V479c0-1,0.6-1.7,1.6-1.7c0.9,0,1.5,0.5,1.5,1.2v2.3C178,481.5,177.4,482,176.5,482z"/>
<rect x="96.5" y="454.8" class="st5" width="207" height="47"/>
<path class="st7" d="M193.6,224.1l21.2,21.2c0.6,0.6,0.6,1.5,0,2.1l-21.2,21.2c-0.6,0.6-1.5,0.6-2.1,0l-21.2-21.2
	c-0.6-0.6-0.6-1.5,0-2.1l21.2-21.2C192,223.4,193,223.4,193.6,224.1z"/>
<path d="M193,237.4c-1.7,0-3.4,0.5-4.9,1.5c-1.4,1-2.6,2.3-3.2,3.9c-0.7,1.6-0.8,3.4-0.5,5.1c0.3,1.7,1.2,3.3,2.4,4.5
	s2.8,2.1,4.5,2.4c1.7,0.3,3.5,0.2,5.1-0.5c1.6-0.7,3-1.8,3.9-3.2c1-1.4,1.5-3.1,1.5-4.9c0-2.3-0.9-4.5-2.6-6.2
	C197.5,238.4,195.3,237.4,193,237.4z M193,253.8c-1.5,0-2.9-0.4-4.2-1.3c-1.2-0.8-2.2-2-2.8-3.4s-0.7-2.9-0.4-4.3
	c0.3-1.5,1-2.8,2.1-3.8c1-1,2.4-1.8,3.8-2.1s3-0.1,4.3,0.4c1.4,0.6,2.5,1.5,3.4,2.8c0.8,1.2,1.3,2.7,1.3,4.2c0,2-0.8,3.9-2.2,5.3
	C196.9,252.9,195,253.8,193,253.8z"/>
<path d="M193,251.9c0.5,0,0.9-0.4,0.9-0.9s-0.4-0.9-0.9-0.9s-0.9,0.4-0.9,0.9C192.1,251.4,192.5,251.9,193,251.9z"/>
<path d="M193.6,241.2h-0.9c-0.4,0-0.7,0.1-1.1,0.2c-0.3,0.1-0.7,0.3-0.9,0.6c-0.3,0.3-0.5,0.6-0.6,0.9c-0.1,0.3-0.2,0.7-0.2,1.1v0.3
	h1.2v-0.3c0-0.4,0.2-0.8,0.5-1.1s0.7-0.5,1.1-0.5h0.9c0.4,0,0.8,0.2,1.1,0.5s0.5,0.7,0.5,1.1c0,0.4-0.2,0.8-0.5,1.1
	s-0.7,0.5-1.1,0.5h-1.2v2.8h1.2v-1.6c0.7,0,1.5-0.3,2-0.8s0.8-1.2,0.8-2c0-0.7-0.3-1.5-0.8-2S194.4,241.2,193.6,241.2z"/>
<path d="M150.7,288.2v-1.5h-1.3V280h1.3v-1.5h-4.4v1.5h1.3v6.8h-1.3v1.5H150.7z M154.4,288.2v-4.8c0-0.8,0.7-1.2,1.5-1.2
	c0.9,0,1.2,0.5,1.2,1.6v4.4h1.8v-4.6c0-1.8-0.8-2.9-2.3-2.9c-1.1,0-1.8,0.6-2,1.4h-0.1v-1.2h-1.8v7.3L154.4,288.2L154.4,288.2z
	 M161.4,288.2h1.8v-5.9h1.5V281h-1.5v-1.6h1.5V278h-1.3c-1.3,0-2,0.7-2,2v1h-1.1v1.4h1.1V288.2z M167.8,288.2v-4.5
	c0-0.8,0.6-1.1,1.8-1.1h0.6v-1.7h-0.4c-1.2,0-1.8,0.7-1.9,1.5h-0.1v-1.5H166v7.3L167.8,288.2L167.8,288.2z M173.4,288.5
	c1.1,0,1.9-0.5,2.1-1.4h0.1c0.1,0.8,0.6,1.3,1.4,1.3h1V287h-0.7v-3.4c0-1.7-1-2.6-3-2.6c-1.5,0-2.3,0.6-2.9,1.4l1.1,1
	c0.4-0.5,0.8-0.9,1.7-0.9c1,0,1.4,0.5,1.4,1.3v0.5h-1.2c-2,0-3.1,0.7-3.1,2.2C171,287.5,171.9,288.5,173.4,288.5z M174,287.1
	c-0.7,0-1.1-0.3-1.1-0.9V286c0-0.6,0.5-0.9,1.4-0.9h1.1v1C175.4,286.8,174.8,287.1,174,287.1z M181.9,288.5c1.8,0,3-1,3-2.4
	c0-1.2-0.8-1.9-2.4-2.2l-0.7-0.1c-0.7-0.1-1-0.3-1-0.8c0-0.4,0.3-0.8,1.1-0.8c0.7,0,1.3,0.3,1.8,0.8l1.1-1c-0.7-0.7-1.4-1.1-2.9-1.1
	c-1.7,0-2.8,0.9-2.8,2.3c0,1.3,0.9,2,2.4,2.2l0.7,0.1c0.6,0.1,0.9,0.3,0.9,0.8s-0.4,0.8-1.2,0.8s-1.5-0.4-2-1l-1.1,1.1
	C179.6,288,180.6,288.5,181.9,288.5z M188.9,288.2h1.3v-1.4h-1.4v-4.5h1.5V281h-1.5v-2h-1.6v1.2c0,0.5-0.2,0.8-0.7,0.8h-0.6v1.4h1.1
	v4C187,287.5,187.6,288.2,188.9,288.2z M193.8,288.2v-4.5c0-0.8,0.6-1.1,1.8-1.1h0.6v-1.7h-0.4c-1.2,0-1.8,0.7-1.9,1.5h-0.1v-1.5
	H192v7.3L193.8,288.2L193.8,288.2z M202,288.2h1.8V281H202v4.8c0,0.8-0.7,1.2-1.4,1.2c-0.9,0-1.2-0.5-1.2-1.6V281h-1.8v4.6
	c0,1.8,0.8,2.9,2.3,2.9c1.2,0,1.8-0.7,2-1.4h0.1L202,288.2L202,288.2z M208.9,288.5c1.4,0,2.4-0.6,2.9-1.9l-1.4-0.7
	c-0.3,0.7-0.7,1.1-1.5,1.1c-1,0-1.5-0.7-1.5-1.7V284c0-1,0.5-1.7,1.5-1.7c0.8,0,1.2,0.4,1.4,1.1l1.5-0.7c-0.4-1.1-1.4-1.8-2.9-1.8
	c-2.2,0-3.4,1.5-3.4,3.8C205.5,287,206.8,288.5,208.9,288.5z M215.6,288.2h1.3v-1.4h-1.4v-4.5h1.5V281h-1.5v-2h-1.6v1.2
	c0,0.5-0.2,0.8-0.7,0.8h-0.6v1.4h1.1v4C213.8,287.5,214.4,288.2,215.6,288.2z M223.1,288.2h1.8V281h-1.8v4.8c0,0.8-0.7,1.2-1.4,1.2
	c-0.9,0-1.2-0.5-1.2-1.6V281h-1.8v4.6c0,1.8,0.8,2.9,2.3,2.9c1.2,0,1.8-0.7,2-1.4h0.1L223.1,288.2L223.1,288.2z M228.9,288.2v-4.5
	c0-0.8,0.6-1.1,1.8-1.1h0.6v-1.7h-0.4c-1.2,0-1.8,0.7-1.9,1.5h-0.1v-1.5h-1.8v7.3L228.9,288.2L228.9,288.2z M235.7,288.5
	c1.4,0,2.4-0.5,3-1.3l-1-1.1c-0.4,0.6-1,1-1.9,1c-1.2,0-1.8-0.7-1.8-1.8v-0.2h4.9v-0.6c0-2-1.1-3.7-3.3-3.7c-2.1,0-3.4,1.5-3.4,3.8
	C232.2,287,233.5,288.5,235.7,288.5z M235.7,282.1c0.9,0,1.4,0.7,1.4,1.7v0.1h-3v-0.1C234.1,282.9,234.7,282.1,235.7,282.1z"/>
<path class="st7" d="M473.1,224.1l21.2,21.2c0.6,0.6,0.6,1.5,0,2.1l-21.2,21.2c-0.6,0.6-1.5,0.6-2.1,0l-21.2-21.2
	c-0.6-0.6-0.6-1.5,0-2.1l21.2-21.2C471.5,223.4,472.5,223.4,473.1,224.1z"/>
<path d="M472.5,237.4c-1.7,0-3.4,0.5-4.9,1.5c-1.4,1-2.6,2.3-3.2,3.9c-0.7,1.6-0.8,3.4-0.5,5.1c0.3,1.7,1.2,3.3,2.4,4.5
	s2.8,2.1,4.5,2.4c1.7,0.3,3.5,0.2,5.1-0.5c1.6-0.7,3-1.8,3.9-3.2c1-1.4,1.5-3.1,1.5-4.9c0-2.3-0.9-4.5-2.6-6.2
	C477,238.4,474.8,237.4,472.5,237.4z M472.5,253.8c-1.5,0-2.9-0.4-4.2-1.3c-1.2-0.8-2.2-2-2.8-3.4c-0.6-1.4-0.7-2.9-0.4-4.3
	c0.3-1.5,1-2.8,2.1-3.8c1-1,2.4-1.8,3.8-2.1c1.5-0.3,3-0.1,4.3,0.4c1.4,0.6,2.5,1.5,3.4,2.8c0.8,1.2,1.3,2.7,1.3,4.2
	c0,2-0.8,3.9-2.2,5.3C476.4,252.9,474.5,253.8,472.5,253.8z"/>
<path d="M472.5,251.9c0.5,0,0.9-0.4,0.9-0.9s-0.4-0.9-0.9-0.9s-0.9,0.4-0.9,0.9C471.6,251.4,472,251.9,472.5,251.9z"/>
<path d="M473.1,241.2h-0.9c-0.4,0-0.7,0.1-1.1,0.2c-0.3,0.1-0.7,0.3-0.9,0.6c-0.3,0.3-0.5,0.6-0.6,0.9c-0.1,0.3-0.2,0.7-0.2,1.1v0.3
	h1.2v-0.3c0-0.4,0.2-0.8,0.5-1.1s0.7-0.5,1.1-0.5h0.9c0.4,0,0.8,0.2,1.1,0.5c0.3,0.3,0.5,0.7,0.5,1.1c0,0.4-0.2,0.8-0.5,1.1
	s-0.7,0.5-1.1,0.5h-1.2v2.8h1.2v-1.6c0.7,0,1.5-0.3,2-0.8s0.8-1.2,0.8-2c0-0.7-0.3-1.5-0.8-2S473.9,241.2,473.1,241.2z"/>
<path d="M448.1,288.5c2.3,0,3.7-1.3,3.7-3.1c0-1.6-0.9-2.5-2.9-2.8l-0.9-0.2c-0.9-0.2-1.4-0.5-1.4-1.2s0.5-1.1,1.6-1.1
	c1,0,1.7,0.4,2.2,1l1.3-1.2c-0.8-0.9-1.9-1.4-3.3-1.4c-2.2,0-3.5,1.1-3.5,2.9c0,1.6,1,2.5,2.9,2.8l0.9,0.1c1,0.2,1.3,0.6,1.3,1.2
	c0,0.8-0.6,1.4-1.7,1.4c-1,0-1.8-0.4-2.5-1.2l-1.2,1.2C445.3,287.8,446.4,288.5,448.1,288.5z M456.6,288.5c1.4,0,2.4-0.5,3-1.3
	l-1-1.1c-0.4,0.6-1,1-1.9,1c-1.2,0-1.8-0.7-1.8-1.8v-0.2h4.9v-0.6c0-2-1-3.7-3.3-3.7c-2.1,0-3.4,1.5-3.4,3.8
	C453.2,287,454.5,288.5,456.6,288.5z M456.6,282.1c0.9,0,1.4,0.7,1.4,1.7v0.1h-3v-0.1C455,282.9,455.6,282.1,456.6,282.1z
	 M463.4,288.2v-4.5c0-0.8,0.6-1.1,1.8-1.1h0.6v-1.7h-0.4c-1.2,0-1.8,0.7-1.9,1.5h-0.1v-1.5h-1.8v7.3L463.4,288.2L463.4,288.2z
	 M471.1,288.2l2.5-7.3h-1.7l-1,3.2l-0.7,2.6H470l-0.7-2.6l-1-3.2h-1.8l2.4,7.3H471.1z M475.8,279.9c0.7,0,1.1-0.4,1.1-0.9v-0.3
	c0-0.5-0.3-0.9-1.1-0.9c-0.7,0-1,0.4-1,0.9v0.3C474.7,279.5,475,279.9,475.8,279.9z M474.9,288.2h1.8V281h-1.8V288.2z M481.8,288.5
	c1.4,0,2.4-0.6,2.9-1.9l-1.4-0.7c-0.3,0.7-0.7,1.1-1.5,1.1c-1,0-1.5-0.7-1.5-1.7V284c0-1,0.5-1.7,1.5-1.7c0.8,0,1.2,0.4,1.4,1.1
	l1.5-0.7c-0.4-1.1-1.4-1.8-2.9-1.8c-2.2,0-3.4,1.5-3.4,3.8C478.4,287,479.6,288.5,481.8,288.5z M489.1,288.5c1.4,0,2.4-0.5,3-1.3
	l-1-1.1c-0.4,0.6-1,1-1.9,1c-1.2,0-1.8-0.7-1.8-1.8v-0.2h4.9v-0.6c0-2-1.1-3.7-3.3-3.7c-2.1,0-3.4,1.5-3.4,3.8
	C485.7,287,487,288.5,489.1,288.5z M489.1,282.1c0.9,0,1.4,0.7,1.4,1.7v0.1h-3v-0.1C487.6,282.9,488.2,282.1,489.1,282.1z
	 M496.5,288.5c1.8,0,3-1,3-2.4c0-1.2-0.8-1.9-2.4-2.2l-0.7-0.1c-0.7-0.1-1-0.3-1-0.8c0-0.4,0.3-0.8,1.1-0.8c0.7,0,1.3,0.3,1.8,0.8
	l1.1-1c-0.7-0.7-1.4-1.1-2.9-1.1c-1.7,0-2.8,0.9-2.8,2.3c0,1.3,0.9,2,2.4,2.2l0.7,0.1c0.6,0.1,0.9,0.3,0.9,0.8s-0.4,0.8-1.2,0.8
	c-0.8,0-1.5-0.4-2-1l-1.1,1.1C494.2,288,495.2,288.5,496.5,288.5z"/>
<path class="st2" d="M964,190.8h56c4.1,0,7.5,3.4,7.5,7.5l0,0c0,4.1-3.4,7.5-7.5,7.5h-56c-4.1,0-7.5-3.4-7.5-7.5l0,0
	C956.5,194.1,959.9,190.8,964,190.8z"/>
<path d="M970.6,194.8v-0.9h-6.3v0.9h2.7v7.5h1v-7.5H970.6z M973.8,202.4c1.7,0,2.8-1.3,2.8-3.2c0-2-1.1-3.2-2.8-3.2
	s-2.8,1.3-2.8,3.2C971,201.1,972.1,202.4,973.8,202.4z M973.8,201.6c-1,0-1.8-0.6-1.8-1.9v-0.9c0-1.3,0.7-1.9,1.8-1.9
	c1,0,1.8,0.6,1.8,1.9v0.9C975.5,200.9,974.8,201.6,973.8,201.6z M983.5,202.4c1.4,0,2.3-0.7,2.3-1.9c0-0.9-0.5-1.5-1.9-1.7l-0.5-0.1
	c-0.8-0.1-1.2-0.4-1.2-1s0.4-1,1.2-1s1.3,0.4,1.6,0.8l0.6-0.6c-0.5-0.6-1.2-1-2.2-1c-1.3,0-2.2,0.6-2.2,1.8s0.9,1.6,2,1.8l0.5,0.1
	c0.8,0.1,1.1,0.5,1.1,1c0,0.6-0.5,1-1.3,1s-1.4-0.3-1.8-0.9l-0.7,0.6C981.6,201.9,982.3,202.4,983.5,202.4z M990.3,202.2v-0.8H989
	v-4.5h1.4v-0.8H989v-1.7h-0.9v1.2c0,0.4-0.1,0.6-0.5,0.6H987v0.8h1v4.3c0,0.6,0.4,1,1,1h1.3V202.2z M994.5,202.4
	c1.2,0,2.1-0.6,2.4-1.4l-0.7-0.5c-0.3,0.7-0.9,1.1-1.7,1.1c-1.2,0-1.8-0.8-1.8-1.9v-0.3h4.5v-0.5c0-1.8-1-3-2.7-3s-2.8,1.3-2.8,3.2
	C991.7,201.1,992.8,202.4,994.5,202.4z M994.5,196.8c1,0,1.6,0.7,1.6,1.8v0.1h-3.4v-0.1C992.7,197.6,993.5,196.8,994.5,196.8z
	 M999.1,204.6h1v-3.4h0.1c0.4,0.8,1,1.2,1.8,1.2c1.5,0,2.5-1.3,2.5-3.2c0-2-1-3.2-2.5-3.2c-0.9,0-1.5,0.4-1.8,1.2h-0.1v-1h-1V204.6z
	 M1001.6,201.6c-0.9,0-1.6-0.5-1.6-1.3v-2.3c0-0.7,0.7-1.2,1.6-1.2c1.1,0,1.8,0.7,1.8,1.8v1.1
	C1003.4,200.8,1002.7,201.6,1001.6,201.6z M1014.9,201.4h-4.4l2.3-2c1.1-1,1.8-1.9,1.8-3.2c0-1.4-0.9-2.4-2.6-2.4
	c-1.6,0-2.4,1-2.7,2l0.9,0.3c0.2-0.8,0.7-1.4,1.7-1.4s1.6,0.6,1.6,1.6v0.1c0,0.8-0.6,1.6-1.4,2.4l-2.7,2.5v1h5.5L1014.9,201.4
	L1014.9,201.4z M1017.7,202.4c0.5,0,0.7-0.3,0.7-0.7v-0.2c0-0.4-0.2-0.7-0.7-0.7s-0.7,0.3-0.7,0.7v0.2
	C1016.9,202.1,1017.1,202.4,1017.7,202.4z"/>
<path class="st8" d="M964,190.8h56c4.1,0,7.5,3.4,7.5,7.5l0,0c0,4.1-3.4,7.5-7.5,7.5h-56c-4.1,0-7.5-3.4-7.5-7.5l0,0
	C956.5,194.1,959.9,190.8,964,190.8z"/>
</svg>
