<?xml version="1.0" encoding="utf-8"?>
<!-- Generator: Adobe Illustrator 26.5.0, SVG Export Plug-In . SVG Version: 6.00 Build 0)  -->
<svg version="1.1" id="Layer_1" xmlns="http://www.w3.org/2000/svg" xmlns:xlink="http://www.w3.org/1999/xlink" x="0px" y="0px"
	 viewBox="0 0 1108 608" style="enable-background:new 0 0 1108 608;" xml:space="preserve">
<style type="text/css">
	.st0{fill:#F4F4F4;}
	.st1{fill:#565151;}
	.st2{fill:none;stroke:#005D5D;}
	.st3{fill:#005D5D;}
	.st4{fill:#FFFFFF;}
	.st5{fill:#161616;}
	.st6{fill:none;stroke:#000000;}
	.st7{fill:#8F8B8B;}
	.st8{fill:none;stroke:#8F8B8B;}
	.st9{fill:#D9FBFB;stroke:#08BDBA;}
	.st10{fill:#D9FBFB;stroke:#009D9A;}
	.st11{fill:none;stroke:#009D9A;}
	.st12{fill:#D9FBFB;}
	.st13{fill:#009D9A;}
	.st14{fill:#FFFFFF;filter:url(#Adobe_OpacityMaskFilter);}
	.st15{mask:url(#path-34-inside-1_2755_22850_00000034072451336473625720000009367497330036037525_);fill:#009D9A;}
	.st16{fill-rule:evenodd;clip-rule:evenodd;fill:#009D9A;}
	.st17{fill:none;stroke:#8D8D8D;stroke-dasharray:4,4;}
	.st18{fill:#6F6F6F;}
	.st19{fill:none;}
	.st20{fill:none;stroke:#8D8D8D;}
</style>
<rect class="st0" width="1108" height="607.5"/>
<path class="st1" d="M192,80l-5-2.9v2.4h-52.5v1H187v2.4L192,80z"/>
<path class="st1" d="M216.5,184v-16h-1v16c0,4.7,3.8,8.5,8.5,8.5h111.5v27.3h-2.4l2.9,5l2.9-5h-2.4v-27.3l271.5,0
	c4.1,0,7.5,3.4,7.5,7.5v19.8h-2.4l2.9,5l2.9-5h-2.4V200c0-4.7-3.8-8.5-8.5-8.5l-384,0C219.9,191.5,216.5,188.1,216.5,184z"/>
<path class="st1" d="M350,247.5H224c-4.7,0-8.5,3.8-8.5,8.5v88c0,0,0,0.1,0,0.1V408c0,4.7,3.8,8.5,8.5,8.5h11v2.4l5-2.9l-5-2.9v2.4
	h-11c-4.1,0-7.5-3.4-7.5-7.5v-60c1.4,2.7,4.3,4.5,7.5,4.5h11v2.4l5-2.9l-5-2.9v2.4h-11c-4.1,0-7.4-3.3-7.5-7.4V256
	c0-3.9,2.9-7.1,6.7-7.5c0.3,0,0.5,0,0.8,0h126V247.5z"/>
<path class="st1" d="M463.7,351.5H447v1h16.7c4.1,0,7.5,3.4,7.5,7.5v60c-1.4-2.7-4.3-4.5-7.5-4.5H447v1h16.6c4.1,0,7.5,3.4,7.5,7.5
	l0,96c0,4.7,3.8,8.5,8.5,8.5H771v2.4l5-2.9l-5-2.9v2.4h-11c-4.1,0-7.5-3.4-7.5-7.5v-5.6h0V360c0-4.7-3.8-8.5-8.5-8.5h-17.3v1H744
	c4.1,0,7.5,3.4,7.5,7.5v60c-1.4-2.7-4.3-4.5-7.5-4.5h-17.2v1H744c4.1,0,7.5,3.4,7.5,7.5l0,96c0,3.2,1.8,6.1,4.5,7.5H479.7
	c-4.1,0-7.5-3.4-7.5-7.5V360C472.2,355.3,468.4,351.5,463.7,351.5z"/>
<path class="st1" d="M504,247.5c-4.7,0-8.5,3.8-8.5,8.5v152c0,4.7,3.8,8.5,8.5,8.5h11v2.4l5-2.9l-5-2.9v2.4h-11
	c-4.1,0-7.5-3.4-7.5-7.5v-60c1.4,2.7,4.3,4.5,7.5,4.5h11v2.4l5-2.9l-5-2.9v2.4h-11c-4.1,0-7.5-3.4-7.5-7.5v-88
	c0-4.1,3.4-7.5,7.5-7.5h130v-1H504z"/>
<path class="st1" d="M993.5,528.5v-0.1c4-0.7,7-4.2,7-8.4V197h2.4l-2.9-5l-2.9,5h2.4v323c0,4.1-3.4,7.5-7.5,7.5h-8v1H993.5z"/>
<path class="st2" d="M200.5,52.5H236c4.4,0,8,3.6,8,8V96"/>
<path class="st2" d="M204.5,48.5H240c4.4,0,8,3.6,8,8V92"/>
<path class="st3" d="M200,56h32c4.4,0,8,3.6,8,8v32c0,4.4-3.6,8-8,8h-32c-4.4,0-8-3.6-8-8V64C192,59.6,195.6,56,200,56z"/>
<path class="st4" d="M216,88.8l-5.3-6.2c0,0-0.2-0.3-0.2-0.3c-0.9-1.2-1.4-2.6-1.4-4.1c0-1.8,0.7-3.6,2-4.9c1.3-1.3,3-2,4.9-2
	s3.6,0.7,4.9,2c1.3,1.3,2,3,2,4.9c0,1.5-0.5,2.9-1.4,4.1l0,0c0,0-0.2,0.2-0.2,0.3L216,88.8z M211.5,81.5c0,0,0.1,0.2,0.2,0.2
	l4.3,5.1l4.3-5.1c0,0,0.2-0.2,0.2-0.2c0.7-1,1.1-2.2,1.1-3.4c0-1.5-0.6-2.9-1.6-4c-1.1-1.1-2.5-1.6-4-1.6s-2.9,0.6-4,1.6
	c-1.1,1.1-1.6,2.5-1.6,4C210.4,79.3,210.8,80.5,211.5,81.5z"/>
<path class="st4" d="M219.1,81.2h-1.2v-5h-3.8v5h-1.2v-5c0-0.3,0.1-0.6,0.4-0.9c0.2-0.2,0.6-0.4,0.9-0.4h3.8c0.3,0,0.6,0.1,0.9,0.4
	c0.2,0.2,0.4,0.6,0.4,0.9V81.2z"/>
<path class="st4" d="M216.6,80h-1.2v1.2h1.2V80z"/>
<path class="st4" d="M216.6,77.5h-1.2v1.2h1.2V77.5z"/>
<path d="M217.3,124.4h-4.8l2.1-1.7c1.4-1.1,2.5-2.2,2.5-3.8c0-1.7-1.2-2.9-3.2-2.9c-2,0-3,1.1-3.5,2.4l1.6,0.6
	c0.2-0.8,0.7-1.5,1.7-1.5c0.8,0,1.4,0.5,1.4,1.3v0.2c0,0.9-0.5,1.5-1.5,2.4l-3.1,2.7v1.7h6.8V124.4z M220.3,126.2
	c0.8,0,1.1-0.4,1.1-1v-0.3c0-0.6-0.3-1-1.1-1c-0.8,0-1.1,0.4-1.1,1v0.3C219.2,125.7,219.5,126.2,220.3,126.2z"/>
<path d="M192.3,144.2c1.6,0,2.8-0.9,3.4-2.2l-0.9-0.6c-0.4,1.1-1.2,1.8-2.5,1.8c-1.7,0-2.7-1.2-2.7-3.2v-1.5c0-2,1-3.3,2.7-3.3
	c1.2,0,2,0.7,2.4,1.7l1-0.6c-0.6-1.4-1.7-2.1-3.4-2.1c-2.5,0-3.9,1.8-3.9,5.1C188.4,142.4,189.9,144.2,192.3,144.2z M198.7,144v-4.9
	c0-0.7,0.7-1.2,1.9-1.2h0.7v-1.1h-0.4c-1.2,0-1.8,0.6-2.1,1.3h-0.1v-1.3h-1.1v7.2H198.7z M205.6,144.2c1.4,0,2.4-0.7,2.9-1.7
	l-0.8-0.6c-0.4,0.8-1.1,1.2-2,1.2c-1.3,0-2.1-0.9-2.1-2.2v-0.3h5.2v-0.5c0-2-1.2-3.5-3.1-3.5c-2,0-3.2,1.5-3.2,3.8
	S203.6,144.2,205.6,144.2z M205.6,137.5c1.1,0,1.9,0.9,1.9,2.1v0.2h-4v-0.1C203.5,138.5,204.4,137.5,205.6,137.5z M216.6,144v-1
	h-0.8v-4c0-1.5-1-2.4-2.8-2.4c-1.3,0-2.2,0.6-2.6,1.4l0.7,0.6c0.4-0.7,1-1.1,1.8-1.1c1.1,0,1.7,0.6,1.7,1.6v0.7h-1.4
	c-2.1,0-3.1,0.8-3.1,2.1c0,1.3,0.9,2.2,2.4,2.2c1,0,1.8-0.5,2.1-1.3h0.1c0.1,0.7,0.4,1.2,1.2,1.2H216.6z M212.7,143.2
	c-0.9,0-1.4-0.4-1.4-1.1v-0.3c0-0.7,0.6-1.1,1.8-1.1h1.5v1.2C214.6,142.6,213.8,143.2,212.7,143.2z M221.3,144v-1h-1.5v-5.3h1.6v-1
	h-1.6v-2h-1v1.3c0,0.5-0.2,0.7-0.6,0.7h-0.7v1h1.2v5.1c0,0.7,0.4,1.2,1.2,1.2H221.3z M226.1,144.2c1.4,0,2.4-0.7,2.9-1.7l-0.8-0.6
	c-0.4,0.8-1.1,1.2-2,1.2c-1.3,0-2.1-0.9-2.1-2.2v-0.3h5.2v-0.5c0-2-1.2-3.5-3.1-3.5c-2,0-3.2,1.5-3.2,3.8S224.1,144.2,226.1,144.2z
	 M226.1,137.5c1.1,0,1.9,0.9,1.9,2.1v0.2h-4v-0.1C224,138.5,224.9,137.5,226.1,137.5z M240.5,144v-1h-0.8v-4c0-1.5-1-2.4-2.8-2.4
	c-1.3,0-2.2,0.6-2.6,1.4l0.7,0.6c0.4-0.7,1-1.1,1.8-1.1c1.1,0,1.7,0.6,1.7,1.6v0.7h-1.4c-2.1,0-3.1,0.8-3.1,2.1
	c0,1.3,0.9,2.2,2.4,2.2c1,0,1.8-0.5,2.1-1.3h0.1c0.1,0.7,0.4,1.2,1.2,1.2H240.5z M236.7,143.2c-0.9,0-1.4-0.4-1.4-1.1v-0.3
	c0-0.7,0.6-1.1,1.8-1.1h1.5v1.2C238.6,142.6,237.8,143.2,236.7,143.2z M193.6,162v-1h-1.1v-9.4h-1.1v9.2c0,0.7,0.4,1.2,1.2,1.2
	H193.6z M198.1,162.2c1.9,0,3.3-1.5,3.3-3.8s-1.3-3.8-3.3-3.8c-1.9,0-3.3,1.5-3.3,3.8S196.1,162.2,198.1,162.2z M198.1,161.2
	c-1.2,0-2.1-0.7-2.1-2.3v-1c0-1.5,0.9-2.3,2.1-2.3s2.1,0.7,2.1,2.3v1C200.1,160.4,199.3,161.2,198.1,161.2z M206,162.2
	c1.4,0,2.3-0.7,2.8-1.7l-0.8-0.5c-0.4,0.8-1.1,1.3-2,1.3c-1.3,0-2-0.9-2-2.2v-1.2c0-1.3,0.7-2.2,2-2.2c0.9,0,1.5,0.4,1.8,1.2
	l0.9-0.5c-0.4-1-1.3-1.7-2.7-1.7c-2,0-3.2,1.5-3.2,3.8S204,162.2,206,162.2z M216.4,162v-1h-0.8v-4c0-1.5-1-2.4-2.8-2.4
	c-1.3,0-2.2,0.6-2.6,1.4l0.7,0.6c0.4-0.7,1-1.1,1.8-1.1c1.1,0,1.7,0.6,1.7,1.6v0.7H213c-2.1,0-3.1,0.8-3.1,2.1
	c0,1.3,0.9,2.2,2.4,2.2c1,0,1.8-0.5,2.1-1.3h0.1c0.1,0.7,0.4,1.2,1.2,1.2H216.4z M212.6,161.2c-0.9,0-1.4-0.4-1.4-1.1v-0.3
	c0-0.7,0.6-1.1,1.8-1.1h1.5v1.2C214.5,160.6,213.7,161.2,212.6,161.2z M221.2,162v-1h-1.5v-5.3h1.6v-1h-1.6v-2h-1v1.3
	c0,0.5-0.2,0.7-0.6,0.7h-0.7v1h1.2v5.1c0,0.7,0.4,1.2,1.2,1.2H221.2z M223.8,153.1c0.5,0,0.7-0.3,0.7-0.6v-0.2
	c0-0.4-0.2-0.6-0.7-0.6c-0.5,0-0.7,0.3-0.7,0.6v0.2C223.1,152.8,223.3,153.1,223.8,153.1z M223.2,162h1.1v-7.2h-1.1V162z
	 M229.6,162.2c1.9,0,3.3-1.5,3.3-3.8s-1.3-3.8-3.3-3.8c-1.9,0-3.3,1.5-3.3,3.8S227.7,162.2,229.6,162.2z M229.6,161.2
	c-1.2,0-2.1-0.7-2.1-2.3v-1c0-1.5,0.9-2.3,2.1-2.3c1.2,0,2.1,0.7,2.1,2.3v1C231.7,160.4,230.8,161.2,229.6,161.2z M236,162v-5
	c0-0.9,0.9-1.4,1.8-1.4c1.1,0,1.6,0.7,1.6,1.9v4.4h1.1v-4.6c0-1.8-0.9-2.8-2.4-2.8c-1.1,0-1.7,0.5-2,1.3H236v-1.2h-1.1v7.2H236z"/>
<path class="st4" d="M60,68.5h64c6.4,0,11.5,5.1,11.5,11.5l0,0c0,6.4-5.1,11.5-11.5,11.5H60c-6.4,0-11.5-5.1-11.5-11.5l0,0
	C48.5,73.6,53.6,68.5,60,68.5z"/>
<path class="st5" d="M58.1,84v-3.8h3.6v-0.9h-3.6v-2.8h4v-0.9h-5V84H58.1z M64.8,84v-4.2c0-0.6,0.6-1,1.7-1H67v-1h-0.4
	c-1,0-1.6,0.6-1.8,1.1h-0.1v-1.1h-1V84H64.8z M70.8,84.1c1.7,0,2.8-1.3,2.8-3.2s-1.1-3.2-2.8-3.2S68,78.9,68,80.9
	S69.2,84.1,70.8,84.1z M70.8,83.3c-1,0-1.8-0.6-1.8-1.9v-0.9c0-1.3,0.7-1.9,1.8-1.9s1.8,0.6,1.8,1.9v0.9
	C72.6,82.7,71.8,83.3,70.8,83.3z M76.5,84v-4.3c0-0.8,0.7-1.2,1.5-1.2c0.9,0,1.3,0.6,1.3,1.7V84h1v-4.3c0-0.8,0.7-1.2,1.5-1.2
	c0.9,0,1.4,0.6,1.4,1.7V84h1v-4c0-1.5-0.8-2.4-2-2.4c-1.1,0-1.7,0.6-1.9,1.3h0c-0.3-0.9-1.1-1.3-1.9-1.3c-1,0-1.4,0.5-1.7,1.2h0v-1
	h-1V84H76.5z M91.3,84.1c1.4,0,2.3-0.7,2.3-1.9c0-0.9-0.5-1.5-1.9-1.7l-0.5-0.1c-0.8-0.1-1.2-0.4-1.2-1c0-0.6,0.4-1,1.2-1
	s1.3,0.4,1.6,0.8l0.6-0.6c-0.5-0.6-1.2-1-2.2-1c-1.3,0-2.2,0.6-2.2,1.8c0,1.2,0.9,1.6,2,1.8l0.5,0.1c0.8,0.1,1.1,0.5,1.1,1
	c0,0.6-0.5,1-1.3,1c-0.8,0-1.4-0.3-1.8-0.9l-0.7,0.6C89.4,83.7,90.2,84.1,91.3,84.1z M98.1,84v-0.8h-1.3v-4.5h1.4v-0.8h-1.4v-1.7H96
	v1.2c0,0.4-0.1,0.6-0.5,0.6h-0.6v0.8h1V83c0,0.6,0.4,1,1,1H98.1z M102.4,84.1c1.2,0,2.1-0.6,2.4-1.4l-0.7-0.5
	c-0.3,0.7-0.9,1.1-1.7,1.1c-1.2,0-1.8-0.8-1.8-1.9v-0.3h4.5v-0.5c0-1.8-1-3-2.7-3c-1.7,0-2.8,1.3-2.8,3.2S100.7,84.1,102.4,84.1z
	 M102.4,78.5c1,0,1.6,0.7,1.6,1.8v0.1h-3.4v-0.1C100.6,79.3,101.3,78.5,102.4,78.5z M106.9,86.4h1V83h0c0.4,0.8,1,1.2,1.8,1.2
	c1.5,0,2.5-1.3,2.5-3.2c0-2-1-3.2-2.5-3.2c-0.9,0-1.5,0.4-1.8,1.2h0v-1h-1V86.4z M109.5,83.3c-0.9,0-1.6-0.5-1.6-1.3v-2.3
	c0-0.7,0.7-1.2,1.6-1.2c1.1,0,1.8,0.7,1.8,1.8v1.1C111.2,82.5,110.6,83.3,109.5,83.3z M122.9,84v-0.9h-2.2v-7.5h-1.6l-2.2,2.1
	l0.6,0.6l2.1-2h0.1v6.7h-2.3V84H122.9z M125.5,84.1c0.5,0,0.7-0.3,0.7-0.7v-0.2c0-0.4-0.2-0.7-0.7-0.7s-0.7,0.3-0.7,0.7v0.2
	C124.8,83.9,125,84.1,125.5,84.1z"/>
<path class="st6" d="M60,68.5h64c6.4,0,11.5,5.1,11.5,11.5l0,0c0,6.4-5.1,11.5-11.5,11.5H60c-6.4,0-11.5-5.1-11.5-11.5l0,0
	C48.5,73.6,53.6,68.5,60,68.5z"/>
<rect x="240.5" y="328.5" class="st4" width="207" height="47"/>
<path class="st7" d="M244,328h-4v48h4V328z"/>
<path d="M261,357.2c1.8,0,2.9-0.9,3.6-2.3l-1.5-0.9c-0.3,0.9-1,1.6-2.1,1.6c-1.4,0-2.3-1-2.3-2.6v-1.5c0-1.7,0.9-2.7,2.3-2.7
	c1.1,0,1.7,0.6,2,1.5l1.6-0.8c-0.7-1.5-1.8-2.3-3.6-2.3c-2.6,0-4.2,1.8-4.2,5.1C256.7,355.5,258.4,357.2,261,357.2z M272,357v-1.6
	h-3.9v-8.1h-1.8v9.8H272z M277.8,357v-1.5h-1.3v-6.8h1.3v-1.5h-4.4v1.5h1.3v6.8h-1.3v1.5H277.8z"/>
<rect x="240.5" y="328.5" class="st8" width="207" height="47"/>
<rect x="240.5" y="392.5" class="st4" width="207" height="47"/>
<path class="st7" d="M244,392h-4v48h4V392z"/>
<path d="M263.4,421h1.6v-5.3h-3.7v1.6h1.9v0.6c0,1.1-0.9,1.7-2.1,1.7c-1.5,0-2.4-0.9-2.4-2.6v-1.6c0-1.7,1-2.6,2.4-2.6
	c1.2,0,1.8,0.6,2.2,1.5l1.5-0.9c-0.7-1.4-2-2.2-3.7-2.2c-2.6,0-4.4,1.8-4.4,5.1s1.7,5,4,5c1.5,0,2.4-0.7,2.6-1.7h0.1V421z
	 M267.2,411.2v5.8c0,2.9,1,4.2,3.7,4.2c2.7,0,3.8-1.3,3.8-4.2v-5.8h-1.8v6c0,1.5-0.5,2.3-1.9,2.3s-1.9-0.8-1.9-2.3v-6H267.2z
	 M281.1,421v-1.5h-1.3v-6.8h1.3v-1.5h-4.4v1.5h1.3v6.8h-1.3v1.5H281.1z"/>
<rect x="240.5" y="392.5" class="st8" width="207" height="47"/>
<rect x="520.5" y="328.5" class="st4" width="207" height="47"/>
<path class="st7" d="M524,328h-4v48h4V328z"/>
<path d="M537.2,357h1.8v-7h0.1l0.8,1.6l2,3.7l2-3.7l0.8-1.6h0.1v7h1.8v-9.8h-2l-2.5,4.8h-0.1l-2.5-4.8h-2.1V357z M550.4,357.2
	c1.1,0,1.9-0.5,2.1-1.4h0.1c0.1,0.8,0.6,1.3,1.4,1.3h1v-1.4h-0.7v-3.4c0-1.7-1.1-2.6-3-2.6c-1.5,0-2.3,0.6-2.9,1.4l1.1,1
	c0.4-0.5,0.8-0.9,1.7-0.9c1,0,1.4,0.5,1.4,1.3v0.5h-1.2c-2,0-3.1,0.7-3.1,2.2C548.1,356.3,549,357.2,550.4,357.2z M551,355.9
	c-0.7,0-1.1-0.3-1.1-0.9v-0.2c0-0.6,0.5-0.9,1.4-0.9h1.1v1C552.5,355.5,551.8,355.9,551,355.9z M558.4,357v-4.8
	c0-0.8,0.7-1.2,1.5-1.2c0.9,0,1.2,0.5,1.2,1.6v4.4h1.8v-4.6c0-1.8-0.8-2.9-2.3-2.9c-1.1,0-1.8,0.6-2,1.4h-0.1v-1.2h-1.8v7.3H558.4z
	 M569.4,357h1.8v-7.3h-1.8v4.8c0,0.8-0.7,1.2-1.4,1.2c-0.9,0-1.2-0.5-1.2-1.6v-4.4h-1.8v4.6c0,1.8,0.8,2.9,2.3,2.9
	c1.2,0,1.8-0.7,2-1.4h0.1V357z M575.2,357.2c1.1,0,1.9-0.5,2.1-1.4h0.1c0.1,0.8,0.6,1.3,1.4,1.3h1v-1.4H579v-3.4c0-1.7-1-2.6-3-2.6
	c-1.5,0-2.3,0.6-2.9,1.4l1.1,1c0.3-0.5,0.8-0.9,1.7-0.9c1,0,1.4,0.5,1.4,1.3v0.5H576c-2,0-3.1,0.7-3.1,2.2
	C572.9,356.3,573.7,357.2,575.2,357.2z M575.8,355.9c-0.7,0-1.1-0.3-1.1-0.9v-0.2c0-0.6,0.5-0.9,1.4-0.9h1.1v1
	C577.2,355.5,576.6,355.9,575.8,355.9z M584.1,357v-1.4h-1v-8.9h-1.8v8.6c0,1.1,0.6,1.8,1.8,1.8H584.1z"/>
<rect x="520.5" y="328.5" class="st8" width="207" height="47"/>
<rect x="520.5" y="392.5" class="st4" width="207" height="47"/>
<path class="st7" d="M524,392h-4v48h4V392z"/>
<path d="M543.8,412.9v-1.6h-7.4v1.6h2.8v8.1h1.8v-8.1H543.8z M547.4,421.2c1.4,0,2.4-0.5,3-1.3l-1-1.1c-0.4,0.6-1,1-1.9,1
	c-1.2,0-1.8-0.7-1.8-1.8v-0.2h4.9v-0.6c0-2-1-3.7-3.3-3.7c-2.1,0-3.4,1.5-3.4,3.8C543.9,419.7,545.2,421.2,547.4,421.2z
	 M547.3,414.9c0.9,0,1.4,0.7,1.4,1.7v0.1h-3v-0.1C545.8,415.6,546.4,414.9,547.3,414.9z M554.2,421v-4.8c0-0.8,0.7-1.2,1.4-1.2
	c0.8,0,1.2,0.5,1.2,1.6v4.4h1.8v-4.8c0-0.8,0.7-1.2,1.4-1.2c0.8,0,1.2,0.5,1.2,1.6v4.4h1.8v-4.6c0-1.8-0.8-2.9-2.2-2.9
	c-1.2,0-2,0.7-2.2,1.5h0c-0.4-1-1.1-1.5-2.1-1.5c-1.1,0-1.7,0.6-2,1.4h-0.1v-1.2h-1.8v7.3H554.2z M565,423.8h1.8v-4h0.1
	c0.3,0.8,1.1,1.4,2,1.4c1.8,0,2.9-1.4,2.9-3.8c0-2.4-1-3.8-2.9-3.8c-1,0-1.8,0.5-2,1.4h-0.1v-1.2H565V423.8z M568.3,419.7
	c-0.9,0-1.5-0.4-1.5-1.2v-2.3c0-0.7,0.6-1.2,1.5-1.2c0.9,0,1.6,0.7,1.6,1.7v1.3C569.8,419,569.2,419.7,568.3,419.7z M576.3,421v-1.4
	h-1v-8.9h-1.8v8.6c0,1.1,0.6,1.8,1.8,1.8H576.3z M579.6,421.2c1.1,0,1.9-0.5,2.1-1.4h0.1c0.1,0.8,0.6,1.3,1.4,1.3h1v-1.4h-0.7v-3.4
	c0-1.7-1-2.6-3-2.6c-1.5,0-2.3,0.6-2.9,1.4l1.1,1c0.3-0.5,0.8-0.9,1.7-0.9c1,0,1.4,0.5,1.4,1.3v0.5h-1.2c-2,0-3.1,0.7-3.1,2.2
	C577.3,420.3,578.1,421.2,579.6,421.2z M580.2,419.9c-0.7,0-1.1-0.3-1.1-0.9v-0.2c0-0.6,0.5-0.9,1.4-0.9h1.1v1
	C581.6,419.5,581,419.9,580.2,419.9z M588,421h1.3v-1.4h-1.4v-4.5h1.5v-1.4h-1.5v-2h-1.6v1.2c0,0.5-0.2,0.8-0.7,0.8H585v1.4h1.1v4
	C586.1,420.3,586.8,421,588,421z M594,421.2c1.4,0,2.4-0.5,3-1.3l-1-1.1c-0.4,0.6-1,1-1.9,1c-1.2,0-1.8-0.7-1.8-1.8v-0.2h4.9v-0.6
	c0-2-1-3.7-3.3-3.7c-2.1,0-3.4,1.5-3.4,3.8C590.6,419.7,591.9,421.2,594,421.2z M594,414.9c0.9,0,1.4,0.7,1.4,1.7v0.1h-3v-0.1
	C592.4,415.6,593,414.9,594,414.9z M602.9,417.6v-1.8h-4v1.8H602.9z M609.6,421h1.8v-10.4h-1.8v4.3h-0.1c-0.3-0.8-1.1-1.4-2-1.4
	c-1.8,0-2.9,1.4-2.9,3.8c0,2.5,1,3.8,2.9,3.8c1,0,1.8-0.6,2-1.4h0.1V421z M608.1,419.7c-0.9,0-1.6-0.7-1.6-1.7v-1.3
	c0-1,0.6-1.7,1.6-1.7c0.9,0,1.5,0.5,1.5,1.2v2.3C609.6,419.2,609,419.7,608.1,419.7z M615.4,421v-4.5c0-0.8,0.6-1.1,1.8-1.1h0.6
	v-1.7h-0.4c-1.2,0-1.8,0.7-1.9,1.5h-0.1v-1.5h-1.8v7.3H615.4z M620.2,412.6c0.7,0,1-0.4,1-0.9v-0.3c0-0.5-0.3-0.9-1-0.9
	c-0.7,0-1,0.4-1,0.9v0.3C619.2,412.2,619.5,412.6,620.2,412.6z M619.3,421h1.8v-7.3h-1.8V421z M627,421l2.5-7.3h-1.7l-1,3.2
	l-0.7,2.6H626l-0.7-2.6l-1-3.2h-1.8l2.4,7.3H627z M633.7,421.2c1.4,0,2.4-0.5,3-1.3l-1-1.1c-0.4,0.6-1,1-1.9,1
	c-1.2,0-1.8-0.7-1.8-1.8v-0.2h4.9v-0.6c0-2-1-3.7-3.3-3.7c-2.1,0-3.4,1.5-3.4,3.8C630.2,419.7,631.5,421.2,633.7,421.2z
	 M633.7,414.9c0.9,0,1.4,0.7,1.4,1.7v0.1h-3v-0.1C632.1,415.6,632.7,414.9,633.7,414.9z M640.5,421v-4.8c0-0.8,0.7-1.2,1.5-1.2
	c0.9,0,1.2,0.5,1.2,1.6v4.4h1.8v-4.6c0-1.8-0.8-2.9-2.3-2.9c-1.1,0-1.8,0.6-2,1.4h-0.1v-1.2h-1.8v7.3H640.5z"/>
<rect x="520.5" y="392.5" class="st8" width="207" height="47"/>
<path class="st9" d="M337.1,225.8l21.2,21.2c0.6,0.6,0.6,1.5,0,2.1l-21.2,21.2c-0.6,0.6-1.5,0.6-2.1,0l-21.2-21.2
	c-0.6-0.6-0.6-1.5,0-2.1l21.2-21.2C335.5,225.2,336.5,225.2,337.1,225.8z"/>
<path d="M336,239.2c-1.7,0-3.4,0.5-4.9,1.5c-1.4,1-2.6,2.3-3.2,3.9c-0.7,1.6-0.8,3.4-0.5,5.1c0.3,1.7,1.2,3.3,2.4,4.5
	c1.2,1.2,2.8,2.1,4.5,2.4c1.7,0.3,3.5,0.2,5.1-0.5c1.6-0.7,3-1.8,3.9-3.2c1-1.4,1.5-3.1,1.5-4.9c0-2.3-0.9-4.5-2.6-6.2
	C340.6,240.2,338.3,239.2,336,239.2z M336,255.5c-1.5,0-2.9-0.4-4.2-1.3c-1.2-0.8-2.2-2-2.8-3.4c-0.6-1.4-0.7-2.9-0.4-4.3
	s1-2.8,2.1-3.8c1-1,2.4-1.8,3.8-2.1c1.5-0.3,3-0.1,4.3,0.4c1.4,0.6,2.5,1.5,3.4,2.8c0.8,1.2,1.3,2.7,1.3,4.2c0,2-0.8,3.9-2.2,5.3
	C339.9,254.7,338,255.5,336,255.5z"/>
<path d="M336,253.6c0.5,0,0.9-0.4,0.9-0.9c0-0.5-0.4-0.9-0.9-0.9s-0.9,0.4-0.9,0.9C335.1,253.2,335.5,253.6,336,253.6z"/>
<path d="M336.6,243h-0.9c-0.4,0-0.7,0.1-1.1,0.2c-0.3,0.1-0.7,0.3-0.9,0.6c-0.3,0.3-0.5,0.6-0.6,0.9c-0.1,0.3-0.2,0.7-0.2,1.1v0.3
	h1.2v-0.3c0-0.4,0.2-0.8,0.5-1.1c0.3-0.3,0.7-0.5,1.1-0.5h0.9c0.4,0,0.8,0.2,1.1,0.5c0.3,0.3,0.5,0.7,0.5,1.1c0,0.4-0.2,0.8-0.5,1.1
	c-0.3,0.3-0.7,0.5-1.1,0.5h-1.2v2.8h1.2v-1.6c0.7,0,1.5-0.3,2-0.8c0.5-0.5,0.8-1.2,0.8-2c0-0.7-0.3-1.5-0.8-2
	C338.1,243.3,337.4,243,336.6,243z"/>
<path d="M321.9,284.2v5.8c0,2.9,1,4.2,3.7,4.2c2.7,0,3.8-1.3,3.8-4.2v-5.8h-1.8v6c0,1.5-0.5,2.3-1.9,2.3s-1.9-0.8-1.9-2.3v-6H321.9z
	 M334,294.2c1.8,0,3-1,3-2.4c0-1.2-0.8-1.9-2.4-2.2l-0.7-0.1c-0.7-0.1-1-0.3-1-0.8c0-0.4,0.3-0.8,1.1-0.8c0.7,0,1.3,0.3,1.8,0.8
	l1.1-1c-0.7-0.7-1.4-1.1-2.9-1.1c-1.7,0-2.8,0.9-2.8,2.3c0,1.3,0.9,2,2.4,2.2l0.7,0.1c0.6,0.1,0.9,0.3,0.9,0.8
	c0,0.5-0.4,0.8-1.2,0.8c-0.8,0-1.5-0.4-2-1l-1.1,1.1C331.8,293.7,332.7,294.2,334,294.2z M341.8,294.2c1.4,0,2.4-0.5,3-1.3l-1-1.1
	c-0.4,0.6-1,1-1.9,1c-1.2,0-1.8-0.7-1.8-1.8v-0.2h4.9v-0.6c0-2-1-3.7-3.3-3.7c-2.1,0-3.4,1.5-3.4,3.8
	C338.3,292.7,339.6,294.2,341.8,294.2z M341.7,287.9c0.9,0,1.4,0.7,1.4,1.7v0.1h-3v-0.1C340.2,288.6,340.8,287.9,341.7,287.9z
	 M348.6,294v-4.5c0-0.8,0.6-1.1,1.8-1.1h0.6v-1.7h-0.4c-1.2,0-1.8,0.7-1.9,1.5h-0.1v-1.5h-1.8v7.3H348.6z M308.1,303.6
	c0.7,0,1-0.4,1-0.9v-0.3c0-0.5-0.3-0.9-1-0.9c-0.7,0-1,0.4-1,0.9v0.3C307.1,303.2,307.4,303.6,308.1,303.6z M307.2,312h1.8v-7.3
	h-1.8V312z M313.1,312v-4.8c0-0.8,0.7-1.2,1.5-1.2c0.9,0,1.2,0.5,1.2,1.6v4.4h1.8v-4.6c0-1.8-0.8-2.9-2.3-2.9c-1.1,0-1.8,0.6-2,1.4
	h-0.1v-1.2h-1.8v7.3H313.1z M321.9,312h1.3v-1.4h-1.4v-4.5h1.5v-1.4h-1.5v-2h-1.6v1.2c0,0.5-0.2,0.8-0.7,0.8H319v1.4h1.1v4
	C320.1,311.3,320.7,312,321.9,312z M328,312.2c1.4,0,2.4-0.5,3-1.3l-1-1.1c-0.4,0.6-1,1-1.9,1c-1.2,0-1.8-0.7-1.8-1.8v-0.2h4.9v-0.6
	c0-2-1-3.7-3.3-3.7c-2.1,0-3.4,1.5-3.4,3.8C324.5,310.7,325.8,312.2,328,312.2z M327.9,305.9c0.9,0,1.4,0.7,1.4,1.7v0.1h-3v-0.1
	C326.4,306.6,327,305.9,327.9,305.9z M334.8,312v-4.5c0-0.8,0.6-1.1,1.8-1.1h0.6v-1.7h-0.4c-1.2,0-1.8,0.7-1.9,1.5h-0.1v-1.5H333
	v7.3H334.8z M339.1,312h1.8v-5.9h1.5v-1.4h-1.5v-1.6h1.5v-1.4h-1.3c-1.3,0-2,0.7-2,2v1H338v1.4h1.1V312z M345.6,312.2
	c1.1,0,1.9-0.5,2.1-1.4h0.1c0.1,0.8,0.6,1.3,1.4,1.3h1v-1.4h-0.7v-3.4c0-1.7-1.1-2.6-3-2.6c-1.5,0-2.3,0.6-2.9,1.4l1.1,1
	c0.4-0.5,0.8-0.9,1.7-0.9c1,0,1.4,0.5,1.4,1.3v0.5h-1.2c-2,0-3.1,0.7-3.1,2.2C343.3,311.3,344.1,312.2,345.6,312.2z M346.2,310.9
	c-0.7,0-1.1-0.3-1.1-0.9v-0.2c0-0.6,0.5-0.9,1.4-0.9h1.1v1C347.6,310.5,347,310.9,346.2,310.9z M354.7,312.2c1.4,0,2.4-0.6,2.9-1.9
	l-1.4-0.7c-0.3,0.7-0.7,1.1-1.5,1.1c-1,0-1.5-0.7-1.5-1.7v-1.3c0-1,0.5-1.7,1.5-1.7c0.8,0,1.2,0.4,1.4,1.1l1.5-0.7
	c-0.4-1.1-1.4-1.8-2.9-1.8c-2.2,0-3.4,1.5-3.4,3.8C351.3,310.7,352.5,312.2,354.7,312.2z M362,312.2c1.4,0,2.4-0.5,3-1.3l-1-1.1
	c-0.4,0.6-1,1-1.9,1c-1.2,0-1.8-0.7-1.8-1.8v-0.2h4.9v-0.6c0-2-1.1-3.7-3.3-3.7c-2.1,0-3.4,1.5-3.4,3.8
	C358.5,310.7,359.8,312.2,362,312.2z M362,305.9c0.9,0,1.4,0.7,1.4,1.7v0.1h-3v-0.1C360.4,306.6,361,305.9,362,305.9z"/>
<path class="st10" d="M617.1,225.8l21.2,21.2c0.6,0.6,0.6,1.5,0,2.1l-21.2,21.2c-0.6,0.6-1.5,0.6-2.1,0l-21.2-21.2
	c-0.6-0.6-0.6-1.5,0-2.1l21.2-21.2C615.5,225.2,616.5,225.2,617.1,225.8z"/>
<path d="M616.5,239.2c-1.7,0-3.4,0.5-4.9,1.5c-1.4,1-2.6,2.3-3.2,3.9c-0.7,1.6-0.8,3.4-0.5,5.1c0.3,1.7,1.2,3.3,2.4,4.5
	c1.2,1.2,2.8,2.1,4.5,2.4c1.7,0.3,3.5,0.2,5.1-0.5c1.6-0.7,3-1.8,3.9-3.2c1-1.4,1.5-3.1,1.5-4.9c0-2.3-0.9-4.5-2.6-6.2
	C621.1,240.2,618.8,239.2,616.5,239.2z M616.5,255.5c-1.5,0-2.9-0.4-4.2-1.3c-1.2-0.8-2.2-2-2.8-3.4c-0.6-1.4-0.7-2.9-0.4-4.3
	s1-2.8,2.1-3.8c1-1,2.4-1.8,3.8-2.1c1.5-0.3,3-0.1,4.3,0.4c1.4,0.6,2.5,1.5,3.4,2.8c0.8,1.2,1.3,2.7,1.3,4.2c0,2-0.8,3.9-2.2,5.3
	C620.4,254.7,618.5,255.5,616.5,255.5z"/>
<path d="M616.5,253.6c0.5,0,0.9-0.4,0.9-0.9c0-0.5-0.4-0.9-0.9-0.9s-0.9,0.4-0.9,0.9C615.6,253.2,616,253.6,616.5,253.6z"/>
<path d="M617.1,243h-0.9c-0.4,0-0.7,0.1-1.1,0.2c-0.3,0.1-0.7,0.3-0.9,0.6c-0.3,0.3-0.5,0.6-0.6,0.9c-0.1,0.3-0.2,0.7-0.2,1.1v0.3
	h1.2v-0.3c0-0.4,0.2-0.8,0.5-1.1c0.3-0.3,0.7-0.5,1.1-0.5h0.9c0.4,0,0.8,0.2,1.1,0.5c0.3,0.3,0.5,0.7,0.5,1.1c0,0.4-0.2,0.8-0.5,1.1
	c-0.3,0.3-0.7,0.5-1.1,0.5h-1.2v2.8h1.2v-1.6c0.7,0,1.5-0.3,2-0.8c0.5-0.5,0.8-1.2,0.8-2c0-0.7-0.3-1.5-0.8-2
	C618.6,243.3,617.9,243,617.1,243z"/>
<path d="M592.8,294.2c1.8,0,2.9-0.9,3.6-2.3l-1.5-0.9c-0.3,0.9-1,1.6-2.1,1.6c-1.4,0-2.3-1-2.3-2.6v-1.5c0-1.7,0.9-2.7,2.3-2.7
	c1.1,0,1.7,0.6,2,1.5l1.6-0.8c-0.7-1.5-1.8-2.3-3.6-2.3c-2.6,0-4.2,1.8-4.2,5.1C588.6,292.5,590.2,294.2,592.8,294.2z M599.8,294
	v-4.5c0-0.8,0.6-1.1,1.8-1.1h0.6v-1.7h-0.4c-1.2,0-1.8,0.7-1.9,1.5h-0.1v-1.5H598v7.3H599.8z M606.6,294.2c1.4,0,2.4-0.5,3-1.3
	l-1-1.1c-0.4,0.6-1,1-1.9,1c-1.2,0-1.8-0.7-1.8-1.8v-0.2h4.9v-0.6c0-2-1.1-3.7-3.3-3.7c-2.1,0-3.4,1.5-3.4,3.8
	C603.1,292.7,604.4,294.2,606.6,294.2z M606.5,287.9c0.9,0,1.4,0.7,1.4,1.7v0.1h-3v-0.1C605,288.6,605.6,287.9,606.5,287.9z
	 M613.4,294.2c1.1,0,1.9-0.5,2.1-1.4h0.1c0.1,0.8,0.6,1.3,1.4,1.3h1v-1.4h-0.7v-3.4c0-1.7-1-2.6-3-2.6c-1.5,0-2.3,0.6-2.9,1.4l1.1,1
	c0.3-0.5,0.8-0.9,1.7-0.9c1,0,1.4,0.5,1.4,1.3v0.5h-1.2c-2,0-3.1,0.7-3.1,2.2C611.1,293.3,611.9,294.2,613.4,294.2z M614,292.9
	c-0.7,0-1.1-0.3-1.1-0.9v-0.2c0-0.6,0.5-0.9,1.4-0.9h1.1v1C615.4,292.5,614.8,292.9,614,292.9z M621.8,294h1.3v-1.4h-1.4v-4.5h1.5
	v-1.4h-1.5v-2h-1.6v1.2c0,0.5-0.2,0.8-0.7,0.8h-0.6v1.4h1.1v4C619.9,293.3,620.6,294,621.8,294z M625.8,285.6c0.7,0,1-0.4,1-0.9
	v-0.3c0-0.5-0.3-0.9-1-0.9c-0.7,0-1,0.4-1,0.9v0.3C624.7,285.2,625.1,285.6,625.8,285.6z M624.9,294h1.8v-7.3h-1.8V294z
	 M631.8,294.2c2.1,0,3.4-1.5,3.4-3.8c0-2.3-1.3-3.8-3.4-3.8c-2.1,0-3.4,1.5-3.4,3.8C628.4,292.7,629.7,294.2,631.8,294.2z
	 M631.8,292.7c-0.9,0-1.5-0.6-1.5-1.7v-1.4c0-1.1,0.6-1.7,1.5-1.7c0.9,0,1.5,0.6,1.5,1.7v1.4C633.4,292.1,632.8,292.7,631.8,292.7z
	 M638.8,294v-4.8c0-0.8,0.7-1.2,1.5-1.2c0.9,0,1.2,0.5,1.2,1.6v4.4h1.8v-4.6c0-1.8-0.8-2.9-2.3-2.9c-1.1,0-1.8,0.6-2,1.4h-0.1v-1.2
	H637v7.3H638.8z M593.4,312v-4.8c0-0.8,0.7-1.2,1.4-1.2c0.8,0,1.2,0.5,1.2,1.6v4.4h1.8v-4.8c0-0.8,0.7-1.2,1.4-1.2
	c0.8,0,1.2,0.5,1.2,1.6v4.4h1.8v-4.6c0-1.8-0.8-2.9-2.2-2.9c-1.2,0-2,0.7-2.2,1.5h0c-0.4-1-1.1-1.5-2.1-1.5c-1.1,0-1.7,0.6-2,1.4
	h-0.1v-1.2h-1.8v7.3H593.4z M607.2,312.2c1.4,0,2.4-0.5,3-1.3l-1-1.1c-0.4,0.6-1,1-1.9,1c-1.2,0-1.8-0.7-1.8-1.8v-0.2h4.9v-0.6
	c0-2-1-3.7-3.3-3.7c-2.1,0-3.4,1.5-3.4,3.8C603.7,310.7,605,312.2,607.2,312.2z M607.2,305.9c0.9,0,1.4,0.7,1.4,1.7v0.1h-3v-0.1
	C605.6,306.6,606.2,305.9,607.2,305.9z M614.5,312h1.3v-1.4h-1.4v-4.5h1.5v-1.4h-1.5v-2h-1.6v1.2c0,0.5-0.2,0.8-0.7,0.8h-0.6v1.4
	h1.1v4C612.6,311.3,613.3,312,614.5,312z M617.6,312h1.8v-4.8c0-0.8,0.7-1.2,1.5-1.2c0.9,0,1.2,0.5,1.2,1.6v4.4h1.8v-4.6
	c0-1.8-0.8-2.9-2.3-2.9c-1.1,0-1.8,0.6-2,1.4h-0.1v-4.3h-1.8V312z M628.9,312.2c2.1,0,3.4-1.5,3.4-3.8c0-2.3-1.3-3.8-3.4-3.8
	c-2.1,0-3.4,1.5-3.4,3.8C625.5,310.7,626.8,312.2,628.9,312.2z M628.9,310.7c-0.9,0-1.5-0.6-1.5-1.7v-1.4c0-1.1,0.6-1.7,1.5-1.7
	c0.9,0,1.5,0.6,1.5,1.7v1.4C630.4,310.1,629.8,310.7,628.9,310.7z M638.6,312h1.8v-10.4h-1.8v4.3h-0.1c-0.3-0.8-1.1-1.4-2-1.4
	c-1.8,0-2.9,1.4-2.9,3.8c0,2.5,1,3.8,2.9,3.8c1,0,1.8-0.6,2-1.4h0.1V312z M637.1,310.7c-0.9,0-1.6-0.7-1.6-1.7v-1.3
	c0-1,0.6-1.7,1.6-1.7c0.9,0,1.5,0.5,1.5,1.2v2.3C638.6,310.2,637.9,310.7,637.1,310.7z"/>
<rect x="776.5" y="440.5" class="st4" width="207" height="127"/>
<rect x="776.5" y="440.5" class="st11" width="207" height="127"/>
<path class="st12" d="M792,504h168c4.4,0,8,3.6,8,8v32c0,4.4-3.6,8-8,8H792V504z"/>
<path class="st13" d="M796,504h-4v48h4V504z"/>
<path d="M814.8,533v-1.6H811v-8.1h-1.8v9.8H814.8z M819.3,533.2c2.1,0,3.4-1.5,3.4-3.8c0-2.3-1.3-3.8-3.4-3.8
	c-2.1,0-3.4,1.5-3.4,3.8C815.9,531.7,817.2,533.2,819.3,533.2z M819.3,531.7c-0.9,0-1.5-0.6-1.5-1.7v-1.4c0-1.1,0.6-1.7,1.5-1.7
	c0.9,0,1.5,0.6,1.5,1.7v1.4C820.8,531.1,820.2,531.7,819.3,531.7z M827.3,533.2c1.4,0,2.4-0.6,2.9-1.9l-1.4-0.7
	c-0.3,0.7-0.7,1.1-1.5,1.1c-1,0-1.5-0.7-1.5-1.7v-1.3c0-1,0.5-1.7,1.5-1.7c0.8,0,1.2,0.4,1.4,1.1l1.5-0.7c-0.4-1.1-1.4-1.8-2.9-1.8
	c-2.2,0-3.4,1.5-3.4,3.8C823.9,531.7,825.1,533.2,827.3,533.2z M833.6,533.2c1.1,0,1.9-0.5,2.1-1.4h0.1c0.1,0.8,0.6,1.3,1.4,1.3h1
	v-1.4h-0.7v-3.4c0-1.7-1-2.6-3-2.6c-1.5,0-2.3,0.6-2.9,1.4l1.1,1c0.3-0.5,0.8-0.9,1.7-0.9c1,0,1.4,0.5,1.4,1.3v0.5h-1.2
	c-2,0-3.1,0.7-3.1,2.2C831.2,532.3,832.1,533.2,833.6,533.2z M834.2,531.9c-0.7,0-1.1-0.3-1.1-0.9v-0.2c0-0.6,0.5-0.9,1.4-0.9h1.1v1
	C835.6,531.5,835,531.9,834.2,531.9z M842,533h1.3v-1.4h-1.4v-4.5h1.5v-1.4h-1.5v-2h-1.6v1.2c0,0.5-0.2,0.8-0.7,0.8H839v1.4h1.1v4
	C840.1,532.3,840.7,533,842,533z M846,524.6c0.7,0,1-0.4,1-0.9v-0.3c0-0.5-0.3-0.9-1-0.9c-0.7,0-1,0.4-1,0.9v0.3
	C844.9,524.2,845.2,524.6,846,524.6z M845.1,533h1.8v-7.3h-1.8V533z M852,533.2c2.1,0,3.4-1.5,3.4-3.8c0-2.3-1.3-3.8-3.4-3.8
	c-2.1,0-3.4,1.5-3.4,3.8C848.6,531.7,849.9,533.2,852,533.2z M852,531.7c-0.9,0-1.5-0.6-1.5-1.7v-1.4c0-1.1,0.6-1.7,1.5-1.7
	c0.9,0,1.5,0.6,1.5,1.7v1.4C853.5,531.1,852.9,531.7,852,531.7z M858.9,533v-4.8c0-0.8,0.7-1.2,1.5-1.2c0.9,0,1.2,0.5,1.2,1.6v4.4
	h1.8v-4.6c0-1.8-0.8-2.9-2.3-2.9c-1.1,0-1.8,0.6-2,1.4h-0.1v-1.2h-1.8v7.3H858.9z"/>
<path class="st13" d="M780,440h-4v48h4V440z"/>
<path d="M797.2,469v-1.5h-1.3v-6.8h1.3v-1.5h-4.4v1.5h1.3v6.8h-1.3v1.5H797.2z M800.9,469v-4.8c0-0.8,0.7-1.2,1.5-1.2
	c0.9,0,1.2,0.5,1.2,1.6v4.4h1.8v-4.6c0-1.8-0.8-2.9-2.3-2.9c-1.1,0-1.8,0.6-2,1.4h-0.1v-1.2h-1.8v7.3H800.9z M807.9,469h1.8v-5.9
	h1.5v-1.4h-1.5v-1.6h1.5v-1.4h-1.3c-1.3,0-2,0.7-2,2v1h-1.1v1.4h1.1V469z M814.4,469v-4.5c0-0.8,0.6-1.1,1.8-1.1h0.6v-1.7h-0.4
	c-1.2,0-1.8,0.7-1.9,1.5h-0.1v-1.5h-1.8v7.3H814.4z M819.9,469.2c1.1,0,1.9-0.5,2.1-1.4h0.1c0.1,0.8,0.6,1.3,1.4,1.3h1v-1.4h-0.7
	v-3.4c0-1.7-1-2.6-3-2.6c-1.5,0-2.3,0.6-2.9,1.4l1.1,1c0.3-0.5,0.8-0.9,1.7-0.9c1,0,1.4,0.5,1.4,1.3v0.5h-1.2c-2,0-3.1,0.7-3.1,2.2
	C817.5,468.3,818.4,469.2,819.9,469.2z M820.5,467.9c-0.7,0-1.1-0.3-1.1-0.9v-0.2c0-0.6,0.5-0.9,1.4-0.9h1.1v1
	C821.9,467.5,821.3,467.9,820.5,467.9z M828.4,469.2c1.8,0,3-1,3-2.4c0-1.2-0.8-1.9-2.4-2.2l-0.7-0.1c-0.7-0.1-1-0.3-1-0.8
	c0-0.4,0.3-0.8,1.1-0.8c0.7,0,1.3,0.3,1.8,0.8l1-1c-0.7-0.7-1.4-1.1-2.9-1.1c-1.7,0-2.8,0.9-2.8,2.3c0,1.3,0.9,2,2.4,2.2l0.7,0.1
	c0.6,0.1,0.9,0.3,0.9,0.8c0,0.5-0.4,0.8-1.2,0.8c-0.8,0-1.5-0.4-2-1l-1.1,1.1C826.1,468.7,827.1,469.2,828.4,469.2z M835.4,469h1.3
	v-1.4h-1.4v-4.5h1.5v-1.4h-1.5v-2h-1.6v1.2c0,0.5-0.2,0.8-0.7,0.8h-0.6v1.4h1.1v4C833.5,468.3,834.1,469,835.4,469z M840.3,469v-4.5
	c0-0.8,0.6-1.1,1.8-1.1h0.6v-1.7h-0.4c-1.2,0-1.8,0.7-1.9,1.5h-0.1v-1.5h-1.8v7.3H840.3z M848.5,469h1.8v-7.3h-1.8v4.8
	c0,0.8-0.7,1.2-1.4,1.2c-0.9,0-1.2-0.5-1.2-1.6v-4.4h-1.8v4.6c0,1.8,0.8,2.9,2.3,2.9c1.2,0,1.8-0.7,2-1.4h0.1V469z M855.4,469.2
	c1.4,0,2.4-0.6,2.9-1.9l-1.4-0.7c-0.3,0.7-0.7,1.1-1.5,1.1c-1,0-1.5-0.7-1.5-1.7v-1.3c0-1,0.5-1.7,1.5-1.7c0.8,0,1.2,0.4,1.4,1.1
	l1.5-0.7c-0.4-1.1-1.4-1.8-2.9-1.8c-2.2,0-3.4,1.5-3.4,3.8C852,467.7,853.3,469.2,855.4,469.2z M862.1,469h1.3v-1.4H862v-4.5h1.5
	v-1.4H862v-2h-1.6v1.2c0,0.5-0.2,0.8-0.7,0.8h-0.6v1.4h1.1v4C860.3,468.3,860.9,469,862.1,469z M869.6,469h1.8v-7.3h-1.8v4.8
	c0,0.8-0.7,1.2-1.4,1.2c-0.9,0-1.2-0.5-1.2-1.6v-4.4h-1.8v4.6c0,1.8,0.8,2.9,2.3,2.9c1.2,0,1.8-0.7,2-1.4h0.1V469z M875.4,469v-4.5
	c0-0.8,0.6-1.1,1.8-1.1h0.6v-1.7h-0.4c-1.2,0-1.8,0.7-1.9,1.5h-0.1v-1.5h-1.8v7.3H875.4z M882.2,469.2c1.4,0,2.4-0.5,3-1.3l-1-1.1
	c-0.4,0.6-1,1-1.9,1c-1.2,0-1.8-0.7-1.8-1.8v-0.2h4.9v-0.6c0-2-1-3.7-3.3-3.7c-2.1,0-3.4,1.5-3.4,3.8
	C878.7,467.7,880,469.2,882.2,469.2z M882.2,462.9c0.9,0,1.4,0.7,1.4,1.7v0.1h-3v-0.1C880.6,463.6,881.2,462.9,882.2,462.9z"/>
<defs>
	<filter id="Adobe_OpacityMaskFilter" filterUnits="userSpaceOnUse" x="776" y="439" width="209" height="49">
		<feColorMatrix  type="matrix" values="1 0 0 0 0  0 1 0 0 0  0 0 1 0 0  0 0 0 1 0"/>
	</filter>
</defs>
<mask maskUnits="userSpaceOnUse" x="776" y="439" width="209" height="49" id="path-34-inside-1_2755_22850_00000034072451336473625720000009367497330036037525_">
	<path class="st14" d="M776,440h208v48H776V440z"/>
</mask>
<path class="st15" d="M984,440h1v-1h-1V440z M776,441h208v-2H776V441z M983,440v48h2v-48H983z"/>
<path class="st16" d="M792,506v-2h2v1h-1v1H792z M798,504v1h4v-1H798z M806,504v1h4v-1H806z M814,504v1h4v-1H814z M822,504v1h4v-1
	H822z M830,504v1h4v-1H830z M838,504v1h4v-1H838z M846,504v1h4v-1H846z M854,504v1h4v-1H854z M862,504v1h4v-1H862z M870,504v1h4v-1
	H870z M878,504v1h4v-1H878z M886,504v1h4v-1H886z M894,504v1h4v-1H894z M902,504v1h4v-1H902z M910,504v1h4v-1H910z M918,504v1h4v-1
	H918z M926,504v1h4v-1H926z M934,504v1h4v-1H934z M942,504v1h4v-1H942z M950,504v1h4v-1H950z M958,504v1h2c0.5,0,0.9,0,1.4,0.1
	l0.2-1c-0.5-0.1-1-0.2-1.6-0.2H958z M964.4,505.3l-0.6,0.8c0.8,0.5,1.4,1.2,1.9,1.9l0.8-0.6C966.1,506.7,965.3,505.9,964.4,505.3z
	 M967.8,510.4l-1,0.2c0.1,0.4,0.1,0.9,0.1,1.4v2h1v-2C968,511.5,967.9,510.9,967.8,510.4z M968,518h-1v4h1V518z M968,526h-1v4h1V526
	z M968,534h-1v4h1V534z M968,542h-1v2c0,0.5,0,0.9-0.1,1.4l1,0.2c0.1-0.5,0.2-1,0.2-1.6V542z M966.7,548.4l-0.8-0.6
	c-0.5,0.8-1.2,1.4-1.9,1.9l0.6,0.8C965.3,550.1,966.1,549.3,966.7,548.4z M961.6,551.8l-0.2-1c-0.4,0.1-0.9,0.1-1.4,0.1h-2v1h2
	C960.5,552,961.1,551.9,961.6,551.8z M954,552v-1h-4v1H954z M946,552v-1h-4v1H946z M938,552v-1h-4v1H938z M930,552v-1h-4v1H930z
	 M922,552v-1h-4v1H922z M914,552v-1h-4v1H914z M906,552v-1h-4v1H906z M898,552v-1h-4v1H898z M890,552v-1h-4v1H890z M882,552v-1h-4v1
	H882z M874,552v-1h-4v1H874z M866,552v-1h-4v1H866z M858,552v-1h-4v1H858z M850,552v-1h-4v1H850z M842,552v-1h-4v1H842z M834,552v-1
	h-4v1H834z M826,552v-1h-4v1H826z M818,552v-1h-4v1H818z M810,552v-1h-4v1H810z M802,552v-1h-4v1H802z M794,552v-1h-1v-1h-1v2H794z
	 M792,546h1v-4h-1V546z M792,538h1v-4h-1V538z M792,530h1v-4h-1V530z M792,522h1v-4h-1V522z M792,514h1v-4h-1V514z"/>
<path class="st4" d="M976,168.5h48c6.4,0,11.5,5.1,11.5,11.5l0,0c0,6.4-5.1,11.5-11.5,11.5h-48c-6.4,0-11.5-5.1-11.5-11.5l0,0
	C964.5,173.6,969.6,168.5,976,168.5z"/>
<path class="st5" d="M978.6,176.5v-0.9h-6.3v0.9h2.7v7.5h1v-7.5H978.6z M981.8,184.1c1.7,0,2.8-1.3,2.8-3.2c0-2-1.1-3.2-2.8-3.2
	s-2.8,1.3-2.8,3.2C979,182.9,980.1,184.1,981.8,184.1z M981.8,183.3c-1,0-1.8-0.6-1.8-1.9v-0.9c0-1.3,0.7-1.9,1.8-1.9
	c1,0,1.8,0.6,1.8,1.9v0.9C983.5,182.7,982.8,183.3,981.8,183.3z M991.5,184.1c1.4,0,2.3-0.7,2.3-1.9c0-0.9-0.5-1.5-1.9-1.7l-0.5-0.1
	c-0.8-0.1-1.2-0.4-1.2-1c0-0.6,0.4-1,1.2-1c0.8,0,1.3,0.4,1.6,0.8l0.6-0.6c-0.5-0.6-1.2-1-2.2-1c-1.3,0-2.2,0.6-2.2,1.8
	c0,1.2,0.9,1.6,2,1.8l0.5,0.1c0.8,0.1,1.1,0.5,1.1,1c0,0.6-0.5,1-1.3,1c-0.8,0-1.4-0.3-1.8-0.9l-0.7,0.6
	C989.6,183.7,990.3,184.1,991.5,184.1z M998.3,184v-0.8H997v-4.5h1.4v-0.8H997v-1.7h-0.9v1.2c0,0.4-0.1,0.6-0.5,0.6H995v0.8h1v4.3
	c0,0.6,0.4,1,1,1H998.3z M1002.5,184.1c1.2,0,2-0.6,2.4-1.4l-0.7-0.5c-0.3,0.7-0.9,1.1-1.7,1.1c-1.2,0-1.8-0.8-1.8-1.9v-0.3h4.5
	v-0.5c0-1.8-1-3-2.7-3c-1.7,0-2.8,1.3-2.8,3.2C999.7,182.9,1000.8,184.1,1002.5,184.1z M1002.5,178.5c1,0,1.6,0.7,1.6,1.8v0.1h-3.4
	v-0.1C1000.7,179.3,1001.5,178.5,1002.5,178.5z M1007.1,186.4h1V183h0.1c0.4,0.8,1,1.2,1.8,1.2c1.5,0,2.5-1.3,2.5-3.2
	c0-2-1-3.2-2.5-3.2c-0.9,0-1.5,0.4-1.8,1.2h-0.1v-1h-1V186.4z M1009.6,183.3c-0.9,0-1.6-0.5-1.6-1.3v-2.3c0-0.7,0.7-1.2,1.6-1.2
	c1.1,0,1.8,0.7,1.8,1.8v1.1C1011.4,182.5,1010.7,183.3,1009.6,183.3z M1018.7,179.2v0.9h1c1.2,0,1.8,0.6,1.8,1.5v0.1
	c0,1-0.6,1.5-1.8,1.5c-1,0-1.5-0.4-2-1.1l-0.8,0.6c0.5,0.7,1.3,1.4,2.7,1.4c1.7,0,2.8-1,2.8-2.4c0-1.3-0.9-1.9-1.8-2.1v0
	c0.9-0.2,1.6-0.9,1.6-2c0-1.4-1.1-2.1-2.5-2.1c-1.3,0-2.1,0.7-2.5,1.4l0.7,0.6c0.4-0.6,0.9-1,1.7-1c0.9,0,1.5,0.4,1.5,1.3v0.1
	c0,0.8-0.6,1.4-1.7,1.4H1018.7z M1025.7,184.1c0.5,0,0.7-0.3,0.7-0.7v-0.2c0-0.4-0.2-0.7-0.7-0.7c-0.5,0-0.7,0.3-0.7,0.7v0.2
	C1024.9,183.9,1025.1,184.1,1025.7,184.1z"/>
<path class="st6" d="M976,168.5h48c6.4,0,11.5,5.1,11.5,11.5l0,0c0,6.4-5.1,11.5-11.5,11.5h-48c-6.4,0-11.5-5.1-11.5-11.5l0,0
	C964.5,173.6,969.6,168.5,976,168.5z"/>
<rect x="48.5" y="560.5" class="st0" width="15" height="15"/>
<rect x="48.5" y="560.5" class="st17" width="15" height="15"/>
<path class="st18" d="M76.7,573.2c1.6,0,2.8-0.9,3.4-2.2l-0.9-0.6c-0.4,1.1-1.2,1.8-2.5,1.8c-1.7,0-2.7-1.2-2.7-3.2v-1.5
	c0-2,1-3.3,2.7-3.3c1.2,0,2,0.7,2.4,1.7l1-0.6c-0.6-1.4-1.7-2.1-3.4-2.1c-2.5,0-3.9,1.8-3.9,5.1C72.8,571.4,74.3,573.2,76.7,573.2z
	 M82,573h1.1v-5c0-0.9,0.9-1.4,1.8-1.4c1.1,0,1.6,0.7,1.6,1.9v4.4h1.1v-4.6c0-1.8-0.9-2.8-2.4-2.8c-1.1,0-1.7,0.5-2,1.3h-0.1v-4.3
	H82V573z M96,573v-1h-0.8v-4c0-1.5-1-2.4-2.8-2.4c-1.3,0-2.2,0.6-2.6,1.4l0.7,0.6c0.4-0.7,1-1.1,1.8-1.1c1.1,0,1.7,0.6,1.7,1.6v0.7
	h-1.4c-2.1,0-3.1,0.8-3.1,2.1c0,1.3,0.9,2.2,2.4,2.2c1,0,1.8-0.5,2.1-1.3h0.1c0.1,0.7,0.4,1.2,1.2,1.2H96z M92.2,572.2
	c-0.9,0-1.4-0.4-1.4-1.1v-0.3c0-0.7,0.6-1.1,1.8-1.1h1.5v1.2C94.1,571.6,93.3,572.2,92.2,572.2z M98.9,573v-5c0-0.9,0.9-1.4,1.8-1.4
	c1.1,0,1.6,0.7,1.6,1.9v4.4h1.1v-4.6c0-1.8-0.9-2.8-2.4-2.8c-1.1,0-1.7,0.5-2,1.3h-0.1v-1.2h-1.1v7.2H98.9z M112,573.8
	c0-1.2-0.8-1.9-2.6-1.9h-1.5c-0.7,0-1.1-0.1-1.1-0.5c0-0.4,0.5-0.7,1-0.8c0.2,0,0.5,0.1,0.7,0.1c1.7,0,2.7-1,2.7-2.5
	c0-0.8-0.3-1.4-0.8-1.9v-0.5h1.4v-1h-1.1c-0.6,0-0.8,0.4-0.8,1v0.1c-0.4-0.2-0.9-0.3-1.4-0.3c-1.6,0-2.7,1-2.7,2.5
	c0,1,0.5,1.8,1.4,2.2v0.1c-0.7,0.2-1.2,0.5-1.2,1.3c0,0.5,0.2,0.8,0.6,1v0.2c-0.7,0.2-1.1,0.6-1.1,1.4c0,1.1,0.9,1.8,3.2,1.8
	C110.8,576,112,575.3,112,573.8z M111,573.9c0,0.8-0.7,1.2-2,1.2h-1c-1.1,0-1.6-0.5-1.6-1.1c0-0.4,0.2-0.8,0.7-1h2.4
	C110.6,572.9,111,573.3,111,573.9z M108.5,569.7c-1,0-1.6-0.4-1.6-1.4v-0.4c0-1,0.6-1.4,1.6-1.4c1,0,1.6,0.4,1.6,1.4v0.4
	C110,569.2,109.4,569.7,108.5,569.7z M116.1,573.2c1.4,0,2.4-0.7,2.9-1.7l-0.8-0.6c-0.4,0.8-1.1,1.2-2,1.2c-1.3,0-2.1-0.9-2.1-2.2
	v-0.3h5.2v-0.5c0-2-1.2-3.5-3.1-3.5c-2,0-3.2,1.5-3.2,3.8S114.1,573.2,116.1,573.2z M116.1,566.5c1.1,0,1.9,0.9,1.9,2.1v0.2h-4v-0.1
	C114,567.5,114.9,566.5,116.1,566.5z M125.9,573h1.1v-10.4h-1.1v4.3h-0.1c-0.4-0.9-1.1-1.3-2.1-1.3c-1.8,0-2.9,1.5-2.9,3.8
	s1.1,3.8,2.9,3.8c1,0,1.7-0.4,2.1-1.3h0.1V573z M124,572.2c-1.3,0-2-0.9-2-2.2v-1.2c0-1.3,0.8-2.2,2-2.2c1,0,1.9,0.6,1.9,1.4v2.7
	C125.9,571.6,125,572.2,124,572.2z"/>
<path class="st19" d="M149,560.5h8c1.9,0,3.5,1.6,3.5,3.5v8c0,1.9-1.6,3.5-3.5,3.5h-8c-1.9,0-3.5-1.6-3.5-3.5v-8
	C145.5,562.1,147.1,560.5,149,560.5z"/>
<path class="st20" d="M149,560.5h8c1.9,0,3.5,1.6,3.5,3.5v8c0,1.9-1.6,3.5-3.5,3.5h-8c-1.9,0-3.5-1.6-3.5-3.5v-8
	C145.5,562.1,147.1,560.5,149,560.5z"/>
<path class="st18" d="M175.6,573v-1h-4.2v-8.7h-1.2v9.8H175.6z M180,573.2c1.9,0,3.3-1.5,3.3-3.8s-1.3-3.8-3.3-3.8s-3.3,1.5-3.3,3.8
	S178,573.2,180,573.2z M180,572.2c-1.2,0-2.1-0.7-2.1-2.3v-1c0-1.5,0.9-2.3,2.1-2.3s2.1,0.7,2.1,2.3v1
	C182,571.4,181.2,572.2,180,572.2z M191.3,573.8c0-1.2-0.8-1.9-2.6-1.9h-1.5c-0.7,0-1.1-0.1-1.1-0.5c0-0.4,0.5-0.7,1-0.8
	c0.2,0,0.5,0.1,0.7,0.1c1.7,0,2.7-1,2.7-2.5c0-0.8-0.3-1.4-0.8-1.9v-0.5h1.4v-1H190c-0.6,0-0.8,0.4-0.8,1v0.1
	c-0.4-0.2-0.9-0.3-1.4-0.3c-1.6,0-2.7,1-2.7,2.5c0,1,0.5,1.8,1.4,2.2v0.1c-0.7,0.2-1.2,0.5-1.2,1.3c0,0.5,0.2,0.8,0.6,1v0.2
	c-0.7,0.2-1.1,0.6-1.1,1.4c0,1.1,0.9,1.8,3.2,1.8C190.1,576,191.3,575.3,191.3,573.8z M190.3,573.9c0,0.8-0.7,1.2-2,1.2h-1
	c-1.1,0-1.6-0.5-1.6-1.1c0-0.4,0.2-0.8,0.7-1h2.4C189.9,572.9,190.3,573.3,190.3,573.9z M187.8,569.7c-1,0-1.6-0.4-1.6-1.4v-0.4
	c0-1,0.6-1.4,1.6-1.4c1,0,1.6,0.4,1.6,1.4v0.4C189.3,569.2,188.7,569.7,187.8,569.7z M193.3,564.1c0.5,0,0.7-0.3,0.7-0.6v-0.2
	c0-0.4-0.2-0.6-0.7-0.6c-0.5,0-0.7,0.3-0.7,0.6v0.2C192.7,563.8,192.9,564.1,193.3,564.1z M192.8,573h1.1v-7.2h-1.1V573z
	 M199.1,573.2c1.4,0,2.3-0.7,2.8-1.7l-0.8-0.5c-0.4,0.8-1.1,1.3-2,1.3c-1.3,0-2-0.9-2-2.2v-1.2c0-1.3,0.7-2.2,2-2.2
	c0.9,0,1.5,0.4,1.8,1.2l0.9-0.5c-0.4-1-1.3-1.7-2.7-1.7c-2,0-3.2,1.5-3.2,3.8S197.1,573.2,199.1,573.2z M209.5,573v-1h-0.8v-4
	c0-1.5-1-2.4-2.8-2.4c-1.3,0-2.2,0.6-2.6,1.4l0.7,0.6c0.4-0.7,1-1.1,1.8-1.1c1.1,0,1.7,0.6,1.7,1.6v0.7h-1.4c-2.1,0-3.1,0.8-3.1,2.1
	c0,1.3,0.9,2.2,2.4,2.2c1,0,1.8-0.5,2.1-1.3h0.1c0.1,0.7,0.4,1.2,1.2,1.2H209.5z M205.7,572.2c-0.9,0-1.4-0.4-1.4-1.1v-0.3
	c0-0.7,0.6-1.1,1.8-1.1h1.5v1.2C207.6,571.6,206.8,572.2,205.7,572.2z M213.5,573v-1h-1.1v-9.4h-1.1v9.2c0,0.7,0.4,1.2,1.2,1.2
	H213.5z M219.8,573v-5c0-0.9,0.9-1.4,1.8-1.4c1.1,0,1.6,0.7,1.6,1.9v4.4h1.1v-4.6c0-1.8-0.9-2.8-2.4-2.8c-1.1,0-1.7,0.5-2,1.3h-0.1
	v-1.2h-1.1v7.2H219.8z M229.6,573.2c1.9,0,3.3-1.5,3.3-3.8s-1.3-3.8-3.3-3.8c-1.9,0-3.3,1.5-3.3,3.8S227.6,573.2,229.6,573.2z
	 M229.6,572.2c-1.2,0-2.1-0.7-2.1-2.3v-1c0-1.5,0.9-2.3,2.1-2.3s2.1,0.7,2.1,2.3v1C231.6,571.4,230.8,572.2,229.6,572.2z M239.5,573
	h1.1v-10.4h-1.1v4.3h-0.1c-0.4-0.9-1.1-1.3-2.1-1.3c-1.8,0-2.9,1.5-2.9,3.8s1.1,3.8,2.9,3.8c1,0,1.7-0.4,2.1-1.3h0.1V573z
	 M237.6,572.2c-1.3,0-2-0.9-2-2.2v-1.2c0-1.3,0.8-2.2,2-2.2c1,0,1.9,0.6,1.9,1.4v2.7C239.5,571.6,238.6,572.2,237.6,572.2z
	 M245.8,573.2c1.4,0,2.4-0.7,2.9-1.7l-0.8-0.6c-0.4,0.8-1.1,1.2-2,1.2c-1.3,0-2.1-0.9-2.1-2.2v-0.3h5.2v-0.5c0-2-1.2-3.5-3.1-3.5
	c-2,0-3.2,1.5-3.2,3.8S243.9,573.2,245.8,573.2z M245.8,566.5c1.1,0,1.9,0.9,1.9,2.1v0.2h-4v-0.1
	C243.8,567.5,244.6,566.5,245.8,566.5z"/>
<rect x="266.5" y="560.5" class="st0" width="15" height="15"/>
<rect x="266.5" y="560.5" class="st20" width="15" height="15"/>
<path class="st18" d="M292.5,573v-4.2h2.7c1.8,0,2.7-1.1,2.7-2.8s-1-2.8-2.7-2.8h-3.9v9.8H292.5z M292.5,564.3h2.7
	c0.9,0,1.5,0.5,1.5,1.4v0.7c0,0.9-0.5,1.4-1.5,1.4h-2.7V564.3z M300.8,573v-4.9c0-0.7,0.7-1.2,1.9-1.2h0.7v-1.1H303
	c-1.2,0-1.8,0.6-2.1,1.3h-0.1v-1.3h-1.1v7.2H300.8z M307.7,573.2c1.4,0,2.4-0.7,2.9-1.7l-0.8-0.6c-0.4,0.8-1.1,1.2-2,1.2
	c-1.3,0-2.1-0.9-2.1-2.2v-0.3h5.2v-0.5c0-2-1.2-3.5-3.1-3.5c-2,0-3.2,1.5-3.2,3.8S305.7,573.2,307.7,573.2z M307.7,566.5
	c1.1,0,1.9,0.9,1.9,2.1v0.2h-4v-0.1C305.6,567.5,306.4,566.5,307.7,566.5z M314.9,573.2c1.7,0,2.7-0.9,2.7-2.3c0-1.1-0.6-1.8-2.2-2
	l-0.6-0.1c-0.9-0.1-1.4-0.4-1.4-1.1c0-0.7,0.5-1.1,1.4-1.1s1.5,0.4,1.9,0.9l0.7-0.7c-0.6-0.7-1.4-1.2-2.5-1.2
	c-1.5,0-2.6,0.7-2.6,2.1c0,1.3,1,1.9,2.3,2.1l0.6,0.1c1,0.1,1.3,0.6,1.3,1.1c0,0.7-0.6,1.2-1.5,1.2c-0.9,0-1.6-0.4-2.1-1.1l-0.8,0.6
	C312.7,572.6,313.6,573.2,314.9,573.2z M322.5,573.2c1.4,0,2.3-0.7,2.8-1.7l-0.8-0.5c-0.4,0.8-1.1,1.3-2,1.3c-1.3,0-2-0.9-2-2.2
	v-1.2c0-1.3,0.7-2.2,2-2.2c0.9,0,1.5,0.4,1.8,1.2l0.9-0.5c-0.4-1-1.3-1.7-2.7-1.7c-2,0-3.2,1.5-3.2,3.8S320.4,573.2,322.5,573.2z
	 M328.1,573v-4.9c0-0.7,0.7-1.2,1.9-1.2h0.7v-1.1h-0.4c-1.2,0-1.8,0.6-2.1,1.3h-0.1v-1.3H327v7.2H328.1z M332.8,564.1
	c0.5,0,0.7-0.3,0.7-0.6v-0.2c0-0.4-0.2-0.6-0.7-0.6s-0.7,0.3-0.7,0.6v0.2C332.1,563.8,332.3,564.1,332.8,564.1z M332.3,573h1.1v-7.2
	h-1.1V573z M335.9,573h1.1v-1.2h0.1c0.4,0.9,1.1,1.3,2.1,1.3c1.8,0,2.9-1.5,2.9-3.8s-1.1-3.8-2.9-3.8c-1,0-1.7,0.4-2.1,1.3H337v-4.3
	h-1.1V573z M338.9,572.2c-1,0-1.9-0.5-1.9-1.5V568c0-0.8,0.8-1.4,1.9-1.4c1.3,0,2,0.9,2,2.2v1.2
	C340.9,571.3,340.2,572.2,338.9,572.2z M346.9,573.2c1.4,0,2.4-0.7,2.9-1.7l-0.8-0.6c-0.4,0.8-1.1,1.2-2,1.2c-1.3,0-2.1-0.9-2.1-2.2
	v-0.3h5.2v-0.5c0-2-1.2-3.5-3.1-3.5c-2,0-3.2,1.5-3.2,3.8S345,573.2,346.9,573.2z M346.9,566.5c1.1,0,1.9,0.9,1.9,2.1v0.2h-4v-0.1
	C344.8,567.5,345.7,566.5,346.9,566.5z M356.7,573h1.1v-10.4h-1.1v4.3h-0.1c-0.4-0.9-1.1-1.3-2.1-1.3c-1.8,0-2.9,1.5-2.9,3.8
	s1.1,3.8,2.9,3.8c1,0,1.7-0.4,2.1-1.3h0.1V573z M354.8,572.2c-1.3,0-2-0.9-2-2.2v-1.2c0-1.3,0.8-2.2,2-2.2c1,0,1.9,0.6,1.9,1.4v2.7
	C356.7,571.6,355.8,572.2,354.8,572.2z M364.9,573v-5c0-0.9,0.9-1.4,1.8-1.4c1.1,0,1.6,0.7,1.6,1.9v4.4h1.1v-4.6
	c0-1.8-0.9-2.8-2.4-2.8c-1.1,0-1.7,0.5-2,1.3h-0.1v-1.2h-1.1v7.2H364.9z M374.6,573.2c1.9,0,3.3-1.5,3.3-3.8s-1.3-3.8-3.3-3.8
	c-1.9,0-3.3,1.5-3.3,3.8S372.7,573.2,374.6,573.2z M374.6,572.2c-1.2,0-2.1-0.7-2.1-2.3v-1c0-1.5,0.9-2.3,2.1-2.3
	c1.2,0,2.1,0.7,2.1,2.3v1C376.7,571.4,375.8,572.2,374.6,572.2z M384.5,573h1.1v-10.4h-1.1v4.3h-0.1c-0.4-0.9-1.1-1.3-2.1-1.3
	c-1.8,0-2.9,1.5-2.9,3.8s1.1,3.8,2.9,3.8c1,0,1.7-0.4,2.1-1.3h0.1V573z M382.7,572.2c-1.3,0-2-0.9-2-2.2v-1.2c0-1.3,0.8-2.2,2-2.2
	c1,0,1.9,0.6,1.9,1.4v2.7C384.5,571.6,383.7,572.2,382.7,572.2z M390.9,573.2c1.4,0,2.4-0.7,2.9-1.7l-0.8-0.6
	c-0.4,0.8-1.1,1.2-2,1.2c-1.3,0-2.1-0.9-2.1-2.2v-0.3h5.2v-0.5c0-2-1.2-3.5-3.1-3.5c-2,0-3.2,1.5-3.2,3.8S388.9,573.2,390.9,573.2z
	 M390.9,566.5c1.1,0,1.9,0.9,1.9,2.1v0.2h-4v-0.1C388.8,567.5,389.7,566.5,390.9,566.5z"/>
</svg>
