<?xml version="1.0" encoding="utf-8"?>
<!-- Generator: Adobe Illustrator 26.4.1, SVG Export Plug-In . SVG Version: 6.00 Build 0)  -->
<svg version="1.1" id="Layer_1" xmlns="http://www.w3.org/2000/svg" xmlns:xlink="http://www.w3.org/1999/xlink" x="0px" y="0px"
	 viewBox="0 0 1080 607.5" style="enable-background:new 0 0 1080 607.5;" xml:space="preserve">
<style type="text/css">
	.st0{fill:#F4F4F4;}
	.st1{fill:#565151;}
	.st2{fill:#005D5D;}
	.st3{fill:#FFFFFF;}
	.st4{fill:none;stroke:#005D5D;}
	.st5{fill:#8F8B8B;}
	.st6{fill:none;stroke:#8F8B8B;}
	.st7{fill:#D9FBFB;stroke:#08BDBA;}
	.st8{fill:#D9FBFB;stroke:#009D9A;}
	.st9{fill:none;stroke:#000000;}
	.st10{fill:none;stroke:#009D9A;}
	.st11{fill:#009D9A;}
	.st12{fill:#D9FBFB;stroke:#009D9A;stroke-dasharray:4,4;}
</style>
<rect class="st0" width="1080" height="607.5"/>
<path class="st1" d="M485.6,247c1.3-0.8,2.8-1.2,4.4-1.2h90v1h-90c-4.1,0-7.5,3.4-7.5,7.5v88c0,4.1,3.4,7.5,7.5,7.5h11v-2.4l5,2.9
	l-5,2.9v-2.4h-11c-3.2,0-6.1-1.8-7.5-4.5v60c0,4.1,3.4,7.5,7.5,7.5h11v-2.4l5,2.9l-5,2.9v-2.4h-11c-4.7,0-8.5-3.8-8.5-8.5v-152
	c0-1.7,0.5-3.2,1.3-4.5C483.5,248.6,484.5,247.7,485.6,247z"/>
<path class="st1" d="M177.5,78.2l-5-2.9v2.4h-52v1h52v2.4L177.5,78.2z"/>
<path class="st1" d="M202.5,165.8v16.5c0,4.1,3.4,7.5,7.5,7.5l384,0c4.7,0,8.5,3.8,8.5,8.5v19.8h2.4l-2.9,5l-2.9-5h2.4v-19.8
	c0-4.1-3.4-7.5-7.5-7.5l-271.5,0v27.3h2.4l-2.9,5l-2.9-5h2.4v-27.3H210c-4.7,0-8.5-3.8-8.5-8.5v-16.5H202.5z"/>
<path class="st1" d="M979.5,526.8v-0.1c4-0.7,7-4.2,7-8.4v-315h2.4l-2.9-5l-2.9,5h2.4v315c0,4.1-3.4,7.5-7.5,7.5h-8v1H979.5z"/>
<path class="st1" d="M433,349.8h16.7c4.7,0,8.5,3.8,8.5,8.5v160c0,4.1,3.4,7.5,7.5,7.5H742c-2.7-1.4-4.5-4.3-4.5-7.5l0-96
	c0-4.1-3.4-7.5-7.5-7.5h-17.2v-1H730c3.3,0,6.1,1.8,7.5,4.5v-60c0-4.1-3.4-7.5-7.5-7.5h-17.3v-1H730c4.7,0,8.5,3.8,8.5,8.5v154.4h0
	v5.6c0,4.1,3.4,7.5,7.5,7.5h11v-2.4l5,2.9l-5,2.9v-2.4H465.6c-4.7,0-8.5-3.8-8.5-8.5l0-96c0-4.1-3.4-7.5-7.5-7.5H433v-1h16.6
	c3.3,0,6.1,1.8,7.5,4.5v-60c0-4.1-3.4-7.5-7.5-7.5H433V349.8z"/>
<path class="st2" d="M185.5,54.2h32c4.4,0,8,3.6,8,8v32c0,4.4-3.6,8-8,8h-32c-4.4,0-8-3.6-8-8v-32C177.5,57.8,181.1,54.2,185.5,54.2
	z"/>
<path class="st3" d="M201.5,87l-5.3-6.2c0,0-0.2-0.3-0.2-0.3c-0.9-1.2-1.4-2.6-1.4-4.1c0-1.8,0.7-3.6,2-4.9c1.3-1.3,3-2,4.9-2
	s3.6,0.7,4.9,2c1.3,1.3,2,3,2,4.9c0,1.5-0.5,2.9-1.4,4.1l0,0c0,0-0.2,0.2-0.2,0.3L201.5,87z M197,79.7c0,0,0.1,0.2,0.2,0.2l4.3,5.1
	l4.3-5.1c0,0,0.2-0.2,0.2-0.2c0.7-1,1.1-2.2,1.1-3.4c0-1.5-0.6-2.9-1.6-4c-1.1-1.1-2.5-1.6-4-1.6s-2.9,0.6-4,1.6
	c-1.1,1.1-1.6,2.5-1.6,4C195.9,77.6,196.3,78.8,197,79.7z"/>
<path class="st3" d="M204.6,79.5h-1.2v-5h-3.8v5h-1.2v-5c0-0.3,0.1-0.6,0.4-0.9c0.2-0.2,0.6-0.4,0.9-0.4h3.8c0.3,0,0.6,0.1,0.9,0.4
	c0.2,0.2,0.4,0.6,0.4,0.9V79.5z"/>
<path class="st3" d="M202.1,78.2h-1.2v1.2h1.2V78.2z"/>
<path class="st3" d="M202.1,75.8h-1.2V77h1.2V75.8z"/>
<path d="M202.8,122.7H198l2.1-1.7c1.4-1.1,2.5-2.2,2.5-3.8c0-1.7-1.2-2.9-3.2-2.9c-2,0-3,1.1-3.5,2.4l1.6,0.6
	c0.2-0.8,0.7-1.5,1.7-1.5c0.8,0,1.4,0.5,1.4,1.3v0.2c0,0.9-0.5,1.5-1.5,2.4l-3.1,2.7v1.7h6.8V122.7z M205.8,124.4
	c0.8,0,1.1-0.4,1.1-1v-0.3c0-0.6-0.3-1-1.1-1c-0.8,0-1.1,0.4-1.1,1v0.3C204.7,124,205,124.4,205.8,124.4z"/>
<path d="M183.4,142.4c1.6,0,2.8-0.9,3.4-2.2l-0.9-0.6c-0.4,1.1-1.2,1.8-2.5,1.8c-1.7,0-2.7-1.2-2.7-3.2v-1.5c0-2,1-3.3,2.7-3.3
	c1.2,0,2,0.7,2.4,1.7l1-0.6c-0.6-1.4-1.7-2.1-3.4-2.1c-2.5,0-3.9,1.8-3.9,5.1C179.4,140.7,180.9,142.4,183.4,142.4z M189.8,142.2
	v-4.9c0-0.7,0.7-1.2,1.9-1.2h0.7V135H192c-1.2,0-1.8,0.6-2.1,1.3h-0.1V135h-1.1v7.2H189.8z M196.6,142.4c1.4,0,2.4-0.7,2.9-1.7
	l-0.8-0.6c-0.4,0.8-1.1,1.2-2,1.2c-1.3,0-2.1-0.9-2.1-2.2v-0.3h5.2v-0.5c0-2-1.2-3.5-3.1-3.5c-2,0-3.2,1.5-3.2,3.8
	S194.7,142.4,196.6,142.4z M196.6,135.8c1.1,0,1.9,0.9,1.9,2.1v0.2h-4V138C194.6,136.7,195.4,135.8,196.6,135.8z M207.6,142.2v-1
	h-0.8v-4c0-1.5-1-2.4-2.8-2.4c-1.3,0-2.2,0.6-2.6,1.4l0.7,0.6c0.4-0.7,1-1.1,1.8-1.1c1.1,0,1.7,0.6,1.7,1.6v0.7h-1.4
	c-2.1,0-3.1,0.8-3.1,2.1c0,1.3,0.9,2.2,2.4,2.2c1,0,1.8-0.5,2.1-1.3h0.1c0.1,0.7,0.4,1.2,1.2,1.2H207.6z M203.8,141.5
	c-0.9,0-1.4-0.4-1.4-1.1v-0.3c0-0.7,0.6-1.1,1.8-1.1h1.5v1.2C205.7,140.9,204.9,141.5,203.8,141.5z M212.4,142.2v-1h-1.5V136h1.6v-1
	h-1.6v-2h-1v1.3c0,0.5-0.2,0.7-0.6,0.7h-0.7v1h1.2v5.1c0,0.7,0.4,1.2,1.2,1.2H212.4z M217.1,142.4c1.4,0,2.4-0.7,2.9-1.7l-0.8-0.6
	c-0.4,0.8-1.1,1.2-2,1.2c-1.3,0-2.1-0.9-2.1-2.2v-0.3h5.2v-0.5c0-2-1.2-3.5-3.1-3.5c-2,0-3.2,1.5-3.2,3.8S215.2,142.4,217.1,142.4z
	 M217.1,135.8c1.1,0,1.9,0.9,1.9,2.1v0.2h-4V138C215.1,136.7,215.9,135.8,217.1,135.8z M177.3,160.2v-1h-0.8v-4c0-1.5-1-2.4-2.8-2.4
	c-1.3,0-2.2,0.6-2.6,1.4l0.7,0.6c0.4-0.7,1-1.1,1.8-1.1c1.1,0,1.7,0.6,1.7,1.6v0.7h-1.4c-2.1,0-3.1,0.8-3.1,2.1
	c0,1.3,0.9,2.2,2.4,2.2c1,0,1.8-0.5,2.1-1.3h0.1c0.1,0.7,0.4,1.2,1.2,1.2H177.3z M173.4,159.5c-0.9,0-1.4-0.4-1.4-1.1v-0.3
	c0-0.7,0.6-1.1,1.8-1.1h1.5v1.2C175.3,158.9,174.5,159.5,173.4,159.5z M184.7,160.2v-1h-1.1v-9.4h-1.1v9.2c0,0.7,0.4,1.2,1.2,1.2
	H184.7z M189.2,160.4c1.9,0,3.3-1.5,3.3-3.8s-1.3-3.8-3.3-3.8c-1.9,0-3.3,1.5-3.3,3.8S187.3,160.4,189.2,160.4z M189.2,159.4
	c-1.2,0-2.1-0.7-2.1-2.3v-1c0-1.5,0.9-2.3,2.1-2.3c1.2,0,2.1,0.7,2.1,2.3v1C191.3,158.7,190.4,159.4,189.2,159.4z M197.2,160.4
	c1.4,0,2.3-0.7,2.8-1.7l-0.8-0.5c-0.4,0.8-1.1,1.3-2,1.3c-1.3,0-2-0.9-2-2.2V156c0-1.3,0.7-2.2,2-2.2c0.9,0,1.5,0.4,1.8,1.2l0.9-0.5
	c-0.4-1-1.3-1.7-2.7-1.7c-2,0-3.2,1.5-3.2,3.8S195.1,160.4,197.2,160.4z M207.5,160.2v-1h-0.8v-4c0-1.5-1-2.4-2.8-2.4
	c-1.3,0-2.2,0.6-2.6,1.4l0.7,0.6c0.4-0.7,1-1.1,1.8-1.1c1.1,0,1.7,0.6,1.7,1.6v0.7h-1.4c-2.1,0-3.1,0.8-3.1,2.1
	c0,1.3,0.9,2.2,2.4,2.2c1,0,1.8-0.5,2.1-1.3h0.1c0.1,0.7,0.4,1.2,1.2,1.2H207.5z M203.7,159.5c-0.9,0-1.4-0.4-1.4-1.1v-0.3
	c0-0.7,0.6-1.1,1.8-1.1h1.5v1.2C205.6,158.9,204.8,159.5,203.7,159.5z M212.3,160.2v-1h-1.5V154h1.6v-1h-1.6v-2h-1v1.3
	c0,0.5-0.2,0.7-0.6,0.7h-0.7v1h1.2v5.1c0,0.7,0.4,1.2,1.2,1.2H212.3z M214.9,151.3c0.5,0,0.7-0.3,0.7-0.6v-0.2
	c0-0.4-0.2-0.6-0.7-0.6s-0.7,0.3-0.7,0.6v0.2C214.2,151.1,214.5,151.3,214.9,151.3z M214.4,160.2h1.1V153h-1.1V160.2z M220.8,160.4
	c1.9,0,3.3-1.5,3.3-3.8s-1.3-3.8-3.3-3.8c-1.9,0-3.3,1.5-3.3,3.8S218.8,160.4,220.8,160.4z M220.8,159.4c-1.2,0-2.1-0.7-2.1-2.3v-1
	c0-1.5,0.9-2.3,2.1-2.3c1.2,0,2.1,0.7,2.1,2.3v1C222.8,158.7,222,159.4,220.8,159.4z M227.1,160.2v-5c0-0.9,0.9-1.4,1.8-1.4
	c1.1,0,1.6,0.7,1.6,1.9v4.4h1.1v-4.6c0-1.8-0.9-2.8-2.4-2.8c-1.1,0-1.7,0.5-2,1.3h-0.1V153H226v7.2H227.1z"/>
<path class="st4" d="M186,50.8h35.5c4.4,0,8,3.6,8,8v35.5"/>
<path class="st4" d="M190,46.8h35.5c4.4,0,8,3.6,8,8v35.5"/>
<path class="st1" d="M336,245.8v1H210c-4.1,0-7.5,3.4-7.5,7.5v88.1c0.1,4.1,3.4,7.4,7.5,7.4h11v-2.4l5,2.9l-5,2.9v-2.4h-11
	c-3.2,0-6.1-1.8-7.5-4.5v60c0,4.1,3.4,7.5,7.5,7.5h11v-2.4l5,2.9l-5,2.9v-2.4h-11c-4.7,0-8.5-3.8-8.5-8.5v-63.9c0,0,0-0.1,0-0.1v-88
	c0-4.7,3.8-8.5,8.5-8.5H336z"/>
<rect x="226.5" y="326.8" class="st3" width="207" height="47"/>
<path class="st5" d="M230,326.2h-4v48h4V326.2z"/>
<path d="M247,355.4c1.8,0,2.9-0.9,3.6-2.3l-1.5-0.9c-0.3,0.9-1,1.6-2.1,1.6c-1.4,0-2.3-1-2.3-2.6v-1.5c0-1.7,0.9-2.7,2.3-2.7
	c1.1,0,1.7,0.6,2,1.5l1.6-0.8c-0.7-1.5-1.8-2.3-3.6-2.3c-2.6,0-4.2,1.8-4.2,5.1C242.7,353.7,244.4,355.4,247,355.4z M258,355.2v-1.6
	h-3.9v-8.1h-1.8v9.8H258z M263.8,355.2v-1.5h-1.3V347h1.3v-1.5h-4.4v1.5h1.3v6.8h-1.3v1.5H263.8z"/>
<rect x="226.5" y="326.8" class="st6" width="207" height="47"/>
<rect x="226.5" y="390.8" class="st3" width="207" height="47"/>
<path class="st5" d="M230,390.2h-4v48h4V390.2z"/>
<path d="M249.4,419.2h1.6v-5.3h-3.7v1.6h1.9v0.6c0,1.1-0.9,1.7-2.1,1.7c-1.5,0-2.4-0.9-2.4-2.6v-1.6c0-1.7,1-2.6,2.4-2.6
	c1.2,0,1.8,0.6,2.2,1.5l1.5-0.9c-0.7-1.4-2-2.2-3.7-2.2c-2.6,0-4.4,1.8-4.4,5.1s1.7,5,4,5c1.5,0,2.4-0.7,2.6-1.7h0.1V419.2z
	 M253.2,409.5v5.8c0,2.9,1,4.2,3.7,4.2c2.7,0,3.8-1.3,3.8-4.2v-5.8h-1.8v6c0,1.5-0.5,2.3-1.9,2.3s-1.9-0.8-1.9-2.3v-6H253.2z
	 M267.1,419.2v-1.5h-1.3V411h1.3v-1.5h-4.4v1.5h1.3v6.8h-1.3v1.5H267.1z"/>
<rect x="226.5" y="390.8" class="st6" width="207" height="47"/>
<rect x="506.5" y="326.8" class="st3" width="207" height="47"/>
<path class="st5" d="M510,326.2h-4v48h4V326.2z"/>
<path d="M523.2,355.2h1.8v-7h0.1l0.8,1.6l2,3.7l2-3.7l0.8-1.6h0.1v7h1.8v-9.8h-2l-2.5,4.8h-0.1l-2.5-4.8h-2.1V355.2z M536.4,355.4
	c1.1,0,1.9-0.5,2.1-1.4h0.1c0.1,0.8,0.6,1.3,1.4,1.3h1v-1.4h-0.7v-3.4c0-1.7-1.1-2.6-3-2.6c-1.5,0-2.3,0.6-2.9,1.4l1.1,1
	c0.4-0.5,0.8-0.9,1.7-0.9c1,0,1.4,0.5,1.4,1.3v0.5h-1.2c-2,0-3.1,0.7-3.1,2.2C534.1,354.6,535,355.4,536.4,355.4z M537,354.1
	c-0.7,0-1.1-0.3-1.1-0.9V353c0-0.6,0.5-0.9,1.4-0.9h1.1v1C538.5,353.8,537.8,354.1,537,354.1z M544.4,355.2v-4.8
	c0-0.8,0.7-1.2,1.5-1.2c0.9,0,1.2,0.5,1.2,1.6v4.4h1.8v-4.6c0-1.8-0.8-2.9-2.3-2.9c-1.1,0-1.8,0.6-2,1.4h-0.1v-1.2h-1.8v7.3H544.4z
	 M555.4,355.2h1.8v-7.3h-1.8v4.8c0,0.8-0.7,1.2-1.4,1.2c-0.9,0-1.2-0.5-1.2-1.6v-4.4h-1.8v4.6c0,1.8,0.8,2.9,2.3,2.9
	c1.2,0,1.8-0.7,2-1.4h0.1V355.2z M561.2,355.4c1.1,0,1.9-0.5,2.1-1.4h0.1c0.1,0.8,0.6,1.3,1.4,1.3h1v-1.4H565v-3.4
	c0-1.7-1-2.6-3-2.6c-1.5,0-2.3,0.6-2.9,1.4l1.1,1c0.3-0.5,0.8-0.9,1.7-0.9c1,0,1.4,0.5,1.4,1.3v0.5H562c-2,0-3.1,0.7-3.1,2.2
	C558.9,354.6,559.7,355.4,561.2,355.4z M561.8,354.1c-0.7,0-1.1-0.3-1.1-0.9V353c0-0.6,0.5-0.9,1.4-0.9h1.1v1
	C563.2,353.8,562.6,354.1,561.8,354.1z M570.1,355.2v-1.4h-1v-8.9h-1.8v8.6c0,1.1,0.6,1.8,1.8,1.8H570.1z"/>
<rect x="506.5" y="326.8" class="st6" width="207" height="47"/>
<rect x="506.5" y="390.8" class="st3" width="207" height="47"/>
<path class="st5" d="M510,390.2h-4v48h4V390.2z"/>
<path d="M529.8,411.1v-1.6h-7.4v1.6h2.8v8.1h1.8v-8.1H529.8z M533.4,419.4c1.4,0,2.4-0.5,3-1.3l-1-1.1c-0.4,0.6-1,1-1.9,1
	c-1.2,0-1.8-0.7-1.8-1.8V416h4.9v-0.6c0-2-1-3.7-3.3-3.7c-2.1,0-3.4,1.5-3.4,3.8C529.9,417.9,531.2,419.4,533.4,419.4z M533.3,413.1
	c0.9,0,1.4,0.7,1.4,1.7v0.1h-3v-0.1C531.8,413.8,532.4,413.1,533.3,413.1z M540.2,419.2v-4.8c0-0.8,0.7-1.2,1.4-1.2
	c0.8,0,1.2,0.5,1.2,1.6v4.4h1.8v-4.8c0-0.8,0.7-1.2,1.4-1.2c0.8,0,1.2,0.5,1.2,1.6v4.4h1.8v-4.6c0-1.8-0.8-2.9-2.2-2.9
	c-1.2,0-2,0.7-2.2,1.5h0c-0.4-1-1.1-1.5-2.1-1.5c-1.1,0-1.7,0.6-2,1.4h-0.1v-1.2h-1.8v7.3H540.2z M551,422h1.8v-4h0.1
	c0.3,0.8,1.1,1.4,2,1.4c1.8,0,2.9-1.4,2.9-3.8c0-2.4-1-3.8-2.9-3.8c-1,0-1.8,0.5-2,1.4h-0.1v-1.2H551V422z M554.3,417.9
	c-0.9,0-1.5-0.4-1.5-1.2v-2.3c0-0.7,0.6-1.2,1.5-1.2c0.9,0,1.6,0.7,1.6,1.7v1.3C555.8,417.3,555.2,417.9,554.3,417.9z M562.3,419.2
	v-1.4h-1v-8.9h-1.8v8.6c0,1.1,0.6,1.8,1.8,1.8H562.3z M565.6,419.4c1.1,0,1.9-0.5,2.1-1.4h0.1c0.1,0.8,0.6,1.3,1.4,1.3h1v-1.4h-0.7
	v-3.4c0-1.7-1-2.6-3-2.6c-1.5,0-2.3,0.6-2.9,1.4l1.1,1c0.3-0.5,0.8-0.9,1.7-0.9c1,0,1.4,0.5,1.4,1.3v0.5h-1.2c-2,0-3.1,0.7-3.1,2.2
	C563.3,418.6,564.1,419.4,565.6,419.4z M566.2,418.1c-0.7,0-1.1-0.3-1.1-0.9V417c0-0.6,0.5-0.9,1.4-0.9h1.1v1
	C567.6,417.8,567,418.1,566.2,418.1z M574,419.2h1.3v-1.4h-1.4v-4.5h1.5v-1.4h-1.5v-2h-1.6v1.2c0,0.5-0.2,0.8-0.7,0.8H571v1.4h1.1v4
	C572.1,418.6,572.8,419.2,574,419.2z M580,419.4c1.4,0,2.4-0.5,3-1.3l-1-1.1c-0.4,0.6-1,1-1.9,1c-1.2,0-1.8-0.7-1.8-1.8V416h4.9
	v-0.6c0-2-1-3.7-3.3-3.7c-2.1,0-3.4,1.5-3.4,3.8C576.6,417.9,577.9,419.4,580,419.4z M580,413.1c0.9,0,1.4,0.7,1.4,1.7v0.1h-3v-0.1
	C578.4,413.8,579,413.1,580,413.1z M588.9,415.9v-1.8h-4v1.8H588.9z M595.6,419.2h1.8v-10.4h-1.8v4.3h-0.1c-0.3-0.8-1.1-1.4-2-1.4
	c-1.8,0-2.9,1.4-2.9,3.8c0,2.5,1,3.8,2.9,3.8c1,0,1.8-0.6,2-1.4h0.1V419.2z M594.1,417.9c-0.9,0-1.6-0.7-1.6-1.7V415
	c0-1,0.6-1.7,1.6-1.7c0.9,0,1.5,0.5,1.5,1.2v2.3C595.6,417.5,595,417.9,594.1,417.9z M601.4,419.2v-4.5c0-0.8,0.6-1.1,1.8-1.1h0.6
	v-1.7h-0.4c-1.2,0-1.8,0.7-1.9,1.5h-0.1v-1.5h-1.8v7.3H601.4z M606.2,410.9c0.7,0,1-0.4,1-0.9v-0.3c0-0.5-0.3-0.9-1-0.9
	c-0.7,0-1,0.4-1,0.9v0.3C605.2,410.5,605.5,410.9,606.2,410.9z M605.3,419.2h1.8v-7.3h-1.8V419.2z M613,419.2l2.5-7.3h-1.7l-1,3.2
	l-0.7,2.6H612l-0.7-2.6l-1-3.2h-1.8l2.4,7.3H613z M619.7,419.4c1.4,0,2.4-0.5,3-1.3l-1-1.1c-0.4,0.6-1,1-1.9,1
	c-1.2,0-1.8-0.7-1.8-1.8V416h4.9v-0.6c0-2-1-3.7-3.3-3.7c-2.1,0-3.4,1.5-3.4,3.8C616.2,417.9,617.5,419.4,619.7,419.4z M619.7,413.1
	c0.9,0,1.4,0.7,1.4,1.7v0.1h-3v-0.1C618.1,413.8,618.7,413.1,619.7,413.1z M626.5,419.2v-4.8c0-0.8,0.7-1.2,1.5-1.2
	c0.9,0,1.2,0.5,1.2,1.6v4.4h1.8v-4.6c0-1.8-0.8-2.9-2.3-2.9c-1.1,0-1.8,0.6-2,1.4h-0.1v-1.2h-1.8v7.3H626.5z"/>
<rect x="506.5" y="390.8" class="st6" width="207" height="47"/>
<path class="st7" d="M323.1,224l21.2,21.2c0.6,0.6,0.6,1.5,0,2.1l-21.2,21.2c-0.6,0.6-1.5,0.6-2.1,0l-21.2-21.2
	c-0.6-0.6-0.6-1.5,0-2.1l21.2-21.2C321.5,223.4,322.5,223.4,323.1,224z"/>
<path d="M322,237.5c-1.7,0-3.4,0.5-4.9,1.5c-1.4,1-2.6,2.3-3.2,3.9c-0.7,1.6-0.8,3.4-0.5,5.1c0.3,1.7,1.2,3.3,2.4,4.5
	c1.2,1.2,2.8,2.1,4.5,2.4c1.7,0.3,3.5,0.2,5.1-0.5c1.6-0.7,3-1.8,3.9-3.2c1-1.4,1.5-3.1,1.5-4.9c0-2.3-0.9-4.5-2.6-6.2
	C326.6,238.4,324.3,237.5,322,237.5z M322,253.8c-1.5,0-2.9-0.4-4.2-1.3c-1.2-0.8-2.2-2-2.8-3.4c-0.6-1.4-0.7-2.9-0.4-4.3
	s1-2.8,2.1-3.8c1-1,2.4-1.8,3.8-2.1c1.5-0.3,3-0.1,4.3,0.4c1.4,0.6,2.5,1.5,3.4,2.8c0.8,1.2,1.3,2.7,1.3,4.2c0,2-0.8,3.9-2.2,5.3
	C325.9,253,324,253.8,322,253.8z"/>
<path d="M322,251.9c0.5,0,0.9-0.4,0.9-0.9c0-0.5-0.4-0.9-0.9-0.9s-0.9,0.4-0.9,0.9C321.1,251.5,321.5,251.9,322,251.9z"/>
<path d="M322.6,241.2h-0.9c-0.4,0-0.7,0.1-1.1,0.2c-0.3,0.1-0.7,0.3-0.9,0.6c-0.3,0.3-0.5,0.6-0.6,0.9c-0.1,0.3-0.2,0.7-0.2,1.1v0.3
	h1.2v-0.3c0-0.4,0.2-0.8,0.5-1.1c0.3-0.3,0.7-0.5,1.1-0.5h0.9c0.4,0,0.8,0.2,1.1,0.5c0.3,0.3,0.5,0.7,0.5,1.1c0,0.4-0.2,0.8-0.5,1.1
	c-0.3,0.3-0.7,0.5-1.1,0.5h-1.2v2.8h1.2v-1.6c0.7,0,1.5-0.3,2-0.8c0.5-0.5,0.8-1.2,0.8-2c0-0.7-0.3-1.5-0.8-2
	C324.1,241.5,323.4,241.2,322.6,241.2z"/>
<path d="M306.1,278.5v5.8c0,2.9,1,4.2,3.7,4.2c2.7,0,3.8-1.3,3.8-4.2v-5.8h-1.8v6c0,1.5-0.5,2.3-1.9,2.3c-1.4,0-1.9-0.8-1.9-2.3v-6
	H306.1z M318.3,288.4c1.8,0,3-1,3-2.4c0-1.2-0.8-1.9-2.4-2.2l-0.7-0.1c-0.7-0.1-1-0.3-1-0.8c0-0.4,0.3-0.8,1.1-0.8
	c0.7,0,1.3,0.3,1.8,0.8l1-1c-0.7-0.7-1.4-1.1-2.9-1.1c-1.7,0-2.8,0.9-2.8,2.3c0,1.3,0.9,2,2.4,2.2l0.7,0.1c0.6,0.1,0.9,0.3,0.9,0.8
	c0,0.5-0.4,0.8-1.2,0.8c-0.8,0-1.5-0.4-2-1l-1.1,1.1C316,287.9,316.9,288.4,318.3,288.4z M326,288.4c1.4,0,2.4-0.5,3-1.3l-1-1.1
	c-0.4,0.6-1,1-1.9,1c-1.2,0-1.8-0.7-1.8-1.8V285h4.9v-0.6c0-2-1.1-3.7-3.3-3.7c-2.1,0-3.4,1.5-3.4,3.8
	C322.6,286.9,323.9,288.4,326,288.4z M326,282.1c0.9,0,1.4,0.7,1.4,1.7v0.1h-3v-0.1C324.4,282.8,325.1,282.1,326,282.1z
	 M332.8,288.2v-4.5c0-0.8,0.6-1.1,1.8-1.1h0.6v-1.7h-0.4c-1.2,0-1.8,0.7-1.9,1.5h-0.1v-1.5H331v7.3H332.8z M294.1,297.9
	c0.7,0,1-0.4,1-0.9v-0.3c0-0.5-0.3-0.9-1-0.9c-0.7,0-1,0.4-1,0.9v0.3C293.1,297.5,293.4,297.9,294.1,297.9z M293.2,306.2h1.8v-7.3
	h-1.8V306.2z M299.1,306.2v-4.8c0-0.8,0.7-1.2,1.5-1.2c0.9,0,1.2,0.5,1.2,1.6v4.4h1.8v-4.6c0-1.8-0.8-2.9-2.3-2.9
	c-1.1,0-1.8,0.6-2,1.4h-0.1v-1.2h-1.8v7.3H299.1z M307.9,306.2h1.3v-1.4h-1.4v-4.5h1.5v-1.4h-1.5v-2h-1.6v1.2c0,0.5-0.2,0.8-0.7,0.8
	H305v1.4h1.1v4C306.1,305.6,306.7,306.2,307.9,306.2z M314,306.4c1.4,0,2.4-0.5,3-1.3l-1-1.1c-0.4,0.6-1,1-1.9,1
	c-1.2,0-1.8-0.7-1.8-1.8V303h4.9v-0.6c0-2-1-3.7-3.3-3.7c-2.1,0-3.4,1.5-3.4,3.8C310.5,304.9,311.8,306.4,314,306.4z M313.9,300.1
	c0.9,0,1.4,0.7,1.4,1.7v0.1h-3v-0.1C312.4,300.8,313,300.1,313.9,300.1z M320.8,306.2v-4.5c0-0.8,0.6-1.1,1.8-1.1h0.6v-1.7h-0.4
	c-1.2,0-1.8,0.7-1.9,1.5h-0.1v-1.5H319v7.3H320.8z M325.1,306.2h1.8v-5.9h1.5v-1.4h-1.5v-1.6h1.5v-1.4h-1.3c-1.3,0-2,0.7-2,2v1H324
	v1.4h1.1V306.2z M331.6,306.4c1.1,0,1.9-0.5,2.1-1.4h0.1c0.1,0.8,0.6,1.3,1.4,1.3h1v-1.4h-0.7v-3.4c0-1.7-1.1-2.6-3-2.6
	c-1.5,0-2.3,0.6-2.9,1.4l1.1,1c0.4-0.5,0.8-0.9,1.7-0.9c1,0,1.4,0.5,1.4,1.3v0.5h-1.2c-2,0-3.1,0.7-3.1,2.2
	C329.3,305.6,330.1,306.4,331.6,306.4z M332.2,305.1c-0.7,0-1.1-0.3-1.1-0.9V304c0-0.6,0.5-0.9,1.4-0.9h1.1v1
	C333.6,304.8,333,305.1,332.2,305.1z M340.7,306.4c1.4,0,2.4-0.6,2.9-1.9l-1.4-0.7c-0.3,0.7-0.7,1.1-1.5,1.1c-1,0-1.5-0.7-1.5-1.7
	v-1.3c0-1,0.5-1.7,1.5-1.7c0.8,0,1.2,0.4,1.4,1.1l1.5-0.7c-0.4-1.1-1.4-1.8-2.9-1.8c-2.2,0-3.4,1.5-3.4,3.8
	C337.3,304.9,338.5,306.4,340.7,306.4z M348,306.4c1.4,0,2.4-0.5,3-1.3l-1-1.1c-0.4,0.6-1,1-1.9,1c-1.2,0-1.8-0.7-1.8-1.8V303h4.9
	v-0.6c0-2-1.1-3.7-3.3-3.7c-2.1,0-3.4,1.5-3.4,3.8C344.5,304.9,345.8,306.4,348,306.4z M348,300.1c0.9,0,1.4,0.7,1.4,1.7v0.1h-3
	v-0.1C346.4,300.8,347,300.1,348,300.1z"/>
<path class="st8" d="M603.1,224l21.2,21.2c0.6,0.6,0.6,1.5,0,2.1l-21.2,21.2c-0.6,0.6-1.5,0.6-2.1,0l-21.2-21.2
	c-0.6-0.6-0.6-1.5,0-2.1l21.2-21.2C601.5,223.4,602.5,223.4,603.1,224z"/>
<path d="M602.5,237.5c-1.7,0-3.4,0.5-4.9,1.5c-1.4,1-2.6,2.3-3.2,3.9c-0.7,1.6-0.8,3.4-0.5,5.1c0.3,1.7,1.2,3.3,2.4,4.5
	c1.2,1.2,2.8,2.1,4.5,2.4c1.7,0.3,3.5,0.2,5.1-0.5c1.6-0.7,3-1.8,3.9-3.2c1-1.4,1.5-3.1,1.5-4.9c0-2.3-0.9-4.5-2.6-6.2
	C607.1,238.4,604.8,237.5,602.5,237.5z M602.5,253.8c-1.5,0-2.9-0.4-4.2-1.3c-1.2-0.8-2.2-2-2.8-3.4c-0.6-1.4-0.7-2.9-0.4-4.3
	s1-2.8,2.1-3.8c1-1,2.4-1.8,3.8-2.1c1.5-0.3,3-0.1,4.3,0.4c1.4,0.6,2.5,1.5,3.4,2.8c0.8,1.2,1.3,2.7,1.3,4.2c0,2-0.8,3.9-2.2,5.3
	C606.4,253,604.5,253.8,602.5,253.8z"/>
<path d="M602.5,251.9c0.5,0,0.9-0.4,0.9-0.9c0-0.5-0.4-0.9-0.9-0.9s-0.9,0.4-0.9,0.9C601.6,251.5,602,251.9,602.5,251.9z"/>
<path d="M603.1,241.2h-0.9c-0.4,0-0.7,0.1-1.1,0.2c-0.3,0.1-0.7,0.3-0.9,0.6c-0.3,0.3-0.5,0.6-0.6,0.9c-0.1,0.3-0.2,0.7-0.2,1.1v0.3
	h1.2v-0.3c0-0.4,0.2-0.8,0.5-1.1c0.3-0.3,0.7-0.5,1.1-0.5h0.9c0.4,0,0.8,0.2,1.1,0.5c0.3,0.3,0.5,0.7,0.5,1.1c0,0.4-0.2,0.8-0.5,1.1
	c-0.3,0.3-0.7,0.5-1.1,0.5h-1.2v2.8h1.2v-1.6c0.7,0,1.5-0.3,2-0.8c0.5-0.5,0.8-1.2,0.8-2c0-0.7-0.3-1.5-0.8-2
	C604.6,241.5,603.9,241.2,603.1,241.2z"/>
<path d="M578.8,288.4c1.8,0,2.9-0.9,3.6-2.3l-1.5-0.9c-0.3,0.9-1,1.6-2.1,1.6c-1.4,0-2.3-1-2.3-2.6v-1.5c0-1.7,0.9-2.7,2.3-2.7
	c1.1,0,1.7,0.6,2,1.5l1.6-0.8c-0.7-1.5-1.8-2.3-3.6-2.3c-2.6,0-4.2,1.8-4.2,5.1C574.6,286.7,576.2,288.4,578.8,288.4z M585.8,288.2
	v-4.5c0-0.8,0.6-1.1,1.8-1.1h0.6v-1.7h-0.4c-1.2,0-1.8,0.7-1.9,1.5h-0.1v-1.5H584v7.3H585.8z M592.6,288.4c1.4,0,2.4-0.5,3-1.3
	l-1-1.1c-0.4,0.6-1,1-1.9,1c-1.2,0-1.8-0.7-1.8-1.8V285h4.9v-0.6c0-2-1.1-3.7-3.3-3.7c-2.1,0-3.4,1.5-3.4,3.8
	C589.1,286.9,590.4,288.4,592.6,288.4z M592.5,282.1c0.9,0,1.4,0.7,1.4,1.7v0.1h-3v-0.1C591,282.8,591.6,282.1,592.5,282.1z
	 M599.4,288.4c1.1,0,1.9-0.5,2.1-1.4h0.1c0.1,0.8,0.6,1.3,1.4,1.3h1v-1.4h-0.7v-3.4c0-1.7-1-2.6-3-2.6c-1.5,0-2.3,0.6-2.9,1.4l1.1,1
	c0.3-0.5,0.8-0.9,1.7-0.9c1,0,1.4,0.5,1.4,1.3v0.5h-1.2c-2,0-3.1,0.7-3.1,2.2C597.1,287.6,597.9,288.4,599.4,288.4z M600,287.1
	c-0.7,0-1.1-0.3-1.1-0.9V286c0-0.6,0.5-0.9,1.4-0.9h1.1v1C601.4,286.8,600.8,287.1,600,287.1z M607.8,288.2h1.3v-1.4h-1.4v-4.5h1.5
	v-1.4h-1.5v-2h-1.6v1.2c0,0.5-0.2,0.8-0.7,0.8h-0.6v1.4h1.1v4C605.9,287.6,606.6,288.2,607.8,288.2z M611.8,279.9c0.7,0,1-0.4,1-0.9
	v-0.3c0-0.5-0.3-0.9-1-0.9c-0.7,0-1,0.4-1,0.9v0.3C610.7,279.5,611.1,279.9,611.8,279.9z M610.9,288.2h1.8v-7.3h-1.8V288.2z
	 M617.8,288.4c2.1,0,3.4-1.5,3.4-3.8c0-2.3-1.3-3.8-3.4-3.8c-2.1,0-3.4,1.5-3.4,3.8C614.4,286.9,615.7,288.4,617.8,288.4z
	 M617.8,287c-0.9,0-1.5-0.6-1.5-1.7v-1.4c0-1.1,0.6-1.7,1.5-1.7c0.9,0,1.5,0.6,1.5,1.7v1.4C619.4,286.4,618.8,287,617.8,287z
	 M624.8,288.2v-4.8c0-0.8,0.7-1.2,1.5-1.2c0.9,0,1.2,0.5,1.2,1.6v4.4h1.8v-4.6c0-1.8-0.8-2.9-2.3-2.9c-1.1,0-1.8,0.6-2,1.4h-0.1
	v-1.2H623v7.3H624.8z M579.4,306.2v-4.8c0-0.8,0.7-1.2,1.4-1.2c0.8,0,1.2,0.5,1.2,1.6v4.4h1.8v-4.8c0-0.8,0.7-1.2,1.4-1.2
	c0.8,0,1.2,0.5,1.2,1.6v4.4h1.8v-4.6c0-1.8-0.8-2.9-2.2-2.9c-1.2,0-2,0.7-2.2,1.5h0c-0.4-1-1.1-1.5-2.1-1.5c-1.1,0-1.7,0.6-2,1.4
	h-0.1v-1.2h-1.8v7.3H579.4z M593.2,306.4c1.4,0,2.4-0.5,3-1.3l-1-1.1c-0.4,0.6-1,1-1.9,1c-1.2,0-1.8-0.7-1.8-1.8V303h4.9v-0.6
	c0-2-1-3.7-3.3-3.7c-2.1,0-3.4,1.5-3.4,3.8C589.7,304.9,591,306.4,593.2,306.4z M593.2,300.1c0.9,0,1.4,0.7,1.4,1.7v0.1h-3v-0.1
	C591.6,300.8,592.2,300.1,593.2,300.1z M600.5,306.2h1.3v-1.4h-1.4v-4.5h1.5v-1.4h-1.5v-2h-1.6v1.2c0,0.5-0.2,0.8-0.7,0.8h-0.6v1.4
	h1.1v4C598.6,305.6,599.3,306.2,600.5,306.2z M603.6,306.2h1.8v-4.8c0-0.8,0.7-1.2,1.5-1.2c0.9,0,1.2,0.5,1.2,1.6v4.4h1.8v-4.6
	c0-1.8-0.8-2.9-2.3-2.9c-1.1,0-1.8,0.6-2,1.4h-0.1v-4.3h-1.8V306.2z M614.9,306.4c2.1,0,3.4-1.5,3.4-3.8c0-2.3-1.3-3.8-3.4-3.8
	c-2.1,0-3.4,1.5-3.4,3.8C611.5,304.9,612.8,306.4,614.9,306.4z M614.9,305c-0.9,0-1.5-0.6-1.5-1.7v-1.4c0-1.1,0.6-1.7,1.5-1.7
	c0.9,0,1.5,0.6,1.5,1.7v1.4C616.4,304.4,615.8,305,614.9,305z M624.6,306.2h1.8v-10.4h-1.8v4.3h-0.1c-0.3-0.8-1.1-1.4-2-1.4
	c-1.8,0-2.9,1.4-2.9,3.8c0,2.5,1,3.8,2.9,3.8c1,0,1.8-0.6,2-1.4h0.1V306.2z M623.1,304.9c-0.9,0-1.6-0.7-1.6-1.7V302
	c0-1,0.6-1.7,1.6-1.7c0.9,0,1.5,0.5,1.5,1.2v2.3C624.6,304.5,623.9,304.9,623.1,304.9z"/>
<path class="st3" d="M42,70.8h72c4.1,0,7.5,3.4,7.5,7.5l0,0c0,4.1-3.4,7.5-7.5,7.5H42c-4.1,0-7.5-3.4-7.5-7.5l0,0
	C34.5,74.1,37.9,70.8,42,70.8z"/>
<path d="M44.1,82.2v-3.8h3.6v-0.9h-3.6v-2.8h4v-0.9h-5v8.4H44.1z M50.8,82.2v-4.2c0-0.6,0.6-1,1.7-1H53v-1h-0.4
	c-1,0-1.6,0.6-1.8,1.1h-0.1v-1.1h-1v6.2H50.8z M56.8,82.4c1.7,0,2.8-1.3,2.8-3.2s-1.1-3.2-2.8-3.2S54,77.2,54,79.2
	S55.2,82.4,56.8,82.4z M56.8,81.5c-1,0-1.8-0.6-1.8-1.9v-0.9c0-1.3,0.7-1.9,1.8-1.9s1.8,0.6,1.8,1.9v0.9
	C58.6,80.9,57.8,81.5,56.8,81.5z M62.5,82.2V78c0-0.8,0.7-1.2,1.5-1.2c0.9,0,1.3,0.6,1.3,1.7v3.8h1V78c0-0.8,0.7-1.2,1.5-1.2
	c0.9,0,1.4,0.6,1.4,1.7v3.8h1v-4c0-1.5-0.8-2.4-2-2.4c-1.1,0-1.7,0.6-1.9,1.3h0c-0.3-0.9-1.1-1.3-1.9-1.3c-1,0-1.4,0.5-1.7,1.2h0v-1
	h-1v6.2H62.5z M77.3,82.4c1.4,0,2.3-0.7,2.3-1.9c0-0.9-0.5-1.5-1.9-1.7l-0.5-0.1c-0.8-0.1-1.2-0.4-1.2-1c0-0.6,0.4-1,1.2-1
	s1.3,0.4,1.6,0.8l0.6-0.6c-0.5-0.6-1.2-1-2.2-1c-1.3,0-2.2,0.6-2.2,1.8c0,1.2,0.9,1.6,2,1.8l0.5,0.1c0.8,0.1,1.1,0.5,1.1,1
	c0,0.6-0.5,1-1.3,1c-0.8,0-1.4-0.3-1.8-0.9l-0.7,0.6C75.4,81.9,76.2,82.4,77.3,82.4z M84.1,82.2v-0.8h-1.3v-4.5h1.4v-0.8h-1.4v-1.7
	H82v1.2c0,0.4-0.1,0.6-0.5,0.6h-0.6v0.8h1v4.3c0,0.6,0.4,1,1,1H84.1z M88.4,82.4c1.2,0,2.1-0.6,2.4-1.4l-0.7-0.5
	c-0.3,0.7-0.9,1.1-1.7,1.1c-1.2,0-1.8-0.8-1.8-1.9v-0.3H91v-0.5c0-1.8-1-3-2.7-3c-1.7,0-2.8,1.3-2.8,3.2S86.7,82.4,88.4,82.4z
	 M88.4,76.7c1,0,1.6,0.7,1.6,1.8v0.1h-3.4v-0.1C86.6,77.5,87.3,76.7,88.4,76.7z M92.9,84.7h1v-3.4h0c0.4,0.8,1,1.2,1.8,1.2
	c1.5,0,2.5-1.3,2.5-3.2c0-2-1-3.2-2.5-3.2c-0.9,0-1.5,0.4-1.8,1.2h0v-1h-1V84.7z M95.5,81.5c-0.9,0-1.6-0.5-1.6-1.3V78
	c0-0.7,0.7-1.2,1.6-1.2c1.1,0,1.8,0.7,1.8,1.8v1.1C97.2,80.8,96.6,81.5,95.5,81.5z M108.9,82.2v-0.9h-2.2v-7.5h-1.6l-2.2,2.1
	l0.6,0.6l2.1-2h0.1v6.7h-2.3v0.9H108.9z M111.5,82.4c0.5,0,0.7-0.3,0.7-0.7v-0.2c0-0.4-0.2-0.7-0.7-0.7s-0.7,0.3-0.7,0.7v0.2
	C110.8,82.1,111,82.4,111.5,82.4z"/>
<path class="st9" d="M42,70.8h72c4.1,0,7.5,3.4,7.5,7.5l0,0c0,4.1-3.4,7.5-7.5,7.5H42c-4.1,0-7.5-3.4-7.5-7.5l0,0
	C34.5,74.1,37.9,70.8,42,70.8z"/>
<rect x="762.5" y="438.8" class="st3" width="207" height="127"/>
<rect x="762.5" y="438.8" class="st10" width="207" height="127"/>
<path class="st11" d="M766,438.2h-4v48h4V438.2z"/>
<path d="M783.2,467.2v-1.5h-1.3V459h1.3v-1.5h-4.4v1.5h1.3v6.8h-1.3v1.5H783.2z M786.9,467.2v-4.8c0-0.8,0.7-1.2,1.5-1.2
	c0.9,0,1.2,0.5,1.2,1.6v4.4h1.8v-4.6c0-1.8-0.8-2.9-2.3-2.9c-1.1,0-1.8,0.6-2,1.4h-0.1v-1.2h-1.8v7.3H786.9z M793.9,467.2h1.8v-5.9
	h1.5v-1.4h-1.5v-1.6h1.5v-1.4h-1.3c-1.3,0-2,0.7-2,2v1h-1.1v1.4h1.1V467.2z M800.4,467.2v-4.5c0-0.8,0.6-1.1,1.8-1.1h0.6v-1.7h-0.4
	c-1.2,0-1.8,0.7-1.9,1.5h-0.1v-1.5h-1.8v7.3H800.4z M805.9,467.4c1.1,0,1.9-0.5,2.1-1.4h0.1c0.1,0.8,0.6,1.3,1.4,1.3h1v-1.4h-0.7
	v-3.4c0-1.7-1-2.6-3-2.6c-1.5,0-2.3,0.6-2.9,1.4l1.1,1c0.3-0.5,0.8-0.9,1.7-0.9c1,0,1.4,0.5,1.4,1.3v0.5h-1.2c-2,0-3.1,0.7-3.1,2.2
	C803.5,466.6,804.4,467.4,805.9,467.4z M806.5,466.1c-0.7,0-1.1-0.3-1.1-0.9V465c0-0.6,0.5-0.9,1.4-0.9h1.1v1
	C807.9,465.8,807.3,466.1,806.5,466.1z M814.4,467.4c1.8,0,3-1,3-2.4c0-1.2-0.8-1.9-2.4-2.2l-0.7-0.1c-0.7-0.1-1-0.3-1-0.8
	c0-0.4,0.3-0.8,1.1-0.8c0.7,0,1.3,0.3,1.8,0.8l1-1c-0.7-0.7-1.4-1.1-2.9-1.1c-1.7,0-2.8,0.9-2.8,2.3c0,1.3,0.9,2,2.4,2.2l0.7,0.1
	c0.6,0.1,0.9,0.3,0.9,0.8c0,0.5-0.4,0.8-1.2,0.8c-0.8,0-1.5-0.4-2-1l-1.1,1.1C812.1,466.9,813.1,467.4,814.4,467.4z M821.4,467.2
	h1.3v-1.4h-1.4v-4.5h1.5v-1.4h-1.5v-2h-1.6v1.2c0,0.5-0.2,0.8-0.7,0.8h-0.6v1.4h1.1v4C819.5,466.6,820.1,467.2,821.4,467.2z
	 M826.3,467.2v-4.5c0-0.8,0.6-1.1,1.8-1.1h0.6v-1.7h-0.4c-1.2,0-1.8,0.7-1.9,1.5h-0.1v-1.5h-1.8v7.3H826.3z M834.5,467.2h1.8v-7.3
	h-1.8v4.8c0,0.8-0.7,1.2-1.4,1.2c-0.9,0-1.2-0.5-1.2-1.6v-4.4h-1.8v4.6c0,1.8,0.8,2.9,2.3,2.9c1.2,0,1.8-0.7,2-1.4h0.1V467.2z
	 M841.4,467.4c1.4,0,2.4-0.6,2.9-1.9l-1.4-0.7c-0.3,0.7-0.7,1.1-1.5,1.1c-1,0-1.5-0.7-1.5-1.7v-1.3c0-1,0.5-1.7,1.5-1.7
	c0.8,0,1.2,0.4,1.4,1.1l1.5-0.7c-0.4-1.1-1.4-1.8-2.9-1.8c-2.2,0-3.4,1.5-3.4,3.8C838,465.9,839.3,467.4,841.4,467.4z M848.1,467.2
	h1.3v-1.4H848v-4.5h1.5v-1.4H848v-2h-1.6v1.2c0,0.5-0.2,0.8-0.7,0.8h-0.6v1.4h1.1v4C846.3,466.6,846.9,467.2,848.1,467.2z
	 M855.6,467.2h1.8v-7.3h-1.8v4.8c0,0.8-0.7,1.2-1.4,1.2c-0.9,0-1.2-0.5-1.2-1.6v-4.4h-1.8v4.6c0,1.8,0.8,2.9,2.3,2.9
	c1.2,0,1.8-0.7,2-1.4h0.1V467.2z M861.4,467.2v-4.5c0-0.8,0.6-1.1,1.8-1.1h0.6v-1.7h-0.4c-1.2,0-1.8,0.7-1.9,1.5h-0.1v-1.5h-1.8v7.3
	H861.4z M868.2,467.4c1.4,0,2.4-0.5,3-1.3l-1-1.1c-0.4,0.6-1,1-1.9,1c-1.2,0-1.8-0.7-1.8-1.8V464h4.9v-0.6c0-2-1-3.7-3.3-3.7
	c-2.1,0-3.4,1.5-3.4,3.8C864.7,465.9,866,467.4,868.2,467.4z M868.2,461.1c0.9,0,1.4,0.7,1.4,1.7v0.1h-3v-0.1
	C866.6,461.8,867.2,461.1,868.2,461.1z"/>
<path class="st3" d="M956,182.8h58c4.1,0,7.5,3.4,7.5,7.5l0,0c0,4.1-3.4,7.5-7.5,7.5h-58c-4.1,0-7.5-3.4-7.5-7.5l0,0
	C948.5,186.1,951.9,182.8,956,182.8z"/>
<path d="M962.6,186.8v-0.9h-6.3v0.9h2.7v7.5h1v-7.5H962.6z M965.8,194.4c1.7,0,2.8-1.3,2.8-3.2c0-2-1.1-3.2-2.8-3.2
	s-2.8,1.3-2.8,3.2C963,193.1,964.1,194.4,965.8,194.4z M965.8,193.5c-1,0-1.8-0.6-1.8-1.9v-0.9c0-1.3,0.7-1.9,1.8-1.9
	c1,0,1.8,0.6,1.8,1.9v0.9C967.5,192.9,966.8,193.5,965.8,193.5z M975.5,194.4c1.4,0,2.3-0.7,2.3-1.9c0-0.9-0.5-1.5-1.9-1.7l-0.5-0.1
	c-0.8-0.1-1.2-0.4-1.2-1c0-0.6,0.4-1,1.2-1c0.8,0,1.3,0.4,1.6,0.8l0.6-0.6c-0.5-0.6-1.2-1-2.2-1c-1.3,0-2.2,0.6-2.2,1.8
	c0,1.2,0.9,1.6,2,1.8l0.5,0.1c0.8,0.1,1.1,0.5,1.1,1c0,0.6-0.5,1-1.3,1c-0.8,0-1.4-0.3-1.8-0.9l-0.7,0.6
	C973.6,193.9,974.3,194.4,975.5,194.4z M982.3,194.2v-0.8H981v-4.5h1.4v-0.8H981v-1.7h-0.9v1.2c0,0.4-0.1,0.6-0.5,0.6H979v0.8h1v4.3
	c0,0.6,0.4,1,1,1H982.3z M986.5,194.4c1.2,0,2-0.6,2.4-1.4l-0.7-0.5c-0.3,0.7-0.9,1.1-1.7,1.1c-1.2,0-1.8-0.8-1.8-1.9v-0.3h4.4v-0.5
	c0-1.8-1-3-2.7-3c-1.7,0-2.8,1.3-2.8,3.2C983.7,193.1,984.8,194.4,986.5,194.4z M986.5,188.7c1,0,1.6,0.7,1.6,1.8v0.1h-3.4v-0.1
	C984.7,189.5,985.5,188.7,986.5,188.7z M991.1,196.6h1v-3.4h0.1c0.4,0.8,1,1.2,1.8,1.2c1.5,0,2.5-1.3,2.5-3.2c0-2-1-3.2-2.5-3.2
	c-0.9,0-1.5,0.4-1.8,1.2H992v-1h-1V196.6z M993.6,193.5c-0.9,0-1.6-0.5-1.6-1.3V190c0-0.7,0.7-1.2,1.6-1.2c1.1,0,1.8,0.7,1.8,1.8
	v1.1C995.4,192.8,994.7,193.5,993.6,193.5z M1002.7,189.4v0.9h1c1.2,0,1.8,0.6,1.8,1.5v0.1c0,1-0.6,1.5-1.8,1.5c-1,0-1.5-0.4-2-1.1
	l-0.8,0.6c0.5,0.7,1.3,1.4,2.7,1.4c1.7,0,2.8-1,2.8-2.4c0-1.3-0.9-1.9-1.8-2.1v0c0.9-0.2,1.6-0.9,1.6-2c0-1.4-1.1-2.1-2.5-2.1
	c-1.3,0-2.1,0.7-2.5,1.4l0.7,0.6c0.4-0.6,0.9-1,1.7-1c0.9,0,1.5,0.4,1.5,1.3v0.1c0,0.8-0.6,1.4-1.7,1.4H1002.7z M1009.7,194.4
	c0.5,0,0.7-0.3,0.7-0.7v-0.2c0-0.4-0.2-0.7-0.7-0.7c-0.5,0-0.7,0.3-0.7,0.7v0.2C1008.9,194.1,1009.1,194.4,1009.7,194.4z"/>
<path class="st9" d="M956,182.8h58c4.1,0,7.5,3.4,7.5,7.5l0,0c0,4.1-3.4,7.5-7.5,7.5h-58c-4.1,0-7.5-3.4-7.5-7.5l0,0
	C948.5,186.1,951.9,182.8,956,182.8z"/>
<path class="st12" d="M779.7,502.8H946c4.4,0,8,3.6,8,8v31c0,4.4-3.6,8-8,8H779.7V502.8z"/>
<path class="st11" d="M782,502.2h-4v48h4V502.2z"/>
<path d="M800.8,531.2v-1.6H797v-8.1h-1.8v9.8H800.8z M805.3,531.4c2.1,0,3.4-1.5,3.4-3.8c0-2.3-1.3-3.8-3.4-3.8
	c-2.1,0-3.4,1.5-3.4,3.8C801.9,529.9,803.2,531.4,805.3,531.4z M805.3,530c-0.9,0-1.5-0.6-1.5-1.7v-1.4c0-1.1,0.6-1.7,1.5-1.7
	c0.9,0,1.5,0.6,1.5,1.7v1.4C806.8,529.4,806.2,530,805.3,530z M813.3,531.4c1.4,0,2.4-0.6,2.9-1.9l-1.4-0.7
	c-0.3,0.7-0.7,1.1-1.5,1.1c-1,0-1.5-0.7-1.5-1.7v-1.3c0-1,0.5-1.7,1.5-1.7c0.8,0,1.2,0.4,1.4,1.1l1.5-0.7c-0.4-1.1-1.4-1.8-2.9-1.8
	c-2.2,0-3.4,1.5-3.4,3.8C809.9,529.9,811.1,531.4,813.3,531.4z M819.6,531.4c1.1,0,1.9-0.5,2.1-1.4h0.1c0.1,0.8,0.6,1.3,1.4,1.3h1
	v-1.4h-0.7v-3.4c0-1.7-1-2.6-3-2.6c-1.5,0-2.3,0.6-2.9,1.4l1.1,1c0.3-0.5,0.8-0.9,1.7-0.9c1,0,1.4,0.5,1.4,1.3v0.5h-1.2
	c-2,0-3.1,0.7-3.1,2.2C817.2,530.6,818.1,531.4,819.6,531.4z M820.2,530.1c-0.7,0-1.1-0.3-1.1-0.9V529c0-0.6,0.5-0.9,1.4-0.9h1.1v1
	C821.6,529.8,821,530.1,820.2,530.1z M828,531.2h1.3v-1.4h-1.4v-4.5h1.5v-1.4h-1.5v-2h-1.6v1.2c0,0.5-0.2,0.8-0.7,0.8H825v1.4h1.1v4
	C826.1,530.6,826.7,531.2,828,531.2z M832,522.9c0.7,0,1-0.4,1-0.9v-0.3c0-0.5-0.3-0.9-1-0.9c-0.7,0-1,0.4-1,0.9v0.3
	C830.9,522.5,831.2,522.9,832,522.9z M831.1,531.2h1.8v-7.3h-1.8V531.2z M838,531.4c2.1,0,3.4-1.5,3.4-3.8c0-2.3-1.3-3.8-3.4-3.8
	c-2.1,0-3.4,1.5-3.4,3.8C834.6,529.9,835.9,531.4,838,531.4z M838,530c-0.9,0-1.5-0.6-1.5-1.7v-1.4c0-1.1,0.6-1.7,1.5-1.7
	c0.9,0,1.5,0.6,1.5,1.7v1.4C839.5,529.4,838.9,530,838,530z M844.9,531.2v-4.8c0-0.8,0.7-1.2,1.5-1.2c0.9,0,1.2,0.5,1.2,1.6v4.4h1.8
	v-4.6c0-1.8-0.8-2.9-2.3-2.9c-1.1,0-1.8,0.6-2,1.4h-0.1v-1.2h-1.8v7.3H844.9z"/>
</svg>
