<?xml version="1.0" encoding="utf-8"?>
<!-- Generator: Adobe Illustrator 26.4.1, SVG Export Plug-In . SVG Version: 6.00 Build 0)  -->
<svg version="1.1" id="Layer_1" xmlns="http://www.w3.org/2000/svg" xmlns:xlink="http://www.w3.org/1999/xlink" x="0px" y="0px"
	 viewBox="0 0 1080 720" style="enable-background:new 0 0 1080 720;" xml:space="preserve">
<style type="text/css">
	.st0{fill:#F4F4F4;}
	.st1{fill:#565151;}
	.st2{fill:#FFFFFF;stroke:#8D8D8D;}
	.st3{fill:#8D8D8D;}
	.st4{fill:#F4F4F4;stroke:#8D8D8D;}
	.st5{fill:#FFFFFF;}
	.st6{fill:none;stroke:#1192E8;}
	.st7{fill:#1192E8;stroke:#1192E8;}
	.st8{fill:none;stroke:#000000;}
	.st9{fill:#00539A;}
	.st10{fill:none;stroke:#00539A;}
</style>
<rect class="st0" width="1080" height="720"/>
<path class="st1" d="M187,77.1l5,2.9l-5,2.9v-2.4h-52v-1h52V77.1z"/>
<path class="st1" d="M987,390.5c4.1,0,7.5-3.4,7.5-7.5V205h-2.4l2.9-5l2.9,5h-2.4v178c0,4.7-3.8,8.5-8.5,8.5h-67v-1H987z"/>
<path class="st1" d="M216.5,224v-56h-1v56H216.5z"/>
<rect x="144.5" y="224.5" class="st2" width="775" height="432"/>
<path class="st3" d="M148,224h-4v48h4V224z"/>
<path d="M165.2,253v-1.5h-1.3v-6.8h1.3v-1.5h-4.4v1.5h1.3v6.8h-1.3v1.5H165.2z M168.9,253v-4.8c0-0.8,0.7-1.2,1.5-1.2
	c0.9,0,1.2,0.5,1.2,1.6v4.4h1.8v-4.6c0-1.8-0.8-2.9-2.3-2.9c-1.1,0-1.8,0.6-2,1.4h-0.1v-1.2h-1.8v7.3H168.9z M175.9,253h1.8v-5.9
	h1.5v-1.4h-1.5v-1.6h1.5v-1.4h-1.3c-1.3,0-2,0.7-2,2v1.1h-1.1v1.4h1.1V253z M182.4,253v-4.5c0-0.8,0.6-1.1,1.8-1.1h0.6v-1.7h-0.4
	c-1.2,0-1.8,0.7-1.9,1.5h-0.1v-1.5h-1.8v7.3H182.4z M187.9,253.2c1.1,0,1.9-0.5,2.1-1.4h0.1c0.1,0.8,0.6,1.3,1.4,1.3h1v-1.4h-0.7
	v-3.4c0-1.7-1.1-2.6-3-2.6c-1.5,0-2.3,0.6-2.9,1.4l1.1,1c0.3-0.5,0.8-0.9,1.7-0.9c1,0,1.4,0.5,1.4,1.3v0.5h-1.2
	c-2,0-3.1,0.7-3.1,2.2C185.5,252.3,186.4,253.2,187.9,253.2z M188.5,251.9c-0.7,0-1.1-0.3-1.1-0.9v-0.2c0-0.6,0.5-0.9,1.4-0.9h1.1v1
	C189.9,251.5,189.3,251.9,188.5,251.9z M196.4,253.2c1.8,0,3-1,3-2.4c0-1.2-0.8-1.9-2.4-2.2l-0.7-0.1c-0.7-0.1-1-0.3-1-0.8
	c0-0.4,0.3-0.8,1.1-0.8c0.7,0,1.3,0.3,1.8,0.8l1.1-1.1c-0.7-0.7-1.4-1.1-2.9-1.1c-1.7,0-2.8,0.9-2.8,2.3c0,1.3,0.9,2,2.4,2.2
	l0.7,0.1c0.6,0.1,0.9,0.4,0.9,0.8c0,0.5-0.4,0.8-1.2,0.8c-0.8,0-1.5-0.4-2-1l-1.1,1.1C194.1,252.7,195.1,253.2,196.4,253.2z
	 M203.4,253h1.3v-1.4h-1.4v-4.5h1.5v-1.4h-1.5v-2h-1.6v1.2c0,0.5-0.2,0.8-0.7,0.8h-0.6v1.4h1.1v4C201.5,252.3,202.1,253,203.4,253z
	 M208.3,253v-4.5c0-0.8,0.6-1.1,1.8-1.1h0.6v-1.7h-0.4c-1.2,0-1.8,0.7-1.9,1.5h-0.1v-1.5h-1.8v7.3H208.3z M216.5,253h1.8v-7.3h-1.8
	v4.8c0,0.8-0.7,1.2-1.4,1.2c-0.9,0-1.2-0.5-1.2-1.6v-4.4h-1.8v4.6c0,1.8,0.8,2.9,2.3,2.9c1.2,0,1.8-0.7,2-1.4h0.1V253z M223.4,253.2
	c1.4,0,2.4-0.6,2.9-1.9l-1.4-0.7c-0.3,0.7-0.7,1.1-1.5,1.1c-1,0-1.5-0.7-1.5-1.7v-1.3c0-1,0.5-1.7,1.5-1.7c0.8,0,1.2,0.4,1.4,1.1
	l1.5-0.7c-0.4-1.1-1.4-1.8-2.9-1.8c-2.2,0-3.4,1.5-3.4,3.8C220,251.7,221.3,253.2,223.4,253.2z M230.1,253h1.3v-1.4H230v-4.5h1.5
	v-1.4H230v-2h-1.6v1.2c0,0.5-0.2,0.8-0.7,0.8h-0.6v1.4h1.1v4C228.3,252.3,228.9,253,230.1,253z M237.6,253h1.8v-7.3h-1.8v4.8
	c0,0.8-0.7,1.2-1.4,1.2c-0.9,0-1.2-0.5-1.2-1.6v-4.4h-1.8v4.6c0,1.8,0.8,2.9,2.3,2.9c1.2,0,1.8-0.7,2-1.4h0.1V253z M243.4,253v-4.5
	c0-0.8,0.6-1.1,1.8-1.1h0.6v-1.7h-0.4c-1.2,0-1.8,0.7-1.9,1.5h-0.1v-1.5h-1.8v7.3H243.4z M250.2,253.2c1.4,0,2.4-0.5,3-1.3l-1-1.1
	c-0.4,0.6-1,1-1.9,1c-1.2,0-1.8-0.7-1.8-1.8v-0.2h4.9v-0.6c0-2-1-3.7-3.3-3.7c-2.1,0-3.4,1.5-3.4,3.8
	C246.7,251.7,248,253.2,250.2,253.2z M250.2,246.9c0.9,0,1.4,0.7,1.4,1.7v0.1h-3v-0.1C248.6,247.6,249.2,246.9,250.2,246.9z"/>
<path class="st4" d="M160.5,288.5H896c4.1,0,7.5,3.4,7.5,7.5v336c0,4.1-3.4,7.5-7.5,7.5H168c-4.1,0-7.5-3.4-7.5-7.5V288.5z"/>
<path class="st3" d="M164,288h-4v48h4V288z"/>
<path d="M182.8,317v-1.6H179v-8.1h-1.8v9.8H182.8z M187.3,317.2c2.1,0,3.4-1.5,3.4-3.8c0-2.3-1.3-3.8-3.4-3.8
	c-2.1,0-3.4,1.5-3.4,3.8C183.9,315.7,185.2,317.2,187.3,317.2z M187.3,315.7c-0.9,0-1.5-0.6-1.5-1.7v-1.4c0-1.1,0.6-1.7,1.5-1.7
	c0.9,0,1.5,0.6,1.5,1.7v1.4C188.8,315.1,188.2,315.7,187.3,315.7z M195.3,317.2c1.4,0,2.4-0.6,2.9-1.9l-1.4-0.7
	c-0.3,0.7-0.7,1.1-1.5,1.1c-1,0-1.5-0.7-1.5-1.7v-1.3c0-1,0.5-1.7,1.5-1.7c0.8,0,1.2,0.4,1.4,1.1l1.5-0.7c-0.4-1.1-1.4-1.8-2.9-1.8
	c-2.2,0-3.4,1.5-3.4,3.8C191.9,315.7,193.1,317.2,195.3,317.2z M201.6,317.2c1.1,0,1.9-0.5,2.1-1.4h0.1c0.1,0.8,0.6,1.3,1.4,1.3h1
	v-1.4h-0.7v-3.4c0-1.7-1.1-2.6-3-2.6c-1.5,0-2.3,0.6-2.9,1.4l1.1,1c0.3-0.5,0.8-0.9,1.7-0.9c1,0,1.4,0.5,1.4,1.3v0.5h-1.2
	c-2,0-3.1,0.7-3.1,2.2C199.2,316.3,200.1,317.2,201.6,317.2z M202.2,315.9c-0.7,0-1.1-0.3-1.1-0.9v-0.2c0-0.6,0.5-0.9,1.4-0.9h1.1v1
	C203.6,315.5,203,315.9,202.2,315.9z M210,317h1.3v-1.4h-1.4v-4.5h1.5v-1.4h-1.5v-2h-1.6v1.2c0,0.5-0.2,0.8-0.7,0.8H207v1.4h1.1v4
	C208.1,316.3,208.7,317,210,317z M214,308.6c0.7,0,1.1-0.4,1.1-0.9v-0.3c0-0.5-0.3-0.9-1.1-0.9c-0.7,0-1.1,0.4-1.1,0.9v0.3
	C212.9,308.2,213.2,308.6,214,308.6z M213.1,317h1.8v-7.3h-1.8V317z M220,317.2c2.1,0,3.4-1.5,3.4-3.8c0-2.3-1.3-3.8-3.4-3.8
	c-2.1,0-3.4,1.5-3.4,3.8C216.6,315.7,217.9,317.2,220,317.2z M220,315.7c-0.9,0-1.5-0.6-1.5-1.7v-1.4c0-1.1,0.6-1.7,1.5-1.7
	c0.9,0,1.5,0.6,1.5,1.7v1.4C221.5,315.1,220.9,315.7,220,315.7z M226.9,317v-4.8c0-0.8,0.7-1.2,1.5-1.2c0.9,0,1.2,0.5,1.2,1.6v4.4
	h1.8v-4.6c0-1.8-0.8-2.9-2.3-2.9c-1.1,0-1.8,0.6-2,1.4h-0.1v-1.2h-1.8v7.3H226.9z"/>
<rect x="176.5" y="544.5" class="st5" width="711" height="79"/>
<path d="M199.9,571.4h-5.2l5.1-6.5v-1.7h-6.9v1.6h4.8l-5.1,6.5v1.7h7.3V571.4z M204.4,573.2c2.1,0,3.4-1.5,3.4-3.8
	c0-2.3-1.3-3.8-3.4-3.8c-2.1,0-3.4,1.5-3.4,3.8C201,571.7,202.3,573.2,204.4,573.2z M204.4,571.7c-0.9,0-1.5-0.6-1.5-1.7v-1.4
	c0-1.1,0.6-1.7,1.5-1.7c0.9,0,1.5,0.6,1.5,1.7v1.4C205.9,571.1,205.3,571.7,204.4,571.7z M211.3,573v-4.8c0-0.8,0.7-1.2,1.5-1.2
	c0.9,0,1.2,0.5,1.2,1.6v4.4h1.8v-4.6c0-1.8-0.8-2.9-2.3-2.9c-1.1,0-1.8,0.6-2,1.4h-0.1v-1.2h-1.8v7.3H211.3z M220.9,573.2
	c1.4,0,2.4-0.5,3-1.3l-1-1.1c-0.4,0.6-1,1-1.9,1c-1.2,0-1.8-0.7-1.8-1.8v-0.2h4.9v-0.6c0-2-1-3.7-3.3-3.7c-2.1,0-3.4,1.5-3.4,3.8
	C217.5,571.7,218.7,573.2,220.9,573.2z M220.9,566.9c0.9,0,1.4,0.7,1.4,1.7v0.1h-3v-0.1C219.3,567.6,219.9,566.9,220.9,566.9z
	 M231,567.2v1.5h1c1.2,0,1.8,0.5,1.8,1.4v0.1c0,0.9-0.6,1.5-1.7,1.5c-1.1,0-1.7-0.6-2.1-1.3l-1.4,1c0.6,1,1.6,1.8,3.5,1.8
	c2.2,0,3.6-1.1,3.6-2.9c0-1.4-0.9-2.2-2-2.4v-0.1c1-0.2,1.9-1,1.9-2.2c0-1.6-1.3-2.5-3.3-2.5c-1.7,0-2.6,0.7-3.2,1.6l1.2,1.1
	c0.5-0.7,1.1-1.2,2-1.2c0.9,0,1.4,0.5,1.4,1.3v0.1c0,0.7-0.5,1.2-1.6,1.2H231z"/>
<rect x="176.5" y="544.5" class="st6" width="711" height="79"/>
<rect x="272" y="559" class="st5" width="48" height="48"/>
<rect x="272.5" y="559.5" class="st6" width="47" height="47"/>
<rect x="275.5" y="562.5" class="st7" width="41" height="41"/>
<path class="st5" d="M299.1,583h-6.2c-0.3,0-0.6,0.1-0.9,0.4c-0.2,0.2-0.4,0.6-0.4,0.9v3.8c0,0.3,0.1,0.6,0.4,0.9
	c0.2,0.2,0.6,0.4,0.9,0.4h2.5v1.2h-1.9v1.2h5v-1.2h-1.9v-1.2h2.5c0.3,0,0.6-0.1,0.9-0.4c0.2-0.2,0.4-0.6,0.4-0.9v-3.8
	c0-0.3-0.1-0.6-0.4-0.9C299.8,583.1,299.5,583,299.1,583z M292.9,588v-3.8h6.2l0,3.8H292.9z"/>
<path class="st5" d="M302.1,579.3c-0.3-1.4-1-2.7-2.2-3.6c-1.1-0.9-2.5-1.4-4-1.4s-2.9,0.5-4,1.4c-1.1,0.9-1.9,2.2-2.2,3.6
	c-1.1,0.2-2.1,0.8-2.9,1.7c-0.7,0.9-1.1,2-1,3.2c0.1,1.1,0.5,2.2,1.3,3c0.8,0.8,1.9,1.3,3,1.4v-1.2c-0.9-0.1-1.7-0.5-2.2-1.1
	c-0.6-0.6-0.9-1.5-0.9-2.3c0-0.9,0.3-1.7,0.9-2.3c0.6-0.6,1.4-1,2.3-1.1l0.5,0l0.1-0.5c0.1-1.2,0.7-2.4,1.6-3.2
	c0.9-0.8,2.1-1.3,3.3-1.3s2.4,0.5,3.3,1.3c0.9,0.8,1.5,2,1.6,3.2l0.1,0.5l0.5,0c0.9,0.1,1.7,0.4,2.3,1.1c0.6,0.6,0.9,1.5,0.9,2.3
	c0,0.9-0.3,1.7-0.9,2.3c-0.6,0.6-1.4,1-2.2,1.1v1.2c1.1-0.1,2.2-0.6,3-1.4c0.8-0.8,1.3-1.9,1.3-3c0.1-1.1-0.3-2.3-1-3.2
	C304.3,580.1,303.3,579.5,302.1,579.3z"/>
<path d="M335.1,587h1.8v-9.8h-1.8v4H331v-4h-1.8v9.8h1.8v-4.1h4.1V587z M342.2,587.2c2.1,0,3.4-1.5,3.4-3.8c0-2.3-1.3-3.8-3.4-3.8
	c-2.1,0-3.4,1.5-3.4,3.8C338.8,585.7,340.1,587.2,342.2,587.2z M342.2,585.7c-0.9,0-1.5-0.6-1.5-1.7v-1.4c0-1.1,0.6-1.7,1.5-1.7
	c0.9,0,1.5,0.6,1.5,1.7v1.4C343.7,585.1,343.1,585.7,342.2,585.7z M349.7,587.2c1.8,0,3-1,3-2.4c0-1.2-0.8-1.9-2.4-2.2l-0.7-0.1
	c-0.7-0.1-1-0.3-1-0.8c0-0.4,0.3-0.8,1.1-0.8c0.7,0,1.3,0.3,1.8,0.8l1.1-1c-0.7-0.7-1.4-1.1-2.9-1.1c-1.7,0-2.8,0.9-2.8,2.3
	c0,1.3,0.9,2,2.4,2.2l0.7,0.1c0.6,0.1,0.9,0.4,0.9,0.8c0,0.5-0.4,0.8-1.2,0.8c-0.8,0-1.5-0.4-2-1l-1.1,1.1
	C347.4,586.7,348.3,587.2,349.7,587.2z M356.6,587h1.3v-1.4h-1.4v-4.5h1.5v-1.4h-1.5v-2h-1.6v1.2c0,0.5-0.2,0.8-0.7,0.8h-0.6v1.4
	h1.1v4C354.7,586.3,355.4,587,356.6,587z"/>
<rect x="392" y="559" class="st5" width="48" height="48"/>
<rect x="392.5" y="559.5" class="st6" width="47" height="47"/>
<rect x="395.5" y="562.5" class="st7" width="41" height="41"/>
<path class="st5" d="M419.1,583h-6.2c-0.3,0-0.6,0.1-0.9,0.4c-0.2,0.2-0.4,0.6-0.4,0.9v3.8c0,0.3,0.1,0.6,0.4,0.9
	c0.2,0.2,0.6,0.4,0.9,0.4h2.5v1.2h-1.9v1.2h5v-1.2h-1.9v-1.2h2.5c0.3,0,0.6-0.1,0.9-0.4c0.2-0.2,0.4-0.6,0.4-0.9v-3.8
	c0-0.3-0.1-0.6-0.4-0.9C419.8,583.1,419.5,583,419.1,583z M412.9,588v-3.8h6.2l0,3.8H412.9z"/>
<path class="st5" d="M422.1,579.3c-0.3-1.4-1-2.7-2.2-3.6c-1.1-0.9-2.5-1.4-4-1.4s-2.9,0.5-4,1.4c-1.1,0.9-1.9,2.2-2.2,3.6
	c-1.1,0.2-2.1,0.8-2.9,1.7c-0.7,0.9-1.1,2-1,3.2c0.1,1.1,0.5,2.2,1.3,3c0.8,0.8,1.9,1.3,3,1.4v-1.2c-0.9-0.1-1.7-0.5-2.2-1.1
	c-0.6-0.6-0.9-1.5-0.9-2.3c0-0.9,0.3-1.7,0.9-2.3c0.6-0.6,1.4-1,2.3-1.1l0.5,0l0.1-0.5c0.1-1.2,0.7-2.4,1.6-3.2
	c0.9-0.8,2.1-1.3,3.3-1.3s2.4,0.5,3.3,1.3c0.9,0.8,1.5,2,1.6,3.2l0.1,0.5l0.5,0c0.9,0.1,1.7,0.4,2.3,1.1c0.6,0.6,0.9,1.5,0.9,2.3
	c0,0.9-0.3,1.7-0.9,2.3c-0.6,0.6-1.4,1-2.2,1.1v1.2c1.1-0.1,2.2-0.6,3-1.4c0.8-0.8,1.3-1.9,1.3-3c0.1-1.1-0.3-2.3-1-3.2
	C424.3,580.1,423.3,579.5,422.1,579.3z"/>
<path d="M455.1,587h1.8v-9.8h-1.8v4H451v-4h-1.8v9.8h1.8v-4.1h4.1V587z M462.2,587.2c2.1,0,3.4-1.5,3.4-3.8c0-2.3-1.3-3.8-3.4-3.8
	c-2.1,0-3.4,1.5-3.4,3.8C458.8,585.7,460.1,587.2,462.2,587.2z M462.2,585.7c-0.9,0-1.5-0.6-1.5-1.7v-1.4c0-1.1,0.6-1.7,1.5-1.7
	c0.9,0,1.5,0.6,1.5,1.7v1.4C463.7,585.1,463.1,585.7,462.2,585.7z M469.7,587.2c1.8,0,3-1,3-2.4c0-1.2-0.8-1.9-2.4-2.2l-0.7-0.1
	c-0.7-0.1-1-0.3-1-0.8c0-0.4,0.3-0.8,1.1-0.8c0.7,0,1.3,0.3,1.8,0.8l1.1-1c-0.7-0.7-1.4-1.1-2.9-1.1c-1.7,0-2.8,0.9-2.8,2.3
	c0,1.3,0.9,2,2.4,2.2l0.7,0.1c0.6,0.1,0.9,0.4,0.9,0.8c0,0.5-0.4,0.8-1.2,0.8c-0.8,0-1.5-0.4-2-1l-1.1,1.1
	C467.4,586.7,468.3,587.2,469.7,587.2z M476.6,587h1.3v-1.4h-1.4v-4.5h1.5v-1.4h-1.5v-2h-1.6v1.2c0,0.5-0.2,0.8-0.7,0.8h-0.6v1.4
	h1.1v4C474.7,586.3,475.4,587,476.6,587z"/>
<rect x="512" y="559" class="st5" width="48" height="48"/>
<rect x="512.5" y="559.5" class="st5" width="47" height="47"/>
<rect x="512.5" y="559.5" class="st6" width="47" height="47"/>
<rect x="515.5" y="562.5" class="st7" width="41" height="41"/>
<path class="st5" d="M539.1,583h-6.2c-0.3,0-0.6,0.1-0.9,0.4c-0.2,0.2-0.4,0.6-0.4,0.9v3.8c0,0.3,0.1,0.6,0.4,0.9
	c0.2,0.2,0.6,0.4,0.9,0.4h2.5v1.2h-1.9v1.2h5v-1.2h-1.9v-1.2h2.5c0.3,0,0.6-0.1,0.9-0.4c0.2-0.2,0.4-0.6,0.4-0.9v-3.8
	c0-0.3-0.1-0.6-0.4-0.9C539.8,583.1,539.5,583,539.1,583z M532.9,588v-3.8h6.2l0,3.8H532.9z"/>
<path class="st5" d="M542.1,579.3c-0.3-1.4-1-2.7-2.2-3.6c-1.1-0.9-2.5-1.4-4-1.4s-2.9,0.5-4,1.4c-1.1,0.9-1.9,2.2-2.2,3.6
	c-1.1,0.2-2.1,0.8-2.9,1.7c-0.7,0.9-1.1,2-1,3.2c0.1,1.1,0.5,2.2,1.3,3c0.8,0.8,1.9,1.3,3,1.4v-1.2c-0.9-0.1-1.7-0.5-2.2-1.1
	c-0.6-0.6-0.9-1.5-0.9-2.3c0-0.9,0.3-1.7,0.9-2.3c0.6-0.6,1.4-1,2.3-1.1l0.5,0l0.1-0.5c0.1-1.2,0.7-2.4,1.6-3.2
	c0.9-0.8,2.1-1.3,3.3-1.3s2.4,0.5,3.3,1.3c0.9,0.8,1.5,2,1.6,3.2l0.1,0.5l0.5,0c0.9,0.1,1.7,0.4,2.3,1.1c0.6,0.6,0.9,1.5,0.9,2.3
	c0,0.9-0.3,1.7-0.9,2.3c-0.6,0.6-1.4,1-2.2,1.1v1.2c1.1-0.1,2.2-0.6,3-1.4c0.8-0.8,1.3-1.9,1.3-3c0.1-1.1-0.3-2.3-1-3.2
	C544.3,580.1,543.3,579.5,542.1,579.3z"/>
<path d="M575.1,587h1.8v-9.8h-1.8v4H571v-4h-1.8v9.8h1.8v-4.1h4.1V587z M582.2,587.2c2.1,0,3.4-1.5,3.4-3.8c0-2.3-1.3-3.8-3.4-3.8
	c-2.1,0-3.4,1.5-3.4,3.8C578.8,585.7,580.1,587.2,582.2,587.2z M582.2,585.7c-0.9,0-1.5-0.6-1.5-1.7v-1.4c0-1.1,0.6-1.7,1.5-1.7
	c0.9,0,1.5,0.6,1.5,1.7v1.4C583.7,585.1,583.1,585.7,582.2,585.7z M589.7,587.2c1.8,0,3-1,3-2.4c0-1.2-0.8-1.9-2.4-2.2l-0.7-0.1
	c-0.7-0.1-1-0.3-1-0.8c0-0.4,0.3-0.8,1.1-0.8c0.7,0,1.3,0.3,1.8,0.8l1-1c-0.7-0.7-1.4-1.1-2.9-1.1c-1.7,0-2.8,0.9-2.8,2.3
	c0,1.3,0.9,2,2.4,2.2l0.7,0.1c0.6,0.1,0.9,0.4,0.9,0.8c0,0.5-0.4,0.8-1.2,0.8c-0.8,0-1.5-0.4-2-1l-1.1,1.1
	C587.4,586.7,588.3,587.2,589.7,587.2z M596.6,587h1.3v-1.4h-1.4v-4.5h1.5v-1.4h-1.5v-2h-1.6v1.2c0,0.5-0.2,0.8-0.7,0.8h-0.6v1.4
	h1.1v4C594.7,586.3,595.4,587,596.6,587z"/>
<rect x="632" y="559" class="st5" width="48" height="48"/>
<rect x="632.5" y="559.5" class="st6" width="47" height="47"/>
<rect x="635.5" y="562.5" class="st7" width="41" height="41"/>
<path class="st5" d="M659.1,583h-6.2c-0.3,0-0.6,0.1-0.9,0.4c-0.2,0.2-0.4,0.6-0.4,0.9v3.8c0,0.3,0.1,0.6,0.4,0.9
	c0.2,0.2,0.6,0.4,0.9,0.4h2.5v1.2h-1.9v1.2h5v-1.2h-1.9v-1.2h2.5c0.3,0,0.6-0.1,0.9-0.4c0.2-0.2,0.4-0.6,0.4-0.9v-3.8
	c0-0.3-0.1-0.6-0.4-0.9C659.8,583.1,659.5,583,659.1,583z M652.9,588v-3.8h6.2l0,3.8H652.9z"/>
<path class="st5" d="M662.1,579.3c-0.3-1.4-1-2.7-2.2-3.6c-1.1-0.9-2.5-1.4-4-1.4s-2.9,0.5-4,1.4c-1.1,0.9-1.9,2.2-2.2,3.6
	c-1.1,0.2-2.1,0.8-2.9,1.7c-0.7,0.9-1.1,2-1,3.2c0.1,1.1,0.5,2.2,1.3,3c0.8,0.8,1.9,1.3,3,1.4v-1.2c-0.9-0.1-1.7-0.5-2.2-1.1
	c-0.6-0.6-0.9-1.5-0.9-2.3c0-0.9,0.3-1.7,0.9-2.3c0.6-0.6,1.4-1,2.3-1.1l0.5,0l0.1-0.5c0.1-1.2,0.7-2.4,1.6-3.2
	c0.9-0.8,2.1-1.3,3.3-1.3s2.4,0.5,3.3,1.3c0.9,0.8,1.5,2,1.6,3.2l0.1,0.5l0.5,0c0.9,0.1,1.7,0.4,2.3,1.1c0.6,0.6,0.9,1.5,0.9,2.3
	c0,0.9-0.3,1.7-0.9,2.3c-0.6,0.6-1.4,1-2.2,1.1v1.2c1.1-0.1,2.2-0.6,3-1.4c0.8-0.8,1.3-1.9,1.3-3c0.1-1.1-0.3-2.3-1-3.2
	C664.3,580.1,663.3,579.5,662.1,579.3z"/>
<path d="M695.1,587h1.8v-9.8h-1.8v4H691v-4h-1.8v9.8h1.8v-4.1h4.1V587z M702.2,587.2c2.1,0,3.4-1.5,3.4-3.8c0-2.3-1.3-3.8-3.4-3.8
	c-2.1,0-3.4,1.5-3.4,3.8C698.8,585.7,700.1,587.2,702.2,587.2z M702.2,585.7c-0.9,0-1.5-0.6-1.5-1.7v-1.4c0-1.1,0.6-1.7,1.5-1.7
	c0.9,0,1.5,0.6,1.5,1.7v1.4C703.7,585.1,703.1,585.7,702.2,585.7z M709.7,587.2c1.8,0,3-1,3-2.4c0-1.2-0.8-1.9-2.4-2.2l-0.7-0.1
	c-0.7-0.1-1-0.3-1-0.8c0-0.4,0.3-0.8,1.1-0.8c0.7,0,1.3,0.3,1.8,0.8l1-1c-0.7-0.7-1.4-1.1-2.9-1.1c-1.7,0-2.8,0.9-2.8,2.3
	c0,1.3,0.9,2,2.4,2.2l0.7,0.1c0.6,0.1,0.9,0.4,0.9,0.8c0,0.5-0.4,0.8-1.2,0.8c-0.8,0-1.5-0.4-2-1l-1.1,1.1
	C707.4,586.7,708.3,587.2,709.7,587.2z M716.6,587h1.3v-1.4h-1.4v-4.5h1.5v-1.4h-1.5v-2h-1.6v1.2c0,0.5-0.2,0.8-0.7,0.8h-0.6v1.4
	h1.1v4C714.7,586.3,715.4,587,716.6,587z"/>
<rect x="752" y="559" class="st5" width="48" height="48"/>
<rect x="752.5" y="559.5" class="st6" width="47" height="47"/>
<rect x="755.5" y="562.5" class="st7" width="41" height="41"/>
<path class="st5" d="M779.1,583h-6.2c-0.3,0-0.6,0.1-0.9,0.4c-0.2,0.2-0.4,0.6-0.4,0.9v3.8c0,0.3,0.1,0.6,0.4,0.9
	c0.2,0.2,0.6,0.4,0.9,0.4h2.5v1.2h-1.9v1.2h5v-1.2h-1.9v-1.2h2.5c0.3,0,0.6-0.1,0.9-0.4c0.2-0.2,0.4-0.6,0.4-0.9v-3.8
	c0-0.3-0.1-0.6-0.4-0.9C779.8,583.1,779.5,583,779.1,583z M772.9,588v-3.8h6.2l0,3.8H772.9z"/>
<path class="st5" d="M782.1,579.3c-0.3-1.4-1-2.7-2.2-3.6c-1.1-0.9-2.5-1.4-4-1.4s-2.9,0.5-4,1.4c-1.1,0.9-1.9,2.2-2.2,3.6
	c-1.1,0.2-2.1,0.8-2.9,1.7c-0.7,0.9-1.1,2-1,3.2c0.1,1.1,0.5,2.2,1.3,3c0.8,0.8,1.9,1.3,3,1.4v-1.2c-0.9-0.1-1.7-0.5-2.2-1.1
	c-0.6-0.6-0.9-1.5-0.9-2.3c0-0.9,0.3-1.7,0.9-2.3c0.6-0.6,1.4-1,2.3-1.1l0.5,0l0.1-0.5c0.1-1.2,0.7-2.4,1.6-3.2
	c0.9-0.8,2.1-1.3,3.3-1.3s2.4,0.5,3.3,1.3c0.9,0.8,1.5,2,1.6,3.2l0.1,0.5l0.5,0c0.9,0.1,1.7,0.4,2.3,1.1c0.6,0.6,0.9,1.5,0.9,2.3
	c0,0.9-0.3,1.7-0.9,2.3c-0.6,0.6-1.4,1-2.2,1.1v1.2c1.1-0.1,2.2-0.6,3-1.4c0.8-0.8,1.3-1.9,1.3-3c0.1-1.1-0.3-2.3-1-3.2
	C784.3,580.1,783.3,579.5,782.1,579.3z"/>
<path d="M815.1,587h1.8v-9.8h-1.8v4H811v-4h-1.8v9.8h1.8v-4.1h4.1V587z M822.2,587.2c2.1,0,3.4-1.5,3.4-3.8c0-2.3-1.3-3.8-3.4-3.8
	c-2.1,0-3.4,1.5-3.4,3.8C818.8,585.7,820.1,587.2,822.2,587.2z M822.2,585.7c-0.9,0-1.5-0.6-1.5-1.7v-1.4c0-1.1,0.6-1.7,1.5-1.7
	c0.9,0,1.5,0.6,1.5,1.7v1.4C823.7,585.1,823.1,585.7,822.2,585.7z M829.7,587.2c1.8,0,3-1,3-2.4c0-1.2-0.8-1.9-2.4-2.2l-0.7-0.1
	c-0.7-0.1-1-0.3-1-0.8c0-0.4,0.3-0.8,1.1-0.8c0.7,0,1.3,0.3,1.8,0.8l1-1c-0.7-0.7-1.4-1.1-2.9-1.1c-1.7,0-2.8,0.9-2.8,2.3
	c0,1.3,0.9,2,2.4,2.2l0.7,0.1c0.6,0.1,0.9,0.4,0.9,0.8c0,0.5-0.4,0.8-1.2,0.8c-0.8,0-1.5-0.4-2-1l-1.1,1.1
	C827.4,586.7,828.3,587.2,829.7,587.2z M836.6,587h1.3v-1.4h-1.4v-4.5h1.5v-1.4h-1.5v-2h-1.6v1.2c0,0.5-0.2,0.8-0.7,0.8h-0.6v1.4
	h1.1v4C834.7,586.3,835.4,587,836.6,587z"/>
<rect x="176.5" y="448.5" class="st5" width="711" height="79"/>
<path d="M199.9,475.4h-5.2l5.1-6.5v-1.7h-6.9v1.6h4.8l-5.1,6.5v1.7h7.3V475.4z M204.4,477.2c2.1,0,3.4-1.5,3.4-3.8
	c0-2.3-1.3-3.8-3.4-3.8c-2.1,0-3.4,1.5-3.4,3.8C201,475.7,202.3,477.2,204.4,477.2z M204.4,475.7c-0.9,0-1.5-0.6-1.5-1.7v-1.4
	c0-1.1,0.6-1.7,1.5-1.7c0.9,0,1.5,0.6,1.5,1.7v1.4C205.9,475.1,205.3,475.7,204.4,475.7z M211.3,477v-4.8c0-0.8,0.7-1.2,1.5-1.2
	c0.9,0,1.2,0.5,1.2,1.6v4.4h1.8v-4.6c0-1.8-0.8-2.9-2.3-2.9c-1.1,0-1.8,0.6-2,1.4h-0.1v-1.2h-1.8v7.3H211.3z M220.9,477.2
	c1.4,0,2.4-0.5,3-1.3l-1-1.1c-0.4,0.6-1,1-1.9,1c-1.2,0-1.8-0.7-1.8-1.8v-0.2h4.9v-0.6c0-2-1-3.7-3.3-3.7c-2.1,0-3.4,1.5-3.4,3.8
	C217.5,475.7,218.7,477.2,220.9,477.2z M220.9,470.9c0.9,0,1.4,0.7,1.4,1.7v0.1h-3v-0.1C219.3,471.6,219.9,470.9,220.9,470.9z
	 M236,475.4h-4.8l2.1-1.7c1.4-1.1,2.5-2.2,2.5-3.8c0-1.7-1.2-2.9-3.2-2.9c-2,0-3,1.1-3.5,2.4l1.6,0.6c0.2-0.8,0.7-1.5,1.7-1.5
	c0.8,0,1.4,0.5,1.4,1.3v0.2c0,0.9-0.5,1.5-1.5,2.4l-3.1,2.7v1.7h6.8V475.4z"/>
<rect x="176.5" y="448.5" class="st6" width="711" height="79"/>
<rect x="272" y="463" class="st5" width="48" height="48"/>
<rect x="272.5" y="463.5" class="st6" width="47" height="47"/>
<rect x="275.5" y="466.5" class="st7" width="41" height="41"/>
<path class="st5" d="M299.1,487h-6.2c-0.3,0-0.6,0.1-0.9,0.4c-0.2,0.2-0.4,0.6-0.4,0.9v3.8c0,0.3,0.1,0.6,0.4,0.9
	c0.2,0.2,0.6,0.4,0.9,0.4h2.5v1.2h-1.9v1.2h5v-1.2h-1.9v-1.2h2.5c0.3,0,0.6-0.1,0.9-0.4c0.2-0.2,0.4-0.6,0.4-0.9v-3.8
	c0-0.3-0.1-0.6-0.4-0.9C299.8,487.1,299.5,487,299.1,487z M292.9,492v-3.8h6.2l0,3.8H292.9z"/>
<path class="st5" d="M302.1,483.3c-0.3-1.4-1-2.7-2.2-3.6c-1.1-0.9-2.5-1.4-4-1.4s-2.9,0.5-4,1.4c-1.1,0.9-1.9,2.2-2.2,3.6
	c-1.1,0.2-2.1,0.8-2.9,1.7c-0.7,0.9-1.1,2-1,3.2c0.1,1.1,0.5,2.2,1.3,3c0.8,0.8,1.9,1.3,3,1.4v-1.2c-0.9-0.1-1.7-0.5-2.2-1.1
	c-0.6-0.6-0.9-1.5-0.9-2.3c0-0.9,0.3-1.7,0.9-2.3c0.6-0.6,1.4-1,2.3-1.1l0.5,0l0.1-0.5c0.1-1.2,0.7-2.4,1.6-3.2
	c0.9-0.8,2.1-1.3,3.3-1.3s2.4,0.5,3.3,1.3c0.9,0.8,1.5,2,1.6,3.2l0.1,0.5l0.5,0c0.9,0.1,1.7,0.4,2.3,1.1c0.6,0.6,0.9,1.5,0.9,2.3
	c0,0.9-0.3,1.7-0.9,2.3c-0.6,0.6-1.4,1-2.2,1.1v1.2c1.1-0.1,2.2-0.6,3-1.4c0.8-0.8,1.3-1.9,1.3-3c0.1-1.1-0.3-2.3-1-3.2
	C304.3,484.1,303.3,483.5,302.1,483.3z"/>
<path d="M335.1,491h1.8v-9.8h-1.8v4H331v-4h-1.8v9.8h1.8v-4.1h4.1V491z M342.2,491.2c2.1,0,3.4-1.5,3.4-3.8c0-2.3-1.3-3.8-3.4-3.8
	c-2.1,0-3.4,1.5-3.4,3.8C338.8,489.7,340.1,491.2,342.2,491.2z M342.2,489.7c-0.9,0-1.5-0.6-1.5-1.7v-1.4c0-1.1,0.6-1.7,1.5-1.7
	c0.9,0,1.5,0.6,1.5,1.7v1.4C343.7,489.1,343.1,489.7,342.2,489.7z M349.7,491.2c1.8,0,3-1,3-2.4c0-1.2-0.8-1.9-2.4-2.2l-0.7-0.1
	c-0.7-0.1-1-0.3-1-0.8c0-0.4,0.3-0.8,1.1-0.8c0.7,0,1.3,0.3,1.8,0.8l1.1-1c-0.7-0.7-1.4-1.1-2.9-1.1c-1.7,0-2.8,0.9-2.8,2.3
	c0,1.3,0.9,2,2.4,2.2l0.7,0.1c0.6,0.1,0.9,0.3,0.9,0.8c0,0.5-0.4,0.8-1.2,0.8c-0.8,0-1.5-0.4-2-1l-1.1,1.1
	C347.4,490.7,348.3,491.2,349.7,491.2z M356.6,491h1.3v-1.4h-1.4v-4.5h1.5v-1.4h-1.5v-2h-1.6v1.2c0,0.5-0.2,0.8-0.7,0.8h-0.6v1.4
	h1.1v4C354.7,490.3,355.4,491,356.6,491z"/>
<rect x="392" y="463" class="st5" width="48" height="48"/>
<rect x="392.5" y="463.5" class="st6" width="47" height="47"/>
<rect x="395.5" y="466.5" class="st7" width="41" height="41"/>
<path class="st5" d="M419.1,487h-6.2c-0.3,0-0.6,0.1-0.9,0.4c-0.2,0.2-0.4,0.6-0.4,0.9v3.8c0,0.3,0.1,0.6,0.4,0.9
	c0.2,0.2,0.6,0.4,0.9,0.4h2.5v1.2h-1.9v1.2h5v-1.2h-1.9v-1.2h2.5c0.3,0,0.6-0.1,0.9-0.4c0.2-0.2,0.4-0.6,0.4-0.9v-3.8
	c0-0.3-0.1-0.6-0.4-0.9C419.8,487.1,419.5,487,419.1,487z M412.9,492v-3.8h6.2l0,3.8H412.9z"/>
<path class="st5" d="M422.1,483.3c-0.3-1.4-1-2.7-2.2-3.6c-1.1-0.9-2.5-1.4-4-1.4s-2.9,0.5-4,1.4c-1.1,0.9-1.9,2.2-2.2,3.6
	c-1.1,0.2-2.1,0.8-2.9,1.7c-0.7,0.9-1.1,2-1,3.2c0.1,1.1,0.5,2.2,1.3,3c0.8,0.8,1.9,1.3,3,1.4v-1.2c-0.9-0.1-1.7-0.5-2.2-1.1
	c-0.6-0.6-0.9-1.5-0.9-2.3c0-0.9,0.3-1.7,0.9-2.3c0.6-0.6,1.4-1,2.3-1.1l0.5,0l0.1-0.5c0.1-1.2,0.7-2.4,1.6-3.2
	c0.9-0.8,2.1-1.3,3.3-1.3s2.4,0.5,3.3,1.3c0.9,0.8,1.5,2,1.6,3.2l0.1,0.5l0.5,0c0.9,0.1,1.7,0.4,2.3,1.1c0.6,0.6,0.9,1.5,0.9,2.3
	c0,0.9-0.3,1.7-0.9,2.3c-0.6,0.6-1.4,1-2.2,1.1v1.2c1.1-0.1,2.2-0.6,3-1.4c0.8-0.8,1.3-1.9,1.3-3c0.1-1.1-0.3-2.3-1-3.2
	C424.3,484.1,423.3,483.5,422.1,483.3z"/>
<path d="M455.1,491h1.8v-9.8h-1.8v4H451v-4h-1.8v9.8h1.8v-4.1h4.1V491z M462.2,491.2c2.1,0,3.4-1.5,3.4-3.8c0-2.3-1.3-3.8-3.4-3.8
	c-2.1,0-3.4,1.5-3.4,3.8C458.8,489.7,460.1,491.2,462.2,491.2z M462.2,489.7c-0.9,0-1.5-0.6-1.5-1.7v-1.4c0-1.1,0.6-1.7,1.5-1.7
	c0.9,0,1.5,0.6,1.5,1.7v1.4C463.7,489.1,463.1,489.7,462.2,489.7z M469.7,491.2c1.8,0,3-1,3-2.4c0-1.2-0.8-1.9-2.4-2.2l-0.7-0.1
	c-0.7-0.1-1-0.3-1-0.8c0-0.4,0.3-0.8,1.1-0.8c0.7,0,1.3,0.3,1.8,0.8l1.1-1c-0.7-0.7-1.4-1.1-2.9-1.1c-1.7,0-2.8,0.9-2.8,2.3
	c0,1.3,0.9,2,2.4,2.2l0.7,0.1c0.6,0.1,0.9,0.3,0.9,0.8c0,0.5-0.4,0.8-1.2,0.8c-0.8,0-1.5-0.4-2-1l-1.1,1.1
	C467.4,490.7,468.3,491.2,469.7,491.2z M476.6,491h1.3v-1.4h-1.4v-4.5h1.5v-1.4h-1.5v-2h-1.6v1.2c0,0.5-0.2,0.8-0.7,0.8h-0.6v1.4
	h1.1v4C474.7,490.3,475.4,491,476.6,491z"/>
<rect x="512" y="463" class="st5" width="48" height="48"/>
<rect x="512.5" y="463.5" class="st6" width="47" height="47"/>
<rect x="515.5" y="466.5" class="st7" width="41" height="41"/>
<path class="st5" d="M539.1,487h-6.2c-0.3,0-0.6,0.1-0.9,0.4c-0.2,0.2-0.4,0.6-0.4,0.9v3.8c0,0.3,0.1,0.6,0.4,0.9
	c0.2,0.2,0.6,0.4,0.9,0.4h2.5v1.2h-1.9v1.2h5v-1.2h-1.9v-1.2h2.5c0.3,0,0.6-0.1,0.9-0.4c0.2-0.2,0.4-0.6,0.4-0.9v-3.8
	c0-0.3-0.1-0.6-0.4-0.9C539.8,487.1,539.5,487,539.1,487z M532.9,492v-3.8h6.2l0,3.8H532.9z"/>
<path class="st5" d="M542.1,483.3c-0.3-1.4-1-2.7-2.2-3.6c-1.1-0.9-2.5-1.4-4-1.4s-2.9,0.5-4,1.4c-1.1,0.9-1.9,2.2-2.2,3.6
	c-1.1,0.2-2.1,0.8-2.9,1.7c-0.7,0.9-1.1,2-1,3.2c0.1,1.1,0.5,2.2,1.3,3c0.8,0.8,1.9,1.3,3,1.4v-1.2c-0.9-0.1-1.7-0.5-2.2-1.1
	c-0.6-0.6-0.9-1.5-0.9-2.3c0-0.9,0.3-1.7,0.9-2.3c0.6-0.6,1.4-1,2.3-1.1l0.5,0l0.1-0.5c0.1-1.2,0.7-2.4,1.6-3.2
	c0.9-0.8,2.1-1.3,3.3-1.3s2.4,0.5,3.3,1.3c0.9,0.8,1.5,2,1.6,3.2l0.1,0.5l0.5,0c0.9,0.1,1.7,0.4,2.3,1.1c0.6,0.6,0.9,1.5,0.9,2.3
	c0,0.9-0.3,1.7-0.9,2.3c-0.6,0.6-1.4,1-2.2,1.1v1.2c1.1-0.1,2.2-0.6,3-1.4c0.8-0.8,1.3-1.9,1.3-3c0.1-1.1-0.3-2.3-1-3.2
	C544.3,484.1,543.3,483.5,542.1,483.3z"/>
<path d="M575.1,491h1.8v-9.8h-1.8v4H571v-4h-1.8v9.8h1.8v-4.1h4.1V491z M582.2,491.2c2.1,0,3.4-1.5,3.4-3.8c0-2.3-1.3-3.8-3.4-3.8
	c-2.1,0-3.4,1.5-3.4,3.8C578.8,489.7,580.1,491.2,582.2,491.2z M582.2,489.7c-0.9,0-1.5-0.6-1.5-1.7v-1.4c0-1.1,0.6-1.7,1.5-1.7
	c0.9,0,1.5,0.6,1.5,1.7v1.4C583.7,489.1,583.1,489.7,582.2,489.7z M589.7,491.2c1.8,0,3-1,3-2.4c0-1.2-0.8-1.9-2.4-2.2l-0.7-0.1
	c-0.7-0.1-1-0.3-1-0.8c0-0.4,0.3-0.8,1.1-0.8c0.7,0,1.3,0.3,1.8,0.8l1-1c-0.7-0.7-1.4-1.1-2.9-1.1c-1.7,0-2.8,0.9-2.8,2.3
	c0,1.3,0.9,2,2.4,2.2l0.7,0.1c0.6,0.1,0.9,0.3,0.9,0.8c0,0.5-0.4,0.8-1.2,0.8c-0.8,0-1.5-0.4-2-1l-1.1,1.1
	C587.4,490.7,588.3,491.2,589.7,491.2z M596.6,491h1.3v-1.4h-1.4v-4.5h1.5v-1.4h-1.5v-2h-1.6v1.2c0,0.5-0.2,0.8-0.7,0.8h-0.6v1.4
	h1.1v4C594.7,490.3,595.4,491,596.6,491z"/>
<rect x="632" y="463" class="st5" width="48" height="48"/>
<rect x="632.5" y="463.5" class="st6" width="47" height="47"/>
<rect x="635.5" y="466.5" class="st7" width="41" height="41"/>
<path class="st5" d="M659.1,487h-6.2c-0.3,0-0.6,0.1-0.9,0.4c-0.2,0.2-0.4,0.6-0.4,0.9v3.8c0,0.3,0.1,0.6,0.4,0.9
	c0.2,0.2,0.6,0.4,0.9,0.4h2.5v1.2h-1.9v1.2h5v-1.2h-1.9v-1.2h2.5c0.3,0,0.6-0.1,0.9-0.4c0.2-0.2,0.4-0.6,0.4-0.9v-3.8
	c0-0.3-0.1-0.6-0.4-0.9C659.8,487.1,659.5,487,659.1,487z M652.9,492v-3.8h6.2l0,3.8H652.9z"/>
<path class="st5" d="M662.1,483.3c-0.3-1.4-1-2.7-2.2-3.6c-1.1-0.9-2.5-1.4-4-1.4s-2.9,0.5-4,1.4c-1.1,0.9-1.9,2.2-2.2,3.6
	c-1.1,0.2-2.1,0.8-2.9,1.7c-0.7,0.9-1.1,2-1,3.2c0.1,1.1,0.5,2.2,1.3,3c0.8,0.8,1.9,1.3,3,1.4v-1.2c-0.9-0.1-1.7-0.5-2.2-1.1
	c-0.6-0.6-0.9-1.5-0.9-2.3c0-0.9,0.3-1.7,0.9-2.3c0.6-0.6,1.4-1,2.3-1.1l0.5,0l0.1-0.5c0.1-1.2,0.7-2.4,1.6-3.2
	c0.9-0.8,2.1-1.3,3.3-1.3s2.4,0.5,3.3,1.3c0.9,0.8,1.5,2,1.6,3.2l0.1,0.5l0.5,0c0.9,0.1,1.7,0.4,2.3,1.1c0.6,0.6,0.9,1.5,0.9,2.3
	c0,0.9-0.3,1.7-0.9,2.3c-0.6,0.6-1.4,1-2.2,1.1v1.2c1.1-0.1,2.2-0.6,3-1.4c0.8-0.8,1.3-1.9,1.3-3c0.1-1.1-0.3-2.3-1-3.2
	C664.3,484.1,663.3,483.5,662.1,483.3z"/>
<path d="M695.1,491h1.8v-9.8h-1.8v4H691v-4h-1.8v9.8h1.8v-4.1h4.1V491z M702.2,491.2c2.1,0,3.4-1.5,3.4-3.8c0-2.3-1.3-3.8-3.4-3.8
	c-2.1,0-3.4,1.5-3.4,3.8C698.8,489.7,700.1,491.2,702.2,491.2z M702.2,489.7c-0.9,0-1.5-0.6-1.5-1.7v-1.4c0-1.1,0.6-1.7,1.5-1.7
	c0.9,0,1.5,0.6,1.5,1.7v1.4C703.7,489.1,703.1,489.7,702.2,489.7z M709.7,491.2c1.8,0,3-1,3-2.4c0-1.2-0.8-1.9-2.4-2.2l-0.7-0.1
	c-0.7-0.1-1-0.3-1-0.8c0-0.4,0.3-0.8,1.1-0.8c0.7,0,1.3,0.3,1.8,0.8l1-1c-0.7-0.7-1.4-1.1-2.9-1.1c-1.7,0-2.8,0.9-2.8,2.3
	c0,1.3,0.9,2,2.4,2.2l0.7,0.1c0.6,0.1,0.9,0.3,0.9,0.8c0,0.5-0.4,0.8-1.2,0.8c-0.8,0-1.5-0.4-2-1l-1.1,1.1
	C707.4,490.7,708.3,491.2,709.7,491.2z M716.6,491h1.3v-1.4h-1.4v-4.5h1.5v-1.4h-1.5v-2h-1.6v1.2c0,0.5-0.2,0.8-0.7,0.8h-0.6v1.4
	h1.1v4C714.7,490.3,715.4,491,716.6,491z"/>
<rect x="752" y="463" class="st5" width="48" height="48"/>
<rect x="752.5" y="463.5" class="st6" width="47" height="47"/>
<rect x="755.5" y="466.5" class="st7" width="41" height="41"/>
<path class="st5" d="M779.1,487h-6.2c-0.3,0-0.6,0.1-0.9,0.4c-0.2,0.2-0.4,0.6-0.4,0.9v3.8c0,0.3,0.1,0.6,0.4,0.9
	c0.2,0.2,0.6,0.4,0.9,0.4h2.5v1.2h-1.9v1.2h5v-1.2h-1.9v-1.2h2.5c0.3,0,0.6-0.1,0.9-0.4c0.2-0.2,0.4-0.6,0.4-0.9v-3.8
	c0-0.3-0.1-0.6-0.4-0.9C779.8,487.1,779.5,487,779.1,487z M772.9,492v-3.8h6.2l0,3.8H772.9z"/>
<path class="st5" d="M782.1,483.3c-0.3-1.4-1-2.7-2.2-3.6c-1.1-0.9-2.5-1.4-4-1.4s-2.9,0.5-4,1.4c-1.1,0.9-1.9,2.2-2.2,3.6
	c-1.1,0.2-2.1,0.8-2.9,1.7c-0.7,0.9-1.1,2-1,3.2c0.1,1.1,0.5,2.2,1.3,3c0.8,0.8,1.9,1.3,3,1.4v-1.2c-0.9-0.1-1.7-0.5-2.2-1.1
	c-0.6-0.6-0.9-1.5-0.9-2.3c0-0.9,0.3-1.7,0.9-2.3c0.6-0.6,1.4-1,2.3-1.1l0.5,0l0.1-0.5c0.1-1.2,0.7-2.4,1.6-3.2
	c0.9-0.8,2.1-1.3,3.3-1.3s2.4,0.5,3.3,1.3c0.9,0.8,1.5,2,1.6,3.2l0.1,0.5l0.5,0c0.9,0.1,1.7,0.4,2.3,1.1c0.6,0.6,0.9,1.5,0.9,2.3
	c0,0.9-0.3,1.7-0.9,2.3c-0.6,0.6-1.4,1-2.2,1.1v1.2c1.1-0.1,2.2-0.6,3-1.4c0.8-0.8,1.3-1.9,1.3-3c0.1-1.1-0.3-2.3-1-3.2
	C784.3,484.1,783.3,483.5,782.1,483.3z"/>
<path d="M815.1,491h1.8v-9.8h-1.8v4H811v-4h-1.8v9.8h1.8v-4.1h4.1V491z M822.2,491.2c2.1,0,3.4-1.5,3.4-3.8c0-2.3-1.3-3.8-3.4-3.8
	c-2.1,0-3.4,1.5-3.4,3.8C818.8,489.7,820.1,491.2,822.2,491.2z M822.2,489.7c-0.9,0-1.5-0.6-1.5-1.7v-1.4c0-1.1,0.6-1.7,1.5-1.7
	c0.9,0,1.5,0.6,1.5,1.7v1.4C823.7,489.1,823.1,489.7,822.2,489.7z M829.7,491.2c1.8,0,3-1,3-2.4c0-1.2-0.8-1.9-2.4-2.2l-0.7-0.1
	c-0.7-0.1-1-0.3-1-0.8c0-0.4,0.3-0.8,1.1-0.8c0.7,0,1.3,0.3,1.8,0.8l1-1c-0.7-0.7-1.4-1.1-2.9-1.1c-1.7,0-2.8,0.9-2.8,2.3
	c0,1.3,0.9,2,2.4,2.2l0.7,0.1c0.6,0.1,0.9,0.3,0.9,0.8c0,0.5-0.4,0.8-1.2,0.8c-0.8,0-1.5-0.4-2-1l-1.1,1.1
	C827.4,490.7,828.3,491.2,829.7,491.2z M836.6,491h1.3v-1.4h-1.4v-4.5h1.5v-1.4h-1.5v-2h-1.6v1.2c0,0.5-0.2,0.8-0.7,0.8h-0.6v1.4
	h1.1v4C834.7,490.3,835.4,491,836.6,491z"/>
<rect x="176.5" y="352.5" class="st5" width="711" height="79"/>
<path d="M199.9,379.4h-5.2l5.1-6.5v-1.7h-6.9v1.6h4.8l-5.1,6.5v1.7h7.3V379.4z M204.4,381.2c2.1,0,3.4-1.5,3.4-3.8
	c0-2.3-1.3-3.8-3.4-3.8c-2.1,0-3.4,1.5-3.4,3.8C201,379.7,202.3,381.2,204.4,381.2z M204.4,379.7c-0.9,0-1.5-0.6-1.5-1.7v-1.4
	c0-1.1,0.6-1.7,1.5-1.7c0.9,0,1.5,0.6,1.5,1.7v1.4C205.9,379.1,205.3,379.7,204.4,379.7z M211.3,381v-4.8c0-0.8,0.7-1.2,1.5-1.2
	c0.9,0,1.2,0.5,1.2,1.6v4.4h1.8v-4.6c0-1.8-0.8-2.9-2.3-2.9c-1.1,0-1.8,0.6-2,1.4h-0.1v-1.2h-1.8v7.3H211.3z M220.9,381.2
	c1.4,0,2.4-0.5,3-1.3l-1-1.1c-0.4,0.6-1,1-1.9,1c-1.2,0-1.8-0.7-1.8-1.8v-0.2h4.9v-0.6c0-2-1-3.7-3.3-3.7c-2.1,0-3.4,1.5-3.4,3.8
	C217.5,379.7,218.7,381.2,220.9,381.2z M220.9,374.9c0.9,0,1.4,0.7,1.4,1.7v0.1h-3v-0.1C219.3,375.6,219.9,374.9,220.9,374.9z
	 M236.4,381v-1.5h-2.2v-8.3h-2.8l-2.4,2.9l1.1,1l2.1-2.5h0.1v6.9h-2.7v1.5H236.4z"/>
<rect x="176.5" y="352.5" class="st6" width="711" height="79"/>
<rect x="272" y="367" class="st5" width="48" height="48"/>
<rect x="272.5" y="367.5" class="st6" width="47" height="47"/>
<rect x="275.5" y="370.5" class="st7" width="41" height="41"/>
<path class="st5" d="M299.1,391h-6.2c-0.3,0-0.6,0.1-0.9,0.4c-0.2,0.2-0.4,0.6-0.4,0.9v3.8c0,0.3,0.1,0.6,0.4,0.9
	c0.2,0.2,0.6,0.4,0.9,0.4h2.5v1.2h-1.9v1.2h5v-1.2h-1.9v-1.2h2.5c0.3,0,0.6-0.1,0.9-0.4c0.2-0.2,0.4-0.6,0.4-0.9v-3.8
	c0-0.3-0.1-0.6-0.4-0.9C299.8,391.1,299.5,391,299.1,391z M292.9,396v-3.8h6.2l0,3.8H292.9z"/>
<path class="st5" d="M302.1,387.3c-0.3-1.4-1-2.7-2.2-3.6c-1.1-0.9-2.5-1.4-4-1.4s-2.9,0.5-4,1.4c-1.1,0.9-1.9,2.2-2.2,3.6
	c-1.1,0.2-2.1,0.8-2.9,1.7c-0.7,0.9-1.1,2-1,3.2c0.1,1.1,0.5,2.2,1.3,3c0.8,0.8,1.9,1.3,3,1.4v-1.2c-0.9-0.1-1.7-0.5-2.2-1.1
	c-0.6-0.6-0.9-1.5-0.9-2.3c0-0.9,0.3-1.7,0.9-2.3c0.6-0.6,1.4-1,2.3-1.1l0.5,0l0.1-0.5c0.1-1.2,0.7-2.4,1.6-3.2
	c0.9-0.8,2.1-1.3,3.3-1.3s2.4,0.5,3.3,1.3c0.9,0.8,1.5,2,1.6,3.2l0.1,0.5l0.5,0c0.9,0.1,1.7,0.4,2.3,1.1c0.6,0.6,0.9,1.5,0.9,2.3
	c0,0.9-0.3,1.7-0.9,2.3c-0.6,0.6-1.4,1-2.2,1.1v1.2c1.1-0.1,2.2-0.6,3-1.4c0.8-0.8,1.3-1.9,1.3-3c0.1-1.1-0.3-2.3-1-3.2
	C304.3,388.1,303.3,387.5,302.1,387.3z"/>
<path d="M335.1,395h1.8v-9.8h-1.8v4H331v-4h-1.8v9.8h1.8v-4.1h4.1V395z M342.2,395.2c2.1,0,3.4-1.5,3.4-3.8c0-2.3-1.3-3.8-3.4-3.8
	c-2.1,0-3.4,1.5-3.4,3.8C338.8,393.7,340.1,395.2,342.2,395.2z M342.2,393.7c-0.9,0-1.5-0.6-1.5-1.7v-1.4c0-1.1,0.6-1.7,1.5-1.7
	c0.9,0,1.5,0.6,1.5,1.7v1.4C343.7,393.1,343.1,393.7,342.2,393.7z M349.7,395.2c1.8,0,3-1,3-2.4c0-1.2-0.8-1.9-2.4-2.2l-0.7-0.1
	c-0.7-0.1-1-0.3-1-0.8c0-0.4,0.3-0.8,1.1-0.8c0.7,0,1.3,0.3,1.8,0.8l1.1-1c-0.7-0.7-1.4-1.1-2.9-1.1c-1.7,0-2.8,0.9-2.8,2.3
	c0,1.3,0.9,2,2.4,2.2l0.7,0.1c0.6,0.1,0.9,0.3,0.9,0.8c0,0.5-0.4,0.8-1.2,0.8c-0.8,0-1.5-0.4-2-1l-1.1,1.1
	C347.4,394.7,348.3,395.2,349.7,395.2z M356.6,395h1.3v-1.4h-1.4v-4.5h1.5v-1.4h-1.5v-2h-1.6v1.2c0,0.5-0.2,0.8-0.7,0.8h-0.6v1.4
	h1.1v4C354.7,394.3,355.4,395,356.6,395z"/>
<rect x="392" y="367" class="st5" width="48" height="48"/>
<rect x="392.5" y="367.5" class="st6" width="47" height="47"/>
<rect x="395.5" y="370.5" class="st7" width="41" height="41"/>
<path class="st5" d="M419.1,391h-6.2c-0.3,0-0.6,0.1-0.9,0.4c-0.2,0.2-0.4,0.6-0.4,0.9v3.8c0,0.3,0.1,0.6,0.4,0.9
	c0.2,0.2,0.6,0.4,0.9,0.4h2.5v1.2h-1.9v1.2h5v-1.2h-1.9v-1.2h2.5c0.3,0,0.6-0.1,0.9-0.4c0.2-0.2,0.4-0.6,0.4-0.9v-3.8
	c0-0.3-0.1-0.6-0.4-0.9C419.8,391.1,419.5,391,419.1,391z M412.9,396v-3.8h6.2l0,3.8H412.9z"/>
<path class="st5" d="M422.1,387.3c-0.3-1.4-1-2.7-2.2-3.6c-1.1-0.9-2.5-1.4-4-1.4s-2.9,0.5-4,1.4c-1.1,0.9-1.9,2.2-2.2,3.6
	c-1.1,0.2-2.1,0.8-2.9,1.7c-0.7,0.9-1.1,2-1,3.2c0.1,1.1,0.5,2.2,1.3,3c0.8,0.8,1.9,1.3,3,1.4v-1.2c-0.9-0.1-1.7-0.5-2.2-1.1
	c-0.6-0.6-0.9-1.5-0.9-2.3c0-0.9,0.3-1.7,0.9-2.3c0.6-0.6,1.4-1,2.3-1.1l0.5,0l0.1-0.5c0.1-1.2,0.7-2.4,1.6-3.2
	c0.9-0.8,2.1-1.3,3.3-1.3s2.4,0.5,3.3,1.3c0.9,0.8,1.5,2,1.6,3.2l0.1,0.5l0.5,0c0.9,0.1,1.7,0.4,2.3,1.1c0.6,0.6,0.9,1.5,0.9,2.3
	c0,0.9-0.3,1.7-0.9,2.3c-0.6,0.6-1.4,1-2.2,1.1v1.2c1.1-0.1,2.2-0.6,3-1.4c0.8-0.8,1.3-1.9,1.3-3c0.1-1.1-0.3-2.3-1-3.2
	C424.3,388.1,423.3,387.5,422.1,387.3z"/>
<path d="M455.1,395h1.8v-9.8h-1.8v4H451v-4h-1.8v9.8h1.8v-4.1h4.1V395z M462.2,395.2c2.1,0,3.4-1.5,3.4-3.8c0-2.3-1.3-3.8-3.4-3.8
	c-2.1,0-3.4,1.5-3.4,3.8C458.8,393.7,460.1,395.2,462.2,395.2z M462.2,393.7c-0.9,0-1.5-0.6-1.5-1.7v-1.4c0-1.1,0.6-1.7,1.5-1.7
	c0.9,0,1.5,0.6,1.5,1.7v1.4C463.7,393.1,463.1,393.7,462.2,393.7z M469.7,395.2c1.8,0,3-1,3-2.4c0-1.2-0.8-1.9-2.4-2.2l-0.7-0.1
	c-0.7-0.1-1-0.3-1-0.8c0-0.4,0.3-0.8,1.1-0.8c0.7,0,1.3,0.3,1.8,0.8l1.1-1c-0.7-0.7-1.4-1.1-2.9-1.1c-1.7,0-2.8,0.9-2.8,2.3
	c0,1.3,0.9,2,2.4,2.2l0.7,0.1c0.6,0.1,0.9,0.3,0.9,0.8c0,0.5-0.4,0.8-1.2,0.8c-0.8,0-1.5-0.4-2-1l-1.1,1.1
	C467.4,394.7,468.3,395.2,469.7,395.2z M476.6,395h1.3v-1.4h-1.4v-4.5h1.5v-1.4h-1.5v-2h-1.6v1.2c0,0.5-0.2,0.8-0.7,0.8h-0.6v1.4
	h1.1v4C474.7,394.3,475.4,395,476.6,395z"/>
<rect x="512" y="367" class="st5" width="48" height="48"/>
<rect x="512.5" y="367.5" class="st6" width="47" height="47"/>
<rect x="515.5" y="370.5" class="st7" width="41" height="41"/>
<path class="st5" d="M539.1,391h-6.2c-0.3,0-0.6,0.1-0.9,0.4c-0.2,0.2-0.4,0.6-0.4,0.9v3.8c0,0.3,0.1,0.6,0.4,0.9
	c0.2,0.2,0.6,0.4,0.9,0.4h2.5v1.2h-1.9v1.2h5v-1.2h-1.9v-1.2h2.5c0.3,0,0.6-0.1,0.9-0.4c0.2-0.2,0.4-0.6,0.4-0.9v-3.8
	c0-0.3-0.1-0.6-0.4-0.9C539.8,391.1,539.5,391,539.1,391z M532.9,396v-3.8h6.2l0,3.8H532.9z"/>
<path class="st5" d="M542.1,387.3c-0.3-1.4-1-2.7-2.2-3.6c-1.1-0.9-2.5-1.4-4-1.4s-2.9,0.5-4,1.4c-1.1,0.9-1.9,2.2-2.2,3.6
	c-1.1,0.2-2.1,0.8-2.9,1.7c-0.7,0.9-1.1,2-1,3.2c0.1,1.1,0.5,2.2,1.3,3c0.8,0.8,1.9,1.3,3,1.4v-1.2c-0.9-0.1-1.7-0.5-2.2-1.1
	c-0.6-0.6-0.9-1.5-0.9-2.3c0-0.9,0.3-1.7,0.9-2.3c0.6-0.6,1.4-1,2.3-1.1l0.5,0l0.1-0.5c0.1-1.2,0.7-2.4,1.6-3.2
	c0.9-0.8,2.1-1.3,3.3-1.3s2.4,0.5,3.3,1.3c0.9,0.8,1.5,2,1.6,3.2l0.1,0.5l0.5,0c0.9,0.1,1.7,0.4,2.3,1.1c0.6,0.6,0.9,1.5,0.9,2.3
	c0,0.9-0.3,1.7-0.9,2.3c-0.6,0.6-1.4,1-2.2,1.1v1.2c1.1-0.1,2.2-0.6,3-1.4c0.8-0.8,1.3-1.9,1.3-3c0.1-1.1-0.3-2.3-1-3.2
	C544.3,388.1,543.3,387.5,542.1,387.3z"/>
<path d="M575.1,395h1.8v-9.8h-1.8v4H571v-4h-1.8v9.8h1.8v-4.1h4.1V395z M582.2,395.2c2.1,0,3.4-1.5,3.4-3.8c0-2.3-1.3-3.8-3.4-3.8
	c-2.1,0-3.4,1.5-3.4,3.8C578.8,393.7,580.1,395.2,582.2,395.2z M582.2,393.7c-0.9,0-1.5-0.6-1.5-1.7v-1.4c0-1.1,0.6-1.7,1.5-1.7
	c0.9,0,1.5,0.6,1.5,1.7v1.4C583.7,393.1,583.1,393.7,582.2,393.7z M589.7,395.2c1.8,0,3-1,3-2.4c0-1.2-0.8-1.9-2.4-2.2l-0.7-0.1
	c-0.7-0.1-1-0.3-1-0.8c0-0.4,0.3-0.8,1.1-0.8c0.7,0,1.3,0.3,1.8,0.8l1-1c-0.7-0.7-1.4-1.1-2.9-1.1c-1.7,0-2.8,0.9-2.8,2.3
	c0,1.3,0.9,2,2.4,2.2l0.7,0.1c0.6,0.1,0.9,0.3,0.9,0.8c0,0.5-0.4,0.8-1.2,0.8c-0.8,0-1.5-0.4-2-1l-1.1,1.1
	C587.4,394.7,588.3,395.2,589.7,395.2z M596.6,395h1.3v-1.4h-1.4v-4.5h1.5v-1.4h-1.5v-2h-1.6v1.2c0,0.5-0.2,0.8-0.7,0.8h-0.6v1.4
	h1.1v4C594.7,394.3,595.4,395,596.6,395z"/>
<rect x="632" y="367" class="st5" width="48" height="48"/>
<rect x="632.5" y="367.5" class="st6" width="47" height="47"/>
<rect x="635.5" y="370.5" class="st7" width="41" height="41"/>
<path class="st5" d="M659.1,391h-6.2c-0.3,0-0.6,0.1-0.9,0.4c-0.2,0.2-0.4,0.6-0.4,0.9v3.8c0,0.3,0.1,0.6,0.4,0.9
	c0.2,0.2,0.6,0.4,0.9,0.4h2.5v1.2h-1.9v1.2h5v-1.2h-1.9v-1.2h2.5c0.3,0,0.6-0.1,0.9-0.4c0.2-0.2,0.4-0.6,0.4-0.9v-3.8
	c0-0.3-0.1-0.6-0.4-0.9C659.8,391.1,659.5,391,659.1,391z M652.9,396v-3.8h6.2l0,3.8H652.9z"/>
<path class="st5" d="M662.1,387.3c-0.3-1.4-1-2.7-2.2-3.6c-1.1-0.9-2.5-1.4-4-1.4s-2.9,0.5-4,1.4c-1.1,0.9-1.9,2.2-2.2,3.6
	c-1.1,0.2-2.1,0.8-2.9,1.7c-0.7,0.9-1.1,2-1,3.2c0.1,1.1,0.5,2.2,1.3,3c0.8,0.8,1.9,1.3,3,1.4v-1.2c-0.9-0.1-1.7-0.5-2.2-1.1
	c-0.6-0.6-0.9-1.5-0.9-2.3c0-0.9,0.3-1.7,0.9-2.3c0.6-0.6,1.4-1,2.3-1.1l0.5,0l0.1-0.5c0.1-1.2,0.7-2.4,1.6-3.2
	c0.9-0.8,2.1-1.3,3.3-1.3s2.4,0.5,3.3,1.3c0.9,0.8,1.5,2,1.6,3.2l0.1,0.5l0.5,0c0.9,0.1,1.7,0.4,2.3,1.1c0.6,0.6,0.9,1.5,0.9,2.3
	c0,0.9-0.3,1.7-0.9,2.3c-0.6,0.6-1.4,1-2.2,1.1v1.2c1.1-0.1,2.2-0.6,3-1.4c0.8-0.8,1.3-1.9,1.3-3c0.1-1.1-0.3-2.3-1-3.2
	C664.3,388.1,663.3,387.5,662.1,387.3z"/>
<path d="M695.1,395h1.8v-9.8h-1.8v4H691v-4h-1.8v9.8h1.8v-4.1h4.1V395z M702.2,395.2c2.1,0,3.4-1.5,3.4-3.8c0-2.3-1.3-3.8-3.4-3.8
	c-2.1,0-3.4,1.5-3.4,3.8C698.8,393.7,700.1,395.2,702.2,395.2z M702.2,393.7c-0.9,0-1.5-0.6-1.5-1.7v-1.4c0-1.1,0.6-1.7,1.5-1.7
	c0.9,0,1.5,0.6,1.5,1.7v1.4C703.7,393.1,703.1,393.7,702.2,393.7z M709.7,395.2c1.8,0,3-1,3-2.4c0-1.2-0.8-1.9-2.4-2.2l-0.7-0.1
	c-0.7-0.1-1-0.3-1-0.8c0-0.4,0.3-0.8,1.1-0.8c0.7,0,1.3,0.3,1.8,0.8l1-1c-0.7-0.7-1.4-1.1-2.9-1.1c-1.7,0-2.8,0.9-2.8,2.3
	c0,1.3,0.9,2,2.4,2.2l0.7,0.1c0.6,0.1,0.9,0.3,0.9,0.8c0,0.5-0.4,0.8-1.2,0.8c-0.8,0-1.5-0.4-2-1l-1.1,1.1
	C707.4,394.7,708.3,395.2,709.7,395.2z M716.6,395h1.3v-1.4h-1.4v-4.5h1.5v-1.4h-1.5v-2h-1.6v1.2c0,0.5-0.2,0.8-0.7,0.8h-0.6v1.4
	h1.1v4C714.7,394.3,715.4,395,716.6,395z"/>
<rect x="752" y="367" class="st5" width="48" height="48"/>
<rect x="752.5" y="367.5" class="st6" width="47" height="47"/>
<rect x="755.5" y="370.5" class="st7" width="41" height="41"/>
<path class="st5" d="M779.1,391h-6.2c-0.3,0-0.6,0.1-0.9,0.4c-0.2,0.2-0.4,0.6-0.4,0.9v3.8c0,0.3,0.1,0.6,0.4,0.9
	c0.2,0.2,0.6,0.4,0.9,0.4h2.5v1.2h-1.9v1.2h5v-1.2h-1.9v-1.2h2.5c0.3,0,0.6-0.1,0.9-0.4c0.2-0.2,0.4-0.6,0.4-0.9v-3.8
	c0-0.3-0.1-0.6-0.4-0.9C779.8,391.1,779.5,391,779.1,391z M772.9,396v-3.8h6.2l0,3.8H772.9z"/>
<path class="st5" d="M782.1,387.3c-0.3-1.4-1-2.7-2.2-3.6c-1.1-0.9-2.5-1.4-4-1.4s-2.9,0.5-4,1.4c-1.1,0.9-1.9,2.2-2.2,3.6
	c-1.1,0.2-2.1,0.8-2.9,1.7c-0.7,0.9-1.1,2-1,3.2c0.1,1.1,0.5,2.2,1.3,3c0.8,0.8,1.9,1.3,3,1.4v-1.2c-0.9-0.1-1.7-0.5-2.2-1.1
	c-0.6-0.6-0.9-1.5-0.9-2.3c0-0.9,0.3-1.7,0.9-2.3c0.6-0.6,1.4-1,2.3-1.1l0.5,0l0.1-0.5c0.1-1.2,0.7-2.4,1.6-3.2
	c0.9-0.8,2.1-1.3,3.3-1.3s2.4,0.5,3.3,1.3c0.9,0.8,1.5,2,1.6,3.2l0.1,0.5l0.5,0c0.9,0.1,1.7,0.4,2.3,1.1c0.6,0.6,0.9,1.5,0.9,2.3
	c0,0.9-0.3,1.7-0.9,2.3c-0.6,0.6-1.4,1-2.2,1.1v1.2c1.1-0.1,2.2-0.6,3-1.4c0.8-0.8,1.3-1.9,1.3-3c0.1-1.1-0.3-2.3-1-3.2
	C784.3,388.1,783.3,387.5,782.1,387.3z"/>
<path d="M815.1,395h1.8v-9.8h-1.8v4H811v-4h-1.8v9.8h1.8v-4.1h4.1V395z M822.2,395.2c2.1,0,3.4-1.5,3.4-3.8c0-2.3-1.3-3.8-3.4-3.8
	c-2.1,0-3.4,1.5-3.4,3.8C818.8,393.7,820.1,395.2,822.2,395.2z M822.2,393.7c-0.9,0-1.5-0.6-1.5-1.7v-1.4c0-1.1,0.6-1.7,1.5-1.7
	c0.9,0,1.5,0.6,1.5,1.7v1.4C823.7,393.1,823.1,393.7,822.2,393.7z M829.7,395.2c1.8,0,3-1,3-2.4c0-1.2-0.8-1.9-2.4-2.2l-0.7-0.1
	c-0.7-0.1-1-0.3-1-0.8c0-0.4,0.3-0.8,1.1-0.8c0.7,0,1.3,0.3,1.8,0.8l1-1c-0.7-0.7-1.4-1.1-2.9-1.1c-1.7,0-2.8,0.9-2.8,2.3
	c0,1.3,0.9,2,2.4,2.2l0.7,0.1c0.6,0.1,0.9,0.3,0.9,0.8c0,0.5-0.4,0.8-1.2,0.8c-0.8,0-1.5-0.4-2-1l-1.1,1.1
	C827.4,394.7,828.3,395.2,829.7,395.2z M836.6,395h1.3v-1.4h-1.4v-4.5h1.5v-1.4h-1.5v-2h-1.6v1.2c0,0.5-0.2,0.8-0.7,0.8h-0.6v1.4
	h1.1v4C834.7,394.3,835.4,395,836.6,395z"/>
<path class="st5" d="M966,184.5h58c4.1,0,7.5,3.4,7.5,7.5l0,0c0,4.1-3.4,7.5-7.5,7.5h-58c-4.1,0-7.5-3.4-7.5-7.5l0,0
	C958.5,187.9,961.9,184.5,966,184.5z"/>
<path d="M972.6,188.5v-0.9h-6.3v0.9h2.7v7.5h1v-7.5H972.6z M975.8,196.1c1.7,0,2.8-1.3,2.8-3.2c0-2-1.1-3.2-2.8-3.2
	s-2.8,1.3-2.8,3.2C973,194.9,974.1,196.1,975.8,196.1z M975.8,195.3c-1,0-1.8-0.6-1.8-1.9v-0.9c0-1.3,0.7-1.9,1.8-1.9
	c1,0,1.8,0.6,1.8,1.9v0.9C977.5,194.7,976.8,195.3,975.8,195.3z M985.5,196.1c1.4,0,2.3-0.7,2.3-1.9c0-0.9-0.5-1.5-1.9-1.7l-0.5-0.1
	c-0.8-0.1-1.2-0.4-1.2-1c0-0.6,0.4-1,1.2-1c0.8,0,1.3,0.4,1.6,0.8l0.6-0.6c-0.5-0.6-1.2-1-2.2-1c-1.3,0-2.2,0.6-2.2,1.8
	c0,1.2,0.9,1.6,2,1.8l0.5,0.1c0.8,0.1,1.1,0.5,1.1,1c0,0.6-0.5,1-1.3,1c-0.8,0-1.4-0.3-1.8-0.9l-0.7,0.6
	C983.6,195.7,984.3,196.1,985.5,196.1z M992.3,196v-0.8H991v-4.5h1.4v-0.8H991v-1.7h-0.9v1.2c0,0.4-0.1,0.6-0.5,0.6H989v0.8h1v4.3
	c0,0.6,0.4,1,1,1H992.3z M996.5,196.1c1.2,0,2.1-0.6,2.4-1.4l-0.7-0.5c-0.3,0.7-0.9,1.1-1.7,1.1c-1.2,0-1.8-0.8-1.8-1.9v-0.3h4.5
	v-0.5c0-1.8-1-3-2.7-3c-1.7,0-2.8,1.3-2.8,3.2C993.7,194.9,994.8,196.1,996.5,196.1z M996.5,190.5c1,0,1.6,0.7,1.6,1.8v0.1h-3.4
	v-0.1C994.7,191.3,995.5,190.5,996.5,190.5z M1001.1,198.4h1V195h0.1c0.4,0.8,1,1.2,1.8,1.2c1.5,0,2.5-1.3,2.5-3.2
	c0-2-1-3.2-2.5-3.2c-0.9,0-1.5,0.4-1.8,1.2h-0.1v-1h-1V198.4z M1003.6,195.3c-0.9,0-1.6-0.5-1.6-1.3v-2.3c0-0.7,0.7-1.2,1.6-1.2
	c1.1,0,1.8,0.7,1.8,1.8v1.1C1005.4,194.5,1004.7,195.3,1003.6,195.3z M1016,196v-1.6h1.2v-0.8h-1.2v-5.9h-1.5l-3.5,5.8v0.9h4v1.6
	H1016z M1014.9,188.4L1014.9,188.4l0.1,5.1h-3.1L1014.9,188.4z M1019.7,196.1c0.5,0,0.7-0.3,0.7-0.7v-0.2c0-0.4-0.2-0.7-0.7-0.7
	c-0.5,0-0.7,0.3-0.7,0.7v0.2C1018.9,195.9,1019.1,196.1,1019.7,196.1z"/>
<path class="st8" d="M966,184.5h58c4.1,0,7.5,3.4,7.5,7.5l0,0c0,4.1-3.4,7.5-7.5,7.5h-58c-4.1,0-7.5-3.4-7.5-7.5l0,0
	C958.5,187.9,961.9,184.5,966,184.5z"/>
<path class="st5" d="M56,72.5h72c4.1,0,7.5,3.4,7.5,7.5l0,0c0,4.1-3.4,7.5-7.5,7.5H56c-4.1,0-7.5-3.4-7.5-7.5l0,0
	C48.5,75.9,51.9,72.5,56,72.5z"/>
<path d="M58.1,84v-3.8h3.6v-0.9h-3.6v-2.8h4v-0.9h-5V84H58.1z M64.8,84v-4.2c0-0.6,0.6-1,1.7-1H67v-1h-0.4c-1,0-1.6,0.6-1.8,1.1
	h-0.1v-1.1h-1V84H64.8z M70.8,84.1c1.7,0,2.8-1.3,2.8-3.2s-1.1-3.2-2.8-3.2S68,78.9,68,80.9S69.2,84.1,70.8,84.1z M70.8,83.3
	c-1,0-1.8-0.6-1.8-1.9v-0.9c0-1.3,0.7-1.9,1.8-1.9s1.8,0.6,1.8,1.9v0.9C72.6,82.7,71.8,83.3,70.8,83.3z M76.5,84v-4.3
	c0-0.8,0.7-1.2,1.5-1.2c0.9,0,1.3,0.6,1.3,1.7V84h1v-4.3c0-0.8,0.7-1.2,1.5-1.2c0.9,0,1.4,0.6,1.4,1.7V84h1v-4c0-1.5-0.8-2.4-2-2.4
	c-1.1,0-1.7,0.6-1.9,1.3h0c-0.3-0.9-1.1-1.3-1.9-1.3c-1,0-1.4,0.5-1.7,1.2h0v-1h-1V84H76.5z M91.3,84.1c1.4,0,2.3-0.7,2.3-1.9
	c0-0.9-0.5-1.5-1.9-1.7l-0.5-0.1c-0.8-0.1-1.2-0.4-1.2-1c0-0.6,0.4-1,1.2-1s1.3,0.4,1.6,0.8l0.6-0.6c-0.5-0.6-1.2-1-2.2-1
	c-1.3,0-2.2,0.6-2.2,1.8c0,1.2,0.9,1.6,2,1.8l0.5,0.1c0.8,0.1,1.1,0.5,1.1,1c0,0.6-0.5,1-1.3,1c-0.8,0-1.4-0.3-1.8-0.9l-0.7,0.6
	C89.4,83.7,90.2,84.1,91.3,84.1z M98.1,84v-0.8h-1.3v-4.5h1.4v-0.8h-1.4v-1.7H96v1.2c0,0.4-0.1,0.6-0.5,0.6h-0.6v0.8h1V83
	c0,0.6,0.4,1,1,1H98.1z M102.4,84.1c1.2,0,2.1-0.6,2.4-1.4l-0.7-0.5c-0.3,0.7-0.9,1.1-1.7,1.1c-1.2,0-1.8-0.8-1.8-1.9v-0.3h4.5v-0.5
	c0-1.8-1-3-2.7-3c-1.7,0-2.8,1.3-2.8,3.2S100.7,84.1,102.4,84.1z M102.4,78.5c1,0,1.6,0.7,1.6,1.8v0.1h-3.4v-0.1
	C100.6,79.3,101.3,78.5,102.4,78.5z M106.9,86.4h1V83h0c0.4,0.8,1,1.2,1.8,1.2c1.5,0,2.5-1.3,2.5-3.2c0-2-1-3.2-2.5-3.2
	c-0.9,0-1.5,0.4-1.8,1.2h0v-1h-1V86.4z M109.5,83.3c-0.9,0-1.6-0.5-1.6-1.3v-2.3c0-0.7,0.7-1.2,1.6-1.2c1.1,0,1.8,0.7,1.8,1.8v1.1
	C111.2,82.5,110.6,83.3,109.5,83.3z M122.7,83.1h-4.4l2.3-2c1.1-1,1.8-1.9,1.8-3.2c0-1.4-0.9-2.4-2.6-2.4c-1.6,0-2.4,1-2.7,2
	l0.9,0.3c0.2-0.8,0.7-1.4,1.7-1.4s1.5,0.6,1.5,1.6v0.1c0,0.8-0.6,1.6-1.4,2.4l-2.7,2.5v1h5.5V83.1z M125.5,84.1
	c0.5,0,0.7-0.3,0.7-0.7v-0.2c0-0.4-0.2-0.7-0.7-0.7s-0.7,0.3-0.7,0.7v0.2C124.8,83.9,125,84.1,125.5,84.1z"/>
<path class="st8" d="M56,72.5h72c4.1,0,7.5,3.4,7.5,7.5l0,0c0,4.1-3.4,7.5-7.5,7.5H56c-4.1,0-7.5-3.4-7.5-7.5l0,0
	C48.5,75.9,51.9,72.5,56,72.5z"/>
<path class="st9" d="M200.5,56h32c4.4,0,8,3.6,8,8v32c0,4.4-3.6,8-8,8h-32c-4.4,0-8-3.6-8-8V64C192.5,59.6,196.1,56,200.5,56z"/>
<path class="st5" d="M210.2,88.7h12.5c0.3,0,0.6-0.1,0.9-0.4c0.2-0.2,0.4-0.6,0.4-0.9v-3.8c0-0.3-0.1-0.6-0.4-0.9
	c-0.2-0.2-0.6-0.4-0.9-0.4h-12.5c-0.3,0-0.6,0.1-0.9,0.4c-0.2,0.2-0.4,0.6-0.4,0.9v3.8c0,0.3,0.1,0.6,0.4,0.9
	C209.6,88.6,209.9,88.7,210.2,88.7z M210.2,83.7h12.5v3.8h-12.5V83.7z"/>
<path class="st5" d="M212.1,86.2c0.3,0,0.6-0.3,0.6-0.6s-0.3-0.6-0.6-0.6s-0.6,0.3-0.6,0.6S211.8,86.2,212.1,86.2z"/>
<path class="st5" d="M222.8,71.2l-0.9,0.9l1.6,1.6h-3c-0.4-1-1.2-1.7-2.2-2.1c-1-0.4-2-0.5-3-0.2c-1,0.3-1.9,1-2.4,1.8
	c-0.6,0.9-0.8,1.9-0.6,3h-2.7l1.6-1.6l-0.9-0.9l-3.1,3.1l3.1,3.1l0.9-0.9l-1.6-1.6h3c0.4,1,1.2,1.7,2.2,2.1s2,0.5,3,0.2
	c1-0.3,1.9-1,2.4-1.8c0.6-0.9,0.8-1.9,0.6-3h2.7l-1.6,1.6l0.9,0.9l3.1-3.1L222.8,71.2z M219.6,75.6c0,0.7-0.2,1.3-0.6,1.8
	c-0.4,0.5-0.9,0.9-1.5,1.1c-0.6,0.2-1.3,0.2-1.9,0c-0.6-0.2-1.2-0.6-1.6-1.1h2.5v-1.2h-3.1c-0.1-0.7,0-1.4,0.3-2
	c0.3-0.6,0.8-1.1,1.5-1.4c0.6-0.3,1.4-0.4,2.1-0.2c0.7,0.2,1.3,0.6,1.7,1.2h-2.5V75h3.1C219.6,75.2,219.6,75.4,219.6,75.6z"/>
<path d="M212.8,120.2v1.5h1c1.2,0,1.8,0.5,1.8,1.4v0.1c0,0.9-0.6,1.5-1.7,1.5c-1.1,0-1.7-0.6-2.1-1.3l-1.4,1c0.6,1,1.6,1.8,3.5,1.8
	c2.2,0,3.6-1.1,3.6-2.9c0-1.4-0.9-2.2-2-2.4v-0.1c1-0.2,1.9-1,1.9-2.2c0-1.6-1.3-2.5-3.3-2.5c-1.7,0-2.6,0.7-3.2,1.6l1.2,1.1
	c0.5-0.7,1.1-1.2,2-1.2c0.9,0,1.4,0.5,1.4,1.3v0.1c0,0.7-0.5,1.2-1.6,1.2H212.8z M220.8,126.2c0.8,0,1.1-0.4,1.1-1v-0.3
	c0-0.6-0.3-1-1.1-1c-0.8,0-1.1,0.4-1.1,1v0.3C219.7,125.7,220,126.2,220.8,126.2z"/>
<path d="M185,144l-3.4-9.8H180l-3.4,9.8h1.2l1-2.9h3.9l1,2.9H185z M182.4,140.1h-3.4l1.7-4.8h0.1L182.4,140.1z M189.6,144v-1h-1.5
	v-5.3h1.6v-1h-1.6v-2h-1v1.3c0,0.5-0.2,0.7-0.6,0.7h-0.7v1h1.2v5.1c0,0.7,0.4,1.2,1.2,1.2H189.6z M194.5,144v-1H193v-5.3h1.6v-1H193
	v-2h-1v1.3c0,0.5-0.2,0.7-0.6,0.7h-0.7v1h1.2v5.1c0,0.7,0.4,1.2,1.2,1.2H194.5z M202.5,144v-1h-0.8v-4c0-1.5-1-2.4-2.8-2.4
	c-1.3,0-2.2,0.6-2.6,1.4l0.7,0.6c0.4-0.7,1-1.1,1.8-1.1c1.1,0,1.7,0.6,1.7,1.6v0.7h-1.4c-2.1,0-3.1,0.8-3.1,2.1
	c0,1.3,0.9,2.2,2.4,2.2c1,0,1.8-0.5,2.1-1.3h0.1c0.1,0.7,0.4,1.2,1.2,1.2H202.5z M198.6,143.2c-0.9,0-1.4-0.4-1.4-1.1v-0.3
	c0-0.7,0.6-1.1,1.8-1.1h1.5v1.2C200.5,142.6,199.7,143.2,198.6,143.2z M206.9,144.2c1.4,0,2.3-0.7,2.8-1.7l-0.8-0.5
	c-0.4,0.8-1.1,1.3-2,1.3c-1.3,0-2-0.9-2-2.2v-1.2c0-1.3,0.7-2.2,2-2.2c0.9,0,1.5,0.4,1.8,1.2l0.9-0.5c-0.4-1-1.3-1.7-2.7-1.7
	c-2,0-3.2,1.5-3.2,3.8S204.9,144.2,206.9,144.2z M211.4,144h1.1v-5c0-0.9,0.9-1.4,1.8-1.4c1.1,0,1.6,0.7,1.6,1.9v4.4h1.1v-4.6
	c0-1.8-0.9-2.8-2.4-2.8c-1.1,0-1.7,0.5-2,1.3h-0.1v-4.3h-1.1V144z M223,144h1.1v-5c0-0.9,0.9-1.4,1.8-1.4c1.1,0,1.6,0.7,1.6,1.9v4.4
	h1.1v-4.6c0-1.8-0.9-2.8-2.4-2.8c-1.1,0-1.7,0.5-2,1.3h-0.1v-4.3H223V144z M233.8,144.2c1.9,0,3.3-1.5,3.3-3.8s-1.3-3.8-3.3-3.8
	c-1.9,0-3.3,1.5-3.3,3.8S231.9,144.2,233.8,144.2z M233.8,143.2c-1.2,0-2.1-0.7-2.1-2.3v-1c0-1.5,0.9-2.3,2.1-2.3s2.1,0.7,2.1,2.3v1
	C235.9,142.4,235.1,143.2,233.8,143.2z M241.3,144.2c1.7,0,2.7-0.9,2.7-2.3c0-1.1-0.6-1.8-2.2-2l-0.6-0.1c-0.9-0.1-1.4-0.4-1.4-1.1
	c0-0.7,0.5-1.1,1.4-1.1s1.5,0.4,1.9,0.9l0.7-0.7c-0.6-0.7-1.4-1.2-2.5-1.2c-1.5,0-2.6,0.7-2.6,2.1c0,1.3,1,1.9,2.3,2.1l0.6,0.1
	c1,0.1,1.3,0.6,1.3,1.1c0,0.7-0.6,1.2-1.5,1.2c-0.9,0-1.6-0.4-2.1-1.1l-0.8,0.6C239.1,143.6,240,144.2,241.3,144.2z M249,144v-1
	h-1.5v-5.3h1.6v-1h-1.6v-2h-1v1.3c0,0.5-0.2,0.7-0.6,0.7h-0.7v1h1.2v5.1c0,0.7,0.4,1.2,1.2,1.2H249z M253.2,144.2
	c1.7,0,2.7-0.9,2.7-2.3c0-1.1-0.6-1.8-2.2-2l-0.6-0.1c-0.9-0.1-1.4-0.4-1.4-1.1c0-0.7,0.5-1.1,1.4-1.1s1.5,0.4,1.9,0.9l0.7-0.7
	c-0.6-0.7-1.4-1.2-2.5-1.2c-1.5,0-2.6,0.7-2.6,2.1c0,1.3,1,1.9,2.3,2.1l0.6,0.1c1,0.1,1.3,0.6,1.3,1.1c0,0.7-0.6,1.2-1.5,1.2
	c-0.9,0-1.6-0.4-2.1-1.1l-0.8,0.6C251,143.6,251.9,144.2,253.2,144.2z M181.2,162v-1h-1.5v-5.3h1.6v-1h-1.6v-2h-1v1.3
	c0,0.5-0.2,0.7-0.6,0.7h-0.7v1h1.2v5.1c0,0.7,0.4,1.2,1.2,1.2H181.2z M185.9,162.2c1.9,0,3.3-1.5,3.3-3.8s-1.3-3.8-3.3-3.8
	c-1.9,0-3.3,1.5-3.3,3.8S184,162.2,185.9,162.2z M185.9,161.2c-1.2,0-2.1-0.7-2.1-2.3v-1c0-1.5,0.9-2.3,2.1-2.3
	c1.2,0,2.1,0.7,2.1,2.3v1C188,160.4,187.1,161.2,185.9,161.2z M200.5,162v-1h-0.8v-4c0-1.5-1-2.4-2.8-2.4c-1.3,0-2.2,0.6-2.6,1.4
	l0.7,0.6c0.4-0.7,1-1.1,1.8-1.1c1.1,0,1.7,0.6,1.7,1.6v0.7h-1.4c-2.1,0-3.1,0.8-3.1,2.1c0,1.3,0.9,2.2,2.4,2.2c1,0,1.8-0.5,2.1-1.3
	h0.1c0.1,0.7,0.4,1.2,1.2,1.2H200.5z M196.7,161.2c-0.9,0-1.4-0.4-1.4-1.1v-0.3c0-0.7,0.6-1.1,1.8-1.1h1.5v1.2
	C198.6,160.6,197.8,161.2,196.7,161.2z M207.9,162v-1h-1.1v-9.4h-1.1v9.2c0,0.7,0.4,1.2,1.2,1.2H207.9z M212.4,162.2
	c1.9,0,3.3-1.5,3.3-3.8s-1.3-3.8-3.3-3.8c-1.9,0-3.3,1.5-3.3,3.8S210.5,162.2,212.4,162.2z M212.4,161.2c-1.2,0-2.1-0.7-2.1-2.3v-1
	c0-1.5,0.9-2.3,2.1-2.3s2.1,0.7,2.1,2.3v1C214.5,160.4,213.6,161.2,212.4,161.2z M220.4,162.2c1.4,0,2.3-0.7,2.8-1.7l-0.8-0.5
	c-0.4,0.8-1.1,1.3-2,1.3c-1.3,0-2-0.9-2-2.2v-1.2c0-1.3,0.7-2.2,2-2.2c0.9,0,1.5,0.4,1.8,1.2l0.9-0.5c-0.4-1-1.3-1.7-2.7-1.7
	c-2,0-3.2,1.5-3.2,3.8S218.4,162.2,220.4,162.2z M230.8,162v-1H230v-4c0-1.5-1-2.4-2.8-2.4c-1.3,0-2.2,0.6-2.6,1.4l0.7,0.6
	c0.4-0.7,1-1.1,1.8-1.1c1.1,0,1.7,0.6,1.7,1.6v0.7h-1.4c-2.1,0-3.1,0.8-3.1,2.1c0,1.3,0.9,2.2,2.4,2.2c1,0,1.8-0.5,2.1-1.3h0.1
	c0.1,0.7,0.4,1.2,1.2,1.2H230.8z M226.9,161.2c-0.9,0-1.4-0.4-1.4-1.1v-0.3c0-0.7,0.6-1.1,1.8-1.1h1.5v1.2
	C228.8,160.6,228,161.2,226.9,161.2z M235.5,162v-1h-1.5v-5.3h1.6v-1h-1.6v-2h-1v1.3c0,0.5-0.2,0.7-0.6,0.7h-0.7v1h1.2v5.1
	c0,0.7,0.4,1.2,1.2,1.2H235.5z M238.2,153.1c0.5,0,0.7-0.3,0.7-0.6v-0.2c0-0.4-0.2-0.6-0.7-0.6s-0.7,0.3-0.7,0.6v0.2
	C237.5,152.8,237.7,153.1,238.2,153.1z M237.6,162h1.1v-7.2h-1.1V162z M244,162.2c1.9,0,3.3-1.5,3.3-3.8s-1.3-3.8-3.3-3.8
	c-1.9,0-3.3,1.5-3.3,3.8S242.1,162.2,244,162.2z M244,161.2c-1.2,0-2.1-0.7-2.1-2.3v-1c0-1.5,0.9-2.3,2.1-2.3s2.1,0.7,2.1,2.3v1
	C246.1,160.4,245.2,161.2,244,161.2z M250.4,162v-5c0-0.9,0.9-1.4,1.8-1.4c1.1,0,1.6,0.7,1.6,1.9v4.4h1.1v-4.6
	c0-1.8-0.9-2.8-2.4-2.8c-1.1,0-1.7,0.5-2,1.3h-0.1v-1.2h-1.1v7.2H250.4z"/>
<path class="st10" d="M201,52.5h35.5c4.4,0,8,3.6,8,8V96"/>
<path class="st10" d="M205,48.5h35.5c4.4,0,8,3.6,8,8V92"/>
</svg>
