<?xml version="1.0" encoding="utf-8"?>
<!-- Generator: Adobe Illustrator 26.4.1, SVG Export Plug-In . SVG Version: 6.00 Build 0)  -->
<svg version="1.1" id="Layer_1" xmlns="http://www.w3.org/2000/svg" xmlns:xlink="http://www.w3.org/1999/xlink" x="0px" y="0px"
	 viewBox="0 0 1080 810" style="enable-background:new 0 0 1080 810;" xml:space="preserve">
<style type="text/css">
	.st0{fill:#F4F4F4;}
	.st1{fill:#565151;}
	.st2{fill:#FFFFFF;stroke:#8D8D8D;}
	.st3{fill:#8D8D8D;}
	.st4{fill:#F4F4F4;stroke:#8D8D8D;}
	.st5{fill:#FFFFFF;}
	.st6{clip-path:url(#SVGID_00000039837108520113897590000016527884471186931079_);}
	.st7{fill:none;stroke:#8D8D8D;}
	.st8{fill:none;stroke:#A56EFF;stroke-dasharray:4,4;}
	.st9{fill:#A56EFF;stroke:#A56EFF;}
	.st10{clip-path:url(#SVGID_00000161613023946902984310000000001427399383138462_);}
	.st11{clip-path:url(#SVGID_00000165233490527790368190000001955224316205035937_);}
	.st12{fill:#A56EFF;}
	.st13{fill:#F4F4F4;stroke:#A56EFF;}
	.st14{fill:none;stroke:#000000;}
	.st15{fill:#6929C4;}
	.st16{fill:none;stroke:#6929C4;}
</style>
<rect class="st0" width="1080" height="810"/>
<path class="st1" d="M187,78.1l5,2.9l-5,2.9v-2.4h-52v-1h52V78.1z"/>
<path class="st1" d="M995.5,400c0,4.7-3.8,8.5-8.5,8.5h-67v-1h67c4.1,0,7.5-3.4,7.5-7.5V205h-2.4l2.9-5l2.9,5h-2.4V400z"/>
<path class="st1" d="M219.5,224v-56h-1v56H219.5z"/>
<rect x="144.5" y="224.5" class="st2" width="775" height="511"/>
<path class="st3" d="M148,224h-4v48h4V224z"/>
<path d="M165.2,253v-1.5h-1.3v-6.8h1.3v-1.5h-4.4v1.5h1.3v6.8h-1.3v1.5H165.2z M168.9,253v-4.8c0-0.8,0.7-1.2,1.5-1.2
	c0.9,0,1.2,0.5,1.2,1.6v4.4h1.8v-4.6c0-1.8-0.8-2.9-2.3-2.9c-1.1,0-1.8,0.6-2,1.4h-0.1v-1.2h-1.8v7.3H168.9z M175.9,253h1.8v-5.9
	h1.5v-1.4h-1.5v-1.6h1.5v-1.4h-1.3c-1.3,0-2,0.7-2,2v1.1h-1.1v1.4h1.1V253z M182.4,253v-4.5c0-0.8,0.6-1.1,1.8-1.1h0.6v-1.7h-0.4
	c-1.2,0-1.8,0.7-1.9,1.5h-0.1v-1.5h-1.8v7.3H182.4z M187.9,253.2c1.1,0,1.9-0.5,2.1-1.4h0.1c0.1,0.8,0.6,1.3,1.4,1.3h1v-1.4h-0.7
	v-3.4c0-1.7-1.1-2.6-3-2.6c-1.5,0-2.3,0.6-2.9,1.4l1.1,1c0.3-0.5,0.8-0.9,1.7-0.9c1,0,1.4,0.5,1.4,1.3v0.5h-1.2
	c-2,0-3.1,0.7-3.1,2.2C185.5,252.3,186.4,253.2,187.9,253.2z M188.5,251.9c-0.7,0-1.1-0.3-1.1-0.9v-0.2c0-0.6,0.5-0.9,1.4-0.9h1.1v1
	C189.9,251.5,189.3,251.9,188.5,251.9z M196.4,253.2c1.8,0,3-1,3-2.4c0-1.2-0.8-1.9-2.4-2.2l-0.7-0.1c-0.7-0.1-1-0.3-1-0.8
	c0-0.4,0.3-0.8,1.1-0.8c0.7,0,1.3,0.3,1.8,0.8l1.1-1.1c-0.7-0.7-1.4-1.1-2.9-1.1c-1.7,0-2.8,0.9-2.8,2.3c0,1.3,0.9,2,2.4,2.2
	l0.7,0.1c0.6,0.1,0.9,0.4,0.9,0.8c0,0.5-0.4,0.8-1.2,0.8c-0.8,0-1.5-0.4-2-1l-1.1,1.1C194.1,252.7,195.1,253.2,196.4,253.2z
	 M203.4,253h1.3v-1.4h-1.4v-4.5h1.5v-1.4h-1.5v-2h-1.6v1.2c0,0.5-0.2,0.8-0.7,0.8h-0.6v1.4h1.1v4C201.5,252.3,202.1,253,203.4,253z
	 M208.3,253v-4.5c0-0.8,0.6-1.1,1.8-1.1h0.6v-1.7h-0.4c-1.2,0-1.8,0.7-1.9,1.5h-0.1v-1.5h-1.8v7.3H208.3z M216.5,253h1.8v-7.3h-1.8
	v4.8c0,0.8-0.7,1.2-1.4,1.2c-0.9,0-1.2-0.5-1.2-1.6v-4.4h-1.8v4.6c0,1.8,0.8,2.9,2.3,2.9c1.2,0,1.8-0.7,2-1.4h0.1V253z M223.4,253.2
	c1.4,0,2.4-0.6,2.9-1.9l-1.4-0.7c-0.3,0.7-0.7,1.1-1.5,1.1c-1,0-1.5-0.7-1.5-1.7v-1.3c0-1,0.5-1.7,1.5-1.7c0.8,0,1.2,0.4,1.4,1.1
	l1.5-0.7c-0.4-1.1-1.4-1.8-2.9-1.8c-2.2,0-3.4,1.5-3.4,3.8C220,251.7,221.3,253.2,223.4,253.2z M230.1,253h1.3v-1.4H230v-4.5h1.5
	v-1.4H230v-2h-1.6v1.2c0,0.5-0.2,0.8-0.7,0.8h-0.6v1.4h1.1v4C228.3,252.3,228.9,253,230.1,253z M237.6,253h1.8v-7.3h-1.8v4.8
	c0,0.8-0.7,1.2-1.4,1.2c-0.9,0-1.2-0.5-1.2-1.6v-4.4h-1.8v4.6c0,1.8,0.8,2.9,2.3,2.9c1.2,0,1.8-0.7,2-1.4h0.1V253z M243.4,253v-4.5
	c0-0.8,0.6-1.1,1.8-1.1h0.6v-1.7h-0.4c-1.2,0-1.8,0.7-1.9,1.5h-0.1v-1.5h-1.8v7.3H243.4z M250.2,253.2c1.4,0,2.4-0.5,3-1.3l-1-1.1
	c-0.4,0.6-1,1-1.9,1c-1.2,0-1.8-0.7-1.8-1.8v-0.2h4.9v-0.6c0-2-1-3.7-3.3-3.7c-2.1,0-3.4,1.5-3.4,3.8
	C246.7,251.7,248,253.2,250.2,253.2z M250.2,246.9c0.9,0,1.4,0.7,1.4,1.7v0.1h-3v-0.1C248.6,247.6,249.2,246.9,250.2,246.9z"/>
<path class="st4" d="M160.5,288.5H896c4.1,0,7.5,3.4,7.5,7.5v416c0,4.1-3.4,7.5-7.5,7.5H168c-4.1,0-7.5-3.4-7.5-7.5V288.5z"/>
<path class="st3" d="M164,288h-4v48h4V288z"/>
<path d="M182.8,317v-1.6H179v-8.1h-1.8v9.8H182.8z M187.3,317.2c2.1,0,3.4-1.5,3.4-3.8c0-2.3-1.3-3.8-3.4-3.8
	c-2.1,0-3.4,1.5-3.4,3.8C183.9,315.7,185.2,317.2,187.3,317.2z M187.3,315.7c-0.9,0-1.5-0.6-1.5-1.7v-1.4c0-1.1,0.6-1.7,1.5-1.7
	c0.9,0,1.5,0.6,1.5,1.7v1.4C188.8,315.1,188.2,315.7,187.3,315.7z M195.3,317.2c1.4,0,2.4-0.6,2.9-1.9l-1.4-0.7
	c-0.3,0.7-0.7,1.1-1.5,1.1c-1,0-1.5-0.7-1.5-1.7v-1.3c0-1,0.5-1.7,1.5-1.7c0.8,0,1.2,0.4,1.4,1.1l1.5-0.7c-0.4-1.1-1.4-1.8-2.9-1.8
	c-2.2,0-3.4,1.5-3.4,3.8C191.9,315.7,193.1,317.2,195.3,317.2z M201.6,317.2c1.1,0,1.9-0.5,2.1-1.4h0.1c0.1,0.8,0.6,1.3,1.4,1.3h1
	v-1.4h-0.7v-3.4c0-1.7-1.1-2.6-3-2.6c-1.5,0-2.3,0.6-2.9,1.4l1.1,1c0.3-0.5,0.8-0.9,1.7-0.9c1,0,1.4,0.5,1.4,1.3v0.5h-1.2
	c-2,0-3.1,0.7-3.1,2.2C199.2,316.3,200.1,317.2,201.6,317.2z M202.2,315.9c-0.7,0-1.1-0.3-1.1-0.9v-0.2c0-0.6,0.5-0.9,1.4-0.9h1.1v1
	C203.6,315.5,203,315.9,202.2,315.9z M210,317h1.3v-1.4h-1.4v-4.5h1.5v-1.4h-1.5v-2h-1.6v1.2c0,0.5-0.2,0.8-0.7,0.8H207v1.4h1.1v4
	C208.1,316.3,208.7,317,210,317z M214,308.6c0.7,0,1.1-0.4,1.1-0.9v-0.3c0-0.5-0.3-0.9-1.1-0.9c-0.7,0-1.1,0.4-1.1,0.9v0.3
	C212.9,308.2,213.2,308.6,214,308.6z M213.1,317h1.8v-7.3h-1.8V317z M220,317.2c2.1,0,3.4-1.5,3.4-3.8c0-2.3-1.3-3.8-3.4-3.8
	c-2.1,0-3.4,1.5-3.4,3.8C216.6,315.7,217.9,317.2,220,317.2z M220,315.7c-0.9,0-1.5-0.6-1.5-1.7v-1.4c0-1.1,0.6-1.7,1.5-1.7
	c0.9,0,1.5,0.6,1.5,1.7v1.4C221.5,315.1,220.9,315.7,220,315.7z M226.9,317v-4.8c0-0.8,0.7-1.2,1.5-1.2c0.9,0,1.2,0.5,1.2,1.6v4.4
	h1.8v-4.6c0-1.8-0.8-2.9-2.3-2.9c-1.1,0-1.8,0.6-2,1.4h-0.1v-1.2h-1.8v7.3H226.9z"/>
<rect x="176.5" y="624.5" class="st5" width="711" height="79"/>
<g>
	<defs>
		<rect id="SVGID_1_" x="176" y="624" width="77" height="48"/>
	</defs>
	<clipPath id="SVGID_00000183210947688885670620000009303225823136136639_">
		<use xlink:href="#SVGID_1_"  style="overflow:visible;"/>
	</clipPath>
	<g style="clip-path:url(#SVGID_00000183210947688885670620000009303225823136136639_);">
		<path d="M199.9,651.3h-5.2l5.1-6.5v-1.7h-6.9v1.6h4.8l-5.1,6.5v1.7h7.3V651.3z M204.4,653.1c2.1,0,3.4-1.5,3.4-3.8
			c0-2.3-1.3-3.8-3.4-3.8c-2.1,0-3.4,1.5-3.4,3.8C201,651.6,202.3,653.1,204.4,653.1z M204.4,651.7c-0.9,0-1.5-0.6-1.5-1.7v-1.4
			c0-1.1,0.6-1.7,1.5-1.7c0.9,0,1.5,0.6,1.5,1.7v1.4C205.9,651.1,205.3,651.7,204.4,651.7z M211.3,653v-4.8c0-0.8,0.7-1.2,1.5-1.2
			c0.9,0,1.2,0.5,1.2,1.6v4.4h1.8v-4.6c0-1.8-0.8-2.9-2.3-2.9c-1.1,0-1.8,0.6-2,1.4h-0.1v-1.2h-1.8v7.3H211.3z M220.9,653.1
			c1.4,0,2.4-0.5,3-1.3l-1-1.1c-0.4,0.6-1,1-1.9,1c-1.2,0-1.8-0.7-1.8-1.8v-0.2h4.9v-0.6c0-2-1-3.7-3.3-3.7c-2.1,0-3.4,1.5-3.4,3.8
			C217.5,651.6,218.7,653.1,220.9,653.1z M220.9,646.8c0.9,0,1.4,0.7,1.4,1.7v0.1h-3v-0.1C219.3,647.5,219.9,646.8,220.9,646.8z
			 M231,647.1v1.5h1c1.2,0,1.8,0.5,1.8,1.4v0.1c0,0.9-0.6,1.5-1.7,1.5c-1.1,0-1.7-0.6-2.1-1.3l-1.4,1c0.6,1,1.6,1.8,3.5,1.8
			c2.2,0,3.6-1.1,3.6-2.9c0-1.4-0.9-2.2-2-2.4v-0.1c1-0.2,1.9-1,1.9-2.2c0-1.6-1.3-2.5-3.3-2.5c-1.7,0-2.6,0.7-3.2,1.6l1.2,1.1
			c0.5-0.7,1.1-1.2,2-1.2c0.9,0,1.4,0.5,1.4,1.3v0.1c0,0.7-0.5,1.2-1.6,1.2H231z"/>
	</g>
</g>
<rect x="176.5" y="624.5" class="st7" width="711" height="79"/>
<rect x="273" y="640" class="st5" width="48" height="48"/>
<rect x="273.5" y="640.5" class="st8" width="47" height="47"/>
<rect x="276.5" y="643.5" class="st9" width="41" height="41"/>
<path class="st5" d="M300.1,664h-6.2c-0.3,0-0.6,0.1-0.9,0.4c-0.2,0.2-0.4,0.6-0.4,0.9v3.8c0,0.3,0.1,0.6,0.4,0.9
	c0.2,0.2,0.6,0.4,0.9,0.4h2.5v1.2h-1.9v1.2h5v-1.2h-1.9v-1.2h2.5c0.3,0,0.6-0.1,0.9-0.4c0.2-0.2,0.4-0.6,0.4-0.9v-3.8
	c0-0.3-0.1-0.6-0.4-0.9C300.8,664.1,300.5,664,300.1,664z M293.9,669v-3.8h6.2l0,3.8H293.9z"/>
<path class="st5" d="M303.1,660.3c-0.3-1.4-1-2.7-2.2-3.6c-1.1-0.9-2.5-1.4-4-1.4s-2.9,0.5-4,1.4c-1.1,0.9-1.9,2.2-2.2,3.6
	c-1.1,0.2-2.1,0.8-2.9,1.7c-0.7,0.9-1.1,2-1,3.2c0.1,1.1,0.5,2.2,1.3,3c0.8,0.8,1.9,1.3,3,1.4v-1.2c-0.9-0.1-1.7-0.5-2.2-1.1
	c-0.6-0.6-0.9-1.5-0.9-2.3c0-0.9,0.3-1.7,0.9-2.3c0.6-0.6,1.4-1,2.3-1.1l0.5,0l0.1-0.5c0.1-1.2,0.7-2.4,1.6-3.2
	c0.9-0.8,2.1-1.3,3.3-1.3s2.4,0.5,3.3,1.3c0.9,0.8,1.5,2,1.6,3.2l0.1,0.5l0.5,0c0.9,0.1,1.7,0.4,2.3,1.1c0.6,0.6,0.9,1.5,0.9,2.3
	c0,0.9-0.3,1.7-0.9,2.3c-0.6,0.6-1.4,1-2.2,1.1v1.2c1.1-0.1,2.2-0.6,3-1.4c0.8-0.8,1.3-1.9,1.3-3c0.1-1.1-0.3-2.3-1-3.2
	C305.3,661.1,304.3,660.5,303.1,660.3z"/>
<path d="M336.1,668h1.8v-9.8h-1.8v4H332v-4h-1.8v9.8h1.8v-4.1h4.1V668z M343.2,668.1c2.1,0,3.4-1.5,3.4-3.8c0-2.3-1.3-3.8-3.4-3.8
	c-2.1,0-3.4,1.5-3.4,3.8C339.8,666.6,341.1,668.1,343.2,668.1z M343.2,666.7c-0.9,0-1.5-0.6-1.5-1.7v-1.4c0-1.1,0.6-1.7,1.5-1.7
	c0.9,0,1.5,0.6,1.5,1.7v1.4C344.7,666.1,344.1,666.7,343.2,666.7z M350.7,668.1c1.8,0,3-1,3-2.4c0-1.2-0.8-1.9-2.4-2.2l-0.7-0.1
	c-0.7-0.1-1-0.3-1-0.8c0-0.4,0.3-0.8,1.1-0.8c0.7,0,1.3,0.3,1.8,0.8l1.1-1c-0.7-0.7-1.4-1.1-2.9-1.1c-1.7,0-2.8,0.9-2.8,2.3
	c0,1.3,0.9,2,2.4,2.2l0.7,0.1c0.6,0.1,0.9,0.4,0.9,0.8c0,0.5-0.4,0.8-1.2,0.8c-0.8,0-1.5-0.4-2-1l-1.1,1.1
	C348.4,667.6,349.3,668.1,350.7,668.1z M357.6,668h1.3v-1.4h-1.4v-4.5h1.5v-1.4h-1.5v-2h-1.6v1.2c0,0.5-0.2,0.8-0.7,0.8h-0.6v1.4
	h1.1v4C355.7,667.3,356.4,668,357.6,668z"/>
<rect x="396" y="640" class="st5" width="48" height="48"/>
<rect x="396" y="640" class="st3" width="48" height="48"/>
<path class="st5" d="M423.1,664h-6.2c-0.3,0-0.6,0.1-0.9,0.4c-0.2,0.2-0.4,0.6-0.4,0.9v3.8c0,0.3,0.1,0.6,0.4,0.9
	c0.2,0.2,0.6,0.4,0.9,0.4h2.5v1.2h-1.9v1.2h5v-1.2h-1.9v-1.2h2.5c0.3,0,0.6-0.1,0.9-0.4c0.2-0.2,0.4-0.6,0.4-0.9v-3.8
	c0-0.3-0.1-0.6-0.4-0.9C423.8,664.1,423.5,664,423.1,664z M416.9,669v-3.8h6.2l0,3.8H416.9z"/>
<path class="st5" d="M426.1,660.3c-0.3-1.4-1-2.7-2.2-3.6c-1.1-0.9-2.5-1.4-4-1.4s-2.9,0.5-4,1.4c-1.1,0.9-1.9,2.2-2.2,3.6
	c-1.1,0.2-2.1,0.8-2.9,1.7c-0.7,0.9-1.1,2-1,3.2c0.1,1.1,0.5,2.2,1.3,3c0.8,0.8,1.9,1.3,3,1.4v-1.2c-0.9-0.1-1.7-0.5-2.2-1.1
	c-0.6-0.6-0.9-1.5-0.9-2.3c0-0.9,0.3-1.7,0.9-2.3c0.6-0.6,1.4-1,2.3-1.1l0.5,0l0.1-0.5c0.1-1.2,0.7-2.4,1.6-3.2
	c0.9-0.8,2.1-1.3,3.3-1.3s2.4,0.5,3.3,1.3c0.9,0.8,1.5,2,1.6,3.2l0.1,0.5l0.5,0c0.9,0.1,1.7,0.4,2.3,1.1c0.6,0.6,0.9,1.5,0.9,2.3
	c0,0.9-0.3,1.7-0.9,2.3c-0.6,0.6-1.4,1-2.2,1.1v1.2c1.1-0.1,2.2-0.6,3-1.4c0.8-0.8,1.3-1.9,1.3-3c0.1-1.1-0.3-2.3-1-3.2
	C428.3,661.1,427.3,660.5,426.1,660.3z"/>
<path d="M459.1,668h1.8v-9.8h-1.8v4H455v-4h-1.8v9.8h1.8v-4.1h4.1V668z M466.2,668.1c2.1,0,3.4-1.5,3.4-3.8c0-2.3-1.3-3.8-3.4-3.8
	c-2.1,0-3.4,1.5-3.4,3.8C462.8,666.6,464.1,668.1,466.2,668.1z M466.2,666.7c-0.9,0-1.5-0.6-1.5-1.7v-1.4c0-1.1,0.6-1.7,1.5-1.7
	c0.9,0,1.5,0.6,1.5,1.7v1.4C467.7,666.1,467.1,666.7,466.2,666.7z M473.7,668.1c1.8,0,3-1,3-2.4c0-1.2-0.8-1.9-2.4-2.2l-0.7-0.1
	c-0.7-0.1-1-0.3-1-0.8c0-0.4,0.3-0.8,1.1-0.8c0.7,0,1.3,0.3,1.8,0.8l1.1-1c-0.7-0.7-1.4-1.1-2.9-1.1c-1.7,0-2.8,0.9-2.8,2.3
	c0,1.3,0.9,2,2.4,2.2l0.7,0.1c0.6,0.1,0.9,0.4,0.9,0.8c0,0.5-0.4,0.8-1.2,0.8c-0.8,0-1.5-0.4-2-1l-1.1,1.1
	C471.4,667.6,472.3,668.1,473.7,668.1z M480.6,668h1.3v-1.4h-1.4v-4.5h1.5v-1.4h-1.5v-2h-1.6v1.2c0,0.5-0.2,0.8-0.7,0.8h-0.6v1.4
	h1.1v4C478.7,667.3,479.4,668,480.6,668z"/>
<rect x="519" y="640" class="st5" width="48" height="48"/>
<rect x="519" y="640" class="st3" width="48" height="48"/>
<path class="st5" d="M546.1,664h-6.2c-0.3,0-0.6,0.1-0.9,0.4c-0.2,0.2-0.4,0.6-0.4,0.9v3.8c0,0.3,0.1,0.6,0.4,0.9
	c0.2,0.2,0.6,0.4,0.9,0.4h2.5v1.2h-1.9v1.2h5v-1.2h-1.9v-1.2h2.5c0.3,0,0.6-0.1,0.9-0.4c0.2-0.2,0.4-0.6,0.4-0.9v-3.8
	c0-0.3-0.1-0.6-0.4-0.9C546.8,664.1,546.5,664,546.1,664z M539.9,669v-3.8h6.2l0,3.8H539.9z"/>
<path class="st5" d="M549.1,660.3c-0.3-1.4-1-2.7-2.2-3.6c-1.1-0.9-2.5-1.4-4-1.4s-2.9,0.5-4,1.4c-1.1,0.9-1.9,2.2-2.2,3.6
	c-1.1,0.2-2.1,0.8-2.9,1.7c-0.7,0.9-1.1,2-1,3.2c0.1,1.1,0.5,2.2,1.3,3c0.8,0.8,1.9,1.3,3,1.4v-1.2c-0.9-0.1-1.7-0.5-2.2-1.1
	c-0.6-0.6-0.9-1.5-0.9-2.3c0-0.9,0.3-1.7,0.9-2.3c0.6-0.6,1.4-1,2.3-1.1l0.5,0l0.1-0.5c0.1-1.2,0.7-2.4,1.6-3.2
	c0.9-0.8,2.1-1.3,3.3-1.3s2.4,0.5,3.3,1.3c0.9,0.8,1.5,2,1.6,3.2l0.1,0.5l0.5,0c0.9,0.1,1.7,0.4,2.3,1.1c0.6,0.6,0.9,1.5,0.9,2.3
	c0,0.9-0.3,1.7-0.9,2.3c-0.6,0.6-1.4,1-2.2,1.1v1.2c1.1-0.1,2.2-0.6,3-1.4c0.8-0.8,1.3-1.9,1.3-3c0.1-1.1-0.3-2.3-1-3.2
	C551.3,661.1,550.3,660.5,549.1,660.3z"/>
<path d="M582.1,668h1.8v-9.8h-1.8v4H578v-4h-1.8v9.8h1.8v-4.1h4.1V668z M589.2,668.1c2.1,0,3.4-1.5,3.4-3.8c0-2.3-1.3-3.8-3.4-3.8
	c-2.1,0-3.4,1.5-3.4,3.8C585.8,666.6,587.1,668.1,589.2,668.1z M589.2,666.7c-0.9,0-1.5-0.6-1.5-1.7v-1.4c0-1.1,0.6-1.7,1.5-1.7
	c0.9,0,1.5,0.6,1.5,1.7v1.4C590.7,666.1,590.1,666.7,589.2,666.7z M596.7,668.1c1.8,0,3-1,3-2.4c0-1.2-0.8-1.9-2.4-2.2l-0.7-0.1
	c-0.7-0.1-1-0.3-1-0.8c0-0.4,0.3-0.8,1.1-0.8c0.7,0,1.3,0.3,1.8,0.8l1-1c-0.7-0.7-1.4-1.1-2.9-1.1c-1.7,0-2.8,0.9-2.8,2.3
	c0,1.3,0.9,2,2.4,2.2l0.7,0.1c0.6,0.1,0.9,0.4,0.9,0.8c0,0.5-0.4,0.8-1.2,0.8c-0.8,0-1.5-0.4-2-1l-1.1,1.1
	C594.4,667.6,595.3,668.1,596.7,668.1z M603.6,668h1.3v-1.4h-1.4v-4.5h1.5v-1.4h-1.5v-2h-1.6v1.2c0,0.5-0.2,0.8-0.7,0.8h-0.6v1.4
	h1.1v4C601.7,667.3,602.4,668,603.6,668z"/>
<rect x="642" y="640" class="st5" width="48" height="48"/>
<rect x="642" y="640" class="st3" width="48" height="48"/>
<path class="st5" d="M669.1,664h-6.2c-0.3,0-0.6,0.1-0.9,0.4c-0.2,0.2-0.4,0.6-0.4,0.9v3.8c0,0.3,0.1,0.6,0.4,0.9
	c0.2,0.2,0.6,0.4,0.9,0.4h2.5v1.2h-1.9v1.2h5v-1.2h-1.9v-1.2h2.5c0.3,0,0.6-0.1,0.9-0.4c0.2-0.2,0.4-0.6,0.4-0.9v-3.8
	c0-0.3-0.1-0.6-0.4-0.9C669.8,664.1,669.5,664,669.1,664z M662.9,669v-3.8h6.2l0,3.8H662.9z"/>
<path class="st5" d="M672.1,660.3c-0.3-1.4-1-2.7-2.2-3.6c-1.1-0.9-2.5-1.4-4-1.4s-2.9,0.5-4,1.4c-1.1,0.9-1.9,2.2-2.2,3.6
	c-1.1,0.2-2.1,0.8-2.9,1.7c-0.7,0.9-1.1,2-1,3.2c0.1,1.1,0.5,2.2,1.3,3c0.8,0.8,1.9,1.3,3,1.4v-1.2c-0.9-0.1-1.7-0.5-2.2-1.1
	c-0.6-0.6-0.9-1.5-0.9-2.3c0-0.9,0.3-1.7,0.9-2.3c0.6-0.6,1.4-1,2.3-1.1l0.5,0l0.1-0.5c0.1-1.2,0.7-2.4,1.6-3.2
	c0.9-0.8,2.1-1.3,3.3-1.3s2.4,0.5,3.3,1.3c0.9,0.8,1.5,2,1.6,3.2l0.1,0.5l0.5,0c0.9,0.1,1.7,0.4,2.3,1.1c0.6,0.6,0.9,1.5,0.9,2.3
	c0,0.9-0.3,1.7-0.9,2.3c-0.6,0.6-1.4,1-2.2,1.1v1.2c1.1-0.1,2.2-0.6,3-1.4c0.8-0.8,1.3-1.9,1.3-3c0.1-1.1-0.3-2.3-1-3.2
	C674.3,661.1,673.3,660.5,672.1,660.3z"/>
<path d="M705.1,668h1.8v-9.8h-1.8v4H701v-4h-1.8v9.8h1.8v-4.1h4.1V668z M712.2,668.1c2.1,0,3.4-1.5,3.4-3.8c0-2.3-1.3-3.8-3.4-3.8
	c-2.1,0-3.4,1.5-3.4,3.8C708.8,666.6,710.1,668.1,712.2,668.1z M712.2,666.7c-0.9,0-1.5-0.6-1.5-1.7v-1.4c0-1.1,0.6-1.7,1.5-1.7
	c0.9,0,1.5,0.6,1.5,1.7v1.4C713.7,666.1,713.1,666.7,712.2,666.7z M719.7,668.1c1.8,0,3-1,3-2.4c0-1.2-0.8-1.9-2.4-2.2l-0.7-0.1
	c-0.7-0.1-1-0.3-1-0.8c0-0.4,0.3-0.8,1.1-0.8c0.7,0,1.3,0.3,1.8,0.8l1-1c-0.7-0.7-1.4-1.1-2.9-1.1c-1.7,0-2.8,0.9-2.8,2.3
	c0,1.3,0.9,2,2.4,2.2l0.7,0.1c0.6,0.1,0.9,0.4,0.9,0.8c0,0.5-0.4,0.8-1.2,0.8c-0.8,0-1.5-0.4-2-1l-1.1,1.1
	C717.4,667.6,718.3,668.1,719.7,668.1z M726.6,668h1.3v-1.4h-1.4v-4.5h1.5v-1.4h-1.5v-2h-1.6v1.2c0,0.5-0.2,0.8-0.7,0.8h-0.6v1.4
	h1.1v4C724.7,667.3,725.4,668,726.6,668z"/>
<rect x="765" y="640" class="st5" width="48" height="48"/>
<rect x="765" y="640" class="st3" width="48" height="48"/>
<path class="st5" d="M792.1,664h-6.2c-0.3,0-0.6,0.1-0.9,0.4c-0.2,0.2-0.4,0.6-0.4,0.9v3.8c0,0.3,0.1,0.6,0.4,0.9
	c0.2,0.2,0.6,0.4,0.9,0.4h2.5v1.2h-1.9v1.2h5v-1.2h-1.9v-1.2h2.5c0.3,0,0.6-0.1,0.9-0.4c0.2-0.2,0.4-0.6,0.4-0.9v-3.8
	c0-0.3-0.1-0.6-0.4-0.9C792.8,664.1,792.5,664,792.1,664z M785.9,669v-3.8h6.2l0,3.8H785.9z"/>
<path class="st5" d="M795.1,660.3c-0.3-1.4-1-2.7-2.2-3.6c-1.1-0.9-2.5-1.4-4-1.4s-2.9,0.5-4,1.4c-1.1,0.9-1.9,2.2-2.2,3.6
	c-1.1,0.2-2.1,0.8-2.9,1.7c-0.7,0.9-1.1,2-1,3.2c0.1,1.1,0.5,2.2,1.3,3c0.8,0.8,1.9,1.3,3,1.4v-1.2c-0.9-0.1-1.7-0.5-2.2-1.1
	c-0.6-0.6-0.9-1.5-0.9-2.3c0-0.9,0.3-1.7,0.9-2.3c0.6-0.6,1.4-1,2.3-1.1l0.5,0l0.1-0.5c0.1-1.2,0.7-2.4,1.6-3.2
	c0.9-0.8,2.1-1.3,3.3-1.3s2.4,0.5,3.3,1.3c0.9,0.8,1.5,2,1.6,3.2l0.1,0.5l0.5,0c0.9,0.1,1.7,0.4,2.3,1.1c0.6,0.6,0.9,1.5,0.9,2.3
	c0,0.9-0.3,1.7-0.9,2.3c-0.6,0.6-1.4,1-2.2,1.1v1.2c1.1-0.1,2.2-0.6,3-1.4c0.8-0.8,1.3-1.9,1.3-3c0.1-1.1-0.3-2.3-1-3.2
	C797.3,661.1,796.3,660.5,795.1,660.3z"/>
<path d="M828.1,668h1.8v-9.8h-1.8v4H824v-4h-1.8v9.8h1.8v-4.1h4.1V668z M835.2,668.1c2.1,0,3.4-1.5,3.4-3.8c0-2.3-1.3-3.8-3.4-3.8
	c-2.1,0-3.4,1.5-3.4,3.8C831.8,666.6,833.1,668.1,835.2,668.1z M835.2,666.7c-0.9,0-1.5-0.6-1.5-1.7v-1.4c0-1.1,0.6-1.7,1.5-1.7
	c0.9,0,1.5,0.6,1.5,1.7v1.4C836.7,666.1,836.1,666.7,835.2,666.7z M842.7,668.1c1.8,0,3-1,3-2.4c0-1.2-0.8-1.9-2.4-2.2l-0.7-0.1
	c-0.7-0.1-1-0.3-1-0.8c0-0.4,0.3-0.8,1.1-0.8c0.7,0,1.3,0.3,1.8,0.8l1-1c-0.7-0.7-1.4-1.1-2.9-1.1c-1.7,0-2.8,0.9-2.8,2.3
	c0,1.3,0.9,2,2.4,2.2l0.7,0.1c0.6,0.1,0.9,0.4,0.9,0.8c0,0.5-0.4,0.8-1.2,0.8c-0.8,0-1.5-0.4-2-1l-1.1,1.1
	C840.4,667.6,841.3,668.1,842.7,668.1z M849.6,668h1.3v-1.4h-1.4v-4.5h1.5v-1.4h-1.5v-2h-1.6v1.2c0,0.5-0.2,0.8-0.7,0.8h-0.6v1.4
	h1.1v4C847.7,667.3,848.4,668,849.6,668z"/>
<rect x="176.5" y="528.5" class="st5" width="711" height="79"/>
<g>
	<defs>
		<rect id="SVGID_00000070805131202392990970000016034252049499005082_" x="176" y="528" width="77" height="48"/>
	</defs>
	<clipPath id="SVGID_00000107576894152092704450000009387772805050923654_">
		<use xlink:href="#SVGID_00000070805131202392990970000016034252049499005082_"  style="overflow:visible;"/>
	</clipPath>
	<g style="clip-path:url(#SVGID_00000107576894152092704450000009387772805050923654_);">
		<path d="M199.9,555.3h-5.2l5.1-6.5v-1.7h-6.9v1.6h4.8l-5.1,6.5v1.7h7.3V555.3z M204.4,557.1c2.1,0,3.4-1.5,3.4-3.8
			c0-2.3-1.3-3.8-3.4-3.8c-2.1,0-3.4,1.5-3.4,3.8C201,555.7,202.3,557.1,204.4,557.1z M204.4,555.7c-0.9,0-1.5-0.6-1.5-1.7v-1.4
			c0-1.1,0.6-1.7,1.5-1.7c0.9,0,1.5,0.6,1.5,1.7v1.4C205.9,555.1,205.3,555.7,204.4,555.7z M211.3,557v-4.8c0-0.8,0.7-1.2,1.5-1.2
			c0.9,0,1.2,0.5,1.2,1.6v4.4h1.8v-4.6c0-1.8-0.8-2.9-2.3-2.9c-1.1,0-1.8,0.6-2,1.4h-0.1v-1.2h-1.8v7.3H211.3z M220.9,557.1
			c1.4,0,2.4-0.5,3-1.3l-1-1.1c-0.4,0.6-1,1-1.9,1c-1.2,0-1.8-0.7-1.8-1.8v-0.2h4.9v-0.6c0-2-1-3.7-3.3-3.7c-2.1,0-3.4,1.5-3.4,3.8
			C217.5,555.6,218.7,557.1,220.9,557.1z M220.9,550.8c0.9,0,1.4,0.7,1.4,1.7v0.1h-3v-0.1C219.3,551.5,219.9,550.8,220.9,550.8z
			 M236,555.4h-4.8l2.1-1.7c1.4-1.1,2.5-2.2,2.5-3.8c0-1.7-1.2-2.9-3.2-2.9c-2,0-3,1.1-3.5,2.4l1.6,0.6c0.2-0.8,0.7-1.5,1.7-1.5
			c0.8,0,1.4,0.5,1.4,1.3v0.2c0,0.9-0.5,1.5-1.5,2.4l-3.1,2.7v1.7h6.8V555.4z"/>
	</g>
</g>
<rect x="176.5" y="528.5" class="st7" width="711" height="79"/>
<rect x="273" y="544" class="st5" width="48" height="48"/>
<rect x="273.5" y="544.5" class="st8" width="47" height="47"/>
<rect x="276.5" y="547.5" class="st9" width="41" height="41"/>
<path class="st5" d="M300.1,568h-6.2c-0.3,0-0.6,0.1-0.9,0.4c-0.2,0.2-0.4,0.6-0.4,0.9v3.8c0,0.3,0.1,0.6,0.4,0.9
	c0.2,0.2,0.6,0.4,0.9,0.4h2.5v1.2h-1.9v1.2h5v-1.2h-1.9v-1.2h2.5c0.3,0,0.6-0.1,0.9-0.4c0.2-0.2,0.4-0.6,0.4-0.9v-3.8
	c0-0.3-0.1-0.6-0.4-0.9C300.8,568.1,300.5,568,300.1,568z M293.9,573v-3.8h6.2l0,3.8H293.9z"/>
<path class="st5" d="M303.1,564.3c-0.3-1.4-1-2.7-2.2-3.6c-1.1-0.9-2.5-1.4-4-1.4s-2.9,0.5-4,1.4c-1.1,0.9-1.9,2.2-2.2,3.6
	c-1.1,0.2-2.1,0.8-2.9,1.7c-0.7,0.9-1.1,2-1,3.2c0.1,1.1,0.5,2.2,1.3,3c0.8,0.8,1.9,1.3,3,1.4v-1.2c-0.9-0.1-1.7-0.5-2.2-1.1
	c-0.6-0.6-0.9-1.5-0.9-2.3c0-0.9,0.3-1.7,0.9-2.3c0.6-0.6,1.4-1,2.3-1.1l0.5,0l0.1-0.5c0.1-1.2,0.7-2.4,1.6-3.2
	c0.9-0.8,2.1-1.3,3.3-1.3s2.4,0.5,3.3,1.3c0.9,0.8,1.5,2,1.6,3.2l0.1,0.5l0.5,0c0.9,0.1,1.7,0.4,2.3,1.1c0.6,0.6,0.9,1.5,0.9,2.3
	c0,0.9-0.3,1.7-0.9,2.3c-0.6,0.6-1.4,1-2.2,1.1v1.2c1.1-0.1,2.2-0.6,3-1.4c0.8-0.8,1.3-1.9,1.3-3c0.1-1.1-0.3-2.3-1-3.2
	C305.3,565.1,304.3,564.5,303.1,564.3z"/>
<path d="M336.1,572h1.8v-9.8h-1.8v4H332v-4h-1.8v9.8h1.8v-4.1h4.1V572z M343.2,572.1c2.1,0,3.4-1.5,3.4-3.8c0-2.3-1.3-3.8-3.4-3.8
	c-2.1,0-3.4,1.5-3.4,3.8C339.8,570.7,341.1,572.1,343.2,572.1z M343.2,570.7c-0.9,0-1.5-0.6-1.5-1.7v-1.4c0-1.1,0.6-1.7,1.5-1.7
	c0.9,0,1.5,0.6,1.5,1.7v1.4C344.7,570.1,344.1,570.7,343.2,570.7z M350.7,572.1c1.8,0,3-1,3-2.4c0-1.2-0.8-1.9-2.4-2.2l-0.7-0.1
	c-0.7-0.1-1-0.3-1-0.8c0-0.4,0.3-0.8,1.1-0.8c0.7,0,1.3,0.3,1.8,0.8l1.1-1c-0.7-0.7-1.4-1.1-2.9-1.1c-1.7,0-2.8,0.9-2.8,2.3
	c0,1.3,0.9,2,2.4,2.2l0.7,0.1c0.6,0.1,0.9,0.4,0.9,0.8c0,0.5-0.4,0.8-1.2,0.8c-0.8,0-1.5-0.4-2-1l-1.1,1.1
	C348.4,571.6,349.3,572.1,350.7,572.1z M357.6,572h1.3v-1.4h-1.4v-4.5h1.5v-1.4h-1.5v-2h-1.6v1.2c0,0.5-0.2,0.8-0.7,0.8h-0.6v1.4
	h1.1v4C355.7,571.3,356.4,572,357.6,572z"/>
<rect x="396" y="544" class="st5" width="48" height="48"/>
<rect x="396" y="544" class="st3" width="48" height="48"/>
<path class="st5" d="M423.1,568h-6.2c-0.3,0-0.6,0.1-0.9,0.4c-0.2,0.2-0.4,0.6-0.4,0.9v3.8c0,0.3,0.1,0.6,0.4,0.9
	c0.2,0.2,0.6,0.4,0.9,0.4h2.5v1.2h-1.9v1.2h5v-1.2h-1.9v-1.2h2.5c0.3,0,0.6-0.1,0.9-0.4c0.2-0.2,0.4-0.6,0.4-0.9v-3.8
	c0-0.3-0.1-0.6-0.4-0.9C423.8,568.1,423.5,568,423.1,568z M416.9,573v-3.8h6.2l0,3.8H416.9z"/>
<path class="st5" d="M426.1,564.3c-0.3-1.4-1-2.7-2.2-3.6c-1.1-0.9-2.5-1.4-4-1.4s-2.9,0.5-4,1.4c-1.1,0.9-1.9,2.2-2.2,3.6
	c-1.1,0.2-2.1,0.8-2.9,1.7c-0.7,0.9-1.1,2-1,3.2c0.1,1.1,0.5,2.2,1.3,3c0.8,0.8,1.9,1.3,3,1.4v-1.2c-0.9-0.1-1.7-0.5-2.2-1.1
	c-0.6-0.6-0.9-1.5-0.9-2.3c0-0.9,0.3-1.7,0.9-2.3c0.6-0.6,1.4-1,2.3-1.1l0.5,0l0.1-0.5c0.1-1.2,0.7-2.4,1.6-3.2
	c0.9-0.8,2.1-1.3,3.3-1.3s2.4,0.5,3.3,1.3c0.9,0.8,1.5,2,1.6,3.2l0.1,0.5l0.5,0c0.9,0.1,1.7,0.4,2.3,1.1c0.6,0.6,0.9,1.5,0.9,2.3
	c0,0.9-0.3,1.7-0.9,2.3c-0.6,0.6-1.4,1-2.2,1.1v1.2c1.1-0.1,2.2-0.6,3-1.4c0.8-0.8,1.3-1.9,1.3-3c0.1-1.1-0.3-2.3-1-3.2
	C428.3,565.1,427.3,564.5,426.1,564.3z"/>
<path d="M459.1,572h1.8v-9.8h-1.8v4H455v-4h-1.8v9.8h1.8v-4.1h4.1V572z M466.2,572.1c2.1,0,3.4-1.5,3.4-3.8c0-2.3-1.3-3.8-3.4-3.8
	c-2.1,0-3.4,1.5-3.4,3.8C462.8,570.7,464.1,572.1,466.2,572.1z M466.2,570.7c-0.9,0-1.5-0.6-1.5-1.7v-1.4c0-1.1,0.6-1.7,1.5-1.7
	c0.9,0,1.5,0.6,1.5,1.7v1.4C467.7,570.1,467.1,570.7,466.2,570.7z M473.7,572.1c1.8,0,3-1,3-2.4c0-1.2-0.8-1.9-2.4-2.2l-0.7-0.1
	c-0.7-0.1-1-0.3-1-0.8c0-0.4,0.3-0.8,1.1-0.8c0.7,0,1.3,0.3,1.8,0.8l1.1-1c-0.7-0.7-1.4-1.1-2.9-1.1c-1.7,0-2.8,0.9-2.8,2.3
	c0,1.3,0.9,2,2.4,2.2l0.7,0.1c0.6,0.1,0.9,0.4,0.9,0.8c0,0.5-0.4,0.8-1.2,0.8c-0.8,0-1.5-0.4-2-1l-1.1,1.1
	C471.4,571.6,472.3,572.1,473.7,572.1z M480.6,572h1.3v-1.4h-1.4v-4.5h1.5v-1.4h-1.5v-2h-1.6v1.2c0,0.5-0.2,0.8-0.7,0.8h-0.6v1.4
	h1.1v4C478.7,571.3,479.4,572,480.6,572z"/>
<rect x="519" y="544" class="st5" width="48" height="48"/>
<rect x="519" y="544" class="st3" width="48" height="48"/>
<path class="st5" d="M546.1,568h-6.2c-0.3,0-0.6,0.1-0.9,0.4c-0.2,0.2-0.4,0.6-0.4,0.9v3.8c0,0.3,0.1,0.6,0.4,0.9
	c0.2,0.2,0.6,0.4,0.9,0.4h2.5v1.2h-1.9v1.2h5v-1.2h-1.9v-1.2h2.5c0.3,0,0.6-0.1,0.9-0.4c0.2-0.2,0.4-0.6,0.4-0.9v-3.8
	c0-0.3-0.1-0.6-0.4-0.9C546.8,568.1,546.5,568,546.1,568z M539.9,573v-3.8h6.2l0,3.8H539.9z"/>
<path class="st5" d="M549.1,564.3c-0.3-1.4-1-2.7-2.2-3.6c-1.1-0.9-2.5-1.4-4-1.4s-2.9,0.5-4,1.4c-1.1,0.9-1.9,2.2-2.2,3.6
	c-1.1,0.2-2.1,0.8-2.9,1.7c-0.7,0.9-1.1,2-1,3.2c0.1,1.1,0.5,2.2,1.3,3c0.8,0.8,1.9,1.3,3,1.4v-1.2c-0.9-0.1-1.7-0.5-2.2-1.1
	c-0.6-0.6-0.9-1.5-0.9-2.3c0-0.9,0.3-1.7,0.9-2.3c0.6-0.6,1.4-1,2.3-1.1l0.5,0l0.1-0.5c0.1-1.2,0.7-2.4,1.6-3.2
	c0.9-0.8,2.1-1.3,3.3-1.3s2.4,0.5,3.3,1.3c0.9,0.8,1.5,2,1.6,3.2l0.1,0.5l0.5,0c0.9,0.1,1.7,0.4,2.3,1.1c0.6,0.6,0.9,1.5,0.9,2.3
	c0,0.9-0.3,1.7-0.9,2.3c-0.6,0.6-1.4,1-2.2,1.1v1.2c1.1-0.1,2.2-0.6,3-1.4c0.8-0.8,1.3-1.9,1.3-3c0.1-1.1-0.3-2.3-1-3.2
	C551.3,565.1,550.3,564.5,549.1,564.3z"/>
<path d="M582.1,572h1.8v-9.8h-1.8v4H578v-4h-1.8v9.8h1.8v-4.1h4.1V572z M589.2,572.1c2.1,0,3.4-1.5,3.4-3.8c0-2.3-1.3-3.8-3.4-3.8
	c-2.1,0-3.4,1.5-3.4,3.8C585.8,570.7,587.1,572.1,589.2,572.1z M589.2,570.7c-0.9,0-1.5-0.6-1.5-1.7v-1.4c0-1.1,0.6-1.7,1.5-1.7
	c0.9,0,1.5,0.6,1.5,1.7v1.4C590.7,570.1,590.1,570.7,589.2,570.7z M596.7,572.1c1.8,0,3-1,3-2.4c0-1.2-0.8-1.9-2.4-2.2l-0.7-0.1
	c-0.7-0.1-1-0.3-1-0.8c0-0.4,0.3-0.8,1.1-0.8c0.7,0,1.3,0.3,1.8,0.8l1-1c-0.7-0.7-1.4-1.1-2.9-1.1c-1.7,0-2.8,0.9-2.8,2.3
	c0,1.3,0.9,2,2.4,2.2l0.7,0.1c0.6,0.1,0.9,0.4,0.9,0.8c0,0.5-0.4,0.8-1.2,0.8c-0.8,0-1.5-0.4-2-1l-1.1,1.1
	C594.4,571.6,595.3,572.1,596.7,572.1z M603.6,572h1.3v-1.4h-1.4v-4.5h1.5v-1.4h-1.5v-2h-1.6v1.2c0,0.5-0.2,0.8-0.7,0.8h-0.6v1.4
	h1.1v4C601.7,571.3,602.4,572,603.6,572z"/>
<rect x="642" y="544" class="st5" width="48" height="48"/>
<rect x="642" y="544" class="st3" width="48" height="48"/>
<path class="st5" d="M669.1,568h-6.2c-0.3,0-0.6,0.1-0.9,0.4c-0.2,0.2-0.4,0.6-0.4,0.9v3.8c0,0.3,0.1,0.6,0.4,0.9
	c0.2,0.2,0.6,0.4,0.9,0.4h2.5v1.2h-1.9v1.2h5v-1.2h-1.9v-1.2h2.5c0.3,0,0.6-0.1,0.9-0.4c0.2-0.2,0.4-0.6,0.4-0.9v-3.8
	c0-0.3-0.1-0.6-0.4-0.9C669.8,568.1,669.5,568,669.1,568z M662.9,573v-3.8h6.2l0,3.8H662.9z"/>
<path class="st5" d="M672.1,564.3c-0.3-1.4-1-2.7-2.2-3.6c-1.1-0.9-2.5-1.4-4-1.4s-2.9,0.5-4,1.4c-1.1,0.9-1.9,2.2-2.2,3.6
	c-1.1,0.2-2.1,0.8-2.9,1.7c-0.7,0.9-1.1,2-1,3.2c0.1,1.1,0.5,2.2,1.3,3c0.8,0.8,1.9,1.3,3,1.4v-1.2c-0.9-0.1-1.7-0.5-2.2-1.1
	c-0.6-0.6-0.9-1.5-0.9-2.3c0-0.9,0.3-1.7,0.9-2.3c0.6-0.6,1.4-1,2.3-1.1l0.5,0l0.1-0.5c0.1-1.2,0.7-2.4,1.6-3.2
	c0.9-0.8,2.1-1.3,3.3-1.3s2.4,0.5,3.3,1.3c0.9,0.8,1.5,2,1.6,3.2l0.1,0.5l0.5,0c0.9,0.1,1.7,0.4,2.3,1.1c0.6,0.6,0.9,1.5,0.9,2.3
	c0,0.9-0.3,1.7-0.9,2.3c-0.6,0.6-1.4,1-2.2,1.1v1.2c1.1-0.1,2.2-0.6,3-1.4c0.8-0.8,1.3-1.9,1.3-3c0.1-1.1-0.3-2.3-1-3.2
	C674.3,565.1,673.3,564.5,672.1,564.3z"/>
<path d="M705.1,572h1.8v-9.8h-1.8v4H701v-4h-1.8v9.8h1.8v-4.1h4.1V572z M712.2,572.1c2.1,0,3.4-1.5,3.4-3.8c0-2.3-1.3-3.8-3.4-3.8
	c-2.1,0-3.4,1.5-3.4,3.8C708.8,570.7,710.1,572.1,712.2,572.1z M712.2,570.7c-0.9,0-1.5-0.6-1.5-1.7v-1.4c0-1.1,0.6-1.7,1.5-1.7
	c0.9,0,1.5,0.6,1.5,1.7v1.4C713.7,570.1,713.1,570.7,712.2,570.7z M719.7,572.1c1.8,0,3-1,3-2.4c0-1.2-0.8-1.9-2.4-2.2l-0.7-0.1
	c-0.7-0.1-1-0.3-1-0.8c0-0.4,0.3-0.8,1.1-0.8c0.7,0,1.3,0.3,1.8,0.8l1-1c-0.7-0.7-1.4-1.1-2.9-1.1c-1.7,0-2.8,0.9-2.8,2.3
	c0,1.3,0.9,2,2.4,2.2l0.7,0.1c0.6,0.1,0.9,0.4,0.9,0.8c0,0.5-0.4,0.8-1.2,0.8c-0.8,0-1.5-0.4-2-1l-1.1,1.1
	C717.4,571.6,718.3,572.1,719.7,572.1z M726.6,572h1.3v-1.4h-1.4v-4.5h1.5v-1.4h-1.5v-2h-1.6v1.2c0,0.5-0.2,0.8-0.7,0.8h-0.6v1.4
	h1.1v4C724.7,571.3,725.4,572,726.6,572z"/>
<rect x="765" y="544" class="st5" width="48" height="48"/>
<rect x="765" y="544" class="st3" width="48" height="48"/>
<path class="st5" d="M792.1,568h-6.2c-0.3,0-0.6,0.1-0.9,0.4c-0.2,0.2-0.4,0.6-0.4,0.9v3.8c0,0.3,0.1,0.6,0.4,0.9
	c0.2,0.2,0.6,0.4,0.9,0.4h2.5v1.2h-1.9v1.2h5v-1.2h-1.9v-1.2h2.5c0.3,0,0.6-0.1,0.9-0.4c0.2-0.2,0.4-0.6,0.4-0.9v-3.8
	c0-0.3-0.1-0.6-0.4-0.9C792.8,568.1,792.5,568,792.1,568z M785.9,573v-3.8h6.2l0,3.8H785.9z"/>
<path class="st5" d="M795.1,564.3c-0.3-1.4-1-2.7-2.2-3.6c-1.1-0.9-2.5-1.4-4-1.4s-2.9,0.5-4,1.4c-1.1,0.9-1.9,2.2-2.2,3.6
	c-1.1,0.2-2.1,0.8-2.9,1.7c-0.7,0.9-1.1,2-1,3.2c0.1,1.1,0.5,2.2,1.3,3c0.8,0.8,1.9,1.3,3,1.4v-1.2c-0.9-0.1-1.7-0.5-2.2-1.1
	c-0.6-0.6-0.9-1.5-0.9-2.3c0-0.9,0.3-1.7,0.9-2.3c0.6-0.6,1.4-1,2.3-1.1l0.5,0l0.1-0.5c0.1-1.2,0.7-2.4,1.6-3.2
	c0.9-0.8,2.1-1.3,3.3-1.3s2.4,0.5,3.3,1.3c0.9,0.8,1.5,2,1.6,3.2l0.1,0.5l0.5,0c0.9,0.1,1.7,0.4,2.3,1.1c0.6,0.6,0.9,1.5,0.9,2.3
	c0,0.9-0.3,1.7-0.9,2.3c-0.6,0.6-1.4,1-2.2,1.1v1.2c1.1-0.1,2.2-0.6,3-1.4c0.8-0.8,1.3-1.9,1.3-3c0.1-1.1-0.3-2.3-1-3.2
	C797.3,565.1,796.3,564.5,795.1,564.3z"/>
<path d="M828.1,572h1.8v-9.8h-1.8v4H824v-4h-1.8v9.8h1.8v-4.1h4.1V572z M835.2,572.1c2.1,0,3.4-1.5,3.4-3.8c0-2.3-1.3-3.8-3.4-3.8
	c-2.1,0-3.4,1.5-3.4,3.8C831.8,570.7,833.1,572.1,835.2,572.1z M835.2,570.7c-0.9,0-1.5-0.6-1.5-1.7v-1.4c0-1.1,0.6-1.7,1.5-1.7
	c0.9,0,1.5,0.6,1.5,1.7v1.4C836.7,570.1,836.1,570.7,835.2,570.7z M842.7,572.1c1.8,0,3-1,3-2.4c0-1.2-0.8-1.9-2.4-2.2l-0.7-0.1
	c-0.7-0.1-1-0.3-1-0.8c0-0.4,0.3-0.8,1.1-0.8c0.7,0,1.3,0.3,1.8,0.8l1-1c-0.7-0.7-1.4-1.1-2.9-1.1c-1.7,0-2.8,0.9-2.8,2.3
	c0,1.3,0.9,2,2.4,2.2l0.7,0.1c0.6,0.1,0.9,0.4,0.9,0.8c0,0.5-0.4,0.8-1.2,0.8c-0.8,0-1.5-0.4-2-1l-1.1,1.1
	C840.4,571.6,841.3,572.1,842.7,572.1z M849.6,572h1.3v-1.4h-1.4v-4.5h1.5v-1.4h-1.5v-2h-1.6v1.2c0,0.5-0.2,0.8-0.7,0.8h-0.6v1.4
	h1.1v4C847.7,571.3,848.4,572,849.6,572z"/>
<rect x="176.5" y="432.5" class="st5" width="711" height="79"/>
<g>
	<defs>
		<rect id="SVGID_00000085220841790108940020000014466076713369887914_" x="176" y="432" width="77" height="48"/>
	</defs>
	<clipPath id="SVGID_00000141436750999658202400000015888863902704521905_">
		<use xlink:href="#SVGID_00000085220841790108940020000014466076713369887914_"  style="overflow:visible;"/>
	</clipPath>
	<g style="clip-path:url(#SVGID_00000141436750999658202400000015888863902704521905_);">
		<path d="M199.9,459.3h-5.2l5.1-6.5v-1.7h-6.9v1.6h4.8l-5.1,6.5v1.7h7.3V459.3z M204.4,461.2c2.1,0,3.4-1.5,3.4-3.8
			c0-2.3-1.3-3.8-3.4-3.8c-2.1,0-3.4,1.5-3.4,3.8C201,459.7,202.3,461.2,204.4,461.2z M204.4,459.7c-0.9,0-1.5-0.6-1.5-1.7v-1.4
			c0-1.1,0.6-1.7,1.5-1.7c0.9,0,1.5,0.6,1.5,1.7v1.4C205.9,459.1,205.3,459.7,204.4,459.7z M211.3,461v-4.8c0-0.8,0.7-1.2,1.5-1.2
			c0.9,0,1.2,0.5,1.2,1.6v4.4h1.8v-4.6c0-1.8-0.8-2.9-2.3-2.9c-1.1,0-1.8,0.6-2,1.4h-0.1v-1.2h-1.8v7.3H211.3z M220.9,461.2
			c1.4,0,2.4-0.5,3-1.3l-1-1.1c-0.4,0.6-1,1-1.9,1c-1.2,0-1.8-0.7-1.8-1.8v-0.2h4.9v-0.6c0-2-1-3.7-3.3-3.7c-2.1,0-3.4,1.5-3.4,3.8
			C217.5,459.7,218.7,461.2,220.9,461.2z M220.9,454.9c0.9,0,1.4,0.7,1.4,1.7v0.1h-3v-0.1C219.3,455.6,219.9,454.9,220.9,454.9z
			 M236.4,461v-1.5h-2.2v-8.3h-2.8l-2.4,2.9l1.1,1l2.1-2.5h0.1v6.9h-2.7v1.5H236.4z"/>
	</g>
</g>
<rect x="176.5" y="432.5" class="st7" width="711" height="79"/>
<rect x="273" y="448" class="st5" width="48" height="48"/>
<rect x="273.5" y="448.5" class="st8" width="47" height="47"/>
<rect x="276.5" y="451.5" class="st9" width="41" height="41"/>
<path class="st5" d="M300.1,472h-6.2c-0.3,0-0.6,0.1-0.9,0.4c-0.2,0.2-0.4,0.6-0.4,0.9v3.8c0,0.3,0.1,0.6,0.4,0.9
	c0.2,0.2,0.6,0.4,0.9,0.4h2.5v1.2h-1.9v1.2h5v-1.2h-1.9v-1.2h2.5c0.3,0,0.6-0.1,0.9-0.4c0.2-0.2,0.4-0.6,0.4-0.9v-3.8
	c0-0.3-0.1-0.6-0.4-0.9C300.8,472.1,300.5,472,300.1,472z M293.9,477v-3.8h6.2l0,3.8H293.9z"/>
<path class="st5" d="M303.1,468.3c-0.3-1.4-1-2.7-2.2-3.6c-1.1-0.9-2.5-1.4-4-1.4s-2.9,0.5-4,1.4c-1.1,0.9-1.9,2.2-2.2,3.6
	c-1.1,0.2-2.1,0.8-2.9,1.7c-0.7,0.9-1.1,2-1,3.2c0.1,1.1,0.5,2.2,1.3,3c0.8,0.8,1.9,1.3,3,1.4v-1.2c-0.9-0.1-1.7-0.5-2.2-1.1
	c-0.6-0.6-0.9-1.5-0.9-2.3c0-0.9,0.3-1.7,0.9-2.3c0.6-0.6,1.4-1,2.3-1.1l0.5,0l0.1-0.5c0.1-1.2,0.7-2.4,1.6-3.2
	c0.9-0.8,2.1-1.3,3.3-1.3s2.4,0.5,3.3,1.3c0.9,0.8,1.5,2,1.6,3.2l0.1,0.5l0.5,0c0.9,0.1,1.7,0.4,2.3,1.1c0.6,0.6,0.9,1.5,0.9,2.3
	c0,0.9-0.3,1.7-0.9,2.3c-0.6,0.6-1.4,1-2.2,1.1v1.2c1.1-0.1,2.2-0.6,3-1.4c0.8-0.8,1.3-1.9,1.3-3c0.1-1.1-0.3-2.3-1-3.2
	C305.3,469.1,304.3,468.5,303.1,468.3z"/>
<path d="M336.1,476h1.8v-9.8h-1.8v4H332v-4h-1.8v9.8h1.8v-4.1h4.1V476z M343.2,476.2c2.1,0,3.4-1.5,3.4-3.8c0-2.3-1.3-3.8-3.4-3.8
	c-2.1,0-3.4,1.5-3.4,3.8C339.8,474.7,341.1,476.2,343.2,476.2z M343.2,474.7c-0.9,0-1.5-0.6-1.5-1.7v-1.4c0-1.1,0.6-1.7,1.5-1.7
	c0.9,0,1.5,0.6,1.5,1.7v1.4C344.7,474.1,344.1,474.7,343.2,474.7z M350.7,476.2c1.8,0,3-1,3-2.4c0-1.2-0.8-1.9-2.4-2.2l-0.7-0.1
	c-0.7-0.1-1-0.3-1-0.8c0-0.4,0.3-0.8,1.1-0.8c0.7,0,1.3,0.3,1.8,0.8l1.1-1c-0.7-0.7-1.4-1.1-2.9-1.1c-1.7,0-2.8,0.9-2.8,2.3
	c0,1.3,0.9,2,2.4,2.2l0.7,0.1c0.6,0.1,0.9,0.4,0.9,0.8c0,0.5-0.4,0.8-1.2,0.8c-0.8,0-1.5-0.4-2-1l-1.1,1.1
	C348.4,475.6,349.3,476.2,350.7,476.2z M357.6,476h1.3v-1.4h-1.4v-4.5h1.5v-1.4h-1.5v-2h-1.6v1.2c0,0.5-0.2,0.8-0.7,0.8h-0.6v1.4
	h1.1v4C355.7,475.3,356.4,476,357.6,476z"/>
<rect x="396" y="448" class="st5" width="48" height="48"/>
<rect x="396" y="448" class="st3" width="48" height="48"/>
<path class="st5" d="M423.1,472h-6.2c-0.3,0-0.6,0.1-0.9,0.4c-0.2,0.2-0.4,0.6-0.4,0.9v3.8c0,0.3,0.1,0.6,0.4,0.9
	c0.2,0.2,0.6,0.4,0.9,0.4h2.5v1.2h-1.9v1.2h5v-1.2h-1.9v-1.2h2.5c0.3,0,0.6-0.1,0.9-0.4c0.2-0.2,0.4-0.6,0.4-0.9v-3.8
	c0-0.3-0.1-0.6-0.4-0.9C423.8,472.1,423.5,472,423.1,472z M416.9,477v-3.8h6.2l0,3.8H416.9z"/>
<path class="st5" d="M426.1,468.3c-0.3-1.4-1-2.7-2.2-3.6c-1.1-0.9-2.5-1.4-4-1.4s-2.9,0.5-4,1.4c-1.1,0.9-1.9,2.2-2.2,3.6
	c-1.1,0.2-2.1,0.8-2.9,1.7c-0.7,0.9-1.1,2-1,3.2c0.1,1.1,0.5,2.2,1.3,3c0.8,0.8,1.9,1.3,3,1.4v-1.2c-0.9-0.1-1.7-0.5-2.2-1.1
	c-0.6-0.6-0.9-1.5-0.9-2.3c0-0.9,0.3-1.7,0.9-2.3c0.6-0.6,1.4-1,2.3-1.1l0.5,0l0.1-0.5c0.1-1.2,0.7-2.4,1.6-3.2
	c0.9-0.8,2.1-1.3,3.3-1.3s2.4,0.5,3.3,1.3c0.9,0.8,1.5,2,1.6,3.2l0.1,0.5l0.5,0c0.9,0.1,1.7,0.4,2.3,1.1c0.6,0.6,0.9,1.5,0.9,2.3
	c0,0.9-0.3,1.7-0.9,2.3c-0.6,0.6-1.4,1-2.2,1.1v1.2c1.1-0.1,2.2-0.6,3-1.4c0.8-0.8,1.3-1.9,1.3-3c0.1-1.1-0.3-2.3-1-3.2
	C428.3,469.1,427.3,468.5,426.1,468.3z"/>
<path d="M459.1,476h1.8v-9.8h-1.8v4H455v-4h-1.8v9.8h1.8v-4.1h4.1V476z M466.2,476.2c2.1,0,3.4-1.5,3.4-3.8c0-2.3-1.3-3.8-3.4-3.8
	c-2.1,0-3.4,1.5-3.4,3.8C462.8,474.7,464.1,476.2,466.2,476.2z M466.2,474.7c-0.9,0-1.5-0.6-1.5-1.7v-1.4c0-1.1,0.6-1.7,1.5-1.7
	c0.9,0,1.5,0.6,1.5,1.7v1.4C467.7,474.1,467.1,474.7,466.2,474.7z M473.7,476.2c1.8,0,3-1,3-2.4c0-1.2-0.8-1.9-2.4-2.2l-0.7-0.1
	c-0.7-0.1-1-0.3-1-0.8c0-0.4,0.3-0.8,1.1-0.8c0.7,0,1.3,0.3,1.8,0.8l1.1-1c-0.7-0.7-1.4-1.1-2.9-1.1c-1.7,0-2.8,0.9-2.8,2.3
	c0,1.3,0.9,2,2.4,2.2l0.7,0.1c0.6,0.1,0.9,0.4,0.9,0.8c0,0.5-0.4,0.8-1.2,0.8c-0.8,0-1.5-0.4-2-1l-1.1,1.1
	C471.4,475.6,472.3,476.2,473.7,476.2z M480.6,476h1.3v-1.4h-1.4v-4.5h1.5v-1.4h-1.5v-2h-1.6v1.2c0,0.5-0.2,0.8-0.7,0.8h-0.6v1.4
	h1.1v4C478.7,475.3,479.4,476,480.6,476z"/>
<rect x="519" y="448" class="st5" width="48" height="48"/>
<rect x="519" y="448" class="st3" width="48" height="48"/>
<path class="st5" d="M546.1,472h-6.2c-0.3,0-0.6,0.1-0.9,0.4c-0.2,0.2-0.4,0.6-0.4,0.9v3.8c0,0.3,0.1,0.6,0.4,0.9
	c0.2,0.2,0.6,0.4,0.9,0.4h2.5v1.2h-1.9v1.2h5v-1.2h-1.9v-1.2h2.5c0.3,0,0.6-0.1,0.9-0.4c0.2-0.2,0.4-0.6,0.4-0.9v-3.8
	c0-0.3-0.1-0.6-0.4-0.9C546.8,472.1,546.5,472,546.1,472z M539.9,477v-3.8h6.2l0,3.8H539.9z"/>
<path class="st5" d="M549.1,468.3c-0.3-1.4-1-2.7-2.2-3.6c-1.1-0.9-2.5-1.4-4-1.4s-2.9,0.5-4,1.4c-1.1,0.9-1.9,2.2-2.2,3.6
	c-1.1,0.2-2.1,0.8-2.9,1.7c-0.7,0.9-1.1,2-1,3.2c0.1,1.1,0.5,2.2,1.3,3c0.8,0.8,1.9,1.3,3,1.4v-1.2c-0.9-0.1-1.7-0.5-2.2-1.1
	c-0.6-0.6-0.9-1.5-0.9-2.3c0-0.9,0.3-1.7,0.9-2.3c0.6-0.6,1.4-1,2.3-1.1l0.5,0l0.1-0.5c0.1-1.2,0.7-2.4,1.6-3.2
	c0.9-0.8,2.1-1.3,3.3-1.3s2.4,0.5,3.3,1.3c0.9,0.8,1.5,2,1.6,3.2l0.1,0.5l0.5,0c0.9,0.1,1.7,0.4,2.3,1.1c0.6,0.6,0.9,1.5,0.9,2.3
	c0,0.9-0.3,1.7-0.9,2.3c-0.6,0.6-1.4,1-2.2,1.1v1.2c1.1-0.1,2.2-0.6,3-1.4c0.8-0.8,1.3-1.9,1.3-3c0.1-1.1-0.3-2.3-1-3.2
	C551.3,469.1,550.3,468.5,549.1,468.3z"/>
<path d="M582.1,476h1.8v-9.8h-1.8v4H578v-4h-1.8v9.8h1.8v-4.1h4.1V476z M589.2,476.2c2.1,0,3.4-1.5,3.4-3.8c0-2.3-1.3-3.8-3.4-3.8
	c-2.1,0-3.4,1.5-3.4,3.8C585.8,474.7,587.1,476.2,589.2,476.2z M589.2,474.7c-0.9,0-1.5-0.6-1.5-1.7v-1.4c0-1.1,0.6-1.7,1.5-1.7
	c0.9,0,1.5,0.6,1.5,1.7v1.4C590.7,474.1,590.1,474.7,589.2,474.7z M596.7,476.2c1.8,0,3-1,3-2.4c0-1.2-0.8-1.9-2.4-2.2l-0.7-0.1
	c-0.7-0.1-1-0.3-1-0.8c0-0.4,0.3-0.8,1.1-0.8c0.7,0,1.3,0.3,1.8,0.8l1-1c-0.7-0.7-1.4-1.1-2.9-1.1c-1.7,0-2.8,0.9-2.8,2.3
	c0,1.3,0.9,2,2.4,2.2l0.7,0.1c0.6,0.1,0.9,0.4,0.9,0.8c0,0.5-0.4,0.8-1.2,0.8c-0.8,0-1.5-0.4-2-1l-1.1,1.1
	C594.4,475.6,595.3,476.2,596.7,476.2z M603.6,476h1.3v-1.4h-1.4v-4.5h1.5v-1.4h-1.5v-2h-1.6v1.2c0,0.5-0.2,0.8-0.7,0.8h-0.6v1.4
	h1.1v4C601.7,475.3,602.4,476,603.6,476z"/>
<rect x="642" y="448" class="st5" width="48" height="48"/>
<rect x="642" y="448" class="st3" width="48" height="48"/>
<path class="st5" d="M669.1,472h-6.2c-0.3,0-0.6,0.1-0.9,0.4c-0.2,0.2-0.4,0.6-0.4,0.9v3.8c0,0.3,0.1,0.6,0.4,0.9
	c0.2,0.2,0.6,0.4,0.9,0.4h2.5v1.2h-1.9v1.2h5v-1.2h-1.9v-1.2h2.5c0.3,0,0.6-0.1,0.9-0.4c0.2-0.2,0.4-0.6,0.4-0.9v-3.8
	c0-0.3-0.1-0.6-0.4-0.9C669.8,472.1,669.5,472,669.1,472z M662.9,477v-3.8h6.2l0,3.8H662.9z"/>
<path class="st5" d="M672.1,468.3c-0.3-1.4-1-2.7-2.2-3.6c-1.1-0.9-2.5-1.4-4-1.4s-2.9,0.5-4,1.4c-1.1,0.9-1.9,2.2-2.2,3.6
	c-1.1,0.2-2.1,0.8-2.9,1.7c-0.7,0.9-1.1,2-1,3.2c0.1,1.1,0.5,2.2,1.3,3c0.8,0.8,1.9,1.3,3,1.4v-1.2c-0.9-0.1-1.7-0.5-2.2-1.1
	c-0.6-0.6-0.9-1.5-0.9-2.3c0-0.9,0.3-1.7,0.9-2.3c0.6-0.6,1.4-1,2.3-1.1l0.5,0l0.1-0.5c0.1-1.2,0.7-2.4,1.6-3.2
	c0.9-0.8,2.1-1.3,3.3-1.3s2.4,0.5,3.3,1.3c0.9,0.8,1.5,2,1.6,3.2l0.1,0.5l0.5,0c0.9,0.1,1.7,0.4,2.3,1.1c0.6,0.6,0.9,1.5,0.9,2.3
	c0,0.9-0.3,1.7-0.9,2.3c-0.6,0.6-1.4,1-2.2,1.1v1.2c1.1-0.1,2.2-0.6,3-1.4c0.8-0.8,1.3-1.9,1.3-3c0.1-1.1-0.3-2.3-1-3.2
	C674.3,469.1,673.3,468.5,672.1,468.3z"/>
<path d="M705.1,476h1.8v-9.8h-1.8v4H701v-4h-1.8v9.8h1.8v-4.1h4.1V476z M712.2,476.2c2.1,0,3.4-1.5,3.4-3.8c0-2.3-1.3-3.8-3.4-3.8
	c-2.1,0-3.4,1.5-3.4,3.8C708.8,474.7,710.1,476.2,712.2,476.2z M712.2,474.7c-0.9,0-1.5-0.6-1.5-1.7v-1.4c0-1.1,0.6-1.7,1.5-1.7
	c0.9,0,1.5,0.6,1.5,1.7v1.4C713.7,474.1,713.1,474.7,712.2,474.7z M719.7,476.2c1.8,0,3-1,3-2.4c0-1.2-0.8-1.9-2.4-2.2l-0.7-0.1
	c-0.7-0.1-1-0.3-1-0.8c0-0.4,0.3-0.8,1.1-0.8c0.7,0,1.3,0.3,1.8,0.8l1-1c-0.7-0.7-1.4-1.1-2.9-1.1c-1.7,0-2.8,0.9-2.8,2.3
	c0,1.3,0.9,2,2.4,2.2l0.7,0.1c0.6,0.1,0.9,0.4,0.9,0.8c0,0.5-0.4,0.8-1.2,0.8c-0.8,0-1.5-0.4-2-1l-1.1,1.1
	C717.4,475.6,718.3,476.2,719.7,476.2z M726.6,476h1.3v-1.4h-1.4v-4.5h1.5v-1.4h-1.5v-2h-1.6v1.2c0,0.5-0.2,0.8-0.7,0.8h-0.6v1.4
	h1.1v4C724.7,475.3,725.4,476,726.6,476z"/>
<rect x="765" y="448" class="st5" width="48" height="48"/>
<rect x="765" y="448" class="st3" width="48" height="48"/>
<path class="st5" d="M792.1,472h-6.2c-0.3,0-0.6,0.1-0.9,0.4c-0.2,0.2-0.4,0.6-0.4,0.9v3.8c0,0.3,0.1,0.6,0.4,0.9
	c0.2,0.2,0.6,0.4,0.9,0.4h2.5v1.2h-1.9v1.2h5v-1.2h-1.9v-1.2h2.5c0.3,0,0.6-0.1,0.9-0.4c0.2-0.2,0.4-0.6,0.4-0.9v-3.8
	c0-0.3-0.1-0.6-0.4-0.9C792.8,472.1,792.5,472,792.1,472z M785.9,477v-3.8h6.2l0,3.8H785.9z"/>
<path class="st5" d="M795.1,468.3c-0.3-1.4-1-2.7-2.2-3.6c-1.1-0.9-2.5-1.4-4-1.4s-2.9,0.5-4,1.4c-1.1,0.9-1.9,2.2-2.2,3.6
	c-1.1,0.2-2.1,0.8-2.9,1.7c-0.7,0.9-1.1,2-1,3.2c0.1,1.1,0.5,2.2,1.3,3c0.8,0.8,1.9,1.3,3,1.4v-1.2c-0.9-0.1-1.7-0.5-2.2-1.1
	c-0.6-0.6-0.9-1.5-0.9-2.3c0-0.9,0.3-1.7,0.9-2.3c0.6-0.6,1.4-1,2.3-1.1l0.5,0l0.1-0.5c0.1-1.2,0.7-2.4,1.6-3.2
	c0.9-0.8,2.1-1.3,3.3-1.3s2.4,0.5,3.3,1.3c0.9,0.8,1.5,2,1.6,3.2l0.1,0.5l0.5,0c0.9,0.1,1.7,0.4,2.3,1.1c0.6,0.6,0.9,1.5,0.9,2.3
	c0,0.9-0.3,1.7-0.9,2.3c-0.6,0.6-1.4,1-2.2,1.1v1.2c1.1-0.1,2.2-0.6,3-1.4c0.8-0.8,1.3-1.9,1.3-3c0.1-1.1-0.3-2.3-1-3.2
	C797.3,469.1,796.3,468.5,795.1,468.3z"/>
<path d="M828.1,476h1.8v-9.8h-1.8v4H824v-4h-1.8v9.8h1.8v-4.1h4.1V476z M835.2,476.2c2.1,0,3.4-1.5,3.4-3.8c0-2.3-1.3-3.8-3.4-3.8
	c-2.1,0-3.4,1.5-3.4,3.8C831.8,474.7,833.1,476.2,835.2,476.2z M835.2,474.7c-0.9,0-1.5-0.6-1.5-1.7v-1.4c0-1.1,0.6-1.7,1.5-1.7
	c0.9,0,1.5,0.6,1.5,1.7v1.4C836.7,474.1,836.1,474.7,835.2,474.7z M842.7,476.2c1.8,0,3-1,3-2.4c0-1.2-0.8-1.9-2.4-2.2l-0.7-0.1
	c-0.7-0.1-1-0.3-1-0.8c0-0.4,0.3-0.8,1.1-0.8c0.7,0,1.3,0.3,1.8,0.8l1-1c-0.7-0.7-1.4-1.1-2.9-1.1c-1.7,0-2.8,0.9-2.8,2.3
	c0,1.3,0.9,2,2.4,2.2l0.7,0.1c0.6,0.1,0.9,0.4,0.9,0.8c0,0.5-0.4,0.8-1.2,0.8c-0.8,0-1.5-0.4-2-1l-1.1,1.1
	C840.4,475.6,841.3,476.2,842.7,476.2z M849.6,476h1.3v-1.4h-1.4v-4.5h1.5v-1.4h-1.5v-2h-1.6v1.2c0,0.5-0.2,0.8-0.7,0.8h-0.6v1.4
	h1.1v4C847.7,475.3,848.4,476,849.6,476z"/>
<path class="st12" d="M296,400l-2.9,5h5.8L296,400z"/>
<path class="st12" d="M296.5,448v-2h-1v2H296.5z"/>
<path class="st12" d="M296.5,442v-4h-1v4H296.5z"/>
<path class="st12" d="M296.5,434v-4h-1v4H296.5z"/>
<path class="st12" d="M296.5,426v-4h-1v4H296.5z"/>
<path class="st12" d="M296.5,418v-4h-1v4H296.5z"/>
<path class="st12" d="M296.5,410v-4h-1v4H296.5z"/>
<path class="st12" d="M296.5,542v2h-1v-2H296.5z"/>
<path class="st12" d="M296.5,534v4h-1v-4H296.5z"/>
<path class="st12" d="M296.5,526v4h-1v-4H296.5z"/>
<path class="st12" d="M296.5,518v4h-1v-4H296.5z"/>
<path class="st12" d="M296.5,510v4h-1v-4H296.5z"/>
<path class="st12" d="M296.5,502v4h-1v-4H296.5z"/>
<path class="st12" d="M296.5,496v2h-1v-2H296.5z"/>
<path class="st12" d="M296.5,638v2h-1v-2H296.5z"/>
<path class="st12" d="M296.5,630v4h-1v-4H296.5z"/>
<path class="st12" d="M296.5,622v4h-1v-4H296.5z"/>
<path class="st12" d="M296.5,614v4h-1v-4H296.5z"/>
<path class="st12" d="M296.5,606v4h-1v-4H296.5z"/>
<path class="st12" d="M296.5,598v4h-1v-4H296.5z"/>
<path class="st12" d="M296.5,592v2h-1v-2H296.5z"/>
<path class="st13" d="M280,352.5h32c4.1,0,7.5,3.4,7.5,7.5v32c0,4.1-3.4,7.5-7.5,7.5h-32c-4.1,0-7.5-3.4-7.5-7.5v-32
	C272.5,355.9,275.9,352.5,280,352.5z"/>
<path class="st9" d="M281,355.5h30c3,0,5.5,2.5,5.5,5.5v30c0,3-2.5,5.5-5.5,5.5h-30c-3,0-5.5-2.5-5.5-5.5v-30
	C275.5,358,278,355.5,281,355.5z"/>
<path class="st5" d="M303.5,374.8h-0.6v-7.5h-1.2v7.5H301c-0.3,0-0.6,0.1-0.9,0.4c-0.2,0.2-0.4,0.6-0.4,0.9v1.2
	c0,0.3,0.1,0.6,0.4,0.9c0.2,0.2,0.6,0.4,0.9,0.4h0.6v6.2h1.2v-6.2h0.6c0.3,0,0.6-0.1,0.9-0.4c0.2-0.2,0.4-0.6,0.4-0.9V376
	c0-0.3-0.1-0.6-0.4-0.9C304.1,374.9,303.8,374.8,303.5,374.8z M303.5,377.3H301V376h2.5V377.3z"/>
<path class="st5" d="M297.2,369.8h-0.6v-2.5h-1.2v2.5h-0.6c-0.3,0-0.6,0.1-0.9,0.4c-0.2,0.2-0.4,0.6-0.4,0.9v1.2
	c0,0.3,0.1,0.6,0.4,0.9c0.2,0.2,0.6,0.4,0.9,0.4h0.6v11.2h1.2v-11.2h0.6c0.3,0,0.6-0.1,0.9-0.4c0.2-0.2,0.4-0.6,0.4-0.9V371
	c0-0.3-0.1-0.6-0.4-0.9C297.9,369.9,297.6,369.8,297.2,369.8z M297.2,372.3h-2.5V371h2.5V372.3z"/>
<path class="st5" d="M291,378.5h-0.6v-11.2h-1.2v11.2h-0.6c-0.3,0-0.6,0.1-0.9,0.4c-0.2,0.2-0.4,0.6-0.4,0.9v1.2
	c0,0.3,0.1,0.6,0.4,0.9c0.2,0.2,0.6,0.4,0.9,0.4h0.6v2.5h1.2v-2.5h0.6c0.3,0,0.6-0.1,0.9-0.4c0.2-0.2,0.4-0.6,0.4-0.9v-1.2
	c0-0.3-0.1-0.6-0.4-0.9C291.6,378.6,291.3,378.5,291,378.5z M291,381h-2.5v-1.2h2.5V381z"/>
<path d="M332.9,380.2c1.8,0,2.9-0.9,3.6-2.3l-1.5-0.9c-0.3,0.9-1,1.6-2.1,1.6c-1.4,0-2.3-1-2.3-2.6v-1.5c0-1.7,0.9-2.7,2.3-2.7
	c1.1,0,1.7,0.6,2,1.5l1.6-0.8c-0.7-1.5-1.8-2.3-3.6-2.3c-2.6,0-4.2,1.8-4.2,5.1C328.7,378.5,330.4,380.2,332.9,380.2z M341.1,380.2
	c2.1,0,3.4-1.5,3.4-3.8c0-2.3-1.3-3.8-3.4-3.8c-2.1,0-3.4,1.5-3.4,3.8C337.7,378.7,339,380.2,341.1,380.2z M341.1,378.7
	c-0.9,0-1.5-0.6-1.5-1.7v-1.4c0-1.1,0.6-1.7,1.5-1.7c0.9,0,1.5,0.6,1.5,1.7v1.4C342.6,378.1,342,378.7,341.1,378.7z M348,380v-4.8
	c0-0.8,0.7-1.2,1.5-1.2c0.9,0,1.2,0.5,1.2,1.6v4.4h1.8v-4.6c0-1.8-0.8-2.9-2.3-2.9c-1.1,0-1.8,0.6-2,1.4H348v-1.2h-1.8v7.3H348z
	 M356.9,380h1.3v-1.4h-1.4v-4.5h1.5v-1.4h-1.5v-2h-1.6v1.2c0,0.5-0.2,0.8-0.7,0.8h-0.6v1.4h1.1v4C355,379.3,355.7,380,356.9,380z
	 M361.8,380v-4.5c0-0.8,0.6-1.1,1.8-1.1h0.6v-1.7h-0.4c-1.2,0-1.8,0.7-1.9,1.5h-0.1v-1.5H360v7.3H361.8z M368.5,380.2
	c2.1,0,3.4-1.5,3.4-3.8c0-2.3-1.3-3.8-3.4-3.8c-2.1,0-3.4,1.5-3.4,3.8C365.1,378.7,366.4,380.2,368.5,380.2z M368.5,378.7
	c-0.9,0-1.5-0.6-1.5-1.7v-1.4c0-1.1,0.6-1.7,1.5-1.7c0.9,0,1.5,0.6,1.5,1.7v1.4C370,378.1,369.4,378.7,368.5,378.7z M376.4,380v-1.4
	h-1v-8.9h-1.8v8.6c0,1.1,0.6,1.8,1.8,1.8H376.4z M381.4,382.8h1.8v-4h0.1c0.3,0.8,1,1.4,2,1.4c1.8,0,2.9-1.4,2.9-3.8
	c0-2.4-1-3.8-2.9-3.8c-1,0-1.8,0.5-2,1.4h-0.1v-1.2h-1.8V382.8z M384.7,378.7c-0.9,0-1.5-0.4-1.5-1.2v-2.3c0-0.7,0.6-1.2,1.5-1.2
	c0.9,0,1.6,0.7,1.6,1.7v1.3C386.3,378,385.6,378.7,384.7,378.7z M392.7,380v-1.4h-1v-8.9h-1.8v8.6c0,1.1,0.6,1.8,1.8,1.8H392.7z
	 M396,380.2c1.1,0,1.9-0.5,2.1-1.4h0.1c0.1,0.8,0.6,1.3,1.4,1.3h1v-1.4h-0.7v-3.4c0-1.7-1-2.6-3-2.6c-1.5,0-2.3,0.6-2.9,1.4l1.1,1
	c0.4-0.5,0.8-0.9,1.7-0.9c1,0,1.4,0.5,1.4,1.3v0.5h-1.2c-2,0-3.1,0.7-3.1,2.2C393.7,379.3,394.5,380.2,396,380.2z M396.6,378.9
	c-0.7,0-1.1-0.3-1.1-0.9v-0.2c0-0.6,0.5-0.9,1.4-0.9h1.1v1C398.1,378.5,397.4,378.9,396.6,378.9z M404,380v-4.8
	c0-0.8,0.7-1.2,1.5-1.2c0.9,0,1.2,0.5,1.2,1.6v4.4h1.8v-4.6c0-1.8-0.8-2.9-2.3-2.9c-1.1,0-1.8,0.6-2,1.4H404v-1.2h-1.8v7.3H404z
	 M413.5,380.2c1.4,0,2.4-0.5,3-1.3l-1-1.1c-0.4,0.6-1,1-1.9,1c-1.2,0-1.8-0.7-1.8-1.8v-0.2h4.9v-0.6c0-2-1.1-3.7-3.3-3.7
	c-2.1,0-3.4,1.5-3.4,3.8C410.1,378.7,411.4,380.2,413.5,380.2z M413.5,373.9c0.9,0,1.4,0.7,1.4,1.7v0.1h-3v-0.1
	C412,374.6,412.6,373.9,413.5,373.9z"/>
<path class="st5" d="M966,184.5h58c4.1,0,7.5,3.4,7.5,7.5l0,0c0,4.1-3.4,7.5-7.5,7.5h-58c-4.1,0-7.5-3.4-7.5-7.5l0,0
	C958.5,187.9,961.9,184.5,966,184.5z"/>
<path d="M972.6,188.5v-0.9h-6.3v0.9h2.7v7.5h1v-7.5H972.6z M975.8,196.1c1.7,0,2.8-1.3,2.8-3.2c0-2-1.1-3.2-2.8-3.2
	s-2.8,1.3-2.8,3.2C973,194.9,974.1,196.1,975.8,196.1z M975.8,195.3c-1,0-1.8-0.6-1.8-1.9v-0.9c0-1.3,0.7-1.9,1.8-1.9
	c1,0,1.8,0.6,1.8,1.9v0.9C977.5,194.7,976.8,195.3,975.8,195.3z M985.5,196.1c1.4,0,2.3-0.7,2.3-1.9c0-0.9-0.5-1.5-1.9-1.7l-0.5-0.1
	c-0.8-0.1-1.2-0.4-1.2-1c0-0.6,0.4-1,1.2-1c0.8,0,1.3,0.4,1.6,0.8l0.6-0.6c-0.5-0.6-1.2-1-2.2-1c-1.3,0-2.2,0.6-2.2,1.8
	c0,1.2,0.9,1.6,2,1.8l0.5,0.1c0.8,0.1,1.1,0.5,1.1,1c0,0.6-0.5,1-1.3,1c-0.8,0-1.4-0.3-1.8-0.9l-0.7,0.6
	C983.6,195.7,984.3,196.1,985.5,196.1z M992.3,196v-0.8H991v-4.5h1.4v-0.8H991v-1.7h-0.9v1.2c0,0.4-0.1,0.6-0.5,0.6H989v0.8h1v4.3
	c0,0.6,0.4,1,1,1H992.3z M996.5,196.1c1.2,0,2.1-0.6,2.4-1.4l-0.7-0.5c-0.3,0.7-0.9,1.1-1.7,1.1c-1.2,0-1.8-0.8-1.8-1.9v-0.3h4.5
	v-0.5c0-1.8-1-3-2.7-3c-1.7,0-2.8,1.3-2.8,3.2C993.7,194.9,994.8,196.1,996.5,196.1z M996.5,190.5c1,0,1.6,0.7,1.6,1.8v0.1h-3.4
	v-0.1C994.7,191.3,995.5,190.5,996.5,190.5z M1001.1,198.4h1V195h0.1c0.4,0.8,1,1.2,1.8,1.2c1.5,0,2.5-1.3,2.5-3.2
	c0-2-1-3.2-2.5-3.2c-0.9,0-1.5,0.4-1.8,1.2h-0.1v-1h-1V198.4z M1003.6,195.3c-0.9,0-1.6-0.5-1.6-1.3v-2.3c0-0.7,0.7-1.2,1.6-1.2
	c1.1,0,1.8,0.7,1.8,1.8v1.1C1005.4,194.5,1004.7,195.3,1003.6,195.3z M1016.5,187.6h-4.5l-0.3,4.6l0.8,0.1c0.4-0.4,0.7-0.7,1.5-0.7
	c1.1,0,1.8,0.6,1.8,1.7v0.1c0,1.1-0.6,1.7-1.8,1.7c-1,0-1.4-0.4-1.9-1.1l-0.8,0.6c0.5,0.7,1.2,1.4,2.6,1.4c1.8,0,2.8-1.1,2.8-2.8
	c0-1.6-1-2.6-2.5-2.6c-0.9,0-1.3,0.4-1.7,0.9h-0.1l0.2-3.2h3.7V187.6z M1019.7,196.1c0.5,0,0.7-0.3,0.7-0.7v-0.2
	c0-0.4-0.2-0.7-0.7-0.7c-0.5,0-0.7,0.3-0.7,0.7v0.2C1018.9,195.9,1019.1,196.1,1019.7,196.1z"/>
<path class="st14" d="M966,184.5h58c4.1,0,7.5,3.4,7.5,7.5l0,0c0,4.1-3.4,7.5-7.5,7.5h-58c-4.1,0-7.5-3.4-7.5-7.5l0,0
	C958.5,187.9,961.9,184.5,966,184.5z"/>
<path class="st5" d="M56,73.5h72c4.1,0,7.5,3.4,7.5,7.5l0,0c0,4.1-3.4,7.5-7.5,7.5H56c-4.1,0-7.5-3.4-7.5-7.5l0,0
	C48.5,76.9,51.9,73.5,56,73.5z"/>
<path d="M58.1,85v-3.8h3.6v-0.9h-3.6v-2.8h4v-0.9h-5V85H58.1z M64.8,85v-4.2c0-0.6,0.6-1,1.7-1H67v-1h-0.4c-1,0-1.6,0.6-1.8,1.1
	h-0.1v-1.1h-1V85H64.8z M70.8,85.1c1.7,0,2.8-1.3,2.8-3.2s-1.1-3.2-2.8-3.2S68,79.9,68,81.9S69.2,85.1,70.8,85.1z M70.8,84.3
	c-1,0-1.8-0.6-1.8-1.9v-0.9c0-1.3,0.7-1.9,1.8-1.9s1.8,0.6,1.8,1.9v0.9C72.6,83.7,71.8,84.3,70.8,84.3z M76.5,85v-4.3
	c0-0.8,0.7-1.2,1.5-1.2c0.9,0,1.3,0.6,1.3,1.7V85h1v-4.3c0-0.8,0.7-1.2,1.5-1.2c0.9,0,1.4,0.6,1.4,1.7V85h1v-4c0-1.5-0.8-2.4-2-2.4
	c-1.1,0-1.7,0.6-1.9,1.3h0c-0.3-0.9-1.1-1.3-1.9-1.3c-1,0-1.4,0.5-1.7,1.2h0v-1h-1V85H76.5z M91.3,85.1c1.4,0,2.3-0.7,2.3-1.9
	c0-0.9-0.5-1.5-1.9-1.7l-0.5-0.1c-0.8-0.1-1.2-0.4-1.2-1c0-0.6,0.4-1,1.2-1s1.3,0.4,1.6,0.8l0.6-0.6c-0.5-0.6-1.2-1-2.2-1
	c-1.3,0-2.2,0.6-2.2,1.8c0,1.2,0.9,1.6,2,1.8l0.5,0.1c0.8,0.1,1.1,0.5,1.1,1c0,0.6-0.5,1-1.3,1c-0.8,0-1.4-0.3-1.8-0.9l-0.7,0.6
	C89.4,84.7,90.2,85.1,91.3,85.1z M98.1,85v-0.8h-1.3v-4.5h1.4v-0.8h-1.4v-1.7H96v1.2c0,0.4-0.1,0.6-0.5,0.6h-0.6v0.8h1V84
	c0,0.6,0.4,1,1,1H98.1z M102.4,85.1c1.2,0,2.1-0.6,2.4-1.4l-0.7-0.5c-0.3,0.7-0.9,1.1-1.7,1.1c-1.2,0-1.8-0.8-1.8-1.9v-0.3h4.5v-0.5
	c0-1.8-1-3-2.7-3c-1.7,0-2.8,1.3-2.8,3.2S100.7,85.1,102.4,85.1z M102.4,79.5c1,0,1.6,0.7,1.6,1.8v0.1h-3.4v-0.1
	C100.6,80.3,101.3,79.5,102.4,79.5z M106.9,87.4h1V84h0c0.4,0.8,1,1.2,1.8,1.2c1.5,0,2.5-1.3,2.5-3.2c0-2-1-3.2-2.5-3.2
	c-0.9,0-1.5,0.4-1.8,1.2h0v-1h-1V87.4z M109.5,84.3c-0.9,0-1.6-0.5-1.6-1.3v-2.3c0-0.7,0.7-1.2,1.6-1.2c1.1,0,1.8,0.7,1.8,1.8v1.1
	C111.2,83.5,110.6,84.3,109.5,84.3z M118.6,80.2v0.9h1c1.2,0,1.8,0.6,1.8,1.5v0.1c0,1-0.6,1.5-1.8,1.5c-1,0-1.5-0.4-1.9-1.1
	l-0.8,0.6c0.5,0.7,1.3,1.4,2.7,1.4c1.7,0,2.8-1,2.8-2.4c0-1.3-0.9-1.9-1.8-2.1v0c0.9-0.2,1.6-0.9,1.6-2c0-1.4-1.1-2.1-2.5-2.1
	c-1.3,0-2.1,0.7-2.5,1.4l0.7,0.6c0.3-0.6,0.9-1,1.7-1c0.9,0,1.5,0.4,1.5,1.3v0.1c0,0.8-0.6,1.4-1.7,1.4H118.6z M125.5,85.1
	c0.5,0,0.7-0.3,0.7-0.7v-0.2c0-0.4-0.2-0.7-0.7-0.7s-0.7,0.3-0.7,0.7v0.2C124.8,84.9,125,85.1,125.5,85.1z"/>
<path class="st14" d="M56,73.5h72c4.1,0,7.5,3.4,7.5,7.5l0,0c0,4.1-3.4,7.5-7.5,7.5H56c-4.1,0-7.5-3.4-7.5-7.5l0,0
	C48.5,76.9,51.9,73.5,56,73.5z"/>
<path class="st15" d="M200,56h32c4.4,0,8,3.6,8,8v32c0,4.4-3.6,8-8,8h-32c-4.4,0-8-3.6-8-8V64C192,59.6,195.6,56,200,56z"/>
<path class="st5" d="M223.5,82.5h-1.2v1.2h1.2v3.8h-15v-3.8h1.2v-1.2h-1.2c-0.3,0-0.6,0.1-0.9,0.4c-0.2,0.2-0.4,0.6-0.4,0.9v3.8
	c0,0.3,0.1,0.6,0.4,0.9c0.2,0.2,0.6,0.4,0.9,0.4h15c0.3,0,0.6-0.1,0.9-0.4c0.2-0.2,0.4-0.6,0.4-0.9v-3.8c0-0.3-0.1-0.6-0.4-0.9
	C224.1,82.6,223.8,82.5,223.5,82.5z"/>
<path class="st5" d="M210.4,86.2c0.3,0,0.6-0.3,0.6-0.6s-0.3-0.6-0.6-0.6s-0.6,0.3-0.6,0.6S210,86.2,210.4,86.2z"/>
<path class="st5" d="M216,83.8c-0.1,0-0.2,0-0.3-0.1l-6.2-3.1l0.6-1.1l6,3l6-3l0.6,1.1l-6.2,3.1C216.2,83.7,216.1,83.8,216,83.8z"/>
<path class="st5" d="M216,80c-0.1,0-0.2,0-0.3-0.1l-6.2-3.1c-0.1-0.1-0.2-0.1-0.3-0.2c-0.1-0.1-0.1-0.2-0.1-0.3s0-0.2,0.1-0.3
	c0.1-0.1,0.1-0.2,0.3-0.2l6.2-3.1c0.1,0,0.2-0.1,0.3-0.1s0.2,0,0.3,0.1l6.2,3.1c0.1,0.1,0.2,0.1,0.3,0.2c0.1,0.1,0.1,0.2,0.1,0.3
	s0,0.2-0.1,0.3c-0.1,0.1-0.1,0.2-0.3,0.2l-6.2,3.1C216.2,80,216.1,80,216,80z M211.1,76.2l4.9,2.4l4.9-2.4l-4.9-2.4L211.1,76.2z"/>
<path d="M216.3,126v-1.9h1.3v-1.4h-1.3v-6.5H214l-3.9,6.3v1.6h4.4v1.9H216.3z M214.4,118h0.1v4.7h-2.9L214.4,118z M220.3,126.2
	c0.8,0,1.1-0.4,1.1-1v-0.3c0-0.6-0.3-1-1.1-1c-0.8,0-1.1,0.4-1.1,1v0.3C219.2,125.7,219.5,126.2,220.3,126.2z"/>
<path d="M182.6,144l-3.4-9.8h-1.5l-3.4,9.8h1.2l1-2.9h3.9l1,2.9H182.6z M180.1,140.1h-3.4l1.7-4.8h0.1L180.1,140.1z M186.4,144.2
	c1.7,0,2.7-0.9,2.7-2.3c0-1.1-0.6-1.8-2.2-2l-0.6-0.1c-0.9-0.1-1.4-0.4-1.4-1.1c0-0.7,0.5-1.1,1.4-1.1s1.5,0.4,1.9,0.9l0.7-0.7
	c-0.6-0.7-1.4-1.2-2.5-1.2c-1.5,0-2.6,0.7-2.6,2.1c0,1.3,1,1.9,2.3,2.1l0.6,0.1c1,0.1,1.3,0.6,1.3,1.1c0,0.7-0.6,1.2-1.5,1.2
	c-0.9,0-1.6-0.4-2.1-1.1l-0.8,0.6C184.2,143.6,185.1,144.2,186.4,144.2z M193.3,144.2c1.7,0,2.7-0.9,2.7-2.3c0-1.1-0.6-1.8-2.2-2
	l-0.6-0.1c-0.9-0.1-1.4-0.4-1.4-1.1c0-0.7,0.5-1.1,1.4-1.1c0.9,0,1.5,0.4,1.9,0.9l0.7-0.7c-0.6-0.7-1.4-1.2-2.5-1.2
	c-1.5,0-2.6,0.7-2.6,2.1c0,1.3,1,1.9,2.3,2.1l0.6,0.1c1,0.1,1.3,0.6,1.3,1.1c0,0.7-0.6,1.2-1.5,1.2c-0.9,0-1.6-0.4-2.1-1.1l-0.8,0.6
	C191.1,143.6,192,144.2,193.3,144.2z M198.7,135.1c0.5,0,0.7-0.3,0.7-0.6v-0.2c0-0.4-0.2-0.6-0.7-0.6s-0.7,0.3-0.7,0.6v0.2
	C198,134.8,198.2,135.1,198.7,135.1z M198.1,144h1.1v-7.2h-1.1V144z M207.9,144.8c0-1.2-0.8-1.9-2.6-1.9h-1.5
	c-0.7,0-1.1-0.1-1.1-0.5c0-0.4,0.5-0.7,1-0.8c0.2,0,0.5,0.1,0.7,0.1c1.7,0,2.7-1,2.7-2.5c0-0.8-0.3-1.4-0.8-1.9v-0.5h1.4v-1h-1.1
	c-0.6,0-0.8,0.4-0.8,1v0.1c-0.4-0.2-0.9-0.3-1.4-0.3c-1.6,0-2.7,1-2.7,2.5c0,1,0.5,1.8,1.4,2.2v0.1c-0.7,0.2-1.2,0.5-1.2,1.3
	c0,0.5,0.2,0.8,0.6,1v0.2c-0.7,0.2-1.1,0.6-1.1,1.4c0,1.1,0.9,1.8,3.2,1.8C206.7,147,207.9,146.3,207.9,144.8z M206.8,144.9
	c0,0.8-0.7,1.2-2,1.2h-1c-1.1,0-1.6-0.5-1.6-1.1c0-0.4,0.2-0.8,0.7-1h2.4C206.4,143.9,206.8,144.3,206.8,144.9z M204.3,140.7
	c-1,0-1.6-0.4-1.6-1.4v-0.4c0-1,0.6-1.4,1.6-1.4s1.6,0.4,1.6,1.4v0.4C205.9,140.2,205.3,140.7,204.3,140.7z M210.5,144v-5
	c0-0.9,0.9-1.4,1.8-1.4c1.1,0,1.6,0.7,1.6,1.9v4.4h1.1v-4.6c0-1.8-0.9-2.8-2.4-2.8c-1.1,0-1.7,0.5-2,1.3h-0.1v-1.2h-1.1v7.2H210.5z
	 M220.9,144h1.1v-5c0-0.9,0.9-1.4,1.8-1.4c1.1,0,1.6,0.7,1.6,1.9v4.4h1.1v-4.6c0-1.8-0.9-2.8-2.4-2.8c-1.1,0-1.7,0.5-2,1.3H222v-4.3
	h-1.1V144z M231.8,144.2c1.9,0,3.3-1.5,3.3-3.8s-1.3-3.8-3.3-3.8s-3.3,1.5-3.3,3.8S229.8,144.2,231.8,144.2z M231.8,143.2
	c-1.2,0-2.1-0.7-2.1-2.3v-1c0-1.5,0.9-2.3,2.1-2.3s2.1,0.7,2.1,2.3v1C233.8,142.4,233,143.2,231.8,143.2z M239.2,144.2
	c1.7,0,2.7-0.9,2.7-2.3c0-1.1-0.6-1.8-2.2-2l-0.6-0.1c-0.9-0.1-1.4-0.4-1.4-1.1c0-0.7,0.5-1.1,1.4-1.1s1.5,0.4,1.9,0.9l0.7-0.7
	c-0.6-0.7-1.4-1.2-2.5-1.2c-1.5,0-2.6,0.7-2.6,2.1c0,1.3,1,1.9,2.3,2.1l0.6,0.1c1,0.1,1.3,0.6,1.3,1.1c0,0.7-0.6,1.2-1.5,1.2
	c-0.9,0-1.6-0.4-2.1-1.1l-0.8,0.6C237,143.6,237.9,144.2,239.2,144.2z M246.9,144v-1h-1.5v-5.3h1.6v-1h-1.6v-2h-1v1.3
	c0,0.5-0.2,0.7-0.6,0.7h-0.7v1h1.2v5.1c0,0.7,0.4,1.2,1.2,1.2H246.9z M251.2,144.2c1.7,0,2.7-0.9,2.7-2.3c0-1.1-0.6-1.8-2.2-2
	l-0.6-0.1c-0.9-0.1-1.4-0.4-1.4-1.1c0-0.7,0.5-1.1,1.4-1.1s1.5,0.4,1.9,0.9l0.7-0.7c-0.6-0.7-1.4-1.2-2.5-1.2
	c-1.5,0-2.6,0.7-2.6,2.1c0,1.3,1,1.9,2.3,2.1l0.6,0.1c1,0.1,1.3,0.6,1.3,1.1c0,0.7-0.6,1.2-1.5,1.2c-0.9,0-1.6-0.4-2.1-1.1l-0.8,0.6
	C248.9,143.6,249.8,144.2,251.2,144.2z M169.6,162v-1h-1.5v-5.3h1.6v-1h-1.6v-2h-1v1.3c0,0.5-0.2,0.7-0.6,0.7h-0.7v1h1.2v5.1
	c0,0.7,0.4,1.2,1.2,1.2H169.6z M174.4,162.2c1.9,0,3.3-1.5,3.3-3.8s-1.3-3.8-3.3-3.8c-1.9,0-3.3,1.5-3.3,3.8
	S172.4,162.2,174.4,162.2z M174.4,161.2c-1.2,0-2.1-0.7-2.1-2.3v-1c0-1.5,0.9-2.3,2.1-2.3s2.1,0.7,2.1,2.3v1
	C176.4,160.4,175.6,161.2,174.4,161.2z M185.8,162.2c1.4,0,2.3-0.7,2.8-1.7l-0.8-0.5c-0.4,0.8-1,1.3-2,1.3c-1.3,0-2-0.9-2-2.2v-1.2
	c0-1.3,0.7-2.2,2-2.2c0.9,0,1.5,0.4,1.8,1.2l0.9-0.5c-0.4-1-1.3-1.7-2.7-1.7c-2,0-3.2,1.5-3.2,3.8S183.8,162.2,185.8,162.2z
	 M192.9,162.2c1.9,0,3.3-1.5,3.3-3.8s-1.3-3.8-3.3-3.8c-1.9,0-3.3,1.5-3.3,3.8S191,162.2,192.9,162.2z M192.9,161.2
	c-1.2,0-2.1-0.7-2.1-2.3v-1c0-1.5,0.9-2.3,2.1-2.3s2.1,0.7,2.1,2.3v1C195,160.4,194.1,161.2,192.9,161.2z M199.3,162v-5
	c0-0.9,0.9-1.4,1.8-1.4c1.1,0,1.6,0.7,1.6,1.9v4.4h1.1v-4.6c0-1.8-0.9-2.8-2.4-2.8c-1.1,0-1.7,0.5-2,1.3h-0.1v-1.2h-1.1v7.2H199.3z
	 M209.3,162v-1h-1.5v-5.3h1.6v-1h-1.6v-2h-1v1.3c0,0.5-0.2,0.7-0.6,0.7h-0.7v1h1.2v5.1c0,0.7,0.4,1.2,1.2,1.2H209.3z M212.5,162
	v-4.9c0-0.7,0.7-1.2,1.9-1.2h0.7v-1.1h-0.4c-1.2,0-1.8,0.6-2.1,1.3h-0.1v-1.3h-1.1v7.2H212.5z M219.4,162.2c1.9,0,3.3-1.5,3.3-3.8
	s-1.3-3.8-3.3-3.8c-1.9,0-3.3,1.5-3.3,3.8S217.4,162.2,219.4,162.2z M219.4,161.2c-1.2,0-2.1-0.7-2.1-2.3v-1c0-1.5,0.9-2.3,2.1-2.3
	c1.2,0,2.1,0.7,2.1,2.3v1C221.4,160.4,220.6,161.2,219.4,161.2z M226.8,162v-1h-1.1v-9.4h-1.1v9.2c0,0.7,0.4,1.2,1.2,1.2H226.8z
	 M232.1,164.8h1.1v-4h0.1c0.4,0.9,1.1,1.3,2.1,1.3c1.8,0,2.9-1.5,2.9-3.8s-1.1-3.8-2.9-3.8c-1,0-1.7,0.4-2.1,1.3h-0.1v-1.2h-1.1
	V164.8z M235,161.2c-1,0-1.9-0.5-1.9-1.5V157c0-0.8,0.8-1.4,1.9-1.4c1.3,0,2,0.9,2,2.2v1.2C237.1,160.3,236.3,161.2,235,161.2z
	 M242.5,162v-1h-1.1v-9.4h-1.1v9.2c0,0.7,0.4,1.2,1.2,1.2H242.5z M250.2,162v-1h-0.8v-4c0-1.5-1-2.4-2.8-2.4c-1.3,0-2.2,0.6-2.6,1.4
	l0.7,0.6c0.4-0.7,1-1.1,1.8-1.1c1.1,0,1.7,0.6,1.7,1.6v0.7h-1.4c-2.1,0-3.1,0.8-3.1,2.1c0,1.3,0.9,2.2,2.4,2.2c1,0,1.8-0.5,2.1-1.3
	h0.1c0.1,0.7,0.4,1.2,1.2,1.2H250.2z M246.4,161.2c-0.9,0-1.4-0.4-1.4-1.1v-0.3c0-0.7,0.6-1.1,1.8-1.1h1.5v1.2
	C248.3,160.6,247.5,161.2,246.4,161.2z M253.1,162v-5c0-0.9,0.9-1.4,1.8-1.4c1.1,0,1.6,0.7,1.6,1.9v4.4h1.1v-4.6
	c0-1.8-0.9-2.8-2.4-2.8c-1.1,0-1.7,0.5-2,1.3h-0.1v-1.2H252v7.2H253.1z M262.8,162.2c1.4,0,2.4-0.7,2.9-1.7l-0.8-0.6
	c-0.4,0.8-1.1,1.2-2,1.2c-1.3,0-2.1-0.9-2.1-2.2v-0.3h5.2v-0.5c0-2-1.2-3.5-3.1-3.5c-2,0-3.2,1.5-3.2,3.8S260.8,162.2,262.8,162.2z
	 M262.8,155.5c1.1,0,1.9,0.9,1.9,2.1v0.2h-4v-0.1C260.7,156.5,261.6,155.5,262.8,155.5z"/>
<path class="st16" d="M200,52.5h35.5c4.4,0,8,3.6,8,8V96"/>
<path class="st16" d="M204,48.5h35.5c4.4,0,8,3.6,8,8V92"/>
</svg>
