<?xml version="1.0" encoding="utf-8"?>
<!-- Generator: Adobe Illustrator 26.5.0, SVG Export Plug-In . SVG Version: 6.00 Build 0)  -->
<svg version="1.1" id="Layer_1" xmlns="http://www.w3.org/2000/svg" xmlns:xlink="http://www.w3.org/1999/xlink" x="0px" y="0px"
	 viewBox="0 0 1080 810" style="enable-background:new 0 0 1080 810;" xml:space="preserve">
<style type="text/css">
	.st0{fill:#F4F4F4;}
	.st1{fill:#565151;}
	.st2{fill:#FFFFFF;}
	.st3{fill:none;stroke:#8D8D8D;}
	.st4{fill:#8D8D8D;}
	.st5{fill:#EDF5FF;stroke:#0F62FE;}
	.st6{clip-path:url(#SVGID_00000160163704327446073360000003871881994458413702_);}
	.st7{fill:#EDF5FF;}
	.st8{fill:none;stroke:#0F62FE;}
	.st9{clip-path:url(#SVGID_00000042720055487060869650000008852187962174961289_);}
	.st10{clip-path:url(#SVGID_00000147940007450178287810000013021720741543333249_);}
	.st11{fill:#0043CE;}
	.st12{fill:none;stroke:#0043CE;}
	.st13{fill:#161616;}
	.st14{fill:none;stroke:#000000;}
	.st15{fill:none;}
	.st16{fill:#6F6F6F;}
</style>
<rect class="st0" width="1080" height="810"/>
<path class="st1" d="M192,80l-5-2.9v2.4h-52v1h52v2.4L192,80z"/>
<path class="st1" d="M216.5,168v56h-1v-56H216.5z"/>
<path class="st1" d="M1000.5,400c0,4.7-3.8,8.5-8.5,8.5h-72v-1h72c4.1,0,7.5-3.4,7.5-7.5V197h-2.4l2.9-5l2.9,5h-2.4V400z"/>
<rect x="144.5" y="208.5" class="st2" width="775" height="511"/>
<rect x="144.5" y="208.5" class="st3" width="775" height="511"/>
<path class="st4" d="M148,208h-4v48h4V208z"/>
<path d="M165.2,237v-1.5h-1.3v-6.8h1.3v-1.5h-4.4v1.5h1.3v6.8h-1.3v1.5H165.2z M168.9,237v-4.8c0-0.8,0.7-1.2,1.5-1.2
	c0.9,0,1.2,0.5,1.2,1.6v4.4h1.8v-4.6c0-1.8-0.8-2.9-2.3-2.9c-1.1,0-1.8,0.6-2,1.4H169v-1.2h-1.8v7.3H168.9z M175.9,237h1.8v-5.9h1.5
	v-1.4h-1.5v-1.6h1.5v-1.4h-1.3c-1.3,0-2,0.7-2,2v1.1h-1.1v1.4h1.1V237z M182.4,237v-4.5c0-0.8,0.6-1.1,1.8-1.1h0.6v-1.7h-0.4
	c-1.2,0-1.8,0.7-1.9,1.5h-0.1v-1.5h-1.8v7.3H182.4z M187.9,237.2c1.1,0,1.9-0.5,2.1-1.4h0.1c0.1,0.8,0.6,1.3,1.4,1.3h1v-1.4h-0.7
	v-3.4c0-1.7-1.1-2.6-3-2.6c-1.5,0-2.3,0.6-2.9,1.4l1.1,1c0.3-0.5,0.8-0.9,1.7-0.9c1,0,1.4,0.5,1.4,1.3v0.5h-1.2
	c-2,0-3.1,0.7-3.1,2.2C185.5,236.3,186.4,237.2,187.9,237.2z M188.5,235.9c-0.7,0-1.1-0.3-1.1-0.9v-0.2c0-0.6,0.5-0.9,1.4-0.9h1.1v1
	C189.9,235.5,189.3,235.9,188.5,235.9z M196.4,237.2c1.8,0,3-1,3-2.4c0-1.2-0.8-1.9-2.4-2.2l-0.7-0.1c-0.7-0.1-1-0.3-1-0.8
	c0-0.4,0.3-0.8,1.1-0.8c0.7,0,1.3,0.3,1.8,0.8l1.1-1.1c-0.7-0.7-1.4-1.1-2.9-1.1c-1.7,0-2.8,0.9-2.8,2.3c0,1.3,0.9,2,2.4,2.2
	l0.7,0.1c0.6,0.1,0.9,0.4,0.9,0.8c0,0.5-0.4,0.8-1.2,0.8s-1.5-0.4-2-1l-1.1,1.1C194.1,236.7,195.1,237.2,196.4,237.2z M203.4,237
	h1.3v-1.4h-1.4v-4.5h1.5v-1.4h-1.5v-2h-1.6v1.2c0,0.5-0.2,0.8-0.7,0.8h-0.6v1.4h1.1v4C201.5,236.3,202.1,237,203.4,237z M208.3,237
	v-4.5c0-0.8,0.6-1.1,1.8-1.1h0.6v-1.7h-0.4c-1.2,0-1.8,0.7-1.9,1.5h-0.1v-1.5h-1.8v7.3H208.3z M216.5,237h1.8v-7.3h-1.8v4.8
	c0,0.8-0.7,1.2-1.4,1.2c-0.9,0-1.2-0.5-1.2-1.6v-4.4h-1.8v4.6c0,1.8,0.8,2.9,2.3,2.9c1.2,0,1.8-0.7,2-1.4h0.1L216.5,237L216.5,237z
	 M223.4,237.2c1.4,0,2.4-0.6,2.9-1.9l-1.4-0.7c-0.3,0.7-0.7,1.1-1.5,1.1c-1,0-1.5-0.7-1.5-1.7v-1.3c0-1,0.5-1.7,1.5-1.7
	c0.8,0,1.2,0.4,1.4,1.1l1.5-0.7c-0.4-1.1-1.4-1.8-2.9-1.8c-2.2,0-3.4,1.5-3.4,3.8C220,235.7,221.3,237.2,223.4,237.2z M230.1,237
	h1.3v-1.4H230v-4.5h1.5v-1.4H230v-2h-1.6v1.2c0,0.5-0.2,0.8-0.7,0.8h-0.6v1.4h1.1v4C228.3,236.3,228.9,237,230.1,237z M237.6,237
	h1.8v-7.3h-1.8v4.8c0,0.8-0.7,1.2-1.4,1.2c-0.9,0-1.2-0.5-1.2-1.6v-4.4h-1.8v4.6c0,1.8,0.8,2.9,2.3,2.9c1.2,0,1.8-0.7,2-1.4h0.1
	L237.6,237L237.6,237z M243.4,237v-4.5c0-0.8,0.6-1.1,1.8-1.1h0.6v-1.7h-0.4c-1.2,0-1.8,0.7-1.9,1.5h-0.1v-1.5h-1.8v7.3H243.4z
	 M250.2,237.2c1.4,0,2.4-0.5,3-1.3l-1-1.1c-0.4,0.6-1,1-1.9,1c-1.2,0-1.8-0.7-1.8-1.8v-0.2h4.9v-0.6c0-2-1-3.7-3.3-3.7
	c-2.1,0-3.4,1.5-3.4,3.8C246.7,235.7,248,237.2,250.2,237.2z M250.2,230.9c0.9,0,1.4,0.7,1.4,1.7v0.1h-3v-0.1
	C248.6,231.6,249.2,230.9,250.2,230.9z"/>
<path class="st0" d="M160.5,272.5H896c4.1,0,7.5,3.4,7.5,7.5v416c0,4.1-3.4,7.5-7.5,7.5H168c-4.1,0-7.5-3.4-7.5-7.5V272.5z"/>
<path class="st3" d="M160.5,272.5H896c4.1,0,7.5,3.4,7.5,7.5v416c0,4.1-3.4,7.5-7.5,7.5H168c-4.1,0-7.5-3.4-7.5-7.5V272.5z"/>
<path class="st4" d="M164,272h-4v48h4V272z"/>
<path d="M182.8,301v-1.6H179v-8.1h-1.8v9.8L182.8,301L182.8,301z M187.3,301.2c2.1,0,3.4-1.5,3.4-3.8s-1.3-3.8-3.4-3.8
	c-2.1,0-3.4,1.5-3.4,3.8C183.9,299.7,185.2,301.2,187.3,301.2z M187.3,299.7c-0.9,0-1.5-0.6-1.5-1.7v-1.4c0-1.1,0.6-1.7,1.5-1.7
	s1.5,0.6,1.5,1.7v1.4C188.8,299.1,188.2,299.7,187.3,299.7z M195.3,301.2c1.4,0,2.4-0.6,2.9-1.9l-1.4-0.7c-0.3,0.7-0.7,1.1-1.5,1.1
	c-1,0-1.5-0.7-1.5-1.7v-1.3c0-1,0.5-1.7,1.5-1.7c0.8,0,1.2,0.4,1.4,1.1l1.5-0.7c-0.4-1.1-1.4-1.8-2.9-1.8c-2.2,0-3.4,1.5-3.4,3.8
	C191.9,299.7,193.1,301.2,195.3,301.2z M201.6,301.2c1.1,0,1.9-0.5,2.1-1.4h0.1c0.1,0.8,0.6,1.3,1.4,1.3h1v-1.4h-0.7v-3.4
	c0-1.7-1.1-2.6-3-2.6c-1.5,0-2.3,0.6-2.9,1.4l1.1,1c0.3-0.5,0.8-0.9,1.7-0.9c1,0,1.4,0.5,1.4,1.3v0.5h-1.2c-2,0-3.1,0.7-3.1,2.2
	C199.2,300.3,200.1,301.2,201.6,301.2z M202.2,299.9c-0.7,0-1.1-0.3-1.1-0.9v-0.2c0-0.6,0.5-0.9,1.4-0.9h1.1v1
	C203.6,299.5,203,299.9,202.2,299.9z M210,301h1.3v-1.4h-1.4v-4.5h1.5v-1.4h-1.5v-2h-1.6v1.2c0,0.5-0.2,0.8-0.7,0.8H207v1.4h1.1v4
	C208.1,300.3,208.7,301,210,301z M214,292.6c0.7,0,1.1-0.4,1.1-0.9v-0.3c0-0.5-0.3-0.9-1.1-0.9c-0.7,0-1.1,0.4-1.1,0.9v0.3
	C212.9,292.2,213.2,292.6,214,292.6z M213.1,301h1.8v-7.3h-1.8V301z M220,301.2c2.1,0,3.4-1.5,3.4-3.8s-1.3-3.8-3.4-3.8
	c-2.1,0-3.4,1.5-3.4,3.8S217.9,301.2,220,301.2z M220,299.7c-0.9,0-1.5-0.6-1.5-1.7v-1.4c0-1.1,0.6-1.7,1.5-1.7s1.5,0.6,1.5,1.7v1.4
	C221.5,299.1,220.9,299.7,220,299.7z M226.9,301v-4.8c0-0.8,0.7-1.2,1.5-1.2c0.9,0,1.2,0.5,1.2,1.6v4.4h1.8v-4.6
	c0-1.8-0.8-2.9-2.3-2.9c-1.1,0-1.8,0.6-2,1.4H227v-1.2h-1.8v7.3L226.9,301L226.9,301z"/>
<rect x="272" y="336" class="st2" width="48" height="48"/>
<path class="st5" d="M280,336.5h32c4.1,0,7.5,3.4,7.5,7.5v32c0,4.1-3.4,7.5-7.5,7.5h-32c-4.1,0-7.5-3.4-7.5-7.5v-32
	C272.5,339.9,275.9,336.5,280,336.5z"/>
<path d="M303.5,358.8h-0.6v-7.5h-1.2v7.5H301c-0.3,0-0.6,0.1-0.9,0.4c-0.2,0.2-0.4,0.6-0.4,0.9v1.2c0,0.3,0.1,0.6,0.4,0.9
	c0.2,0.2,0.6,0.4,0.9,0.4h0.6v6.2h1.2v-6.2h0.6c0.3,0,0.6-0.1,0.9-0.4c0.2-0.2,0.4-0.6,0.4-0.9V360c0-0.3-0.1-0.6-0.4-0.9
	C304.1,358.9,303.8,358.8,303.5,358.8z M303.5,361.3H301V360h2.5V361.3z"/>
<path d="M297.2,353.8h-0.6v-2.5h-1.2v2.5h-0.6c-0.3,0-0.6,0.1-0.9,0.4c-0.2,0.2-0.4,0.6-0.4,0.9v1.2c0,0.3,0.1,0.6,0.4,0.9
	c0.2,0.2,0.6,0.4,0.9,0.4h0.6v11.2h1.2v-11.2h0.6c0.3,0,0.6-0.1,0.9-0.4c0.2-0.2,0.4-0.6,0.4-0.9V355c0-0.3-0.1-0.6-0.4-0.9
	C297.9,353.9,297.6,353.8,297.2,353.8z M297.2,356.3h-2.5V355h2.5V356.3z"/>
<path d="M291,362.5h-0.6v-11.2h-1.2v11.2h-0.6c-0.3,0-0.6,0.1-0.9,0.4c-0.2,0.2-0.4,0.6-0.4,0.9v1.2c0,0.3,0.1,0.6,0.4,0.9
	c0.2,0.2,0.6,0.4,0.9,0.4h0.6v2.5h1.2v-2.5h0.6c0.3,0,0.6-0.1,0.9-0.4c0.2-0.2,0.4-0.6,0.4-0.9v-1.2c0-0.3-0.1-0.6-0.4-0.9
	S291.3,362.5,291,362.5z M291,365h-2.5v-1.2h2.5V365z"/>
<path d="M332.9,364.2c1.8,0,2.9-0.9,3.6-2.3L335,361c-0.3,0.9-1,1.6-2.1,1.6c-1.4,0-2.3-1-2.3-2.6v-1.5c0-1.7,0.9-2.7,2.3-2.7
	c1.1,0,1.7,0.6,2,1.5l1.6-0.8c-0.7-1.5-1.8-2.3-3.6-2.3c-2.6,0-4.2,1.8-4.2,5.1C328.7,362.5,330.4,364.2,332.9,364.2z M341.1,364.2
	c2.1,0,3.4-1.5,3.4-3.8s-1.3-3.8-3.4-3.8s-3.4,1.5-3.4,3.8S339,364.2,341.1,364.2z M341.1,362.7c-0.9,0-1.5-0.6-1.5-1.7v-1.4
	c0-1.1,0.6-1.7,1.5-1.7s1.5,0.6,1.5,1.7v1.4C342.6,362.1,342,362.7,341.1,362.7z M348,364v-4.8c0-0.8,0.7-1.2,1.5-1.2
	c0.9,0,1.2,0.5,1.2,1.6v4.4h1.8v-4.6c0-1.8-0.8-2.9-2.3-2.9c-1.1,0-1.8,0.6-2,1.4H348v-1.2h-1.8v7.3L348,364L348,364z M356.9,364
	h1.3v-1.4h-1.4v-4.5h1.5v-1.4h-1.5v-2h-1.6v1.2c0,0.5-0.2,0.8-0.7,0.8h-0.6v1.4h1.1v4C355,363.3,355.7,364,356.9,364z M361.8,364
	v-4.5c0-0.8,0.6-1.1,1.8-1.1h0.6v-1.7h-0.4c-1.2,0-1.8,0.7-1.9,1.5h-0.1v-1.5H360v7.3L361.8,364L361.8,364z M368.5,364.2
	c2.1,0,3.4-1.5,3.4-3.8s-1.3-3.8-3.4-3.8s-3.4,1.5-3.4,3.8S366.4,364.2,368.5,364.2z M368.5,362.7c-0.9,0-1.5-0.6-1.5-1.7v-1.4
	c0-1.1,0.6-1.7,1.5-1.7s1.5,0.6,1.5,1.7v1.4C370,362.1,369.4,362.7,368.5,362.7z M376.4,364v-1.4h-1v-8.9h-1.8v8.6
	c0,1.1,0.6,1.8,1.8,1.8h1V364z M381.4,366.8h1.8v-4h0.1c0.3,0.8,1,1.4,2,1.4c1.8,0,2.9-1.4,2.9-3.8s-1-3.8-2.9-3.8
	c-1,0-1.8,0.5-2,1.4h-0.1v-1.2h-1.8V366.8z M384.7,362.7c-0.9,0-1.5-0.4-1.5-1.2v-2.3c0-0.7,0.6-1.2,1.5-1.2s1.6,0.7,1.6,1.7v1.3
	C386.3,362,385.6,362.7,384.7,362.7z M392.7,364v-1.4h-1v-8.9h-1.8v8.6c0,1.1,0.6,1.8,1.8,1.8h1V364z M396,364.2
	c1.1,0,1.9-0.5,2.1-1.4h0.1c0.1,0.8,0.6,1.3,1.4,1.3h1v-1.4h-0.7v-3.4c0-1.7-1-2.6-3-2.6c-1.5,0-2.3,0.6-2.9,1.4l1.1,1
	c0.4-0.5,0.8-0.9,1.7-0.9c1,0,1.4,0.5,1.4,1.3v0.5H397c-2,0-3.1,0.7-3.1,2.2C393.7,363.3,394.5,364.2,396,364.2z M396.6,362.9
	c-0.7,0-1.1-0.3-1.1-0.9v-0.2c0-0.6,0.5-0.9,1.4-0.9h1.1v1C398.1,362.5,397.4,362.9,396.6,362.9z M404,364v-4.8
	c0-0.8,0.7-1.2,1.5-1.2c0.9,0,1.2,0.5,1.2,1.6v4.4h1.8v-4.6c0-1.8-0.8-2.9-2.3-2.9c-1.1,0-1.8,0.6-2,1.4H404v-1.2h-1.8v7.3L404,364
	L404,364z M413.5,364.2c1.4,0,2.4-0.5,3-1.3l-1-1.1c-0.4,0.6-1,1-1.9,1c-1.2,0-1.8-0.7-1.8-1.8v-0.2h4.9v-0.6c0-2-1.1-3.7-3.3-3.7
	c-2.1,0-3.4,1.5-3.4,3.8C410.1,362.7,411.4,364.2,413.5,364.2z M413.5,357.9c0.9,0,1.4,0.7,1.4,1.7v0.1h-3v-0.1
	C412,358.6,412.6,357.9,413.5,357.9z"/>
<rect x="176.5" y="608.5" class="st2" width="711" height="79"/>
<g>
	<g>
		<defs>
			<rect id="SVGID_1_" x="176" y="608" width="77" height="48"/>
		</defs>
		<clipPath id="SVGID_00000039110198182617369820000016388375423667659433_">
			<use xlink:href="#SVGID_1_"  style="overflow:visible;"/>
		</clipPath>
		<g style="clip-path:url(#SVGID_00000039110198182617369820000016388375423667659433_);">
			<path d="M199.9,635.4h-5.2l5.1-6.5v-1.7h-6.9v1.6h4.8l-5.1,6.5v1.7h7.3L199.9,635.4L199.9,635.4z M204.4,637.2
				c2.1,0,3.4-1.5,3.4-3.8s-1.3-3.8-3.4-3.8c-2.1,0-3.4,1.5-3.4,3.8S202.3,637.2,204.4,637.2z M204.4,635.7c-0.9,0-1.5-0.6-1.5-1.7
				v-1.4c0-1.1,0.6-1.7,1.5-1.7s1.5,0.6,1.5,1.7v1.4C205.9,635.1,205.3,635.7,204.4,635.7z M211.3,637v-4.8c0-0.8,0.7-1.2,1.5-1.2
				c0.9,0,1.2,0.5,1.2,1.6v4.4h1.8v-4.6c0-1.8-0.8-2.9-2.3-2.9c-1.1,0-1.8,0.6-2,1.4h-0.1v-1.2h-1.8v7.3H211.3z M220.9,637.2
				c1.4,0,2.4-0.5,3-1.3l-1-1.1c-0.4,0.6-1,1-1.9,1c-1.2,0-1.8-0.7-1.8-1.8v-0.2h4.9v-0.6c0-2-1-3.7-3.3-3.7c-2.1,0-3.4,1.5-3.4,3.8
				C217.5,635.7,218.7,637.2,220.9,637.2z M220.9,630.9c0.9,0,1.4,0.7,1.4,1.7v0.1h-3v-0.1C219.3,631.6,219.9,630.9,220.9,630.9z
				 M231,631.2v1.5h1c1.2,0,1.8,0.5,1.8,1.4v0.1c0,0.9-0.6,1.5-1.7,1.5c-1.1,0-1.7-0.6-2.1-1.3l-1.4,1c0.6,1,1.6,1.8,3.5,1.8
				c2.2,0,3.6-1.1,3.6-2.9c0-1.4-0.9-2.2-2-2.4v-0.1c1-0.2,1.9-1,1.9-2.2c0-1.6-1.3-2.5-3.3-2.5c-1.7,0-2.6,0.7-3.2,1.6l1.2,1.1
				c0.5-0.7,1.1-1.2,2-1.2s1.4,0.5,1.4,1.3v0.1c0,0.7-0.5,1.2-1.6,1.2L231,631.2L231,631.2z"/>
		</g>
	</g>
</g>
<rect x="176.5" y="608.5" class="st3" width="711" height="79"/>
<rect x="272.5" y="624.5" class="st7" width="47" height="47"/>
<path d="M299.1,648h-6.2c-0.3,0-0.6,0.1-0.9,0.4c-0.2,0.2-0.4,0.6-0.4,0.9v3.8c0,0.3,0.1,0.6,0.4,0.9c0.2,0.2,0.6,0.4,0.9,0.4h2.5
	v1.2h-1.9v1.2h5v-1.2h-1.9v-1.2h2.5c0.3,0,0.6-0.1,0.9-0.4c0.2-0.2,0.4-0.6,0.4-0.9v-3.8c0-0.3-0.1-0.6-0.4-0.9
	C299.8,648.1,299.5,648,299.1,648z M292.9,653v-3.8h6.2v3.8H292.9z"/>
<path d="M302.1,644.3c-0.3-1.4-1-2.7-2.2-3.6c-1.1-0.9-2.5-1.4-4-1.4s-2.9,0.5-4,1.4s-1.9,2.2-2.2,3.6c-1.1,0.2-2.1,0.8-2.9,1.7
	c-0.7,0.9-1.1,2-1,3.2c0.1,1.1,0.5,2.2,1.3,3s1.9,1.3,3,1.4v-1.2c-0.9-0.1-1.7-0.5-2.2-1.1c-0.6-0.6-0.9-1.5-0.9-2.3
	c0-0.9,0.3-1.7,0.9-2.3s1.4-1,2.3-1.1h0.5l0.1-0.5c0.1-1.2,0.7-2.4,1.6-3.2s2.1-1.3,3.3-1.3s2.4,0.5,3.3,1.3s1.5,2,1.6,3.2l0.1,0.5
	h0.5c0.9,0.1,1.7,0.4,2.3,1.1c0.6,0.6,0.9,1.5,0.9,2.3c0,0.9-0.3,1.7-0.9,2.3s-1.4,1-2.2,1.1v1.2c1.1-0.1,2.2-0.6,3-1.4
	c0.8-0.8,1.3-1.9,1.3-3c0.1-1.1-0.3-2.3-1-3.2C304.3,645.1,303.3,644.5,302.1,644.3z"/>
<rect x="272.5" y="624.5" class="st8" width="47" height="47"/>
<path d="M335.1,652h1.8v-9.8h-1.8v4H331v-4h-1.8v9.8h1.8v-4.1h4.1V652z M342.2,652.2c2.1,0,3.4-1.5,3.4-3.8s-1.3-3.8-3.4-3.8
	s-3.4,1.5-3.4,3.8C338.8,650.7,340.1,652.2,342.2,652.2z M342.2,650.7c-0.9,0-1.5-0.6-1.5-1.7v-1.4c0-1.1,0.6-1.7,1.5-1.7
	s1.5,0.6,1.5,1.7v1.4C343.7,650.1,343.1,650.7,342.2,650.7z M349.7,652.2c1.8,0,3-1,3-2.4c0-1.2-0.8-1.9-2.4-2.2l-0.7-0.1
	c-0.7-0.1-1-0.3-1-0.8c0-0.4,0.3-0.8,1.1-0.8c0.7,0,1.3,0.3,1.8,0.8l1.1-1c-0.7-0.7-1.4-1.1-2.9-1.1c-1.7,0-2.8,0.9-2.8,2.3
	c0,1.3,0.9,2,2.4,2.2l0.7,0.1c0.6,0.1,0.9,0.4,0.9,0.8c0,0.5-0.4,0.8-1.2,0.8c-0.8,0-1.5-0.4-2-1l-1.1,1.1
	C347.4,651.7,348.3,652.2,349.7,652.2z M356.6,652h1.3v-1.4h-1.4v-4.5h1.5v-1.4h-1.5v-2h-1.6v1.2c0,0.5-0.2,0.8-0.7,0.8h-0.6v1.4
	h1.1v4C354.7,651.3,355.4,652,356.6,652z"/>
<rect x="392" y="624" class="st4" width="48" height="48"/>
<path class="st2" d="M419.1,648h-6.2c-0.3,0-0.6,0.1-0.9,0.4c-0.2,0.2-0.4,0.6-0.4,0.9v3.8c0,0.3,0.1,0.6,0.4,0.9
	c0.2,0.2,0.6,0.4,0.9,0.4h2.5v1.2h-1.9v1.2h5v-1.2h-1.9v-1.2h2.5c0.3,0,0.6-0.1,0.9-0.4c0.2-0.2,0.4-0.6,0.4-0.9v-3.8
	c0-0.3-0.1-0.6-0.4-0.9C419.8,648.1,419.5,648,419.1,648z M412.9,653v-3.8h6.2v3.8H412.9z"/>
<path class="st2" d="M422.1,644.3c-0.3-1.4-1-2.7-2.2-3.6c-1.1-0.9-2.5-1.4-4-1.4s-2.9,0.5-4,1.4s-1.9,2.2-2.2,3.6
	c-1.1,0.2-2.1,0.8-2.9,1.7c-0.7,0.9-1.1,2-1,3.2c0.1,1.1,0.5,2.2,1.3,3s1.9,1.3,3,1.4v-1.2c-0.9-0.1-1.7-0.5-2.2-1.1
	c-0.6-0.6-0.9-1.5-0.9-2.3c0-0.9,0.3-1.7,0.9-2.3s1.4-1,2.3-1.1h0.5l0.1-0.5c0.1-1.2,0.7-2.4,1.6-3.2s2.1-1.3,3.3-1.3
	s2.4,0.5,3.3,1.3s1.5,2,1.6,3.2l0.1,0.5h0.5c0.9,0.1,1.7,0.4,2.3,1.1c0.6,0.6,0.9,1.5,0.9,2.3c0,0.9-0.3,1.7-0.9,2.3s-1.4,1-2.2,1.1
	v1.2c1.1-0.1,2.2-0.6,3-1.4c0.8-0.8,1.3-1.9,1.3-3c0.1-1.1-0.3-2.3-1-3.2C424.3,645.1,423.3,644.5,422.1,644.3z"/>
<path d="M455.1,652h1.8v-9.8h-1.8v4H451v-4h-1.8v9.8h1.8v-4.1h4.1V652z M462.2,652.2c2.1,0,3.4-1.5,3.4-3.8s-1.3-3.8-3.4-3.8
	s-3.4,1.5-3.4,3.8C458.8,650.7,460.1,652.2,462.2,652.2z M462.2,650.7c-0.9,0-1.5-0.6-1.5-1.7v-1.4c0-1.1,0.6-1.7,1.5-1.7
	s1.5,0.6,1.5,1.7v1.4C463.7,650.1,463.1,650.7,462.2,650.7z M469.7,652.2c1.8,0,3-1,3-2.4c0-1.2-0.8-1.9-2.4-2.2l-0.7-0.1
	c-0.7-0.1-1-0.3-1-0.8c0-0.4,0.3-0.8,1.1-0.8c0.7,0,1.3,0.3,1.8,0.8l1.1-1c-0.7-0.7-1.4-1.1-2.9-1.1c-1.7,0-2.8,0.9-2.8,2.3
	c0,1.3,0.9,2,2.4,2.2l0.7,0.1c0.6,0.1,0.9,0.4,0.9,0.8c0,0.5-0.4,0.8-1.2,0.8c-0.8,0-1.5-0.4-2-1l-1.1,1.1
	C467.4,651.7,468.3,652.2,469.7,652.2z M476.6,652h1.3v-1.4h-1.4v-4.5h1.5v-1.4h-1.5v-2h-1.6v1.2c0,0.5-0.2,0.8-0.7,0.8h-0.6v1.4
	h1.1v4C474.7,651.3,475.4,652,476.6,652z"/>
<rect x="512" y="624" class="st4" width="48" height="48"/>
<path class="st2" d="M539.1,648h-6.2c-0.3,0-0.6,0.1-0.9,0.4c-0.2,0.2-0.4,0.6-0.4,0.9v3.8c0,0.3,0.1,0.6,0.4,0.9
	c0.2,0.2,0.6,0.4,0.9,0.4h2.5v1.2h-1.9v1.2h5v-1.2h-1.9v-1.2h2.5c0.3,0,0.6-0.1,0.9-0.4c0.2-0.2,0.4-0.6,0.4-0.9v-3.8
	c0-0.3-0.1-0.6-0.4-0.9C539.8,648.1,539.5,648,539.1,648z M532.9,653v-3.8h6.2v3.8H532.9z"/>
<path class="st2" d="M542.1,644.3c-0.3-1.4-1-2.7-2.2-3.6c-1.1-0.9-2.5-1.4-4-1.4s-2.9,0.5-4,1.4s-1.9,2.2-2.2,3.6
	c-1.1,0.2-2.1,0.8-2.9,1.7c-0.7,0.9-1.1,2-1,3.2c0.1,1.1,0.5,2.2,1.3,3s1.9,1.3,3,1.4v-1.2c-0.9-0.1-1.7-0.5-2.2-1.1
	c-0.6-0.6-0.9-1.5-0.9-2.3c0-0.9,0.3-1.7,0.9-2.3c0.6-0.6,1.4-1,2.3-1.1h0.5l0.1-0.5c0.1-1.2,0.7-2.4,1.6-3.2
	c0.9-0.8,2.1-1.3,3.3-1.3s2.4,0.5,3.3,1.3c0.9,0.8,1.5,2,1.6,3.2l0.1,0.5h0.5c0.9,0.1,1.7,0.4,2.3,1.1c0.6,0.6,0.9,1.5,0.9,2.3
	c0,0.9-0.3,1.7-0.9,2.3c-0.6,0.6-1.4,1-2.2,1.1v1.2c1.1-0.1,2.2-0.6,3-1.4c0.8-0.8,1.3-1.9,1.3-3c0.1-1.1-0.3-2.3-1-3.2
	C544.3,645.1,543.3,644.5,542.1,644.3z"/>
<path d="M575.1,652h1.8v-9.8h-1.8v4H571v-4h-1.8v9.8h1.8v-4.1h4.1V652z M582.2,652.2c2.1,0,3.4-1.5,3.4-3.8s-1.3-3.8-3.4-3.8
	c-2.1,0-3.4,1.5-3.4,3.8S580.1,652.2,582.2,652.2z M582.2,650.7c-0.9,0-1.5-0.6-1.5-1.7v-1.4c0-1.1,0.6-1.7,1.5-1.7s1.5,0.6,1.5,1.7
	v1.4C583.7,650.1,583.1,650.7,582.2,650.7z M589.7,652.2c1.8,0,3-1,3-2.4c0-1.2-0.8-1.9-2.4-2.2l-0.7-0.1c-0.7-0.1-1-0.3-1-0.8
	c0-0.4,0.3-0.8,1.1-0.8c0.7,0,1.3,0.3,1.8,0.8l1-1c-0.7-0.7-1.4-1.1-2.9-1.1c-1.7,0-2.8,0.9-2.8,2.3c0,1.3,0.9,2,2.4,2.2l0.7,0.1
	c0.6,0.1,0.9,0.4,0.9,0.8c0,0.5-0.4,0.8-1.2,0.8s-1.5-0.4-2-1l-1.1,1.1C587.4,651.7,588.3,652.2,589.7,652.2z M596.6,652h1.3v-1.4
	h-1.4v-4.5h1.5v-1.4h-1.5v-2h-1.6v1.2c0,0.5-0.2,0.8-0.7,0.8h-0.6v1.4h1.1v4C594.7,651.3,595.4,652,596.6,652z"/>
<rect x="632" y="624" class="st4" width="48" height="48"/>
<path class="st2" d="M659.1,648h-6.2c-0.3,0-0.6,0.1-0.9,0.4c-0.2,0.2-0.4,0.6-0.4,0.9v3.8c0,0.3,0.1,0.6,0.4,0.9
	c0.2,0.2,0.6,0.4,0.9,0.4h2.5v1.2h-1.9v1.2h5v-1.2h-1.9v-1.2h2.5c0.3,0,0.6-0.1,0.9-0.4c0.2-0.2,0.4-0.6,0.4-0.9v-3.8
	c0-0.3-0.1-0.6-0.4-0.9C659.8,648.1,659.5,648,659.1,648z M652.9,653v-3.8h6.2v3.8H652.9z"/>
<path class="st2" d="M662.1,644.3c-0.3-1.4-1-2.7-2.2-3.6c-1.1-0.9-2.5-1.4-4-1.4s-2.9,0.5-4,1.4s-1.9,2.2-2.2,3.6
	c-1.1,0.2-2.1,0.8-2.9,1.7c-0.7,0.9-1.1,2-1,3.2c0.1,1.1,0.5,2.2,1.3,3s1.9,1.3,3,1.4v-1.2c-0.9-0.1-1.7-0.5-2.2-1.1
	c-0.6-0.6-0.9-1.5-0.9-2.3c0-0.9,0.3-1.7,0.9-2.3c0.6-0.6,1.4-1,2.3-1.1h0.5l0.1-0.5c0.1-1.2,0.7-2.4,1.6-3.2
	c0.9-0.8,2.1-1.3,3.3-1.3s2.4,0.5,3.3,1.3c0.9,0.8,1.5,2,1.6,3.2l0.1,0.5h0.5c0.9,0.1,1.7,0.4,2.3,1.1c0.6,0.6,0.9,1.5,0.9,2.3
	c0,0.9-0.3,1.7-0.9,2.3c-0.6,0.6-1.4,1-2.2,1.1v1.2c1.1-0.1,2.2-0.6,3-1.4c0.8-0.8,1.3-1.9,1.3-3c0.1-1.1-0.3-2.3-1-3.2
	C664.3,645.1,663.3,644.5,662.1,644.3z"/>
<path d="M695.1,652h1.8v-9.8h-1.8v4H691v-4h-1.8v9.8h1.8v-4.1h4.1V652z M702.2,652.2c2.1,0,3.4-1.5,3.4-3.8s-1.3-3.8-3.4-3.8
	c-2.1,0-3.4,1.5-3.4,3.8S700.1,652.2,702.2,652.2z M702.2,650.7c-0.9,0-1.5-0.6-1.5-1.7v-1.4c0-1.1,0.6-1.7,1.5-1.7s1.5,0.6,1.5,1.7
	v1.4C703.7,650.1,703.1,650.7,702.2,650.7z M709.7,652.2c1.8,0,3-1,3-2.4c0-1.2-0.8-1.9-2.4-2.2l-0.7-0.1c-0.7-0.1-1-0.3-1-0.8
	c0-0.4,0.3-0.8,1.1-0.8c0.7,0,1.3,0.3,1.8,0.8l1-1c-0.7-0.7-1.4-1.1-2.9-1.1c-1.7,0-2.8,0.9-2.8,2.3c0,1.3,0.9,2,2.4,2.2l0.7,0.1
	c0.6,0.1,0.9,0.4,0.9,0.8c0,0.5-0.4,0.8-1.2,0.8s-1.5-0.4-2-1l-1.1,1.1C707.4,651.7,708.3,652.2,709.7,652.2z M716.6,652h1.3v-1.4
	h-1.4v-4.5h1.5v-1.4h-1.5v-2h-1.6v1.2c0,0.5-0.2,0.8-0.7,0.8h-0.6v1.4h1.1v4C714.7,651.3,715.4,652,716.6,652z"/>
<rect x="752" y="624" class="st4" width="48" height="48"/>
<path class="st2" d="M779.1,648h-6.2c-0.3,0-0.6,0.1-0.9,0.4c-0.2,0.2-0.4,0.6-0.4,0.9v3.8c0,0.3,0.1,0.6,0.4,0.9
	c0.2,0.2,0.6,0.4,0.9,0.4h2.5v1.2h-1.9v1.2h5v-1.2h-1.9v-1.2h2.5c0.3,0,0.6-0.1,0.9-0.4c0.2-0.2,0.4-0.6,0.4-0.9v-3.8
	c0-0.3-0.1-0.6-0.4-0.9C779.8,648.1,779.5,648,779.1,648z M772.9,653v-3.8h6.2v3.8H772.9z"/>
<path class="st2" d="M782.1,644.3c-0.3-1.4-1-2.7-2.2-3.6c-1.1-0.9-2.5-1.4-4-1.4s-2.9,0.5-4,1.4s-1.9,2.2-2.2,3.6
	c-1.1,0.2-2.1,0.8-2.9,1.7c-0.7,0.9-1.1,2-1,3.2c0.1,1.1,0.5,2.2,1.3,3s1.9,1.3,3,1.4v-1.2c-0.9-0.1-1.7-0.5-2.2-1.1
	c-0.6-0.6-0.9-1.5-0.9-2.3c0-0.9,0.3-1.7,0.9-2.3c0.6-0.6,1.4-1,2.3-1.1h0.5l0.1-0.5c0.1-1.2,0.7-2.4,1.6-3.2
	c0.9-0.8,2.1-1.3,3.3-1.3s2.4,0.5,3.3,1.3c0.9,0.8,1.5,2,1.6,3.2l0.1,0.5h0.5c0.9,0.1,1.7,0.4,2.3,1.1c0.6,0.6,0.9,1.5,0.9,2.3
	c0,0.9-0.3,1.7-0.9,2.3c-0.6,0.6-1.4,1-2.2,1.1v1.2c1.1-0.1,2.2-0.6,3-1.4c0.8-0.8,1.3-1.9,1.3-3c0.1-1.1-0.3-2.3-1-3.2
	C784.3,645.1,783.3,644.5,782.1,644.3z"/>
<path d="M815.1,652h1.8v-9.8h-1.8v4H811v-4h-1.8v9.8h1.8v-4.1h4.1V652z M822.2,652.2c2.1,0,3.4-1.5,3.4-3.8s-1.3-3.8-3.4-3.8
	c-2.1,0-3.4,1.5-3.4,3.8S820.1,652.2,822.2,652.2z M822.2,650.7c-0.9,0-1.5-0.6-1.5-1.7v-1.4c0-1.1,0.6-1.7,1.5-1.7s1.5,0.6,1.5,1.7
	v1.4C823.7,650.1,823.1,650.7,822.2,650.7z M829.7,652.2c1.8,0,3-1,3-2.4c0-1.2-0.8-1.9-2.4-2.2l-0.7-0.1c-0.7-0.1-1-0.3-1-0.8
	c0-0.4,0.3-0.8,1.1-0.8c0.7,0,1.3,0.3,1.8,0.8l1-1c-0.7-0.7-1.4-1.1-2.9-1.1c-1.7,0-2.8,0.9-2.8,2.3c0,1.3,0.9,2,2.4,2.2l0.7,0.1
	c0.6,0.1,0.9,0.4,0.9,0.8c0,0.5-0.4,0.8-1.2,0.8s-1.5-0.4-2-1l-1.1,1.1C827.4,651.7,828.3,652.2,829.7,652.2z M836.6,652h1.3v-1.4
	h-1.4v-4.5h1.5v-1.4h-1.5v-2h-1.6v1.2c0,0.5-0.2,0.8-0.7,0.8h-0.6v1.4h1.1v4C834.7,651.3,835.4,652,836.6,652z"/>
<rect x="176.5" y="512.5" class="st2" width="711" height="79"/>
<g>
	<g>
		<defs>
			<rect id="SVGID_00000137134345678646470100000003597289774760114829_" x="176" y="512" width="77" height="48"/>
		</defs>
		<clipPath id="SVGID_00000023976394118297256710000006244595873117005242_">
			<use xlink:href="#SVGID_00000137134345678646470100000003597289774760114829_"  style="overflow:visible;"/>
		</clipPath>
		<g style="clip-path:url(#SVGID_00000023976394118297256710000006244595873117005242_);">
			<path d="M199.9,539.4h-5.2l5.1-6.5v-1.7h-6.9v1.6h4.8l-5.1,6.5v1.7h7.3L199.9,539.4L199.9,539.4z M204.4,541.2
				c2.1,0,3.4-1.5,3.4-3.8s-1.3-3.8-3.4-3.8c-2.1,0-3.4,1.5-3.4,3.8S202.3,541.2,204.4,541.2z M204.4,539.7c-0.9,0-1.5-0.6-1.5-1.7
				v-1.4c0-1.1,0.6-1.7,1.5-1.7s1.5,0.6,1.5,1.7v1.4C205.9,539.1,205.3,539.7,204.4,539.7z M211.3,541v-4.8c0-0.8,0.7-1.2,1.5-1.2
				c0.9,0,1.2,0.5,1.2,1.6v4.4h1.8v-4.6c0-1.8-0.8-2.9-2.3-2.9c-1.1,0-1.8,0.6-2,1.4h-0.1v-1.2h-1.8v7.3H211.3z M220.9,541.2
				c1.4,0,2.4-0.5,3-1.3l-1-1.1c-0.4,0.6-1,1-1.9,1c-1.2,0-1.8-0.7-1.8-1.8v-0.2h4.9v-0.6c0-2-1-3.7-3.3-3.7c-2.1,0-3.4,1.5-3.4,3.8
				C217.5,539.7,218.7,541.2,220.9,541.2z M220.9,534.9c0.9,0,1.4,0.7,1.4,1.7v0.1h-3v-0.1C219.3,535.6,219.9,534.9,220.9,534.9z
				 M236,539.4h-4.8l2.1-1.7c1.4-1.1,2.5-2.2,2.5-3.8c0-1.7-1.2-2.9-3.2-2.9s-3,1.1-3.5,2.4l1.6,0.6c0.2-0.8,0.7-1.5,1.7-1.5
				c0.8,0,1.4,0.5,1.4,1.3v0.2c0,0.9-0.5,1.5-1.5,2.4l-3.1,2.7v1.7h6.8V539.4z"/>
		</g>
	</g>
</g>
<rect x="176.5" y="512.5" class="st3" width="711" height="79"/>
<rect x="272.5" y="528.5" class="st7" width="47" height="47"/>
<path d="M299.1,552h-6.2c-0.3,0-0.6,0.1-0.9,0.4c-0.2,0.2-0.4,0.6-0.4,0.9v3.8c0,0.3,0.1,0.6,0.4,0.9c0.2,0.2,0.6,0.4,0.9,0.4h2.5
	v1.2h-1.9v1.2h5v-1.2h-1.9v-1.2h2.5c0.3,0,0.6-0.1,0.9-0.4c0.2-0.2,0.4-0.6,0.4-0.9v-3.8c0-0.3-0.1-0.6-0.4-0.9
	C299.8,552.1,299.5,552,299.1,552z M292.9,557v-3.8h6.2v3.8H292.9z"/>
<path d="M302.1,548.3c-0.3-1.4-1-2.7-2.2-3.6c-1.1-0.9-2.5-1.4-4-1.4s-2.9,0.5-4,1.4s-1.9,2.2-2.2,3.6c-1.1,0.2-2.1,0.8-2.9,1.7
	c-0.7,0.9-1.1,2-1,3.2c0.1,1.1,0.5,2.2,1.3,3s1.9,1.3,3,1.4v-1.2c-0.9-0.1-1.7-0.5-2.2-1.1c-0.6-0.6-0.9-1.5-0.9-2.3
	c0-0.9,0.3-1.7,0.9-2.3s1.4-1,2.3-1.1h0.5l0.1-0.5c0.1-1.2,0.7-2.4,1.6-3.2s2.1-1.3,3.3-1.3s2.4,0.5,3.3,1.3s1.5,2,1.6,3.2l0.1,0.5
	h0.5c0.9,0.1,1.7,0.4,2.3,1.1c0.6,0.6,0.9,1.5,0.9,2.3c0,0.9-0.3,1.7-0.9,2.3s-1.4,1-2.2,1.1v1.2c1.1-0.1,2.2-0.6,3-1.4
	c0.8-0.8,1.3-1.9,1.3-3c0.1-1.1-0.3-2.3-1-3.2C304.3,549.1,303.3,548.5,302.1,548.3z"/>
<rect x="272.5" y="528.5" class="st8" width="47" height="47"/>
<path d="M335.1,556h1.8v-9.8h-1.8v4H331v-4h-1.8v9.8h1.8v-4.1h4.1V556z M342.2,556.2c2.1,0,3.4-1.5,3.4-3.8s-1.3-3.8-3.4-3.8
	s-3.4,1.5-3.4,3.8C338.8,554.7,340.1,556.2,342.2,556.2z M342.2,554.7c-0.9,0-1.5-0.6-1.5-1.7v-1.4c0-1.1,0.6-1.7,1.5-1.7
	s1.5,0.6,1.5,1.7v1.4C343.7,554.1,343.1,554.7,342.2,554.7z M349.7,556.2c1.8,0,3-1,3-2.4c0-1.2-0.8-1.9-2.4-2.2l-0.7-0.1
	c-0.7-0.1-1-0.3-1-0.8c0-0.4,0.3-0.8,1.1-0.8c0.7,0,1.3,0.3,1.8,0.8l1.1-1c-0.7-0.7-1.4-1.1-2.9-1.1c-1.7,0-2.8,0.9-2.8,2.3
	c0,1.3,0.9,2,2.4,2.2l0.7,0.1c0.6,0.1,0.9,0.4,0.9,0.8c0,0.5-0.4,0.8-1.2,0.8c-0.8,0-1.5-0.4-2-1l-1.1,1.1
	C347.4,555.7,348.3,556.2,349.7,556.2z M356.6,556h1.3v-1.4h-1.4v-4.5h1.5v-1.4h-1.5v-2h-1.6v1.2c0,0.5-0.2,0.8-0.7,0.8h-0.6v1.4
	h1.1v4C354.7,555.3,355.4,556,356.6,556z"/>
<rect x="392" y="528" class="st4" width="48" height="48"/>
<path class="st2" d="M419.1,552h-6.2c-0.3,0-0.6,0.1-0.9,0.4c-0.2,0.2-0.4,0.6-0.4,0.9v3.8c0,0.3,0.1,0.6,0.4,0.9
	c0.2,0.2,0.6,0.4,0.9,0.4h2.5v1.2h-1.9v1.2h5v-1.2h-1.9v-1.2h2.5c0.3,0,0.6-0.1,0.9-0.4c0.2-0.2,0.4-0.6,0.4-0.9v-3.8
	c0-0.3-0.1-0.6-0.4-0.9C419.8,552.1,419.5,552,419.1,552z M412.9,557v-3.8h6.2v3.8H412.9z"/>
<path class="st2" d="M422.1,548.3c-0.3-1.4-1-2.7-2.2-3.6c-1.1-0.9-2.5-1.4-4-1.4s-2.9,0.5-4,1.4s-1.9,2.2-2.2,3.6
	c-1.1,0.2-2.1,0.8-2.9,1.7c-0.7,0.9-1.1,2-1,3.2c0.1,1.1,0.5,2.2,1.3,3s1.9,1.3,3,1.4v-1.2c-0.9-0.1-1.7-0.5-2.2-1.1
	c-0.6-0.6-0.9-1.5-0.9-2.3c0-0.9,0.3-1.7,0.9-2.3s1.4-1,2.3-1.1h0.5l0.1-0.5c0.1-1.2,0.7-2.4,1.6-3.2s2.1-1.3,3.3-1.3
	s2.4,0.5,3.3,1.3s1.5,2,1.6,3.2l0.1,0.5h0.5c0.9,0.1,1.7,0.4,2.3,1.1c0.6,0.6,0.9,1.5,0.9,2.3c0,0.9-0.3,1.7-0.9,2.3s-1.4,1-2.2,1.1
	v1.2c1.1-0.1,2.2-0.6,3-1.4c0.8-0.8,1.3-1.9,1.3-3c0.1-1.1-0.3-2.3-1-3.2C424.3,549.1,423.3,548.5,422.1,548.3z"/>
<path d="M455.1,556h1.8v-9.8h-1.8v4H451v-4h-1.8v9.8h1.8v-4.1h4.1V556z M462.2,556.2c2.1,0,3.4-1.5,3.4-3.8s-1.3-3.8-3.4-3.8
	s-3.4,1.5-3.4,3.8C458.8,554.7,460.1,556.2,462.2,556.2z M462.2,554.7c-0.9,0-1.5-0.6-1.5-1.7v-1.4c0-1.1,0.6-1.7,1.5-1.7
	s1.5,0.6,1.5,1.7v1.4C463.7,554.1,463.1,554.7,462.2,554.7z M469.7,556.2c1.8,0,3-1,3-2.4c0-1.2-0.8-1.9-2.4-2.2l-0.7-0.1
	c-0.7-0.1-1-0.3-1-0.8c0-0.4,0.3-0.8,1.1-0.8c0.7,0,1.3,0.3,1.8,0.8l1.1-1c-0.7-0.7-1.4-1.1-2.9-1.1c-1.7,0-2.8,0.9-2.8,2.3
	c0,1.3,0.9,2,2.4,2.2l0.7,0.1c0.6,0.1,0.9,0.4,0.9,0.8c0,0.5-0.4,0.8-1.2,0.8c-0.8,0-1.5-0.4-2-1l-1.1,1.1
	C467.4,555.7,468.3,556.2,469.7,556.2z M476.6,556h1.3v-1.4h-1.4v-4.5h1.5v-1.4h-1.5v-2h-1.6v1.2c0,0.5-0.2,0.8-0.7,0.8h-0.6v1.4
	h1.1v4C474.7,555.3,475.4,556,476.6,556z"/>
<rect x="512" y="528" class="st4" width="48" height="48"/>
<path class="st2" d="M539.1,552h-6.2c-0.3,0-0.6,0.1-0.9,0.4c-0.2,0.2-0.4,0.6-0.4,0.9v3.8c0,0.3,0.1,0.6,0.4,0.9
	c0.2,0.2,0.6,0.4,0.9,0.4h2.5v1.2h-1.9v1.2h5v-1.2h-1.9v-1.2h2.5c0.3,0,0.6-0.1,0.9-0.4c0.2-0.2,0.4-0.6,0.4-0.9v-3.8
	c0-0.3-0.1-0.6-0.4-0.9C539.8,552.1,539.5,552,539.1,552z M532.9,557v-3.8h6.2v3.8H532.9z"/>
<path class="st2" d="M542.1,548.3c-0.3-1.4-1-2.7-2.2-3.6c-1.1-0.9-2.5-1.4-4-1.4s-2.9,0.5-4,1.4s-1.9,2.2-2.2,3.6
	c-1.1,0.2-2.1,0.8-2.9,1.7c-0.7,0.9-1.1,2-1,3.2c0.1,1.1,0.5,2.2,1.3,3s1.9,1.3,3,1.4v-1.2c-0.9-0.1-1.7-0.5-2.2-1.1
	c-0.6-0.6-0.9-1.5-0.9-2.3c0-0.9,0.3-1.7,0.9-2.3c0.6-0.6,1.4-1,2.3-1.1h0.5l0.1-0.5c0.1-1.2,0.7-2.4,1.6-3.2
	c0.9-0.8,2.1-1.3,3.3-1.3s2.4,0.5,3.3,1.3c0.9,0.8,1.5,2,1.6,3.2l0.1,0.5h0.5c0.9,0.1,1.7,0.4,2.3,1.1c0.6,0.6,0.9,1.5,0.9,2.3
	c0,0.9-0.3,1.7-0.9,2.3c-0.6,0.6-1.4,1-2.2,1.1v1.2c1.1-0.1,2.2-0.6,3-1.4c0.8-0.8,1.3-1.9,1.3-3c0.1-1.1-0.3-2.3-1-3.2
	C544.3,549.1,543.3,548.5,542.1,548.3z"/>
<path d="M575.1,556h1.8v-9.8h-1.8v4H571v-4h-1.8v9.8h1.8v-4.1h4.1V556z M582.2,556.2c2.1,0,3.4-1.5,3.4-3.8s-1.3-3.8-3.4-3.8
	c-2.1,0-3.4,1.5-3.4,3.8S580.1,556.2,582.2,556.2z M582.2,554.7c-0.9,0-1.5-0.6-1.5-1.7v-1.4c0-1.1,0.6-1.7,1.5-1.7s1.5,0.6,1.5,1.7
	v1.4C583.7,554.1,583.1,554.7,582.2,554.7z M589.7,556.2c1.8,0,3-1,3-2.4c0-1.2-0.8-1.9-2.4-2.2l-0.7-0.1c-0.7-0.1-1-0.3-1-0.8
	c0-0.4,0.3-0.8,1.1-0.8c0.7,0,1.3,0.3,1.8,0.8l1-1c-0.7-0.7-1.4-1.1-2.9-1.1c-1.7,0-2.8,0.9-2.8,2.3c0,1.3,0.9,2,2.4,2.2l0.7,0.1
	c0.6,0.1,0.9,0.4,0.9,0.8c0,0.5-0.4,0.8-1.2,0.8s-1.5-0.4-2-1l-1.1,1.1C587.4,555.7,588.3,556.2,589.7,556.2z M596.6,556h1.3v-1.4
	h-1.4v-4.5h1.5v-1.4h-1.5v-2h-1.6v1.2c0,0.5-0.2,0.8-0.7,0.8h-0.6v1.4h1.1v4C594.7,555.3,595.4,556,596.6,556z"/>
<rect x="632" y="528" class="st4" width="48" height="48"/>
<path class="st2" d="M659.1,552h-6.2c-0.3,0-0.6,0.1-0.9,0.4c-0.2,0.2-0.4,0.6-0.4,0.9v3.8c0,0.3,0.1,0.6,0.4,0.9
	c0.2,0.2,0.6,0.4,0.9,0.4h2.5v1.2h-1.9v1.2h5v-1.2h-1.9v-1.2h2.5c0.3,0,0.6-0.1,0.9-0.4c0.2-0.2,0.4-0.6,0.4-0.9v-3.8
	c0-0.3-0.1-0.6-0.4-0.9C659.8,552.1,659.5,552,659.1,552z M652.9,557v-3.8h6.2v3.8H652.9z"/>
<path class="st2" d="M662.1,548.3c-0.3-1.4-1-2.7-2.2-3.6c-1.1-0.9-2.5-1.4-4-1.4s-2.9,0.5-4,1.4s-1.9,2.2-2.2,3.6
	c-1.1,0.2-2.1,0.8-2.9,1.7c-0.7,0.9-1.1,2-1,3.2c0.1,1.1,0.5,2.2,1.3,3s1.9,1.3,3,1.4v-1.2c-0.9-0.1-1.7-0.5-2.2-1.1
	c-0.6-0.6-0.9-1.5-0.9-2.3c0-0.9,0.3-1.7,0.9-2.3c0.6-0.6,1.4-1,2.3-1.1h0.5l0.1-0.5c0.1-1.2,0.7-2.4,1.6-3.2
	c0.9-0.8,2.1-1.3,3.3-1.3s2.4,0.5,3.3,1.3c0.9,0.8,1.5,2,1.6,3.2l0.1,0.5h0.5c0.9,0.1,1.7,0.4,2.3,1.1c0.6,0.6,0.9,1.5,0.9,2.3
	c0,0.9-0.3,1.7-0.9,2.3c-0.6,0.6-1.4,1-2.2,1.1v1.2c1.1-0.1,2.2-0.6,3-1.4c0.8-0.8,1.3-1.9,1.3-3c0.1-1.1-0.3-2.3-1-3.2
	C664.3,549.1,663.3,548.5,662.1,548.3z"/>
<path d="M695.1,556h1.8v-9.8h-1.8v4H691v-4h-1.8v9.8h1.8v-4.1h4.1V556z M702.2,556.2c2.1,0,3.4-1.5,3.4-3.8s-1.3-3.8-3.4-3.8
	c-2.1,0-3.4,1.5-3.4,3.8S700.1,556.2,702.2,556.2z M702.2,554.7c-0.9,0-1.5-0.6-1.5-1.7v-1.4c0-1.1,0.6-1.7,1.5-1.7s1.5,0.6,1.5,1.7
	v1.4C703.7,554.1,703.1,554.7,702.2,554.7z M709.7,556.2c1.8,0,3-1,3-2.4c0-1.2-0.8-1.9-2.4-2.2l-0.7-0.1c-0.7-0.1-1-0.3-1-0.8
	c0-0.4,0.3-0.8,1.1-0.8c0.7,0,1.3,0.3,1.8,0.8l1-1c-0.7-0.7-1.4-1.1-2.9-1.1c-1.7,0-2.8,0.9-2.8,2.3c0,1.3,0.9,2,2.4,2.2l0.7,0.1
	c0.6,0.1,0.9,0.4,0.9,0.8c0,0.5-0.4,0.8-1.2,0.8s-1.5-0.4-2-1l-1.1,1.1C707.4,555.7,708.3,556.2,709.7,556.2z M716.6,556h1.3v-1.4
	h-1.4v-4.5h1.5v-1.4h-1.5v-2h-1.6v1.2c0,0.5-0.2,0.8-0.7,0.8h-0.6v1.4h1.1v4C714.7,555.3,715.4,556,716.6,556z"/>
<rect x="752" y="528" class="st4" width="48" height="48"/>
<path class="st2" d="M779.1,552h-6.2c-0.3,0-0.6,0.1-0.9,0.4c-0.2,0.2-0.4,0.6-0.4,0.9v3.8c0,0.3,0.1,0.6,0.4,0.9
	c0.2,0.2,0.6,0.4,0.9,0.4h2.5v1.2h-1.9v1.2h5v-1.2h-1.9v-1.2h2.5c0.3,0,0.6-0.1,0.9-0.4c0.2-0.2,0.4-0.6,0.4-0.9v-3.8
	c0-0.3-0.1-0.6-0.4-0.9C779.8,552.1,779.5,552,779.1,552z M772.9,557v-3.8h6.2v3.8H772.9z"/>
<path class="st2" d="M782.1,548.3c-0.3-1.4-1-2.7-2.2-3.6c-1.1-0.9-2.5-1.4-4-1.4s-2.9,0.5-4,1.4s-1.9,2.2-2.2,3.6
	c-1.1,0.2-2.1,0.8-2.9,1.7c-0.7,0.9-1.1,2-1,3.2c0.1,1.1,0.5,2.2,1.3,3s1.9,1.3,3,1.4v-1.2c-0.9-0.1-1.7-0.5-2.2-1.1
	c-0.6-0.6-0.9-1.5-0.9-2.3c0-0.9,0.3-1.7,0.9-2.3c0.6-0.6,1.4-1,2.3-1.1h0.5l0.1-0.5c0.1-1.2,0.7-2.4,1.6-3.2
	c0.9-0.8,2.1-1.3,3.3-1.3s2.4,0.5,3.3,1.3c0.9,0.8,1.5,2,1.6,3.2l0.1,0.5h0.5c0.9,0.1,1.7,0.4,2.3,1.1c0.6,0.6,0.9,1.5,0.9,2.3
	c0,0.9-0.3,1.7-0.9,2.3c-0.6,0.6-1.4,1-2.2,1.1v1.2c1.1-0.1,2.2-0.6,3-1.4c0.8-0.8,1.3-1.9,1.3-3c0.1-1.1-0.3-2.3-1-3.2
	C784.3,549.1,783.3,548.5,782.1,548.3z"/>
<path d="M815.1,556h1.8v-9.8h-1.8v4H811v-4h-1.8v9.8h1.8v-4.1h4.1V556z M822.2,556.2c2.1,0,3.4-1.5,3.4-3.8s-1.3-3.8-3.4-3.8
	c-2.1,0-3.4,1.5-3.4,3.8S820.1,556.2,822.2,556.2z M822.2,554.7c-0.9,0-1.5-0.6-1.5-1.7v-1.4c0-1.1,0.6-1.7,1.5-1.7s1.5,0.6,1.5,1.7
	v1.4C823.7,554.1,823.1,554.7,822.2,554.7z M829.7,556.2c1.8,0,3-1,3-2.4c0-1.2-0.8-1.9-2.4-2.2l-0.7-0.1c-0.7-0.1-1-0.3-1-0.8
	c0-0.4,0.3-0.8,1.1-0.8c0.7,0,1.3,0.3,1.8,0.8l1-1c-0.7-0.7-1.4-1.1-2.9-1.1c-1.7,0-2.8,0.9-2.8,2.3c0,1.3,0.9,2,2.4,2.2l0.7,0.1
	c0.6,0.1,0.9,0.4,0.9,0.8c0,0.5-0.4,0.8-1.2,0.8s-1.5-0.4-2-1l-1.1,1.1C827.4,555.7,828.3,556.2,829.7,556.2z M836.6,556h1.3v-1.4
	h-1.4v-4.5h1.5v-1.4h-1.5v-2h-1.6v1.2c0,0.5-0.2,0.8-0.7,0.8h-0.6v1.4h1.1v4C834.7,555.3,835.4,556,836.6,556z"/>
<rect x="176.5" y="416.5" class="st2" width="711" height="79"/>
<g>
	<g>
		<defs>
			<rect id="SVGID_00000162339806423281348070000001848611568337548947_" x="176" y="416" width="77" height="48"/>
		</defs>
		<clipPath id="SVGID_00000093136683709599961770000009571400230449413508_">
			<use xlink:href="#SVGID_00000162339806423281348070000001848611568337548947_"  style="overflow:visible;"/>
		</clipPath>
		<g style="clip-path:url(#SVGID_00000093136683709599961770000009571400230449413508_);">
			<path d="M199.9,443.4h-5.2l5.1-6.5v-1.7h-6.9v1.6h4.8l-5.1,6.5v1.7h7.3L199.9,443.4L199.9,443.4z M204.4,445.2
				c2.1,0,3.4-1.5,3.4-3.8s-1.3-3.8-3.4-3.8c-2.1,0-3.4,1.5-3.4,3.8S202.3,445.2,204.4,445.2z M204.4,443.7c-0.9,0-1.5-0.6-1.5-1.7
				v-1.4c0-1.1,0.6-1.7,1.5-1.7s1.5,0.6,1.5,1.7v1.4C205.9,443.1,205.3,443.7,204.4,443.7z M211.3,445v-4.8c0-0.8,0.7-1.2,1.5-1.2
				c0.9,0,1.2,0.5,1.2,1.6v4.4h1.8v-4.6c0-1.8-0.8-2.9-2.3-2.9c-1.1,0-1.8,0.6-2,1.4h-0.1v-1.2h-1.8v7.3L211.3,445L211.3,445z
				 M220.9,445.2c1.4,0,2.4-0.5,3-1.3l-1-1.1c-0.4,0.6-1,1-1.9,1c-1.2,0-1.8-0.7-1.8-1.8v-0.2h4.9v-0.6c0-2-1-3.7-3.3-3.7
				c-2.1,0-3.4,1.5-3.4,3.8C217.5,443.7,218.7,445.2,220.9,445.2z M220.9,438.9c0.9,0,1.4,0.7,1.4,1.7v0.1h-3v-0.1
				C219.3,439.6,219.9,438.9,220.9,438.9z M236.4,445v-1.5h-2.2v-8.3h-2.8l-2.4,2.9l1.1,1l2.1-2.5h0.1v6.9h-2.7v1.5H236.4z"/>
		</g>
	</g>
</g>
<rect x="176.5" y="416.5" class="st3" width="711" height="79"/>
<rect x="272.5" y="432.5" class="st7" width="47" height="47"/>
<path d="M299.1,456h-6.2c-0.3,0-0.6,0.1-0.9,0.4c-0.2,0.2-0.4,0.6-0.4,0.9v3.8c0,0.3,0.1,0.6,0.4,0.9c0.2,0.2,0.6,0.4,0.9,0.4h2.5
	v1.2h-1.9v1.2h5v-1.2h-1.9v-1.2h2.5c0.3,0,0.6-0.1,0.9-0.4c0.2-0.2,0.4-0.6,0.4-0.9v-3.8c0-0.3-0.1-0.6-0.4-0.9
	C299.8,456.1,299.5,456,299.1,456z M292.9,461v-3.8h6.2v3.8H292.9z"/>
<path d="M302.1,452.3c-0.3-1.4-1-2.7-2.2-3.6c-1.1-0.9-2.5-1.4-4-1.4s-2.9,0.5-4,1.4s-1.9,2.2-2.2,3.6c-1.1,0.2-2.1,0.8-2.9,1.7
	c-0.7,0.9-1.1,2-1,3.2c0.1,1.1,0.5,2.2,1.3,3s1.9,1.3,3,1.4v-1.2c-0.9-0.1-1.7-0.5-2.2-1.1c-0.6-0.6-0.9-1.5-0.9-2.3
	c0-0.9,0.3-1.7,0.9-2.3c0.6-0.6,1.4-1,2.3-1.1h0.5l0.1-0.5c0.1-1.2,0.7-2.4,1.6-3.2c0.9-0.8,2.1-1.3,3.3-1.3s2.4,0.5,3.3,1.3
	s1.5,2,1.6,3.2l0.1,0.5h0.5c0.9,0.1,1.7,0.4,2.3,1.1c0.6,0.6,0.9,1.5,0.9,2.3c0,0.9-0.3,1.7-0.9,2.3c-0.6,0.6-1.4,1-2.2,1.1v1.2
	c1.1-0.1,2.2-0.6,3-1.4s1.3-1.9,1.3-3c0.1-1.1-0.3-2.3-1-3.2C304.3,453.1,303.3,452.5,302.1,452.3z"/>
<rect x="272.5" y="432.5" class="st8" width="47" height="47"/>
<path d="M335.1,460h1.8v-9.8h-1.8v4H331v-4h-1.8v9.8h1.8v-4.1h4.1V460z M342.2,460.2c2.1,0,3.4-1.5,3.4-3.8s-1.3-3.8-3.4-3.8
	s-3.4,1.5-3.4,3.8C338.8,458.7,340.1,460.2,342.2,460.2z M342.2,458.7c-0.9,0-1.5-0.6-1.5-1.7v-1.4c0-1.1,0.6-1.7,1.5-1.7
	s1.5,0.6,1.5,1.7v1.4C343.7,458.1,343.1,458.7,342.2,458.7z M349.7,460.2c1.8,0,3-1,3-2.4c0-1.2-0.8-1.9-2.4-2.2l-0.7-0.1
	c-0.7-0.1-1-0.3-1-0.8c0-0.4,0.3-0.8,1.1-0.8c0.7,0,1.3,0.3,1.8,0.8l1.1-1c-0.7-0.7-1.4-1.1-2.9-1.1c-1.7,0-2.8,0.9-2.8,2.3
	c0,1.3,0.9,2,2.4,2.2l0.7,0.1c0.6,0.1,0.9,0.3,0.9,0.8s-0.4,0.8-1.2,0.8c-0.8,0-1.5-0.4-2-1l-1.1,1.1
	C347.4,459.7,348.3,460.2,349.7,460.2z M356.6,460h1.3v-1.4h-1.4v-4.5h1.5v-1.4h-1.5v-2h-1.6v1.2c0,0.5-0.2,0.8-0.7,0.8h-0.6v1.4
	h1.1v4C354.7,459.3,355.4,460,356.6,460z"/>
<rect x="392" y="432" class="st4" width="48" height="48"/>
<path class="st2" d="M419.1,456h-6.2c-0.3,0-0.6,0.1-0.9,0.4c-0.2,0.2-0.4,0.6-0.4,0.9v3.8c0,0.3,0.1,0.6,0.4,0.9
	c0.2,0.2,0.6,0.4,0.9,0.4h2.5v1.2h-1.9v1.2h5v-1.2h-1.9v-1.2h2.5c0.3,0,0.6-0.1,0.9-0.4c0.2-0.2,0.4-0.6,0.4-0.9v-3.8
	c0-0.3-0.1-0.6-0.4-0.9C419.8,456.1,419.5,456,419.1,456z M412.9,461v-3.8h6.2v3.8H412.9z"/>
<path class="st2" d="M422.1,452.3c-0.3-1.4-1-2.7-2.2-3.6c-1.1-0.9-2.5-1.4-4-1.4s-2.9,0.5-4,1.4s-1.9,2.2-2.2,3.6
	c-1.1,0.2-2.1,0.8-2.9,1.7c-0.7,0.9-1.1,2-1,3.2c0.1,1.1,0.5,2.2,1.3,3s1.9,1.3,3,1.4v-1.2c-0.9-0.1-1.7-0.5-2.2-1.1
	c-0.6-0.6-0.9-1.5-0.9-2.3c0-0.9,0.3-1.7,0.9-2.3c0.6-0.6,1.4-1,2.3-1.1h0.5l0.1-0.5c0.1-1.2,0.7-2.4,1.6-3.2
	c0.9-0.8,2.1-1.3,3.3-1.3s2.4,0.5,3.3,1.3s1.5,2,1.6,3.2l0.1,0.5h0.5c0.9,0.1,1.7,0.4,2.3,1.1c0.6,0.6,0.9,1.5,0.9,2.3
	c0,0.9-0.3,1.7-0.9,2.3c-0.6,0.6-1.4,1-2.2,1.1v1.2c1.1-0.1,2.2-0.6,3-1.4s1.3-1.9,1.3-3c0.1-1.1-0.3-2.3-1-3.2
	C424.3,453.1,423.3,452.5,422.1,452.3z"/>
<path d="M455.1,460h1.8v-9.8h-1.8v4H451v-4h-1.8v9.8h1.8v-4.1h4.1V460z M462.2,460.2c2.1,0,3.4-1.5,3.4-3.8s-1.3-3.8-3.4-3.8
	s-3.4,1.5-3.4,3.8C458.8,458.7,460.1,460.2,462.2,460.2z M462.2,458.7c-0.9,0-1.5-0.6-1.5-1.7v-1.4c0-1.1,0.6-1.7,1.5-1.7
	s1.5,0.6,1.5,1.7v1.4C463.7,458.1,463.1,458.7,462.2,458.7z M469.7,460.2c1.8,0,3-1,3-2.4c0-1.2-0.8-1.9-2.4-2.2l-0.7-0.1
	c-0.7-0.1-1-0.3-1-0.8c0-0.4,0.3-0.8,1.1-0.8c0.7,0,1.3,0.3,1.8,0.8l1.1-1c-0.7-0.7-1.4-1.1-2.9-1.1c-1.7,0-2.8,0.9-2.8,2.3
	c0,1.3,0.9,2,2.4,2.2l0.7,0.1c0.6,0.1,0.9,0.3,0.9,0.8s-0.4,0.8-1.2,0.8c-0.8,0-1.5-0.4-2-1l-1.1,1.1
	C467.4,459.7,468.3,460.2,469.7,460.2z M476.6,460h1.3v-1.4h-1.4v-4.5h1.5v-1.4h-1.5v-2h-1.6v1.2c0,0.5-0.2,0.8-0.7,0.8h-0.6v1.4
	h1.1v4C474.7,459.3,475.4,460,476.6,460z"/>
<rect x="512" y="432" class="st4" width="48" height="48"/>
<path class="st2" d="M539.1,456h-6.2c-0.3,0-0.6,0.1-0.9,0.4c-0.2,0.2-0.4,0.6-0.4,0.9v3.8c0,0.3,0.1,0.6,0.4,0.9
	c0.2,0.2,0.6,0.4,0.9,0.4h2.5v1.2h-1.9v1.2h5v-1.2h-1.9v-1.2h2.5c0.3,0,0.6-0.1,0.9-0.4c0.2-0.2,0.4-0.6,0.4-0.9v-3.8
	c0-0.3-0.1-0.6-0.4-0.9C539.8,456.1,539.5,456,539.1,456z M532.9,461v-3.8h6.2v3.8H532.9z"/>
<path class="st2" d="M542.1,452.3c-0.3-1.4-1-2.7-2.2-3.6c-1.1-0.9-2.5-1.4-4-1.4s-2.9,0.5-4,1.4s-1.9,2.2-2.2,3.6
	c-1.1,0.2-2.1,0.8-2.9,1.7c-0.7,0.9-1.1,2-1,3.2c0.1,1.1,0.5,2.2,1.3,3s1.9,1.3,3,1.4v-1.2c-0.9-0.1-1.7-0.5-2.2-1.1
	c-0.6-0.6-0.9-1.5-0.9-2.3c0-0.9,0.3-1.7,0.9-2.3c0.6-0.6,1.4-1,2.3-1.1h0.5l0.1-0.5c0.1-1.2,0.7-2.4,1.6-3.2
	c0.9-0.8,2.1-1.3,3.3-1.3s2.4,0.5,3.3,1.3c0.9,0.8,1.5,2,1.6,3.2l0.1,0.5h0.5c0.9,0.1,1.7,0.4,2.3,1.1c0.6,0.6,0.9,1.5,0.9,2.3
	c0,0.9-0.3,1.7-0.9,2.3c-0.6,0.6-1.4,1-2.2,1.1v1.2c1.1-0.1,2.2-0.6,3-1.4s1.3-1.9,1.3-3c0.1-1.1-0.3-2.3-1-3.2
	C544.3,453.1,543.3,452.5,542.1,452.3z"/>
<path d="M575.1,460h1.8v-9.8h-1.8v4H571v-4h-1.8v9.8h1.8v-4.1h4.1V460z M582.2,460.2c2.1,0,3.4-1.5,3.4-3.8s-1.3-3.8-3.4-3.8
	c-2.1,0-3.4,1.5-3.4,3.8S580.1,460.2,582.2,460.2z M582.2,458.7c-0.9,0-1.5-0.6-1.5-1.7v-1.4c0-1.1,0.6-1.7,1.5-1.7s1.5,0.6,1.5,1.7
	v1.4C583.7,458.1,583.1,458.7,582.2,458.7z M589.7,460.2c1.8,0,3-1,3-2.4c0-1.2-0.8-1.9-2.4-2.2l-0.7-0.1c-0.7-0.1-1-0.3-1-0.8
	c0-0.4,0.3-0.8,1.1-0.8c0.7,0,1.3,0.3,1.8,0.8l1-1c-0.7-0.7-1.4-1.1-2.9-1.1c-1.7,0-2.8,0.9-2.8,2.3c0,1.3,0.9,2,2.4,2.2l0.7,0.1
	c0.6,0.1,0.9,0.3,0.9,0.8s-0.4,0.8-1.2,0.8s-1.5-0.4-2-1l-1.1,1.1C587.4,459.7,588.3,460.2,589.7,460.2z M596.6,460h1.3v-1.4h-1.4
	v-4.5h1.5v-1.4h-1.5v-2h-1.6v1.2c0,0.5-0.2,0.8-0.7,0.8h-0.6v1.4h1.1v4C594.7,459.3,595.4,460,596.6,460z"/>
<rect x="632" y="432" class="st4" width="48" height="48"/>
<path class="st2" d="M659.1,456h-6.2c-0.3,0-0.6,0.1-0.9,0.4c-0.2,0.2-0.4,0.6-0.4,0.9v3.8c0,0.3,0.1,0.6,0.4,0.9
	c0.2,0.2,0.6,0.4,0.9,0.4h2.5v1.2h-1.9v1.2h5v-1.2h-1.9v-1.2h2.5c0.3,0,0.6-0.1,0.9-0.4c0.2-0.2,0.4-0.6,0.4-0.9v-3.8
	c0-0.3-0.1-0.6-0.4-0.9C659.8,456.1,659.5,456,659.1,456z M652.9,461v-3.8h6.2v3.8H652.9z"/>
<path class="st2" d="M662.1,452.3c-0.3-1.4-1-2.7-2.2-3.6c-1.1-0.9-2.5-1.4-4-1.4s-2.9,0.5-4,1.4s-1.9,2.2-2.2,3.6
	c-1.1,0.2-2.1,0.8-2.9,1.7c-0.7,0.9-1.1,2-1,3.2c0.1,1.1,0.5,2.2,1.3,3s1.9,1.3,3,1.4v-1.2c-0.9-0.1-1.7-0.5-2.2-1.1
	c-0.6-0.6-0.9-1.5-0.9-2.3c0-0.9,0.3-1.7,0.9-2.3c0.6-0.6,1.4-1,2.3-1.1h0.5l0.1-0.5c0.1-1.2,0.7-2.4,1.6-3.2
	c0.9-0.8,2.1-1.3,3.3-1.3s2.4,0.5,3.3,1.3c0.9,0.8,1.5,2,1.6,3.2l0.1,0.5h0.5c0.9,0.1,1.7,0.4,2.3,1.1c0.6,0.6,0.9,1.5,0.9,2.3
	c0,0.9-0.3,1.7-0.9,2.3c-0.6,0.6-1.4,1-2.2,1.1v1.2c1.1-0.1,2.2-0.6,3-1.4s1.3-1.9,1.3-3c0.1-1.1-0.3-2.3-1-3.2
	C664.3,453.1,663.3,452.5,662.1,452.3z"/>
<path d="M695.1,460h1.8v-9.8h-1.8v4H691v-4h-1.8v9.8h1.8v-4.1h4.1V460z M702.2,460.2c2.1,0,3.4-1.5,3.4-3.8s-1.3-3.8-3.4-3.8
	c-2.1,0-3.4,1.5-3.4,3.8S700.1,460.2,702.2,460.2z M702.2,458.7c-0.9,0-1.5-0.6-1.5-1.7v-1.4c0-1.1,0.6-1.7,1.5-1.7s1.5,0.6,1.5,1.7
	v1.4C703.7,458.1,703.1,458.7,702.2,458.7z M709.7,460.2c1.8,0,3-1,3-2.4c0-1.2-0.8-1.9-2.4-2.2l-0.7-0.1c-0.7-0.1-1-0.3-1-0.8
	c0-0.4,0.3-0.8,1.1-0.8c0.7,0,1.3,0.3,1.8,0.8l1-1c-0.7-0.7-1.4-1.1-2.9-1.1c-1.7,0-2.8,0.9-2.8,2.3c0,1.3,0.9,2,2.4,2.2l0.7,0.1
	c0.6,0.1,0.9,0.3,0.9,0.8s-0.4,0.8-1.2,0.8s-1.5-0.4-2-1l-1.1,1.1C707.4,459.7,708.3,460.2,709.7,460.2z M716.6,460h1.3v-1.4h-1.4
	v-4.5h1.5v-1.4h-1.5v-2h-1.6v1.2c0,0.5-0.2,0.8-0.7,0.8h-0.6v1.4h1.1v4C714.7,459.3,715.4,460,716.6,460z"/>
<rect x="752" y="432" class="st4" width="48" height="48"/>
<path class="st2" d="M779.1,456h-6.2c-0.3,0-0.6,0.1-0.9,0.4c-0.2,0.2-0.4,0.6-0.4,0.9v3.8c0,0.3,0.1,0.6,0.4,0.9
	c0.2,0.2,0.6,0.4,0.9,0.4h2.5v1.2h-1.9v1.2h5v-1.2h-1.9v-1.2h2.5c0.3,0,0.6-0.1,0.9-0.4c0.2-0.2,0.4-0.6,0.4-0.9v-3.8
	c0-0.3-0.1-0.6-0.4-0.9C779.8,456.1,779.5,456,779.1,456z M772.9,461v-3.8h6.2v3.8H772.9z"/>
<path class="st2" d="M782.1,452.3c-0.3-1.4-1-2.7-2.2-3.6c-1.1-0.9-2.5-1.4-4-1.4s-2.9,0.5-4,1.4s-1.9,2.2-2.2,3.6
	c-1.1,0.2-2.1,0.8-2.9,1.7c-0.7,0.9-1.1,2-1,3.2c0.1,1.1,0.5,2.2,1.3,3s1.9,1.3,3,1.4v-1.2c-0.9-0.1-1.7-0.5-2.2-1.1
	c-0.6-0.6-0.9-1.5-0.9-2.3c0-0.9,0.3-1.7,0.9-2.3c0.6-0.6,1.4-1,2.3-1.1h0.5l0.1-0.5c0.1-1.2,0.7-2.4,1.6-3.2
	c0.9-0.8,2.1-1.3,3.3-1.3s2.4,0.5,3.3,1.3c0.9,0.8,1.5,2,1.6,3.2l0.1,0.5h0.5c0.9,0.1,1.7,0.4,2.3,1.1c0.6,0.6,0.9,1.5,0.9,2.3
	c0,0.9-0.3,1.7-0.9,2.3c-0.6,0.6-1.4,1-2.2,1.1v1.2c1.1-0.1,2.2-0.6,3-1.4s1.3-1.9,1.3-3c0.1-1.1-0.3-2.3-1-3.2
	C784.3,453.1,783.3,452.5,782.1,452.3z"/>
<path d="M815.1,460h1.8v-9.8h-1.8v4H811v-4h-1.8v9.8h1.8v-4.1h4.1V460z M822.2,460.2c2.1,0,3.4-1.5,3.4-3.8s-1.3-3.8-3.4-3.8
	c-2.1,0-3.4,1.5-3.4,3.8S820.1,460.2,822.2,460.2z M822.2,458.7c-0.9,0-1.5-0.6-1.5-1.7v-1.4c0-1.1,0.6-1.7,1.5-1.7s1.5,0.6,1.5,1.7
	v1.4C823.7,458.1,823.1,458.7,822.2,458.7z M829.7,460.2c1.8,0,3-1,3-2.4c0-1.2-0.8-1.9-2.4-2.2l-0.7-0.1c-0.7-0.1-1-0.3-1-0.8
	c0-0.4,0.3-0.8,1.1-0.8c0.7,0,1.3,0.3,1.8,0.8l1-1c-0.7-0.7-1.4-1.1-2.9-1.1c-1.7,0-2.8,0.9-2.8,2.3c0,1.3,0.9,2,2.4,2.2l0.7,0.1
	c0.6,0.1,0.9,0.3,0.9,0.8s-0.4,0.8-1.2,0.8s-1.5-0.4-2-1l-1.1,1.1C827.4,459.7,828.3,460.2,829.7,460.2z M836.6,460h1.3v-1.4h-1.4
	v-4.5h1.5v-1.4h-1.5v-2h-1.6v1.2c0,0.5-0.2,0.8-0.7,0.8h-0.6v1.4h1.1v4C834.7,459.3,835.4,460,836.6,460z"/>
<path class="st11" d="M296,528l2.9-5h-5.8L296,528z M296,480l-2.9,5h5.8L296,480z M296.5,523.5v-39h-1v39H296.5z"/>
<path class="st11" d="M296,624l2.9-5h-5.8L296,624z M296,576l-2.9,5h5.8L296,576z M296.5,619.5v-39h-1v39H296.5z"/>
<path class="st11" d="M296,432l2.9-5h-5.8L296,432z M296,384l-2.9,5h5.8L296,384z M296.5,427.5v-39h-1v39H296.5z"/>
<path class="st12" d="M200,52.5h35.5c4.4,0,8,3.6,8,8V96"/>
<path class="st12" d="M204,48.5h35.5c4.4,0,8,3.6,8,8V92"/>
<path class="st7" d="M200,56.5h32c4.1,0,7.5,3.4,7.5,7.5v32c0,4.1-3.4,7.5-7.5,7.5h-32c-4.1,0-7.5-3.4-7.5-7.5V64
	C192.5,59.9,195.9,56.5,200,56.5z"/>
<path d="M211.6,83.8c0.7,0,1.2-0.6,1.2-1.2s-0.6-1.2-1.2-1.2s-1.2,0.6-1.2,1.2S210.9,83.8,211.6,83.8z"/>
<path d="M216,82.5c-1.4,0-2.5-1.1-2.5-2.5s1.1-2.5,2.5-2.5s2.5,1.1,2.5,2.5S217.4,82.5,216,82.5z M216,78.8c-0.7,0-1.2,0.6-1.2,1.2
	s0.6,1.2,1.2,1.2s1.2-0.6,1.2-1.2S216.7,78.8,216,78.8z"/>
<path d="M220.4,78.8c0.7,0,1.2-0.6,1.2-1.2s-0.6-1.2-1.2-1.2s-1.2,0.6-1.2,1.2S219.7,78.8,220.4,78.8z"/>
<path d="M216,89.4c-0.1,0-0.2,0-0.3-0.1l-7.5-4.4c-0.2-0.1-0.3-0.3-0.3-0.5v-8.8c0-0.2,0.1-0.4,0.3-0.5l7.5-4.4
	c0.2-0.1,0.4-0.1,0.6,0l7.5,4.4l-0.6,1.1L216,72l-6.9,4v8l6.9,4l6.9-4v-4.6h1.2v5c0,0.2-0.1,0.4-0.3,0.5l-7.5,4.4
	C216.2,89.3,216.1,89.4,216,89.4L216,89.4z"/>
<path class="st12" d="M200,56.5h32c4.1,0,7.5,3.4,7.5,7.5v32c0,4.1-3.4,7.5-7.5,7.5h-32c-4.1,0-7.5-3.4-7.5-7.5V64
	C192.5,59.9,195.9,56.5,200,56.5z"/>
<path d="M216.8,116.2H211l-0.4,5.5l1.5,0.2c0.3-0.4,0.8-0.7,1.6-0.7c1,0,1.6,0.6,1.6,1.6v0.1c0,1.1-0.6,1.7-1.7,1.7
	c-1.1,0-1.6-0.6-2-1.3l-1.3,1c0.6,1,1.6,1.8,3.4,1.8c2.3,0,3.6-1.4,3.6-3.4c0-1.9-1.3-3.1-3-3.1c-1.2,0-1.7,0.6-2.1,1.4h-0.1
	l0.2-3.3h4.4v-1.5H216.8z M220.3,126.2c0.8,0,1.1-0.4,1.1-1v-0.3c0-0.6-0.3-1-1.1-1s-1.1,0.4-1.1,1v0.3
	C219.2,125.7,219.5,126.2,220.3,126.2z"/>
<path d="M186,144v-1h-4.2v-8.7h-1.2v9.8h5.4V144z M190.3,144.2c1.9,0,3.3-1.5,3.3-3.8s-1.3-3.8-3.3-3.8c-1.9,0-3.3,1.5-3.3,3.8
	S188.4,144.2,190.3,144.2z M190.3,143.2c-1.2,0-2.1-0.7-2.1-2.3v-1c0-1.5,0.9-2.3,2.1-2.3c1.2,0,2.1,0.7,2.1,2.3v1
	C192.4,142.4,191.5,143.2,190.3,143.2z M198.3,144.2c1.4,0,2.3-0.7,2.8-1.7l-0.8-0.5c-0.4,0.8-1.1,1.3-2,1.3c-1.3,0-2-0.9-2-2.2
	v-1.2c0-1.3,0.7-2.2,2-2.2c0.9,0,1.5,0.4,1.8,1.2l0.9-0.5c-0.4-1-1.3-1.7-2.7-1.7c-2,0-3.2,1.5-3.2,3.8S196.2,144.2,198.3,144.2z
	 M208.7,144v-1h-0.8v-4c0-1.5-1-2.4-2.8-2.4c-1.3,0-2.2,0.6-2.6,1.4l0.7,0.6c0.4-0.7,1-1.1,1.8-1.1c1.1,0,1.7,0.6,1.7,1.6v0.7h-1.4
	c-2.1,0-3.1,0.8-3.1,2.1s0.9,2.2,2.4,2.2c1,0,1.8-0.5,2.1-1.3h0.1c0.1,0.7,0.4,1.2,1.2,1.2H208.7z M204.8,143.2
	c-0.9,0-1.4-0.4-1.4-1.1v-0.3c0-0.7,0.6-1.1,1.8-1.1h1.5v1.2C206.7,142.6,205.9,143.2,204.8,143.2z M213.4,144v-1H212v-5.3h1.6v-1
	H212v-2h-1v1.3c0,0.5-0.2,0.7-0.6,0.7h-0.7v1h1.2v5.1c0,0.7,0.4,1.2,1.2,1.2H213.4z M216.1,135.1c0.5,0,0.7-0.3,0.7-0.6v-0.2
	c0-0.4-0.2-0.6-0.7-0.6s-0.7,0.3-0.7,0.6v0.2C215.4,134.8,215.6,135.1,216.1,135.1z M215.5,144h1.1v-7.2h-1.1V144z M221.9,144.2
	c1.9,0,3.3-1.5,3.3-3.8s-1.3-3.8-3.3-3.8c-1.9,0-3.3,1.5-3.3,3.8S220,144.2,221.9,144.2z M221.9,143.2c-1.2,0-2.1-0.7-2.1-2.3v-1
	c0-1.5,0.9-2.3,2.1-2.3c1.2,0,2.1,0.7,2.1,2.3v1C223.9,142.4,223.1,143.2,221.9,143.2z M228.3,144v-5c0-0.9,0.9-1.4,1.8-1.4
	c1.1,0,1.6,0.7,1.6,1.9v4.4h1.1v-4.6c0-1.8-0.9-2.8-2.4-2.8c-1.1,0-1.7,0.5-2,1.3h-0.1v-1.2h-1.1v7.2h1.1V144z M239.3,135.1
	c0.5,0,0.7-0.3,0.7-0.6v-0.2c0-0.4-0.2-0.6-0.7-0.6s-0.7,0.3-0.7,0.6v0.2C238.6,134.8,238.8,135.1,239.3,135.1z M238.7,144h1.1v-7.2
	h-1.1V144z M243.5,144v-5c0-0.9,0.9-1.4,1.8-1.4c1.1,0,1.6,0.7,1.6,1.9v4.4h1.1v-4.6c0-1.8-0.9-2.8-2.4-2.8c-1.1,0-1.7,0.5-2,1.3
	h-0.1v-1.2h-1.1v7.2h1.1V144z M177.7,162v-5c0-0.9,0.9-1.4,1.8-1.4c1.1,0,1.6,0.7,1.6,1.9v4.4h1.1v-4.6c0-1.8-0.9-2.8-2.4-2.8
	c-1.1,0-1.7,0.5-2,1.3h-0.1v-1.2h-1.1v7.2h1.1V162z M187.5,162.2c1.9,0,3.3-1.5,3.3-3.8s-1.3-3.8-3.3-3.8c-1.9,0-3.3,1.5-3.3,3.8
	S185.5,162.2,187.5,162.2z M187.5,161.2c-1.2,0-2.1-0.7-2.1-2.3v-1c0-1.5,0.9-2.3,2.1-2.3c1.2,0,2.1,0.7,2.1,2.3v1
	C189.5,160.4,188.7,161.2,187.5,161.2z M193.8,162v-4.9c0-0.7,0.7-1.2,1.9-1.2h0.7v-1.1H196c-1.2,0-1.8,0.6-2.1,1.3h-0.1v-1.3h-1.1
	v7.2H193.8z M199.1,162v-5c0-0.9,0.8-1.4,1.7-1.4c1.1,0,1.6,0.7,1.6,1.9v4.4h1.1v-5c0-0.9,0.8-1.4,1.7-1.4c1.1,0,1.6,0.7,1.6,1.9
	v4.4h1.1v-4.6c0-1.8-0.9-2.8-2.4-2.8c-1.2,0-1.9,0.7-2.2,1.5l0,0c-0.4-1-1.3-1.5-2.2-1.5c-1.1,0-1.6,0.6-1.9,1.3h-0.1v-1.2H198v7.2
	h1.1V162z M216.3,162v-1h-0.8v-4c0-1.5-1-2.4-2.8-2.4c-1.3,0-2.2,0.6-2.6,1.4l0.7,0.6c0.4-0.7,1-1.1,1.8-1.1c1.1,0,1.7,0.6,1.7,1.6
	v0.7h-1.4c-2.1,0-3.1,0.8-3.1,2.1s0.9,2.2,2.4,2.2c1,0,1.8-0.5,2.1-1.3h0.1c0.1,0.7,0.4,1.2,1.2,1.2H216.3z M212.4,161.2
	c-0.9,0-1.4-0.4-1.4-1.1v-0.3c0-0.7,0.6-1.1,1.8-1.1h1.5v1.2C214.3,160.6,213.5,161.2,212.4,161.2z M220.2,162v-1h-1.1v-9.4H218v9.2
	c0,0.7,0.4,1.2,1.2,1.2H220.2z M227.7,162.2c1.7,0,2.7-0.9,2.7-2.3c0-1.1-0.6-1.8-2.2-2l-0.6-0.1c-0.9-0.1-1.4-0.4-1.4-1.1
	c0-0.7,0.5-1.1,1.4-1.1s1.5,0.4,1.9,0.9l0.7-0.7c-0.6-0.7-1.4-1.2-2.5-1.2c-1.5,0-2.6,0.7-2.6,2.1c0,1.3,1,1.9,2.3,2.1l0.6,0.1
	c1,0.1,1.3,0.6,1.3,1.1c0,0.7-0.6,1.2-1.5,1.2s-1.6-0.4-2.1-1.1l-0.8,0.6C225.4,161.6,226.3,162.2,227.7,162.2z M235.4,162v-1h-1.5
	v-5.3h1.6v-1h-1.6v-2h-1v1.3c0,0.5-0.2,0.7-0.6,0.7h-0.7v1h1.2v5.1c0,0.7,0.4,1.2,1.2,1.2H235.4z M243.3,162v-1h-0.8v-4
	c0-1.5-1-2.4-2.8-2.4c-1.3,0-2.2,0.6-2.6,1.4l0.7,0.6c0.4-0.7,1-1.1,1.8-1.1c1.1,0,1.7,0.6,1.7,1.6v0.7h-1.4c-2.1,0-3.1,0.8-3.1,2.1
	s0.9,2.2,2.4,2.2c1,0,1.8-0.5,2.1-1.3h0.1c0.1,0.7,0.4,1.2,1.2,1.2H243.3z M239.5,161.2c-0.9,0-1.4-0.4-1.4-1.1v-0.3
	c0-0.7,0.6-1.1,1.8-1.1h1.5v1.2C241.4,160.6,240.6,161.2,239.5,161.2z M248.1,162v-1h-1.5v-5.3h1.6v-1h-1.6v-2h-1v1.3
	c0,0.5-0.2,0.7-0.6,0.7h-0.7v1h1.2v5.1c0,0.7,0.4,1.2,1.2,1.2H248.1z M252.8,162.2c1.4,0,2.4-0.7,2.9-1.7l-0.8-0.6
	c-0.4,0.8-1.1,1.2-2,1.2c-1.3,0-2.1-0.9-2.1-2.2v-0.3h5.2v-0.5c0-2-1.2-3.5-3.1-3.5c-2,0-3.2,1.5-3.2,3.8S250.8,162.2,252.8,162.2z
	 M252.8,155.5c1.1,0,1.9,0.9,1.9,2.1v0.2h-4v-0.1C250.7,156.5,251.6,155.5,252.8,155.5z"/>
<path class="st2" d="M976,168.5h48c6.4,0,11.5,5.1,11.5,11.5l0,0c0,6.4-5.1,11.5-11.5,11.5h-48c-6.4,0-11.5-5.1-11.5-11.5l0,0
	C964.5,173.6,969.6,168.5,976,168.5z"/>
<path class="st13" d="M978.6,176.5v-0.9h-6.3v0.9h2.7v7.5h1v-7.5H978.6z M981.8,184.1c1.7,0,2.8-1.3,2.8-3.2c0-2-1.1-3.2-2.8-3.2
	s-2.8,1.3-2.8,3.2C979,182.9,980.1,184.1,981.8,184.1z M981.8,183.3c-1,0-1.8-0.6-1.8-1.9v-0.9c0-1.3,0.7-1.9,1.8-1.9
	c1,0,1.8,0.6,1.8,1.9v0.9C983.5,182.7,982.8,183.3,981.8,183.3z M991.5,184.1c1.4,0,2.3-0.7,2.3-1.9c0-0.9-0.5-1.5-1.9-1.7l-0.5-0.1
	c-0.8-0.1-1.2-0.4-1.2-1s0.4-1,1.2-1s1.3,0.4,1.6,0.8l0.6-0.6c-0.5-0.6-1.2-1-2.2-1c-1.3,0-2.2,0.6-2.2,1.8s0.9,1.6,2,1.8l0.5,0.1
	c0.8,0.1,1.1,0.5,1.1,1c0,0.6-0.5,1-1.3,1s-1.4-0.3-1.8-0.9L989,183C989.6,183.7,990.3,184.1,991.5,184.1z M998.3,184v-0.8H997v-4.5
	h1.4v-0.8H997v-1.7h-0.9v1.2c0,0.4-0.1,0.6-0.5,0.6H995v0.8h1v4.3c0,0.6,0.4,1,1,1h1.3V184z M1002.5,184.1c1.2,0,2-0.6,2.4-1.4
	l-0.7-0.5c-0.3,0.7-0.9,1.1-1.7,1.1c-1.2,0-1.8-0.8-1.8-1.9v-0.3h4.5v-0.5c0-1.8-1-3-2.7-3s-2.8,1.3-2.8,3.2
	C999.7,182.9,1000.8,184.1,1002.5,184.1z M1002.5,178.5c1,0,1.6,0.7,1.6,1.8v0.1h-3.4v-0.1C1000.7,179.3,1001.5,178.5,1002.5,178.5z
	 M1007.1,186.4h1V183h0.1c0.4,0.8,1,1.2,1.8,1.2c1.5,0,2.5-1.3,2.5-3.2c0-2-1-3.2-2.5-3.2c-0.9,0-1.5,0.4-1.8,1.2h-0.1v-1h-1V186.4z
	 M1009.6,183.3c-0.9,0-1.6-0.5-1.6-1.3v-2.3c0-0.7,0.7-1.2,1.6-1.2c1.1,0,1.8,0.7,1.8,1.8v1.1
	C1011.4,182.5,1010.7,183.3,1009.6,183.3z M1020.1,184.1c1.7,0,2.8-1.1,2.8-2.8c0-1.6-1-2.6-2.5-2.6c-1,0-1.6,0.5-2,1.2h-0.1
	c0.5-1.9,1.5-3,3.2-4.3h-1.3c-1.3,0.9-3,2.8-3,5.3C1017.3,182.9,1018.4,184.1,1020.1,184.1z M1020.1,183.3c-1.1,0-1.8-0.6-1.8-1.8
	v-0.1c0-1.1,0.7-1.8,1.8-1.8s1.8,0.6,1.8,1.8v0.1C1021.8,182.6,1021.2,183.3,1020.1,183.3z M1025.7,184.1c0.5,0,0.7-0.3,0.7-0.7
	v-0.2c0-0.4-0.2-0.7-0.7-0.7s-0.7,0.3-0.7,0.7v0.2C1024.9,183.9,1025.1,184.1,1025.7,184.1z"/>
<path class="st14" d="M976,168.5h48c6.4,0,11.5,5.1,11.5,11.5l0,0c0,6.4-5.1,11.5-11.5,11.5h-48c-6.4,0-11.5-5.1-11.5-11.5l0,0
	C964.5,173.6,969.6,168.5,976,168.5z"/>
<path class="st2" d="M60,68.5h64c6.4,0,11.5,5.1,11.5,11.5l0,0c0,6.4-5.1,11.5-11.5,11.5H60c-6.4,0-11.5-5.1-11.5-11.5l0,0
	C48.5,73.6,53.6,68.5,60,68.5z"/>
<path class="st13" d="M58.1,84v-3.8h3.6v-0.9h-3.6v-2.8h4v-0.9h-5V84H58.1z M64.8,84v-4.2c0-0.6,0.6-1,1.7-1H67v-1h-0.4
	c-1,0-1.6,0.6-1.8,1.1h-0.1v-1.1h-1V84H64.8z M70.8,84.1c1.7,0,2.8-1.3,2.8-3.2s-1.1-3.2-2.8-3.2S68,78.9,68,80.9
	S69.2,84.1,70.8,84.1z M70.8,83.3c-1,0-1.8-0.6-1.8-1.9v-0.9c0-1.3,0.7-1.9,1.8-1.9s1.8,0.6,1.8,1.9v0.9
	C72.6,82.7,71.8,83.3,70.8,83.3z M76.5,84v-4.3c0-0.8,0.7-1.2,1.5-1.2c0.9,0,1.3,0.6,1.3,1.7V84h1v-4.3c0-0.8,0.7-1.2,1.5-1.2
	c0.9,0,1.4,0.6,1.4,1.7V84h1v-4c0-1.5-0.8-2.4-2-2.4c-1.1,0-1.7,0.6-1.9,1.3l0,0c-0.3-0.9-1.1-1.3-1.9-1.3c-1,0-1.4,0.5-1.7,1.2l0,0
	v-1h-1V84H76.5z M91.3,84.1c1.4,0,2.3-0.7,2.3-1.9c0-0.9-0.5-1.5-1.9-1.7l-0.5-0.1c-0.8-0.1-1.2-0.4-1.2-1s0.4-1,1.2-1
	s1.3,0.4,1.6,0.8l0.6-0.6c-0.5-0.6-1.2-1-2.2-1c-1.3,0-2.2,0.6-2.2,1.8c0,1.2,0.9,1.6,2,1.8l0.5,0.1c0.8,0.1,1.1,0.5,1.1,1
	c0,0.6-0.5,1-1.3,1s-1.4-0.3-1.8-0.9L88.8,83C89.4,83.7,90.2,84.1,91.3,84.1z M98.1,84v-0.8h-1.3v-4.5h1.4v-0.8h-1.4v-1.7H96v1.2
	c0,0.4-0.1,0.6-0.5,0.6h-0.6v0.8h1V83c0,0.6,0.4,1,1,1H98.1z M102.4,84.1c1.2,0,2.1-0.6,2.4-1.4l-0.7-0.5c-0.3,0.7-0.9,1.1-1.7,1.1
	c-1.2,0-1.8-0.8-1.8-1.9v-0.3h4.5v-0.5c0-1.8-1-3-2.7-3s-2.8,1.3-2.8,3.2S100.7,84.1,102.4,84.1z M102.4,78.5c1,0,1.6,0.7,1.6,1.8
	v0.1h-3.4v-0.1C100.6,79.3,101.3,78.5,102.4,78.5z M106.9,86.4h1V83l0,0c0.4,0.8,1,1.2,1.8,1.2c1.5,0,2.5-1.3,2.5-3.2
	c0-2-1-3.2-2.5-3.2c-0.9,0-1.5,0.4-1.8,1.2l0,0v-1h-1V86.4z M109.5,83.3c-0.9,0-1.6-0.5-1.6-1.3v-2.3c0-0.7,0.7-1.2,1.6-1.2
	c1.1,0,1.8,0.7,1.8,1.8v1.1C111.2,82.5,110.6,83.3,109.5,83.3z M121.8,84v-1.6h1.2v-0.8h-1.2v-5.9h-1.5l-3.5,5.8v0.9h4V84H121.8z
	 M120.8,76.4L120.8,76.4l0.1,5.1h-3.1L120.8,76.4z M125.5,84.1c0.5,0,0.7-0.3,0.7-0.7v-0.2c0-0.4-0.2-0.7-0.7-0.7s-0.7,0.3-0.7,0.7
	v0.2C124.8,83.9,125,84.1,125.5,84.1z"/>
<path class="st14" d="M60,68.5h64c6.4,0,11.5,5.1,11.5,11.5l0,0c0,6.4-5.1,11.5-11.5,11.5H60c-6.4,0-11.5-5.1-11.5-11.5l0,0
	C48.5,73.6,53.6,68.5,60,68.5z"/>
<path class="st15" d="M52,752.5h8c1.9,0,3.5,1.6,3.5,3.5v8c0,1.9-1.6,3.5-3.5,3.5h-8c-1.9,0-3.5-1.6-3.5-3.5v-8
	C48.5,754.1,50.1,752.5,52,752.5z"/>
<path class="st3" d="M52,752.5h8c1.9,0,3.5,1.6,3.5,3.5v8c0,1.9-1.6,3.5-3.5,3.5h-8c-1.9,0-3.5-1.6-3.5-3.5v-8
	C48.5,754.1,50.1,752.5,52,752.5z"/>
<path class="st16" d="M78.6,765v-1h-4.2v-8.7h-1.2v9.8L78.6,765L78.6,765z M83,765.2c1.9,0,3.3-1.5,3.3-3.8s-1.3-3.8-3.3-3.8
	s-3.3,1.5-3.3,3.8S81,765.2,83,765.2z M83,764.2c-1.2,0-2.1-0.7-2.1-2.3v-1c0-1.5,0.9-2.3,2.1-2.3s2.1,0.7,2.1,2.3v1
	C85,763.4,84.2,764.2,83,764.2z M94.3,765.8c0-1.2-0.8-1.9-2.6-1.9h-1.5c-0.7,0-1.1-0.1-1.1-0.5s0.5-0.7,1-0.8
	c0.2,0,0.5,0.1,0.7,0.1c1.7,0,2.7-1,2.7-2.5c0-0.8-0.3-1.4-0.8-1.9v-0.5H94v-1h-1c-0.6,0-0.8,0.4-0.8,1v0.1
	c-0.4-0.2-0.9-0.3-1.4-0.3c-1.6,0-2.7,1-2.7,2.5c0,1,0.5,1.8,1.4,2.2v0.1c-0.7,0.2-1.2,0.5-1.2,1.3c0,0.5,0.2,0.8,0.6,1v0.2
	c-0.7,0.2-1.1,0.6-1.1,1.4c0,1.1,0.9,1.8,3.2,1.8C93.1,768,94.3,767.3,94.3,765.8z M93.3,765.9c0,0.8-0.7,1.2-2,1.2h-1
	c-1.1,0-1.6-0.5-1.6-1.1c0-0.4,0.2-0.8,0.7-1h2.4C92.9,764.9,93.3,765.3,93.3,765.9z M90.8,761.7c-1,0-1.6-0.4-1.6-1.4v-0.4
	c0-1,0.6-1.4,1.6-1.4s1.6,0.4,1.6,1.4v0.4C92.3,761.2,91.7,761.7,90.8,761.7z M96.3,756.1c0.5,0,0.7-0.3,0.7-0.6v-0.2
	c0-0.4-0.2-0.6-0.7-0.6s-0.7,0.3-0.7,0.6v0.2C95.7,755.8,95.9,756.1,96.3,756.1z M95.8,765h1.1v-7.2h-1.1V765z M102.1,765.2
	c1.4,0,2.3-0.7,2.8-1.7l-0.8-0.5c-0.4,0.8-1,1.3-2,1.3c-1.3,0-2-0.9-2-2.2v-1.2c0-1.3,0.7-2.2,2-2.2c0.9,0,1.5,0.4,1.8,1.2l0.9-0.5
	c-0.4-1-1.3-1.7-2.7-1.7c-2,0-3.2,1.5-3.2,3.8S100.1,765.2,102.1,765.2z M112.5,765v-1h-0.8v-4c0-1.5-1-2.4-2.8-2.4
	c-1.3,0-2.2,0.6-2.6,1.4l0.7,0.6c0.4-0.7,1-1.1,1.8-1.1c1.1,0,1.7,0.6,1.7,1.6v0.7h-1.4c-2.1,0-3.1,0.8-3.1,2.1s0.9,2.2,2.4,2.2
	c1,0,1.8-0.5,2.1-1.3h0.1c0.1,0.7,0.4,1.2,1.2,1.2H112.5z M108.7,764.2c-0.9,0-1.4-0.4-1.4-1.1v-0.3c0-0.7,0.6-1.1,1.8-1.1h1.5v1.2
	C110.6,763.6,109.8,764.2,108.7,764.2z M116.5,765v-1h-1.1v-9.4h-1.1v9.2c0,0.7,0.4,1.2,1.2,1.2H116.5z M122.8,765v-5
	c0-0.9,0.9-1.4,1.8-1.4c1.1,0,1.6,0.7,1.6,1.9v4.4h1.1v-4.6c0-1.8-0.9-2.8-2.4-2.8c-1.1,0-1.7,0.5-2,1.3h-0.1v-1.2h-1.1v7.2h1.1V765
	z M132.6,765.2c1.9,0,3.3-1.5,3.3-3.8s-1.3-3.8-3.3-3.8c-1.9,0-3.3,1.5-3.3,3.8S130.6,765.2,132.6,765.2z M132.6,764.2
	c-1.2,0-2.1-0.7-2.1-2.3v-1c0-1.5,0.9-2.3,2.1-2.3s2.1,0.7,2.1,2.3v1C134.6,763.4,133.8,764.2,132.6,764.2z M142.5,765h1.1v-10.4
	h-1.1v4.3h-0.1c-0.4-0.9-1.1-1.3-2.1-1.3c-1.8,0-2.9,1.5-2.9,3.8s1.1,3.8,2.9,3.8c1,0,1.7-0.4,2.1-1.3h0.1V765z M140.6,764.2
	c-1.3,0-2-0.9-2-2.2v-1.2c0-1.3,0.8-2.2,2-2.2c1,0,1.9,0.6,1.9,1.4v2.7C142.5,763.6,141.6,764.2,140.6,764.2z M148.8,765.2
	c1.4,0,2.4-0.7,2.9-1.7l-0.8-0.6c-0.4,0.8-1.1,1.2-2,1.2c-1.3,0-2.1-0.9-2.1-2.2v-0.3h5.2v-0.5c0-2-1.2-3.5-3.1-3.5
	c-2,0-3.2,1.5-3.2,3.8S146.9,765.2,148.8,765.2z M148.8,758.5c1.1,0,1.9,0.9,1.9,2.1v0.2h-4v-0.1
	C146.8,759.5,147.6,758.5,148.8,758.5z"/>
<rect x="169.5" y="752.5" class="st0" width="15" height="15"/>
<rect x="169.5" y="752.5" class="st3" width="15" height="15"/>
<path class="st16" d="M195.5,765v-4.2h2.7c1.8,0,2.7-1.1,2.7-2.8s-1-2.8-2.7-2.8h-3.9v9.8H195.5z M195.5,756.3h2.7
	c0.9,0,1.5,0.5,1.5,1.4v0.7c0,0.9-0.5,1.4-1.5,1.4h-2.7V756.3z M203.8,765v-4.9c0-0.7,0.7-1.2,1.9-1.2h0.7v-1.1H206
	c-1.2,0-1.8,0.6-2.1,1.3h-0.1v-1.3h-1.1v7.2H203.8z M210.7,765.2c1.4,0,2.4-0.7,2.9-1.7l-0.8-0.6c-0.4,0.8-1.1,1.2-2,1.2
	c-1.3,0-2.1-0.9-2.1-2.2v-0.3h5.2v-0.5c0-2-1.2-3.5-3.1-3.5c-2,0-3.2,1.5-3.2,3.8S208.7,765.2,210.7,765.2z M210.7,758.5
	c1.1,0,1.9,0.9,1.9,2.1v0.2h-4v-0.1C208.6,759.5,209.4,758.5,210.7,758.5z M217.9,765.2c1.7,0,2.7-0.9,2.7-2.3c0-1.1-0.6-1.8-2.2-2
	l-0.6-0.1c-0.9-0.1-1.4-0.4-1.4-1.1c0-0.7,0.5-1.1,1.4-1.1s1.5,0.4,1.9,0.9l0.7-0.7c-0.6-0.7-1.4-1.2-2.5-1.2
	c-1.5,0-2.6,0.7-2.6,2.1c0,1.3,1,1.9,2.3,2.1l0.6,0.1c1,0.1,1.3,0.6,1.3,1.1c0,0.7-0.6,1.2-1.5,1.2s-1.6-0.4-2.1-1.1l-0.8,0.6
	C215.7,764.6,216.6,765.2,217.9,765.2z M225.4,765.2c1.4,0,2.3-0.7,2.8-1.7l-0.8-0.5c-0.4,0.8-1.1,1.3-2,1.3c-1.3,0-2-0.9-2-2.2
	v-1.2c0-1.3,0.7-2.2,2-2.2c0.9,0,1.5,0.4,1.8,1.2l0.9-0.5c-0.4-1-1.3-1.7-2.7-1.7c-2,0-3.2,1.5-3.2,3.8S223.4,765.2,225.4,765.2z
	 M231.1,765v-4.9c0-0.7,0.7-1.2,1.9-1.2h0.7v-1.1h-0.4c-1.2,0-1.8,0.6-2.1,1.3h-0.1v-1.3H230v7.2H231.1z M235.8,756.1
	c0.5,0,0.7-0.3,0.7-0.6v-0.2c0-0.4-0.2-0.6-0.7-0.6s-0.7,0.3-0.7,0.6v0.2C235.1,755.8,235.3,756.1,235.8,756.1z M235.3,765h1.1v-7.2
	h-1.1V765z M238.9,765h1.1v-1.2h0.1c0.4,0.9,1.1,1.3,2.1,1.3c1.8,0,2.9-1.5,2.9-3.8s-1.1-3.8-2.9-3.8c-1,0-1.7,0.4-2.1,1.3H240v-4.3
	h-1.1V765z M241.9,764.2c-1,0-1.9-0.5-1.9-1.5V760c0-0.8,0.8-1.4,1.9-1.4c1.3,0,2,0.9,2,2.2v1.2
	C243.9,763.3,243.2,764.2,241.9,764.2z M249.9,765.2c1.4,0,2.4-0.7,2.9-1.7l-0.8-0.6c-0.4,0.8-1.1,1.2-2,1.2c-1.3,0-2.1-0.9-2.1-2.2
	v-0.3h5.2v-0.5c0-2-1.2-3.5-3.1-3.5c-2,0-3.2,1.5-3.2,3.8S248,765.2,249.9,765.2z M249.9,758.5c1.1,0,1.9,0.9,1.9,2.1v0.2h-4v-0.1
	C247.8,759.5,248.7,758.5,249.9,758.5z M259.7,765h1.1v-10.4h-1.1v4.3h-0.1c-0.4-0.9-1.1-1.3-2.1-1.3c-1.8,0-2.9,1.5-2.9,3.8
	s1.1,3.8,2.9,3.8c1,0,1.7-0.4,2.1-1.3h0.1V765z M257.8,764.2c-1.3,0-2-0.9-2-2.2v-1.2c0-1.3,0.8-2.2,2-2.2c1,0,1.9,0.6,1.9,1.4v2.7
	C259.7,763.6,258.8,764.2,257.8,764.2z M267.9,765v-5c0-0.9,0.9-1.4,1.8-1.4c1.1,0,1.6,0.7,1.6,1.9v4.4h1.1v-4.6
	c0-1.8-0.9-2.8-2.4-2.8c-1.1,0-1.7,0.5-2,1.3h-0.1v-1.2h-1.1v7.2h1.1V765z M277.6,765.2c1.9,0,3.3-1.5,3.3-3.8s-1.3-3.8-3.3-3.8
	c-1.9,0-3.3,1.5-3.3,3.8S275.7,765.2,277.6,765.2z M277.6,764.2c-1.2,0-2.1-0.7-2.1-2.3v-1c0-1.5,0.9-2.3,2.1-2.3s2.1,0.7,2.1,2.3v1
	C279.7,763.4,278.8,764.2,277.6,764.2z M287.5,765h1.1v-10.4h-1.1v4.3h-0.1c-0.4-0.9-1.1-1.3-2.1-1.3c-1.8,0-2.9,1.5-2.9,3.8
	s1.1,3.8,2.9,3.8c1,0,1.7-0.4,2.1-1.3h0.1V765z M285.7,764.2c-1.3,0-2-0.9-2-2.2v-1.2c0-1.3,0.8-2.2,2-2.2c1,0,1.9,0.6,1.9,1.4v2.7
	C287.5,763.6,286.7,764.2,285.7,764.2z M293.9,765.2c1.4,0,2.4-0.7,2.9-1.7l-0.8-0.6c-0.4,0.8-1.1,1.2-2,1.2c-1.3,0-2.1-0.9-2.1-2.2
	v-0.3h5.2v-0.5c0-2-1.2-3.5-3.1-3.5c-2,0-3.2,1.5-3.2,3.8S291.9,765.2,293.9,765.2z M293.9,758.5c1.1,0,1.9,0.9,1.9,2.1v0.2h-4v-0.1
	C291.8,759.5,292.7,758.5,293.9,758.5z"/>
</svg>
