<?xml version="1.0" encoding="utf-8"?>
<!-- Generator: Adobe Illustrator 26.5.0, SVG Export Plug-In . SVG Version: 6.00 Build 0)  -->
<svg version="1.1" id="Layer_1" xmlns="http://www.w3.org/2000/svg" xmlns:xlink="http://www.w3.org/1999/xlink" x="0px" y="0px"
	 viewBox="0 0 1080 810" style="enable-background:new 0 0 1080 810;" xml:space="preserve">
<style type="text/css">
	.st0{fill:#F4F4F4;}
	.st1{fill:#565151;}
	.st2{fill:#FFFFFF;}
	.st3{fill:none;stroke:#8D8D8D;}
	.st4{fill:#8D8D8D;}
	.st5{fill:#FFFFFF;filter:url(#Adobe_OpacityMaskFilter);}
	.st6{mask:url(#path-3-inside-1_2755_22644_00000085241131686471294840000005771249029330173851_);fill:#8D8D8D;}
	.st7{fill:#F4F4F4;stroke:#8D8D8D;}
	.st8{fill:#9F1853;}
	.st9{fill:none;stroke:#9F1853;}
	.st10{clip-path:url(#SVGID_00000044179832894142433860000006441243635714364072_);}
	.st11{fill:#EE5396;}
	.st12{fill:none;stroke:#EE5396;stroke-dasharray:4,4;}
	.st13{fill:#EE5396;stroke:#EE5396;}
	.st14{clip-path:url(#SVGID_00000101786388560386435100000016448448012428873392_);}
	.st15{clip-path:url(#SVGID_00000174582726176178844700000016031359318050456964_);}
	.st16{fill:#FFFFFF;stroke:#EE5396;stroke-dasharray:4,4;}
	.st17{fill:none;stroke:#FFFFFF;}
	.st18{fill:#525252;}
	.st19{fill:none;stroke:#EE5396;}
	.st20{fill:#161616;}
	.st21{fill:none;stroke:#000000;}
	.st22{fill:none;stroke:#8D8D8D;stroke-miterlimit:10;}
	.st23{fill:#6F6F6F;}
	.st24{fill:none;stroke:#8D8D8D;stroke-dasharray:4,4;}
	.st25{fill:none;}
</style>
<rect class="st0" width="1080" height="810"/>
<path class="st1" d="M192,80l-5-2.9v2.4h-52v1h52v2.4L192,80z"/>
<path class="st1" d="M216.5,224v-56h-1v56H216.5z"/>
<rect x="144.5" y="208.5" class="st2" width="775" height="511"/>
<rect x="144.5" y="208.5" class="st3" width="775" height="511"/>
<path class="st4" d="M148,208h-4v48h4V208z"/>
<path d="M165.2,237v-1.5h-1.3v-6.8h1.3v-1.5h-4.4v1.5h1.3v6.8h-1.3v1.5H165.2z M168.9,237v-4.8c0-0.8,0.7-1.2,1.5-1.2
	c0.9,0,1.2,0.5,1.2,1.6v4.4h1.8v-4.6c0-1.8-0.8-2.9-2.3-2.9c-1.1,0-1.8,0.6-2,1.4h-0.1v-1.2h-1.8v7.3H168.9z M175.9,237h1.8v-5.9
	h1.5v-1.4h-1.5v-1.6h1.5v-1.4h-1.3c-1.3,0-2,0.7-2,2v1.1h-1.1v1.4h1.1V237z M182.4,237v-4.5c0-0.8,0.6-1.1,1.8-1.1h0.6v-1.7h-0.4
	c-1.2,0-1.8,0.7-1.9,1.5h-0.1v-1.5h-1.8v7.3H182.4z M187.9,237.2c1.1,0,1.9-0.5,2.1-1.4h0.1c0.1,0.8,0.6,1.3,1.4,1.3h1v-1.4h-0.7
	v-3.4c0-1.7-1.1-2.6-3-2.6c-1.5,0-2.3,0.6-2.9,1.4l1.1,1c0.3-0.5,0.8-0.9,1.7-0.9c1,0,1.4,0.5,1.4,1.3v0.5h-1.2
	c-2,0-3.1,0.7-3.1,2.2C185.5,236.3,186.4,237.2,187.9,237.2z M188.5,235.9c-0.7,0-1.1-0.3-1.1-0.9v-0.2c0-0.6,0.5-0.9,1.4-0.9h1.1v1
	C189.9,235.5,189.3,235.9,188.5,235.9z M196.4,237.2c1.8,0,3-1,3-2.4c0-1.2-0.8-1.9-2.4-2.2l-0.7-0.1c-0.7-0.1-1-0.3-1-0.8
	c0-0.4,0.3-0.8,1.1-0.8c0.7,0,1.3,0.3,1.8,0.8l1.1-1.1c-0.7-0.7-1.4-1.1-2.9-1.1c-1.7,0-2.8,0.9-2.8,2.3c0,1.3,0.9,2,2.4,2.2
	l0.7,0.1c0.6,0.1,0.9,0.4,0.9,0.8c0,0.5-0.4,0.8-1.2,0.8c-0.8,0-1.5-0.4-2-1l-1.1,1.1C194.1,236.7,195.1,237.2,196.4,237.2z
	 M203.4,237h1.3v-1.4h-1.4v-4.5h1.5v-1.4h-1.5v-2h-1.6v1.2c0,0.5-0.2,0.8-0.7,0.8h-0.6v1.4h1.1v4C201.5,236.3,202.1,237,203.4,237z
	 M208.3,237v-4.5c0-0.8,0.6-1.1,1.8-1.1h0.6v-1.7h-0.4c-1.2,0-1.8,0.7-1.9,1.5h-0.1v-1.5h-1.8v7.3H208.3z M216.5,237h1.8v-7.3h-1.8
	v4.8c0,0.8-0.7,1.2-1.4,1.2c-0.9,0-1.2-0.5-1.2-1.6v-4.4h-1.8v4.6c0,1.8,0.8,2.9,2.3,2.9c1.2,0,1.8-0.7,2-1.4h0.1V237z M223.4,237.2
	c1.4,0,2.4-0.6,2.9-1.9l-1.4-0.7c-0.3,0.7-0.7,1.1-1.5,1.1c-1,0-1.5-0.7-1.5-1.7v-1.3c0-1,0.5-1.7,1.5-1.7c0.8,0,1.2,0.4,1.4,1.1
	l1.5-0.7c-0.4-1.1-1.4-1.8-2.9-1.8c-2.2,0-3.4,1.5-3.4,3.8C220,235.7,221.3,237.2,223.4,237.2z M230.1,237h1.3v-1.4H230v-4.5h1.5
	v-1.4H230v-2h-1.6v1.2c0,0.5-0.2,0.8-0.7,0.8h-0.6v1.4h1.1v4C228.3,236.3,228.9,237,230.1,237z M237.6,237h1.8v-7.3h-1.8v4.8
	c0,0.8-0.7,1.2-1.4,1.2c-0.9,0-1.2-0.5-1.2-1.6v-4.4h-1.8v4.6c0,1.8,0.8,2.9,2.3,2.9c1.2,0,1.8-0.7,2-1.4h0.1V237z M243.4,237v-4.5
	c0-0.8,0.6-1.1,1.8-1.1h0.6v-1.7h-0.4c-1.2,0-1.8,0.7-1.9,1.5h-0.1v-1.5h-1.8v7.3H243.4z M250.2,237.2c1.4,0,2.4-0.5,3-1.3l-1-1.1
	c-0.4,0.6-1,1-1.9,1c-1.2,0-1.8-0.7-1.8-1.8v-0.2h4.9v-0.6c0-2-1-3.7-3.3-3.7c-2.1,0-3.4,1.5-3.4,3.8
	C246.7,235.7,248,237.2,250.2,237.2z M250.2,230.9c0.9,0,1.4,0.7,1.4,1.7v0.1h-3v-0.1C248.6,231.6,249.2,230.9,250.2,230.9z"/>
<defs>
	<filter id="Adobe_OpacityMaskFilter" filterUnits="userSpaceOnUse" x="144" y="207" width="777" height="49">
		<feColorMatrix  type="matrix" values="1 0 0 0 0  0 1 0 0 0  0 0 1 0 0  0 0 0 1 0"/>
	</filter>
</defs>
<mask maskUnits="userSpaceOnUse" x="144" y="207" width="777" height="49" id="path-3-inside-1_2755_22644_00000085241131686471294840000005771249029330173851_">
	<path class="st5" d="M144,208h776v48H144V208z"/>
</mask>
<path class="st6" d="M920,208h1v-1h-1V208z M144,209h776v-2H144V209z M919,208v48h2v-48H919z"/>
<path class="st0" d="M160.5,272.5H896c4.1,0,7.5,3.4,7.5,7.5v416c0,4.1-3.4,7.5-7.5,7.5H168c-4.1,0-7.5-3.4-7.5-7.5V272.5z"/>
<path class="st3" d="M160.5,272.5H896c4.1,0,7.5,3.4,7.5,7.5v416c0,4.1-3.4,7.5-7.5,7.5H168c-4.1,0-7.5-3.4-7.5-7.5V272.5z"/>
<path class="st4" d="M164,272h-4v48h4V272z"/>
<path d="M182.8,301v-1.6H179v-8.1h-1.8v9.8H182.8z M187.3,301.2c2.1,0,3.4-1.5,3.4-3.8c0-2.3-1.3-3.8-3.4-3.8
	c-2.1,0-3.4,1.5-3.4,3.8C183.9,299.7,185.2,301.2,187.3,301.2z M187.3,299.7c-0.9,0-1.5-0.6-1.5-1.7v-1.4c0-1.1,0.6-1.7,1.5-1.7
	c0.9,0,1.5,0.6,1.5,1.7v1.4C188.8,299.1,188.2,299.7,187.3,299.7z M195.3,301.2c1.4,0,2.4-0.6,2.9-1.9l-1.4-0.7
	c-0.3,0.7-0.7,1.1-1.5,1.1c-1,0-1.5-0.7-1.5-1.7v-1.3c0-1,0.5-1.7,1.5-1.7c0.8,0,1.2,0.4,1.4,1.1l1.5-0.7c-0.4-1.1-1.4-1.8-2.9-1.8
	c-2.2,0-3.4,1.5-3.4,3.8C191.9,299.7,193.1,301.2,195.3,301.2z M201.6,301.2c1.1,0,1.9-0.5,2.1-1.4h0.1c0.1,0.8,0.6,1.3,1.4,1.3h1
	v-1.4h-0.7v-3.4c0-1.7-1.1-2.6-3-2.6c-1.5,0-2.3,0.6-2.9,1.4l1.1,1c0.3-0.5,0.8-0.9,1.7-0.9c1,0,1.4,0.5,1.4,1.3v0.5h-1.2
	c-2,0-3.1,0.7-3.1,2.2C199.2,300.3,200.1,301.2,201.6,301.2z M202.2,299.9c-0.7,0-1.1-0.3-1.1-0.9v-0.2c0-0.6,0.5-0.9,1.4-0.9h1.1v1
	C203.6,299.5,203,299.9,202.2,299.9z M210,301h1.3v-1.4h-1.4v-4.5h1.5v-1.4h-1.5v-2h-1.6v1.2c0,0.5-0.2,0.8-0.7,0.8H207v1.4h1.1v4
	C208.1,300.3,208.7,301,210,301z M214,292.6c0.7,0,1.1-0.4,1.1-0.9v-0.3c0-0.5-0.3-0.9-1.1-0.9c-0.7,0-1.1,0.4-1.1,0.9v0.3
	C212.9,292.2,213.2,292.6,214,292.6z M213.1,301h1.8v-7.3h-1.8V301z M220,301.2c2.1,0,3.4-1.5,3.4-3.8c0-2.3-1.3-3.8-3.4-3.8
	c-2.1,0-3.4,1.5-3.4,3.8C216.6,299.7,217.9,301.2,220,301.2z M220,299.7c-0.9,0-1.5-0.6-1.5-1.7v-1.4c0-1.1,0.6-1.7,1.5-1.7
	c0.9,0,1.5,0.6,1.5,1.7v1.4C221.5,299.1,220.9,299.7,220,299.7z M226.9,301v-4.8c0-0.8,0.7-1.2,1.5-1.2c0.9,0,1.2,0.5,1.2,1.6v4.4
	h1.8v-4.6c0-1.8-0.8-2.9-2.3-2.9c-1.1,0-1.8,0.6-2,1.4h-0.1v-1.2h-1.8v7.3H226.9z"/>
<rect x="272" y="336" class="st2" width="48" height="48"/>
<path class="st7" d="M280,336.5h32c4.1,0,7.5,3.4,7.5,7.5v32c0,4.1-3.4,7.5-7.5,7.5h-32c-4.1,0-7.5-3.4-7.5-7.5v-32
	C272.5,339.9,275.9,336.5,280,336.5z"/>
<path d="M303.5,358.8h-0.6v-7.5h-1.2v7.5H301c-0.3,0-0.6,0.1-0.9,0.4c-0.2,0.2-0.4,0.6-0.4,0.9v1.2c0,0.3,0.1,0.6,0.4,0.9
	c0.2,0.2,0.6,0.4,0.9,0.4h0.6v6.2h1.2v-6.2h0.6c0.3,0,0.6-0.1,0.9-0.4c0.2-0.2,0.4-0.6,0.4-0.9V360c0-0.3-0.1-0.6-0.4-0.9
	C304.1,358.9,303.8,358.8,303.5,358.8z M303.5,361.3H301V360h2.5V361.3z"/>
<path d="M297.2,353.8h-0.6v-2.5h-1.2v2.5h-0.6c-0.3,0-0.6,0.1-0.9,0.4c-0.2,0.2-0.4,0.6-0.4,0.9v1.2c0,0.3,0.1,0.6,0.4,0.9
	c0.2,0.2,0.6,0.4,0.9,0.4h0.6v11.2h1.2v-11.2h0.6c0.3,0,0.6-0.1,0.9-0.4c0.2-0.2,0.4-0.6,0.4-0.9V355c0-0.3-0.1-0.6-0.4-0.9
	C297.9,353.9,297.6,353.8,297.2,353.8z M297.2,356.3h-2.5V355h2.5V356.3z"/>
<path d="M291,362.5h-0.6v-11.2h-1.2v11.2h-0.6c-0.3,0-0.6,0.1-0.9,0.4c-0.2,0.2-0.4,0.6-0.4,0.9v1.2c0,0.3,0.1,0.6,0.4,0.9
	c0.2,0.2,0.6,0.4,0.9,0.4h0.6v2.5h1.2v-2.5h0.6c0.3,0,0.6-0.1,0.9-0.4c0.2-0.2,0.4-0.6,0.4-0.9v-1.2c0-0.3-0.1-0.6-0.4-0.9
	C291.6,362.6,291.3,362.5,291,362.5z M291,365h-2.5v-1.2h2.5V365z"/>
<path d="M332.9,356.2c1.8,0,2.9-0.9,3.6-2.3l-1.5-0.9c-0.3,0.9-1,1.6-2.1,1.6c-1.4,0-2.3-1-2.3-2.6v-1.5c0-1.7,0.9-2.7,2.3-2.7
	c1.1,0,1.7,0.6,2,1.5l1.6-0.8c-0.7-1.5-1.8-2.3-3.6-2.3c-2.6,0-4.2,1.8-4.2,5.1C328.7,354.5,330.4,356.2,332.9,356.2z M341.1,356.2
	c2.1,0,3.4-1.5,3.4-3.8c0-2.3-1.3-3.8-3.4-3.8c-2.1,0-3.4,1.5-3.4,3.8C337.7,354.7,339,356.2,341.1,356.2z M341.1,354.7
	c-0.9,0-1.5-0.6-1.5-1.7v-1.4c0-1.1,0.6-1.7,1.5-1.7c0.9,0,1.5,0.6,1.5,1.7v1.4C342.6,354.1,342,354.7,341.1,354.7z M348,356v-4.8
	c0-0.8,0.7-1.2,1.5-1.2c0.9,0,1.2,0.5,1.2,1.6v4.4h1.8v-4.6c0-1.8-0.8-2.9-2.3-2.9c-1.1,0-1.8,0.6-2,1.4H348v-1.2h-1.8v7.3H348z
	 M356.9,356h1.3v-1.4h-1.4v-4.5h1.5v-1.4h-1.5v-2h-1.6v1.2c0,0.5-0.2,0.8-0.7,0.8h-0.6v1.4h1.1v4C355,355.3,355.7,356,356.9,356z
	 M361.8,356v-4.5c0-0.8,0.6-1.1,1.8-1.1h0.6v-1.7h-0.4c-1.2,0-1.8,0.7-1.9,1.5h-0.1v-1.5H360v7.3H361.8z M368.5,356.2
	c2.1,0,3.4-1.5,3.4-3.8c0-2.3-1.3-3.8-3.4-3.8c-2.1,0-3.4,1.5-3.4,3.8C365.1,354.7,366.4,356.2,368.5,356.2z M368.5,354.7
	c-0.9,0-1.5-0.6-1.5-1.7v-1.4c0-1.1,0.6-1.7,1.5-1.7c0.9,0,1.5,0.6,1.5,1.7v1.4C370,354.1,369.4,354.7,368.5,354.7z M376.4,356v-1.4
	h-1v-8.9h-1.8v8.6c0,1.1,0.6,1.8,1.8,1.8H376.4z M329,376.8h1.8v-4h0.1c0.3,0.8,1,1.4,2,1.4c1.8,0,2.9-1.4,2.9-3.8
	c0-2.4-1-3.8-2.9-3.8c-1,0-1.8,0.5-2,1.4h-0.1v-1.2H329V376.8z M332.3,372.7c-0.9,0-1.5-0.4-1.5-1.2v-2.3c0-0.7,0.6-1.2,1.5-1.2
	c0.9,0,1.6,0.7,1.6,1.7v1.3C333.9,372,333.2,372.7,332.3,372.7z M340.3,374v-1.4h-1v-8.9h-1.8v8.6c0,1.1,0.6,1.8,1.8,1.8H340.3z
	 M343.7,374.2c1.1,0,1.9-0.5,2.1-1.4h0.1c0.1,0.8,0.6,1.3,1.4,1.3h1v-1.4h-0.7v-3.4c0-1.7-1-2.6-3-2.6c-1.5,0-2.3,0.6-2.9,1.4l1.1,1
	c0.4-0.5,0.8-0.9,1.7-0.9c1,0,1.4,0.5,1.4,1.3v0.5h-1.2c-2,0-3.1,0.7-3.1,2.2C341.3,373.3,342.2,374.2,343.7,374.2z M344.3,372.9
	c-0.7,0-1.1-0.3-1.1-0.9v-0.2c0-0.6,0.5-0.9,1.4-0.9h1.1v1C345.7,372.5,345.1,372.9,344.3,372.9z M351.6,374v-4.8
	c0-0.8,0.7-1.2,1.5-1.2c0.9,0,1.2,0.5,1.2,1.6v4.4h1.8v-4.6c0-1.8-0.8-2.9-2.3-2.9c-1.1,0-1.8,0.6-2,1.4h-0.1v-1.2h-1.8v7.3H351.6z
	 M361.2,374.2c1.4,0,2.4-0.5,3-1.3l-1-1.1c-0.4,0.6-1,1-1.9,1c-1.2,0-1.8-0.7-1.8-1.8v-0.2h4.9v-0.6c0-2-1.1-3.7-3.3-3.7
	c-2.1,0-3.4,1.5-3.4,3.8C357.7,372.7,359,374.2,361.2,374.2z M361.2,367.9c0.9,0,1.4,0.7,1.4,1.7v0.1h-3v-0.1
	C359.6,368.6,360.2,367.9,361.2,367.9z"/>
<path class="st8" d="M476,384l-2.9,5h5.8L476,384z M476.5,400.5v-12h-1v12H476.5z"/>
<path class="st9" d="M536,400H416"/>
<rect x="176.5" y="608.5" class="st2" width="711" height="79"/>
<g>
	<defs>
		<rect id="SVGID_1_" x="176" y="608" width="77" height="48"/>
	</defs>
	<clipPath id="SVGID_00000160179660880348954950000001128048839141660349_">
		<use xlink:href="#SVGID_1_"  style="overflow:visible;"/>
	</clipPath>
	<g style="clip-path:url(#SVGID_00000160179660880348954950000001128048839141660349_);">
		<path d="M199.9,635.4h-5.2l5.1-6.5v-1.7h-6.9v1.6h4.8l-5.1,6.5v1.7h7.3V635.4z M204.4,637.2c2.1,0,3.4-1.5,3.4-3.8
			c0-2.3-1.3-3.8-3.4-3.8c-2.1,0-3.4,1.5-3.4,3.8C201,635.7,202.3,637.2,204.4,637.2z M204.4,635.7c-0.9,0-1.5-0.6-1.5-1.7v-1.4
			c0-1.1,0.6-1.7,1.5-1.7c0.9,0,1.5,0.6,1.5,1.7v1.4C205.9,635.1,205.3,635.7,204.4,635.7z M211.3,637v-4.8c0-0.8,0.7-1.2,1.5-1.2
			c0.9,0,1.2,0.5,1.2,1.6v4.4h1.8v-4.6c0-1.8-0.8-2.9-2.3-2.9c-1.1,0-1.8,0.6-2,1.4h-0.1v-1.2h-1.8v7.3H211.3z M220.9,637.2
			c1.4,0,2.4-0.5,3-1.3l-1-1.1c-0.4,0.6-1,1-1.9,1c-1.2,0-1.8-0.7-1.8-1.8v-0.2h4.9v-0.6c0-2-1-3.7-3.3-3.7c-2.1,0-3.4,1.5-3.4,3.8
			C217.5,635.7,218.7,637.2,220.9,637.2z M220.9,630.9c0.9,0,1.4,0.7,1.4,1.7v0.1h-3v-0.1C219.3,631.6,219.9,630.9,220.9,630.9z
			 M231,631.2v1.5h1c1.2,0,1.8,0.5,1.8,1.4v0.1c0,0.9-0.6,1.5-1.7,1.5c-1.1,0-1.7-0.6-2.1-1.3l-1.4,1c0.6,1,1.6,1.8,3.5,1.8
			c2.2,0,3.6-1.1,3.6-2.9c0-1.4-0.9-2.2-2-2.4v-0.1c1-0.2,1.9-1,1.9-2.2c0-1.6-1.3-2.5-3.3-2.5c-1.7,0-2.6,0.7-3.2,1.6l1.2,1.1
			c0.5-0.7,1.1-1.2,2-1.2c0.9,0,1.4,0.5,1.4,1.3v0.1c0,0.7-0.5,1.2-1.6,1.2H231z"/>
	</g>
</g>
<rect x="176.5" y="608.5" class="st3" width="711" height="79"/>
<rect x="272.5" y="624.5" class="st0" width="47" height="47"/>
<path d="M299.1,648h-6.2c-0.3,0-0.6,0.1-0.9,0.4c-0.2,0.2-0.4,0.6-0.4,0.9v3.8c0,0.3,0.1,0.6,0.4,0.9c0.2,0.2,0.6,0.4,0.9,0.4h2.5
	v1.2h-1.9v1.2h5v-1.2h-1.9v-1.2h2.5c0.3,0,0.6-0.1,0.9-0.4c0.2-0.2,0.4-0.6,0.4-0.9v-3.8c0-0.3-0.1-0.6-0.4-0.9
	C299.8,648.1,299.5,648,299.1,648z M292.9,653v-3.8h6.2l0,3.8H292.9z"/>
<path d="M302.1,644.3c-0.3-1.4-1-2.7-2.2-3.6c-1.1-0.9-2.5-1.4-4-1.4s-2.9,0.5-4,1.4c-1.1,0.9-1.9,2.2-2.2,3.6
	c-1.1,0.2-2.1,0.8-2.9,1.7c-0.7,0.9-1.1,2-1,3.2c0.1,1.1,0.5,2.2,1.3,3c0.8,0.8,1.9,1.3,3,1.4v-1.2c-0.9-0.1-1.7-0.5-2.2-1.1
	c-0.6-0.6-0.9-1.5-0.9-2.3c0-0.9,0.3-1.7,0.9-2.3c0.6-0.6,1.4-1,2.3-1.1l0.5,0l0.1-0.5c0.1-1.2,0.7-2.4,1.6-3.2
	c0.9-0.8,2.1-1.3,3.3-1.3s2.4,0.5,3.3,1.3c0.9,0.8,1.5,2,1.6,3.2l0.1,0.5l0.5,0c0.9,0.1,1.7,0.4,2.3,1.1c0.6,0.6,0.9,1.5,0.9,2.3
	c0,0.9-0.3,1.7-0.9,2.3c-0.6,0.6-1.4,1-2.2,1.1v1.2c1.1-0.1,2.2-0.6,3-1.4c0.8-0.8,1.3-1.9,1.3-3c0.1-1.1-0.3-2.3-1-3.2
	C304.3,645.1,303.3,644.5,302.1,644.3z"/>
<rect x="272.5" y="624.5" class="st3" width="47" height="47"/>
<path d="M335.1,652h1.8v-9.8h-1.8v4H331v-4h-1.8v9.8h1.8v-4.1h4.1V652z M342.2,652.2c2.1,0,3.4-1.5,3.4-3.8c0-2.3-1.3-3.8-3.4-3.8
	c-2.1,0-3.4,1.5-3.4,3.8C338.8,650.7,340.1,652.2,342.2,652.2z M342.2,650.7c-0.9,0-1.5-0.6-1.5-1.7v-1.4c0-1.1,0.6-1.7,1.5-1.7
	c0.9,0,1.5,0.6,1.5,1.7v1.4C343.7,650.1,343.1,650.7,342.2,650.7z M349.7,652.2c1.8,0,3-1,3-2.4c0-1.2-0.8-1.9-2.4-2.2l-0.7-0.1
	c-0.7-0.1-1-0.3-1-0.8c0-0.4,0.3-0.8,1.1-0.8c0.7,0,1.3,0.3,1.8,0.8l1.1-1c-0.7-0.7-1.4-1.1-2.9-1.1c-1.7,0-2.8,0.9-2.8,2.3
	c0,1.3,0.9,2,2.4,2.2l0.7,0.1c0.6,0.1,0.9,0.4,0.9,0.8c0,0.5-0.4,0.8-1.2,0.8c-0.8,0-1.5-0.4-2-1l-1.1,1.1
	C347.4,651.7,348.3,652.2,349.7,652.2z M356.6,652h1.3v-1.4h-1.4v-4.5h1.5v-1.4h-1.5v-2h-1.6v1.2c0,0.5-0.2,0.8-0.7,0.8h-0.6v1.4
	h1.1v4C354.7,651.3,355.4,652,356.6,652z"/>
<rect x="392" y="624" class="st11" width="48" height="48"/>
<path class="st2" d="M419.1,648h-6.2c-0.3,0-0.6,0.1-0.9,0.4c-0.2,0.2-0.4,0.6-0.4,0.9v3.8c0,0.3,0.1,0.6,0.4,0.9
	c0.2,0.2,0.6,0.4,0.9,0.4h2.5v1.2h-1.9v1.2h5v-1.2h-1.9v-1.2h2.5c0.3,0,0.6-0.1,0.9-0.4c0.2-0.2,0.4-0.6,0.4-0.9v-3.8
	c0-0.3-0.1-0.6-0.4-0.9C419.8,648.1,419.5,648,419.1,648z M412.9,653v-3.8h6.2l0,3.8H412.9z"/>
<path class="st2" d="M422.1,644.3c-0.3-1.4-1-2.7-2.2-3.6c-1.1-0.9-2.5-1.4-4-1.4s-2.9,0.5-4,1.4c-1.1,0.9-1.9,2.2-2.2,3.6
	c-1.1,0.2-2.1,0.8-2.9,1.7c-0.7,0.9-1.1,2-1,3.2c0.1,1.1,0.5,2.2,1.3,3c0.8,0.8,1.9,1.3,3,1.4v-1.2c-0.9-0.1-1.7-0.5-2.2-1.1
	c-0.6-0.6-0.9-1.5-0.9-2.3c0-0.9,0.3-1.7,0.9-2.3c0.6-0.6,1.4-1,2.3-1.1l0.5,0l0.1-0.5c0.1-1.2,0.7-2.4,1.6-3.2
	c0.9-0.8,2.1-1.3,3.3-1.3s2.4,0.5,3.3,1.3c0.9,0.8,1.5,2,1.6,3.2l0.1,0.5l0.5,0c0.9,0.1,1.7,0.4,2.3,1.1c0.6,0.6,0.9,1.5,0.9,2.3
	c0,0.9-0.3,1.7-0.9,2.3c-0.6,0.6-1.4,1-2.2,1.1v1.2c1.1-0.1,2.2-0.6,3-1.4c0.8-0.8,1.3-1.9,1.3-3c0.1-1.1-0.3-2.3-1-3.2
	C424.3,645.1,423.3,644.5,422.1,644.3z"/>
<path d="M455.1,652h1.8v-9.8h-1.8v4H451v-4h-1.8v9.8h1.8v-4.1h4.1V652z M462.2,652.2c2.1,0,3.4-1.5,3.4-3.8c0-2.3-1.3-3.8-3.4-3.8
	c-2.1,0-3.4,1.5-3.4,3.8C458.8,650.7,460.1,652.2,462.2,652.2z M462.2,650.7c-0.9,0-1.5-0.6-1.5-1.7v-1.4c0-1.1,0.6-1.7,1.5-1.7
	c0.9,0,1.5,0.6,1.5,1.7v1.4C463.7,650.1,463.1,650.7,462.2,650.7z M469.7,652.2c1.8,0,3-1,3-2.4c0-1.2-0.8-1.9-2.4-2.2l-0.7-0.1
	c-0.7-0.1-1-0.3-1-0.8c0-0.4,0.3-0.8,1.1-0.8c0.7,0,1.3,0.3,1.8,0.8l1.1-1c-0.7-0.7-1.4-1.1-2.9-1.1c-1.7,0-2.8,0.9-2.8,2.3
	c0,1.3,0.9,2,2.4,2.2l0.7,0.1c0.6,0.1,0.9,0.4,0.9,0.8c0,0.5-0.4,0.8-1.2,0.8c-0.8,0-1.5-0.4-2-1l-1.1,1.1
	C467.4,651.7,468.3,652.2,469.7,652.2z M476.6,652h1.3v-1.4h-1.4v-4.5h1.5v-1.4h-1.5v-2h-1.6v1.2c0,0.5-0.2,0.8-0.7,0.8h-0.6v1.4
	h1.1v4C474.7,651.3,475.4,652,476.6,652z"/>
<rect x="512" y="624" class="st11" width="48" height="48"/>
<path class="st2" d="M539.1,648h-6.2c-0.3,0-0.6,0.1-0.9,0.4c-0.2,0.2-0.4,0.6-0.4,0.9v3.8c0,0.3,0.1,0.6,0.4,0.9
	c0.2,0.2,0.6,0.4,0.9,0.4h2.5v1.2h-1.9v1.2h5v-1.2h-1.9v-1.2h2.5c0.3,0,0.6-0.1,0.9-0.4c0.2-0.2,0.4-0.6,0.4-0.9v-3.8
	c0-0.3-0.1-0.6-0.4-0.9C539.8,648.1,539.5,648,539.1,648z M532.9,653v-3.8h6.2l0,3.8H532.9z"/>
<path class="st2" d="M542.1,644.3c-0.3-1.4-1-2.7-2.2-3.6c-1.1-0.9-2.5-1.4-4-1.4s-2.9,0.5-4,1.4c-1.1,0.9-1.9,2.2-2.2,3.6
	c-1.1,0.2-2.1,0.8-2.9,1.7c-0.7,0.9-1.1,2-1,3.2c0.1,1.1,0.5,2.2,1.3,3c0.8,0.8,1.9,1.3,3,1.4v-1.2c-0.9-0.1-1.7-0.5-2.2-1.1
	c-0.6-0.6-0.9-1.5-0.9-2.3c0-0.9,0.3-1.7,0.9-2.3c0.6-0.6,1.4-1,2.3-1.1l0.5,0l0.1-0.5c0.1-1.2,0.7-2.4,1.6-3.2
	c0.9-0.8,2.1-1.3,3.3-1.3s2.4,0.5,3.3,1.3c0.9,0.8,1.5,2,1.6,3.2l0.1,0.5l0.5,0c0.9,0.1,1.7,0.4,2.3,1.1c0.6,0.6,0.9,1.5,0.9,2.3
	c0,0.9-0.3,1.7-0.9,2.3c-0.6,0.6-1.4,1-2.2,1.1v1.2c1.1-0.1,2.2-0.6,3-1.4c0.8-0.8,1.3-1.9,1.3-3c0.1-1.1-0.3-2.3-1-3.2
	C544.3,645.1,543.3,644.5,542.1,644.3z"/>
<path d="M575.1,652h1.8v-9.8h-1.8v4H571v-4h-1.8v9.8h1.8v-4.1h4.1V652z M582.2,652.2c2.1,0,3.4-1.5,3.4-3.8c0-2.3-1.3-3.8-3.4-3.8
	c-2.1,0-3.4,1.5-3.4,3.8C578.8,650.7,580.1,652.2,582.2,652.2z M582.2,650.7c-0.9,0-1.5-0.6-1.5-1.7v-1.4c0-1.1,0.6-1.7,1.5-1.7
	c0.9,0,1.5,0.6,1.5,1.7v1.4C583.7,650.1,583.1,650.7,582.2,650.7z M589.7,652.2c1.8,0,3-1,3-2.4c0-1.2-0.8-1.9-2.4-2.2l-0.7-0.1
	c-0.7-0.1-1-0.3-1-0.8c0-0.4,0.3-0.8,1.1-0.8c0.7,0,1.3,0.3,1.8,0.8l1-1c-0.7-0.7-1.4-1.1-2.9-1.1c-1.7,0-2.8,0.9-2.8,2.3
	c0,1.3,0.9,2,2.4,2.2l0.7,0.1c0.6,0.1,0.9,0.4,0.9,0.8c0,0.5-0.4,0.8-1.2,0.8c-0.8,0-1.5-0.4-2-1l-1.1,1.1
	C587.4,651.7,588.3,652.2,589.7,652.2z M596.6,652h1.3v-1.4h-1.4v-4.5h1.5v-1.4h-1.5v-2h-1.6v1.2c0,0.5-0.2,0.8-0.7,0.8h-0.6v1.4
	h1.1v4C594.7,651.3,595.4,652,596.6,652z"/>
<rect x="632" y="624" class="st2" width="48" height="48"/>
<rect x="632.5" y="624.5" class="st12" width="47" height="47"/>
<rect x="635.5" y="627.5" class="st13" width="41" height="41"/>
<path class="st2" d="M659.1,648h-6.2c-0.3,0-0.6,0.1-0.9,0.4c-0.2,0.2-0.4,0.6-0.4,0.9v3.8c0,0.3,0.1,0.6,0.4,0.9
	c0.2,0.2,0.6,0.4,0.9,0.4h2.5v1.2h-1.9v1.2h5v-1.2h-1.9v-1.2h2.5c0.3,0,0.6-0.1,0.9-0.4c0.2-0.2,0.4-0.6,0.4-0.9v-3.8
	c0-0.3-0.1-0.6-0.4-0.9C659.8,648.1,659.5,648,659.1,648z M652.9,653v-3.8h6.2l0,3.8H652.9z"/>
<path class="st2" d="M662.1,644.3c-0.3-1.4-1-2.7-2.2-3.6c-1.1-0.9-2.5-1.4-4-1.4s-2.9,0.5-4,1.4c-1.1,0.9-1.9,2.2-2.2,3.6
	c-1.1,0.2-2.1,0.8-2.9,1.7c-0.7,0.9-1.1,2-1,3.2c0.1,1.1,0.5,2.2,1.3,3c0.8,0.8,1.9,1.3,3,1.4v-1.2c-0.9-0.1-1.7-0.5-2.2-1.1
	c-0.6-0.6-0.9-1.5-0.9-2.3c0-0.9,0.3-1.7,0.9-2.3c0.6-0.6,1.4-1,2.3-1.1l0.5,0l0.1-0.5c0.1-1.2,0.7-2.4,1.6-3.2
	c0.9-0.8,2.1-1.3,3.3-1.3s2.4,0.5,3.3,1.3c0.9,0.8,1.5,2,1.6,3.2l0.1,0.5l0.5,0c0.9,0.1,1.7,0.4,2.3,1.1c0.6,0.6,0.9,1.5,0.9,2.3
	c0,0.9-0.3,1.7-0.9,2.3c-0.6,0.6-1.4,1-2.2,1.1v1.2c1.1-0.1,2.2-0.6,3-1.4c0.8-0.8,1.3-1.9,1.3-3c0.1-1.1-0.3-2.3-1-3.2
	C664.3,645.1,663.3,644.5,662.1,644.3z"/>
<path d="M695.1,652h1.8v-9.8h-1.8v4H691v-4h-1.8v9.8h1.8v-4.1h4.1V652z M702.2,652.2c2.1,0,3.4-1.5,3.4-3.8c0-2.3-1.3-3.8-3.4-3.8
	c-2.1,0-3.4,1.5-3.4,3.8C698.8,650.7,700.1,652.2,702.2,652.2z M702.2,650.7c-0.9,0-1.5-0.6-1.5-1.7v-1.4c0-1.1,0.6-1.7,1.5-1.7
	c0.9,0,1.5,0.6,1.5,1.7v1.4C703.7,650.1,703.1,650.7,702.2,650.7z M709.7,652.2c1.8,0,3-1,3-2.4c0-1.2-0.8-1.9-2.4-2.2l-0.7-0.1
	c-0.7-0.1-1-0.3-1-0.8c0-0.4,0.3-0.8,1.1-0.8c0.7,0,1.3,0.3,1.8,0.8l1-1c-0.7-0.7-1.4-1.1-2.9-1.1c-1.7,0-2.8,0.9-2.8,2.3
	c0,1.3,0.9,2,2.4,2.2l0.7,0.1c0.6,0.1,0.9,0.4,0.9,0.8c0,0.5-0.4,0.8-1.2,0.8c-0.8,0-1.5-0.4-2-1l-1.1,1.1
	C707.4,651.7,708.3,652.2,709.7,652.2z M716.6,652h1.3v-1.4h-1.4v-4.5h1.5v-1.4h-1.5v-2h-1.6v1.2c0,0.5-0.2,0.8-0.7,0.8h-0.6v1.4
	h1.1v4C714.7,651.3,715.4,652,716.6,652z"/>
<rect x="752" y="624" class="st4" width="48" height="48"/>
<path class="st2" d="M779.1,648h-6.2c-0.3,0-0.6,0.1-0.9,0.4c-0.2,0.2-0.4,0.6-0.4,0.9v3.8c0,0.3,0.1,0.6,0.4,0.9
	c0.2,0.2,0.6,0.4,0.9,0.4h2.5v1.2h-1.9v1.2h5v-1.2h-1.9v-1.2h2.5c0.3,0,0.6-0.1,0.9-0.4c0.2-0.2,0.4-0.6,0.4-0.9v-3.8
	c0-0.3-0.1-0.6-0.4-0.9C779.8,648.1,779.5,648,779.1,648z M772.9,653v-3.8h6.2l0,3.8H772.9z"/>
<path class="st2" d="M782.1,644.3c-0.3-1.4-1-2.7-2.2-3.6c-1.1-0.9-2.5-1.4-4-1.4s-2.9,0.5-4,1.4c-1.1,0.9-1.9,2.2-2.2,3.6
	c-1.1,0.2-2.1,0.8-2.9,1.7c-0.7,0.9-1.1,2-1,3.2c0.1,1.1,0.5,2.2,1.3,3c0.8,0.8,1.9,1.3,3,1.4v-1.2c-0.9-0.1-1.7-0.5-2.2-1.1
	c-0.6-0.6-0.9-1.5-0.9-2.3c0-0.9,0.3-1.7,0.9-2.3c0.6-0.6,1.4-1,2.3-1.1l0.5,0l0.1-0.5c0.1-1.2,0.7-2.4,1.6-3.2
	c0.9-0.8,2.1-1.3,3.3-1.3s2.4,0.5,3.3,1.3c0.9,0.8,1.5,2,1.6,3.2l0.1,0.5l0.5,0c0.9,0.1,1.7,0.4,2.3,1.1c0.6,0.6,0.9,1.5,0.9,2.3
	c0,0.9-0.3,1.7-0.9,2.3c-0.6,0.6-1.4,1-2.2,1.1v1.2c1.1-0.1,2.2-0.6,3-1.4c0.8-0.8,1.3-1.9,1.3-3c0.1-1.1-0.3-2.3-1-3.2
	C784.3,645.1,783.3,644.5,782.1,644.3z"/>
<path d="M815.1,652h1.8v-9.8h-1.8v4H811v-4h-1.8v9.8h1.8v-4.1h4.1V652z M822.2,652.2c2.1,0,3.4-1.5,3.4-3.8c0-2.3-1.3-3.8-3.4-3.8
	c-2.1,0-3.4,1.5-3.4,3.8C818.8,650.7,820.1,652.2,822.2,652.2z M822.2,650.7c-0.9,0-1.5-0.6-1.5-1.7v-1.4c0-1.1,0.6-1.7,1.5-1.7
	c0.9,0,1.5,0.6,1.5,1.7v1.4C823.7,650.1,823.1,650.7,822.2,650.7z M829.7,652.2c1.8,0,3-1,3-2.4c0-1.2-0.8-1.9-2.4-2.2l-0.7-0.1
	c-0.7-0.1-1-0.3-1-0.8c0-0.4,0.3-0.8,1.1-0.8c0.7,0,1.3,0.3,1.8,0.8l1-1c-0.7-0.7-1.4-1.1-2.9-1.1c-1.7,0-2.8,0.9-2.8,2.3
	c0,1.3,0.9,2,2.4,2.2l0.7,0.1c0.6,0.1,0.9,0.4,0.9,0.8c0,0.5-0.4,0.8-1.2,0.8c-0.8,0-1.5-0.4-2-1l-1.1,1.1
	C827.4,651.7,828.3,652.2,829.7,652.2z M836.6,652h1.3v-1.4h-1.4v-4.5h1.5v-1.4h-1.5v-2h-1.6v1.2c0,0.5-0.2,0.8-0.7,0.8h-0.6v1.4
	h1.1v4C834.7,651.3,835.4,652,836.6,652z"/>
<rect x="176.5" y="512.5" class="st2" width="711" height="79"/>
<g>
	<defs>
		<rect id="SVGID_00000163759678090166739730000008088974614446804639_" x="176" y="512" width="77" height="48"/>
	</defs>
	<clipPath id="SVGID_00000112620630668284275990000005752313104419305139_">
		<use xlink:href="#SVGID_00000163759678090166739730000008088974614446804639_"  style="overflow:visible;"/>
	</clipPath>
	<g style="clip-path:url(#SVGID_00000112620630668284275990000005752313104419305139_);">
		<path d="M199.9,539.4h-5.2l5.1-6.5v-1.7h-6.9v1.6h4.8l-5.1,6.5v1.7h7.3V539.4z M204.4,541.2c2.1,0,3.4-1.5,3.4-3.8
			c0-2.3-1.3-3.8-3.4-3.8c-2.1,0-3.4,1.5-3.4,3.8C201,539.7,202.3,541.2,204.4,541.2z M204.4,539.7c-0.9,0-1.5-0.6-1.5-1.7v-1.4
			c0-1.1,0.6-1.7,1.5-1.7c0.9,0,1.5,0.6,1.5,1.7v1.4C205.9,539.1,205.3,539.7,204.4,539.7z M211.3,541v-4.8c0-0.8,0.7-1.2,1.5-1.2
			c0.9,0,1.2,0.5,1.2,1.6v4.4h1.8v-4.6c0-1.8-0.8-2.9-2.3-2.9c-1.1,0-1.8,0.6-2,1.4h-0.1v-1.2h-1.8v7.3H211.3z M220.9,541.2
			c1.4,0,2.4-0.5,3-1.3l-1-1.1c-0.4,0.6-1,1-1.9,1c-1.2,0-1.8-0.7-1.8-1.8v-0.2h4.9v-0.6c0-2-1-3.7-3.3-3.7c-2.1,0-3.4,1.5-3.4,3.8
			C217.5,539.7,218.7,541.2,220.9,541.2z M220.9,534.9c0.9,0,1.4,0.7,1.4,1.7v0.1h-3v-0.1C219.3,535.6,219.9,534.9,220.9,534.9z
			 M236,539.4h-4.8l2.1-1.7c1.4-1.1,2.5-2.2,2.5-3.8c0-1.7-1.2-2.9-3.2-2.9c-2,0-3,1.1-3.5,2.4l1.6,0.6c0.2-0.8,0.7-1.5,1.7-1.5
			c0.8,0,1.4,0.5,1.4,1.3v0.2c0,0.9-0.5,1.5-1.5,2.4l-3.1,2.7v1.7h6.8V539.4z"/>
	</g>
</g>
<rect x="176.5" y="512.5" class="st3" width="711" height="79"/>
<rect x="272.5" y="528.5" class="st0" width="47" height="47"/>
<path d="M299.1,552h-6.2c-0.3,0-0.6,0.1-0.9,0.4c-0.2,0.2-0.4,0.6-0.4,0.9v3.8c0,0.3,0.1,0.6,0.4,0.9c0.2,0.2,0.6,0.4,0.9,0.4h2.5
	v1.2h-1.9v1.2h5v-1.2h-1.9v-1.2h2.5c0.3,0,0.6-0.1,0.9-0.4c0.2-0.2,0.4-0.6,0.4-0.9v-3.8c0-0.3-0.1-0.6-0.4-0.9
	C299.8,552.1,299.5,552,299.1,552z M292.9,557v-3.8h6.2l0,3.8H292.9z"/>
<path d="M302.1,548.3c-0.3-1.4-1-2.7-2.2-3.6c-1.1-0.9-2.5-1.4-4-1.4s-2.9,0.5-4,1.4c-1.1,0.9-1.9,2.2-2.2,3.6
	c-1.1,0.2-2.1,0.8-2.9,1.7c-0.7,0.9-1.1,2-1,3.2c0.1,1.1,0.5,2.2,1.3,3c0.8,0.8,1.9,1.3,3,1.4v-1.2c-0.9-0.1-1.7-0.5-2.2-1.1
	c-0.6-0.6-0.9-1.5-0.9-2.3c0-0.9,0.3-1.7,0.9-2.3c0.6-0.6,1.4-1,2.3-1.1l0.5,0l0.1-0.5c0.1-1.2,0.7-2.4,1.6-3.2
	c0.9-0.8,2.1-1.3,3.3-1.3s2.4,0.5,3.3,1.3c0.9,0.8,1.5,2,1.6,3.2l0.1,0.5l0.5,0c0.9,0.1,1.7,0.4,2.3,1.1c0.6,0.6,0.9,1.5,0.9,2.3
	c0,0.9-0.3,1.7-0.9,2.3c-0.6,0.6-1.4,1-2.2,1.1v1.2c1.1-0.1,2.2-0.6,3-1.4c0.8-0.8,1.3-1.9,1.3-3c0.1-1.1-0.3-2.3-1-3.2
	C304.3,549.1,303.3,548.5,302.1,548.3z"/>
<rect x="272.5" y="528.5" class="st3" width="47" height="47"/>
<path d="M335.1,556h1.8v-9.8h-1.8v4H331v-4h-1.8v9.8h1.8v-4.1h4.1V556z M342.2,556.2c2.1,0,3.4-1.5,3.4-3.8c0-2.3-1.3-3.8-3.4-3.8
	c-2.1,0-3.4,1.5-3.4,3.8C338.8,554.7,340.1,556.2,342.2,556.2z M342.2,554.7c-0.9,0-1.5-0.6-1.5-1.7v-1.4c0-1.1,0.6-1.7,1.5-1.7
	c0.9,0,1.5,0.6,1.5,1.7v1.4C343.7,554.1,343.1,554.7,342.2,554.7z M349.7,556.2c1.8,0,3-1,3-2.4c0-1.2-0.8-1.9-2.4-2.2l-0.7-0.1
	c-0.7-0.1-1-0.3-1-0.8c0-0.4,0.3-0.8,1.1-0.8c0.7,0,1.3,0.3,1.8,0.8l1.1-1c-0.7-0.7-1.4-1.1-2.9-1.1c-1.7,0-2.8,0.9-2.8,2.3
	c0,1.3,0.9,2,2.4,2.2l0.7,0.1c0.6,0.1,0.9,0.4,0.9,0.8c0,0.5-0.4,0.8-1.2,0.8c-0.8,0-1.5-0.4-2-1l-1.1,1.1
	C347.4,555.7,348.3,556.2,349.7,556.2z M356.6,556h1.3v-1.4h-1.4v-4.5h1.5v-1.4h-1.5v-2h-1.6v1.2c0,0.5-0.2,0.8-0.7,0.8h-0.6v1.4
	h1.1v4C354.7,555.3,355.4,556,356.6,556z"/>
<rect x="392" y="528" class="st11" width="48" height="48"/>
<path class="st2" d="M419.1,552h-6.2c-0.3,0-0.6,0.1-0.9,0.4c-0.2,0.2-0.4,0.6-0.4,0.9v3.8c0,0.3,0.1,0.6,0.4,0.9
	c0.2,0.2,0.6,0.4,0.9,0.4h2.5v1.2h-1.9v1.2h5v-1.2h-1.9v-1.2h2.5c0.3,0,0.6-0.1,0.9-0.4c0.2-0.2,0.4-0.6,0.4-0.9v-3.8
	c0-0.3-0.1-0.6-0.4-0.9C419.8,552.1,419.5,552,419.1,552z M412.9,557v-3.8h6.2l0,3.8H412.9z"/>
<path class="st2" d="M422.1,548.3c-0.3-1.4-1-2.7-2.2-3.6c-1.1-0.9-2.5-1.4-4-1.4s-2.9,0.5-4,1.4c-1.1,0.9-1.9,2.2-2.2,3.6
	c-1.1,0.2-2.1,0.8-2.9,1.7c-0.7,0.9-1.1,2-1,3.2c0.1,1.1,0.5,2.2,1.3,3c0.8,0.8,1.9,1.3,3,1.4v-1.2c-0.9-0.1-1.7-0.5-2.2-1.1
	c-0.6-0.6-0.9-1.5-0.9-2.3c0-0.9,0.3-1.7,0.9-2.3c0.6-0.6,1.4-1,2.3-1.1l0.5,0l0.1-0.5c0.1-1.2,0.7-2.4,1.6-3.2
	c0.9-0.8,2.1-1.3,3.3-1.3s2.4,0.5,3.3,1.3c0.9,0.8,1.5,2,1.6,3.2l0.1,0.5l0.5,0c0.9,0.1,1.7,0.4,2.3,1.1c0.6,0.6,0.9,1.5,0.9,2.3
	c0,0.9-0.3,1.7-0.9,2.3c-0.6,0.6-1.4,1-2.2,1.1v1.2c1.1-0.1,2.2-0.6,3-1.4c0.8-0.8,1.3-1.9,1.3-3c0.1-1.1-0.3-2.3-1-3.2
	C424.3,549.1,423.3,548.5,422.1,548.3z"/>
<path d="M455.1,556h1.8v-9.8h-1.8v4H451v-4h-1.8v9.8h1.8v-4.1h4.1V556z M462.2,556.2c2.1,0,3.4-1.5,3.4-3.8c0-2.3-1.3-3.8-3.4-3.8
	c-2.1,0-3.4,1.5-3.4,3.8C458.8,554.7,460.1,556.2,462.2,556.2z M462.2,554.7c-0.9,0-1.5-0.6-1.5-1.7v-1.4c0-1.1,0.6-1.7,1.5-1.7
	c0.9,0,1.5,0.6,1.5,1.7v1.4C463.7,554.1,463.1,554.7,462.2,554.7z M469.7,556.2c1.8,0,3-1,3-2.4c0-1.2-0.8-1.9-2.4-2.2l-0.7-0.1
	c-0.7-0.1-1-0.3-1-0.8c0-0.4,0.3-0.8,1.1-0.8c0.7,0,1.3,0.3,1.8,0.8l1.1-1c-0.7-0.7-1.4-1.1-2.9-1.1c-1.7,0-2.8,0.9-2.8,2.3
	c0,1.3,0.9,2,2.4,2.2l0.7,0.1c0.6,0.1,0.9,0.4,0.9,0.8c0,0.5-0.4,0.8-1.2,0.8c-0.8,0-1.5-0.4-2-1l-1.1,1.1
	C467.4,555.7,468.3,556.2,469.7,556.2z M476.6,556h1.3v-1.4h-1.4v-4.5h1.5v-1.4h-1.5v-2h-1.6v1.2c0,0.5-0.2,0.8-0.7,0.8h-0.6v1.4
	h1.1v4C474.7,555.3,475.4,556,476.6,556z"/>
<rect x="512" y="528" class="st11" width="48" height="48"/>
<path class="st2" d="M539.1,552h-6.2c-0.3,0-0.6,0.1-0.9,0.4c-0.2,0.2-0.4,0.6-0.4,0.9v3.8c0,0.3,0.1,0.6,0.4,0.9
	c0.2,0.2,0.6,0.4,0.9,0.4h2.5v1.2h-1.9v1.2h5v-1.2h-1.9v-1.2h2.5c0.3,0,0.6-0.1,0.9-0.4c0.2-0.2,0.4-0.6,0.4-0.9v-3.8
	c0-0.3-0.1-0.6-0.4-0.9C539.8,552.1,539.5,552,539.1,552z M532.9,557v-3.8h6.2l0,3.8H532.9z"/>
<path class="st2" d="M542.1,548.3c-0.3-1.4-1-2.7-2.2-3.6c-1.1-0.9-2.5-1.4-4-1.4s-2.9,0.5-4,1.4c-1.1,0.9-1.9,2.2-2.2,3.6
	c-1.1,0.2-2.1,0.8-2.9,1.7c-0.7,0.9-1.1,2-1,3.2c0.1,1.1,0.5,2.2,1.3,3c0.8,0.8,1.9,1.3,3,1.4v-1.2c-0.9-0.1-1.7-0.5-2.2-1.1
	c-0.6-0.6-0.9-1.5-0.9-2.3c0-0.9,0.3-1.7,0.9-2.3c0.6-0.6,1.4-1,2.3-1.1l0.5,0l0.1-0.5c0.1-1.2,0.7-2.4,1.6-3.2
	c0.9-0.8,2.1-1.3,3.3-1.3s2.4,0.5,3.3,1.3c0.9,0.8,1.5,2,1.6,3.2l0.1,0.5l0.5,0c0.9,0.1,1.7,0.4,2.3,1.1c0.6,0.6,0.9,1.5,0.9,2.3
	c0,0.9-0.3,1.7-0.9,2.3c-0.6,0.6-1.4,1-2.2,1.1v1.2c1.1-0.1,2.2-0.6,3-1.4c0.8-0.8,1.3-1.9,1.3-3c0.1-1.1-0.3-2.3-1-3.2
	C544.3,549.1,543.3,548.5,542.1,548.3z"/>
<path d="M575.1,556h1.8v-9.8h-1.8v4H571v-4h-1.8v9.8h1.8v-4.1h4.1V556z M582.2,556.2c2.1,0,3.4-1.5,3.4-3.8c0-2.3-1.3-3.8-3.4-3.8
	c-2.1,0-3.4,1.5-3.4,3.8C578.8,554.7,580.1,556.2,582.2,556.2z M582.2,554.7c-0.9,0-1.5-0.6-1.5-1.7v-1.4c0-1.1,0.6-1.7,1.5-1.7
	c0.9,0,1.5,0.6,1.5,1.7v1.4C583.7,554.1,583.1,554.7,582.2,554.7z M589.7,556.2c1.8,0,3-1,3-2.4c0-1.2-0.8-1.9-2.4-2.2l-0.7-0.1
	c-0.7-0.1-1-0.3-1-0.8c0-0.4,0.3-0.8,1.1-0.8c0.7,0,1.3,0.3,1.8,0.8l1-1c-0.7-0.7-1.4-1.1-2.9-1.1c-1.7,0-2.8,0.9-2.8,2.3
	c0,1.3,0.9,2,2.4,2.2l0.7,0.1c0.6,0.1,0.9,0.4,0.9,0.8c0,0.5-0.4,0.8-1.2,0.8c-0.8,0-1.5-0.4-2-1l-1.1,1.1
	C587.4,555.7,588.3,556.2,589.7,556.2z M596.6,556h1.3v-1.4h-1.4v-4.5h1.5v-1.4h-1.5v-2h-1.6v1.2c0,0.5-0.2,0.8-0.7,0.8h-0.6v1.4
	h1.1v4C594.7,555.3,595.4,556,596.6,556z"/>
<rect x="632" y="528" class="st2" width="48" height="48"/>
<rect x="633" y="540.9" class="st2" width="47" height="47"/>
<rect x="632.5" y="528.5" class="st12" width="47" height="47"/>
<rect x="635.5" y="531.5" class="st13" width="41" height="41"/>
<path class="st2" d="M659.1,552h-6.2c-0.3,0-0.6,0.1-0.9,0.4c-0.2,0.2-0.4,0.6-0.4,0.9v3.8c0,0.3,0.1,0.6,0.4,0.9
	c0.2,0.2,0.6,0.4,0.9,0.4h2.5v1.2h-1.9v1.2h5v-1.2h-1.9v-1.2h2.5c0.3,0,0.6-0.1,0.9-0.4c0.2-0.2,0.4-0.6,0.4-0.9v-3.8
	c0-0.3-0.1-0.6-0.4-0.9C659.8,552.1,659.5,552,659.1,552z M652.9,557v-3.8h6.2l0,3.8H652.9z"/>
<path class="st2" d="M662.1,548.3c-0.3-1.4-1-2.7-2.2-3.6c-1.1-0.9-2.5-1.4-4-1.4s-2.9,0.5-4,1.4c-1.1,0.9-1.9,2.2-2.2,3.6
	c-1.1,0.2-2.1,0.8-2.9,1.7c-0.7,0.9-1.1,2-1,3.2c0.1,1.1,0.5,2.2,1.3,3c0.8,0.8,1.9,1.3,3,1.4v-1.2c-0.9-0.1-1.7-0.5-2.2-1.1
	c-0.6-0.6-0.9-1.5-0.9-2.3c0-0.9,0.3-1.7,0.9-2.3c0.6-0.6,1.4-1,2.3-1.1l0.5,0l0.1-0.5c0.1-1.2,0.7-2.4,1.6-3.2
	c0.9-0.8,2.1-1.3,3.3-1.3s2.4,0.5,3.3,1.3c0.9,0.8,1.5,2,1.6,3.2l0.1,0.5l0.5,0c0.9,0.1,1.7,0.4,2.3,1.1c0.6,0.6,0.9,1.5,0.9,2.3
	c0,0.9-0.3,1.7-0.9,2.3c-0.6,0.6-1.4,1-2.2,1.1v1.2c1.1-0.1,2.2-0.6,3-1.4c0.8-0.8,1.3-1.9,1.3-3c0.1-1.1-0.3-2.3-1-3.2
	C664.3,549.1,663.3,548.5,662.1,548.3z"/>
<path d="M695.1,556h1.8v-9.8h-1.8v4H691v-4h-1.8v9.8h1.8v-4.1h4.1V556z M702.2,556.2c2.1,0,3.4-1.5,3.4-3.8c0-2.3-1.3-3.8-3.4-3.8
	c-2.1,0-3.4,1.5-3.4,3.8C698.8,554.7,700.1,556.2,702.2,556.2z M702.2,554.7c-0.9,0-1.5-0.6-1.5-1.7v-1.4c0-1.1,0.6-1.7,1.5-1.7
	c0.9,0,1.5,0.6,1.5,1.7v1.4C703.7,554.1,703.1,554.7,702.2,554.7z M709.7,556.2c1.8,0,3-1,3-2.4c0-1.2-0.8-1.9-2.4-2.2l-0.7-0.1
	c-0.7-0.1-1-0.3-1-0.8c0-0.4,0.3-0.8,1.1-0.8c0.7,0,1.3,0.3,1.8,0.8l1-1c-0.7-0.7-1.4-1.1-2.9-1.1c-1.7,0-2.8,0.9-2.8,2.3
	c0,1.3,0.9,2,2.4,2.2l0.7,0.1c0.6,0.1,0.9,0.4,0.9,0.8c0,0.5-0.4,0.8-1.2,0.8c-0.8,0-1.5-0.4-2-1l-1.1,1.1
	C707.4,555.7,708.3,556.2,709.7,556.2z M716.6,556h1.3v-1.4h-1.4v-4.5h1.5v-1.4h-1.5v-2h-1.6v1.2c0,0.5-0.2,0.8-0.7,0.8h-0.6v1.4
	h1.1v4C714.7,555.3,715.4,556,716.6,556z"/>
<rect x="752" y="528" class="st4" width="48" height="48"/>
<path class="st2" d="M779.1,552h-6.2c-0.3,0-0.6,0.1-0.9,0.4c-0.2,0.2-0.4,0.6-0.4,0.9v3.8c0,0.3,0.1,0.6,0.4,0.9
	c0.2,0.2,0.6,0.4,0.9,0.4h2.5v1.2h-1.9v1.2h5v-1.2h-1.9v-1.2h2.5c0.3,0,0.6-0.1,0.9-0.4c0.2-0.2,0.4-0.6,0.4-0.9v-3.8
	c0-0.3-0.1-0.6-0.4-0.9C779.8,552.1,779.5,552,779.1,552z M772.9,557v-3.8h6.2l0,3.8H772.9z"/>
<path class="st2" d="M782.1,548.3c-0.3-1.4-1-2.7-2.2-3.6c-1.1-0.9-2.5-1.4-4-1.4s-2.9,0.5-4,1.4c-1.1,0.9-1.9,2.2-2.2,3.6
	c-1.1,0.2-2.1,0.8-2.9,1.7c-0.7,0.9-1.1,2-1,3.2c0.1,1.1,0.5,2.2,1.3,3c0.8,0.8,1.9,1.3,3,1.4v-1.2c-0.9-0.1-1.7-0.5-2.2-1.1
	c-0.6-0.6-0.9-1.5-0.9-2.3c0-0.9,0.3-1.7,0.9-2.3c0.6-0.6,1.4-1,2.3-1.1l0.5,0l0.1-0.5c0.1-1.2,0.7-2.4,1.6-3.2
	c0.9-0.8,2.1-1.3,3.3-1.3s2.4,0.5,3.3,1.3c0.9,0.8,1.5,2,1.6,3.2l0.1,0.5l0.5,0c0.9,0.1,1.7,0.4,2.3,1.1c0.6,0.6,0.9,1.5,0.9,2.3
	c0,0.9-0.3,1.7-0.9,2.3c-0.6,0.6-1.4,1-2.2,1.1v1.2c1.1-0.1,2.2-0.6,3-1.4c0.8-0.8,1.3-1.9,1.3-3c0.1-1.1-0.3-2.3-1-3.2
	C784.3,549.1,783.3,548.5,782.1,548.3z"/>
<path d="M815.1,556h1.8v-9.8h-1.8v4H811v-4h-1.8v9.8h1.8v-4.1h4.1V556z M822.2,556.2c2.1,0,3.4-1.5,3.4-3.8c0-2.3-1.3-3.8-3.4-3.8
	c-2.1,0-3.4,1.5-3.4,3.8C818.8,554.7,820.1,556.2,822.2,556.2z M822.2,554.7c-0.9,0-1.5-0.6-1.5-1.7v-1.4c0-1.1,0.6-1.7,1.5-1.7
	c0.9,0,1.5,0.6,1.5,1.7v1.4C823.7,554.1,823.1,554.7,822.2,554.7z M829.7,556.2c1.8,0,3-1,3-2.4c0-1.2-0.8-1.9-2.4-2.2l-0.7-0.1
	c-0.7-0.1-1-0.3-1-0.8c0-0.4,0.3-0.8,1.1-0.8c0.7,0,1.3,0.3,1.8,0.8l1-1c-0.7-0.7-1.4-1.1-2.9-1.1c-1.7,0-2.8,0.9-2.8,2.3
	c0,1.3,0.9,2,2.4,2.2l0.7,0.1c0.6,0.1,0.9,0.4,0.9,0.8c0,0.5-0.4,0.8-1.2,0.8c-0.8,0-1.5-0.4-2-1l-1.1,1.1
	C827.4,555.7,828.3,556.2,829.7,556.2z M836.6,556h1.3v-1.4h-1.4v-4.5h1.5v-1.4h-1.5v-2h-1.6v1.2c0,0.5-0.2,0.8-0.7,0.8h-0.6v1.4
	h1.1v4C834.7,555.3,835.4,556,836.6,556z"/>
<rect x="176.5" y="416.5" class="st2" width="711" height="79"/>
<g>
	<defs>
		<rect id="SVGID_00000110450154978180885500000016831404801326291842_" x="176" y="416" width="77" height="48"/>
	</defs>
	<clipPath id="SVGID_00000065793835662077893100000010520960178077432985_">
		<use xlink:href="#SVGID_00000110450154978180885500000016831404801326291842_"  style="overflow:visible;"/>
	</clipPath>
	<g style="clip-path:url(#SVGID_00000065793835662077893100000010520960178077432985_);">
		<path d="M199.9,443.4h-5.2l5.1-6.5v-1.7h-6.9v1.6h4.8l-5.1,6.5v1.7h7.3V443.4z M204.4,445.2c2.1,0,3.4-1.5,3.4-3.8
			c0-2.3-1.3-3.8-3.4-3.8c-2.1,0-3.4,1.5-3.4,3.8C201,443.7,202.3,445.2,204.4,445.2z M204.4,443.7c-0.9,0-1.5-0.6-1.5-1.7v-1.4
			c0-1.1,0.6-1.7,1.5-1.7c0.9,0,1.5,0.6,1.5,1.7v1.4C205.9,443.1,205.3,443.7,204.4,443.7z M211.3,445v-4.8c0-0.8,0.7-1.2,1.5-1.2
			c0.9,0,1.2,0.5,1.2,1.6v4.4h1.8v-4.6c0-1.8-0.8-2.9-2.3-2.9c-1.1,0-1.8,0.6-2,1.4h-0.1v-1.2h-1.8v7.3H211.3z M220.9,445.2
			c1.4,0,2.4-0.5,3-1.3l-1-1.1c-0.4,0.6-1,1-1.9,1c-1.2,0-1.8-0.7-1.8-1.8v-0.2h4.9v-0.6c0-2-1-3.7-3.3-3.7c-2.1,0-3.4,1.5-3.4,3.8
			C217.5,443.7,218.7,445.2,220.9,445.2z M220.9,438.9c0.9,0,1.4,0.7,1.4,1.7v0.1h-3v-0.1C219.3,439.6,219.9,438.9,220.9,438.9z
			 M236.4,445v-1.5h-2.2v-8.3h-2.8l-2.4,2.9l1.1,1l2.1-2.5h0.1v6.9h-2.7v1.5H236.4z"/>
	</g>
</g>
<rect x="176.5" y="416.5" class="st3" width="711" height="79"/>
<rect x="272.5" y="432.5" class="st0" width="47" height="47"/>
<path d="M299.1,456h-6.2c-0.3,0-0.6,0.1-0.9,0.4c-0.2,0.2-0.4,0.6-0.4,0.9v3.8c0,0.3,0.1,0.6,0.4,0.9c0.2,0.2,0.6,0.4,0.9,0.4h2.5
	v1.2h-1.9v1.2h5v-1.2h-1.9v-1.2h2.5c0.3,0,0.6-0.1,0.9-0.4c0.2-0.2,0.4-0.6,0.4-0.9v-3.8c0-0.3-0.1-0.6-0.4-0.9
	C299.8,456.1,299.5,456,299.1,456z M292.9,461v-3.8h6.2l0,3.8H292.9z"/>
<path d="M302.1,452.3c-0.3-1.4-1-2.7-2.2-3.6c-1.1-0.9-2.5-1.4-4-1.4s-2.9,0.5-4,1.4c-1.1,0.9-1.9,2.2-2.2,3.6
	c-1.1,0.2-2.1,0.8-2.9,1.7c-0.7,0.9-1.1,2-1,3.2c0.1,1.1,0.5,2.2,1.3,3c0.8,0.8,1.9,1.3,3,1.4v-1.2c-0.9-0.1-1.7-0.5-2.2-1.1
	c-0.6-0.6-0.9-1.5-0.9-2.3c0-0.9,0.3-1.7,0.9-2.3c0.6-0.6,1.4-1,2.3-1.1l0.5,0l0.1-0.5c0.1-1.2,0.7-2.4,1.6-3.2
	c0.9-0.8,2.1-1.3,3.3-1.3s2.4,0.5,3.3,1.3c0.9,0.8,1.5,2,1.6,3.2l0.1,0.5l0.5,0c0.9,0.1,1.7,0.4,2.3,1.1c0.6,0.6,0.9,1.5,0.9,2.3
	c0,0.9-0.3,1.7-0.9,2.3c-0.6,0.6-1.4,1-2.2,1.1v1.2c1.1-0.1,2.2-0.6,3-1.4c0.8-0.8,1.3-1.9,1.3-3c0.1-1.1-0.3-2.3-1-3.2
	C304.3,453.1,303.3,452.5,302.1,452.3z"/>
<rect x="272.5" y="432.5" class="st3" width="47" height="47"/>
<path d="M335.1,460h1.8v-9.8h-1.8v4H331v-4h-1.8v9.8h1.8v-4.1h4.1V460z M342.2,460.2c2.1,0,3.4-1.5,3.4-3.8c0-2.3-1.3-3.8-3.4-3.8
	c-2.1,0-3.4,1.5-3.4,3.8C338.8,458.7,340.1,460.2,342.2,460.2z M342.2,458.7c-0.9,0-1.5-0.6-1.5-1.7v-1.4c0-1.1,0.6-1.7,1.5-1.7
	c0.9,0,1.5,0.6,1.5,1.7v1.4C343.7,458.1,343.1,458.7,342.2,458.7z M349.7,460.2c1.8,0,3-1,3-2.4c0-1.2-0.8-1.9-2.4-2.2l-0.7-0.1
	c-0.7-0.1-1-0.3-1-0.8c0-0.4,0.3-0.8,1.1-0.8c0.7,0,1.3,0.3,1.8,0.8l1.1-1c-0.7-0.7-1.4-1.1-2.9-1.1c-1.7,0-2.8,0.9-2.8,2.3
	c0,1.3,0.9,2,2.4,2.2l0.7,0.1c0.6,0.1,0.9,0.3,0.9,0.8c0,0.5-0.4,0.8-1.2,0.8c-0.8,0-1.5-0.4-2-1l-1.1,1.1
	C347.4,459.7,348.3,460.2,349.7,460.2z M356.6,460h1.3v-1.4h-1.4v-4.5h1.5v-1.4h-1.5v-2h-1.6v1.2c0,0.5-0.2,0.8-0.7,0.8h-0.6v1.4
	h1.1v4C354.7,459.3,355.4,460,356.6,460z"/>
<rect x="392" y="432" class="st11" width="48" height="48"/>
<path class="st2" d="M419.1,456h-6.2c-0.3,0-0.6,0.1-0.9,0.4c-0.2,0.2-0.4,0.6-0.4,0.9v3.8c0,0.3,0.1,0.6,0.4,0.9
	c0.2,0.2,0.6,0.4,0.9,0.4h2.5v1.2h-1.9v1.2h5v-1.2h-1.9v-1.2h2.5c0.3,0,0.6-0.1,0.9-0.4c0.2-0.2,0.4-0.6,0.4-0.9v-3.8
	c0-0.3-0.1-0.6-0.4-0.9C419.8,456.1,419.5,456,419.1,456z M412.9,461v-3.8h6.2l0,3.8H412.9z"/>
<path class="st2" d="M422.1,452.3c-0.3-1.4-1-2.7-2.2-3.6c-1.1-0.9-2.5-1.4-4-1.4s-2.9,0.5-4,1.4c-1.1,0.9-1.9,2.2-2.2,3.6
	c-1.1,0.2-2.1,0.8-2.9,1.7c-0.7,0.9-1.1,2-1,3.2c0.1,1.1,0.5,2.2,1.3,3c0.8,0.8,1.9,1.3,3,1.4v-1.2c-0.9-0.1-1.7-0.5-2.2-1.1
	c-0.6-0.6-0.9-1.5-0.9-2.3c0-0.9,0.3-1.7,0.9-2.3c0.6-0.6,1.4-1,2.3-1.1l0.5,0l0.1-0.5c0.1-1.2,0.7-2.4,1.6-3.2
	c0.9-0.8,2.1-1.3,3.3-1.3s2.4,0.5,3.3,1.3c0.9,0.8,1.5,2,1.6,3.2l0.1,0.5l0.5,0c0.9,0.1,1.7,0.4,2.3,1.1c0.6,0.6,0.9,1.5,0.9,2.3
	c0,0.9-0.3,1.7-0.9,2.3c-0.6,0.6-1.4,1-2.2,1.1v1.2c1.1-0.1,2.2-0.6,3-1.4c0.8-0.8,1.3-1.9,1.3-3c0.1-1.1-0.3-2.3-1-3.2
	C424.3,453.1,423.3,452.5,422.1,452.3z"/>
<path d="M455.1,460h1.8v-9.8h-1.8v4H451v-4h-1.8v9.8h1.8v-4.1h4.1V460z M462.2,460.2c2.1,0,3.4-1.5,3.4-3.8c0-2.3-1.3-3.8-3.4-3.8
	c-2.1,0-3.4,1.5-3.4,3.8C458.8,458.7,460.1,460.2,462.2,460.2z M462.2,458.7c-0.9,0-1.5-0.6-1.5-1.7v-1.4c0-1.1,0.6-1.7,1.5-1.7
	c0.9,0,1.5,0.6,1.5,1.7v1.4C463.7,458.1,463.1,458.7,462.2,458.7z M469.7,460.2c1.8,0,3-1,3-2.4c0-1.2-0.8-1.9-2.4-2.2l-0.7-0.1
	c-0.7-0.1-1-0.3-1-0.8c0-0.4,0.3-0.8,1.1-0.8c0.7,0,1.3,0.3,1.8,0.8l1.1-1c-0.7-0.7-1.4-1.1-2.9-1.1c-1.7,0-2.8,0.9-2.8,2.3
	c0,1.3,0.9,2,2.4,2.2l0.7,0.1c0.6,0.1,0.9,0.3,0.9,0.8c0,0.5-0.4,0.8-1.2,0.8c-0.8,0-1.5-0.4-2-1l-1.1,1.1
	C467.4,459.7,468.3,460.2,469.7,460.2z M476.6,460h1.3v-1.4h-1.4v-4.5h1.5v-1.4h-1.5v-2h-1.6v1.2c0,0.5-0.2,0.8-0.7,0.8h-0.6v1.4
	h1.1v4C474.7,459.3,475.4,460,476.6,460z"/>
<rect x="512" y="432" class="st11" width="48" height="48"/>
<path class="st2" d="M539.1,456h-6.2c-0.3,0-0.6,0.1-0.9,0.4c-0.2,0.2-0.4,0.6-0.4,0.9v3.8c0,0.3,0.1,0.6,0.4,0.9
	c0.2,0.2,0.6,0.4,0.9,0.4h2.5v1.2h-1.9v1.2h5v-1.2h-1.9v-1.2h2.5c0.3,0,0.6-0.1,0.9-0.4c0.2-0.2,0.4-0.6,0.4-0.9v-3.8
	c0-0.3-0.1-0.6-0.4-0.9C539.8,456.1,539.5,456,539.1,456z M532.9,461v-3.8h6.2l0,3.8H532.9z"/>
<path class="st2" d="M542.1,452.3c-0.3-1.4-1-2.7-2.2-3.6c-1.1-0.9-2.5-1.4-4-1.4s-2.9,0.5-4,1.4c-1.1,0.9-1.9,2.2-2.2,3.6
	c-1.1,0.2-2.1,0.8-2.9,1.7c-0.7,0.9-1.1,2-1,3.2c0.1,1.1,0.5,2.2,1.3,3c0.8,0.8,1.9,1.3,3,1.4v-1.2c-0.9-0.1-1.7-0.5-2.2-1.1
	c-0.6-0.6-0.9-1.5-0.9-2.3c0-0.9,0.3-1.7,0.9-2.3c0.6-0.6,1.4-1,2.3-1.1l0.5,0l0.1-0.5c0.1-1.2,0.7-2.4,1.6-3.2
	c0.9-0.8,2.1-1.3,3.3-1.3s2.4,0.5,3.3,1.3c0.9,0.8,1.5,2,1.6,3.2l0.1,0.5l0.5,0c0.9,0.1,1.7,0.4,2.3,1.1c0.6,0.6,0.9,1.5,0.9,2.3
	c0,0.9-0.3,1.7-0.9,2.3c-0.6,0.6-1.4,1-2.2,1.1v1.2c1.1-0.1,2.2-0.6,3-1.4c0.8-0.8,1.3-1.9,1.3-3c0.1-1.1-0.3-2.3-1-3.2
	C544.3,453.1,543.3,452.5,542.1,452.3z"/>
<path d="M575.1,460h1.8v-9.8h-1.8v4H571v-4h-1.8v9.8h1.8v-4.1h4.1V460z M582.2,460.2c2.1,0,3.4-1.5,3.4-3.8c0-2.3-1.3-3.8-3.4-3.8
	c-2.1,0-3.4,1.5-3.4,3.8C578.8,458.7,580.1,460.2,582.2,460.2z M582.2,458.7c-0.9,0-1.5-0.6-1.5-1.7v-1.4c0-1.1,0.6-1.7,1.5-1.7
	c0.9,0,1.5,0.6,1.5,1.7v1.4C583.7,458.1,583.1,458.7,582.2,458.7z M589.7,460.2c1.8,0,3-1,3-2.4c0-1.2-0.8-1.9-2.4-2.2l-0.7-0.1
	c-0.7-0.1-1-0.3-1-0.8c0-0.4,0.3-0.8,1.1-0.8c0.7,0,1.3,0.3,1.8,0.8l1-1c-0.7-0.7-1.4-1.1-2.9-1.1c-1.7,0-2.8,0.9-2.8,2.3
	c0,1.3,0.9,2,2.4,2.2l0.7,0.1c0.6,0.1,0.9,0.3,0.9,0.8c0,0.5-0.4,0.8-1.2,0.8c-0.8,0-1.5-0.4-2-1l-1.1,1.1
	C587.4,459.7,588.3,460.2,589.7,460.2z M596.6,460h1.3v-1.4h-1.4v-4.5h1.5v-1.4h-1.5v-2h-1.6v1.2c0,0.5-0.2,0.8-0.7,0.8h-0.6v1.4
	h1.1v4C594.7,459.3,595.4,460,596.6,460z"/>
<rect x="632" y="432" class="st2" width="48" height="48"/>
<rect x="632.5" y="432.5" class="st16" width="47" height="47"/>
<rect x="635.5" y="435.5" class="st11" width="41" height="41"/>
<rect x="635.5" y="435.5" class="st17" width="41" height="41"/>
<path class="st2" d="M659.1,456h-6.2c-0.3,0-0.6,0.1-0.9,0.4c-0.2,0.2-0.4,0.6-0.4,0.9v3.8c0,0.3,0.1,0.6,0.4,0.9
	c0.2,0.2,0.6,0.4,0.9,0.4h2.5v1.2h-1.9v1.2h5v-1.2h-1.9v-1.2h2.5c0.3,0,0.6-0.1,0.9-0.4c0.2-0.2,0.4-0.6,0.4-0.9v-3.8
	c0-0.3-0.1-0.6-0.4-0.9C659.8,456.1,659.5,456,659.1,456z M652.9,461v-3.8h6.2l0,3.8H652.9z"/>
<path class="st2" d="M662.1,452.3c-0.3-1.4-1-2.7-2.2-3.6c-1.1-0.9-2.5-1.4-4-1.4s-2.9,0.5-4,1.4c-1.1,0.9-1.9,2.2-2.2,3.6
	c-1.1,0.2-2.1,0.8-2.9,1.7c-0.7,0.9-1.1,2-1,3.2c0.1,1.1,0.5,2.2,1.3,3c0.8,0.8,1.9,1.3,3,1.4v-1.2c-0.9-0.1-1.7-0.5-2.2-1.1
	c-0.6-0.6-0.9-1.5-0.9-2.3c0-0.9,0.3-1.7,0.9-2.3c0.6-0.6,1.4-1,2.3-1.1l0.5,0l0.1-0.5c0.1-1.2,0.7-2.4,1.6-3.2
	c0.9-0.8,2.1-1.3,3.3-1.3s2.4,0.5,3.3,1.3c0.9,0.8,1.5,2,1.6,3.2l0.1,0.5l0.5,0c0.9,0.1,1.7,0.4,2.3,1.1c0.6,0.6,0.9,1.5,0.9,2.3
	c0,0.9-0.3,1.7-0.9,2.3c-0.6,0.6-1.4,1-2.2,1.1v1.2c1.1-0.1,2.2-0.6,3-1.4c0.8-0.8,1.3-1.9,1.3-3c0.1-1.1-0.3-2.3-1-3.2
	C664.3,453.1,663.3,452.5,662.1,452.3z"/>
<path d="M695.1,460h1.8v-9.8h-1.8v4H691v-4h-1.8v9.8h1.8v-4.1h4.1V460z M702.2,460.2c2.1,0,3.4-1.5,3.4-3.8c0-2.3-1.3-3.8-3.4-3.8
	c-2.1,0-3.4,1.5-3.4,3.8C698.8,458.7,700.1,460.2,702.2,460.2z M702.2,458.7c-0.9,0-1.5-0.6-1.5-1.7v-1.4c0-1.1,0.6-1.7,1.5-1.7
	c0.9,0,1.5,0.6,1.5,1.7v1.4C703.7,458.1,703.1,458.7,702.2,458.7z M709.7,460.2c1.8,0,3-1,3-2.4c0-1.2-0.8-1.9-2.4-2.2l-0.7-0.1
	c-0.7-0.1-1-0.3-1-0.8c0-0.4,0.3-0.8,1.1-0.8c0.7,0,1.3,0.3,1.8,0.8l1-1c-0.7-0.7-1.4-1.1-2.9-1.1c-1.7,0-2.8,0.9-2.8,2.3
	c0,1.3,0.9,2,2.4,2.2l0.7,0.1c0.6,0.1,0.9,0.3,0.9,0.8c0,0.5-0.4,0.8-1.2,0.8c-0.8,0-1.5-0.4-2-1l-1.1,1.1
	C707.4,459.7,708.3,460.2,709.7,460.2z M716.6,460h1.3v-1.4h-1.4v-4.5h1.5v-1.4h-1.5v-2h-1.6v1.2c0,0.5-0.2,0.8-0.7,0.8h-0.6v1.4
	h1.1v4C714.7,459.3,715.4,460,716.6,460z"/>
<rect x="752" y="432" class="st4" width="48" height="48"/>
<path class="st2" d="M779.1,456h-6.2c-0.3,0-0.6,0.1-0.9,0.4c-0.2,0.2-0.4,0.6-0.4,0.9v3.8c0,0.3,0.1,0.6,0.4,0.9
	c0.2,0.2,0.6,0.4,0.9,0.4h2.5v1.2h-1.9v1.2h5v-1.2h-1.9v-1.2h2.5c0.3,0,0.6-0.1,0.9-0.4c0.2-0.2,0.4-0.6,0.4-0.9v-3.8
	c0-0.3-0.1-0.6-0.4-0.9C779.8,456.1,779.5,456,779.1,456z M772.9,461v-3.8h6.2l0,3.8H772.9z"/>
<path class="st2" d="M782.1,452.3c-0.3-1.4-1-2.7-2.2-3.6c-1.1-0.9-2.5-1.4-4-1.4s-2.9,0.5-4,1.4c-1.1,0.9-1.9,2.2-2.2,3.6
	c-1.1,0.2-2.1,0.8-2.9,1.7c-0.7,0.9-1.1,2-1,3.2c0.1,1.1,0.5,2.2,1.3,3c0.8,0.8,1.9,1.3,3,1.4v-1.2c-0.9-0.1-1.7-0.5-2.2-1.1
	c-0.6-0.6-0.9-1.5-0.9-2.3c0-0.9,0.3-1.7,0.9-2.3c0.6-0.6,1.4-1,2.3-1.1l0.5,0l0.1-0.5c0.1-1.2,0.7-2.4,1.6-3.2
	c0.9-0.8,2.1-1.3,3.3-1.3s2.4,0.5,3.3,1.3c0.9,0.8,1.5,2,1.6,3.2l0.1,0.5l0.5,0c0.9,0.1,1.7,0.4,2.3,1.1c0.6,0.6,0.9,1.5,0.9,2.3
	c0,0.9-0.3,1.7-0.9,2.3c-0.6,0.6-1.4,1-2.2,1.1v1.2c1.1-0.1,2.2-0.6,3-1.4c0.8-0.8,1.3-1.9,1.3-3c0.1-1.1-0.3-2.3-1-3.2
	C784.3,453.1,783.3,452.5,782.1,452.3z"/>
<path d="M815.1,460h1.8v-9.8h-1.8v4H811v-4h-1.8v9.8h1.8v-4.1h4.1V460z M822.2,460.2c2.1,0,3.4-1.5,3.4-3.8c0-2.3-1.3-3.8-3.4-3.8
	c-2.1,0-3.4,1.5-3.4,3.8C818.8,458.7,820.1,460.2,822.2,460.2z M822.2,458.7c-0.9,0-1.5-0.6-1.5-1.7v-1.4c0-1.1,0.6-1.7,1.5-1.7
	c0.9,0,1.5,0.6,1.5,1.7v1.4C823.7,458.1,823.1,458.7,822.2,458.7z M829.7,460.2c1.8,0,3-1,3-2.4c0-1.2-0.8-1.9-2.4-2.2l-0.7-0.1
	c-0.7-0.1-1-0.3-1-0.8c0-0.4,0.3-0.8,1.1-0.8c0.7,0,1.3,0.3,1.8,0.8l1-1c-0.7-0.7-1.4-1.1-2.9-1.1c-1.7,0-2.8,0.9-2.8,2.3
	c0,1.3,0.9,2,2.4,2.2l0.7,0.1c0.6,0.1,0.9,0.3,0.9,0.8c0,0.5-0.4,0.8-1.2,0.8c-0.8,0-1.5-0.4-2-1l-1.1,1.1
	C827.4,459.7,828.3,460.2,829.7,460.2z M836.6,460h1.3v-1.4h-1.4v-4.5h1.5v-1.4h-1.5v-2h-1.6v1.2c0,0.5-0.2,0.8-0.7,0.8h-0.6v1.4
	h1.1v4C834.7,459.3,835.4,460,836.6,460z"/>
<path class="st11" d="M656,384l-2.9,5h5.8L656,384z"/>
<path class="st11" d="M656.5,432v-2h-1v2H656.5z"/>
<path class="st11" d="M656.5,426v-4h-1v4H656.5z"/>
<path class="st11" d="M656.5,418v-4h-1v4H656.5z"/>
<path class="st11" d="M656.5,410v-4h-1v4H656.5z"/>
<path class="st11" d="M656.5,402v-4h-1v4H656.5z"/>
<path class="st11" d="M656.5,394v-4h-1v4H656.5z"/>
<path class="st11" d="M656.5,526v2h-1v-2H656.5z"/>
<path class="st11" d="M656.5,518v4h-1v-4H656.5z"/>
<path class="st11" d="M656.5,510v4h-1v-4H656.5z"/>
<path class="st11" d="M656.5,502v4h-1v-4H656.5z"/>
<path class="st11" d="M656.5,494v4h-1v-4H656.5z"/>
<path class="st11" d="M656.5,486v4h-1v-4H656.5z"/>
<path class="st11" d="M656.5,479v3h-1v-3H656.5z"/>
<path class="st11" d="M656.5,622v2h-1v-2H656.5z"/>
<path class="st11" d="M656.5,614v4h-1v-4H656.5z"/>
<path class="st11" d="M656.5,606v4h-1v-4H656.5z"/>
<path class="st11" d="M656.5,598v4h-1v-4H656.5z"/>
<path class="st11" d="M656.5,590v4h-1v-4H656.5z"/>
<path class="st11" d="M656.5,582v4h-1v-4H656.5z"/>
<path class="st11" d="M656.5,576v2h-1v-2H656.5z"/>
<path class="st8" d="M416,432l2.9-5h-5.8L416,432z M416.5,427.5V399h-1v28.5H416.5z"/>
<path class="st8" d="M536,432l2.9-5h-5.8L536,432z M536.5,427.5V399h-1v28.5H536.5z"/>
<path class="st8" d="M416,528l2.9-5h-5.8L416,528z M416,480l-2.9,5h5.8L416,480z M416.5,522v-4h-1v4H416.5z M416.5,514v-4h-1v4
	H416.5z M416.5,506v-4h-1v4H416.5z M416.5,498v-4h-1v4H416.5z M416.5,490v-4h-1v4H416.5z"/>
<path class="st8" d="M416,624l2.9-5h-5.8L416,624z M416,576l-2.9,5h5.8L416,576z M416.5,618v-4h-1v4H416.5z M416.5,610v-4h-1v4
	H416.5z M416.5,602v-4h-1v4H416.5z M416.5,594v-4h-1v4H416.5z M416.5,586v-4h-1v4H416.5z"/>
<path class="st8" d="M536,528l2.9-5h-5.8L536,528z M536,480l-2.9,5h5.8L536,480z M536.5,522v-4h-1v4H536.5z M536.5,514v-4h-1v4
	H536.5z M536.5,506v-4h-1v4H536.5z M536.5,498v-4h-1v4H536.5z M536.5,490v-4h-1v4H536.5z"/>
<path class="st8" d="M536,624l2.9-5h-5.8L536,624z M536,576l-2.9,5h5.8L536,576z M536.5,618v-4h-1v4H536.5z M536.5,610v-4h-1v4
	H536.5z M536.5,602v-4h-1v4H536.5z M536.5,594v-4h-1v4H536.5z M536.5,586v-4h-1v4H536.5z"/>
<path class="st18" d="M296,528l2.9-5h-5.8L296,528z M296,480l-2.9,5h5.8L296,480z M296.5,523.5v-39h-1v39H296.5z"/>
<path class="st18" d="M296,624l2.9-5h-5.8L296,624z M296,576l-2.9,5h5.8L296,576z M296.5,619.5v-39h-1v39H296.5z"/>
<path class="st18" d="M296,432l2.9-5h-5.8L296,432z M296,384l-2.9,5h5.8L296,384z M296.5,427.5v-39h-1v39H296.5z"/>
<rect x="632" y="336" class="st2" width="48" height="48"/>
<path class="st2" d="M640,336.5h32c4.1,0,7.5,3.4,7.5,7.5v32c0,4.1-3.4,7.5-7.5,7.5h-32c-4.1,0-7.5-3.4-7.5-7.5v-32
	C632.5,339.9,635.9,336.5,640,336.5z"/>
<path class="st19" d="M640,336.5h32c4.1,0,7.5,3.4,7.5,7.5v32c0,4.1-3.4,7.5-7.5,7.5h-32c-4.1,0-7.5-3.4-7.5-7.5v-32
	C632.5,339.9,635.9,336.5,640,336.5z"/>
<path class="st13" d="M641,339.5h30c3,0,5.5,2.5,5.5,5.5v30c0,3-2.5,5.5-5.5,5.5h-30c-3,0-5.5-2.5-5.5-5.5v-30
	C635.5,342,638,339.5,641,339.5z"/>
<path class="st2" d="M656,361.2h-6.2c-0.3,0-0.6-0.1-0.9-0.4c-0.2-0.2-0.4-0.6-0.4-0.9v-6.2c0-0.3,0.1-0.6,0.4-0.9
	c0.2-0.2,0.6-0.4,0.9-0.4h6.2c0.3,0,0.6,0.1,0.9,0.4c0.2,0.2,0.4,0.6,0.4,0.9v6.2c0,0.3-0.1,0.6-0.4,0.9
	C656.6,361.1,656.3,361.2,656,361.2z M649.8,353.8v6.2h6.2v-6.2H649.8z"/>
<path class="st2" d="M662.2,357.5v2.5h-2.5v-2.5H662.2z M662.2,356.2h-2.5c-0.3,0-0.6,0.1-0.9,0.4c-0.2,0.2-0.4,0.6-0.4,0.9v2.5
	c0,0.3,0.1,0.6,0.4,0.9c0.2,0.2,0.6,0.4,0.9,0.4h2.5c0.3,0,0.6-0.1,0.9-0.4c0.2-0.2,0.4-0.6,0.4-0.9v-2.5c0-0.3-0.1-0.6-0.4-0.9
	C662.9,356.4,662.6,356.2,662.2,356.2z"/>
<path class="st2" d="M662.2,363.8v2.5h-2.5v-2.5H662.2z M662.2,362.5h-2.5c-0.3,0-0.6,0.1-0.9,0.4c-0.2,0.2-0.4,0.6-0.4,0.9v2.5
	c0,0.3,0.1,0.6,0.4,0.9c0.2,0.2,0.6,0.4,0.9,0.4h2.5c0.3,0,0.6-0.1,0.9-0.4c0.2-0.2,0.4-0.6,0.4-0.9v-2.5c0-0.3-0.1-0.6-0.4-0.9
	C662.9,362.6,662.6,362.5,662.2,362.5z"/>
<path class="st2" d="M656,363.8v2.5h-2.5v-2.5H656z M656,362.5h-2.5c-0.3,0-0.6,0.1-0.9,0.4c-0.2,0.2-0.4,0.6-0.4,0.9v2.5
	c0,0.3,0.1,0.6,0.4,0.9c0.2,0.2,0.6,0.4,0.9,0.4h2.5c0.3,0,0.6-0.1,0.9-0.4c0.2-0.2,0.4-0.6,0.4-0.9v-2.5c0-0.3-0.1-0.6-0.4-0.9
	C656.6,362.6,656.3,362.5,656,362.5z"/>
<path d="M692.2,364.2c2.3,0,3.7-1.3,3.7-3.1c0-1.6-0.9-2.5-2.9-2.8L692,358c-0.9-0.2-1.4-0.5-1.4-1.2c0-0.7,0.5-1.1,1.6-1.1
	c1,0,1.7,0.4,2.2,1l1.3-1.2c-0.8-0.9-1.9-1.4-3.3-1.4c-2.2,0-3.5,1.1-3.5,2.9c0,1.6,1,2.5,2.9,2.8l0.9,0.1c1,0.2,1.3,0.6,1.3,1.2
	c0,0.8-0.6,1.4-1.7,1.4c-1,0-1.8-0.4-2.5-1.2l-1.2,1.2C689.4,363.5,690.5,364.2,692.2,364.2z M700.7,364.2c1.4,0,2.4-0.5,3-1.3
	l-1-1.1c-0.4,0.6-1,1-1.9,1c-1.2,0-1.8-0.7-1.8-1.8v-0.2h4.9v-0.6c0-2-1-3.7-3.3-3.7c-2.1,0-3.4,1.5-3.4,3.8
	C697.3,362.7,698.6,364.2,700.7,364.2z M700.7,357.9c0.9,0,1.4,0.7,1.4,1.7v0.1h-3v-0.1C699.1,358.6,699.7,357.9,700.7,357.9z
	 M707.5,364v-4.5c0-0.8,0.6-1.1,1.8-1.1h0.6v-1.7h-0.4c-1.2,0-1.8,0.7-1.9,1.5h-0.1v-1.5h-1.8v7.3H707.5z M715.2,364l2.5-7.3h-1.7
	l-1,3.2l-0.7,2.6h-0.1l-0.7-2.6l-1-3.2h-1.8l2.4,7.3H715.2z M719.9,355.6c0.7,0,1.1-0.4,1.1-0.9v-0.3c0-0.5-0.3-0.9-1.1-0.9
	c-0.7,0-1,0.4-1,0.9v0.3C718.8,355.2,719.1,355.6,719.9,355.6z M719,364h1.8v-7.3H719V364z M725.9,364.2c1.4,0,2.4-0.6,2.9-1.9
	l-1.4-0.7c-0.3,0.7-0.7,1.1-1.5,1.1c-1,0-1.5-0.7-1.5-1.7v-1.3c0-1,0.5-1.7,1.5-1.7c0.8,0,1.2,0.4,1.4,1.1l1.5-0.7
	c-0.4-1.1-1.4-1.8-2.9-1.8c-2.2,0-3.4,1.5-3.4,3.8C722.5,362.7,723.7,364.2,725.9,364.2z M733.2,364.2c1.4,0,2.4-0.5,3-1.3l-1-1.1
	c-0.4,0.6-1,1-1.9,1c-1.2,0-1.8-0.7-1.8-1.8v-0.2h4.9v-0.6c0-2-1.1-3.7-3.3-3.7c-2.1,0-3.4,1.5-3.4,3.8
	C729.8,362.7,731.1,364.2,733.2,364.2z M733.2,357.9c0.9,0,1.4,0.7,1.4,1.7v0.1h-3v-0.1C731.7,358.6,732.3,357.9,733.2,357.9z
	 M748.3,362.4h-4.8l2.1-1.7c1.4-1.1,2.5-2.2,2.5-3.8c0-1.7-1.2-2.9-3.2-2.9c-2,0-3,1.1-3.5,2.4l1.6,0.6c0.2-0.8,0.7-1.5,1.7-1.5
	c0.8,0,1.4,0.5,1.4,1.3v0.2c0,0.9-0.5,1.5-1.5,2.4l-3.1,2.7v1.7h6.8V362.4z"/>
<rect x="453" y="336" class="st2" width="48" height="48"/>
<path class="st2" d="M461,336.5h32c4.1,0,7.5,3.4,7.5,7.5v32c0,4.1-3.4,7.5-7.5,7.5h-32c-4.1,0-7.5-3.4-7.5-7.5v-32
	C453.5,339.9,456.9,336.5,461,336.5z"/>
<path class="st19" d="M461,336.5h32c4.1,0,7.5,3.4,7.5,7.5v32c0,4.1-3.4,7.5-7.5,7.5h-32c-4.1,0-7.5-3.4-7.5-7.5v-32
	C453.5,339.9,456.9,336.5,461,336.5z"/>
<path class="st13" d="M462,339.5h30c3,0,5.5,2.5,5.5,5.5v30c0,3-2.5,5.5-5.5,5.5h-30c-3,0-5.5-2.5-5.5-5.5v-30
	C456.5,342,459,339.5,462,339.5z"/>
<path class="st2" d="M477,361.2h-6.2c-0.3,0-0.6-0.1-0.9-0.4c-0.2-0.2-0.4-0.6-0.4-0.9v-6.2c0-0.3,0.1-0.6,0.4-0.9
	c0.2-0.2,0.6-0.4,0.9-0.4h6.2c0.3,0,0.6,0.1,0.9,0.4c0.2,0.2,0.4,0.6,0.4,0.9v6.2c0,0.3-0.1,0.6-0.4,0.9
	C477.6,361.1,477.3,361.2,477,361.2z M470.8,353.8v6.2h6.2v-6.2H470.8z"/>
<path class="st2" d="M483.2,357.5v2.5h-2.5v-2.5H483.2z M483.2,356.2h-2.5c-0.3,0-0.6,0.1-0.9,0.4c-0.2,0.2-0.4,0.6-0.4,0.9v2.5
	c0,0.3,0.1,0.6,0.4,0.9c0.2,0.2,0.6,0.4,0.9,0.4h2.5c0.3,0,0.6-0.1,0.9-0.4c0.2-0.2,0.4-0.6,0.4-0.9v-2.5c0-0.3-0.1-0.6-0.4-0.9
	C483.9,356.4,483.6,356.2,483.2,356.2z"/>
<path class="st2" d="M483.2,363.8v2.5h-2.5v-2.5H483.2z M483.2,362.5h-2.5c-0.3,0-0.6,0.1-0.9,0.4c-0.2,0.2-0.4,0.6-0.4,0.9v2.5
	c0,0.3,0.1,0.6,0.4,0.9c0.2,0.2,0.6,0.4,0.9,0.4h2.5c0.3,0,0.6-0.1,0.9-0.4c0.2-0.2,0.4-0.6,0.4-0.9v-2.5c0-0.3-0.1-0.6-0.4-0.9
	C483.9,362.6,483.6,362.5,483.2,362.5z"/>
<path class="st2" d="M477,363.8v2.5h-2.5v-2.5H477z M477,362.5h-2.5c-0.3,0-0.6,0.1-0.9,0.4c-0.2,0.2-0.4,0.6-0.4,0.9v2.5
	c0,0.3,0.1,0.6,0.4,0.9c0.2,0.2,0.6,0.4,0.9,0.4h2.5c0.3,0,0.6-0.1,0.9-0.4c0.2-0.2,0.4-0.6,0.4-0.9v-2.5c0-0.3-0.1-0.6-0.4-0.9
	C477.6,362.6,477.3,362.5,477,362.5z"/>
<path d="M513.2,364.2c2.3,0,3.7-1.3,3.7-3.1c0-1.6-0.9-2.5-2.9-2.8L513,358c-0.9-0.2-1.4-0.5-1.4-1.2c0-0.7,0.5-1.1,1.6-1.1
	c1,0,1.7,0.4,2.2,1l1.3-1.2c-0.8-0.9-1.9-1.4-3.3-1.4c-2.2,0-3.5,1.1-3.5,2.9c0,1.6,1,2.5,2.9,2.8l0.9,0.1c1,0.2,1.3,0.6,1.3,1.2
	c0,0.8-0.6,1.4-1.7,1.4c-1,0-1.8-0.4-2.5-1.2l-1.2,1.2C510.4,363.5,511.5,364.2,513.2,364.2z M521.7,364.2c1.4,0,2.4-0.5,3-1.3
	l-1-1.1c-0.4,0.6-1,1-1.9,1c-1.2,0-1.8-0.7-1.8-1.8v-0.2h4.9v-0.6c0-2-1-3.7-3.3-3.7c-2.1,0-3.4,1.5-3.4,3.8
	C518.3,362.7,519.6,364.2,521.7,364.2z M521.7,357.9c0.9,0,1.4,0.7,1.4,1.7v0.1h-3v-0.1C520.1,358.6,520.7,357.9,521.7,357.9z
	 M528.5,364v-4.5c0-0.8,0.6-1.1,1.8-1.1h0.6v-1.7h-0.4c-1.2,0-1.8,0.7-1.9,1.5h-0.1v-1.5h-1.8v7.3H528.5z M536.2,364l2.5-7.3h-1.7
	l-1,3.2l-0.7,2.6h-0.1l-0.7-2.6l-1-3.2h-1.8l2.4,7.3H536.2z M540.9,355.6c0.7,0,1.1-0.4,1.1-0.9v-0.3c0-0.5-0.3-0.9-1.1-0.9
	c-0.7,0-1,0.4-1,0.9v0.3C539.8,355.2,540.1,355.6,540.9,355.6z M540,364h1.8v-7.3H540V364z M546.9,364.2c1.4,0,2.4-0.6,2.9-1.9
	l-1.4-0.7c-0.3,0.7-0.7,1.1-1.5,1.1c-1,0-1.5-0.7-1.5-1.7v-1.3c0-1,0.5-1.7,1.5-1.7c0.8,0,1.2,0.4,1.4,1.1l1.5-0.7
	c-0.4-1.1-1.4-1.8-2.9-1.8c-2.2,0-3.4,1.5-3.4,3.8C543.5,362.7,544.7,364.2,546.9,364.2z M554.2,364.2c1.4,0,2.4-0.5,3-1.3l-1-1.1
	c-0.4,0.6-1,1-1.9,1c-1.2,0-1.8-0.7-1.8-1.8v-0.2h4.9v-0.6c0-2-1.1-3.7-3.3-3.7c-2.1,0-3.4,1.5-3.4,3.8
	C550.8,362.7,552.1,364.2,554.2,364.2z M554.2,357.9c0.9,0,1.4,0.7,1.4,1.7v0.1h-3v-0.1C552.7,358.6,553.3,357.9,554.2,357.9z
	 M569.7,364v-1.5h-2.2v-8.3h-2.8l-2.4,2.9l1.1,1l2.1-2.5h0.1v6.9H563v1.5H569.7z"/>
<path class="st9" d="M200.5,52.5H236c4.4,0,8,3.6,8,8V96"/>
<path class="st9" d="M204.5,48.5H240c4.4,0,8,3.6,8,8V92"/>
<path class="st8" d="M200,56h32c4.4,0,8,3.6,8,8v32c0,4.4-3.6,8-8,8h-32c-4.4,0-8-3.6-8-8V64C192,59.6,195.6,56,200,56z"/>
<path class="st2" d="M216,83.8V80h-3.8v-3.8h-5v12.5h12.5v-5H216z M214.8,81.2v2.5h-2.5v-2.5H214.8z M208.5,77.5h2.5V80h-2.5V77.5z
	 M211,81.2v2.5h-2.5v-2.5H211z M208.5,87.5V85h2.5v2.5H208.5z M214.8,87.5h-2.5V85h2.5V87.5z M218.5,87.5H216V85h2.5V87.5z"/>
<path class="st2" d="M224.5,78.5l-1.6,1.6v-3.9h1.9v-5h-5v5h1.9v3.9l-1.6-1.6l-0.9,0.9l3.1,3.1l3.1-3.1L224.5,78.5z M221,72.5h2.5
	V75H221V72.5z"/>
<path d="M213.9,126.2c2.2,0,3.5-1.4,3.5-3.4c0-1.8-1.2-3-2.9-3c-1.2,0-1.8,0.7-2.2,1.4l-0.1,0c0.4-2,1.8-3.3,4.1-5h-2.5
	c-1.6,1.1-3.5,3.3-3.5,6.1C210.3,124.7,211.6,126.2,213.9,126.2z M213.9,124.7c-1,0-1.7-0.6-1.7-1.7v-0.2c0-1.1,0.6-1.7,1.7-1.7
	c1,0,1.7,0.6,1.7,1.7v0.2C215.5,124.1,214.9,124.7,213.9,124.7z M220.3,126.2c0.8,0,1.1-0.4,1.1-1v-0.3c0-0.6-0.3-1-1.1-1
	c-0.8,0-1.1,0.4-1.1,1v0.3C219.2,125.7,219.5,126.2,220.3,126.2z"/>
<path d="M182.6,144l-3.4-9.8h-1.5l-3.4,9.8h1.2l1-2.9h3.9l1,2.9H182.6z M180.1,140.1h-3.4l1.7-4.8h0.1L180.1,140.1z M186.4,144.2
	c1.7,0,2.7-0.9,2.7-2.3c0-1.1-0.6-1.8-2.2-2l-0.6-0.1c-0.9-0.1-1.4-0.4-1.4-1.1c0-0.7,0.5-1.1,1.4-1.1s1.5,0.4,1.9,0.9l0.7-0.7
	c-0.6-0.7-1.4-1.2-2.5-1.2c-1.5,0-2.6,0.7-2.6,2.1c0,1.3,1,1.9,2.3,2.1l0.6,0.1c1,0.1,1.3,0.6,1.3,1.1c0,0.7-0.6,1.2-1.5,1.2
	c-0.9,0-1.6-0.4-2.1-1.1l-0.8,0.6C184.2,143.6,185.1,144.2,186.4,144.2z M193.3,144.2c1.7,0,2.7-0.9,2.7-2.3c0-1.1-0.6-1.8-2.2-2
	l-0.6-0.1c-0.9-0.1-1.4-0.4-1.4-1.1c0-0.7,0.5-1.1,1.4-1.1c0.9,0,1.5,0.4,1.9,0.9l0.7-0.7c-0.6-0.7-1.4-1.2-2.5-1.2
	c-1.5,0-2.6,0.7-2.6,2.1c0,1.3,1,1.9,2.3,2.1l0.6,0.1c1,0.1,1.3,0.6,1.3,1.1c0,0.7-0.6,1.2-1.5,1.2c-0.9,0-1.6-0.4-2.1-1.1l-0.8,0.6
	C191.1,143.6,192,144.2,193.3,144.2z M198.7,135.1c0.5,0,0.7-0.3,0.7-0.6v-0.2c0-0.4-0.2-0.6-0.7-0.6s-0.7,0.3-0.7,0.6v0.2
	C198,134.8,198.2,135.1,198.7,135.1z M198.1,144h1.1v-7.2h-1.1V144z M207.9,144.8c0-1.2-0.8-1.9-2.6-1.9h-1.5
	c-0.7,0-1.1-0.1-1.1-0.5c0-0.4,0.5-0.7,1-0.8c0.2,0,0.5,0.1,0.7,0.1c1.7,0,2.7-1,2.7-2.5c0-0.8-0.3-1.4-0.8-1.9v-0.5h1.4v-1h-1.1
	c-0.6,0-0.8,0.4-0.8,1v0.1c-0.4-0.2-0.9-0.3-1.4-0.3c-1.6,0-2.7,1-2.7,2.5c0,1,0.5,1.8,1.4,2.2v0.1c-0.7,0.2-1.2,0.5-1.2,1.3
	c0,0.5,0.2,0.8,0.6,1v0.2c-0.7,0.2-1.1,0.6-1.1,1.4c0,1.1,0.9,1.8,3.2,1.8C206.7,147,207.9,146.3,207.9,144.8z M206.8,144.9
	c0,0.8-0.7,1.2-2,1.2h-1c-1.1,0-1.6-0.5-1.6-1.1c0-0.4,0.2-0.8,0.7-1h2.4C206.4,143.9,206.8,144.3,206.8,144.9z M204.3,140.7
	c-1,0-1.6-0.4-1.6-1.4v-0.4c0-1,0.6-1.4,1.6-1.4s1.6,0.4,1.6,1.4v0.4C205.9,140.2,205.3,140.7,204.3,140.7z M210.5,144v-5
	c0-0.9,0.9-1.4,1.8-1.4c1.1,0,1.6,0.7,1.6,1.9v4.4h1.1v-4.6c0-1.8-0.9-2.8-2.4-2.8c-1.1,0-1.7,0.5-2,1.3h-0.1v-1.2h-1.1v7.2H210.5z
	 M220.9,144h1.1v-5c0-0.9,0.9-1.4,1.8-1.4c1.1,0,1.6,0.7,1.6,1.9v4.4h1.1v-4.6c0-1.8-0.9-2.8-2.4-2.8c-1.1,0-1.7,0.5-2,1.3H222v-4.3
	h-1.1V144z M231.8,144.2c1.9,0,3.3-1.5,3.3-3.8s-1.3-3.8-3.3-3.8s-3.3,1.5-3.3,3.8S229.8,144.2,231.8,144.2z M231.8,143.2
	c-1.2,0-2.1-0.7-2.1-2.3v-1c0-1.5,0.9-2.3,2.1-2.3s2.1,0.7,2.1,2.3v1C233.8,142.4,233,143.2,231.8,143.2z M239.2,144.2
	c1.7,0,2.7-0.9,2.7-2.3c0-1.1-0.6-1.8-2.2-2l-0.6-0.1c-0.9-0.1-1.4-0.4-1.4-1.1c0-0.7,0.5-1.1,1.4-1.1s1.5,0.4,1.9,0.9l0.7-0.7
	c-0.6-0.7-1.4-1.2-2.5-1.2c-1.5,0-2.6,0.7-2.6,2.1c0,1.3,1,1.9,2.3,2.1l0.6,0.1c1,0.1,1.3,0.6,1.3,1.1c0,0.7-0.6,1.2-1.5,1.2
	c-0.9,0-1.6-0.4-2.1-1.1l-0.8,0.6C237,143.6,237.9,144.2,239.2,144.2z M246.9,144v-1h-1.5v-5.3h1.6v-1h-1.6v-2h-1v1.3
	c0,0.5-0.2,0.7-0.6,0.7h-0.7v1h1.2v5.1c0,0.7,0.4,1.2,1.2,1.2H246.9z M251.2,144.2c1.7,0,2.7-0.9,2.7-2.3c0-1.1-0.6-1.8-2.2-2
	l-0.6-0.1c-0.9-0.1-1.4-0.4-1.4-1.1c0-0.7,0.5-1.1,1.4-1.1s1.5,0.4,1.9,0.9l0.7-0.7c-0.6-0.7-1.4-1.2-2.5-1.2
	c-1.5,0-2.6,0.7-2.6,2.1c0,1.3,1,1.9,2.3,2.1l0.6,0.1c1,0.1,1.3,0.6,1.3,1.1c0,0.7-0.6,1.2-1.5,1.2c-0.9,0-1.6-0.4-2.1-1.1l-0.8,0.6
	C248.9,143.6,249.8,144.2,251.2,144.2z M185.6,162v-1h-1.5v-5.3h1.6v-1h-1.6v-2h-1v1.3c0,0.5-0.2,0.7-0.6,0.7h-0.7v1h1.2v5.1
	c0,0.7,0.4,1.2,1.2,1.2H185.6z M190.3,162.2c1.9,0,3.3-1.5,3.3-3.8s-1.3-3.8-3.3-3.8c-1.9,0-3.3,1.5-3.3,3.8
	S188.4,162.2,190.3,162.2z M190.3,161.2c-1.2,0-2.1-0.7-2.1-2.3v-1c0-1.5,0.9-2.3,2.1-2.3c1.2,0,2.1,0.7,2.1,2.3v1
	C192.4,160.4,191.5,161.2,190.3,161.2z M201.2,162.2c1.7,0,2.7-0.9,2.7-2.3c0-1.1-0.6-1.8-2.2-2l-0.6-0.1c-0.9-0.1-1.4-0.4-1.4-1.1
	c0-0.7,0.5-1.1,1.4-1.1s1.5,0.4,1.9,0.9l0.7-0.7c-0.6-0.7-1.4-1.2-2.5-1.2c-1.5,0-2.6,0.7-2.6,2.1c0,1.3,1,1.9,2.3,2.1l0.6,0.1
	c1,0.1,1.3,0.6,1.3,1.1c0,0.7-0.6,1.2-1.5,1.2c-0.9,0-1.6-0.4-2.1-1.1l-0.8,0.6C199,161.6,199.9,162.2,201.2,162.2z M208.7,162.2
	c1.4,0,2.4-0.7,2.9-1.7l-0.8-0.6c-0.4,0.8-1.1,1.2-2,1.2c-1.3,0-2.1-0.9-2.1-2.2v-0.3h5.2v-0.5c0-2-1.2-3.5-3.1-3.5
	c-2,0-3.2,1.5-3.2,3.8S206.8,162.2,208.7,162.2z M208.7,155.5c1.1,0,1.9,0.9,1.9,2.1v0.2h-4v-0.1
	C206.7,156.5,207.5,155.5,208.7,155.5z M215,162v-4.9c0-0.7,0.7-1.2,1.9-1.2h0.7v-1.1h-0.4c-1.2,0-1.8,0.6-2.1,1.3H215v-1.3h-1.1
	v7.2H215z M222.2,162l2.5-7.2h-1.1l-1.3,3.6l-0.8,2.5h-0.1l-0.8-2.5l-1.3-3.6h-1.1l2.5,7.2H222.2z M226.9,153.1
	c0.5,0,0.7-0.3,0.7-0.6v-0.2c0-0.4-0.2-0.6-0.7-0.6s-0.7,0.3-0.7,0.6v0.2C226.2,152.8,226.4,153.1,226.9,153.1z M226.4,162h1.1v-7.2
	h-1.1V162z M232.7,162.2c1.4,0,2.3-0.7,2.8-1.7l-0.8-0.5c-0.4,0.8-1.1,1.3-2,1.3c-1.3,0-2-0.9-2-2.2v-1.2c0-1.3,0.7-2.2,2-2.2
	c0.9,0,1.5,0.4,1.8,1.2l0.9-0.5c-0.4-1-1.3-1.7-2.7-1.7c-2,0-3.2,1.5-3.2,3.8S230.7,162.2,232.7,162.2z M239.9,162.2
	c1.4,0,2.4-0.7,2.9-1.7l-0.8-0.6c-0.4,0.8-1.1,1.2-2,1.2c-1.3,0-2.1-0.9-2.1-2.2v-0.3h5.2v-0.5c0-2-1.2-3.5-3.1-3.5
	c-2,0-3.2,1.5-3.2,3.8S237.9,162.2,239.9,162.2z M239.9,155.5c1.1,0,1.9,0.9,1.9,2.1v0.2h-4v-0.1
	C237.8,156.5,238.6,155.5,239.9,155.5z M247.2,162.2c1.7,0,2.7-0.9,2.7-2.3c0-1.1-0.6-1.8-2.2-2l-0.6-0.1c-0.9-0.1-1.4-0.4-1.4-1.1
	c0-0.7,0.5-1.1,1.4-1.1c0.9,0,1.5,0.4,1.9,0.9l0.7-0.7c-0.6-0.7-1.4-1.2-2.5-1.2c-1.5,0-2.6,0.7-2.6,2.1c0,1.3,1,1.9,2.3,2.1
	l0.6,0.1c1,0.1,1.3,0.6,1.3,1.1c0,0.7-0.6,1.2-1.5,1.2c-0.9,0-1.6-0.4-2.1-1.1l-0.8,0.6C244.9,161.6,245.8,162.2,247.2,162.2z"/>
<path class="st2" d="M60,68.5h64c6.4,0,11.5,5.1,11.5,11.5l0,0c0,6.4-5.1,11.5-11.5,11.5H60c-6.4,0-11.5-5.1-11.5-11.5l0,0
	C48.5,73.6,53.6,68.5,60,68.5z"/>
<path class="st20" d="M58.1,84v-3.8h3.6v-0.9h-3.6v-2.8h4v-0.9h-5V84H58.1z M64.8,84v-4.2c0-0.6,0.6-1,1.7-1H67v-1h-0.4
	c-1,0-1.6,0.6-1.8,1.1h-0.1v-1.1h-1V84H64.8z M70.8,84.1c1.7,0,2.8-1.3,2.8-3.2s-1.1-3.2-2.8-3.2S68,78.9,68,80.9
	S69.2,84.1,70.8,84.1z M70.8,83.3c-1,0-1.8-0.6-1.8-1.9v-0.9c0-1.3,0.7-1.9,1.8-1.9s1.8,0.6,1.8,1.9v0.9
	C72.6,82.7,71.8,83.3,70.8,83.3z M76.5,84v-4.3c0-0.8,0.7-1.2,1.5-1.2c0.9,0,1.3,0.6,1.3,1.7V84h1v-4.3c0-0.8,0.7-1.2,1.5-1.2
	c0.9,0,1.4,0.6,1.4,1.7V84h1v-4c0-1.5-0.8-2.4-2-2.4c-1.1,0-1.7,0.6-1.9,1.3h0c-0.3-0.9-1.1-1.3-1.9-1.3c-1,0-1.4,0.5-1.7,1.2h0v-1
	h-1V84H76.5z M91.3,84.1c1.4,0,2.3-0.7,2.3-1.9c0-0.9-0.5-1.5-1.9-1.7l-0.5-0.1c-0.8-0.1-1.2-0.4-1.2-1c0-0.6,0.4-1,1.2-1
	s1.3,0.4,1.6,0.8l0.6-0.6c-0.5-0.6-1.2-1-2.2-1c-1.3,0-2.2,0.6-2.2,1.8c0,1.2,0.9,1.6,2,1.8l0.5,0.1c0.8,0.1,1.1,0.5,1.1,1
	c0,0.6-0.5,1-1.3,1c-0.8,0-1.4-0.3-1.8-0.9l-0.7,0.6C89.4,83.7,90.2,84.1,91.3,84.1z M98.1,84v-0.8h-1.3v-4.5h1.4v-0.8h-1.4v-1.7H96
	v1.2c0,0.4-0.1,0.6-0.5,0.6h-0.6v0.8h1V83c0,0.6,0.4,1,1,1H98.1z M102.4,84.1c1.2,0,2.1-0.6,2.4-1.4l-0.7-0.5
	c-0.3,0.7-0.9,1.1-1.7,1.1c-1.2,0-1.8-0.8-1.8-1.9v-0.3h4.5v-0.5c0-1.8-1-3-2.7-3c-1.7,0-2.8,1.3-2.8,3.2S100.7,84.1,102.4,84.1z
	 M102.4,78.5c1,0,1.6,0.7,1.6,1.8v0.1h-3.4v-0.1C100.6,79.3,101.3,78.5,102.4,78.5z M106.9,86.4h1V83h0c0.4,0.8,1,1.2,1.8,1.2
	c1.5,0,2.5-1.3,2.5-3.2c0-2-1-3.2-2.5-3.2c-0.9,0-1.5,0.4-1.8,1.2h0v-1h-1V86.4z M109.5,83.3c-0.9,0-1.6-0.5-1.6-1.3v-2.3
	c0-0.7,0.7-1.2,1.6-1.2c1.1,0,1.8,0.7,1.8,1.8v1.1C111.2,82.5,110.6,83.3,109.5,83.3z M122.3,75.6h-4.5l-0.3,4.6l0.9,0.1
	c0.3-0.4,0.7-0.7,1.5-0.7c1.1,0,1.8,0.6,1.8,1.7v0.1c0,1.1-0.6,1.7-1.8,1.7c-1,0-1.4-0.4-1.9-1.1l-0.8,0.6c0.5,0.7,1.2,1.4,2.6,1.4
	c1.8,0,2.8-1.1,2.8-2.8c0-1.6-1.1-2.6-2.5-2.6c-0.9,0-1.3,0.4-1.7,0.9h-0.1l0.2-3.2h3.7V75.6z M125.5,84.1c0.5,0,0.7-0.3,0.7-0.7
	v-0.2c0-0.4-0.2-0.7-0.7-0.7s-0.7,0.3-0.7,0.7v0.2C124.8,83.9,125,84.1,125.5,84.1z"/>
<path class="st21" d="M60,68.5h64c6.4,0,11.5,5.1,11.5,11.5l0,0c0,6.4-5.1,11.5-11.5,11.5H60c-6.4,0-11.5-5.1-11.5-11.5l0,0
	C48.5,73.6,53.6,68.5,60,68.5z"/>
<path class="st22" d="M48.5,767.5v-15h15v15H48.5z"/>
<path class="st22" d="M51.5,755.5h9v9h-9V755.5z"/>
<path class="st23" d="M81.7,765l-3.4-9.8h-1.5l-3.4,9.8h1.2l1-2.9h3.9l1,2.9H81.7z M79.1,761.1h-3.4l1.7-4.8h0.1L79.1,761.1z
	 M87.9,765h1.1v-10.4h-1.1v4.3h-0.1c-0.4-0.9-1.1-1.3-2.1-1.3c-1.8,0-2.9,1.5-2.9,3.8s1.1,3.8,2.9,3.8c1,0,1.7-0.4,2.1-1.3h0.1V765z
	 M86.1,764.2c-1.3,0-2-0.9-2-2.2v-1.2c0-1.3,0.8-2.2,2-2.2c1,0,1.9,0.6,1.9,1.4v2.7C87.9,763.6,87.1,764.2,86.1,764.2z M96.2,765
	h1.1v-10.4h-1.1v4.3h-0.1c-0.4-0.9-1.1-1.3-2.1-1.3c-1.8,0-2.9,1.5-2.9,3.8s1.1,3.8,2.9,3.8c1,0,1.7-0.4,2.1-1.3h0.1V765z
	 M94.4,764.2c-1.3,0-2-0.9-2-2.2v-1.2c0-1.3,0.8-2.2,2-2.2c1,0,1.9,0.6,1.9,1.4v2.7C96.2,763.6,95.4,764.2,94.4,764.2z M102.6,765.2
	c1.4,0,2.4-0.7,2.9-1.7l-0.8-0.6c-0.4,0.8-1.1,1.2-2,1.2c-1.3,0-2.1-0.9-2.1-2.2v-0.3h5.2v-0.5c0-2-1.2-3.5-3.1-3.5
	c-2,0-3.2,1.5-3.2,3.8S100.6,765.2,102.6,765.2z M102.6,758.5c1.1,0,1.9,0.9,1.9,2.1v0.2h-4v-0.1
	C100.5,759.5,101.4,758.5,102.6,758.5z M112.3,765h1.1v-10.4h-1.1v4.3h-0.1c-0.4-0.9-1.1-1.3-2.1-1.3c-1.8,0-2.9,1.5-2.9,3.8
	s1.1,3.8,2.9,3.8c1,0,1.7-0.4,2.1-1.3h0.1V765z M110.5,764.2c-1.3,0-2-0.9-2-2.2v-1.2c0-1.3,0.8-2.2,2-2.2c1,0,1.9,0.6,1.9,1.4v2.7
	C112.3,763.6,111.5,764.2,110.5,764.2z"/>
<rect x="131.5" y="752.5" class="st0" width="15" height="15"/>
<rect x="131.5" y="752.5" class="st24" width="15" height="15"/>
<path class="st23" d="M159.7,765.2c1.6,0,2.8-0.9,3.4-2.2l-0.9-0.6c-0.4,1.1-1.2,1.8-2.5,1.8c-1.7,0-2.7-1.2-2.7-3.2v-1.5
	c0-2,1-3.3,2.7-3.3c1.2,0,2,0.7,2.4,1.7l1-0.6c-0.6-1.4-1.7-2.1-3.4-2.1c-2.5,0-3.9,1.8-3.9,5.1
	C155.8,763.4,157.3,765.2,159.7,765.2z M165,765h1.1v-5c0-0.9,0.9-1.4,1.8-1.4c1.1,0,1.6,0.7,1.6,1.9v4.4h1.1v-4.6
	c0-1.8-0.9-2.8-2.4-2.8c-1.1,0-1.7,0.5-2,1.3h-0.1v-4.3H165V765z M179,765v-1h-0.8v-4c0-1.5-1-2.4-2.8-2.4c-1.3,0-2.2,0.6-2.6,1.4
	l0.7,0.6c0.4-0.7,1-1.1,1.8-1.1c1.1,0,1.7,0.6,1.7,1.6v0.7h-1.4c-2.1,0-3.1,0.8-3.1,2.1c0,1.3,0.9,2.2,2.4,2.2c1,0,1.8-0.5,2.1-1.3
	h0.1c0.1,0.7,0.4,1.2,1.2,1.2H179z M175.2,764.2c-0.9,0-1.4-0.4-1.4-1.1v-0.3c0-0.7,0.6-1.1,1.8-1.1h1.5v1.2
	C177.1,763.6,176.3,764.2,175.2,764.2z M181.9,765v-5c0-0.9,0.9-1.4,1.8-1.4c1.1,0,1.6,0.7,1.6,1.9v4.4h1.1v-4.6
	c0-1.8-0.9-2.8-2.4-2.8c-1.1,0-1.7,0.5-2,1.3h-0.1v-1.2h-1.1v7.2H181.9z M195,765.8c0-1.2-0.8-1.9-2.6-1.9h-1.5
	c-0.7,0-1.1-0.1-1.1-0.5c0-0.4,0.5-0.7,1-0.8c0.2,0,0.5,0.1,0.7,0.1c1.7,0,2.7-1,2.7-2.5c0-0.8-0.3-1.4-0.8-1.9v-0.5h1.4v-1h-1.1
	c-0.6,0-0.8,0.4-0.8,1v0.1c-0.4-0.2-0.9-0.3-1.4-0.3c-1.6,0-2.7,1-2.7,2.5c0,1,0.5,1.8,1.4,2.2v0.1c-0.7,0.2-1.2,0.5-1.2,1.3
	c0,0.5,0.2,0.8,0.6,1v0.2c-0.7,0.2-1.1,0.6-1.1,1.4c0,1.1,0.9,1.8,3.2,1.8C193.8,768,195,767.3,195,765.8z M194,765.9
	c0,0.8-0.7,1.2-2,1.2h-1c-1.1,0-1.6-0.5-1.6-1.1c0-0.4,0.2-0.8,0.7-1h2.4C193.6,764.9,194,765.3,194,765.9z M191.5,761.7
	c-1,0-1.6-0.4-1.6-1.4v-0.4c0-1,0.6-1.4,1.6-1.4c1,0,1.6,0.4,1.6,1.4v0.4C193,761.2,192.4,761.7,191.5,761.7z M199.1,765.2
	c1.4,0,2.4-0.7,2.9-1.7l-0.8-0.6c-0.4,0.8-1.1,1.2-2,1.2c-1.3,0-2.1-0.9-2.1-2.2v-0.3h5.2v-0.5c0-2-1.2-3.5-3.1-3.5
	c-2,0-3.2,1.5-3.2,3.8S197.1,765.2,199.1,765.2z M199.1,758.5c1.1,0,1.9,0.9,1.9,2.1v0.2h-4v-0.1C197,759.5,197.9,758.5,199.1,758.5
	z M208.9,765h1.1v-10.4h-1.1v4.3h-0.1c-0.4-0.9-1.1-1.3-2.1-1.3c-1.8,0-2.9,1.5-2.9,3.8s1.1,3.8,2.9,3.8c1,0,1.7-0.4,2.1-1.3h0.1
	V765z M207,764.2c-1.3,0-2-0.9-2-2.2v-1.2c0-1.3,0.8-2.2,2-2.2c1,0,1.9,0.6,1.9,1.4v2.7C208.9,763.6,208,764.2,207,764.2z"/>
<path class="st25" d="M232,752.5h8c1.9,0,3.5,1.6,3.5,3.5v8c0,1.9-1.6,3.5-3.5,3.5h-8c-1.9,0-3.5-1.6-3.5-3.5v-8
	C228.5,754.1,230.1,752.5,232,752.5z"/>
<path class="st3" d="M232,752.5h8c1.9,0,3.5,1.6,3.5,3.5v8c0,1.9-1.6,3.5-3.5,3.5h-8c-1.9,0-3.5-1.6-3.5-3.5v-8
	C228.5,754.1,230.1,752.5,232,752.5z"/>
<path class="st23" d="M258.6,765v-1h-4.2v-8.7h-1.2v9.8H258.6z M263,765.2c1.9,0,3.3-1.5,3.3-3.8s-1.3-3.8-3.3-3.8s-3.3,1.5-3.3,3.8
	S261,765.2,263,765.2z M263,764.2c-1.2,0-2.1-0.7-2.1-2.3v-1c0-1.5,0.9-2.3,2.1-2.3s2.1,0.7,2.1,2.3v1
	C265,763.4,264.2,764.2,263,764.2z M274.3,765.8c0-1.2-0.8-1.9-2.6-1.9h-1.5c-0.7,0-1.1-0.1-1.1-0.5c0-0.4,0.5-0.7,1-0.8
	c0.2,0,0.5,0.1,0.7,0.1c1.7,0,2.7-1,2.7-2.5c0-0.8-0.3-1.4-0.8-1.9v-0.5h1.4v-1H273c-0.6,0-0.8,0.4-0.8,1v0.1
	c-0.4-0.2-0.9-0.3-1.4-0.3c-1.6,0-2.7,1-2.7,2.5c0,1,0.5,1.8,1.4,2.2v0.1c-0.7,0.2-1.2,0.5-1.2,1.3c0,0.5,0.2,0.8,0.6,1v0.2
	c-0.7,0.2-1.1,0.6-1.1,1.4c0,1.1,0.9,1.8,3.2,1.8C273.1,768,274.3,767.3,274.3,765.8z M273.3,765.9c0,0.8-0.7,1.2-2,1.2h-1
	c-1.1,0-1.6-0.5-1.6-1.1c0-0.4,0.2-0.8,0.7-1h2.4C272.9,764.9,273.3,765.3,273.3,765.9z M270.8,761.7c-1,0-1.6-0.4-1.6-1.4v-0.4
	c0-1,0.6-1.4,1.6-1.4s1.6,0.4,1.6,1.4v0.4C272.3,761.2,271.7,761.7,270.8,761.7z M276.3,756.1c0.5,0,0.7-0.3,0.7-0.6v-0.2
	c0-0.4-0.2-0.6-0.7-0.6c-0.5,0-0.7,0.3-0.7,0.6v0.2C275.7,755.8,275.9,756.1,276.3,756.1z M275.8,765h1.1v-7.2h-1.1V765z
	 M282.1,765.2c1.4,0,2.3-0.7,2.8-1.7l-0.8-0.5c-0.4,0.8-1,1.3-2,1.3c-1.3,0-2-0.9-2-2.2v-1.2c0-1.3,0.7-2.2,2-2.2
	c0.9,0,1.5,0.4,1.8,1.2l0.9-0.5c-0.4-1-1.3-1.7-2.7-1.7c-2,0-3.2,1.5-3.2,3.8S280.1,765.2,282.1,765.2z M292.5,765v-1h-0.8v-4
	c0-1.5-1-2.4-2.8-2.4c-1.3,0-2.2,0.6-2.6,1.4l0.7,0.6c0.4-0.7,1-1.1,1.8-1.1c1.1,0,1.7,0.6,1.7,1.6v0.7h-1.4c-2.1,0-3.1,0.8-3.1,2.1
	c0,1.3,0.9,2.2,2.4,2.2c1,0,1.8-0.5,2.1-1.3h0.1c0.1,0.7,0.4,1.2,1.2,1.2H292.5z M288.7,764.2c-0.9,0-1.4-0.4-1.4-1.1v-0.3
	c0-0.7,0.6-1.1,1.8-1.1h1.5v1.2C290.6,763.6,289.8,764.2,288.7,764.2z M296.5,765v-1h-1.1v-9.4h-1.1v9.2c0,0.7,0.4,1.2,1.2,1.2
	H296.5z M302.8,765v-5c0-0.9,0.9-1.4,1.8-1.4c1.1,0,1.6,0.7,1.6,1.9v4.4h1.1v-4.6c0-1.8-0.9-2.8-2.4-2.8c-1.1,0-1.7,0.5-2,1.3h-0.1
	v-1.2h-1.1v7.2H302.8z M312.6,765.2c1.9,0,3.3-1.5,3.3-3.8s-1.3-3.8-3.3-3.8c-1.9,0-3.3,1.5-3.3,3.8S310.6,765.2,312.6,765.2z
	 M312.6,764.2c-1.2,0-2.1-0.7-2.1-2.3v-1c0-1.5,0.9-2.3,2.1-2.3c1.2,0,2.1,0.7,2.1,2.3v1C314.6,763.4,313.8,764.2,312.6,764.2z
	 M322.5,765h1.1v-10.4h-1.1v4.3h-0.1c-0.4-0.9-1.1-1.3-2.1-1.3c-1.8,0-2.9,1.5-2.9,3.8s1.1,3.8,2.9,3.8c1,0,1.7-0.4,2.1-1.3h0.1V765
	z M320.6,764.2c-1.3,0-2-0.9-2-2.2v-1.2c0-1.3,0.8-2.2,2-2.2c1,0,1.9,0.6,1.9,1.4v2.7C322.5,763.6,321.6,764.2,320.6,764.2z
	 M328.8,765.2c1.4,0,2.4-0.7,2.9-1.7l-0.8-0.6c-0.4,0.8-1.1,1.2-2,1.2c-1.3,0-2.1-0.9-2.1-2.2v-0.3h5.2v-0.5c0-2-1.2-3.5-3.1-3.5
	c-2,0-3.2,1.5-3.2,3.8S326.9,765.2,328.8,765.2z M328.8,758.5c1.1,0,1.9,0.9,1.9,2.1v0.2h-4v-0.1
	C326.8,759.5,327.6,758.5,328.8,758.5z"/>
<rect x="349.5" y="752.5" class="st0" width="15" height="15"/>
<rect x="349.5" y="752.5" class="st3" width="15" height="15"/>
<path class="st23" d="M375.5,765v-4.2h2.7c1.8,0,2.7-1.1,2.7-2.8s-1-2.8-2.7-2.8h-3.9v9.8H375.5z M375.5,756.3h2.7
	c0.9,0,1.5,0.5,1.5,1.4v0.7c0,0.9-0.5,1.4-1.5,1.4h-2.7V756.3z M383.8,765v-4.9c0-0.7,0.7-1.2,1.9-1.2h0.7v-1.1H386
	c-1.2,0-1.8,0.6-2.1,1.3h-0.1v-1.3h-1.1v7.2H383.8z M390.7,765.2c1.4,0,2.4-0.7,2.9-1.7l-0.8-0.6c-0.4,0.8-1.1,1.2-2,1.2
	c-1.3,0-2.1-0.9-2.1-2.2v-0.3h5.2v-0.5c0-2-1.2-3.5-3.1-3.5c-2,0-3.2,1.5-3.2,3.8S388.7,765.2,390.7,765.2z M390.7,758.5
	c1.1,0,1.9,0.9,1.9,2.1v0.2h-4v-0.1C388.6,759.5,389.4,758.5,390.7,758.5z M397.9,765.2c1.7,0,2.7-0.9,2.7-2.3c0-1.1-0.6-1.8-2.2-2
	l-0.6-0.1c-0.9-0.1-1.4-0.4-1.4-1.1c0-0.7,0.5-1.1,1.4-1.1s1.5,0.4,1.9,0.9l0.7-0.7c-0.6-0.7-1.4-1.2-2.5-1.2
	c-1.5,0-2.6,0.7-2.6,2.1c0,1.3,1,1.9,2.3,2.1l0.6,0.1c1,0.1,1.3,0.6,1.3,1.1c0,0.7-0.6,1.2-1.5,1.2c-0.9,0-1.6-0.4-2.1-1.1l-0.8,0.6
	C395.7,764.6,396.6,765.2,397.9,765.2z M405.5,765.2c1.4,0,2.3-0.7,2.8-1.7l-0.8-0.5c-0.4,0.8-1.1,1.3-2,1.3c-1.3,0-2-0.9-2-2.2
	v-1.2c0-1.3,0.7-2.2,2-2.2c0.9,0,1.5,0.4,1.8,1.2l0.9-0.5c-0.4-1-1.3-1.7-2.7-1.7c-2,0-3.2,1.5-3.2,3.8S403.4,765.2,405.5,765.2z
	 M411.1,765v-4.9c0-0.7,0.7-1.2,1.9-1.2h0.7v-1.1h-0.4c-1.2,0-1.8,0.6-2.1,1.3h-0.1v-1.3H410v7.2H411.1z M415.8,756.1
	c0.5,0,0.7-0.3,0.7-0.6v-0.2c0-0.4-0.2-0.6-0.7-0.6s-0.7,0.3-0.7,0.6v0.2C415.1,755.8,415.3,756.1,415.8,756.1z M415.3,765h1.1v-7.2
	h-1.1V765z M418.9,765h1.1v-1.2h0.1c0.4,0.9,1.1,1.3,2.1,1.3c1.8,0,2.9-1.5,2.9-3.8s-1.1-3.8-2.9-3.8c-1,0-1.7,0.4-2.1,1.3H420v-4.3
	h-1.1V765z M421.9,764.2c-1,0-1.9-0.5-1.9-1.5V760c0-0.8,0.8-1.4,1.9-1.4c1.3,0,2,0.9,2,2.2v1.2
	C423.9,763.3,423.2,764.2,421.9,764.2z M429.9,765.2c1.4,0,2.4-0.7,2.9-1.7l-0.8-0.6c-0.4,0.8-1.1,1.2-2,1.2c-1.3,0-2.1-0.9-2.1-2.2
	v-0.3h5.2v-0.5c0-2-1.2-3.5-3.1-3.5c-2,0-3.2,1.5-3.2,3.8S428,765.2,429.9,765.2z M429.9,758.5c1.1,0,1.9,0.9,1.9,2.1v0.2h-4v-0.1
	C427.8,759.5,428.7,758.5,429.9,758.5z M439.7,765h1.1v-10.4h-1.1v4.3h-0.1c-0.4-0.9-1.1-1.3-2.1-1.3c-1.8,0-2.9,1.5-2.9,3.8
	s1.1,3.8,2.9,3.8c1,0,1.7-0.4,2.1-1.3h0.1V765z M437.8,764.2c-1.3,0-2-0.9-2-2.2v-1.2c0-1.3,0.8-2.2,2-2.2c1,0,1.9,0.6,1.9,1.4v2.7
	C439.7,763.6,438.8,764.2,437.8,764.2z M447.9,765v-5c0-0.9,0.9-1.4,1.8-1.4c1.1,0,1.6,0.7,1.6,1.9v4.4h1.1v-4.6
	c0-1.8-0.9-2.8-2.4-2.8c-1.1,0-1.7,0.5-2,1.3h-0.1v-1.2h-1.1v7.2H447.9z M457.6,765.2c1.9,0,3.3-1.5,3.3-3.8s-1.3-3.8-3.3-3.8
	c-1.9,0-3.3,1.5-3.3,3.8S455.7,765.2,457.6,765.2z M457.6,764.2c-1.2,0-2.1-0.7-2.1-2.3v-1c0-1.5,0.9-2.3,2.1-2.3
	c1.2,0,2.1,0.7,2.1,2.3v1C459.7,763.4,458.8,764.2,457.6,764.2z M467.5,765h1.1v-10.4h-1.1v4.3h-0.1c-0.4-0.9-1.1-1.3-2.1-1.3
	c-1.8,0-2.9,1.5-2.9,3.8s1.1,3.8,2.9,3.8c1,0,1.7-0.4,2.1-1.3h0.1V765z M465.7,764.2c-1.3,0-2-0.9-2-2.2v-1.2c0-1.3,0.8-2.2,2-2.2
	c1,0,1.9,0.6,1.9,1.4v2.7C467.5,763.6,466.7,764.2,465.7,764.2z M473.9,765.2c1.4,0,2.4-0.7,2.9-1.7l-0.8-0.6
	c-0.4,0.8-1.1,1.2-2,1.2c-1.3,0-2.1-0.9-2.1-2.2v-0.3h5.2v-0.5c0-2-1.2-3.5-3.1-3.5c-2,0-3.2,1.5-3.2,3.8S471.9,765.2,473.9,765.2z
	 M473.9,758.5c1.1,0,1.9,0.9,1.9,2.1v0.2h-4v-0.1C471.8,759.5,472.7,758.5,473.9,758.5z"/>
</svg>
