<?xml version="1.0" encoding="utf-8"?>
<!-- Generator: Adobe Illustrator 26.5.0, SVG Export Plug-In . SVG Version: 6.00 Build 0)  -->
<svg version="1.1" id="Layer_1" xmlns="http://www.w3.org/2000/svg" xmlns:xlink="http://www.w3.org/1999/xlink" x="0px" y="0px"
	 viewBox="0 0 1080 810" style="enable-background:new 0 0 1080 810;" xml:space="preserve">
<style type="text/css">
	.st0{fill:#F4F4F4;}
	.st1{fill:#FFFFFF;}
	.st2{fill:none;stroke:#8D8D8D;}
	.st3{fill:#8D8D8D;}
	.st4{fill:#FFFFFF;filter:url(#Adobe_OpacityMaskFilter);}
	.st5{mask:url(#path-2-inside-1_2695_17572_00000113348984334534058100000001650052326926866347_);fill:#8D8D8D;}
	.st6{clip-path:url(#SVGID_00000161618630336991743130000002772969241326587814_);}
	.st7{fill:#EE5396;}
	.st8{fill:#FFFFFF;stroke:#EE5396;stroke-dasharray:4,4;}
	.st9{fill:#EE5396;stroke:#EE5396;}
	.st10{clip-path:url(#SVGID_00000151528474825349802190000013409998498237901488_);}
	.st11{clip-path:url(#SVGID_00000144311565412217796240000000173997559091580042_);}
	.st12{fill:#525252;}
	.st13{fill:#9F1853;}
	.st14{fill:#F4F4F4;stroke:#8D8D8D;}
	.st15{fill:none;stroke:#EE5396;}
	.st16{fill:#565151;}
	.st17{fill:none;stroke:#000000;}
	.st18{fill:none;stroke:#9F1853;}
	.st19{fill:none;stroke:#565151;}
</style>
<rect class="st0" width="1080" height="810"/>
<rect x="144.5" y="224.5" class="st1" width="775" height="511"/>
<rect x="144.5" y="224.5" class="st2" width="775" height="511"/>
<path class="st3" d="M148,224h-4v48h4V224z"/>
<path d="M165.2,253v-1.5h-1.3v-6.8h1.3v-1.5h-4.4v1.5h1.3v6.8h-1.3v1.5H165.2z M168.9,253v-4.8c0-0.8,0.7-1.2,1.5-1.2
	c0.9,0,1.2,0.5,1.2,1.6v4.4h1.8v-4.6c0-1.8-0.8-2.9-2.3-2.9c-1.1,0-1.8,0.6-2,1.4h-0.1v-1.2h-1.8v7.3H168.9z M175.9,253h1.8v-5.9
	h1.5v-1.4h-1.5v-1.6h1.5v-1.4h-1.3c-1.3,0-2,0.7-2,2v1.1h-1.1v1.4h1.1V253z M182.4,253v-4.5c0-0.8,0.6-1.1,1.8-1.1h0.6v-1.7h-0.4
	c-1.2,0-1.8,0.7-1.9,1.5h-0.1v-1.5h-1.8v7.3H182.4z M187.9,253.2c1.1,0,1.9-0.5,2.1-1.4h0.1c0.1,0.8,0.6,1.3,1.4,1.3h1v-1.4h-0.7
	v-3.4c0-1.7-1.1-2.6-3-2.6c-1.5,0-2.3,0.6-2.9,1.4l1.1,1c0.3-0.5,0.8-0.9,1.7-0.9c1,0,1.4,0.5,1.4,1.3v0.5h-1.2
	c-2,0-3.1,0.7-3.1,2.2C185.5,252.3,186.4,253.2,187.9,253.2z M188.5,251.9c-0.7,0-1.1-0.3-1.1-0.9v-0.2c0-0.6,0.5-0.9,1.4-0.9h1.1v1
	C189.9,251.5,189.3,251.9,188.5,251.9z M196.4,253.2c1.8,0,3-1,3-2.4c0-1.2-0.8-1.9-2.4-2.2l-0.7-0.1c-0.7-0.1-1-0.3-1-0.8
	c0-0.4,0.3-0.8,1.1-0.8c0.7,0,1.3,0.3,1.8,0.8l1.1-1.1c-0.7-0.7-1.4-1.1-2.9-1.1c-1.7,0-2.8,0.9-2.8,2.3c0,1.3,0.9,2,2.4,2.2
	l0.7,0.1c0.6,0.1,0.9,0.4,0.9,0.8c0,0.5-0.4,0.8-1.2,0.8c-0.8,0-1.5-0.4-2-1l-1.1,1.1C194.1,252.7,195.1,253.2,196.4,253.2z
	 M203.4,253h1.3v-1.4h-1.4v-4.5h1.5v-1.4h-1.5v-2h-1.6v1.2c0,0.5-0.2,0.8-0.7,0.8h-0.6v1.4h1.1v4C201.5,252.3,202.1,253,203.4,253z
	 M208.3,253v-4.5c0-0.8,0.6-1.1,1.8-1.1h0.6v-1.7h-0.4c-1.2,0-1.8,0.7-1.9,1.5h-0.1v-1.5h-1.8v7.3H208.3z M216.5,253h1.8v-7.3h-1.8
	v4.8c0,0.8-0.7,1.2-1.4,1.2c-0.9,0-1.2-0.5-1.2-1.6v-4.4h-1.8v4.6c0,1.8,0.8,2.9,2.3,2.9c1.2,0,1.8-0.7,2-1.4h0.1V253z M223.4,253.2
	c1.4,0,2.4-0.6,2.9-1.9l-1.4-0.7c-0.3,0.7-0.7,1.1-1.5,1.1c-1,0-1.5-0.7-1.5-1.7v-1.3c0-1,0.5-1.7,1.5-1.7c0.8,0,1.2,0.4,1.4,1.1
	l1.5-0.7c-0.4-1.1-1.4-1.8-2.9-1.8c-2.2,0-3.4,1.5-3.4,3.8C220,251.7,221.3,253.2,223.4,253.2z M230.1,253h1.3v-1.4H230v-4.5h1.5
	v-1.4H230v-2h-1.6v1.2c0,0.5-0.2,0.8-0.7,0.8h-0.6v1.4h1.1v4C228.3,252.3,228.9,253,230.1,253z M237.6,253h1.8v-7.3h-1.8v4.8
	c0,0.8-0.7,1.2-1.4,1.2c-0.9,0-1.2-0.5-1.2-1.6v-4.4h-1.8v4.6c0,1.8,0.8,2.9,2.3,2.9c1.2,0,1.8-0.7,2-1.4h0.1V253z M243.4,253v-4.5
	c0-0.8,0.6-1.1,1.8-1.1h0.6v-1.7h-0.4c-1.2,0-1.8,0.7-1.9,1.5h-0.1v-1.5h-1.8v7.3H243.4z M250.2,253.2c1.4,0,2.4-0.5,3-1.3l-1-1.1
	c-0.4,0.6-1,1-1.9,1c-1.2,0-1.8-0.7-1.8-1.8v-0.2h4.9v-0.6c0-2-1-3.7-3.3-3.7c-2.1,0-3.4,1.5-3.4,3.8
	C246.7,251.7,248,253.2,250.2,253.2z M250.2,246.9c0.9,0,1.4,0.7,1.4,1.7v0.1h-3v-0.1C248.6,247.6,249.2,246.9,250.2,246.9z"/>
<defs>
	<filter id="Adobe_OpacityMaskFilter" filterUnits="userSpaceOnUse" x="144" y="223" width="777" height="49">
		<feColorMatrix  type="matrix" values="1 0 0 0 0  0 1 0 0 0  0 0 1 0 0  0 0 0 1 0"/>
	</filter>
</defs>
<mask maskUnits="userSpaceOnUse" x="144" y="223" width="777" height="49" id="path-2-inside-1_2695_17572_00000113348984334534058100000001650052326926866347_">
	<path class="st4" d="M144,224h776v48H144V224z"/>
</mask>
<path class="st5" d="M920,224h1v-1h-1V224z M144,225h776v-2H144V225z M919,224v48h2v-48H919z"/>
<path class="st0" d="M160.5,288.5H896c4.1,0,7.5,3.4,7.5,7.5v416c0,4.1-3.4,7.5-7.5,7.5H168c-4.1,0-7.5-3.4-7.5-7.5V288.5z"/>
<path class="st2" d="M160.5,288.5H896c4.1,0,7.5,3.4,7.5,7.5v416c0,4.1-3.4,7.5-7.5,7.5H168c-4.1,0-7.5-3.4-7.5-7.5V288.5z"/>
<path class="st3" d="M164,288h-4v48h4V288z"/>
<path d="M182.8,317v-1.6H179v-8.1h-1.8v9.8H182.8z M187.3,317.2c2.1,0,3.4-1.5,3.4-3.8c0-2.3-1.3-3.8-3.4-3.8
	c-2.1,0-3.4,1.5-3.4,3.8C183.9,315.7,185.2,317.2,187.3,317.2z M187.3,315.7c-0.9,0-1.5-0.6-1.5-1.7v-1.4c0-1.1,0.6-1.7,1.5-1.7
	c0.9,0,1.5,0.6,1.5,1.7v1.4C188.8,315.1,188.2,315.7,187.3,315.7z M195.3,317.2c1.4,0,2.4-0.6,2.9-1.9l-1.4-0.7
	c-0.3,0.7-0.7,1.1-1.5,1.1c-1,0-1.5-0.7-1.5-1.7v-1.3c0-1,0.5-1.7,1.5-1.7c0.8,0,1.2,0.4,1.4,1.1l1.5-0.7c-0.4-1.1-1.4-1.8-2.9-1.8
	c-2.2,0-3.4,1.5-3.4,3.8C191.9,315.7,193.1,317.2,195.3,317.2z M201.6,317.2c1.1,0,1.9-0.5,2.1-1.4h0.1c0.1,0.8,0.6,1.3,1.4,1.3h1
	v-1.4h-0.7v-3.4c0-1.7-1.1-2.6-3-2.6c-1.5,0-2.3,0.6-2.9,1.4l1.1,1c0.3-0.5,0.8-0.9,1.7-0.9c1,0,1.4,0.5,1.4,1.3v0.5h-1.2
	c-2,0-3.1,0.7-3.1,2.2C199.2,316.3,200.1,317.2,201.6,317.2z M202.2,315.9c-0.7,0-1.1-0.3-1.1-0.9v-0.2c0-0.6,0.5-0.9,1.4-0.9h1.1v1
	C203.6,315.5,203,315.9,202.2,315.9z M210,317h1.3v-1.4h-1.4v-4.5h1.5v-1.4h-1.5v-2h-1.6v1.2c0,0.5-0.2,0.8-0.7,0.8H207v1.4h1.1v4
	C208.1,316.3,208.7,317,210,317z M214,308.6c0.7,0,1.1-0.4,1.1-0.9v-0.3c0-0.5-0.3-0.9-1.1-0.9c-0.7,0-1.1,0.4-1.1,0.9v0.3
	C212.9,308.2,213.2,308.6,214,308.6z M213.1,317h1.8v-7.3h-1.8V317z M220,317.2c2.1,0,3.4-1.5,3.4-3.8c0-2.3-1.3-3.8-3.4-3.8
	c-2.1,0-3.4,1.5-3.4,3.8C216.6,315.7,217.9,317.2,220,317.2z M220,315.7c-0.9,0-1.5-0.6-1.5-1.7v-1.4c0-1.1,0.6-1.7,1.5-1.7
	c0.9,0,1.5,0.6,1.5,1.7v1.4C221.5,315.1,220.9,315.7,220,315.7z M226.9,317v-4.8c0-0.8,0.7-1.2,1.5-1.2c0.9,0,1.2,0.5,1.2,1.6v4.4
	h1.8v-4.6c0-1.8-0.8-2.9-2.3-2.9c-1.1,0-1.8,0.6-2,1.4h-0.1v-1.2h-1.8v7.3H226.9z"/>
<rect x="176.5" y="624.5" class="st1" width="711" height="79"/>
<g>
	<defs>
		<rect id="SVGID_1_" x="176" y="624" width="77" height="48"/>
	</defs>
	<clipPath id="SVGID_00000181796398464055677960000002159601821433041542_">
		<use xlink:href="#SVGID_1_"  style="overflow:visible;"/>
	</clipPath>
	<g style="clip-path:url(#SVGID_00000181796398464055677960000002159601821433041542_);">
		<path d="M199.9,651.3h-5.2l5.1-6.5v-1.7h-6.9v1.6h4.8l-5.1,6.5v1.7h7.3V651.3z M204.4,653.1c2.1,0,3.4-1.5,3.4-3.8
			c0-2.3-1.3-3.8-3.4-3.8c-2.1,0-3.4,1.5-3.4,3.8C201,651.6,202.3,653.1,204.4,653.1z M204.4,651.7c-0.9,0-1.5-0.6-1.5-1.7v-1.4
			c0-1.1,0.6-1.7,1.5-1.7c0.9,0,1.5,0.6,1.5,1.7v1.4C205.9,651.1,205.3,651.7,204.4,651.7z M211.3,653v-4.8c0-0.8,0.7-1.2,1.5-1.2
			c0.9,0,1.2,0.5,1.2,1.6v4.4h1.8v-4.6c0-1.8-0.8-2.9-2.3-2.9c-1.1,0-1.8,0.6-2,1.4h-0.1v-1.2h-1.8v7.3H211.3z M220.9,653.1
			c1.4,0,2.4-0.5,3-1.3l-1-1.1c-0.4,0.6-1,1-1.9,1c-1.2,0-1.8-0.7-1.8-1.8v-0.2h4.9v-0.6c0-2-1-3.7-3.3-3.7c-2.1,0-3.4,1.5-3.4,3.8
			C217.5,651.6,218.7,653.1,220.9,653.1z M220.9,646.8c0.9,0,1.4,0.7,1.4,1.7v0.1h-3v-0.1C219.3,647.5,219.9,646.8,220.9,646.8z
			 M231,647.1v1.5h1c1.2,0,1.8,0.5,1.8,1.4v0.1c0,0.9-0.6,1.5-1.7,1.5c-1.1,0-1.7-0.6-2.1-1.3l-1.4,1c0.6,1,1.6,1.8,3.5,1.8
			c2.2,0,3.6-1.1,3.6-2.9c0-1.4-0.9-2.2-2-2.4v-0.1c1-0.2,1.9-1,1.9-2.2c0-1.6-1.3-2.5-3.3-2.5c-1.7,0-2.6,0.7-3.2,1.6l1.2,1.1
			c0.5-0.7,1.1-1.2,2-1.2c0.9,0,1.4,0.5,1.4,1.3v0.1c0,0.7-0.5,1.2-1.6,1.2H231z"/>
	</g>
</g>
<rect x="176.5" y="624.5" class="st2" width="711" height="79"/>
<rect x="273" y="640" class="st1" width="48" height="48"/>
<rect x="273.5" y="640.5" class="st0" width="47" height="47"/>
<rect x="273.5" y="640.5" class="st2" width="47" height="47"/>
<path d="M300.1,664h-6.2c-0.3,0-0.6,0.1-0.9,0.4c-0.2,0.2-0.4,0.6-0.4,0.9v3.8c0,0.3,0.1,0.6,0.4,0.9c0.2,0.2,0.6,0.4,0.9,0.4h2.5
	v1.2h-1.9v1.2h5v-1.2h-1.9v-1.2h2.5c0.3,0,0.6-0.1,0.9-0.4c0.2-0.2,0.4-0.6,0.4-0.9v-3.8c0-0.3-0.1-0.6-0.4-0.9
	C300.8,664.1,300.5,664,300.1,664z M293.9,669v-3.8h6.2l0,3.8H293.9z"/>
<path d="M303.1,660.3c-0.3-1.4-1-2.7-2.2-3.6c-1.1-0.9-2.5-1.4-4-1.4s-2.9,0.5-4,1.4c-1.1,0.9-1.9,2.2-2.2,3.6
	c-1.1,0.2-2.1,0.8-2.9,1.7c-0.7,0.9-1.1,2-1,3.2c0.1,1.1,0.5,2.2,1.3,3c0.8,0.8,1.9,1.3,3,1.4v-1.2c-0.9-0.1-1.7-0.5-2.2-1.1
	c-0.6-0.6-0.9-1.5-0.9-2.3c0-0.9,0.3-1.7,0.9-2.3c0.6-0.6,1.4-1,2.3-1.1l0.5,0l0.1-0.5c0.1-1.2,0.7-2.4,1.6-3.2
	c0.9-0.8,2.1-1.3,3.3-1.3s2.4,0.5,3.3,1.3c0.9,0.8,1.5,2,1.6,3.2l0.1,0.5l0.5,0c0.9,0.1,1.7,0.4,2.3,1.1c0.6,0.6,0.9,1.5,0.9,2.3
	c0,0.9-0.3,1.7-0.9,2.3c-0.6,0.6-1.4,1-2.2,1.1v1.2c1.1-0.1,2.2-0.6,3-1.4c0.8-0.8,1.3-1.9,1.3-3c0.1-1.1-0.3-2.3-1-3.2
	C305.3,661.1,304.3,660.5,303.1,660.3z"/>
<path d="M336.1,668h1.8v-9.8h-1.8v4H332v-4h-1.8v9.8h1.8v-4.1h4.1V668z M343.2,668.1c2.1,0,3.4-1.5,3.4-3.8c0-2.3-1.3-3.8-3.4-3.8
	c-2.1,0-3.4,1.5-3.4,3.8C339.8,666.6,341.1,668.1,343.2,668.1z M343.2,666.7c-0.9,0-1.5-0.6-1.5-1.7v-1.4c0-1.1,0.6-1.7,1.5-1.7
	c0.9,0,1.5,0.6,1.5,1.7v1.4C344.7,666.1,344.1,666.7,343.2,666.7z M350.7,668.1c1.8,0,3-1,3-2.4c0-1.2-0.8-1.9-2.4-2.2l-0.7-0.1
	c-0.7-0.1-1-0.3-1-0.8c0-0.4,0.3-0.8,1.1-0.8c0.7,0,1.3,0.3,1.8,0.8l1.1-1c-0.7-0.7-1.4-1.1-2.9-1.1c-1.7,0-2.8,0.9-2.8,2.3
	c0,1.3,0.9,2,2.4,2.2l0.7,0.1c0.6,0.1,0.9,0.4,0.9,0.8c0,0.5-0.4,0.8-1.2,0.8c-0.8,0-1.5-0.4-2-1l-1.1,1.1
	C348.4,667.6,349.3,668.1,350.7,668.1z M357.6,668h1.3v-1.4h-1.4v-4.5h1.5v-1.4h-1.5v-2h-1.6v1.2c0,0.5-0.2,0.8-0.7,0.8h-0.6v1.4
	h1.1v4C355.7,667.3,356.4,668,357.6,668z"/>
<rect x="396" y="640" class="st1" width="48" height="48"/>
<rect x="396" y="640" class="st7" width="48" height="48"/>
<path class="st1" d="M423.1,664h-6.2c-0.3,0-0.6,0.1-0.9,0.4c-0.2,0.2-0.4,0.6-0.4,0.9v3.8c0,0.3,0.1,0.6,0.4,0.9
	c0.2,0.2,0.6,0.4,0.9,0.4h2.5v1.2h-1.9v1.2h5v-1.2h-1.9v-1.2h2.5c0.3,0,0.6-0.1,0.9-0.4c0.2-0.2,0.4-0.6,0.4-0.9v-3.8
	c0-0.3-0.1-0.6-0.4-0.9C423.8,664.1,423.5,664,423.1,664z M416.9,669v-3.8h6.2l0,3.8H416.9z"/>
<path class="st1" d="M426.1,660.3c-0.3-1.4-1-2.7-2.2-3.6c-1.1-0.9-2.5-1.4-4-1.4s-2.9,0.5-4,1.4c-1.1,0.9-1.9,2.2-2.2,3.6
	c-1.1,0.2-2.1,0.8-2.9,1.7c-0.7,0.9-1.1,2-1,3.2c0.1,1.1,0.5,2.2,1.3,3c0.8,0.8,1.9,1.3,3,1.4v-1.2c-0.9-0.1-1.7-0.5-2.2-1.1
	c-0.6-0.6-0.9-1.5-0.9-2.3c0-0.9,0.3-1.7,0.9-2.3c0.6-0.6,1.4-1,2.3-1.1l0.5,0l0.1-0.5c0.1-1.2,0.7-2.4,1.6-3.2
	c0.9-0.8,2.1-1.3,3.3-1.3s2.4,0.5,3.3,1.3c0.9,0.8,1.5,2,1.6,3.2l0.1,0.5l0.5,0c0.9,0.1,1.7,0.4,2.3,1.1c0.6,0.6,0.9,1.5,0.9,2.3
	c0,0.9-0.3,1.7-0.9,2.3c-0.6,0.6-1.4,1-2.2,1.1v1.2c1.1-0.1,2.2-0.6,3-1.4c0.8-0.8,1.3-1.9,1.3-3c0.1-1.1-0.3-2.3-1-3.2
	C428.3,661.1,427.3,660.5,426.1,660.3z"/>
<path d="M459.1,668h1.8v-9.8h-1.8v4H455v-4h-1.8v9.8h1.8v-4.1h4.1V668z M466.2,668.1c2.1,0,3.4-1.5,3.4-3.8c0-2.3-1.3-3.8-3.4-3.8
	c-2.1,0-3.4,1.5-3.4,3.8C462.8,666.6,464.1,668.1,466.2,668.1z M466.2,666.7c-0.9,0-1.5-0.6-1.5-1.7v-1.4c0-1.1,0.6-1.7,1.5-1.7
	c0.9,0,1.5,0.6,1.5,1.7v1.4C467.7,666.1,467.1,666.7,466.2,666.7z M473.7,668.1c1.8,0,3-1,3-2.4c0-1.2-0.8-1.9-2.4-2.2l-0.7-0.1
	c-0.7-0.1-1-0.3-1-0.8c0-0.4,0.3-0.8,1.1-0.8c0.7,0,1.3,0.3,1.8,0.8l1.1-1c-0.7-0.7-1.4-1.1-2.9-1.1c-1.7,0-2.8,0.9-2.8,2.3
	c0,1.3,0.9,2,2.4,2.2l0.7,0.1c0.6,0.1,0.9,0.4,0.9,0.8c0,0.5-0.4,0.8-1.2,0.8c-0.8,0-1.5-0.4-2-1l-1.1,1.1
	C471.4,667.6,472.3,668.1,473.7,668.1z M480.6,668h1.3v-1.4h-1.4v-4.5h1.5v-1.4h-1.5v-2h-1.6v1.2c0,0.5-0.2,0.8-0.7,0.8h-0.6v1.4
	h1.1v4C478.7,667.3,479.4,668,480.6,668z"/>
<rect x="519" y="640" class="st1" width="48" height="48"/>
<rect x="519" y="640" class="st7" width="48" height="48"/>
<path class="st1" d="M546.1,664h-6.2c-0.3,0-0.6,0.1-0.9,0.4c-0.2,0.2-0.4,0.6-0.4,0.9v3.8c0,0.3,0.1,0.6,0.4,0.9
	c0.2,0.2,0.6,0.4,0.9,0.4h2.5v1.2h-1.9v1.2h5v-1.2h-1.9v-1.2h2.5c0.3,0,0.6-0.1,0.9-0.4c0.2-0.2,0.4-0.6,0.4-0.9v-3.8
	c0-0.3-0.1-0.6-0.4-0.9C546.8,664.1,546.5,664,546.1,664z M539.9,669v-3.8h6.2l0,3.8H539.9z"/>
<path class="st1" d="M549.1,660.3c-0.3-1.4-1-2.7-2.2-3.6c-1.1-0.9-2.5-1.4-4-1.4s-2.9,0.5-4,1.4c-1.1,0.9-1.9,2.2-2.2,3.6
	c-1.1,0.2-2.1,0.8-2.9,1.7c-0.7,0.9-1.1,2-1,3.2c0.1,1.1,0.5,2.2,1.3,3c0.8,0.8,1.9,1.3,3,1.4v-1.2c-0.9-0.1-1.7-0.5-2.2-1.1
	c-0.6-0.6-0.9-1.5-0.9-2.3c0-0.9,0.3-1.7,0.9-2.3c0.6-0.6,1.4-1,2.3-1.1l0.5,0l0.1-0.5c0.1-1.2,0.7-2.4,1.6-3.2
	c0.9-0.8,2.1-1.3,3.3-1.3s2.4,0.5,3.3,1.3c0.9,0.8,1.5,2,1.6,3.2l0.1,0.5l0.5,0c0.9,0.1,1.7,0.4,2.3,1.1c0.6,0.6,0.9,1.5,0.9,2.3
	c0,0.9-0.3,1.7-0.9,2.3c-0.6,0.6-1.4,1-2.2,1.1v1.2c1.1-0.1,2.2-0.6,3-1.4c0.8-0.8,1.3-1.9,1.3-3c0.1-1.1-0.3-2.3-1-3.2
	C551.3,661.1,550.3,660.5,549.1,660.3z"/>
<path d="M582.1,668h1.8v-9.8h-1.8v4H578v-4h-1.8v9.8h1.8v-4.1h4.1V668z M589.2,668.1c2.1,0,3.4-1.5,3.4-3.8c0-2.3-1.3-3.8-3.4-3.8
	c-2.1,0-3.4,1.5-3.4,3.8C585.8,666.6,587.1,668.1,589.2,668.1z M589.2,666.7c-0.9,0-1.5-0.6-1.5-1.7v-1.4c0-1.1,0.6-1.7,1.5-1.7
	c0.9,0,1.5,0.6,1.5,1.7v1.4C590.7,666.1,590.1,666.7,589.2,666.7z M596.7,668.1c1.8,0,3-1,3-2.4c0-1.2-0.8-1.9-2.4-2.2l-0.7-0.1
	c-0.7-0.1-1-0.3-1-0.8c0-0.4,0.3-0.8,1.1-0.8c0.7,0,1.3,0.3,1.8,0.8l1-1c-0.7-0.7-1.4-1.1-2.9-1.1c-1.7,0-2.8,0.9-2.8,2.3
	c0,1.3,0.9,2,2.4,2.2l0.7,0.1c0.6,0.1,0.9,0.4,0.9,0.8c0,0.5-0.4,0.8-1.2,0.8c-0.8,0-1.5-0.4-2-1l-1.1,1.1
	C594.4,667.6,595.3,668.1,596.7,668.1z M603.6,668h1.3v-1.4h-1.4v-4.5h1.5v-1.4h-1.5v-2h-1.6v1.2c0,0.5-0.2,0.8-0.7,0.8h-0.6v1.4
	h1.1v4C601.7,667.3,602.4,668,603.6,668z"/>
<rect x="642" y="640" class="st1" width="48" height="48"/>
<rect x="642.5" y="640.5" class="st8" width="47" height="47"/>
<rect x="645.5" y="643.5" class="st9" width="41" height="41"/>
<path class="st1" d="M669.1,664h-6.2c-0.3,0-0.6,0.1-0.9,0.4c-0.2,0.2-0.4,0.6-0.4,0.9v3.8c0,0.3,0.1,0.6,0.4,0.9
	c0.2,0.2,0.6,0.4,0.9,0.4h2.5v1.2h-1.9v1.2h5v-1.2h-1.9v-1.2h2.5c0.3,0,0.6-0.1,0.9-0.4c0.2-0.2,0.4-0.6,0.4-0.9v-3.8
	c0-0.3-0.1-0.6-0.4-0.9C669.8,664.1,669.5,664,669.1,664z M662.9,669v-3.8h6.2l0,3.8H662.9z"/>
<path class="st1" d="M672.1,660.3c-0.3-1.4-1-2.7-2.2-3.6c-1.1-0.9-2.5-1.4-4-1.4s-2.9,0.5-4,1.4c-1.1,0.9-1.9,2.2-2.2,3.6
	c-1.1,0.2-2.1,0.8-2.9,1.7c-0.7,0.9-1.1,2-1,3.2c0.1,1.1,0.5,2.2,1.3,3c0.8,0.8,1.9,1.3,3,1.4v-1.2c-0.9-0.1-1.7-0.5-2.2-1.1
	c-0.6-0.6-0.9-1.5-0.9-2.3c0-0.9,0.3-1.7,0.9-2.3c0.6-0.6,1.4-1,2.3-1.1l0.5,0l0.1-0.5c0.1-1.2,0.7-2.4,1.6-3.2
	c0.9-0.8,2.1-1.3,3.3-1.3s2.4,0.5,3.3,1.3c0.9,0.8,1.5,2,1.6,3.2l0.1,0.5l0.5,0c0.9,0.1,1.7,0.4,2.3,1.1c0.6,0.6,0.9,1.5,0.9,2.3
	c0,0.9-0.3,1.7-0.9,2.3c-0.6,0.6-1.4,1-2.2,1.1v1.2c1.1-0.1,2.2-0.6,3-1.4c0.8-0.8,1.3-1.9,1.3-3c0.1-1.1-0.3-2.3-1-3.2
	C674.3,661.1,673.3,660.5,672.1,660.3z"/>
<path d="M705.1,668h1.8v-9.8h-1.8v4H701v-4h-1.8v9.8h1.8v-4.1h4.1V668z M712.2,668.1c2.1,0,3.4-1.5,3.4-3.8c0-2.3-1.3-3.8-3.4-3.8
	c-2.1,0-3.4,1.5-3.4,3.8C708.8,666.6,710.1,668.1,712.2,668.1z M712.2,666.7c-0.9,0-1.5-0.6-1.5-1.7v-1.4c0-1.1,0.6-1.7,1.5-1.7
	c0.9,0,1.5,0.6,1.5,1.7v1.4C713.7,666.1,713.1,666.7,712.2,666.7z M719.7,668.1c1.8,0,3-1,3-2.4c0-1.2-0.8-1.9-2.4-2.2l-0.7-0.1
	c-0.7-0.1-1-0.3-1-0.8c0-0.4,0.3-0.8,1.1-0.8c0.7,0,1.3,0.3,1.8,0.8l1-1c-0.7-0.7-1.4-1.1-2.9-1.1c-1.7,0-2.8,0.9-2.8,2.3
	c0,1.3,0.9,2,2.4,2.2l0.7,0.1c0.6,0.1,0.9,0.4,0.9,0.8c0,0.5-0.4,0.8-1.2,0.8c-0.8,0-1.5-0.4-2-1l-1.1,1.1
	C717.4,667.6,718.3,668.1,719.7,668.1z M726.6,668h1.3v-1.4h-1.4v-4.5h1.5v-1.4h-1.5v-2h-1.6v1.2c0,0.5-0.2,0.8-0.7,0.8h-0.6v1.4
	h1.1v4C724.7,667.3,725.4,668,726.6,668z"/>
<rect x="765" y="640" class="st1" width="48" height="48"/>
<rect x="765" y="640" class="st3" width="48" height="48"/>
<path class="st1" d="M792.1,664h-6.2c-0.3,0-0.6,0.1-0.9,0.4c-0.2,0.2-0.4,0.6-0.4,0.9v3.8c0,0.3,0.1,0.6,0.4,0.9
	c0.2,0.2,0.6,0.4,0.9,0.4h2.5v1.2h-1.9v1.2h5v-1.2h-1.9v-1.2h2.5c0.3,0,0.6-0.1,0.9-0.4c0.2-0.2,0.4-0.6,0.4-0.9v-3.8
	c0-0.3-0.1-0.6-0.4-0.9C792.8,664.1,792.5,664,792.1,664z M785.9,669v-3.8h6.2l0,3.8H785.9z"/>
<path class="st1" d="M795.1,660.3c-0.3-1.4-1-2.7-2.2-3.6c-1.1-0.9-2.5-1.4-4-1.4s-2.9,0.5-4,1.4c-1.1,0.9-1.9,2.2-2.2,3.6
	c-1.1,0.2-2.1,0.8-2.9,1.7c-0.7,0.9-1.1,2-1,3.2c0.1,1.1,0.5,2.2,1.3,3c0.8,0.8,1.9,1.3,3,1.4v-1.2c-0.9-0.1-1.7-0.5-2.2-1.1
	c-0.6-0.6-0.9-1.5-0.9-2.3c0-0.9,0.3-1.7,0.9-2.3c0.6-0.6,1.4-1,2.3-1.1l0.5,0l0.1-0.5c0.1-1.2,0.7-2.4,1.6-3.2
	c0.9-0.8,2.1-1.3,3.3-1.3s2.4,0.5,3.3,1.3c0.9,0.8,1.5,2,1.6,3.2l0.1,0.5l0.5,0c0.9,0.1,1.7,0.4,2.3,1.1c0.6,0.6,0.9,1.5,0.9,2.3
	c0,0.9-0.3,1.7-0.9,2.3c-0.6,0.6-1.4,1-2.2,1.1v1.2c1.1-0.1,2.2-0.6,3-1.4c0.8-0.8,1.3-1.9,1.3-3c0.1-1.1-0.3-2.3-1-3.2
	C797.3,661.1,796.3,660.5,795.1,660.3z"/>
<path d="M828.1,668h1.8v-9.8h-1.8v4H824v-4h-1.8v9.8h1.8v-4.1h4.1V668z M835.2,668.1c2.1,0,3.4-1.5,3.4-3.8c0-2.3-1.3-3.8-3.4-3.8
	c-2.1,0-3.4,1.5-3.4,3.8C831.8,666.6,833.1,668.1,835.2,668.1z M835.2,666.7c-0.9,0-1.5-0.6-1.5-1.7v-1.4c0-1.1,0.6-1.7,1.5-1.7
	c0.9,0,1.5,0.6,1.5,1.7v1.4C836.7,666.1,836.1,666.7,835.2,666.7z M842.7,668.1c1.8,0,3-1,3-2.4c0-1.2-0.8-1.9-2.4-2.2l-0.7-0.1
	c-0.7-0.1-1-0.3-1-0.8c0-0.4,0.3-0.8,1.1-0.8c0.7,0,1.3,0.3,1.8,0.8l1-1c-0.7-0.7-1.4-1.1-2.9-1.1c-1.7,0-2.8,0.9-2.8,2.3
	c0,1.3,0.9,2,2.4,2.2l0.7,0.1c0.6,0.1,0.9,0.4,0.9,0.8c0,0.5-0.4,0.8-1.2,0.8c-0.8,0-1.5-0.4-2-1l-1.1,1.1
	C840.4,667.6,841.3,668.1,842.7,668.1z M849.6,668h1.3v-1.4h-1.4v-4.5h1.5v-1.4h-1.5v-2h-1.6v1.2c0,0.5-0.2,0.8-0.7,0.8h-0.6v1.4
	h1.1v4C847.7,667.3,848.4,668,849.6,668z"/>
<rect x="176.5" y="528.5" class="st1" width="711" height="79"/>
<g>
	<defs>
		<rect id="SVGID_00000062180249095218698090000009295367284816193692_" x="176" y="528" width="77" height="48"/>
	</defs>
	<clipPath id="SVGID_00000091731690524823800070000002578604333665566142_">
		<use xlink:href="#SVGID_00000062180249095218698090000009295367284816193692_"  style="overflow:visible;"/>
	</clipPath>
	<g style="clip-path:url(#SVGID_00000091731690524823800070000002578604333665566142_);">
		<path d="M199.9,555.3h-5.2l5.1-6.5v-1.7h-6.9v1.6h4.8l-5.1,6.5v1.7h7.3V555.3z M204.4,557.1c2.1,0,3.4-1.5,3.4-3.8
			c0-2.3-1.3-3.8-3.4-3.8c-2.1,0-3.4,1.5-3.4,3.8C201,555.7,202.3,557.1,204.4,557.1z M204.4,555.7c-0.9,0-1.5-0.6-1.5-1.7v-1.4
			c0-1.1,0.6-1.7,1.5-1.7c0.9,0,1.5,0.6,1.5,1.7v1.4C205.9,555.1,205.3,555.7,204.4,555.7z M211.3,557v-4.8c0-0.8,0.7-1.2,1.5-1.2
			c0.9,0,1.2,0.5,1.2,1.6v4.4h1.8v-4.6c0-1.8-0.8-2.9-2.3-2.9c-1.1,0-1.8,0.6-2,1.4h-0.1v-1.2h-1.8v7.3H211.3z M220.9,557.1
			c1.4,0,2.4-0.5,3-1.3l-1-1.1c-0.4,0.6-1,1-1.9,1c-1.2,0-1.8-0.7-1.8-1.8v-0.2h4.9v-0.6c0-2-1-3.7-3.3-3.7c-2.1,0-3.4,1.5-3.4,3.8
			C217.5,555.6,218.7,557.1,220.9,557.1z M220.9,550.8c0.9,0,1.4,0.7,1.4,1.7v0.1h-3v-0.1C219.3,551.5,219.9,550.8,220.9,550.8z
			 M236,555.4h-4.8l2.1-1.7c1.4-1.1,2.5-2.2,2.5-3.8c0-1.7-1.2-2.9-3.2-2.9c-2,0-3,1.1-3.5,2.4l1.6,0.6c0.2-0.8,0.7-1.5,1.7-1.5
			c0.8,0,1.4,0.5,1.4,1.3v0.2c0,0.9-0.5,1.5-1.5,2.4l-3.1,2.7v1.7h6.8V555.4z"/>
	</g>
</g>
<rect x="176.5" y="528.5" class="st2" width="711" height="79"/>
<rect x="273" y="544" class="st1" width="48" height="48"/>
<rect x="273.5" y="544.5" class="st0" width="47" height="47"/>
<rect x="273.5" y="544.5" class="st2" width="47" height="47"/>
<path d="M300.1,568h-6.2c-0.3,0-0.6,0.1-0.9,0.4c-0.2,0.2-0.4,0.6-0.4,0.9v3.8c0,0.3,0.1,0.6,0.4,0.9c0.2,0.2,0.6,0.4,0.9,0.4h2.5
	v1.2h-1.9v1.2h5v-1.2h-1.9v-1.2h2.5c0.3,0,0.6-0.1,0.9-0.4c0.2-0.2,0.4-0.6,0.4-0.9v-3.8c0-0.3-0.1-0.6-0.4-0.9
	C300.8,568.1,300.5,568,300.1,568z M293.9,573v-3.8h6.2l0,3.8H293.9z"/>
<path d="M303.1,564.3c-0.3-1.4-1-2.7-2.2-3.6c-1.1-0.9-2.5-1.4-4-1.4s-2.9,0.5-4,1.4c-1.1,0.9-1.9,2.2-2.2,3.6
	c-1.1,0.2-2.1,0.8-2.9,1.7c-0.7,0.9-1.1,2-1,3.2c0.1,1.1,0.5,2.2,1.3,3c0.8,0.8,1.9,1.3,3,1.4v-1.2c-0.9-0.1-1.7-0.5-2.2-1.1
	c-0.6-0.6-0.9-1.5-0.9-2.3c0-0.9,0.3-1.7,0.9-2.3c0.6-0.6,1.4-1,2.3-1.1l0.5,0l0.1-0.5c0.1-1.2,0.7-2.4,1.6-3.2
	c0.9-0.8,2.1-1.3,3.3-1.3s2.4,0.5,3.3,1.3c0.9,0.8,1.5,2,1.6,3.2l0.1,0.5l0.5,0c0.9,0.1,1.7,0.4,2.3,1.1c0.6,0.6,0.9,1.5,0.9,2.3
	c0,0.9-0.3,1.7-0.9,2.3c-0.6,0.6-1.4,1-2.2,1.1v1.2c1.1-0.1,2.2-0.6,3-1.4c0.8-0.8,1.3-1.9,1.3-3c0.1-1.1-0.3-2.3-1-3.2
	C305.3,565.1,304.3,564.5,303.1,564.3z"/>
<path d="M336.1,572h1.8v-9.8h-1.8v4H332v-4h-1.8v9.8h1.8v-4.1h4.1V572z M343.2,572.1c2.1,0,3.4-1.5,3.4-3.8c0-2.3-1.3-3.8-3.4-3.8
	c-2.1,0-3.4,1.5-3.4,3.8C339.8,570.7,341.1,572.1,343.2,572.1z M343.2,570.7c-0.9,0-1.5-0.6-1.5-1.7v-1.4c0-1.1,0.6-1.7,1.5-1.7
	c0.9,0,1.5,0.6,1.5,1.7v1.4C344.7,570.1,344.1,570.7,343.2,570.7z M350.7,572.1c1.8,0,3-1,3-2.4c0-1.2-0.8-1.9-2.4-2.2l-0.7-0.1
	c-0.7-0.1-1-0.3-1-0.8c0-0.4,0.3-0.8,1.1-0.8c0.7,0,1.3,0.3,1.8,0.8l1.1-1c-0.7-0.7-1.4-1.1-2.9-1.1c-1.7,0-2.8,0.9-2.8,2.3
	c0,1.3,0.9,2,2.4,2.2l0.7,0.1c0.6,0.1,0.9,0.4,0.9,0.8c0,0.5-0.4,0.8-1.2,0.8c-0.8,0-1.5-0.4-2-1l-1.1,1.1
	C348.4,571.6,349.3,572.1,350.7,572.1z M357.6,572h1.3v-1.4h-1.4v-4.5h1.5v-1.4h-1.5v-2h-1.6v1.2c0,0.5-0.2,0.8-0.7,0.8h-0.6v1.4
	h1.1v4C355.7,571.3,356.4,572,357.6,572z"/>
<rect x="396" y="544" class="st1" width="48" height="48"/>
<rect x="396" y="544" class="st7" width="48" height="48"/>
<path class="st1" d="M423.1,568h-6.2c-0.3,0-0.6,0.1-0.9,0.4c-0.2,0.2-0.4,0.6-0.4,0.9v3.8c0,0.3,0.1,0.6,0.4,0.9
	c0.2,0.2,0.6,0.4,0.9,0.4h2.5v1.2h-1.9v1.2h5v-1.2h-1.9v-1.2h2.5c0.3,0,0.6-0.1,0.9-0.4c0.2-0.2,0.4-0.6,0.4-0.9v-3.8
	c0-0.3-0.1-0.6-0.4-0.9C423.8,568.1,423.5,568,423.1,568z M416.9,573v-3.8h6.2l0,3.8H416.9z"/>
<path class="st1" d="M426.1,564.3c-0.3-1.4-1-2.7-2.2-3.6c-1.1-0.9-2.5-1.4-4-1.4s-2.9,0.5-4,1.4c-1.1,0.9-1.9,2.2-2.2,3.6
	c-1.1,0.2-2.1,0.8-2.9,1.7c-0.7,0.9-1.1,2-1,3.2c0.1,1.1,0.5,2.2,1.3,3c0.8,0.8,1.9,1.3,3,1.4v-1.2c-0.9-0.1-1.7-0.5-2.2-1.1
	c-0.6-0.6-0.9-1.5-0.9-2.3c0-0.9,0.3-1.7,0.9-2.3c0.6-0.6,1.4-1,2.3-1.1l0.5,0l0.1-0.5c0.1-1.2,0.7-2.4,1.6-3.2
	c0.9-0.8,2.1-1.3,3.3-1.3s2.4,0.5,3.3,1.3c0.9,0.8,1.5,2,1.6,3.2l0.1,0.5l0.5,0c0.9,0.1,1.7,0.4,2.3,1.1c0.6,0.6,0.9,1.5,0.9,2.3
	c0,0.9-0.3,1.7-0.9,2.3c-0.6,0.6-1.4,1-2.2,1.1v1.2c1.1-0.1,2.2-0.6,3-1.4c0.8-0.8,1.3-1.9,1.3-3c0.1-1.1-0.3-2.3-1-3.2
	C428.3,565.1,427.3,564.5,426.1,564.3z"/>
<path d="M459.1,572h1.8v-9.8h-1.8v4H455v-4h-1.8v9.8h1.8v-4.1h4.1V572z M466.2,572.1c2.1,0,3.4-1.5,3.4-3.8c0-2.3-1.3-3.8-3.4-3.8
	c-2.1,0-3.4,1.5-3.4,3.8C462.8,570.7,464.1,572.1,466.2,572.1z M466.2,570.7c-0.9,0-1.5-0.6-1.5-1.7v-1.4c0-1.1,0.6-1.7,1.5-1.7
	c0.9,0,1.5,0.6,1.5,1.7v1.4C467.7,570.1,467.1,570.7,466.2,570.7z M473.7,572.1c1.8,0,3-1,3-2.4c0-1.2-0.8-1.9-2.4-2.2l-0.7-0.1
	c-0.7-0.1-1-0.3-1-0.8c0-0.4,0.3-0.8,1.1-0.8c0.7,0,1.3,0.3,1.8,0.8l1.1-1c-0.7-0.7-1.4-1.1-2.9-1.1c-1.7,0-2.8,0.9-2.8,2.3
	c0,1.3,0.9,2,2.4,2.2l0.7,0.1c0.6,0.1,0.9,0.4,0.9,0.8c0,0.5-0.4,0.8-1.2,0.8c-0.8,0-1.5-0.4-2-1l-1.1,1.1
	C471.4,571.6,472.3,572.1,473.7,572.1z M480.6,572h1.3v-1.4h-1.4v-4.5h1.5v-1.4h-1.5v-2h-1.6v1.2c0,0.5-0.2,0.8-0.7,0.8h-0.6v1.4
	h1.1v4C478.7,571.3,479.4,572,480.6,572z"/>
<rect x="519" y="544" class="st1" width="48" height="48"/>
<rect x="519" y="544" class="st7" width="48" height="48"/>
<path class="st1" d="M546.1,568h-6.2c-0.3,0-0.6,0.1-0.9,0.4c-0.2,0.2-0.4,0.6-0.4,0.9v3.8c0,0.3,0.1,0.6,0.4,0.9
	c0.2,0.2,0.6,0.4,0.9,0.4h2.5v1.2h-1.9v1.2h5v-1.2h-1.9v-1.2h2.5c0.3,0,0.6-0.1,0.9-0.4c0.2-0.2,0.4-0.6,0.4-0.9v-3.8
	c0-0.3-0.1-0.6-0.4-0.9C546.8,568.1,546.5,568,546.1,568z M539.9,573v-3.8h6.2l0,3.8H539.9z"/>
<path class="st1" d="M549.1,564.3c-0.3-1.4-1-2.7-2.2-3.6c-1.1-0.9-2.5-1.4-4-1.4s-2.9,0.5-4,1.4c-1.1,0.9-1.9,2.2-2.2,3.6
	c-1.1,0.2-2.1,0.8-2.9,1.7c-0.7,0.9-1.1,2-1,3.2c0.1,1.1,0.5,2.2,1.3,3c0.8,0.8,1.9,1.3,3,1.4v-1.2c-0.9-0.1-1.7-0.5-2.2-1.1
	c-0.6-0.6-0.9-1.5-0.9-2.3c0-0.9,0.3-1.7,0.9-2.3c0.6-0.6,1.4-1,2.3-1.1l0.5,0l0.1-0.5c0.1-1.2,0.7-2.4,1.6-3.2
	c0.9-0.8,2.1-1.3,3.3-1.3s2.4,0.5,3.3,1.3c0.9,0.8,1.5,2,1.6,3.2l0.1,0.5l0.5,0c0.9,0.1,1.7,0.4,2.3,1.1c0.6,0.6,0.9,1.5,0.9,2.3
	c0,0.9-0.3,1.7-0.9,2.3c-0.6,0.6-1.4,1-2.2,1.1v1.2c1.1-0.1,2.2-0.6,3-1.4c0.8-0.8,1.3-1.9,1.3-3c0.1-1.1-0.3-2.3-1-3.2
	C551.3,565.1,550.3,564.5,549.1,564.3z"/>
<path d="M582.1,572h1.8v-9.8h-1.8v4H578v-4h-1.8v9.8h1.8v-4.1h4.1V572z M589.2,572.1c2.1,0,3.4-1.5,3.4-3.8c0-2.3-1.3-3.8-3.4-3.8
	c-2.1,0-3.4,1.5-3.4,3.8C585.8,570.7,587.1,572.1,589.2,572.1z M589.2,570.7c-0.9,0-1.5-0.6-1.5-1.7v-1.4c0-1.1,0.6-1.7,1.5-1.7
	c0.9,0,1.5,0.6,1.5,1.7v1.4C590.7,570.1,590.1,570.7,589.2,570.7z M596.7,572.1c1.8,0,3-1,3-2.4c0-1.2-0.8-1.9-2.4-2.2l-0.7-0.1
	c-0.7-0.1-1-0.3-1-0.8c0-0.4,0.3-0.8,1.1-0.8c0.7,0,1.3,0.3,1.8,0.8l1-1c-0.7-0.7-1.4-1.1-2.9-1.1c-1.7,0-2.8,0.9-2.8,2.3
	c0,1.3,0.9,2,2.4,2.2l0.7,0.1c0.6,0.1,0.9,0.4,0.9,0.8c0,0.5-0.4,0.8-1.2,0.8c-0.8,0-1.5-0.4-2-1l-1.1,1.1
	C594.4,571.6,595.3,572.1,596.7,572.1z M603.6,572h1.3v-1.4h-1.4v-4.5h1.5v-1.4h-1.5v-2h-1.6v1.2c0,0.5-0.2,0.8-0.7,0.8h-0.6v1.4
	h1.1v4C601.7,571.3,602.4,572,603.6,572z"/>
<rect x="642" y="544" class="st1" width="48" height="48"/>
<rect x="642.5" y="544.5" class="st8" width="47" height="47"/>
<rect x="645.5" y="547.5" class="st9" width="41" height="41"/>
<path class="st1" d="M669.1,568h-6.2c-0.3,0-0.6,0.1-0.9,0.4c-0.2,0.2-0.4,0.6-0.4,0.9v3.8c0,0.3,0.1,0.6,0.4,0.9
	c0.2,0.2,0.6,0.4,0.9,0.4h2.5v1.2h-1.9v1.2h5v-1.2h-1.9v-1.2h2.5c0.3,0,0.6-0.1,0.9-0.4c0.2-0.2,0.4-0.6,0.4-0.9v-3.8
	c0-0.3-0.1-0.6-0.4-0.9C669.8,568.1,669.5,568,669.1,568z M662.9,573v-3.8h6.2l0,3.8H662.9z"/>
<path class="st1" d="M672.1,564.3c-0.3-1.4-1-2.7-2.2-3.6c-1.1-0.9-2.5-1.4-4-1.4s-2.9,0.5-4,1.4c-1.1,0.9-1.9,2.2-2.2,3.6
	c-1.1,0.2-2.1,0.8-2.9,1.7c-0.7,0.9-1.1,2-1,3.2c0.1,1.1,0.5,2.2,1.3,3c0.8,0.8,1.9,1.3,3,1.4v-1.2c-0.9-0.1-1.7-0.5-2.2-1.1
	c-0.6-0.6-0.9-1.5-0.9-2.3c0-0.9,0.3-1.7,0.9-2.3c0.6-0.6,1.4-1,2.3-1.1l0.5,0l0.1-0.5c0.1-1.2,0.7-2.4,1.6-3.2
	c0.9-0.8,2.1-1.3,3.3-1.3s2.4,0.5,3.3,1.3c0.9,0.8,1.5,2,1.6,3.2l0.1,0.5l0.5,0c0.9,0.1,1.7,0.4,2.3,1.1c0.6,0.6,0.9,1.5,0.9,2.3
	c0,0.9-0.3,1.7-0.9,2.3c-0.6,0.6-1.4,1-2.2,1.1v1.2c1.1-0.1,2.2-0.6,3-1.4c0.8-0.8,1.3-1.9,1.3-3c0.1-1.1-0.3-2.3-1-3.2
	C674.3,565.1,673.3,564.5,672.1,564.3z"/>
<path d="M705.1,572h1.8v-9.8h-1.8v4H701v-4h-1.8v9.8h1.8v-4.1h4.1V572z M712.2,572.1c2.1,0,3.4-1.5,3.4-3.8c0-2.3-1.3-3.8-3.4-3.8
	c-2.1,0-3.4,1.5-3.4,3.8C708.8,570.7,710.1,572.1,712.2,572.1z M712.2,570.7c-0.9,0-1.5-0.6-1.5-1.7v-1.4c0-1.1,0.6-1.7,1.5-1.7
	c0.9,0,1.5,0.6,1.5,1.7v1.4C713.7,570.1,713.1,570.7,712.2,570.7z M719.7,572.1c1.8,0,3-1,3-2.4c0-1.2-0.8-1.9-2.4-2.2l-0.7-0.1
	c-0.7-0.1-1-0.3-1-0.8c0-0.4,0.3-0.8,1.1-0.8c0.7,0,1.3,0.3,1.8,0.8l1-1c-0.7-0.7-1.4-1.1-2.9-1.1c-1.7,0-2.8,0.9-2.8,2.3
	c0,1.3,0.9,2,2.4,2.2l0.7,0.1c0.6,0.1,0.9,0.4,0.9,0.8c0,0.5-0.4,0.8-1.2,0.8c-0.8,0-1.5-0.4-2-1l-1.1,1.1
	C717.4,571.6,718.3,572.1,719.7,572.1z M726.6,572h1.3v-1.4h-1.4v-4.5h1.5v-1.4h-1.5v-2h-1.6v1.2c0,0.5-0.2,0.8-0.7,0.8h-0.6v1.4
	h1.1v4C724.7,571.3,725.4,572,726.6,572z"/>
<rect x="765" y="544" class="st1" width="48" height="48"/>
<rect x="765" y="544" class="st3" width="48" height="48"/>
<path class="st1" d="M792.1,568h-6.2c-0.3,0-0.6,0.1-0.9,0.4c-0.2,0.2-0.4,0.6-0.4,0.9v3.8c0,0.3,0.1,0.6,0.4,0.9
	c0.2,0.2,0.6,0.4,0.9,0.4h2.5v1.2h-1.9v1.2h5v-1.2h-1.9v-1.2h2.5c0.3,0,0.6-0.1,0.9-0.4c0.2-0.2,0.4-0.6,0.4-0.9v-3.8
	c0-0.3-0.1-0.6-0.4-0.9C792.8,568.1,792.5,568,792.1,568z M785.9,573v-3.8h6.2l0,3.8H785.9z"/>
<path class="st1" d="M795.1,564.3c-0.3-1.4-1-2.7-2.2-3.6c-1.1-0.9-2.5-1.4-4-1.4s-2.9,0.5-4,1.4c-1.1,0.9-1.9,2.2-2.2,3.6
	c-1.1,0.2-2.1,0.8-2.9,1.7c-0.7,0.9-1.1,2-1,3.2c0.1,1.1,0.5,2.2,1.3,3c0.8,0.8,1.9,1.3,3,1.4v-1.2c-0.9-0.1-1.7-0.5-2.2-1.1
	c-0.6-0.6-0.9-1.5-0.9-2.3c0-0.9,0.3-1.7,0.9-2.3c0.6-0.6,1.4-1,2.3-1.1l0.5,0l0.1-0.5c0.1-1.2,0.7-2.4,1.6-3.2
	c0.9-0.8,2.1-1.3,3.3-1.3s2.4,0.5,3.3,1.3c0.9,0.8,1.5,2,1.6,3.2l0.1,0.5l0.5,0c0.9,0.1,1.7,0.4,2.3,1.1c0.6,0.6,0.9,1.5,0.9,2.3
	c0,0.9-0.3,1.7-0.9,2.3c-0.6,0.6-1.4,1-2.2,1.1v1.2c1.1-0.1,2.2-0.6,3-1.4c0.8-0.8,1.3-1.9,1.3-3c0.1-1.1-0.3-2.3-1-3.2
	C797.3,565.1,796.3,564.5,795.1,564.3z"/>
<path d="M828.1,572h1.8v-9.8h-1.8v4H824v-4h-1.8v9.8h1.8v-4.1h4.1V572z M835.2,572.1c2.1,0,3.4-1.5,3.4-3.8c0-2.3-1.3-3.8-3.4-3.8
	c-2.1,0-3.4,1.5-3.4,3.8C831.8,570.7,833.1,572.1,835.2,572.1z M835.2,570.7c-0.9,0-1.5-0.6-1.5-1.7v-1.4c0-1.1,0.6-1.7,1.5-1.7
	c0.9,0,1.5,0.6,1.5,1.7v1.4C836.7,570.1,836.1,570.7,835.2,570.7z M842.7,572.1c1.8,0,3-1,3-2.4c0-1.2-0.8-1.9-2.4-2.2l-0.7-0.1
	c-0.7-0.1-1-0.3-1-0.8c0-0.4,0.3-0.8,1.1-0.8c0.7,0,1.3,0.3,1.8,0.8l1-1c-0.7-0.7-1.4-1.1-2.9-1.1c-1.7,0-2.8,0.9-2.8,2.3
	c0,1.3,0.9,2,2.4,2.2l0.7,0.1c0.6,0.1,0.9,0.4,0.9,0.8c0,0.5-0.4,0.8-1.2,0.8c-0.8,0-1.5-0.4-2-1l-1.1,1.1
	C840.4,571.6,841.3,572.1,842.7,572.1z M849.6,572h1.3v-1.4h-1.4v-4.5h1.5v-1.4h-1.5v-2h-1.6v1.2c0,0.5-0.2,0.8-0.7,0.8h-0.6v1.4
	h1.1v4C847.7,571.3,848.4,572,849.6,572z"/>
<rect x="176.5" y="432.5" class="st1" width="711" height="79"/>
<g>
	<defs>
		<rect id="SVGID_00000106838881766660828990000004653669410524096164_" x="176" y="432" width="77" height="48"/>
	</defs>
	<clipPath id="SVGID_00000166677009900386528000000012550738054828850578_">
		<use xlink:href="#SVGID_00000106838881766660828990000004653669410524096164_"  style="overflow:visible;"/>
	</clipPath>
	<g style="clip-path:url(#SVGID_00000166677009900386528000000012550738054828850578_);">
		<path d="M199.9,459.3h-5.2l5.1-6.5v-1.7h-6.9v1.6h4.8l-5.1,6.5v1.7h7.3V459.3z M204.4,461.2c2.1,0,3.4-1.5,3.4-3.8
			c0-2.3-1.3-3.8-3.4-3.8c-2.1,0-3.4,1.5-3.4,3.8C201,459.7,202.3,461.2,204.4,461.2z M204.4,459.7c-0.9,0-1.5-0.6-1.5-1.7v-1.4
			c0-1.1,0.6-1.7,1.5-1.7c0.9,0,1.5,0.6,1.5,1.7v1.4C205.9,459.1,205.3,459.7,204.4,459.7z M211.3,461v-4.8c0-0.8,0.7-1.2,1.5-1.2
			c0.9,0,1.2,0.5,1.2,1.6v4.4h1.8v-4.6c0-1.8-0.8-2.9-2.3-2.9c-1.1,0-1.8,0.6-2,1.4h-0.1v-1.2h-1.8v7.3H211.3z M220.9,461.2
			c1.4,0,2.4-0.5,3-1.3l-1-1.1c-0.4,0.6-1,1-1.9,1c-1.2,0-1.8-0.7-1.8-1.8v-0.2h4.9v-0.6c0-2-1-3.7-3.3-3.7c-2.1,0-3.4,1.5-3.4,3.8
			C217.5,459.7,218.7,461.2,220.9,461.2z M220.9,454.9c0.9,0,1.4,0.7,1.4,1.7v0.1h-3v-0.1C219.3,455.6,219.9,454.9,220.9,454.9z
			 M236.4,461v-1.5h-2.2v-8.3h-2.8l-2.4,2.9l1.1,1l2.1-2.5h0.1v6.9h-2.7v1.5H236.4z"/>
	</g>
</g>
<rect x="176.5" y="432.5" class="st2" width="711" height="79"/>
<rect x="273" y="448" class="st1" width="48" height="48"/>
<rect x="273.5" y="448.5" class="st0" width="47" height="47"/>
<rect x="273.5" y="448.5" class="st2" width="47" height="47"/>
<path d="M300.1,472h-6.2c-0.3,0-0.6,0.1-0.9,0.4c-0.2,0.2-0.4,0.6-0.4,0.9v3.8c0,0.3,0.1,0.6,0.4,0.9c0.2,0.2,0.6,0.4,0.9,0.4h2.5
	v1.2h-1.9v1.2h5v-1.2h-1.9v-1.2h2.5c0.3,0,0.6-0.1,0.9-0.4c0.2-0.2,0.4-0.6,0.4-0.9v-3.8c0-0.3-0.1-0.6-0.4-0.9
	C300.8,472.1,300.5,472,300.1,472z M293.9,477v-3.8h6.2l0,3.8H293.9z"/>
<path d="M303.1,468.3c-0.3-1.4-1-2.7-2.2-3.6c-1.1-0.9-2.5-1.4-4-1.4s-2.9,0.5-4,1.4c-1.1,0.9-1.9,2.2-2.2,3.6
	c-1.1,0.2-2.1,0.8-2.9,1.7c-0.7,0.9-1.1,2-1,3.2c0.1,1.1,0.5,2.2,1.3,3c0.8,0.8,1.9,1.3,3,1.4v-1.2c-0.9-0.1-1.7-0.5-2.2-1.1
	c-0.6-0.6-0.9-1.5-0.9-2.3c0-0.9,0.3-1.7,0.9-2.3c0.6-0.6,1.4-1,2.3-1.1l0.5,0l0.1-0.5c0.1-1.2,0.7-2.4,1.6-3.2
	c0.9-0.8,2.1-1.3,3.3-1.3s2.4,0.5,3.3,1.3c0.9,0.8,1.5,2,1.6,3.2l0.1,0.5l0.5,0c0.9,0.1,1.7,0.4,2.3,1.1c0.6,0.6,0.9,1.5,0.9,2.3
	c0,0.9-0.3,1.7-0.9,2.3c-0.6,0.6-1.4,1-2.2,1.1v1.2c1.1-0.1,2.2-0.6,3-1.4c0.8-0.8,1.3-1.9,1.3-3c0.1-1.1-0.3-2.3-1-3.2
	C305.3,469.1,304.3,468.5,303.1,468.3z"/>
<path d="M336.1,476h1.8v-9.8h-1.8v4H332v-4h-1.8v9.8h1.8v-4.1h4.1V476z M343.2,476.2c2.1,0,3.4-1.5,3.4-3.8c0-2.3-1.3-3.8-3.4-3.8
	c-2.1,0-3.4,1.5-3.4,3.8C339.8,474.7,341.1,476.2,343.2,476.2z M343.2,474.7c-0.9,0-1.5-0.6-1.5-1.7v-1.4c0-1.1,0.6-1.7,1.5-1.7
	c0.9,0,1.5,0.6,1.5,1.7v1.4C344.7,474.1,344.1,474.7,343.2,474.7z M350.7,476.2c1.8,0,3-1,3-2.4c0-1.2-0.8-1.9-2.4-2.2l-0.7-0.1
	c-0.7-0.1-1-0.3-1-0.8c0-0.4,0.3-0.8,1.1-0.8c0.7,0,1.3,0.3,1.8,0.8l1.1-1c-0.7-0.7-1.4-1.1-2.9-1.1c-1.7,0-2.8,0.9-2.8,2.3
	c0,1.3,0.9,2,2.4,2.2l0.7,0.1c0.6,0.1,0.9,0.4,0.9,0.8c0,0.5-0.4,0.8-1.2,0.8c-0.8,0-1.5-0.4-2-1l-1.1,1.1
	C348.4,475.6,349.3,476.2,350.7,476.2z M357.6,476h1.3v-1.4h-1.4v-4.5h1.5v-1.4h-1.5v-2h-1.6v1.2c0,0.5-0.2,0.8-0.7,0.8h-0.6v1.4
	h1.1v4C355.7,475.3,356.4,476,357.6,476z"/>
<rect x="396" y="448" class="st1" width="48" height="48"/>
<rect x="396" y="448" class="st7" width="48" height="48"/>
<path class="st1" d="M423.1,472h-6.2c-0.3,0-0.6,0.1-0.9,0.4c-0.2,0.2-0.4,0.6-0.4,0.9v3.8c0,0.3,0.1,0.6,0.4,0.9
	c0.2,0.2,0.6,0.4,0.9,0.4h2.5v1.2h-1.9v1.2h5v-1.2h-1.9v-1.2h2.5c0.3,0,0.6-0.1,0.9-0.4c0.2-0.2,0.4-0.6,0.4-0.9v-3.8
	c0-0.3-0.1-0.6-0.4-0.9C423.8,472.1,423.5,472,423.1,472z M416.9,477v-3.8h6.2l0,3.8H416.9z"/>
<path class="st1" d="M426.1,468.3c-0.3-1.4-1-2.7-2.2-3.6c-1.1-0.9-2.5-1.4-4-1.4s-2.9,0.5-4,1.4c-1.1,0.9-1.9,2.2-2.2,3.6
	c-1.1,0.2-2.1,0.8-2.9,1.7c-0.7,0.9-1.1,2-1,3.2c0.1,1.1,0.5,2.2,1.3,3c0.8,0.8,1.9,1.3,3,1.4v-1.2c-0.9-0.1-1.7-0.5-2.2-1.1
	c-0.6-0.6-0.9-1.5-0.9-2.3c0-0.9,0.3-1.7,0.9-2.3c0.6-0.6,1.4-1,2.3-1.1l0.5,0l0.1-0.5c0.1-1.2,0.7-2.4,1.6-3.2
	c0.9-0.8,2.1-1.3,3.3-1.3s2.4,0.5,3.3,1.3c0.9,0.8,1.5,2,1.6,3.2l0.1,0.5l0.5,0c0.9,0.1,1.7,0.4,2.3,1.1c0.6,0.6,0.9,1.5,0.9,2.3
	c0,0.9-0.3,1.7-0.9,2.3c-0.6,0.6-1.4,1-2.2,1.1v1.2c1.1-0.1,2.2-0.6,3-1.4c0.8-0.8,1.3-1.9,1.3-3c0.1-1.1-0.3-2.3-1-3.2
	C428.3,469.1,427.3,468.5,426.1,468.3z"/>
<path d="M459.1,476h1.8v-9.8h-1.8v4H455v-4h-1.8v9.8h1.8v-4.1h4.1V476z M466.2,476.2c2.1,0,3.4-1.5,3.4-3.8c0-2.3-1.3-3.8-3.4-3.8
	c-2.1,0-3.4,1.5-3.4,3.8C462.8,474.7,464.1,476.2,466.2,476.2z M466.2,474.7c-0.9,0-1.5-0.6-1.5-1.7v-1.4c0-1.1,0.6-1.7,1.5-1.7
	c0.9,0,1.5,0.6,1.5,1.7v1.4C467.7,474.1,467.1,474.7,466.2,474.7z M473.7,476.2c1.8,0,3-1,3-2.4c0-1.2-0.8-1.9-2.4-2.2l-0.7-0.1
	c-0.7-0.1-1-0.3-1-0.8c0-0.4,0.3-0.8,1.1-0.8c0.7,0,1.3,0.3,1.8,0.8l1.1-1c-0.7-0.7-1.4-1.1-2.9-1.1c-1.7,0-2.8,0.9-2.8,2.3
	c0,1.3,0.9,2,2.4,2.2l0.7,0.1c0.6,0.1,0.9,0.4,0.9,0.8c0,0.5-0.4,0.8-1.2,0.8c-0.8,0-1.5-0.4-2-1l-1.1,1.1
	C471.4,475.6,472.3,476.2,473.7,476.2z M480.6,476h1.3v-1.4h-1.4v-4.5h1.5v-1.4h-1.5v-2h-1.6v1.2c0,0.5-0.2,0.8-0.7,0.8h-0.6v1.4
	h1.1v4C478.7,475.3,479.4,476,480.6,476z"/>
<rect x="519" y="448" class="st1" width="48" height="48"/>
<rect x="519" y="448" class="st7" width="48" height="48"/>
<path class="st1" d="M546.1,472h-6.2c-0.3,0-0.6,0.1-0.9,0.4c-0.2,0.2-0.4,0.6-0.4,0.9v3.8c0,0.3,0.1,0.6,0.4,0.9
	c0.2,0.2,0.6,0.4,0.9,0.4h2.5v1.2h-1.9v1.2h5v-1.2h-1.9v-1.2h2.5c0.3,0,0.6-0.1,0.9-0.4c0.2-0.2,0.4-0.6,0.4-0.9v-3.8
	c0-0.3-0.1-0.6-0.4-0.9C546.8,472.1,546.5,472,546.1,472z M539.9,477v-3.8h6.2l0,3.8H539.9z"/>
<path class="st1" d="M549.1,468.3c-0.3-1.4-1-2.7-2.2-3.6c-1.1-0.9-2.5-1.4-4-1.4s-2.9,0.5-4,1.4c-1.1,0.9-1.9,2.2-2.2,3.6
	c-1.1,0.2-2.1,0.8-2.9,1.7c-0.7,0.9-1.1,2-1,3.2c0.1,1.1,0.5,2.2,1.3,3c0.8,0.8,1.9,1.3,3,1.4v-1.2c-0.9-0.1-1.7-0.5-2.2-1.1
	c-0.6-0.6-0.9-1.5-0.9-2.3c0-0.9,0.3-1.7,0.9-2.3c0.6-0.6,1.4-1,2.3-1.1l0.5,0l0.1-0.5c0.1-1.2,0.7-2.4,1.6-3.2
	c0.9-0.8,2.1-1.3,3.3-1.3s2.4,0.5,3.3,1.3c0.9,0.8,1.5,2,1.6,3.2l0.1,0.5l0.5,0c0.9,0.1,1.7,0.4,2.3,1.1c0.6,0.6,0.9,1.5,0.9,2.3
	c0,0.9-0.3,1.7-0.9,2.3c-0.6,0.6-1.4,1-2.2,1.1v1.2c1.1-0.1,2.2-0.6,3-1.4c0.8-0.8,1.3-1.9,1.3-3c0.1-1.1-0.3-2.3-1-3.2
	C551.3,469.1,550.3,468.5,549.1,468.3z"/>
<path d="M582.1,476h1.8v-9.8h-1.8v4H578v-4h-1.8v9.8h1.8v-4.1h4.1V476z M589.2,476.2c2.1,0,3.4-1.5,3.4-3.8c0-2.3-1.3-3.8-3.4-3.8
	c-2.1,0-3.4,1.5-3.4,3.8C585.8,474.7,587.1,476.2,589.2,476.2z M589.2,474.7c-0.9,0-1.5-0.6-1.5-1.7v-1.4c0-1.1,0.6-1.7,1.5-1.7
	c0.9,0,1.5,0.6,1.5,1.7v1.4C590.7,474.1,590.1,474.7,589.2,474.7z M596.7,476.2c1.8,0,3-1,3-2.4c0-1.2-0.8-1.9-2.4-2.2l-0.7-0.1
	c-0.7-0.1-1-0.3-1-0.8c0-0.4,0.3-0.8,1.1-0.8c0.7,0,1.3,0.3,1.8,0.8l1-1c-0.7-0.7-1.4-1.1-2.9-1.1c-1.7,0-2.8,0.9-2.8,2.3
	c0,1.3,0.9,2,2.4,2.2l0.7,0.1c0.6,0.1,0.9,0.4,0.9,0.8c0,0.5-0.4,0.8-1.2,0.8c-0.8,0-1.5-0.4-2-1l-1.1,1.1
	C594.4,475.6,595.3,476.2,596.7,476.2z M603.6,476h1.3v-1.4h-1.4v-4.5h1.5v-1.4h-1.5v-2h-1.6v1.2c0,0.5-0.2,0.8-0.7,0.8h-0.6v1.4
	h1.1v4C601.7,475.3,602.4,476,603.6,476z"/>
<rect x="642" y="448" class="st1" width="48" height="48"/>
<rect x="642.5" y="448.5" class="st8" width="47" height="47"/>
<rect x="645.5" y="451.5" class="st9" width="41" height="41"/>
<path class="st1" d="M669.1,472h-6.2c-0.3,0-0.6,0.1-0.9,0.4c-0.2,0.2-0.4,0.6-0.4,0.9v3.8c0,0.3,0.1,0.6,0.4,0.9
	c0.2,0.2,0.6,0.4,0.9,0.4h2.5v1.2h-1.9v1.2h5v-1.2h-1.9v-1.2h2.5c0.3,0,0.6-0.1,0.9-0.4c0.2-0.2,0.4-0.6,0.4-0.9v-3.8
	c0-0.3-0.1-0.6-0.4-0.9C669.8,472.1,669.5,472,669.1,472z M662.9,477v-3.8h6.2l0,3.8H662.9z"/>
<path class="st1" d="M672.1,468.3c-0.3-1.4-1-2.7-2.2-3.6c-1.1-0.9-2.5-1.4-4-1.4s-2.9,0.5-4,1.4c-1.1,0.9-1.9,2.2-2.2,3.6
	c-1.1,0.2-2.1,0.8-2.9,1.7c-0.7,0.9-1.1,2-1,3.2c0.1,1.1,0.5,2.2,1.3,3c0.8,0.8,1.9,1.3,3,1.4v-1.2c-0.9-0.1-1.7-0.5-2.2-1.1
	c-0.6-0.6-0.9-1.5-0.9-2.3c0-0.9,0.3-1.7,0.9-2.3c0.6-0.6,1.4-1,2.3-1.1l0.5,0l0.1-0.5c0.1-1.2,0.7-2.4,1.6-3.2
	c0.9-0.8,2.1-1.3,3.3-1.3s2.4,0.5,3.3,1.3c0.9,0.8,1.5,2,1.6,3.2l0.1,0.5l0.5,0c0.9,0.1,1.7,0.4,2.3,1.1c0.6,0.6,0.9,1.5,0.9,2.3
	c0,0.9-0.3,1.7-0.9,2.3c-0.6,0.6-1.4,1-2.2,1.1v1.2c1.1-0.1,2.2-0.6,3-1.4c0.8-0.8,1.3-1.9,1.3-3c0.1-1.1-0.3-2.3-1-3.2
	C674.3,469.1,673.3,468.5,672.1,468.3z"/>
<path d="M705.1,476h1.8v-9.8h-1.8v4H701v-4h-1.8v9.8h1.8v-4.1h4.1V476z M712.2,476.2c2.1,0,3.4-1.5,3.4-3.8c0-2.3-1.3-3.8-3.4-3.8
	c-2.1,0-3.4,1.5-3.4,3.8C708.8,474.7,710.1,476.2,712.2,476.2z M712.2,474.7c-0.9,0-1.5-0.6-1.5-1.7v-1.4c0-1.1,0.6-1.7,1.5-1.7
	c0.9,0,1.5,0.6,1.5,1.7v1.4C713.7,474.1,713.1,474.7,712.2,474.7z M719.7,476.2c1.8,0,3-1,3-2.4c0-1.2-0.8-1.9-2.4-2.2l-0.7-0.1
	c-0.7-0.1-1-0.3-1-0.8c0-0.4,0.3-0.8,1.1-0.8c0.7,0,1.3,0.3,1.8,0.8l1-1c-0.7-0.7-1.4-1.1-2.9-1.1c-1.7,0-2.8,0.9-2.8,2.3
	c0,1.3,0.9,2,2.4,2.2l0.7,0.1c0.6,0.1,0.9,0.4,0.9,0.8c0,0.5-0.4,0.8-1.2,0.8c-0.8,0-1.5-0.4-2-1l-1.1,1.1
	C717.4,475.6,718.3,476.2,719.7,476.2z M726.6,476h1.3v-1.4h-1.4v-4.5h1.5v-1.4h-1.5v-2h-1.6v1.2c0,0.5-0.2,0.8-0.7,0.8h-0.6v1.4
	h1.1v4C724.7,475.3,725.4,476,726.6,476z"/>
<rect x="765" y="448" class="st1" width="48" height="48"/>
<rect x="765" y="448" class="st3" width="48" height="48"/>
<path class="st1" d="M792.1,472h-6.2c-0.3,0-0.6,0.1-0.9,0.4c-0.2,0.2-0.4,0.6-0.4,0.9v3.8c0,0.3,0.1,0.6,0.4,0.9
	c0.2,0.2,0.6,0.4,0.9,0.4h2.5v1.2h-1.9v1.2h5v-1.2h-1.9v-1.2h2.5c0.3,0,0.6-0.1,0.9-0.4c0.2-0.2,0.4-0.6,0.4-0.9v-3.8
	c0-0.3-0.1-0.6-0.4-0.9C792.8,472.1,792.5,472,792.1,472z M785.9,477v-3.8h6.2l0,3.8H785.9z"/>
<path class="st1" d="M795.1,468.3c-0.3-1.4-1-2.7-2.2-3.6c-1.1-0.9-2.5-1.4-4-1.4s-2.9,0.5-4,1.4c-1.1,0.9-1.9,2.2-2.2,3.6
	c-1.1,0.2-2.1,0.8-2.9,1.7c-0.7,0.9-1.1,2-1,3.2c0.1,1.1,0.5,2.2,1.3,3c0.8,0.8,1.9,1.3,3,1.4v-1.2c-0.9-0.1-1.7-0.5-2.2-1.1
	c-0.6-0.6-0.9-1.5-0.9-2.3c0-0.9,0.3-1.7,0.9-2.3c0.6-0.6,1.4-1,2.3-1.1l0.5,0l0.1-0.5c0.1-1.2,0.7-2.4,1.6-3.2
	c0.9-0.8,2.1-1.3,3.3-1.3s2.4,0.5,3.3,1.3c0.9,0.8,1.5,2,1.6,3.2l0.1,0.5l0.5,0c0.9,0.1,1.7,0.4,2.3,1.1c0.6,0.6,0.9,1.5,0.9,2.3
	c0,0.9-0.3,1.7-0.9,2.3c-0.6,0.6-1.4,1-2.2,1.1v1.2c1.1-0.1,2.2-0.6,3-1.4c0.8-0.8,1.3-1.9,1.3-3c0.1-1.1-0.3-2.3-1-3.2
	C797.3,469.1,796.3,468.5,795.1,468.3z"/>
<path d="M828.1,476h1.8v-9.8h-1.8v4H824v-4h-1.8v9.8h1.8v-4.1h4.1V476z M835.2,476.2c2.1,0,3.4-1.5,3.4-3.8c0-2.3-1.3-3.8-3.4-3.8
	c-2.1,0-3.4,1.5-3.4,3.8C831.8,474.7,833.1,476.2,835.2,476.2z M835.2,474.7c-0.9,0-1.5-0.6-1.5-1.7v-1.4c0-1.1,0.6-1.7,1.5-1.7
	c0.9,0,1.5,0.6,1.5,1.7v1.4C836.7,474.1,836.1,474.7,835.2,474.7z M842.7,476.2c1.8,0,3-1,3-2.4c0-1.2-0.8-1.9-2.4-2.2l-0.7-0.1
	c-0.7-0.1-1-0.3-1-0.8c0-0.4,0.3-0.8,1.1-0.8c0.7,0,1.3,0.3,1.8,0.8l1-1c-0.7-0.7-1.4-1.1-2.9-1.1c-1.7,0-2.8,0.9-2.8,2.3
	c0,1.3,0.9,2,2.4,2.2l0.7,0.1c0.6,0.1,0.9,0.4,0.9,0.8c0,0.5-0.4,0.8-1.2,0.8c-0.8,0-1.5-0.4-2-1l-1.1,1.1
	C840.4,475.6,841.3,476.2,842.7,476.2z M849.6,476h1.3v-1.4h-1.4v-4.5h1.5v-1.4h-1.5v-2h-1.6v1.2c0,0.5-0.2,0.8-0.7,0.8h-0.6v1.4
	h1.1v4C847.7,475.3,848.4,476,849.6,476z"/>
<path class="st12" d="M296,544l2.9-5h-5.8L296,544z M296,496l-2.9,5h5.8L296,496z M296.5,539.5v-39h-1v39H296.5z"/>
<path class="st12" d="M296,640l2.9-5h-5.8L296,640z M296,592l-2.9,5h5.8L296,592z M296.5,635.5v-39h-1v39H296.5z"/>
<path class="st13" d="M420,544l2.9-5h-5.8L420,544z"/>
<path class="st13" d="M420,496l-2.9,5h5.8L420,496z"/>
<path class="st13" d="M420.5,538v-4h-1v4H420.5z"/>
<path class="st13" d="M420.5,530v-4h-1v4H420.5z"/>
<path class="st13" d="M420.5,522v-4h-1v4H420.5z"/>
<path class="st13" d="M420.5,514v-4h-1v4H420.5z"/>
<path class="st13" d="M420.5,506v-4h-1v4H420.5z"/>
<path class="st13" d="M420,640l2.9-5h-5.8L420,640z"/>
<path class="st13" d="M420,592l-2.9,5h5.8L420,592z"/>
<path class="st13" d="M420.5,634v-4h-1v4H420.5z"/>
<path class="st13" d="M420.5,626v-4h-1v4H420.5z"/>
<path class="st13" d="M420.5,618v-4h-1v4H420.5z"/>
<path class="st13" d="M420.5,610v-4h-1v4H420.5z"/>
<path class="st13" d="M420.5,602v-4h-1v4H420.5z"/>
<path class="st13" d="M543,544l2.9-5h-5.8L543,544z"/>
<path class="st13" d="M543,496l-2.9,5h5.8L543,496z"/>
<path class="st13" d="M543.5,538v-4h-1v4H543.5z"/>
<path class="st13" d="M543.5,530v-4h-1v4H543.5z"/>
<path class="st13" d="M543.5,522v-4h-1v4H543.5z"/>
<path class="st13" d="M543.5,514v-4h-1v4H543.5z"/>
<path class="st13" d="M543.5,506v-4h-1v4H543.5z"/>
<path class="st13" d="M543,640l2.9-5h-5.8L543,640z"/>
<path class="st13" d="M543,592l-2.9,5h5.8L543,592z"/>
<path class="st13" d="M543.5,634v-4h-1v4H543.5z"/>
<path class="st13" d="M543.5,626v-4h-1v4H543.5z"/>
<path class="st13" d="M543.5,618v-4h-1v4H543.5z"/>
<path class="st13" d="M543.5,610v-4h-1v4H543.5z"/>
<path class="st13" d="M543.5,602v-4h-1v4H543.5z"/>
<path class="st12" d="M296,448l2.9-5h-5.8L296,448z M296,400l-2.9,5h5.8L296,400z M296.5,443.5v-39h-1v39H296.5z"/>
<path class="st14" d="M280,352.5h32c4.1,0,7.5,3.4,7.5,7.5v32c0,4.1-3.4,7.5-7.5,7.5h-32c-4.1,0-7.5-3.4-7.5-7.5v-32
	C272.5,355.9,275.9,352.5,280,352.5z"/>
<path d="M303.5,374.8h-0.6v-7.5h-1.2v7.5H301c-0.3,0-0.6,0.1-0.9,0.4c-0.2,0.2-0.4,0.6-0.4,0.9v1.2c0,0.3,0.1,0.6,0.4,0.9
	c0.2,0.2,0.6,0.4,0.9,0.4h0.6v6.2h1.2v-6.2h0.6c0.3,0,0.6-0.1,0.9-0.4c0.2-0.2,0.4-0.6,0.4-0.9V376c0-0.3-0.1-0.6-0.4-0.9
	C304.1,374.9,303.8,374.8,303.5,374.8z M303.5,377.3H301V376h2.5V377.3z"/>
<path d="M297.2,369.8h-0.6v-2.5h-1.2v2.5h-0.6c-0.3,0-0.6,0.1-0.9,0.4c-0.2,0.2-0.4,0.6-0.4,0.9v1.2c0,0.3,0.1,0.6,0.4,0.9
	c0.2,0.2,0.6,0.4,0.9,0.4h0.6v11.2h1.2v-11.2h0.6c0.3,0,0.6-0.1,0.9-0.4c0.2-0.2,0.4-0.6,0.4-0.9V371c0-0.3-0.1-0.6-0.4-0.9
	C297.9,369.9,297.6,369.8,297.2,369.8z M297.2,372.3h-2.5V371h2.5V372.3z"/>
<path d="M291,378.5h-0.6v-11.2h-1.2v11.2h-0.6c-0.3,0-0.6,0.1-0.9,0.4c-0.2,0.2-0.4,0.6-0.4,0.9v1.2c0,0.3,0.1,0.6,0.4,0.9
	c0.2,0.2,0.6,0.4,0.9,0.4h0.6v2.5h1.2v-2.5h0.6c0.3,0,0.6-0.1,0.9-0.4c0.2-0.2,0.4-0.6,0.4-0.9v-1.2c0-0.3-0.1-0.6-0.4-0.9
	C291.6,378.6,291.3,378.5,291,378.5z M291,381h-2.5v-1.2h2.5V381z"/>
<path d="M332.9,380.2c1.8,0,2.9-0.9,3.6-2.3l-1.5-0.9c-0.3,0.9-1,1.6-2.1,1.6c-1.4,0-2.3-1-2.3-2.6v-1.5c0-1.7,0.9-2.7,2.3-2.7
	c1.1,0,1.7,0.6,2,1.5l1.6-0.8c-0.7-1.5-1.8-2.3-3.6-2.3c-2.6,0-4.2,1.8-4.2,5.1C328.7,378.5,330.4,380.2,332.9,380.2z M341.1,380.2
	c2.1,0,3.4-1.5,3.4-3.8c0-2.3-1.3-3.8-3.4-3.8c-2.1,0-3.4,1.5-3.4,3.8C337.7,378.7,339,380.2,341.1,380.2z M341.1,378.7
	c-0.9,0-1.5-0.6-1.5-1.7v-1.4c0-1.1,0.6-1.7,1.5-1.7c0.9,0,1.5,0.6,1.5,1.7v1.4C342.6,378.1,342,378.7,341.1,378.7z M348,380v-4.8
	c0-0.8,0.7-1.2,1.5-1.2c0.9,0,1.2,0.5,1.2,1.6v4.4h1.8v-4.6c0-1.8-0.8-2.9-2.3-2.9c-1.1,0-1.8,0.6-2,1.4H348v-1.2h-1.8v7.3H348z
	 M356.9,380h1.3v-1.4h-1.4v-4.5h1.5v-1.4h-1.5v-2h-1.6v1.2c0,0.5-0.2,0.8-0.7,0.8h-0.6v1.4h1.1v4C355,379.3,355.7,380,356.9,380z
	 M361.8,380v-4.5c0-0.8,0.6-1.1,1.8-1.1h0.6v-1.7h-0.4c-1.2,0-1.8,0.7-1.9,1.5h-0.1v-1.5H360v7.3H361.8z M368.5,380.2
	c2.1,0,3.4-1.5,3.4-3.8c0-2.3-1.3-3.8-3.4-3.8c-2.1,0-3.4,1.5-3.4,3.8C365.1,378.7,366.4,380.2,368.5,380.2z M368.5,378.7
	c-0.9,0-1.5-0.6-1.5-1.7v-1.4c0-1.1,0.6-1.7,1.5-1.7c0.9,0,1.5,0.6,1.5,1.7v1.4C370,378.1,369.4,378.7,368.5,378.7z M376.4,380v-1.4
	h-1v-8.9h-1.8v8.6c0,1.1,0.6,1.8,1.8,1.8H376.4z M381.4,382.8h1.8v-4h0.1c0.3,0.8,1,1.4,2,1.4c1.8,0,2.9-1.4,2.9-3.8
	c0-2.4-1-3.8-2.9-3.8c-1,0-1.8,0.5-2,1.4h-0.1v-1.2h-1.8V382.8z M384.7,378.7c-0.9,0-1.5-0.4-1.5-1.2v-2.3c0-0.7,0.6-1.2,1.5-1.2
	c0.9,0,1.6,0.7,1.6,1.7v1.3C386.3,378,385.6,378.7,384.7,378.7z M392.7,380v-1.4h-1v-8.9h-1.8v8.6c0,1.1,0.6,1.8,1.8,1.8H392.7z
	 M396,380.2c1.1,0,1.9-0.5,2.1-1.4h0.1c0.1,0.8,0.6,1.3,1.4,1.3h1v-1.4h-0.7v-3.4c0-1.7-1-2.6-3-2.6c-1.5,0-2.3,0.6-2.9,1.4l1.1,1
	c0.4-0.5,0.8-0.9,1.7-0.9c1,0,1.4,0.5,1.4,1.3v0.5h-1.2c-2,0-3.1,0.7-3.1,2.2C393.7,379.3,394.5,380.2,396,380.2z M396.6,378.9
	c-0.7,0-1.1-0.3-1.1-0.9v-0.2c0-0.6,0.5-0.9,1.4-0.9h1.1v1C398.1,378.5,397.4,378.9,396.6,378.9z M404,380v-4.8
	c0-0.8,0.7-1.2,1.5-1.2c0.9,0,1.2,0.5,1.2,1.6v4.4h1.8v-4.6c0-1.8-0.8-2.9-2.3-2.9c-1.1,0-1.8,0.6-2,1.4H404v-1.2h-1.8v7.3H404z
	 M413.5,380.2c1.4,0,2.4-0.5,3-1.3l-1-1.1c-0.4,0.6-1,1-1.9,1c-1.2,0-1.8-0.7-1.8-1.8v-0.2h4.9v-0.6c0-2-1.1-3.7-3.3-3.7
	c-2.1,0-3.4,1.5-3.4,3.8C410.1,378.7,411.4,380.2,413.5,380.2z M413.5,373.9c0.9,0,1.4,0.7,1.4,1.7v0.1h-3v-0.1
	C412,374.6,412.6,373.9,413.5,373.9z"/>
<path class="st13" d="M483,400l-2.9,5h2.4v11.5h-63V443h-2.4l2.9,5l2.9-5h-2.4v-25.5h122v26h-2.4l2.9,5l2.9-5h-2.4v-27h-60V405h2.4
	L483,400z"/>
<path class="st15" d="M650,352.5h32c4.1,0,7.5,3.4,7.5,7.5v32c0,4.1-3.4,7.5-7.5,7.5h-32c-4.1,0-7.5-3.4-7.5-7.5v-32
	C642.5,355.9,645.9,352.5,650,352.5z"/>
<path class="st9" d="M651,355.5h30c3,0,5.5,2.5,5.5,5.5v30c0,3-2.5,5.5-5.5,5.5h-30c-3,0-5.5-2.5-5.5-5.5v-30
	C645.5,358,648,355.5,651,355.5z"/>
<path class="st1" d="M666,377.2h-6.2c-0.3,0-0.6-0.1-0.9-0.4c-0.2-0.2-0.4-0.6-0.4-0.9v-6.2c0-0.3,0.1-0.6,0.4-0.9
	c0.2-0.2,0.6-0.4,0.9-0.4h6.2c0.3,0,0.6,0.1,0.9,0.4c0.2,0.2,0.4,0.6,0.4,0.9v6.2c0,0.3-0.1,0.6-0.4,0.9
	C666.6,377.1,666.3,377.2,666,377.2z M659.8,369.8v6.2h6.2v-6.2H659.8z"/>
<path class="st1" d="M672.2,373.5v2.5h-2.5v-2.5H672.2z M672.2,372.2h-2.5c-0.3,0-0.6,0.1-0.9,0.4c-0.2,0.2-0.4,0.6-0.4,0.9v2.5
	c0,0.3,0.1,0.6,0.4,0.9c0.2,0.2,0.6,0.4,0.9,0.4h2.5c0.3,0,0.6-0.1,0.9-0.4c0.2-0.2,0.4-0.6,0.4-0.9v-2.5c0-0.3-0.1-0.6-0.4-0.9
	C672.9,372.4,672.6,372.2,672.2,372.2z"/>
<path class="st1" d="M672.2,379.8v2.5h-2.5v-2.5H672.2z M672.2,378.5h-2.5c-0.3,0-0.6,0.1-0.9,0.4c-0.2,0.2-0.4,0.6-0.4,0.9v2.5
	c0,0.3,0.1,0.6,0.4,0.9c0.2,0.2,0.6,0.4,0.9,0.4h2.5c0.3,0,0.6-0.1,0.9-0.4c0.2-0.2,0.4-0.6,0.4-0.9v-2.5c0-0.3-0.1-0.6-0.4-0.9
	C672.9,378.6,672.6,378.5,672.2,378.5z"/>
<path class="st1" d="M666,379.8v2.5h-2.5v-2.5H666z M666,378.5h-2.5c-0.3,0-0.6,0.1-0.9,0.4c-0.2,0.2-0.4,0.6-0.4,0.9v2.5
	c0,0.3,0.1,0.6,0.4,0.9c0.2,0.2,0.6,0.4,0.9,0.4h2.5c0.3,0,0.6-0.1,0.9-0.4c0.2-0.2,0.4-0.6,0.4-0.9v-2.5c0-0.3-0.1-0.6-0.4-0.9
	C666.6,378.6,666.3,378.5,666,378.5z"/>
<path d="M702.2,380.2c2.3,0,3.7-1.3,3.7-3.1c0-1.6-0.9-2.5-2.9-2.8L702,374c-0.9-0.2-1.4-0.5-1.4-1.2c0-0.7,0.5-1.1,1.6-1.1
	c1,0,1.7,0.4,2.2,1l1.3-1.2c-0.8-0.9-1.9-1.4-3.3-1.4c-2.2,0-3.5,1.1-3.5,2.9c0,1.6,1,2.5,2.9,2.8l0.9,0.1c1,0.2,1.3,0.6,1.3,1.2
	c0,0.8-0.6,1.4-1.7,1.4c-1,0-1.8-0.4-2.5-1.2l-1.2,1.2C699.4,379.5,700.5,380.2,702.2,380.2z M710.7,380.2c1.4,0,2.4-0.5,3-1.3
	l-1-1.1c-0.4,0.6-1,1-1.9,1c-1.2,0-1.8-0.7-1.8-1.8v-0.2h4.9v-0.6c0-2-1-3.7-3.3-3.7c-2.1,0-3.4,1.5-3.4,3.8
	C707.3,378.7,708.6,380.2,710.7,380.2z M710.7,373.9c0.9,0,1.4,0.7,1.4,1.7v0.1h-3v-0.1C709.1,374.6,709.7,373.9,710.7,373.9z
	 M717.5,380v-4.5c0-0.8,0.6-1.1,1.8-1.1h0.6v-1.7h-0.4c-1.2,0-1.8,0.7-1.9,1.5h-0.1v-1.5h-1.8v7.3H717.5z M725.2,380l2.5-7.3h-1.7
	l-1,3.2l-0.7,2.6h-0.1l-0.7-2.6l-1-3.2h-1.8l2.4,7.3H725.2z M729.9,371.6c0.7,0,1.1-0.4,1.1-0.9v-0.3c0-0.5-0.3-0.9-1.1-0.9
	c-0.7,0-1,0.4-1,0.9v0.3C728.8,371.2,729.1,371.6,729.9,371.6z M729,380h1.8v-7.3H729V380z M735.9,380.2c1.4,0,2.4-0.6,2.9-1.9
	l-1.4-0.7c-0.3,0.7-0.7,1.1-1.5,1.1c-1,0-1.5-0.7-1.5-1.7v-1.3c0-1,0.5-1.7,1.5-1.7c0.8,0,1.2,0.4,1.4,1.1l1.5-0.7
	c-0.4-1.1-1.4-1.8-2.9-1.8c-2.2,0-3.4,1.5-3.4,3.8C732.5,378.7,733.7,380.2,735.9,380.2z M743.2,380.2c1.4,0,2.4-0.5,3-1.3l-1-1.1
	c-0.4,0.6-1,1-1.9,1c-1.2,0-1.8-0.7-1.8-1.8v-0.2h4.9v-0.6c0-2-1.1-3.7-3.3-3.7c-2.1,0-3.4,1.5-3.4,3.8
	C739.8,378.7,741.1,380.2,743.2,380.2z M743.2,373.9c0.9,0,1.4,0.7,1.4,1.7v0.1h-3v-0.1C741.7,374.6,742.3,373.9,743.2,373.9z
	 M758.3,378.4h-4.8l2.1-1.7c1.4-1.1,2.5-2.2,2.5-3.8c0-1.7-1.2-2.9-3.2-2.9c-2,0-3,1.1-3.5,2.4l1.6,0.6c0.2-0.8,0.7-1.5,1.7-1.5
	c0.8,0,1.4,0.5,1.4,1.3v0.2c0,0.9-0.5,1.5-1.5,2.4l-3.1,2.7v1.7h6.8V378.4z"/>
<path class="st15" d="M467,352.5h32c4.1,0,7.5,3.4,7.5,7.5v32c0,4.1-3.4,7.5-7.5,7.5h-32c-4.1,0-7.5-3.4-7.5-7.5v-32
	C459.5,355.9,462.9,352.5,467,352.5z"/>
<path class="st9" d="M468,355.5h30c3,0,5.5,2.5,5.5,5.5v30c0,3-2.5,5.5-5.5,5.5h-30c-3,0-5.5-2.5-5.5-5.5v-30
	C462.5,358,465,355.5,468,355.5z"/>
<path class="st1" d="M483,377.2h-6.2c-0.3,0-0.6-0.1-0.9-0.4c-0.2-0.2-0.4-0.6-0.4-0.9v-6.2c0-0.3,0.1-0.6,0.4-0.9
	c0.2-0.2,0.6-0.4,0.9-0.4h6.2c0.3,0,0.6,0.1,0.9,0.4c0.2,0.2,0.4,0.6,0.4,0.9v6.2c0,0.3-0.1,0.6-0.4,0.9
	C483.6,377.1,483.3,377.2,483,377.2z M476.8,369.8v6.2h6.2v-6.2H476.8z"/>
<path class="st1" d="M489.2,373.5v2.5h-2.5v-2.5H489.2z M489.2,372.2h-2.5c-0.3,0-0.6,0.1-0.9,0.4c-0.2,0.2-0.4,0.6-0.4,0.9v2.5
	c0,0.3,0.1,0.6,0.4,0.9c0.2,0.2,0.6,0.4,0.9,0.4h2.5c0.3,0,0.6-0.1,0.9-0.4c0.2-0.2,0.4-0.6,0.4-0.9v-2.5c0-0.3-0.1-0.6-0.4-0.9
	C489.9,372.4,489.6,372.2,489.2,372.2z"/>
<path class="st1" d="M489.2,379.8v2.5h-2.5v-2.5H489.2z M489.2,378.5h-2.5c-0.3,0-0.6,0.1-0.9,0.4c-0.2,0.2-0.4,0.6-0.4,0.9v2.5
	c0,0.3,0.1,0.6,0.4,0.9c0.2,0.2,0.6,0.4,0.9,0.4h2.5c0.3,0,0.6-0.1,0.9-0.4c0.2-0.2,0.4-0.6,0.4-0.9v-2.5c0-0.3-0.1-0.6-0.4-0.9
	C489.9,378.6,489.6,378.5,489.2,378.5z"/>
<path class="st1" d="M483,379.8v2.5h-2.5v-2.5H483z M483,378.5h-2.5c-0.3,0-0.6,0.1-0.9,0.4c-0.2,0.2-0.4,0.6-0.4,0.9v2.5
	c0,0.3,0.1,0.6,0.4,0.9c0.2,0.2,0.6,0.4,0.9,0.4h2.5c0.3,0,0.6-0.1,0.9-0.4c0.2-0.2,0.4-0.6,0.4-0.9v-2.5c0-0.3-0.1-0.6-0.4-0.9
	C483.6,378.6,483.3,378.5,483,378.5z"/>
<path d="M519.2,380.2c2.3,0,3.7-1.3,3.7-3.1c0-1.6-0.9-2.5-2.9-2.8L519,374c-0.9-0.2-1.4-0.5-1.4-1.2c0-0.7,0.5-1.1,1.6-1.1
	c1,0,1.7,0.4,2.2,1l1.3-1.2c-0.8-0.9-1.9-1.4-3.3-1.4c-2.2,0-3.5,1.1-3.5,2.9c0,1.6,1,2.5,2.9,2.8l0.9,0.1c1,0.2,1.3,0.6,1.3,1.2
	c0,0.8-0.6,1.4-1.7,1.4c-1,0-1.8-0.4-2.5-1.2l-1.2,1.2C516.4,379.5,517.5,380.2,519.2,380.2z M527.7,380.2c1.4,0,2.4-0.5,3-1.3
	l-1-1.1c-0.4,0.6-1,1-1.9,1c-1.2,0-1.8-0.7-1.8-1.8v-0.2h4.9v-0.6c0-2-1-3.7-3.3-3.7c-2.1,0-3.4,1.5-3.4,3.8
	C524.3,378.7,525.6,380.2,527.7,380.2z M527.7,373.9c0.9,0,1.4,0.7,1.4,1.7v0.1h-3v-0.1C526.1,374.6,526.7,373.9,527.7,373.9z
	 M534.5,380v-4.5c0-0.8,0.6-1.1,1.8-1.1h0.6v-1.7h-0.4c-1.2,0-1.8,0.7-1.9,1.5h-0.1v-1.5h-1.8v7.3H534.5z M542.2,380l2.5-7.3h-1.7
	l-1,3.2l-0.7,2.6h-0.1l-0.7-2.6l-1-3.2h-1.8l2.4,7.3H542.2z M546.9,371.6c0.7,0,1.1-0.4,1.1-0.9v-0.3c0-0.5-0.3-0.9-1.1-0.9
	c-0.7,0-1,0.4-1,0.9v0.3C545.8,371.2,546.1,371.6,546.9,371.6z M546,380h1.8v-7.3H546V380z M552.9,380.2c1.4,0,2.4-0.6,2.9-1.9
	l-1.4-0.7c-0.3,0.7-0.7,1.1-1.5,1.1c-1,0-1.5-0.7-1.5-1.7v-1.3c0-1,0.5-1.7,1.5-1.7c0.8,0,1.2,0.4,1.4,1.1l1.5-0.7
	c-0.4-1.1-1.4-1.8-2.9-1.8c-2.2,0-3.4,1.5-3.4,3.8C549.5,378.7,550.7,380.2,552.9,380.2z M560.2,380.2c1.4,0,2.4-0.5,3-1.3l-1-1.1
	c-0.4,0.6-1,1-1.9,1c-1.2,0-1.8-0.7-1.8-1.8v-0.2h4.9v-0.6c0-2-1.1-3.7-3.3-3.7c-2.1,0-3.4,1.5-3.4,3.8
	C556.8,378.7,558.1,380.2,560.2,380.2z M560.2,373.9c0.9,0,1.4,0.7,1.4,1.7v0.1h-3v-0.1C558.7,374.6,559.3,373.9,560.2,373.9z
	 M575.7,380v-1.5h-2.2v-8.3h-2.8l-2.4,2.9l1.1,1l2.1-2.5h0.1v6.9H569v1.5H575.7z"/>
<path class="st7" d="M665.9,400l-2.9,5h5.8L665.9,400z"/>
<path class="st7" d="M666.4,448v-2h-1v2H666.4z"/>
<path class="st7" d="M666.4,442v-4h-1v4H666.4z"/>
<path class="st7" d="M666.4,434v-4h-1v4H666.4z"/>
<path class="st7" d="M666.4,426v-4h-1v4H666.4z"/>
<path class="st7" d="M666.4,418v-4h-1v4H666.4z"/>
<path class="st7" d="M666.4,410v-4h-1v4H666.4z"/>
<path class="st7" d="M666.4,542v2h-1v-2H666.4z"/>
<path class="st7" d="M666.4,534v4h-1v-4H666.4z"/>
<path class="st7" d="M666.4,526v4h-1v-4H666.4z"/>
<path class="st7" d="M666.4,518v4h-1v-4H666.4z"/>
<path class="st7" d="M666.4,510v4h-1v-4H666.4z"/>
<path class="st7" d="M666.4,502v4h-1v-4H666.4z"/>
<path class="st7" d="M666.4,496v2h-1v-2H666.4z"/>
<path class="st7" d="M666.4,638v2h-1v-2H666.4z"/>
<path class="st7" d="M666.4,630v4h-1v-4H666.4z"/>
<path class="st7" d="M666.4,622v4h-1v-4H666.4z"/>
<path class="st7" d="M666.4,614v4h-1v-4H666.4z"/>
<path class="st7" d="M666.4,606v4h-1v-4H666.4z"/>
<path class="st7" d="M666.4,598v4h-1v-4H666.4z"/>
<path class="st7" d="M666.4,592v2h-1v-2H666.4z"/>
<path class="st16" d="M192,80l-5-2.9v5.8L192,80z M135,80.5h52.5v-1H135V80.5z"/>
<path class="st1" d="M56,71.5h72c4.1,0,7.5,3.4,7.5,7.5l0,0c0,4.1-3.4,7.5-7.5,7.5H56c-4.1,0-7.5-3.4-7.5-7.5l0,0
	C48.5,74.9,51.9,71.5,56,71.5z"/>
<path d="M58.1,83v-3.8h3.6v-0.9h-3.6v-2.8h4v-0.9h-5V83H58.1z M64.8,83v-4.2c0-0.6,0.6-1,1.7-1H67v-1h-0.4c-1,0-1.6,0.6-1.8,1.1
	h-0.1v-1.1h-1V83H64.8z M70.8,83.1c1.7,0,2.8-1.3,2.8-3.2s-1.1-3.2-2.8-3.2S68,77.9,68,79.9S69.2,83.1,70.8,83.1z M70.8,82.3
	c-1,0-1.8-0.6-1.8-1.9v-0.9c0-1.3,0.7-1.9,1.8-1.9s1.8,0.6,1.8,1.9v0.9C72.6,81.7,71.8,82.3,70.8,82.3z M76.5,83v-4.3
	c0-0.8,0.7-1.2,1.5-1.2c0.9,0,1.3,0.6,1.3,1.7V83h1v-4.3c0-0.8,0.7-1.2,1.5-1.2c0.9,0,1.4,0.6,1.4,1.7V83h1v-4c0-1.5-0.8-2.4-2-2.4
	c-1.1,0-1.7,0.6-1.9,1.3h0c-0.3-0.9-1.1-1.3-1.9-1.3c-1,0-1.4,0.5-1.7,1.2h0v-1h-1V83H76.5z M91.3,83.1c1.4,0,2.3-0.7,2.3-1.9
	c0-0.9-0.5-1.5-1.9-1.7l-0.5-0.1c-0.8-0.1-1.2-0.4-1.2-1c0-0.6,0.4-1,1.2-1s1.3,0.4,1.6,0.8l0.6-0.6c-0.5-0.6-1.2-1-2.2-1
	c-1.3,0-2.2,0.6-2.2,1.8c0,1.2,0.9,1.6,2,1.8l0.5,0.1c0.8,0.1,1.1,0.5,1.1,1c0,0.6-0.5,1-1.3,1c-0.8,0-1.4-0.3-1.8-0.9l-0.7,0.6
	C89.4,82.7,90.2,83.1,91.3,83.1z M98.1,83v-0.8h-1.3v-4.5h1.4v-0.8h-1.4v-1.7H96v1.2c0,0.4-0.1,0.6-0.5,0.6h-0.6v0.8h1V82
	c0,0.6,0.4,1,1,1H98.1z M102.4,83.1c1.2,0,2.1-0.6,2.4-1.4l-0.7-0.5c-0.3,0.7-0.9,1.1-1.7,1.1c-1.2,0-1.8-0.8-1.8-1.9v-0.3h4.5v-0.5
	c0-1.8-1-3-2.7-3c-1.7,0-2.8,1.3-2.8,3.2S100.7,83.1,102.4,83.1z M102.4,77.5c1,0,1.6,0.7,1.6,1.8v0.1h-3.4v-0.1
	C100.6,78.3,101.3,77.5,102.4,77.5z M106.9,85.4h1V82h0c0.4,0.8,1,1.2,1.8,1.2c1.5,0,2.5-1.3,2.5-3.2c0-2-1-3.2-2.5-3.2
	c-0.9,0-1.5,0.4-1.8,1.2h0v-1h-1V85.4z M109.5,82.3c-0.9,0-1.6-0.5-1.6-1.3v-2.3c0-0.7,0.7-1.2,1.6-1.2c1.1,0,1.8,0.7,1.8,1.8v1.1
	C111.2,81.5,110.6,82.3,109.5,82.3z M122.3,74.6h-4.5l-0.3,4.6l0.9,0.1c0.3-0.4,0.7-0.7,1.5-0.7c1.1,0,1.8,0.6,1.8,1.7v0.1
	c0,1.1-0.6,1.7-1.8,1.7c-1,0-1.4-0.4-1.9-1.1l-0.8,0.6c0.5,0.7,1.2,1.4,2.6,1.4c1.8,0,2.8-1.1,2.8-2.8c0-1.6-1.1-2.6-2.5-2.6
	c-0.9,0-1.3,0.4-1.7,0.9h-0.1l0.2-3.2h3.7V74.6z M125.5,83.1c0.5,0,0.7-0.3,0.7-0.7v-0.2c0-0.4-0.2-0.7-0.7-0.7s-0.7,0.3-0.7,0.7
	v0.2C124.8,82.9,125,83.1,125.5,83.1z"/>
<path class="st17" d="M56,71.5h72c4.1,0,7.5,3.4,7.5,7.5l0,0c0,4.1-3.4,7.5-7.5,7.5H56c-4.1,0-7.5-3.4-7.5-7.5l0,0
	C48.5,74.9,51.9,71.5,56,71.5z"/>
<path class="st13" d="M201.5,56h32c4.4,0,8,3.6,8,8v32c0,4.4-3.6,8-8,8h-32c-4.4,0-8-3.6-8-8V64C193.5,59.6,197.1,56,201.5,56z"/>
<path class="st1" d="M217.5,83.8V80h-3.8v-3.8h-5v12.5h12.5v-5H217.5z M216.2,81.2v2.5h-2.5v-2.5H216.2z M210,77.5h2.5V80H210V77.5z
	 M212.5,81.2v2.5H210v-2.5H212.5z M210,87.5V85h2.5v2.5H210z M216.2,87.5h-2.5V85h2.5V87.5z M220,87.5h-2.5V85h2.5V87.5z"/>
<path class="st1" d="M226,78.5l-1.6,1.6v-3.9h1.9v-5h-5v5h1.9v3.9l-1.6-1.6l-0.9,0.9l3.1,3.1l3.1-3.1L226,78.5z M222.5,72.5h2.5V75
	h-2.5V72.5z"/>
<path d="M215.4,126.2c2.2,0,3.5-1.4,3.5-3.4c0-1.8-1.2-3-2.9-3c-1.2,0-1.8,0.7-2.2,1.4l-0.1,0c0.4-2,1.8-3.3,4.1-5h-2.5
	c-1.6,1.1-3.5,3.3-3.5,6.1C211.8,124.7,213.1,126.2,215.4,126.2z M215.4,124.7c-1,0-1.7-0.6-1.7-1.7v-0.2c0-1.1,0.6-1.7,1.7-1.7
	c1,0,1.7,0.6,1.7,1.7v0.2C217,124.1,216.4,124.7,215.4,124.7z M221.8,126.2c0.8,0,1.1-0.4,1.1-1v-0.3c0-0.6-0.3-1-1.1-1
	c-0.8,0-1.1,0.4-1.1,1v0.3C220.7,125.7,221,126.2,221.8,126.2z"/>
<path d="M184.1,144l-3.4-9.8h-1.5l-3.4,9.8h1.2l1-2.9h3.9l1,2.9H184.1z M181.6,140.1h-3.4l1.7-4.8h0.1L181.6,140.1z M187.9,144.2
	c1.7,0,2.7-0.9,2.7-2.3c0-1.1-0.6-1.8-2.2-2l-0.6-0.1c-0.9-0.1-1.4-0.4-1.4-1.1c0-0.7,0.5-1.1,1.4-1.1s1.5,0.4,1.9,0.9l0.7-0.7
	c-0.6-0.7-1.4-1.2-2.5-1.2c-1.5,0-2.6,0.7-2.6,2.1c0,1.3,1,1.9,2.3,2.1l0.6,0.1c1,0.1,1.3,0.6,1.3,1.1c0,0.7-0.6,1.2-1.5,1.2
	c-0.9,0-1.6-0.4-2.1-1.1l-0.8,0.6C185.7,143.6,186.6,144.2,187.9,144.2z M194.8,144.2c1.7,0,2.7-0.9,2.7-2.3c0-1.1-0.6-1.8-2.2-2
	l-0.6-0.1c-0.9-0.1-1.4-0.4-1.4-1.1c0-0.7,0.5-1.1,1.4-1.1c0.9,0,1.5,0.4,1.9,0.9l0.7-0.7c-0.6-0.7-1.4-1.2-2.5-1.2
	c-1.5,0-2.6,0.7-2.6,2.1c0,1.3,1,1.9,2.3,2.1l0.6,0.1c1,0.1,1.3,0.6,1.3,1.1c0,0.7-0.6,1.2-1.5,1.2c-0.9,0-1.6-0.4-2.1-1.1l-0.8,0.6
	C192.6,143.6,193.5,144.2,194.8,144.2z M200.2,135.1c0.5,0,0.7-0.3,0.7-0.6v-0.2c0-0.4-0.2-0.6-0.7-0.6s-0.7,0.3-0.7,0.6v0.2
	C199.5,134.8,199.7,135.1,200.2,135.1z M199.6,144h1.1v-7.2h-1.1V144z M209.4,144.8c0-1.2-0.8-1.9-2.6-1.9h-1.5
	c-0.7,0-1.1-0.1-1.1-0.5c0-0.4,0.5-0.7,1-0.8c0.2,0,0.5,0.1,0.7,0.1c1.7,0,2.7-1,2.7-2.5c0-0.8-0.3-1.4-0.8-1.9v-0.5h1.4v-1H208
	c-0.6,0-0.8,0.4-0.8,1v0.1c-0.4-0.2-0.9-0.3-1.4-0.3c-1.6,0-2.7,1-2.7,2.5c0,1,0.5,1.8,1.4,2.2v0.1c-0.7,0.2-1.2,0.5-1.2,1.3
	c0,0.5,0.2,0.8,0.6,1v0.2c-0.7,0.2-1.1,0.6-1.1,1.4c0,1.1,0.9,1.8,3.2,1.8C208.2,147,209.4,146.3,209.4,144.8z M208.3,144.9
	c0,0.8-0.7,1.2-2,1.2h-1c-1.1,0-1.6-0.5-1.6-1.1c0-0.4,0.2-0.8,0.7-1h2.4C207.9,143.9,208.3,144.3,208.3,144.9z M205.8,140.7
	c-1,0-1.6-0.4-1.6-1.4v-0.4c0-1,0.6-1.4,1.6-1.4s1.6,0.4,1.6,1.4v0.4C207.4,140.2,206.8,140.7,205.8,140.7z M212,144v-5
	c0-0.9,0.9-1.4,1.8-1.4c1.1,0,1.6,0.7,1.6,1.9v4.4h1.1v-4.6c0-1.8-0.9-2.8-2.4-2.8c-1.1,0-1.7,0.5-2,1.3H212v-1.2h-1.1v7.2H212z
	 M222.4,144h1.1v-5c0-0.9,0.9-1.4,1.8-1.4c1.1,0,1.6,0.7,1.6,1.9v4.4h1.1v-4.6c0-1.8-0.9-2.8-2.4-2.8c-1.1,0-1.7,0.5-2,1.3h-0.1
	v-4.3h-1.1V144z M233.3,144.2c1.9,0,3.3-1.5,3.3-3.8s-1.3-3.8-3.3-3.8s-3.3,1.5-3.3,3.8S231.3,144.2,233.3,144.2z M233.3,143.2
	c-1.2,0-2.1-0.7-2.1-2.3v-1c0-1.5,0.9-2.3,2.1-2.3s2.1,0.7,2.1,2.3v1C235.3,142.4,234.5,143.2,233.3,143.2z M240.7,144.2
	c1.7,0,2.7-0.9,2.7-2.3c0-1.1-0.6-1.8-2.2-2l-0.6-0.1c-0.9-0.1-1.4-0.4-1.4-1.1c0-0.7,0.5-1.1,1.4-1.1s1.5,0.4,1.9,0.9l0.7-0.7
	c-0.6-0.7-1.4-1.2-2.5-1.2c-1.5,0-2.6,0.7-2.6,2.1c0,1.3,1,1.9,2.3,2.1l0.6,0.1c1,0.1,1.3,0.6,1.3,1.1c0,0.7-0.6,1.2-1.5,1.2
	c-0.9,0-1.6-0.4-2.1-1.1l-0.8,0.6C238.5,143.6,239.4,144.2,240.7,144.2z M248.4,144v-1h-1.5v-5.3h1.6v-1h-1.6v-2h-1v1.3
	c0,0.5-0.2,0.7-0.6,0.7h-0.7v1h1.2v5.1c0,0.7,0.4,1.2,1.2,1.2H248.4z M252.7,144.2c1.7,0,2.7-0.9,2.7-2.3c0-1.1-0.6-1.8-2.2-2
	l-0.6-0.1c-0.9-0.1-1.4-0.4-1.4-1.1c0-0.7,0.5-1.1,1.4-1.1s1.5,0.4,1.9,0.9l0.7-0.7c-0.6-0.7-1.4-1.2-2.5-1.2
	c-1.5,0-2.6,0.7-2.6,2.1c0,1.3,1,1.9,2.3,2.1l0.6,0.1c1,0.1,1.3,0.6,1.3,1.1c0,0.7-0.6,1.2-1.5,1.2c-0.9,0-1.6-0.4-2.1-1.1l-0.8,0.6
	C250.4,143.6,251.3,144.2,252.7,144.2z M187.1,162v-1h-1.5v-5.3h1.6v-1h-1.6v-2h-1v1.3c0,0.5-0.2,0.7-0.6,0.7h-0.7v1h1.2v5.1
	c0,0.7,0.4,1.2,1.2,1.2H187.1z M191.8,162.2c1.9,0,3.3-1.5,3.3-3.8s-1.3-3.8-3.3-3.8c-1.9,0-3.3,1.5-3.3,3.8
	S189.9,162.2,191.8,162.2z M191.8,161.2c-1.2,0-2.1-0.7-2.1-2.3v-1c0-1.5,0.9-2.3,2.1-2.3c1.2,0,2.1,0.7,2.1,2.3v1
	C193.9,160.4,193,161.2,191.8,161.2z M202.7,162.2c1.7,0,2.7-0.9,2.7-2.3c0-1.1-0.6-1.8-2.2-2l-0.6-0.1c-0.9-0.1-1.4-0.4-1.4-1.1
	c0-0.7,0.5-1.1,1.4-1.1s1.5,0.4,1.9,0.9l0.7-0.7c-0.6-0.7-1.4-1.2-2.5-1.2c-1.5,0-2.6,0.7-2.6,2.1c0,1.3,1,1.9,2.3,2.1l0.6,0.1
	c1,0.1,1.3,0.6,1.3,1.1c0,0.7-0.6,1.2-1.5,1.2c-0.9,0-1.6-0.4-2.1-1.1l-0.8,0.6C200.5,161.6,201.4,162.2,202.7,162.2z M210.2,162.2
	c1.4,0,2.4-0.7,2.9-1.7l-0.8-0.6c-0.4,0.8-1.1,1.2-2,1.2c-1.3,0-2.1-0.9-2.1-2.2v-0.3h5.2v-0.5c0-2-1.2-3.5-3.1-3.5
	c-2,0-3.2,1.5-3.2,3.8S208.3,162.2,210.2,162.2z M210.2,155.5c1.1,0,1.9,0.9,1.9,2.1v0.2h-4v-0.1C208.2,156.5,209,155.5,210.2,155.5
	z M216.5,162v-4.9c0-0.7,0.7-1.2,1.9-1.2h0.7v-1.1h-0.4c-1.2,0-1.8,0.6-2.1,1.3h-0.1v-1.3h-1.1v7.2H216.5z M223.7,162l2.5-7.2h-1.1
	l-1.3,3.6l-0.8,2.5H223l-0.8-2.5l-1.3-3.6h-1.1l2.5,7.2H223.7z M228.4,153.1c0.5,0,0.7-0.3,0.7-0.6v-0.2c0-0.4-0.2-0.6-0.7-0.6
	s-0.7,0.3-0.7,0.6v0.2C227.7,152.8,227.9,153.1,228.4,153.1z M227.9,162h1.1v-7.2h-1.1V162z M234.2,162.2c1.4,0,2.3-0.7,2.8-1.7
	l-0.8-0.5c-0.4,0.8-1.1,1.3-2,1.3c-1.3,0-2-0.9-2-2.2v-1.2c0-1.3,0.7-2.2,2-2.2c0.9,0,1.5,0.4,1.8,1.2l0.9-0.5
	c-0.4-1-1.3-1.7-2.7-1.7c-2,0-3.2,1.5-3.2,3.8S232.2,162.2,234.2,162.2z M241.4,162.2c1.4,0,2.4-0.7,2.9-1.7l-0.8-0.6
	c-0.4,0.8-1.1,1.2-2,1.2c-1.3,0-2.1-0.9-2.1-2.2v-0.3h5.2v-0.5c0-2-1.2-3.5-3.1-3.5c-2,0-3.2,1.5-3.2,3.8S239.4,162.2,241.4,162.2z
	 M241.4,155.5c1.1,0,1.9,0.9,1.9,2.1v0.2h-4v-0.1C239.3,156.5,240.1,155.5,241.4,155.5z M248.7,162.2c1.7,0,2.7-0.9,2.7-2.3
	c0-1.1-0.6-1.8-2.2-2l-0.6-0.1c-0.9-0.1-1.4-0.4-1.4-1.1c0-0.7,0.5-1.1,1.4-1.1c0.9,0,1.5,0.4,1.9,0.9l0.7-0.7
	c-0.6-0.7-1.4-1.2-2.5-1.2c-1.5,0-2.6,0.7-2.6,2.1c0,1.3,1,1.9,2.3,2.1l0.6,0.1c1,0.1,1.3,0.6,1.3,1.1c0,0.7-0.6,1.2-1.5,1.2
	c-0.9,0-1.6-0.4-2.1-1.1l-0.8,0.6C246.4,161.6,247.3,162.2,248.7,162.2z"/>
<path class="st18" d="M202,52.5h35.5c4.4,0,8,3.6,8,8V96"/>
<path class="st18" d="M206,48.5h35.5c4.4,0,8,3.6,8,8V92"/>
<path class="st19" d="M216,224v-56"/>
</svg>
