<?xml version="1.0" encoding="utf-8"?>
<!-- Generator: Adobe Illustrator 26.5.0, SVG Export Plug-In . SVG Version: 6.00 Build 0)  -->
<svg version="1.1" id="Layer_1" xmlns="http://www.w3.org/2000/svg" xmlns:xlink="http://www.w3.org/1999/xlink" x="0px" y="0px"
	 viewBox="0 0 1080 360" style="enable-background:new 0 0 1080 360;" xml:space="preserve">
<style type="text/css"> 
	.st0{fill:#B0ADAD;}
	.st1{fill:#F4F4F4;}
	.st2{fill:#E0E0E0;}
	.st3{fill:#8D8D8D;}
	.st4{fill:#FFFFFF;}
	.st5{font-family:'IBMPlexSans';}
	.st6{font-size:12px;}
	.st7{fill:none;stroke:#878D96;}
	.st8{fill:none;stroke:#A56EFF;}
	.st9{fill:#EDF5FF;}
	.st10{fill:none;stroke:#4589FF;}
	.st11{fill:none;stroke:#EE5396;}
</style>
<rect class="st0" width="1080" height="360"/>
<rect class="st1" width="1080" height="360"/>
<path class="st2" d="M312.5,261c-40.8,0-55.5-21-69.6-41.2c-13.9-19.9-27-38.8-63.4-38.8v-1c36.9,0,50.8,19.9,64.2,39.2
	c14,20.1,28.5,40.8,68.8,40.8V261z"/>
<path class="st2" d="M179.5,180.8C179.5,180.8,179.5,180.8,179.5,180.8l0-1c36.3,0,49.3-20.6,63.1-42.4c14-22.2,28.5-46.1,69.4-46.1
	c0,0,0,0,0,0v1c-40.3,0-54.7,23.7-68.5,45.6C230.2,159.1,216.4,180.8,179.5,180.8z"/>
<path class="st2" d="M448,148.7C448,148.7,448,148.7,448,148.7l0-1c0,0,0,0,0,0c36.5,0,50.6-5.7,65.5-11.8
	c15.1-6.1,30.8-12.5,71.4-12.5v1c-40.5,0-56,6.3-71.1,12.4C498.9,143,484.7,148.7,448,148.7z"/>
<path class="st3" d="M718.5,180.8C718.5,180.8,718.5,180.8,718.5,180.8l0-1c37.2,0,51.1-18.9,65.8-38.9c15-20.4,30.5-41.4,72.2-41.4
	v1c-41.3,0-56.6,20.8-71.4,41C770.9,160.8,756.2,180.8,718.5,180.8z"/>
<path class="st3" d="M856.5,260.5c-41.8,0-57.2-20.9-72.2-41.1c-14.7-19.9-28.6-38.6-65.8-38.6v-1c37.7,0,52.4,19.8,66.6,39
	c14.8,20,30.2,40.7,71.4,40.7V260.5z"/>
<path class="st3" d="M584.5,181c-40.7,0-56.2-8.5-71.2-16.6c-14.8-8.1-28.8-15.7-65.3-15.7v-1c36.7,0,50.8,7.7,65.7,15.8
	c14.9,8.1,30.3,16.5,70.8,16.5V181z"/>
<path class="st2" d="M312.5,204.9c-40.7,0-55.3-6.3-69.4-12.3c-13.9-6-27.1-11.6-63.6-11.7v-1c36.7,0,50,5.7,64,11.7
	c14,6,28.5,12.3,69,12.3V204.9z"/>
<path class="st3" d="M179.5,181C179.5,181,179.5,181,179.5,181l0-1c0,0,0,0,0,0c36.5,0,50-7.7,64.3-15.8
	c14.5-8.2,29.5-16.7,70.2-16.7v1c-40.5,0-55.3,8.4-69.7,16.6C229.9,173.3,216.2,181,179.5,181z"/>
<path class="st4" d="M60,168.5h108c6.4,0,11.5,5.1,11.5,11.5l0,0c0,6.4-5.1,11.5-11.5,11.5H60c-6.4,0-11.5-5.1-11.5-11.5l0,0
	C48.5,173.6,53.6,168.5,60,168.5z"/>
<text transform="matrix(1 0 0 1 64 183.5)" class="st5 st6">Enterprise</text>
<path class="st7" d="M60,168.5h108c6.4,0,11.5,5.1,11.5,11.5l0,0c0,6.4-5.1,11.5-11.5,11.5H60c-6.4,0-11.5-5.1-11.5-11.5l0,0
	C48.5,173.6,53.6,168.5,60,168.5z"/>
<path class="st4" d="M324,136.5h112c6.4,0,11.5,5.1,11.5,11.5l0,0c0,6.4-5.1,11.5-11.5,11.5H324c-6.4,0-11.5-5.1-11.5-11.5l0,0
	C312.5,141.6,317.6,136.5,324,136.5z"/>
<text transform="matrix(1 0 0 1 328 151.5)" class="st5 st6">Account group</text>
<path class="st8" d="M324,136.5h112c6.4,0,11.5,5.1,11.5,11.5l0,0c0,6.4-5.1,11.5-11.5,11.5H324c-6.4,0-11.5-5.1-11.5-11.5l0,0
	C312.5,141.6,317.6,136.5,324,136.5z"/>
<path class="st4" d="M324,192h112c6.6,0,12,5.4,12,12l0,0c0,6.6-5.4,12-12,12H324c-6.6,0-12-5.4-12-12l0,0
	C312,197.4,317.4,192,324,192z"/>
<text transform="matrix(1 0 0 1 328 207.5)" class="st5 st6">Account group</text>
<path class="st8" d="M324,192h112c6.6,0,12,5.4,12,12l0,0c0,6.6-5.4,12-12,12H324c-6.6,0-12-5.4-12-12l0,0
	C312,197.4,317.4,192,324,192z"/>
<path class="st9" d="M872,32.5h136c8.6,0,15.5,6.9,15.5,15.5v104c0,8.6-6.9,15.5-15.5,15.5H872c-8.6,0-15.5-6.9-15.5-15.5V48
	C856.5,39.4,863.4,32.5,872,32.5z"/>
<path class="st10" d="M872,32.5h136c8.6,0,15.5,6.9,15.5,15.5v104c0,8.6-6.9,15.5-15.5,15.5H872c-8.6,0-15.5-6.9-15.5-15.5V48
	C856.5,39.4,863.4,32.5,872,32.5z"/>
<path class="st4" d="M884,88.5h112c6.4,0,11.5,5.1,11.5,11.5l0,0c0,6.4-5.1,11.5-11.5,11.5H884c-6.4,0-11.5-5.1-11.5-11.5l0,0
	C872.5,93.6,877.6,88.5,884,88.5z"/>
<text transform="matrix(1 0 0 1 888 103.5)" class="st5 st6">Cluster</text>
<path class="st10" d="M884,88.5h112c6.4,0,11.5,5.1,11.5,11.5l0,0c0,6.4-5.1,11.5-11.5,11.5H884c-6.4,0-11.5-5.1-11.5-11.5l0,0
	C872.5,93.6,877.6,88.5,884,88.5z"/>
<path class="st4" d="M884,48.5h112c6.4,0,11.5,5.1,11.5,11.5l0,0c0,6.4-5.1,11.5-11.5,11.5H884c-6.4,0-11.5-5.1-11.5-11.5l0,0
	C872.5,53.6,877.6,48.5,884,48.5z"/>
<text transform="matrix(1 0 0 1 888 63.5)" class="st5 st6">Location</text>
<path class="st10" d="M884,48.5h112c6.4,0,11.5,5.1,11.5,11.5l0,0c0,6.4-5.1,11.5-11.5,11.5H884c-6.4,0-11.5-5.1-11.5-11.5l0,0
	C872.5,53.6,877.6,48.5,884,48.5z"/>
<path class="st4" d="M884,128.5h112c6.4,0,11.5,5.1,11.5,11.5l0,0c0,6.4-5.1,11.5-11.5,11.5H884c-6.4,0-11.5-5.1-11.5-11.5l0,0
	C872.5,133.6,877.6,128.5,884,128.5z"/>
<text transform="matrix(1 0 0 1 888 143.5)" class="st5 st6">Services</text>
<path class="st10" d="M884,128.5h112c6.4,0,11.5,5.1,11.5,11.5l0,0c0,6.4-5.1,11.5-11.5,11.5H884c-6.4,0-11.5-5.1-11.5-11.5l0,0
	C872.5,133.6,877.6,128.5,884,128.5z"/>
<path class="st9" d="M872,192.5h136c8.6,0,15.5,6.9,15.5,15.5v104c0,8.6-6.9,15.5-15.5,15.5H872c-8.6,0-15.5-6.9-15.5-15.5V208
	C856.5,199.4,863.4,192.5,872,192.5z"/>
<path class="st10" d="M872,192.5h136c8.6,0,15.5,6.9,15.5,15.5v104c0,8.6-6.9,15.5-15.5,15.5H872c-8.6,0-15.5-6.9-15.5-15.5V208
	C856.5,199.4,863.4,192.5,872,192.5z"/>
<path class="st4" d="M884,248.5h112c6.4,0,11.5,5.1,11.5,11.5l0,0c0,6.4-5.1,11.5-11.5,11.5H884c-6.4,0-11.5-5.1-11.5-11.5l0,0
	C872.5,253.6,877.6,248.5,884,248.5z"/>
<text transform="matrix(1 0 0 1 888 263.5)" class="st5 st6">Cluster</text>
<path class="st10" d="M884,248.5h112c6.4,0,11.5,5.1,11.5,11.5l0,0c0,6.4-5.1,11.5-11.5,11.5H884c-6.4,0-11.5-5.1-11.5-11.5l0,0
	C872.5,253.6,877.6,248.5,884,248.5z"/>
<path class="st4" d="M884,208.5h112c6.4,0,11.5,5.1,11.5,11.5l0,0c0,6.4-5.1,11.5-11.5,11.5H884c-6.4,0-11.5-5.1-11.5-11.5l0,0
	C872.5,213.6,877.6,208.5,884,208.5z"/>
<text transform="matrix(1 0 0 1 888 223.5)" class="st5 st6">Location</text>
<path class="st10" d="M884,208.5h112c6.4,0,11.5,5.1,11.5,11.5l0,0c0,6.4-5.1,11.5-11.5,11.5H884c-6.4,0-11.5-5.1-11.5-11.5l0,0
	C872.5,213.6,877.6,208.5,884,208.5z"/>
<path class="st4" d="M884,288.5h112c6.4,0,11.5,5.1,11.5,11.5l0,0c0,6.4-5.1,11.5-11.5,11.5H884c-6.4,0-11.5-5.1-11.5-11.5l0,0
	C872.5,293.6,877.6,288.5,884,288.5z"/>
<text transform="matrix(1 0 0 1 888 303.5)" class="st5 st6">Services</text>
<path class="st10" d="M884,288.5h112c6.4,0,11.5,5.1,11.5,11.5l0,0c0,6.4-5.1,11.5-11.5,11.5H884c-6.4,0-11.5-5.1-11.5-11.5l0,0
	C872.5,293.6,877.6,288.5,884,288.5z"/>
<path class="st4" d="M596,112h112c6.6,0,12,5.4,12,12l0,0c0,6.6-5.4,12-12,12H596c-6.6,0-12-5.4-12-12l0,0
	C584,117.4,589.4,112,596,112z"/>
<text transform="matrix(1 0 0 1 600 127.5)" class="st5 st6">Account </text>
<path class="st11" d="M596,112h112c6.6,0,12,5.4,12,12l0,0c0,6.6-5.4,12-12,12H596c-6.6,0-12-5.4-12-12l0,0
	C584,117.4,589.4,112,596,112z"/>
<path class="st4" d="M596,168.5h112c6.4,0,11.5,5.1,11.5,11.5l0,0c0,6.4-5.1,11.5-11.5,11.5H596c-6.4,0-11.5-5.1-11.5-11.5l0,0
	C584.5,173.6,589.6,168.5,596,168.5z"/>
<text transform="matrix(1 0 0 1 600 183.5)" class="st5 st6">Account </text>
<path class="st11" d="M596,168.5h112c6.4,0,11.5,5.1,11.5,11.5l0,0c0,6.4-5.1,11.5-11.5,11.5H596c-6.4,0-11.5-5.1-11.5-11.5l0,0
	C584.5,173.6,589.6,168.5,596,168.5z"/>
<path class="st4" d="M324,248h112c6.6,0,12,5.4,12,12l0,0c0,6.6-5.4,12-12,12H324c-6.6,0-12-5.4-12-12l0,0
	C312,253.4,317.4,248,324,248z"/>
<text transform="matrix(1 0 0 1 328 263.5)" class="st5 st6">Account </text>
<path class="st11" d="M324,248h112c6.6,0,12,5.4,12,12l0,0c0,6.6-5.4,12-12,12H324c-6.6,0-12-5.4-12-12l0,0
	C312,253.4,317.4,248,324,248z"/>
<path class="st4" d="M324,80h112c6.6,0,12,5.4,12,12l0,0c0,6.6-5.4,12-12,12H324c-6.6,0-12-5.4-12-12l0,0C312,85.4,317.4,80,324,80z
	"/>
<text transform="matrix(1 0 0 1 328 95.5)" class="st5 st6">Account group</text>
<path class="st8" d="M324,80h112c6.6,0,12,5.4,12,12l0,0c0,6.6-5.4,12-12,12H324c-6.6,0-12-5.4-12-12l0,0C312,85.4,317.4,80,324,80z
	"/>
</svg>
