<?xml version="1.0" encoding="utf-8"?>
<!-- Generator: Adobe Illustrator 26.4.1, SVG Export Plug-In . SVG Version: 6.00 Build 0)  -->
<svg version="1.1" id="Layer_1" xmlns="http://www.w3.org/2000/svg" xmlns:xlink="http://www.w3.org/1999/xlink" x="0px" y="0px"
	 viewBox="0 0 1080 360" style="enable-background:new 0 0 1080 360;" xml:space="preserve">
<style type="text/css">
	.st0{fill:#F4F4F4;}
	.st1{fill:#FFFFFF;}
	.st2{fill:#565151;}
	.st3{fill:none;stroke:#565151;}
	.st4{fill:#005D5D;}
	.st5{fill:none;stroke:#005D5D;}
	.st6{fill:#00539A;}
	.st7{fill:none;stroke:#00539A;}
	.st8{fill:#6929C4;}
	.st9{fill:none;stroke:#6929C4;}
	.st10{fill:#9F1853;}
	.st11{fill:none;stroke:#9F1853;}
	.st12{fill:#EDF5FF;stroke:#0043CE;}
	.st13{fill:none;stroke:#0043CE;}
</style>
<rect class="st0" width="1080" height="360"/>
<rect x="208" y="136" class="st1" width="48" height="48"/>
<path class="st2" d="M216,136h32c4.4,0,8,3.6,8,8v32c0,4.4-3.6,8-8,8h-32c-4.4,0-8-3.6-8-8v-32C208,139.6,211.6,136,216,136z"/>
<path class="st1" d="M238.6,154.1c-0.1-0.1-0.3-0.2-0.4-0.3c-0.2-0.1-0.3-0.1-0.5-0.1h-5.1v-2.5h-1.2v6.2h-5.1c-0.2,0-0.3,0-0.5,0.1
	c-0.2,0.1-0.3,0.2-0.4,0.3l-2.1,2.1l2.1,2.1c0.1,0.1,0.3,0.2,0.4,0.3c0.2,0.1,0.3,0.1,0.5,0.1h5.1v6.2h1.2v-10h5.1
	c0.2,0,0.3,0,0.5-0.1c0.2-0.1,0.3-0.2,0.4-0.3l2.1-2.1L238.6,154.1z M226.3,161.2L225,160l1.2-1.2h5.1v2.5H226.3z M237.7,157.5h-5.1
	V155h5.1l1.2,1.2L237.7,157.5z"/>
<path d="M233.6,206v-1.5h-2.2v-8.3h-2.8l-2.4,2.9l1.1,1l2.1-2.5h0.1v6.9h-2.7v1.5H233.6z M236.3,206.2c0.8,0,1.1-0.4,1.1-1v-0.3
	c0-0.6-0.3-1-1.1-1c-0.8,0-1.1,0.4-1.1,1v0.3C235.2,205.7,235.5,206.2,236.3,206.2z"/>
<path d="M220.4,224v-4.2h2.7c1.8,0,2.7-1.1,2.7-2.8s-1-2.8-2.7-2.8h-3.9v9.8H220.4z M220.4,215.3h2.7c0.9,0,1.5,0.5,1.5,1.4v0.7
	c0,0.9-0.5,1.4-1.5,1.4h-2.7V215.3z M229.9,224v-1h-1.1v-9.4h-1.1v9.2c0,0.7,0.4,1.2,1.2,1.2H229.9z M237.6,224v-1h-0.8v-4
	c0-1.5-1-2.4-2.8-2.4c-1.3,0-2.2,0.6-2.6,1.4l0.7,0.6c0.4-0.7,1-1.1,1.8-1.1c1.1,0,1.7,0.6,1.7,1.6v0.7h-1.4c-2.1,0-3.1,0.8-3.1,2.1
	c0,1.3,0.9,2.2,2.4,2.2c1,0,1.8-0.5,2.1-1.3h0.1c0.1,0.7,0.4,1.2,1.2,1.2H237.6z M233.7,223.2c-0.9,0-1.4-0.4-1.4-1.1v-0.3
	c0-0.7,0.6-1.1,1.8-1.1h1.5v1.2C235.6,222.6,234.8,223.2,233.7,223.2z M240.5,224v-5c0-0.9,0.9-1.4,1.8-1.4c1.1,0,1.6,0.7,1.6,1.9
	v4.4h1.1v-4.6c0-1.8-0.9-2.8-2.4-2.8c-1.1,0-1.7,0.5-2,1.3h-0.1v-1.2h-1.1v7.2H240.5z"/>
<path class="st3" d="M216,132.5h35.5c4.4,0,8,3.6,8,8V176"/>
<path class="st3" d="M220,128.5h35.5c4.4,0,8,3.6,8,8V172"/>
<rect x="328" y="136" class="st1" width="48" height="48"/>
<path class="st4" d="M336,136h32c4.4,0,8,3.6,8,8v32c0,4.4-3.6,8-8,8h-32c-4.4,0-8-3.6-8-8v-32C328,139.6,331.6,136,336,136z"/>
<path class="st1" d="M352,168.8l-5.3-6.2c0,0-0.2-0.3-0.2-0.3c-0.9-1.2-1.4-2.6-1.4-4.1c0-1.8,0.7-3.6,2-4.9c1.3-1.3,3-2,4.9-2
	s3.6,0.7,4.9,2c1.3,1.3,2,3,2,4.9c0,1.5-0.5,2.9-1.4,4.1l0,0c0,0-0.2,0.2-0.2,0.3L352,168.8z M347.5,161.5c0,0,0.1,0.2,0.2,0.2
	l4.3,5.1l4.3-5.1c0,0,0.2-0.2,0.2-0.2c0.7-1,1.1-2.2,1.1-3.4c0-1.5-0.6-2.9-1.6-4c-1.1-1.1-2.5-1.6-4-1.6s-2.9,0.6-4,1.6
	c-1.1,1.1-1.6,2.5-1.6,4C346.4,159.3,346.8,160.5,347.5,161.5z"/>
<path class="st1" d="M355.1,161.2h-1.2v-5h-3.8v5h-1.2v-5c0-0.3,0.1-0.6,0.4-0.9c0.2-0.2,0.6-0.4,0.9-0.4h3.8c0.3,0,0.6,0.1,0.9,0.4
	c0.2,0.2,0.4,0.6,0.4,0.9V161.2z"/>
<path class="st1" d="M352.6,160h-1.2v1.2h1.2V160z"/>
<path class="st1" d="M352.6,157.5h-1.2v1.2h1.2V157.5z"/>
<path d="M353.3,204.4h-4.8l2.1-1.7c1.4-1.1,2.5-2.2,2.5-3.8c0-1.7-1.2-2.9-3.2-2.9c-2,0-3,1.1-3.5,2.4l1.6,0.6
	c0.2-0.8,0.7-1.5,1.7-1.5c0.8,0,1.4,0.5,1.4,1.3v0.2c0,0.9-0.5,1.5-1.5,2.4l-3.1,2.7v1.7h6.8V204.4z M356.3,206.2
	c0.8,0,1.1-0.4,1.1-1v-0.3c0-0.6-0.4-1-1.1-1c-0.8,0-1.1,0.4-1.1,1v0.3C355.2,205.7,355.5,206.2,356.3,206.2z"/>
<path d="M330.1,224.2c1.6,0,2.8-0.9,3.4-2.2l-0.9-0.6c-0.4,1.1-1.2,1.8-2.5,1.8c-1.7,0-2.7-1.2-2.7-3.2v-1.5c0-2,1-3.3,2.7-3.3
	c1.2,0,2,0.7,2.4,1.7l1-0.6c-0.6-1.4-1.7-2.1-3.4-2.1c-2.5,0-3.9,1.8-3.9,5.1C326.1,222.4,327.6,224.2,330.1,224.2z M336.5,224v-4.9
	c0-0.7,0.7-1.2,1.9-1.2h0.7v-1.1h-0.4c-1.2,0-1.8,0.6-2.1,1.3h-0.1v-1.3h-1.1v7.2H336.5z M343.3,224.2c1.4,0,2.4-0.7,2.9-1.7
	l-0.8-0.6c-0.4,0.8-1.1,1.2-2,1.2c-1.3,0-2.1-0.9-2.1-2.2v-0.3h5.2v-0.5c0-2-1.2-3.5-3.1-3.5c-2,0-3.2,1.5-3.2,3.8
	S341.3,224.2,343.3,224.2z M343.3,217.5c1.1,0,1.9,0.9,1.9,2.1v0.2h-4v-0.1C341.2,218.5,342.1,217.5,343.3,217.5z M354.3,224v-1
	h-0.8v-4c0-1.5-1-2.4-2.8-2.4c-1.3,0-2.2,0.6-2.6,1.4l0.7,0.6c0.4-0.7,1-1.1,1.8-1.1c1.1,0,1.7,0.6,1.7,1.6v0.7h-1.4
	c-2.1,0-3.1,0.8-3.1,2.1c0,1.3,0.9,2.2,2.4,2.2c1,0,1.8-0.5,2.1-1.3h0.1c0.1,0.7,0.4,1.2,1.2,1.2H354.3z M350.5,223.2
	c-0.9,0-1.4-0.4-1.4-1.1v-0.3c0-0.7,0.6-1.1,1.8-1.1h1.5v1.2C352.4,222.6,351.6,223.2,350.5,223.2z M359.1,224v-1h-1.5v-5.3h1.6v-1
	h-1.6v-2h-1v1.3c0,0.5-0.2,0.7-0.6,0.7h-0.7v1h1.2v5.1c0,0.7,0.4,1.2,1.2,1.2H359.1z M363.8,224.2c1.4,0,2.4-0.7,2.9-1.7l-0.8-0.6
	c-0.4,0.8-1.1,1.2-2,1.2c-1.3,0-2.1-0.9-2.1-2.2v-0.3h5.2v-0.5c0-2-1.2-3.5-3.1-3.5c-2,0-3.2,1.5-3.2,3.8S361.8,224.2,363.8,224.2z
	 M363.8,217.5c1.1,0,1.9,0.9,1.9,2.1v0.2h-4v-0.1C361.7,218.5,362.6,217.5,363.8,217.5z M378.3,224v-1h-0.8v-4c0-1.5-1-2.4-2.8-2.4
	c-1.3,0-2.2,0.6-2.6,1.4l0.7,0.6c0.4-0.7,1-1.1,1.8-1.1c1.1,0,1.7,0.6,1.7,1.6v0.7h-1.4c-2.1,0-3.1,0.8-3.1,2.1
	c0,1.3,0.9,2.2,2.4,2.2c1,0,1.8-0.5,2.1-1.3h0.1c0.1,0.7,0.4,1.2,1.2,1.2H378.3z M374.4,223.2c-0.9,0-1.4-0.4-1.4-1.1v-0.3
	c0-0.7,0.6-1.1,1.8-1.1h1.5v1.2C376.3,222.6,375.5,223.2,374.4,223.2z M329.6,242v-1h-1.1v-9.4h-1.1v9.2c0,0.7,0.4,1.2,1.2,1.2
	H329.6z M334.2,242.2c1.9,0,3.3-1.5,3.3-3.8s-1.3-3.8-3.3-3.8s-3.3,1.5-3.3,3.8S332.2,242.2,334.2,242.2z M334.2,241.2
	c-1.2,0-2.1-0.7-2.1-2.3v-1c0-1.5,0.9-2.3,2.1-2.3s2.1,0.7,2.1,2.3v1C336.2,240.4,335.4,241.2,334.2,241.2z M342.1,242.2
	c1.4,0,2.3-0.7,2.8-1.7l-0.8-0.5c-0.4,0.8-1,1.3-2,1.3c-1.3,0-2-0.9-2-2.2v-1.2c0-1.3,0.7-2.2,2-2.2c0.9,0,1.5,0.4,1.8,1.2l0.9-0.5
	c-0.4-1-1.3-1.7-2.7-1.7c-2,0-3.2,1.5-3.2,3.8S340.1,242.2,342.1,242.2z M352.5,242v-1h-0.8v-4c0-1.5-1-2.4-2.8-2.4
	c-1.3,0-2.2,0.6-2.6,1.4l0.7,0.6c0.4-0.7,1-1.1,1.8-1.1c1.1,0,1.7,0.6,1.7,1.6v0.7h-1.4c-2.1,0-3.1,0.8-3.1,2.1
	c0,1.3,0.9,2.2,2.4,2.2c1,0,1.8-0.5,2.1-1.3h0.1c0.1,0.7,0.4,1.2,1.2,1.2H352.5z M348.6,241.2c-0.9,0-1.4-0.4-1.4-1.1v-0.3
	c0-0.7,0.6-1.1,1.8-1.1h1.5v1.2C350.5,240.6,349.8,241.2,348.6,241.2z M357.2,242v-1h-1.5v-5.3h1.6v-1h-1.6v-2h-1v1.3
	c0,0.5-0.2,0.7-0.6,0.7h-0.7v1h1.2v5.1c0,0.7,0.4,1.2,1.2,1.2H357.2z M359.9,233.1c0.5,0,0.7-0.3,0.7-0.6v-0.2
	c0-0.4-0.2-0.6-0.7-0.6c-0.5,0-0.7,0.3-0.7,0.6v0.2C359.2,232.8,359.4,233.1,359.9,233.1z M359.3,242h1.1v-7.2h-1.1V242z
	 M365.7,242.2c1.9,0,3.3-1.5,3.3-3.8s-1.3-3.8-3.3-3.8c-1.9,0-3.3,1.5-3.3,3.8S363.8,242.2,365.7,242.2z M365.7,241.2
	c-1.2,0-2.1-0.7-2.1-2.3v-1c0-1.5,0.9-2.3,2.1-2.3c1.2,0,2.1,0.7,2.1,2.3v1C367.8,240.4,366.9,241.2,365.7,241.2z M372.1,242v-5
	c0-0.9,0.9-1.4,1.8-1.4c1.1,0,1.6,0.7,1.6,1.9v4.4h1.1v-4.6c0-1.8-0.9-2.8-2.4-2.8c-1.1,0-1.7,0.5-2,1.3h-0.1v-1.2H371v7.2H372.1z"
	/>
<path class="st5" d="M336,132.5h35.5c4.4,0,8,3.6,8,8V176"/>
<path class="st5" d="M340,128.5h35.5c4.4,0,8,3.6,8,8V172"/>
<rect x="448" y="136" class="st1" width="48" height="48"/>
<path class="st6" d="M456,136h32c4.4,0,8,3.6,8,8v32c0,4.4-3.6,8-8,8h-32c-4.4,0-8-3.6-8-8v-32C448,139.6,451.6,136,456,136z"/>
<path class="st1" d="M465.8,168.8h12.5c0.3,0,0.6-0.1,0.9-0.4c0.2-0.2,0.4-0.6,0.4-0.9v-3.8c0-0.3-0.1-0.6-0.4-0.9
	c-0.2-0.2-0.6-0.4-0.9-0.4h-12.5c-0.3,0-0.6,0.1-0.9,0.4c-0.2,0.2-0.4,0.6-0.4,0.9v3.8c0,0.3,0.1,0.6,0.4,0.9
	C465.1,168.6,465.4,168.8,465.8,168.8z M465.8,163.8h12.5v3.8h-12.5V163.8z"/>
<path class="st1" d="M467.6,166.2c0.3,0,0.6-0.3,0.6-0.6c0-0.3-0.3-0.6-0.6-0.6s-0.6,0.3-0.6,0.6C467,166,467.3,166.2,467.6,166.2z"
	/>
<path class="st1" d="M478.2,151.2l-0.9,0.9l1.6,1.6h-3c-0.4-1-1.2-1.7-2.2-2.1c-1-0.4-2-0.5-3-0.2c-1,0.3-1.9,1-2.4,1.8
	c-0.6,0.9-0.8,1.9-0.6,3H465l1.6-1.6l-0.9-0.9l-3.1,3.1l3.1,3.1l0.9-0.9l-1.6-1.6h3c0.4,1,1.2,1.7,2.2,2.1c1,0.4,2,0.5,3,0.2
	c1-0.3,1.9-1,2.4-1.8c0.6-0.9,0.8-1.9,0.6-3h2.7l-1.6,1.6l0.9,0.9l3.1-3.1L478.2,151.2z M475.1,155.6c0,0.7-0.2,1.3-0.6,1.8
	c-0.4,0.5-0.9,0.9-1.5,1.1c-0.6,0.2-1.3,0.2-1.9,0c-0.6-0.2-1.2-0.6-1.6-1.1h2.5v-1.2h-3.1c-0.1-0.7,0-1.4,0.3-2
	c0.3-0.6,0.9-1.1,1.5-1.4c0.6-0.3,1.4-0.4,2.1-0.2c0.7,0.2,1.3,0.6,1.7,1.2H472v1.2h3.1C475.1,155.2,475.1,155.4,475.1,155.6z"/>
<path d="M468.3,200.2v1.5h1c1.2,0,1.8,0.5,1.8,1.4v0.1c0,0.9-0.6,1.5-1.7,1.5c-1.1,0-1.7-0.6-2.1-1.3l-1.4,1c0.6,1,1.6,1.8,3.5,1.8
	c2.2,0,3.6-1.1,3.6-2.9c0-1.4-0.9-2.2-2-2.4v-0.1c1-0.2,1.9-1,1.9-2.2c0-1.6-1.3-2.5-3.3-2.5c-1.7,0-2.6,0.7-3.2,1.6l1.2,1.1
	c0.5-0.7,1.1-1.2,2-1.2c0.9,0,1.4,0.5,1.4,1.3v0.1c0,0.7-0.5,1.2-1.6,1.2H468.3z M476.3,206.2c0.8,0,1.1-0.4,1.1-1v-0.3
	c0-0.6-0.4-1-1.1-1c-0.8,0-1.1,0.4-1.1,1v0.3C475.2,205.7,475.5,206.2,476.3,206.2z"/>
<path d="M438.7,224l-3.4-9.8h-1.5l-3.4,9.8h1.2l1-2.9h3.9l1,2.9H438.7z M436.2,220.1h-3.4l1.7-4.8h0.1L436.2,220.1z M443.3,224v-1
	h-1.5v-5.3h1.6v-1h-1.6v-2h-1v1.3c0,0.5-0.2,0.7-0.6,0.7h-0.7v1h1.2v5.1c0,0.7,0.4,1.2,1.2,1.2H443.3z M448.3,224v-1h-1.5v-5.3h1.6
	v-1h-1.6v-2h-1v1.3c0,0.5-0.2,0.7-0.6,0.7h-0.7v1h1.2v5.1c0,0.7,0.4,1.2,1.2,1.2H448.3z M456.2,224v-1h-0.8v-4c0-1.5-1-2.4-2.8-2.4
	c-1.3,0-2.2,0.6-2.6,1.4l0.7,0.6c0.4-0.7,1-1.1,1.8-1.1c1.1,0,1.7,0.6,1.7,1.6v0.7h-1.4c-2.1,0-3.1,0.8-3.1,2.1
	c0,1.3,0.9,2.2,2.4,2.2c1,0,1.8-0.5,2.1-1.3h0.1c0.1,0.7,0.4,1.2,1.2,1.2H456.2z M452.4,223.2c-0.9,0-1.4-0.4-1.4-1.1v-0.3
	c0-0.7,0.6-1.1,1.8-1.1h1.5v1.2C454.3,222.6,453.5,223.2,452.4,223.2z M460.7,224.2c1.4,0,2.3-0.7,2.8-1.7l-0.8-0.5
	c-0.4,0.8-1,1.3-2,1.3c-1.3,0-2-0.9-2-2.2v-1.2c0-1.3,0.7-2.2,2-2.2c0.9,0,1.5,0.4,1.8,1.2l0.9-0.5c-0.4-1-1.3-1.7-2.7-1.7
	c-2,0-3.2,1.5-3.2,3.8S458.6,224.2,460.7,224.2z M465.2,224h1.1v-5c0-0.9,0.9-1.4,1.8-1.4c1.1,0,1.6,0.7,1.6,1.9v4.4h1.1v-4.6
	c0-1.8-0.9-2.8-2.4-2.8c-1.1,0-1.7,0.5-2,1.3h-0.1v-4.3h-1.1V224z M476.8,224h1.1v-5c0-0.9,0.9-1.4,1.8-1.4c1.1,0,1.6,0.7,1.6,1.9
	v4.4h1.1v-4.6c0-1.8-0.9-2.8-2.4-2.8c-1.1,0-1.7,0.5-2,1.3h-0.1v-4.3h-1.1V224z M487.6,224.2c1.9,0,3.3-1.5,3.3-3.8
	s-1.3-3.8-3.3-3.8c-1.9,0-3.3,1.5-3.3,3.8S485.7,224.2,487.6,224.2z M487.6,223.2c-1.2,0-2.1-0.7-2.1-2.3v-1c0-1.5,0.9-2.3,2.1-2.3
	c1.2,0,2.1,0.7,2.1,2.3v1C489.7,222.4,488.8,223.2,487.6,223.2z M495,224.2c1.7,0,2.7-0.9,2.7-2.3c0-1.1-0.6-1.8-2.2-2l-0.6-0.1
	c-0.9-0.1-1.4-0.4-1.4-1.1c0-0.7,0.5-1.1,1.4-1.1s1.5,0.4,1.9,0.9l0.7-0.7c-0.6-0.7-1.4-1.2-2.5-1.2c-1.5,0-2.6,0.7-2.6,2.1
	c0,1.3,1,1.9,2.3,2.1l0.6,0.1c1,0.1,1.3,0.6,1.3,1.1c0,0.7-0.6,1.2-1.5,1.2c-0.9,0-1.6-0.4-2.1-1.1l-0.8,0.6
	C492.8,223.6,493.7,224.2,495,224.2z M502.8,224v-1h-1.5v-5.3h1.6v-1h-1.6v-2h-1v1.3c0,0.5-0.2,0.7-0.6,0.7H499v1h1.2v5.1
	c0,0.7,0.4,1.2,1.2,1.2H502.8z M507,224.2c1.7,0,2.7-0.9,2.7-2.3c0-1.1-0.6-1.8-2.2-2l-0.6-0.1c-0.9-0.1-1.4-0.4-1.4-1.1
	c0-0.7,0.5-1.1,1.4-1.1c0.9,0,1.5,0.4,1.9,0.9l0.7-0.7c-0.6-0.7-1.4-1.2-2.5-1.2c-1.5,0-2.6,0.7-2.6,2.1c0,1.3,1,1.9,2.3,2.1
	l0.6,0.1c1,0.1,1.3,0.6,1.3,1.1c0,0.7-0.6,1.2-1.5,1.2c-0.9,0-1.6-0.4-2.1-1.1l-0.8,0.6C504.8,223.6,505.7,224.2,507,224.2z
	 M436.7,242v-1h-1.5v-5.3h1.6v-1h-1.6v-2h-1v1.3c0,0.5-0.2,0.7-0.6,0.7h-0.7v1h1.2v5.1c0,0.7,0.4,1.2,1.2,1.2H436.7z M441.4,242.2
	c1.9,0,3.3-1.5,3.3-3.8s-1.3-3.8-3.3-3.8c-1.9,0-3.3,1.5-3.3,3.8S439.5,242.2,441.4,242.2z M441.4,241.2c-1.2,0-2.1-0.7-2.1-2.3v-1
	c0-1.5,0.9-2.3,2.1-2.3c1.2,0,2.1,0.7,2.1,2.3v1C443.5,240.4,442.6,241.2,441.4,241.2z M456,242v-1h-0.8v-4c0-1.5-1-2.4-2.8-2.4
	c-1.3,0-2.2,0.6-2.6,1.4l0.7,0.6c0.4-0.7,1-1.1,1.8-1.1c1.1,0,1.7,0.6,1.7,1.6v0.7h-1.4c-2.1,0-3.1,0.8-3.1,2.1
	c0,1.3,0.9,2.2,2.4,2.2c1,0,1.8-0.5,2.1-1.3h0.1c0.1,0.7,0.4,1.2,1.2,1.2H456z M452.2,241.2c-0.9,0-1.4-0.4-1.4-1.1v-0.3
	c0-0.7,0.6-1.1,1.8-1.1h1.5v1.2C454.1,240.6,453.3,241.2,452.2,241.2z M463.4,242v-1h-1.1v-9.4h-1.1v9.2c0,0.7,0.4,1.2,1.2,1.2
	H463.4z M467.9,242.2c1.9,0,3.3-1.5,3.3-3.8s-1.3-3.8-3.3-3.8c-1.9,0-3.3,1.5-3.3,3.8S466,242.2,467.9,242.2z M467.9,241.2
	c-1.2,0-2.1-0.7-2.1-2.3v-1c0-1.5,0.9-2.3,2.1-2.3c1.2,0,2.1,0.7,2.1,2.3v1C470,240.4,469.1,241.2,467.9,241.2z M475.9,242.2
	c1.4,0,2.3-0.7,2.8-1.7l-0.8-0.5c-0.4,0.8-1.1,1.3-2,1.3c-1.3,0-2-0.9-2-2.2v-1.2c0-1.3,0.7-2.2,2-2.2c0.9,0,1.5,0.4,1.8,1.2
	l0.9-0.5c-0.4-1-1.3-1.7-2.7-1.7c-2,0-3.2,1.5-3.2,3.8S473.9,242.2,475.9,242.2z M486.3,242v-1h-0.8v-4c0-1.5-1-2.4-2.8-2.4
	c-1.3,0-2.2,0.6-2.6,1.4l0.7,0.6c0.4-0.7,1-1.1,1.8-1.1c1.1,0,1.7,0.6,1.7,1.6v0.7h-1.4c-2.1,0-3.1,0.8-3.1,2.1
	c0,1.3,0.9,2.2,2.4,2.2c1,0,1.8-0.5,2.1-1.3h0.1c0.1,0.7,0.4,1.2,1.2,1.2H486.3z M482.4,241.2c-0.9,0-1.4-0.4-1.4-1.1v-0.3
	c0-0.7,0.6-1.1,1.8-1.1h1.5v1.2C484.3,240.6,483.5,241.2,482.4,241.2z M491,242v-1h-1.5v-5.3h1.6v-1h-1.6v-2h-1v1.3
	c0,0.5-0.2,0.7-0.6,0.7h-0.7v1h1.2v5.1c0,0.7,0.4,1.2,1.2,1.2H491z M493.7,233.1c0.5,0,0.7-0.3,0.7-0.6v-0.2c0-0.4-0.2-0.6-0.7-0.6
	c-0.5,0-0.7,0.3-0.7,0.6v0.2C493,232.8,493.2,233.1,493.7,233.1z M493.1,242h1.1v-7.2h-1.1V242z M499.5,242.2c1.9,0,3.3-1.5,3.3-3.8
	s-1.3-3.8-3.3-3.8s-3.3,1.5-3.3,3.8S497.6,242.2,499.5,242.2z M499.5,241.2c-1.2,0-2.1-0.7-2.1-2.3v-1c0-1.5,0.9-2.3,2.1-2.3
	s2.1,0.7,2.1,2.3v1C501.6,240.4,500.7,241.2,499.5,241.2z M505.9,242v-5c0-0.9,0.9-1.4,1.8-1.4c1.1,0,1.6,0.7,1.6,1.9v4.4h1.1v-4.6
	c0-1.8-0.9-2.8-2.4-2.8c-1.1,0-1.7,0.5-2,1.3h-0.1v-1.2h-1.1v7.2H505.9z"/>
<path class="st7" d="M456,132.5h35.5c4.4,0,8,3.6,8,8V176"/>
<path class="st7" d="M460,128.5h35.5c4.4,0,8,3.6,8,8V172"/>
<rect x="568" y="136" class="st1" width="48" height="48"/>
<path class="st8" d="M576,136h32c4.4,0,8,3.6,8,8v32c0,4.4-3.6,8-8,8h-32c-4.4,0-8-3.6-8-8v-32C568,139.6,571.6,136,576,136z"/>
<path class="st1" d="M599.5,162.5h-1.2v1.2h1.2v3.8h-15v-3.8h1.2v-1.2h-1.2c-0.3,0-0.6,0.1-0.9,0.4c-0.2,0.2-0.4,0.6-0.4,0.9v3.8
	c0,0.3,0.1,0.6,0.4,0.9c0.2,0.2,0.6,0.4,0.9,0.4h15c0.3,0,0.6-0.1,0.9-0.4c0.2-0.2,0.4-0.6,0.4-0.9v-3.8c0-0.3-0.1-0.6-0.4-0.9
	C600.1,162.6,599.8,162.5,599.5,162.5z"/>
<path class="st1" d="M586.4,166.2c0.3,0,0.6-0.3,0.6-0.6s-0.3-0.6-0.6-0.6s-0.6,0.3-0.6,0.6S586,166.2,586.4,166.2z"/>
<path class="st1" d="M592,163.8c-0.1,0-0.2,0-0.3-0.1l-6.2-3.1l0.6-1.1l6,3l6-3l0.6,1.1l-6.2,3.1C592.2,163.7,592.1,163.8,592,163.8
	z"/>
<path class="st1" d="M592,160c-0.1,0-0.2,0-0.3-0.1l-6.2-3.1c-0.1-0.1-0.2-0.1-0.3-0.2c-0.1-0.1-0.1-0.2-0.1-0.3s0-0.2,0.1-0.3
	c0.1-0.1,0.1-0.2,0.3-0.2l6.2-3.1c0.1,0,0.2-0.1,0.3-0.1s0.2,0,0.3,0.1l6.2,3.1c0.1,0.1,0.2,0.1,0.3,0.2c0.1,0.1,0.1,0.2,0.1,0.3
	s0,0.2-0.1,0.3c-0.1,0.1-0.1,0.2-0.3,0.2l-6.2,3.1C592.2,160,592.1,160,592,160z M587.1,156.2l4.9,2.4l4.9-2.4l-4.9-2.4L587.1,156.2
	z"/>
<path d="M592.3,206v-1.9h1.3v-1.4h-1.3v-6.5H590l-3.9,6.3v1.6h4.4v1.9H592.3z M590.4,198h0.1v4.7h-2.9L590.4,198z M596.3,206.2
	c0.8,0,1.1-0.4,1.1-1v-0.3c0-0.6-0.4-1-1.1-1c-0.8,0-1.1,0.4-1.1,1v0.3C595.2,205.7,595.5,206.2,596.3,206.2z"/>
<path d="M558.6,224l-3.4-9.8h-1.5l-3.4,9.8h1.2l1-2.9h3.9l1,2.9H558.6z M556.1,220.1h-3.4l1.7-4.8h0.1L556.1,220.1z M562.4,224.2
	c1.7,0,2.7-0.9,2.7-2.3c0-1.1-0.6-1.8-2.2-2l-0.6-0.1c-0.9-0.1-1.4-0.4-1.4-1.1c0-0.7,0.5-1.1,1.4-1.1s1.5,0.4,1.9,0.9l0.7-0.7
	c-0.6-0.7-1.4-1.2-2.5-1.2c-1.5,0-2.6,0.7-2.6,2.1c0,1.3,1,1.9,2.3,2.1l0.6,0.1c1,0.1,1.3,0.6,1.3,1.1c0,0.7-0.6,1.2-1.5,1.2
	c-0.9,0-1.6-0.4-2.1-1.1l-0.8,0.6C560.2,223.6,561.1,224.2,562.4,224.2z M569.3,224.2c1.7,0,2.7-0.9,2.7-2.3c0-1.1-0.6-1.8-2.2-2
	l-0.6-0.1c-0.9-0.1-1.4-0.4-1.4-1.1c0-0.7,0.5-1.1,1.4-1.1s1.5,0.4,1.9,0.9l0.7-0.7c-0.6-0.7-1.4-1.2-2.5-1.2
	c-1.5,0-2.6,0.7-2.6,2.1c0,1.3,1,1.9,2.3,2.1l0.6,0.1c1,0.1,1.3,0.6,1.3,1.1c0,0.7-0.6,1.2-1.5,1.2c-0.9,0-1.6-0.4-2.1-1.1l-0.8,0.6
	C567.1,223.6,568,224.2,569.3,224.2z M574.7,215.1c0.5,0,0.7-0.3,0.7-0.6v-0.2c0-0.4-0.2-0.6-0.7-0.6c-0.5,0-0.7,0.3-0.7,0.6v0.2
	C574,214.8,574.2,215.1,574.7,215.1z M574.1,224h1.1v-7.2h-1.1V224z M583.9,224.8c0-1.2-0.8-1.9-2.6-1.9h-1.5
	c-0.7,0-1.1-0.1-1.1-0.5c0-0.4,0.5-0.7,1-0.8c0.2,0,0.5,0.1,0.7,0.1c1.7,0,2.7-1,2.7-2.5c0-0.8-0.3-1.4-0.8-1.9v-0.5h1.4v-1h-1.1
	c-0.6,0-0.8,0.4-0.8,1v0.1c-0.4-0.2-0.9-0.3-1.4-0.3c-1.6,0-2.7,1-2.7,2.5c0,1,0.5,1.8,1.4,2.2v0.1c-0.7,0.2-1.2,0.5-1.2,1.3
	c0,0.5,0.2,0.8,0.6,1v0.2c-0.7,0.2-1.1,0.6-1.1,1.4c0,1.1,0.9,1.8,3.2,1.8C582.7,227,583.9,226.3,583.9,224.8z M582.8,224.9
	c0,0.8-0.7,1.2-2,1.2h-1c-1.1,0-1.6-0.5-1.6-1.1c0-0.4,0.2-0.8,0.7-1h2.4C582.4,223.9,582.8,224.3,582.8,224.9z M580.3,220.7
	c-1,0-1.6-0.4-1.6-1.4v-0.4c0-1,0.6-1.4,1.6-1.4s1.6,0.4,1.6,1.4v0.4C581.9,220.2,581.3,220.7,580.3,220.7z M586.5,224v-5
	c0-0.9,0.9-1.4,1.8-1.4c1.1,0,1.6,0.7,1.6,1.9v4.4h1.1v-4.6c0-1.8-0.9-2.8-2.4-2.8c-1.1,0-1.7,0.5-2,1.3h-0.1v-1.2h-1.1v7.2H586.5z
	 M596.9,224h1.1v-5c0-0.9,0.9-1.4,1.8-1.4c1.1,0,1.6,0.7,1.6,1.9v4.4h1.1v-4.6c0-1.8-0.9-2.8-2.4-2.8c-1.1,0-1.7,0.5-2,1.3H598v-4.3
	h-1.1V224z M607.8,224.2c1.9,0,3.3-1.5,3.3-3.8s-1.3-3.8-3.3-3.8s-3.3,1.5-3.3,3.8S605.8,224.2,607.8,224.2z M607.8,223.2
	c-1.2,0-2.1-0.7-2.1-2.3v-1c0-1.5,0.9-2.3,2.1-2.3c1.2,0,2.1,0.7,2.1,2.3v1C609.8,222.4,609,223.2,607.8,223.2z M615.2,224.2
	c1.7,0,2.7-0.9,2.7-2.3c0-1.1-0.6-1.8-2.2-2l-0.6-0.1c-0.9-0.1-1.4-0.4-1.4-1.1c0-0.7,0.5-1.1,1.4-1.1c0.9,0,1.5,0.4,1.9,0.9
	l0.7-0.7c-0.6-0.7-1.4-1.2-2.5-1.2c-1.5,0-2.6,0.7-2.6,2.1c0,1.3,1,1.9,2.3,2.1l0.6,0.1c1,0.1,1.3,0.6,1.3,1.1
	c0,0.7-0.6,1.2-1.5,1.2c-0.9,0-1.6-0.4-2.1-1.1l-0.8,0.6C613,223.6,613.9,224.2,615.2,224.2z M622.9,224v-1h-1.5v-5.3h1.6v-1h-1.6
	v-2h-1v1.3c0,0.5-0.2,0.7-0.6,0.7h-0.7v1h1.2v5.1c0,0.7,0.4,1.2,1.2,1.2H622.9z M627.2,224.2c1.7,0,2.7-0.9,2.7-2.3
	c0-1.1-0.6-1.8-2.2-2l-0.6-0.1c-0.9-0.1-1.4-0.4-1.4-1.1c0-0.7,0.5-1.1,1.4-1.1s1.5,0.4,1.9,0.9l0.7-0.7c-0.6-0.7-1.4-1.2-2.5-1.2
	c-1.5,0-2.6,0.7-2.6,2.1c0,1.3,1,1.9,2.3,2.1l0.6,0.1c1,0.1,1.3,0.6,1.3,1.1c0,0.7-0.6,1.2-1.5,1.2c-0.9,0-1.6-0.4-2.1-1.1l-0.8,0.6
	C624.9,223.6,625.8,224.2,627.2,224.2z M545.6,242v-1h-1.5v-5.3h1.6v-1h-1.6v-2h-1v1.3c0,0.5-0.2,0.7-0.6,0.7h-0.7v1h1.2v5.1
	c0,0.7,0.4,1.2,1.2,1.2H545.6z M550.4,242.2c1.9,0,3.3-1.5,3.3-3.8s-1.3-3.8-3.3-3.8s-3.3,1.5-3.3,3.8S548.4,242.2,550.4,242.2z
	 M550.4,241.2c-1.2,0-2.1-0.7-2.1-2.3v-1c0-1.5,0.9-2.3,2.1-2.3c1.2,0,2.1,0.7,2.1,2.3v1C552.4,240.4,551.6,241.2,550.4,241.2z
	 M561.8,242.2c1.4,0,2.3-0.7,2.8-1.7l-0.8-0.5c-0.4,0.8-1,1.3-2,1.3c-1.3,0-2-0.9-2-2.2v-1.2c0-1.3,0.7-2.2,2-2.2
	c0.9,0,1.5,0.4,1.8,1.2l0.9-0.5c-0.4-1-1.3-1.7-2.7-1.7c-2,0-3.2,1.5-3.2,3.8S559.8,242.2,561.8,242.2z M568.9,242.2
	c1.9,0,3.3-1.5,3.3-3.8s-1.3-3.8-3.3-3.8s-3.3,1.5-3.3,3.8S567,242.2,568.9,242.2z M568.9,241.2c-1.2,0-2.1-0.7-2.1-2.3v-1
	c0-1.5,0.9-2.3,2.1-2.3c1.2,0,2.1,0.7,2.1,2.3v1C571,240.4,570.2,241.2,568.9,241.2z M575.3,242v-5c0-0.9,0.9-1.4,1.8-1.4
	c1.1,0,1.6,0.7,1.6,1.9v4.4h1.1v-4.6c0-1.8-0.9-2.8-2.4-2.8c-1.1,0-1.7,0.5-2,1.3h-0.1v-1.2h-1.1v7.2H575.3z M585.3,242v-1h-1.5
	v-5.3h1.6v-1h-1.6v-2h-1v1.3c0,0.5-0.2,0.7-0.6,0.7h-0.7v1h1.2v5.1c0,0.7,0.4,1.2,1.2,1.2H585.3z M588.5,242v-4.9
	c0-0.7,0.7-1.2,1.9-1.2h0.7v-1.1h-0.4c-1.2,0-1.8,0.6-2.1,1.3h-0.1v-1.3h-1.1v7.2H588.5z M595.4,242.2c1.9,0,3.3-1.5,3.3-3.8
	s-1.3-3.8-3.3-3.8s-3.3,1.5-3.3,3.8S593.4,242.2,595.4,242.2z M595.4,241.2c-1.2,0-2.1-0.7-2.1-2.3v-1c0-1.5,0.9-2.3,2.1-2.3
	s2.1,0.7,2.1,2.3v1C597.4,240.4,596.6,241.2,595.4,241.2z M602.8,242v-1h-1.1v-9.4h-1.1v9.2c0,0.7,0.4,1.2,1.2,1.2H602.8z
	 M608.1,244.8h1.1v-4h0.1c0.4,0.9,1.1,1.3,2.1,1.3c1.8,0,2.9-1.5,2.9-3.8s-1.1-3.8-2.9-3.8c-1,0-1.7,0.4-2.1,1.3h-0.1v-1.2h-1.1
	V244.8z M611,241.2c-1,0-1.9-0.5-1.9-1.5V237c0-0.8,0.8-1.4,1.9-1.4c1.3,0,2,0.9,2,2.2v1.2C613.1,240.3,612.3,241.2,611,241.2z
	 M618.5,242v-1h-1.1v-9.4h-1.1v9.2c0,0.7,0.4,1.2,1.2,1.2H618.5z M626.2,242v-1h-0.8v-4c0-1.5-1-2.4-2.8-2.4c-1.3,0-2.2,0.6-2.6,1.4
	l0.7,0.6c0.4-0.7,1-1.1,1.8-1.1c1.1,0,1.7,0.6,1.7,1.6v0.7h-1.4c-2.1,0-3.1,0.8-3.1,2.1c0,1.3,0.9,2.2,2.4,2.2c1,0,1.8-0.5,2.1-1.3
	h0.1c0.1,0.7,0.4,1.2,1.2,1.2H626.2z M622.3,241.2c-0.9,0-1.4-0.4-1.4-1.1v-0.3c0-0.7,0.6-1.1,1.8-1.1h1.5v1.2
	C624.3,240.6,623.5,241.2,622.3,241.2z M629.1,242v-5c0-0.9,0.9-1.4,1.8-1.4c1.1,0,1.6,0.7,1.6,1.9v4.4h1.1v-4.6
	c0-1.8-0.9-2.8-2.4-2.8c-1.1,0-1.7,0.5-2,1.3h-0.1v-1.2H628v7.2H629.1z M638.8,242.2c1.4,0,2.4-0.7,2.9-1.7l-0.8-0.6
	c-0.4,0.8-1.1,1.2-2,1.2c-1.3,0-2.1-0.9-2.1-2.2v-0.3h5.2v-0.5c0-2-1.2-3.5-3.1-3.5c-2,0-3.2,1.5-3.2,3.8S636.8,242.2,638.8,242.2z
	 M638.8,235.5c1.1,0,1.9,0.9,1.9,2.1v0.2h-4v-0.1C636.7,236.5,637.6,235.5,638.8,235.5z"/>
<path class="st9" d="M576,132.5h35.5c4.4,0,8,3.6,8,8V176"/>
<path class="st9" d="M580,128.5h35.5c4.4,0,8,3.6,8,8V172"/>
<rect x="808.5" y="136" class="st1" width="48" height="48"/>
<path class="st10" d="M816.5,136h32c4.4,0,8,3.6,8,8v32c0,4.4-3.6,8-8,8h-32c-4.4,0-8-3.6-8-8v-32C808.5,139.6,812.1,136,816.5,136z
	"/>
<path class="st1" d="M832.5,163.8V160h-3.8v-3.8h-5v12.5h12.5v-5H832.5z M831.2,161.2v2.5h-2.5v-2.5H831.2z M825,157.5h2.5v2.5H825
	V157.5z M827.5,161.2v2.5H825v-2.5H827.5z M825,167.5V165h2.5v2.5H825z M831.2,167.5h-2.5V165h2.5V167.5z M835,167.5h-2.5V165h2.5
	V167.5z"/>
<path class="st1" d="M841,158.5l-1.6,1.6v-3.9h1.9v-5h-5v5h1.9v3.9l-1.6-1.6l-0.9,0.9l3.1,3.1l3.1-3.1L841,158.5z M837.5,152.5h2.5
	v2.5h-2.5V152.5z"/>
<path d="M830.4,206.2c2.2,0,3.5-1.4,3.5-3.4c0-1.8-1.2-3-2.9-3c-1.2,0-1.8,0.7-2.2,1.4l-0.1,0c0.4-2,1.8-3.3,4.1-5h-2.5
	c-1.6,1.1-3.5,3.3-3.5,6.1C826.8,204.7,828.1,206.2,830.4,206.2z M830.4,204.7c-1,0-1.7-0.6-1.7-1.7v-0.2c0-1.1,0.6-1.7,1.7-1.7
	c1,0,1.7,0.6,1.7,1.7v0.2C832,204.1,831.4,204.7,830.4,204.7z M836.8,206.2c0.8,0,1.1-0.4,1.1-1v-0.3c0-0.6-0.4-1-1.1-1
	c-0.8,0-1.1,0.4-1.1,1v0.3C835.7,205.7,836,206.2,836.8,206.2z"/>
<path d="M799.1,224l-3.4-9.8h-1.5l-3.4,9.8h1.2l1-2.9h3.9l1,2.9H799.1z M796.6,220.1h-3.4l1.7-4.8h0.1L796.6,220.1z M802.9,224.2
	c1.7,0,2.7-0.9,2.7-2.3c0-1.1-0.6-1.8-2.2-2l-0.6-0.1c-0.9-0.1-1.4-0.4-1.4-1.1c0-0.7,0.5-1.1,1.4-1.1s1.5,0.4,1.9,0.9l0.7-0.7
	c-0.6-0.7-1.4-1.2-2.5-1.2c-1.5,0-2.6,0.7-2.6,2.1c0,1.3,1,1.9,2.3,2.1l0.6,0.1c1,0.1,1.3,0.6,1.3,1.1c0,0.7-0.6,1.2-1.5,1.2
	c-0.9,0-1.6-0.4-2.1-1.1l-0.8,0.6C800.7,223.6,801.6,224.2,802.9,224.2z M809.8,224.2c1.7,0,2.7-0.9,2.7-2.3c0-1.1-0.6-1.8-2.2-2
	l-0.6-0.1c-0.9-0.1-1.4-0.4-1.4-1.1c0-0.7,0.5-1.1,1.4-1.1s1.5,0.4,1.9,0.9l0.7-0.7c-0.6-0.7-1.4-1.2-2.5-1.2
	c-1.5,0-2.6,0.7-2.6,2.1c0,1.3,1,1.9,2.3,2.1l0.6,0.1c1,0.1,1.3,0.6,1.3,1.1c0,0.7-0.6,1.2-1.5,1.2c-0.9,0-1.6-0.4-2.1-1.1l-0.8,0.6
	C807.6,223.6,808.5,224.2,809.8,224.2z M815.2,215.1c0.5,0,0.7-0.3,0.7-0.6v-0.2c0-0.4-0.2-0.6-0.7-0.6c-0.5,0-0.7,0.3-0.7,0.6v0.2
	C814.5,214.8,814.7,215.1,815.2,215.1z M814.6,224h1.1v-7.2h-1.1V224z M824.4,224.8c0-1.2-0.8-1.9-2.6-1.9h-1.5
	c-0.7,0-1.1-0.1-1.1-0.5c0-0.4,0.5-0.7,1-0.8c0.2,0,0.5,0.1,0.7,0.1c1.7,0,2.7-1,2.7-2.5c0-0.8-0.3-1.4-0.8-1.9v-0.5h1.4v-1H823
	c-0.6,0-0.8,0.4-0.8,1v0.1c-0.4-0.2-0.9-0.3-1.4-0.3c-1.6,0-2.7,1-2.7,2.5c0,1,0.5,1.8,1.4,2.2v0.1c-0.7,0.2-1.2,0.5-1.2,1.3
	c0,0.5,0.2,0.8,0.6,1v0.2c-0.7,0.2-1.1,0.6-1.1,1.4c0,1.1,0.9,1.8,3.2,1.8C823.2,227,824.4,226.3,824.4,224.8z M823.3,224.9
	c0,0.8-0.7,1.2-2,1.2h-1c-1.1,0-1.6-0.5-1.6-1.1c0-0.4,0.2-0.8,0.7-1h2.4C822.9,223.9,823.3,224.3,823.3,224.9z M820.8,220.7
	c-1,0-1.6-0.4-1.6-1.4v-0.4c0-1,0.6-1.4,1.6-1.4s1.6,0.4,1.6,1.4v0.4C822.4,220.2,821.8,220.7,820.8,220.7z M827,224v-5
	c0-0.9,0.9-1.4,1.8-1.4c1.1,0,1.6,0.7,1.6,1.9v4.4h1.1v-4.6c0-1.8-0.9-2.8-2.4-2.8c-1.1,0-1.7,0.5-2,1.3H827v-1.2h-1.1v7.2H827z
	 M837.4,224h1.1v-5c0-0.9,0.9-1.4,1.8-1.4c1.1,0,1.6,0.7,1.6,1.9v4.4h1.1v-4.6c0-1.8-0.9-2.8-2.4-2.8c-1.1,0-1.7,0.5-2,1.3h-0.1
	v-4.3h-1.1V224z M848.3,224.2c1.9,0,3.3-1.5,3.3-3.8s-1.3-3.8-3.3-3.8s-3.3,1.5-3.3,3.8S846.3,224.2,848.3,224.2z M848.3,223.2
	c-1.2,0-2.1-0.7-2.1-2.3v-1c0-1.5,0.9-2.3,2.1-2.3c1.2,0,2.1,0.7,2.1,2.3v1C850.3,222.4,849.5,223.2,848.3,223.2z M855.7,224.2
	c1.7,0,2.7-0.9,2.7-2.3c0-1.1-0.6-1.8-2.2-2l-0.6-0.1c-0.9-0.1-1.4-0.4-1.4-1.1c0-0.7,0.5-1.1,1.4-1.1c0.9,0,1.5,0.4,1.9,0.9
	l0.7-0.7c-0.6-0.7-1.4-1.2-2.5-1.2c-1.5,0-2.6,0.7-2.6,2.1c0,1.3,1,1.9,2.3,2.1l0.6,0.1c1,0.1,1.3,0.6,1.3,1.1
	c0,0.7-0.6,1.2-1.5,1.2c-0.9,0-1.6-0.4-2.1-1.1l-0.8,0.6C853.5,223.6,854.4,224.2,855.7,224.2z M863.4,224v-1h-1.5v-5.3h1.6v-1h-1.6
	v-2h-1v1.3c0,0.5-0.2,0.7-0.6,0.7h-0.7v1h1.2v5.1c0,0.7,0.4,1.2,1.2,1.2H863.4z M867.7,224.2c1.7,0,2.7-0.9,2.7-2.3
	c0-1.1-0.6-1.8-2.2-2l-0.6-0.1c-0.9-0.1-1.4-0.4-1.4-1.1c0-0.7,0.5-1.1,1.4-1.1s1.5,0.4,1.9,0.9l0.7-0.7c-0.6-0.7-1.4-1.2-2.5-1.2
	c-1.5,0-2.6,0.7-2.6,2.1c0,1.3,1,1.9,2.3,2.1l0.6,0.1c1,0.1,1.3,0.6,1.3,1.1c0,0.7-0.6,1.2-1.5,1.2c-0.9,0-1.6-0.4-2.1-1.1l-0.8,0.6
	C865.4,223.6,866.3,224.2,867.7,224.2z M802.1,242v-1h-1.5v-5.3h1.6v-1h-1.6v-2h-1v1.3c0,0.5-0.2,0.7-0.6,0.7h-0.7v1h1.2v5.1
	c0,0.7,0.4,1.2,1.2,1.2H802.1z M806.8,242.2c1.9,0,3.3-1.5,3.3-3.8s-1.3-3.8-3.3-3.8s-3.3,1.5-3.3,3.8S804.9,242.2,806.8,242.2z
	 M806.8,241.2c-1.2,0-2.1-0.7-2.1-2.3v-1c0-1.5,0.9-2.3,2.1-2.3c1.2,0,2.1,0.7,2.1,2.3v1C808.9,240.4,808,241.2,806.8,241.2z
	 M817.7,242.2c1.7,0,2.7-0.9,2.7-2.3c0-1.1-0.6-1.8-2.2-2l-0.6-0.1c-0.9-0.1-1.4-0.4-1.4-1.1c0-0.7,0.5-1.1,1.4-1.1s1.5,0.4,1.9,0.9
	l0.7-0.7c-0.6-0.7-1.4-1.2-2.5-1.2c-1.5,0-2.6,0.7-2.6,2.1c0,1.3,1,1.9,2.3,2.1l0.6,0.1c1,0.1,1.3,0.6,1.3,1.1
	c0,0.7-0.6,1.2-1.5,1.2c-0.9,0-1.6-0.4-2.1-1.1l-0.8,0.6C815.5,241.6,816.4,242.2,817.7,242.2z M825.2,242.2c1.4,0,2.4-0.7,2.9-1.7
	l-0.8-0.6c-0.4,0.8-1.1,1.2-2,1.2c-1.3,0-2.1-0.9-2.1-2.2v-0.3h5.2v-0.5c0-2-1.2-3.5-3.1-3.5c-2,0-3.2,1.5-3.2,3.8
	S823.3,242.2,825.2,242.2z M825.2,235.5c1.1,0,1.9,0.9,1.9,2.1v0.2h-4v-0.1C823.2,236.5,824,235.5,825.2,235.5z M831.5,242v-4.9
	c0-0.7,0.7-1.2,1.9-1.2h0.7v-1.1h-0.4c-1.2,0-1.8,0.6-2.1,1.3h-0.1v-1.3h-1.1v7.2H831.5z M838.7,242l2.5-7.2h-1.1l-1.3,3.6l-0.8,2.5
	H838l-0.8-2.5l-1.3-3.6h-1.1l2.5,7.2H838.7z M843.4,233.1c0.5,0,0.7-0.3,0.7-0.6v-0.2c0-0.4-0.2-0.6-0.7-0.6c-0.5,0-0.7,0.3-0.7,0.6
	v0.2C842.7,232.8,842.9,233.1,843.4,233.1z M842.9,242h1.1v-7.2h-1.1V242z M849.2,242.2c1.4,0,2.3-0.7,2.8-1.7l-0.8-0.5
	c-0.4,0.8-1.1,1.3-2,1.3c-1.3,0-2-0.9-2-2.2v-1.2c0-1.3,0.7-2.2,2-2.2c0.9,0,1.5,0.4,1.8,1.2l0.9-0.5c-0.4-1-1.3-1.7-2.7-1.7
	c-2,0-3.2,1.5-3.2,3.8S847.2,242.2,849.2,242.2z M856.4,242.2c1.4,0,2.4-0.7,2.9-1.7l-0.8-0.6c-0.4,0.8-1.1,1.2-2,1.2
	c-1.3,0-2.1-0.9-2.1-2.2v-0.3h5.2v-0.5c0-2-1.2-3.5-3.1-3.5c-2,0-3.2,1.5-3.2,3.8S854.4,242.2,856.4,242.2z M856.4,235.5
	c1.1,0,1.9,0.9,1.9,2.1v0.2h-4v-0.1C854.3,236.5,855.1,235.5,856.4,235.5z M863.7,242.2c1.7,0,2.7-0.9,2.7-2.3c0-1.1-0.6-1.8-2.2-2
	l-0.6-0.1c-0.9-0.1-1.4-0.4-1.4-1.1c0-0.7,0.5-1.1,1.4-1.1c0.9,0,1.5,0.4,1.9,0.9l0.7-0.7c-0.6-0.7-1.4-1.2-2.5-1.2
	c-1.5,0-2.6,0.7-2.6,2.1c0,1.3,1,1.9,2.3,2.1l0.6,0.1c1,0.1,1.3,0.6,1.3,1.1c0,0.7-0.6,1.2-1.5,1.2c-0.9,0-1.6-0.4-2.1-1.1l-0.8,0.6
	C861.4,241.6,862.3,242.2,863.7,242.2z"/>
<path class="st11" d="M817,132.5h35.5c4.4,0,8,3.6,8,8V176"/>
<path class="st11" d="M821,128.5h35.5c4.4,0,8,3.6,8,8V172"/>
<rect x="688" y="136" class="st1" width="48" height="48"/>
<path class="st12" d="M696,136.5h32c4.1,0,7.5,3.4,7.5,7.5v32c0,4.1-3.4,7.5-7.5,7.5h-32c-4.1,0-7.5-3.4-7.5-7.5v-32
	C688.5,139.9,691.9,136.5,696,136.5z"/>
<path d="M707.6,163.8c0.7,0,1.2-0.6,1.2-1.2s-0.6-1.2-1.2-1.2s-1.2,0.6-1.2,1.2S706.9,163.8,707.6,163.8z"/>
<path d="M712,162.5c-1.4,0-2.5-1.1-2.5-2.5s1.1-2.5,2.5-2.5s2.5,1.1,2.5,2.5S713.4,162.5,712,162.5z M712,158.8
	c-0.7,0-1.2,0.6-1.2,1.2s0.6,1.2,1.2,1.2s1.2-0.6,1.2-1.2S712.7,158.8,712,158.8z"/>
<path d="M716.4,158.8c0.7,0,1.2-0.6,1.2-1.2s-0.6-1.2-1.2-1.2s-1.2,0.6-1.2,1.2S715.7,158.8,716.4,158.8z"/>
<path d="M712,169.4c-0.1,0-0.2,0-0.3-0.1l-7.5-4.4c-0.2-0.1-0.3-0.3-0.3-0.5v-8.8c0-0.2,0.1-0.4,0.3-0.5l7.5-4.4
	c0.2-0.1,0.4-0.1,0.6,0l7.5,4.4l-0.6,1.1L712,152l-6.9,4v8l6.9,4l6.9-4v-4.6h1.2v5c0,0.2-0.1,0.4-0.3,0.5l-7.5,4.4
	C712.2,169.3,712.1,169.4,712,169.4L712,169.4z"/>
<path d="M712.8,196.2h-5.8l-0.4,5.5l1.5,0.2c0.3-0.3,0.8-0.7,1.6-0.7c1,0,1.6,0.6,1.6,1.6v0.1c0,1.1-0.6,1.7-1.7,1.7
	c-1.1,0-1.6-0.6-2-1.3l-1.3,1c0.6,1,1.6,1.8,3.4,1.8c2.3,0,3.6-1.4,3.6-3.4c0-1.9-1.3-3.1-3-3.1c-1.2,0-1.7,0.6-2.1,1.4h-0.1
	l0.2-3.3h4.4V196.2z M716.3,206.2c0.8,0,1.1-0.4,1.1-1v-0.3c0-0.6-0.4-1-1.1-1c-0.8,0-1.1,0.4-1.1,1v0.3
	C715.2,205.7,715.5,206.2,716.3,206.2z"/>
<path d="M682,224v-1h-4.2v-8.7h-1.2v9.8H682z M686.3,224.2c1.9,0,3.3-1.5,3.3-3.8s-1.3-3.8-3.3-3.8s-3.3,1.5-3.3,3.8
	S684.4,224.2,686.3,224.2z M686.3,223.2c-1.2,0-2.1-0.7-2.1-2.3v-1c0-1.5,0.9-2.3,2.1-2.3c1.2,0,2.1,0.7,2.1,2.3v1
	C688.4,222.4,687.5,223.2,686.3,223.2z M694.3,224.2c1.4,0,2.3-0.7,2.8-1.7l-0.8-0.5c-0.4,0.8-1,1.3-2,1.3c-1.3,0-2-0.9-2-2.2v-1.2
	c0-1.3,0.7-2.2,2-2.2c0.9,0,1.5,0.4,1.8,1.2l0.9-0.5c-0.4-1-1.3-1.7-2.7-1.7c-2,0-3.2,1.5-3.2,3.8S692.2,224.2,694.3,224.2z
	 M704.7,224v-1h-0.8v-4c0-1.5-1-2.4-2.8-2.4c-1.3,0-2.2,0.6-2.6,1.4l0.7,0.6c0.4-0.7,1-1.1,1.8-1.1c1.1,0,1.7,0.6,1.7,1.6v0.7h-1.4
	c-2.1,0-3.1,0.8-3.1,2.1c0,1.3,0.9,2.2,2.4,2.2c1,0,1.8-0.5,2.1-1.3h0.1c0.1,0.7,0.4,1.2,1.2,1.2H704.7z M700.8,223.2
	c-0.9,0-1.4-0.4-1.4-1.1v-0.3c0-0.7,0.6-1.1,1.8-1.1h1.5v1.2C702.7,222.6,701.9,223.2,700.8,223.2z M709.4,224v-1H708v-5.3h1.6v-1
	H708v-2h-1v1.3c0,0.5-0.2,0.7-0.6,0.7h-0.7v1h1.2v5.1c0,0.7,0.4,1.2,1.2,1.2H709.4z M712.1,215.1c0.5,0,0.7-0.3,0.7-0.6v-0.2
	c0-0.4-0.2-0.6-0.7-0.6s-0.7,0.3-0.7,0.6v0.2C711.4,214.8,711.6,215.1,712.1,215.1z M711.5,224h1.1v-7.2h-1.1V224z M717.9,224.2
	c1.9,0,3.3-1.5,3.3-3.8s-1.3-3.8-3.3-3.8c-1.9,0-3.3,1.5-3.3,3.8S716,224.2,717.9,224.2z M717.9,223.2c-1.2,0-2.1-0.7-2.1-2.3v-1
	c0-1.5,0.9-2.3,2.1-2.3c1.2,0,2.1,0.7,2.1,2.3v1C719.9,222.4,719.1,223.2,717.9,223.2z M724.3,224v-5c0-0.9,0.9-1.4,1.8-1.4
	c1.1,0,1.6,0.7,1.6,1.9v4.4h1.1v-4.6c0-1.8-0.9-2.8-2.4-2.8c-1.1,0-1.7,0.5-2,1.3h-0.1v-1.2h-1.1v7.2H724.3z M735.3,215.1
	c0.5,0,0.7-0.3,0.7-0.6v-0.2c0-0.4-0.2-0.6-0.7-0.6c-0.5,0-0.7,0.3-0.7,0.6v0.2C734.6,214.8,734.8,215.1,735.3,215.1z M734.7,224
	h1.1v-7.2h-1.1V224z M739.5,224v-5c0-0.9,0.9-1.4,1.8-1.4c1.1,0,1.6,0.7,1.6,1.9v4.4h1.1v-4.6c0-1.8-0.9-2.8-2.4-2.8
	c-1.1,0-1.7,0.5-2,1.3h-0.1v-1.2h-1.1v7.2H739.5z M673.7,242v-5c0-0.9,0.9-1.4,1.8-1.4c1.1,0,1.6,0.7,1.6,1.9v4.4h1.1v-4.6
	c0-1.8-0.9-2.8-2.4-2.8c-1.1,0-1.7,0.5-2,1.3h-0.1v-1.2h-1.1v7.2H673.7z M683.5,242.2c1.9,0,3.3-1.5,3.3-3.8s-1.3-3.8-3.3-3.8
	s-3.3,1.5-3.3,3.8S681.5,242.2,683.5,242.2z M683.5,241.2c-1.2,0-2.1-0.7-2.1-2.3v-1c0-1.5,0.9-2.3,2.1-2.3c1.2,0,2.1,0.7,2.1,2.3v1
	C685.5,240.4,684.7,241.2,683.5,241.2z M689.8,242v-4.9c0-0.7,0.7-1.2,1.9-1.2h0.7v-1.1H692c-1.2,0-1.8,0.6-2.1,1.3h-0.1v-1.3h-1.1
	v7.2H689.8z M695.1,242v-5c0-0.9,0.8-1.4,1.7-1.4c1.1,0,1.6,0.7,1.6,1.9v4.4h1.1v-5c0-0.9,0.8-1.4,1.7-1.4c1.1,0,1.6,0.7,1.6,1.9
	v4.4h1.1v-4.6c0-1.8-0.9-2.8-2.4-2.8c-1.2,0-1.9,0.7-2.2,1.5h0c-0.4-1-1.3-1.5-2.2-1.5c-1.1,0-1.6,0.6-1.9,1.3h-0.1v-1.2H694v7.2
	H695.1z M712.3,242v-1h-0.8v-4c0-1.5-1-2.4-2.8-2.4c-1.3,0-2.2,0.6-2.6,1.4l0.7,0.6c0.4-0.7,1-1.1,1.8-1.1c1.1,0,1.7,0.6,1.7,1.6
	v0.7h-1.4c-2.1,0-3.1,0.8-3.1,2.1c0,1.3,0.9,2.2,2.4,2.2c1,0,1.8-0.5,2.1-1.3h0.1c0.1,0.7,0.4,1.2,1.2,1.2H712.3z M708.4,241.2
	c-0.9,0-1.4-0.4-1.4-1.1v-0.3c0-0.7,0.6-1.1,1.8-1.1h1.5v1.2C710.3,240.6,709.5,241.2,708.4,241.2z M716.2,242v-1h-1.1v-9.4H714v9.2
	c0,0.7,0.4,1.2,1.2,1.2H716.2z M723.7,242.2c1.7,0,2.7-0.9,2.7-2.3c0-1.1-0.6-1.8-2.2-2l-0.6-0.1c-0.9-0.1-1.4-0.4-1.4-1.1
	c0-0.7,0.5-1.1,1.4-1.1s1.5,0.4,1.9,0.9l0.7-0.7c-0.6-0.7-1.4-1.2-2.5-1.2c-1.5,0-2.6,0.7-2.6,2.1c0,1.3,1,1.9,2.3,2.1l0.6,0.1
	c1,0.1,1.3,0.6,1.3,1.1c0,0.7-0.6,1.2-1.5,1.2c-0.9,0-1.6-0.4-2.1-1.1l-0.8,0.6C721.4,241.6,722.3,242.2,723.7,242.2z M731.4,242v-1
	h-1.5v-5.3h1.6v-1h-1.6v-2h-1v1.3c0,0.5-0.2,0.7-0.6,0.7h-0.7v1h1.2v5.1c0,0.7,0.4,1.2,1.2,1.2H731.4z M739.3,242v-1h-0.8v-4
	c0-1.5-1-2.4-2.8-2.4c-1.3,0-2.2,0.6-2.6,1.4l0.7,0.6c0.4-0.7,1-1.1,1.8-1.1c1.1,0,1.7,0.6,1.7,1.6v0.7h-1.4c-2.1,0-3.1,0.8-3.1,2.1
	c0,1.3,0.9,2.2,2.4,2.2c1,0,1.8-0.5,2.1-1.3h0.1c0.1,0.7,0.4,1.2,1.2,1.2H739.3z M735.5,241.2c-0.9,0-1.4-0.4-1.4-1.1v-0.3
	c0-0.7,0.6-1.1,1.8-1.1h1.5v1.2C737.4,240.6,736.6,241.2,735.5,241.2z M744.1,242v-1h-1.5v-5.3h1.6v-1h-1.6v-2h-1v1.3
	c0,0.5-0.2,0.7-0.6,0.7h-0.7v1h1.2v5.1c0,0.7,0.4,1.2,1.2,1.2H744.1z M748.8,242.2c1.4,0,2.4-0.7,2.9-1.7l-0.8-0.6
	c-0.4,0.8-1.1,1.2-2,1.2c-1.3,0-2.1-0.9-2.1-2.2v-0.3h5.2v-0.5c0-2-1.2-3.5-3.1-3.5c-2,0-3.2,1.5-3.2,3.8S746.8,242.2,748.8,242.2z
	 M748.8,235.5c1.1,0,1.9,0.9,1.9,2.1v0.2h-4v-0.1C746.7,236.5,747.6,235.5,748.8,235.5z"/>
<path class="st13" d="M696,132.5h35.5c4.4,0,8,3.6,8,8V176"/>
<path class="st13" d="M700,128.5h35.5c4.4,0,8,3.6,8,8V172"/>
<path class="st2" d="M328,160l-5-2.9v5.8L328,160z M264,160.5h32v-1h-32V160.5z M296,160.5h27.5v-1H296V160.5z"/>
<path class="st2" d="M448,160l-5-2.9v5.8L448,160z M384,160.5h32v-1h-32V160.5z M416,160.5h27.5v-1H416V160.5z"/>
<path class="st2" d="M568,160l-5-2.9v5.8L568,160z M504,160.5h32v-1h-32V160.5z M536,160.5h27.5v-1H536V160.5z"/>
<path class="st2" d="M688,160l-5-2.9v5.8L688,160z M624,160.5h32v-1h-32V160.5z M656,160.5h27.5v-1H656V160.5z"/>
<path class="st2" d="M808.5,160l-5-2.9v5.8L808.5,160z M744,160.5h32v-1h-32V160.5z M776,160.5h28v-1h-28V160.5z"/>
</svg>
