<svg id="Layer_1" data-name="Layer 1" xmlns="http://www.w3.org/2000/svg" width="1469.63" height="310.95" viewBox="0 0 1469.63 310.95"><defs><style>.cls-1{fill:#d9fbfb;}.cls-2{fill:#d0e2ff;}.cls-3{font-size:25.25px;font-family:IBMPlexSans, IBM Plex Sans;}.cls-4{letter-spacing:-0.01em;}.cls-5{letter-spacing:0em;}.cls-6{letter-spacing:-0.01em;}.cls-7{fill:none;}.cls-8{fill:#f2f4f8;}.cls-19,.cls-8{stroke:#000;stroke-miterlimit:10;stroke-width:2.97px;}.cls-9{letter-spacing:-0.01em;}.cls-10{letter-spacing:-0.01em;}.cls-11{letter-spacing:-0.01em;}.cls-12{letter-spacing:0em;}.cls-13{letter-spacing:-0.01em;}.cls-14{letter-spacing:-0.01em;}.cls-15{letter-spacing:-0.01em;}.cls-16{letter-spacing:-0.01em;}.cls-17{letter-spacing:0em;}.cls-18{letter-spacing:-0.01em;}.cls-19{fill:#ffd9be;}.cls-20{letter-spacing:0.01em;}.cls-21{letter-spacing:-0.01em;}.cls-22{letter-spacing:0em;}.cls-23{letter-spacing:-0.02em;}</style></defs><rect class="cls-1" x="544.35" y="11.13" width="922.37" height="105.46" rx="34.15"/><path d="M1432.56,12.61a32.71,32.71,0,0,1,32.67,32.67V82.43a32.71,32.71,0,0,1-32.67,32.67H578.5a32.71,32.71,0,0,1-32.67-32.67V45.28A32.71,32.71,0,0,1,578.5,12.61h854.06m0-3H578.5a35.64,35.64,0,0,0-35.64,35.64V82.43a35.64,35.64,0,0,0,35.64,35.64h854.06a35.64,35.64,0,0,0,35.64-35.64V45.28a35.64,35.64,0,0,0-35.64-35.64Z"/><rect class="cls-2" x="3.7" y="9.64" width="451.53" height="105.46" rx="23.49"/><path d="M431.73,11.13a22,22,0,0,1,22,22V91.6a22,22,0,0,1-22,22H27.19a22,22,0,0,1-22-22V33.13a22,22,0,0,1,22-22H431.73m0-3H27.19a25,25,0,0,0-25,25V91.6a25,25,0,0,0,25,25H431.73a25,25,0,0,0,25-25V33.13a25,25,0,0,0-25-25Z"/><text class="cls-3" transform="translate(97.62 70.96)"><tspan class="cls-4">L</tspan><tspan x="12.4" y="0">ocationCont</tspan><tspan class="cls-5" x="149.4" y="0">r</tspan><tspan x="158.54" y="0">ol plane ho</tspan><tspan class="cls-6" x="283.15" y="0">s</tspan><tspan x="295.27" y="0">t</tspan></text><g id="data--base"><path d="M59.67,43.8H35.9a3,3,0,0,0-3,3V79.45a3,3,0,0,0,3,3H59.67a3,3,0,0,0,3-3V46.77A3,3,0,0,0,59.67,43.8Zm0,3v8.91H35.9V46.77ZM35.9,67.57V58.66H59.67v8.91Zm0,11.88V70.54H59.67v8.91Z"/><circle cx="39.72" cy="50.94" r="1.49"/><circle cx="39.72" cy="62.82" r="1.49"/><circle cx="39.72" cy="74.7" r="1.49"/><rect id="_Transparent_Rectangle_" data-name=" Transparent Rectangle " class="cls-7" x="24.02" y="39.35" width="47.53" height="47.53"/></g><rect class="cls-8" x="1.49" y="130.22" width="218.34" height="175" rx="30.08"/><text class="cls-3" transform="translate(44.13 173.84)">Boot d<tspan class="cls-9" x="74.23" y="0">e</tspan><tspan x="87.9" y="0">vi</tspan><tspan class="cls-10" x="106.63" y="0">c</tspan><tspan x="119.18" y="0">e</tspan></text><text class="cls-3" transform="translate(72.35 224.34)">10 GiB</text><text class="cls-3" transform="translate(85.47 276.32)"><tspan class="cls-11">e</tspan><tspan x="13.56" y="0">xt4</tspan></text><rect class="cls-8" x="239.07" y="129.61" width="218.34" height="175" rx="30.08"/><text class="cls-3" transform="translate(252.58 173.23)">Boot<tspan class="cls-6" x="53.63" y="0">s</tspan><tspan x="65.75" y="0">t</tspan><tspan class="cls-12" x="74.61" y="0">r</tspan><tspan x="83.78" y="0">ap d</tspan><tspan class="cls-13" x="132.51" y="0">e</tspan><tspan x="146.17" y="0">vi</tspan><tspan class="cls-14" x="164.91" y="0">c</tspan><tspan x="177.46" y="0">e</tspan></text><text class="cls-3" transform="translate(302.36 223.73)">100 GiB</text><text class="cls-3" transform="translate(276.05 275.71)">Un<tspan class="cls-12" x="31.46" y="0">f</tspan><tspan x="39.54" y="0">orma</tspan><tspan class="cls-15" x="98.47" y="0">t</tspan><tspan class="cls-12" x="107.11" y="0">t</tspan><tspan x="115.87" y="0">ed</tspan></text><rect class="cls-8" x="542.86" y="134.46" width="218.34" height="175" rx="30.08"/><text class="cls-3" transform="translate(585.51 178.08)">Boot d<tspan class="cls-9" x="74.23" y="0">e</tspan><tspan x="87.9" y="0">vi</tspan><tspan class="cls-10" x="106.63" y="0">c</tspan><tspan x="119.18" y="0">e</tspan></text><text class="cls-3" transform="translate(613.72 228.58)">10 GiB</text><text class="cls-3" transform="translate(626.84 280.57)"><tspan class="cls-11">e</tspan><tspan x="13.56" y="0">xt4</tspan></text><rect class="cls-8" x="780.44" y="133.85" width="218.34" height="175" rx="30.08"/><text class="cls-3" transform="translate(793.95 177.47)">Boot<tspan class="cls-16" x="53.63" y="0">s</tspan><tspan x="65.75" y="0">t</tspan><tspan class="cls-17" x="74.61" y="0">r</tspan><tspan x="83.78" y="0">ap d</tspan><tspan class="cls-13" x="132.51" y="0">e</tspan><tspan x="146.17" y="0">vi</tspan><tspan class="cls-14" x="164.91" y="0">c</tspan><tspan x="177.45" y="0">e</tspan></text><text class="cls-3" transform="translate(843.73 227.97)">100 GiB</text><text class="cls-3" transform="translate(817.42 279.96)">Un<tspan class="cls-17" x="31.46" y="0">f</tspan><tspan x="39.54" y="0">orma</tspan><tspan class="cls-18" x="98.47" y="0">t</tspan><tspan class="cls-17" x="107.11" y="0">t</tspan><tspan x="115.87" y="0">ed</tspan></text><rect class="cls-19" x="1016.61" y="129.61" width="218.34" height="175" rx="30.08"/><text class="cls-3" transform="translate(1033.41 173.23)">Se<tspan class="cls-20" x="28.53" y="0">r</tspan><tspan x="38.05" y="0">vi</tspan><tspan class="cls-14" x="56.79" y="0">c</tspan><tspan x="69.33" y="0">e </tspan><tspan class="cls-21" x="89.16" y="0">s</tspan><tspan class="cls-22" x="101.28" y="0">t</tspan><tspan x="110.04" y="0">o</tspan><tspan class="cls-17" x="124.18" y="0">r</tspan><tspan x="133.34" y="0">a</tspan><tspan class="cls-14" x="146.83" y="0">g</tspan><tspan class="cls-23" x="160.01" y="0">e</tspan><tspan x="173.37" y="0">*</tspan></text><text class="cls-3" transform="translate(1065.95 223.73)">As needed</text><rect class="cls-19" x="1249.8" y="129.61" width="218.34" height="175" rx="30.08"/><text class="cls-3" transform="translate(1266.61 173.23)">Se<tspan class="cls-20" x="28.53" y="0">r</tspan><tspan x="38.05" y="0">vi</tspan><tspan class="cls-14" x="56.79" y="0">c</tspan><tspan x="69.33" y="0">e </tspan><tspan class="cls-21" x="89.16" y="0">s</tspan><tspan class="cls-22" x="101.28" y="0">t</tspan><tspan x="110.04" y="0">o</tspan><tspan class="cls-17" x="124.18" y="0">r</tspan><tspan x="133.34" y="0">a</tspan><tspan class="cls-14" x="146.83" y="0">g</tspan><tspan class="cls-23" x="160.01" y="0">e</tspan><tspan x="173.37" y="0">*</tspan></text><text class="cls-3" transform="translate(1299.14 223.73)">As needed</text><text class="cls-3" transform="translate(858.66 75.08)">Ho<tspan class="cls-16" x="31.99" y="0">s</tspan><tspan x="44.11" y="0">t a</tspan><tspan class="cls-14" x="72.42" y="0">s</tspan><tspan x="84.56" y="0">signed </tspan><tspan class="cls-17" x="165.31" y="0">t</tspan><tspan x="174.07" y="0">o a se</tspan><tspan class="cls-20" x="239.77" y="0">r</tspan><tspan x="249.29" y="0">vi</tspan><tspan class="cls-14" x="268.03" y="0">c</tspan><tspan x="280.58" y="0">e</tspan></text><g id="data--base-2" data-name="data--base"><path d="M834.2,44.05H810.44a3,3,0,0,0-3,3V79.69a3,3,0,0,0,3,3H834.2a3,3,0,0,0,3-3V47A3,3,0,0,0,834.2,44.05Zm0,3v8.91H810.44V47ZM810.44,67.81V58.9H834.2v8.91Zm0,11.88V70.78H834.2v8.91Z"/><circle cx="814.26" cy="51.18" r="1.49"/><circle cx="814.26" cy="63.06" r="1.49"/><circle cx="814.26" cy="74.95" r="1.49"/><rect id="_Transparent_Rectangle_2" data-name=" Transparent Rectangle " class="cls-7" x="798.55" y="39.59" width="47.53" height="47.53"/></g></svg>