<?xml version="1.0" encoding="UTF-8"?>
<svg xmlns="http://www.w3.org/2000/svg" width="1080" height="608" xmlns:xlink="http://www.w3.org/1999/xlink" version="1.1" viewBox="0 0 1080 608">
  <defs>
    <style>
      .cls-1, .cls-2, .cls-3, .cls-4, .cls-5, .cls-6, .cls-7 {
        fill: none;
      }

      .cls-1, .cls-4 {
        stroke: #0f62fe;
      }

      .cls-2, .cls-4 {
        stroke-width: 4px;
      }

      .cls-2, .cls-7 {
        stroke: #8d8d8d;
      }

      .cls-8 {
        clip-path: url(#clippath);
      }

      .cls-3, .cls-9, .cls-10, .cls-11, .cls-12, .cls-13, .cls-14, .cls-15, .cls-16, .cls-17, .cls-18, .cls-19, .cls-20, .cls-21 {
        stroke-width: 0px;
      }

      .cls-22 {
        mask: url(#mask);
      }

      .cls-9 {
        fill: #edf5ff;
      }

      .cls-10 {
        fill: #8d8d8d;
      }

      .cls-11 {
        fill: #f4f4f4;
      }

      .cls-12, .cls-15 {
        mix-blend-mode: multiply;
      }

      .cls-12, .cls-15, .cls-23 {
        isolation: isolate;
      }

      .cls-12, .cls-15, .cls-19 {
        fill: #fff;
      }

      .cls-24 {
        clip-path: url(#clippath-1);
      }

      .cls-25 {
        clip-path: url(#clippath-4);
      }

      .cls-26 {
        clip-path: url(#clippath-3);
      }

      .cls-27 {
        clip-path: url(#clippath-2);
      }

      .cls-28 {
        clip-path: url(#clippath-7);
      }

      .cls-29 {
        clip-path: url(#clippath-8);
      }

      .cls-30 {
        clip-path: url(#clippath-6);
      }

      .cls-31 {
        clip-path: url(#clippath-5);
      }

      .cls-32 {
        clip-path: url(#clippath-9);
      }

      .cls-13 {
        fill: #000;
      }

      .cls-14 {
        fill: #fddc69;
      }

      .cls-33 {
        clip-path: url(#clippath-10);
      }

      .cls-15 {
        fill-opacity: 0;
      }

      .cls-5 {
        stroke: #f4f4f4;
      }

      .cls-16 {
        fill: #0f62fe;
      }

      .cls-6 {
        stroke: #697077;
      }

      .cls-17 {
        fill: #393939;
      }

      .cls-18 {
        fill-rule: evenodd;
      }

      .cls-18, .cls-20 {
        fill: #525252;
      }

      .cls-34 {
        mask: url(#mask-1);
      }

      .cls-21 {
        fill: #697077;
      }
    </style>
    <clipPath id="clippath">
      <rect class="cls-3" x="48" y="48" width="384" height="48"/>
    </clipPath>
    <clipPath id="clippath-1">
      <rect class="cls-3" x="64" y="60" width="24" height="24"/>
    </clipPath>
    <clipPath id="clippath-2">
      <rect class="cls-3" x="64" y="112" width="160" height="48"/>
    </clipPath>
    <clipPath id="clippath-3">
      <rect class="cls-3" x="256" y="112" width="160" height="48"/>
    </clipPath>
    <clipPath id="clippath-4">
      <rect class="cls-3" x="324" y="188" width="24" height="24"/>
    </clipPath>
    <clipPath id="clippath-5">
      <rect class="cls-3" x="568" y="48" width="287" height="48"/>
    </clipPath>
    <clipPath id="clippath-6">
      <rect class="cls-3" x="584" y="112" width="432" height="48"/>
    </clipPath>
    <clipPath id="clippath-7">
      <rect class="cls-3" x="600" y="176" width="176" height="48"/>
    </clipPath>
    <clipPath id="clippath-8">
      <rect class="cls-3" x="616" y="188" width="24" height="24"/>
    </clipPath>
    <clipPath id="clippath-9">
      <rect class="cls-3" x="616" y="240" width="144" height="84"/>
    </clipPath>
    <clipPath id="clippath-10">
      <rect class="cls-3" x="676" y="364" width="24" height="24"/>
    </clipPath>
    <mask id="mask" x="52" y="544" width="29" height="12" maskUnits="userSpaceOnUse">
      <g id="path-86-inside-1_4421_12182" data-name="path-86-inside-1 4421 12182">
        <path class="cls-19" d="M52,545h28v11h-28v-11Z"/>
      </g>
    </mask>
    <mask id="mask-1" x="50" y="546" width="29" height="13" maskUnits="userSpaceOnUse">
      <g id="path-88-inside-2_4421_12182" data-name="path-88-inside-2 4421 12182">
        <path class="cls-19" d="M50,547h28v12h-28v-12Z"/>
      </g>
    </mask>
  </defs>
  <g class="cls-23">
    <g id="Layer_1" data-name="Layer 1">
      <rect class="cls-11" width="1080" height="608"/>
      <rect class="cls-11" width="1080" height="608"/>
      <rect class="cls-15" x="48.5" y="48.5" width="383" height="463"/>
      <rect class="cls-1" x="48.5" y="48.5" width="383" height="463"/>
      <rect class="cls-19" x="49" y="49" width="382" height="462"/>
      <rect class="cls-9" x="49" y="49" width="382" height="462"/>
      <g class="cls-8">
        <g>
          <path class="cls-13" d="M109.2,77h-4.4v-1.5h1.3v-6.8h-1.3v-1.5h4.4v1.5h-1.3v6.8h1.3v1.5ZM111.2,77v-9.8h4.5c1.6,0,2.6,1,2.6,2.5s-.9,2-1.8,2.1h0c.9,0,2.1.7,2.1,2.4s-1.1,2.8-2.5,2.8h-5ZM113.1,72.8v2.6h2.6c.7,0,1.1-.4,1.1-1.1v-.5c0-.7-.4-1.1-1.1-1.1h-2.6ZM113.1,68.8v2.5h2.3c.7,0,1.1-.4,1.1-1v-.4c0-.7-.4-1-1.1-1h-2.3ZM120.7,77v-9.8h2.1l2.5,4.8h0l2.5-4.8h2v9.8h-1.8v-7h0l-.8,1.6-2,3.7-2-3.7-.8-1.6h0v7h-1.8ZM139.5,77.2c-2.6,0-4.2-1.7-4.2-5s1.6-5.1,4.2-5.1,2.9.7,3.6,2.3l-1.6.8c-.3-.9-.9-1.5-2-1.5s-2.3,1-2.3,2.7v1.5c0,1.7.9,2.6,2.3,2.6s1.8-.7,2.1-1.6l1.5.9c-.7,1.5-1.9,2.3-3.6,2.3ZM147.5,77h-1c-1.2,0-1.8-.6-1.8-1.8v-8.6h1.8v8.9h1v1.4ZM151.9,77.2c-2.1,0-3.4-1.5-3.4-3.8s1.3-3.8,3.4-3.8,3.4,1.5,3.4,3.8-1.3,3.8-3.4,3.8ZM151.9,75.7c.9,0,1.5-.6,1.5-1.7v-1.4c0-1.1-.6-1.7-1.5-1.7s-1.5.6-1.5,1.7v1.4c0,1.1.6,1.7,1.5,1.7ZM161.5,77v-1.2h0c-.3.7-.8,1.4-2,1.4s-2.3-1-2.3-2.9v-4.6h1.8v4.4c0,1,.4,1.6,1.2,1.6s1.4-.4,1.4-1.2v-4.8h1.8v7.3h-1.8ZM170,77v-1.2h0c-.3.8-1.1,1.4-2,1.4-1.8,0-2.9-1.4-2.9-3.8s1-3.8,2.9-3.8,1.8.5,2,1.4h0v-4.3h1.8v10.4h-1.8ZM168.5,75.7c.9,0,1.5-.4,1.5-1.2v-2.3c0-.7-.7-1.2-1.5-1.2s-1.6.7-1.6,1.7v1.3c0,1,.6,1.7,1.6,1.7Z"/>
          <g class="cls-24">
            <g>
              <rect class="cls-15" x="64" y="60" width="24" height="24"/>
              <path class="cls-13" d="M82.4,70.2c-.7-1.4-1.9-2.5-3.4-3.2-1.4-.7-3-.9-4.6-.5-1.5.3-2.9,1.2-4,2.3-1,1.2-1.7,2.7-1.8,4.3-1.3.1-2.5.8-3.3,1.8-.8,1-1.3,2.3-1.2,3.6,0,1.3.6,2.5,1.6,3.4.9.9,2.2,1.4,3.5,1.4h12c1.6,0,3.2-.6,4.4-1.7,1.2-1.1,2-2.6,2.1-4.3.1-1.6-.3-3.3-1.3-4.6-1-1.3-2.4-2.2-4-2.5ZM81.2,82.1h-12c-1,0-2-.4-2.7-1.1-.7-.7-1.2-1.6-1.2-2.6,0-1,.2-2,.9-2.8.6-.8,1.5-1.3,2.5-1.4,0,1,.4,2,.8,2.8,0,0,0,.1.1.2,0,0,.1,0,.2.1s.1,0,.2,0c0,0,.1,0,.2,0,0,0,.1,0,.2-.1,0,0,0-.1.1-.2,0,0,0-.1,0-.2,0,0,0-.1,0-.2-.7-1.4-.9-3-.5-4.5.4-1.5,1.4-2.8,2.7-3.7,1.3-.8,2.9-1.1,4.5-.8,1.5.3,2.9,1.2,3.8,2.5-.9,0-1.8.2-2.6.6-.8.4-1.5.9-2.1,1.6,0,0,0,.1-.1.2,0,0,0,.1,0,.2,0,0,0,.1,0,.2,0,0,0,.1.1.2,0,0,.1,0,.2.1,0,0,.1,0,.2,0,0,0,.1,0,.2,0,0,0,.1,0,.2-.1.6-.7,1.4-1.2,2.2-1.5.9-.3,1.8-.4,2.7-.3.9.1,1.7.5,2.5,1,.7.5,1.3,1.3,1.7,2.1.4.8.5,1.7.5,2.6,0,.9-.4,1.8-.9,2.5-.5.8-1.2,1.4-2,1.8-.8.4-1.7.7-2.6.7Z"/>
              <path class="cls-13" d="M87.9,67.7c0,0,0-.1-.1-.2,0,0-.1,0-.2,0,0,0-.1,0-.2,0,0,0-.1,0-.2,0l-2.3,1.3c0,0-.1,0-.2.1,0,0,0,.1-.1.2s0,.1,0,.2c0,0,0,.1,0,.2,0,0,0,.1.1.2s.1,0,.2,0c0,0,.1,0,.2,0,0,0,.1,0,.2,0l2.3-1.3c.1,0,.2-.2.3-.3s0-.3,0-.4Z"/>
              <path class="cls-13" d="M81,65.9c0,0,.1,0,.2,0,0,0,.1,0,.2,0,0,0,.1,0,.2,0,0,0,.1-.1.1-.2l1.3-2.3c0-.1,0-.3,0-.4,0-.1-.1-.3-.3-.3-.1,0-.3,0-.4,0s-.3.1-.3.3l-1.3,2.3c0,.1,0,.3,0,.4,0,.1.1.3.3.3Z"/>
              <path class="cls-13" d="M76,64.6c.2,0,.3,0,.4-.2.1-.1.2-.3.2-.4v-2.6c0,0,0-.1,0-.2,0,0,0-.1-.1-.2,0,0-.1,0-.2-.1,0,0-.1,0-.2,0s-.1,0-.2,0c0,0-.1,0-.2.1,0,0,0,.1-.1.2,0,0,0,.1,0,.2v2.6c0,.2,0,.3.2.4.1.1.3.2.4.2Z"/>
              <path class="cls-13" d="M70.2,65.7c0,.1.2.2.3.3.1,0,.3,0,.4,0,.1,0,.2-.2.3-.3,0-.1,0-.3,0-.4l-1.3-2.3c0,0,0-.1-.1-.2,0,0-.1,0-.2,0,0,0-.1,0-.2,0,0,0-.1,0-.2,0,0,0-.1,0-.2.1,0,0,0,.1,0,.2,0,0,0,.1,0,.2,0,0,0,.1,0,.2l1.3,2.3Z"/>
              <path class="cls-13" d="M67.1,68.8l-2.3-1.3c0,0-.1,0-.2,0,0,0-.2,0-.2,0,0,0-.1,0-.2,0s-.1.1-.1.2c0,0,0,.1,0,.2,0,0,0,.2,0,.2,0,0,0,.1,0,.2,0,0,.1.1.2.1l2.3,1.3c0,0,.1,0,.2,0,0,0,.2,0,.2,0,0,0,.1,0,.2,0,0,0,.1-.1.1-.2,0,0,0-.1,0-.2,0,0,0-.2,0-.2,0,0,0-.1,0-.2,0,0-.1-.1-.2-.1Z"/>
            </g>
          </g>
          <line class="cls-4" x1="50" y1="48" x2="50" y2="96"/>
        </g>
      </g>
      <rect class="cls-19" x="64.5" y="112.5" width="159" height="167"/>
      <rect class="cls-7" x="64.5" y="112.5" width="159" height="167"/>
      <rect class="cls-19" x="65" y="113" width="158" height="166"/>
      <g class="cls-27">
        <g>
          <path class="cls-13" d="M84.9,141.2c-2.6,0-4.2-1.7-4.2-5s1.6-5.1,4.2-5.1,2.9.7,3.6,2.3l-1.6.8c-.3-.9-.9-1.5-2-1.5s-2.3,1-2.3,2.7v1.5c0,1.7.9,2.6,2.3,2.6s1.8-.7,2.1-1.6l1.5.9c-.7,1.5-1.9,2.3-3.6,2.3ZM94.5,141v-1.2h0c-.3.7-.8,1.4-2,1.4s-2.3-1-2.3-2.9v-4.6h1.8v4.4c0,1,.4,1.6,1.2,1.6s1.4-.4,1.4-1.2v-4.8h1.8v7.3h-1.8ZM101,141.2c-1.4,0-2.3-.5-3-1.3l1.1-1.1c.5.6,1.2,1,2,1s1.2-.3,1.2-.8-.3-.7-.9-.8h-.7c-1.6-.3-2.4-1-2.4-2.3s1.1-2.3,2.8-2.3,2.2.4,2.9,1.1l-1.1,1.1c-.4-.4-1-.8-1.8-.8s-1.1.3-1.1.8.3.7,1,.8h.7c1.6.3,2.4,1,2.4,2.3s-1.2,2.4-3,2.4ZM107.9,141c-1.2,0-1.9-.7-1.9-1.9v-4h-1.1v-1.4h.6c.5,0,.7-.3.7-.8v-1.2h1.6v2h1.5v1.4h-1.5v4.5h1.4v1.4h-1.3ZM113.8,141.2c-2.1,0-3.4-1.5-3.4-3.8s1.3-3.8,3.4-3.8,3.4,1.5,3.4,3.8-1.3,3.8-3.4,3.8ZM113.8,139.7c.9,0,1.5-.6,1.5-1.7v-1.4c0-1.1-.6-1.7-1.5-1.7s-1.5.6-1.5,1.7v1.4c0,1.1.6,1.7,1.5,1.7ZM120.8,141h-1.8v-7.3h1.8v1.2h0c.3-.8.9-1.4,2-1.4s1.8.5,2.1,1.5h0c.3-.8,1.1-1.5,2.2-1.5s2.2,1,2.2,2.9v4.6h-1.8v-4.4c0-1.1-.4-1.6-1.2-1.6s-1.4.4-1.4,1.2v4.8h-1.8v-4.4c0-1.1-.4-1.6-1.2-1.6s-1.4.4-1.4,1.2v4.8ZM134.5,141.2c-2.2,0-3.4-1.5-3.4-3.8s1.2-3.8,3.4-3.8,3.3,1.7,3.3,3.7v.6h-4.9v.2c0,1.1.6,1.8,1.8,1.8s1.4-.4,1.9-1l1,1.1c-.6.8-1.7,1.3-3,1.3ZM134.5,134.9c-.9,0-1.6.7-1.6,1.7h0c0,.1,3,.1,3,.1h0c0-1.1-.5-1.8-1.4-1.8ZM141.3,141h-1.8v-7.3h1.8v1.5h0c.2-.8.8-1.5,1.9-1.5h.4v1.7h-.6c-1.2,0-1.8.3-1.8,1.1v4.5ZM150.5,141.2c-1.5,0-2.3-.9-2.3-2.2s1.1-2.2,3.1-2.2h1.2v-.5c0-.8-.4-1.3-1.4-1.3s-1.3.4-1.7.9l-1.1-1c.5-.8,1.4-1.4,2.9-1.4s3,.9,3,2.6v3.4h.7v1.4h-1c-.8,0-1.2-.5-1.4-1.3h0c-.2.9-1,1.4-2.1,1.4ZM151.1,139.9c.8,0,1.4-.4,1.4-1.1v-1h-1.1c-.9,0-1.4.3-1.4.9v.2c0,.6.4.9,1.1.9ZM159.5,141.2c-2.2,0-3.4-1.5-3.4-3.8s1.2-3.8,3.4-3.8,2.4.7,2.9,1.8l-1.5.7c-.2-.6-.6-1.1-1.4-1.1s-1.5.7-1.5,1.7v1.3c0,1,.5,1.7,1.5,1.7s1.3-.5,1.5-1.1l1.4.7c-.5,1.3-1.5,1.9-2.9,1.9ZM166.8,141.2c-2.2,0-3.4-1.5-3.4-3.8s1.2-3.8,3.4-3.8,2.4.7,2.9,1.8l-1.5.7c-.2-.6-.6-1.1-1.4-1.1s-1.5.7-1.5,1.7v1.3c0,1,.5,1.7,1.5,1.7s1.3-.5,1.5-1.1l1.4.7c-.5,1.3-1.5,1.9-2.9,1.9ZM174.1,141.2c-2.1,0-3.4-1.5-3.4-3.8s1.3-3.8,3.4-3.8,3.4,1.5,3.4,3.8-1.3,3.8-3.4,3.8ZM174.1,139.7c.9,0,1.5-.6,1.5-1.7v-1.4c0-1.1-.6-1.7-1.5-1.7s-1.5.6-1.5,1.7v1.4c0,1.1.6,1.7,1.5,1.7ZM183.6,141v-1.2h0c-.3.7-.8,1.4-2,1.4s-2.3-1-2.3-2.9v-4.6h1.8v4.4c0,1,.4,1.6,1.2,1.6s1.4-.4,1.4-1.2v-4.8h1.8v7.3h-1.8ZM189.4,141h-1.8v-7.3h1.8v1.2h0c.3-.8.9-1.4,2-1.4s2.3,1,2.3,2.9v4.6h-1.8v-4.4c0-1-.4-1.6-1.2-1.6s-1.5.4-1.5,1.2v4.8ZM198.3,141c-1.2,0-1.9-.7-1.9-1.9v-4h-1.1v-1.4h.6c.5,0,.7-.3.7-.8v-1.2h1.6v2h1.5v1.4h-1.5v4.5h1.4v1.4h-1.3Z"/>
          <line class="cls-2" x1="66" y1="112" x2="66" y2="160"/>
        </g>
      </g>
      <rect class="cls-15" x="106.5" y="176" width="75" height="92"/>
      <rect class="cls-11" x="120.5" y="176.5" width="47" height="47"/>
      <rect class="cls-7" x="120.5" y="176.5" width="47" height="47"/>
      <path class="cls-19" d="M121,177h46v46h-46v-46Z"/>
      <path class="cls-11" d="M121,177h46v46h-46v-46Z"/>
      <path class="cls-13" d="M151.4,197.8c-.3-1.7-1.2-3.3-2.6-4.4-1.3-1.1-3-1.7-4.8-1.7v1.5c1.4,0,2.7.5,3.8,1.4,1.1.9,1.8,2.1,2.1,3.5l.2,1,1,.2c1,.2,1.9.7,2.5,1.6.6.8.9,1.8.8,2.9s-.6,2-1.3,2.7c-.8.7-1.8,1.1-2.8,1.1h-6.4v1.5h6.4c1.4,0,2.8-.5,3.8-1.5,1-.9,1.7-2.3,1.8-3.6.1-1.4-.3-2.8-1.1-3.9-.9-1.1-2.1-1.9-3.5-2.1Z"/>
      <path class="cls-13" d="M142.5,206h-4.5v1.5h4.5v-1.5Z"/>
      <path class="cls-13" d="M136.5,206h-1.5v1.5h1.5v-1.5Z"/>
      <path class="cls-13" d="M142.5,203h-6v1.5h6v-1.5Z"/>
      <path class="cls-13" d="M135,203h-1.5v1.5h1.5v-1.5Z"/>
      <path class="cls-13" d="M142.5,200h-4.5v1.5h4.5v-1.5Z"/>
      <path class="cls-13" d="M136.5,200h-1.5v1.5h1.5v-1.5Z"/>
      <path class="cls-13" d="M142.5,197h-3v1.5h3v-1.5Z"/>
      <path class="cls-13" d="M138,197h-1.5v1.5h1.5v-1.5Z"/>
      <path class="cls-13" d="M142.5,194h-1.5v1.5h1.5v-1.5Z"/>
      <path class="cls-13" d="M116.9,246.2c-2.6,0-4.2-1.7-4.2-5s1.6-5.1,4.2-5.1,2.9.7,3.6,2.3l-1.6.8c-.3-.9-.9-1.5-2-1.5s-2.3,1-2.3,2.7v1.5c0,1.7.9,2.6,2.3,2.6s1.8-.7,2.1-1.6l1.5.9c-.7,1.5-1.9,2.3-3.6,2.3ZM126.5,246v-1.2h0c-.3.7-.8,1.4-2,1.4s-2.3-1-2.3-2.9v-4.6h1.8v4.4c0,1,.4,1.6,1.2,1.6s1.4-.4,1.4-1.2v-4.8h1.8v7.3h-1.8ZM133,246.2c-1.4,0-2.3-.5-3-1.3l1.1-1.1c.5.6,1.2,1,2,1s1.2-.3,1.2-.8-.3-.7-.9-.8h-.7c-1.6-.3-2.4-1-2.4-2.3s1.1-2.3,2.8-2.3,2.2.4,2.9,1.1l-1,1.1c-.4-.4-1-.8-1.8-.8s-1.1.3-1.1.8.3.7,1,.8h.7c1.6.3,2.4,1,2.4,2.3s-1.2,2.4-3,2.4ZM139.9,246c-1.2,0-1.9-.7-1.9-1.9v-4h-1.1v-1.4h.6c.5,0,.7-.3.7-.8v-1.2h1.6v2h1.5v1.4h-1.5v4.5h1.4v1.4h-1.3ZM145.8,246.2c-2.1,0-3.4-1.5-3.4-3.8s1.3-3.8,3.4-3.8,3.4,1.5,3.4,3.8-1.3,3.8-3.4,3.8ZM145.8,244.7c.9,0,1.5-.6,1.5-1.7v-1.4c0-1.1-.6-1.7-1.5-1.7s-1.5.6-1.5,1.7v1.4c0,1.1.6,1.7,1.5,1.7ZM152.8,246h-1.8v-7.3h1.8v1.2h0c.3-.8.9-1.4,2-1.4s1.8.5,2.1,1.5h0c.3-.8,1.1-1.5,2.2-1.5s2.2,1,2.2,2.9v4.6h-1.8v-4.4c0-1.1-.4-1.6-1.2-1.6s-1.4.4-1.4,1.2v4.8h-1.8v-4.4c0-1.1-.4-1.6-1.2-1.6s-1.4.4-1.4,1.2v4.8ZM166.5,246.2c-2.2,0-3.4-1.5-3.4-3.8s1.2-3.8,3.4-3.8,3.3,1.7,3.3,3.7v.6h-4.9v.2c0,1.1.6,1.8,1.8,1.8s1.4-.4,1.9-1l1,1.1c-.6.8-1.7,1.3-3,1.3ZM166.5,239.9c-.9,0-1.6.7-1.6,1.7h0c0,.1,3,.1,3,.1h0c0-1.1-.5-1.8-1.4-1.8ZM173.3,246h-1.8v-7.3h1.8v1.5h0c.2-.8.8-1.5,1.9-1.5h.4v1.7h-.6c-1.2,0-1.8.3-1.8,1.1v4.5ZM109.7,264.2c-1.5,0-2.3-.9-2.3-2.2s1.1-2.2,3.1-2.2h1.2v-.5c0-.8-.4-1.3-1.4-1.3s-1.3.4-1.7.9l-1.1-1c.5-.8,1.4-1.4,2.9-1.4s3,.9,3,2.6v3.4h.7v1.4h-1c-.8,0-1.2-.5-1.4-1.3h0c-.2.9-1,1.4-2.1,1.4ZM110.3,262.9c.8,0,1.4-.4,1.4-1v-1h-1.1c-.9,0-1.4.3-1.4.9v.2c0,.6.4.9,1.1.9ZM115.8,266.8v-10.1h1.8v1.2h0c.3-.8,1.1-1.4,2-1.4,1.8,0,2.9,1.4,2.9,3.8s-1,3.8-2.9,3.8-1.7-.6-2-1.4h0v4h-1.8ZM119.1,262.7c.9,0,1.6-.7,1.6-1.7v-1.3c0-1-.6-1.7-1.6-1.7s-1.5.5-1.5,1.2v2.3c0,.8.6,1.2,1.5,1.2ZM124.4,266.8v-10.1h1.8v1.2h0c.3-.8,1.1-1.4,2-1.4,1.8,0,2.9,1.4,2.9,3.8s-1,3.8-2.9,3.8-1.7-.6-2-1.4h0v4h-1.8ZM127.7,262.7c.9,0,1.6-.7,1.6-1.7v-1.3c0-1-.6-1.7-1.6-1.7s-1.5.5-1.5,1.2v2.3c0,.8.6,1.2,1.5,1.2ZM135.7,264h-1c-1.2,0-1.8-.6-1.8-1.8v-8.6h1.8v8.9h1v1.4ZM138.1,255.6c-.7,0-1.1-.4-1.1-.9v-.3c0-.5.3-.9,1.1-.9s1.1.4,1.1.9v.3c0,.5-.3.9-1.1.9ZM137.2,264v-7.3h1.8v7.3h-1.8ZM144.1,264.2c-2.2,0-3.4-1.5-3.4-3.8s1.2-3.8,3.4-3.8,2.4.7,2.9,1.8l-1.5.7c-.2-.6-.6-1.1-1.4-1.1s-1.5.7-1.5,1.7v1.3c0,1,.5,1.7,1.5,1.7s1.3-.5,1.5-1.1l1.4.7c-.5,1.3-1.5,1.9-2.9,1.9ZM150.4,264.2c-1.5,0-2.3-.9-2.3-2.2s1.1-2.2,3.1-2.2h1.2v-.5c0-.8-.4-1.3-1.4-1.3s-1.3.4-1.7.9l-1.1-1c.5-.8,1.4-1.4,2.9-1.4s3,.9,3,2.6v3.4h.7v1.4h-1c-.8,0-1.2-.5-1.4-1.3h0c-.2.9-1,1.4-2.1,1.4ZM151,262.9c.8,0,1.4-.4,1.4-1v-1h-1.1c-.9,0-1.4.3-1.4.9v.2c0,.6.4.9,1.1.9ZM158.8,264c-1.2,0-1.9-.7-1.9-1.9v-4h-1.1v-1.4h.6c.5,0,.7-.3.7-.8v-1.2h1.6v2h1.5v1.4h-1.5v4.5h1.4v1.4h-1.3ZM162.8,255.6c-.7,0-1-.4-1-.9v-.3c0-.5.3-.9,1-.9s1.1.4,1.1.9v.3c0,.5-.3.9-1.1.9ZM161.9,264v-7.3h1.8v7.3h-1.8ZM168.8,264.2c-2.1,0-3.4-1.5-3.4-3.8s1.3-3.8,3.4-3.8,3.4,1.5,3.4,3.8-1.3,3.8-3.4,3.8ZM168.8,262.7c.9,0,1.5-.6,1.5-1.7v-1.4c0-1.1-.6-1.7-1.5-1.7s-1.5.6-1.5,1.7v1.4c0,1.1.6,1.7,1.5,1.7ZM175.8,264h-1.8v-7.3h1.8v1.2h0c.3-.8.9-1.4,2-1.4s2.3,1,2.3,2.9v4.6h-1.8v-4.4c0-1-.4-1.6-1.2-1.6s-1.5.4-1.5,1.2v4.8Z"/>
      <rect class="cls-19" x="256.5" y="112.5" width="159" height="167"/>
      <rect class="cls-1" x="256.5" y="112.5" width="159" height="167"/>
      <rect class="cls-19" x="257" y="113" width="158" height="166"/>
      <g class="cls-26">
        <path class="cls-13" d="M316.2,141.2c-1.7,0-2.8-.7-3.6-1.6l1.2-1.2c.7.8,1.5,1.2,2.5,1.2s1.7-.5,1.7-1.4-.3-1.1-1.3-1.2h-.9c-2-.4-2.9-1.4-2.9-3s1.4-2.9,3.5-2.9,2.6.5,3.3,1.4l-1.3,1.2c-.5-.6-1.1-1-2.2-1s-1.6.4-1.6,1.1.4,1.1,1.4,1.2l.9.2c2,.3,2.9,1.2,2.9,2.8s-1.3,3.1-3.7,3.1ZM323.6,141.2c-1.5,0-2.3-.9-2.3-2.2s1.1-2.2,3.1-2.2h1.2v-.5c0-.8-.4-1.3-1.4-1.3s-1.3.4-1.7.9l-1.1-1c.5-.8,1.4-1.4,2.9-1.4s3,.9,3,2.6v3.4h.7v1.4h-1c-.8,0-1.2-.5-1.4-1.3h0c-.2.9-1,1.4-2.1,1.4ZM324.2,139.9c.8,0,1.4-.4,1.4-1.1v-1h-1.1c-.9,0-1.4.3-1.4.9v.2c0,.6.4.9,1.1.9ZM332,141c-1.2,0-1.9-.7-1.9-1.9v-4h-1.1v-1.4h.6c.5,0,.7-.3.7-.8v-1.2h1.6v2h1.5v1.4h-1.5v4.5h1.4v1.4h-1.3ZM338,141.2c-2.2,0-3.4-1.5-3.4-3.8s1.2-3.8,3.4-3.8,3.3,1.7,3.3,3.7v.6h-4.9v.2c0,1.1.6,1.8,1.8,1.8s1.4-.4,1.9-1l1,1.1c-.6.8-1.7,1.3-3,1.3ZM337.9,134.9c-.9,0-1.6.7-1.6,1.7h0c0,.1,3,.1,3,.1h0c0-1.1-.5-1.8-1.4-1.8ZM345.7,141h-1c-1.2,0-1.8-.6-1.8-1.8v-8.6h1.8v8.9h1v1.4ZM349.9,141h-1c-1.2,0-1.8-.6-1.8-1.8v-8.6h1.8v8.9h1v1.4ZM352.3,132.6c-.7,0-1-.4-1-.9v-.3c0-.5.3-.9,1-.9s1.1.4,1.1.9v.3c0,.5-.3.9-1.1.9ZM351.4,141v-7.3h1.8v7.3h-1.8ZM357.8,141c-1.2,0-1.9-.7-1.9-1.9v-4h-1.1v-1.4h.6c.5,0,.7-.3.7-.8v-1.2h1.6v2h1.5v1.4h-1.5v4.5h1.4v1.4h-1.3ZM363.8,141.2c-2.2,0-3.4-1.5-3.4-3.8s1.2-3.8,3.4-3.8,3.3,1.7,3.3,3.7v.6h-4.9v.2c0,1.1.6,1.8,1.8,1.8s1.4-.4,1.9-1l1,1.1c-.6.8-1.7,1.3-3,1.3ZM363.7,134.9c-.9,0-1.6.7-1.6,1.7h0c0,.1,3,.1,3,.1h0c0-1.1-.5-1.8-1.4-1.8Z"/>
        <rect class="cls-15" x="272" y="124" width="24" height="24"/>
        <path class="cls-13" d="M278.8,140.5c.8,0,1.5-.7,1.5-1.5s-.7-1.5-1.5-1.5-1.5.7-1.5,1.5.7,1.5,1.5,1.5Z"/>
        <path class="cls-13" d="M284,139c-.6,0-1.2-.2-1.7-.5-.5-.3-.9-.8-1.1-1.3-.2-.5-.3-1.2-.2-1.7.1-.6.4-1.1.8-1.5.4-.4,1-.7,1.5-.8.6-.1,1.2,0,1.7.2.5.2,1,.6,1.3,1.1.3.5.5,1.1.5,1.7,0,.8-.3,1.6-.9,2.1-.6.6-1.3.9-2.1.9ZM284,134.5c-.3,0-.6,0-.8.3-.2.2-.4.4-.6.7-.1.3-.1.6,0,.9,0,.3.2.6.4.8.2.2.5.4.8.4.3,0,.6,0,.9,0,.3-.1.5-.3.7-.6.2-.2.3-.5.3-.8,0-.4-.2-.8-.4-1.1-.3-.3-.7-.4-1.1-.4Z"/>
        <path class="cls-13" d="M289.2,134.5c.8,0,1.5-.7,1.5-1.5s-.7-1.5-1.5-1.5-1.5.7-1.5,1.5.7,1.5,1.5,1.5Z"/>
        <path class="cls-13" d="M284,147.2c-.1,0-.3,0-.4-.1l-9-5.2c-.1,0-.2-.2-.3-.3,0-.1-.1-.2-.1-.4v-10.5c0-.1,0-.3.1-.4,0-.1.2-.2.3-.3l9-5.3c.1,0,.2-.1.4-.1s.3,0,.4.1l9,5.3-.8,1.3-8.6-5-8.2,4.8v9.6l8.2,4.8,8.2-4.8v-5.6h1.5v6c0,.1,0,.3-.1.4,0,.1-.2.2-.3.3l-9,5.2c-.1,0-.2.1-.4.1Z"/>
        <line class="cls-4" x1="258" y1="112" x2="258" y2="160"/>
      </g>
      <rect class="cls-15" x="291.5" y="176" width="89" height="92"/>
      <rect class="cls-9" x="312.5" y="176.5" width="47" height="47"/>
      <rect class="cls-1" x="312.5" y="176.5" width="47" height="47"/>
      <path class="cls-19" d="M313,177h46v46h-46v-46Z"/>
      <path class="cls-9" d="M313,177h46v46h-46v-46Z"/>
      <g class="cls-25">
        <g>
          <rect class="cls-15" x="324" y="188" width="24" height="24"/>
          <path class="cls-13" d="M347.2,206.7l-3.8,3.8c-.5.5-1.2.8-1.9.8s-1.4-.3-1.9-.8c-.5-.5-.8-1.2-.8-1.9,0-.7.3-1.4.8-1.9l1.1,1.1c-.2.2-.3.5-.3.8s.1.6.3.8.5.3.8.3.6-.1.8-.3l3.8-3.8c.2-.2.3-.5.3-.8s-.1-.6-.3-.8-.5-.3-.8-.3-.6.1-.8.3l-1.1-1.1c.5-.5,1.2-.8,1.9-.8s1.4.3,1.9.8c.5.5.8,1.2.8,1.9,0,.7-.3,1.4-.8,1.9Z"/>
          <path class="cls-13" d="M339,203.8l-3.8,3.8c-.5.5-.8,1.2-.8,1.9,0,.7.3,1.4.8,1.9.5.5,1.2.8,1.9.8s1.4-.3,1.9-.8l-1.1-1.1c-.2.2-.5.3-.8.3s-.6-.1-.8-.3-.3-.5-.3-.8.1-.6.3-.8l3.8-3.8c.2-.2.5-.3.8-.3s.6.1.8.3.3.5.3.8-.1.6-.3.8l1.1,1.1c.5-.5.8-1.2.8-1.9,0-.7-.3-1.4-.8-1.9-.5-.5-1.2-.8-1.9-.8s-1.4.3-1.9.8Z"/>
          <path class="cls-13" d="M329.2,204.5c.8,0,1.5-.7,1.5-1.5s-.7-1.5-1.5-1.5-1.5.7-1.5,1.5.7,1.5,1.5,1.5Z"/>
          <path class="cls-13" d="M334.5,203c-.6,0-1.2-.2-1.7-.5-.5-.3-.9-.8-1.1-1.3-.2-.5-.3-1.2-.2-1.7.1-.6.4-1.1.8-1.5.4-.4,1-.7,1.5-.8.6-.1,1.2,0,1.7.2.5.2,1,.6,1.3,1.1.3.5.5,1.1.5,1.7,0,.8-.3,1.6-.9,2.1-.6.6-1.3.9-2.1.9ZM334.5,198.5c-.3,0-.6,0-.8.3-.2.2-.4.4-.6.7-.1.3-.1.6,0,.9,0,.3.2.6.4.8.2.2.5.4.8.4.3,0,.6,0,.9,0,.3-.1.5-.3.7-.6.2-.2.3-.5.3-.8,0-.4-.2-.8-.4-1.1-.3-.3-.7-.4-1.1-.4Z"/>
          <path class="cls-13" d="M339.8,198.5c.8,0,1.5-.7,1.5-1.5s-.7-1.5-1.5-1.5-1.5.7-1.5,1.5.7,1.5,1.5,1.5Z"/>
          <path class="cls-13" d="M332.5,208.5l-6.2-3.6v-9.6l8.2-4.8,8.6,5,.8-1.3-9-5.2c-.1,0-.2-.1-.4-.1s-.3,0-.4.1l-9,5.2c-.1,0-.2.2-.3.3,0,.1-.1.2-.1.4v10.5c0,.1,0,.3.1.4,0,.1.2.2.3.3l6.6,3.9.8-1.3Z"/>
        </g>
      </g>
      <path class="cls-13" d="M306.9,246.2c-2.6,0-4.2-1.7-4.2-5s1.6-5.1,4.2-5.1,2.9.7,3.6,2.3l-1.6.8c-.3-.9-.9-1.5-2-1.5s-2.3,1-2.3,2.7v1.5c0,1.7.9,2.6,2.3,2.6s1.8-.7,2.1-1.6l1.5.9c-.7,1.5-1.9,2.3-3.6,2.3ZM315,246.2c-2.1,0-3.4-1.5-3.4-3.8s1.3-3.8,3.4-3.8,3.4,1.5,3.4,3.8-1.3,3.8-3.4,3.8ZM315,244.7c.9,0,1.5-.6,1.5-1.7v-1.4c0-1.1-.6-1.7-1.5-1.7s-1.5.6-1.5,1.7v1.4c0,1.1.6,1.7,1.5,1.7ZM321.9,246h-1.8v-7.3h1.8v1.2h0c.3-.8.9-1.4,2-1.4s2.3,1,2.3,2.9v4.6h-1.8v-4.4c0-1-.4-1.6-1.2-1.6s-1.5.4-1.5,1.2v4.8ZM330.3,246h-1.8v-7.3h1.8v1.2h0c.3-.8.9-1.4,2-1.4s2.3,1,2.3,2.9v4.6h-1.8v-4.4c0-1-.4-1.6-1.2-1.6s-1.5.4-1.5,1.2v4.8ZM339.9,246.2c-2.2,0-3.4-1.5-3.4-3.8s1.2-3.8,3.4-3.8,3.3,1.7,3.3,3.7v.6h-4.9v.2c0,1.1.6,1.8,1.8,1.8s1.4-.4,1.9-1l1,1.1c-.6.8-1.7,1.3-3,1.3ZM339.9,239.9c-.9,0-1.6.7-1.6,1.7h0c0,.1,3,.1,3,.1h0c0-1.1-.5-1.8-1.4-1.8ZM347.8,246.2c-2.2,0-3.4-1.5-3.4-3.8s1.2-3.8,3.4-3.8,2.4.7,2.9,1.8l-1.5.7c-.2-.6-.6-1.1-1.4-1.1s-1.5.7-1.5,1.7v1.3c0,1,.5,1.7,1.5,1.7s1.3-.5,1.5-1.1l1.4.7c-.5,1.3-1.5,1.9-2.9,1.9ZM354.5,246c-1.2,0-1.9-.7-1.9-1.9v-4h-1.1v-1.4h.6c.5,0,.7-.3.7-.8v-1.2h1.6v2h1.5v1.4h-1.5v4.5h1.4v1.4h-1.3ZM360.5,246.2c-2.1,0-3.4-1.5-3.4-3.8s1.3-3.8,3.4-3.8,3.4,1.5,3.4,3.8-1.3,3.8-3.4,3.8ZM360.5,244.7c.9,0,1.5-.6,1.5-1.7v-1.4c0-1.1-.6-1.7-1.5-1.7s-1.5.6-1.5,1.7v1.4c0,1.1.6,1.7,1.5,1.7ZM367.4,246h-1.8v-7.3h1.8v1.5h0c.2-.8.8-1.5,1.9-1.5h.4v1.7h-.6c-1.2,0-1.8.3-1.8,1.1v4.5ZM295.3,264c-1.2,0-1.9-.7-1.9-1.9v-4h-1.1v-1.4h.6c.5,0,.7-.3.7-.8v-1.2h1.6v2h1.5v1.4h-1.5v4.5h1.4v1.4h-1.3ZM302.8,264v-1.2h0c-.3.7-.8,1.4-2,1.4s-2.3-1-2.3-2.9v-4.6h1.8v4.4c0,1,.4,1.6,1.2,1.6s1.4-.4,1.4-1.2v-4.8h1.8v7.3h-1.8ZM308.6,264h-1.8v-7.3h1.8v1.2h0c.3-.8.9-1.4,2-1.4s2.3,1,2.3,2.9v4.6h-1.8v-4.4c0-1-.4-1.6-1.2-1.6s-1.5.4-1.5,1.2v4.8ZM317,264h-1.8v-7.3h1.8v1.2h0c.3-.8.9-1.4,2-1.4s2.3,1,2.3,2.9v4.6h-1.8v-4.4c0-1-.4-1.6-1.2-1.6s-1.5.4-1.5,1.2v4.8ZM326.6,264.2c-2.2,0-3.4-1.5-3.4-3.8s1.2-3.8,3.4-3.8,3.3,1.7,3.3,3.7v.6h-4.9v.2c0,1,.6,1.8,1.8,1.8s1.4-.4,1.9-1l1,1.1c-.6.8-1.7,1.3-3,1.3ZM326.5,257.9c-.9,0-1.6.7-1.6,1.7h0c0,.1,3,.1,3,.1h0c0-1.1-.5-1.8-1.4-1.8ZM334.3,264h-1c-1.2,0-1.8-.6-1.8-1.8v-8.6h1.8v8.9h1v1.4ZM341.7,264.2c-1.4,0-2.3-.5-3-1.3l1.1-1.1c.5.6,1.2,1,2,1s1.2-.3,1.2-.8-.3-.7-.9-.8h-.7c-1.6-.3-2.4-1-2.4-2.3s1.1-2.3,2.8-2.3,2.2.4,2.9,1.1l-1.1,1c-.4-.4-1-.8-1.8-.8s-1.1.3-1.1.8.3.7,1,.8h.7c1.6.3,2.4,1,2.4,2.3s-1.2,2.4-3,2.4ZM349.4,264.2c-2.2,0-3.4-1.5-3.4-3.8s1.2-3.8,3.4-3.8,3.3,1.7,3.3,3.7v.6h-4.9v.2c0,1,.6,1.8,1.8,1.8s1.4-.4,1.9-1l1,1.1c-.6.8-1.7,1.3-3,1.3ZM349.4,257.9c-.9,0-1.6.7-1.6,1.7h0c0,.1,3,.1,3,.1h0c0-1.1-.5-1.8-1.4-1.8ZM356.2,264h-1.8v-7.3h1.8v1.5h0c.2-.8.8-1.5,1.9-1.5h.4v1.7h-.6c-1.2,0-1.8.3-1.8,1.1v4.5ZM363.9,264h-2.1l-2.4-7.3h1.8l1,3.2.7,2.6h0l.7-2.6,1-3.2h1.7l-2.5,7.3ZM370.5,264.2c-2.2,0-3.4-1.5-3.4-3.8s1.2-3.8,3.4-3.8,3.3,1.7,3.3,3.7v.6h-4.9v.2c0,1,.6,1.8,1.8,1.8s1.4-.4,1.9-1l1,1.1c-.6.8-1.7,1.3-3,1.3ZM370.5,257.9c-.9,0-1.6.7-1.6,1.7h0c0,.1,3,.1,3,.1h0c0-1.1-.5-1.8-1.4-1.8ZM377.3,264h-1.8v-7.3h1.8v1.5h0c.2-.8.8-1.5,1.9-1.5h.4v1.7h-.6c-1.2,0-1.8.3-1.8,1.1v4.5Z"/>
      <path class="cls-18" d="M240.6,376c0,4.1,3.4,7.5,7.5,7.5h63.9v1h-63.9c-4.7,0-8.5-3.8-8.5-8.5v-160c0-4.7,3.8-8.5,8.5-8.5h58.9v-2.4l5,2.9-5,2.9v-2.4h-58.9c-4.1,0-7.5,3.4-7.5,7.5v160Z"/>
      <path class="cls-18" d="M307,189.1l5,2.9-5,2.9v-2.4h-139v-1h139v-2.4Z"/>
      <rect class="cls-15" x="64" y="448" width="101" height="48"/>
      <rect class="cls-7" x="64.5" y="448.5" width="47" height="47"/>
      <path class="cls-19" d="M65,449h46v46h-46v-46Z"/>
      <path class="cls-11" d="M65,449h46v46h-46v-46Z"/>
      <rect class="cls-15" x="76" y="460" width="24" height="24"/>
      <path class="cls-13" d="M97,472v4.5h-18v-12h9v-1.5h-9c-.4,0-.8.2-1.1.4-.3.3-.4.7-.4,1.1v12c0,.4.2.8.4,1.1.3.3.7.4,1.1.4h6v3h-3v1.5h12v-1.5h-3v-3h6c.4,0,.8-.2,1.1-.4.3-.3.4-.7.4-1.1v-4.5h-1.5ZM89.5,481h-3v-3h3v3Z"/>
      <path class="cls-13" d="M91.8,471.2l-3.8-3.7,1.2-1.2,2.6,2.5,5.6-5.5,1.2,1.2-6.8,6.7Z"/>
      <path class="cls-13" d="M125.2,468h-4.4v-1.5h1.3v-6.8h-1.3v-1.5h4.4v1.5h-1.3v6.8h1.3v1.5ZM127.2,468v-9.8h4.5c1.6,0,2.6,1,2.6,2.5s-.9,2-1.8,2.1h0c.9,0,2.1.7,2.1,2.4s-1.1,2.8-2.5,2.8h-5ZM129.1,463.8v2.6h2.6c.7,0,1.1-.4,1.1-1.1v-.5c0-.7-.4-1.1-1.1-1.1h-2.6ZM129.1,459.8v2.5h2.3c.7,0,1.1-.4,1.1-1v-.4c0-.7-.4-1-1.1-1h-2.3ZM136.7,468v-9.8h2.1l2.5,4.8h0l2.5-4.8h2v9.8h-1.8v-7h0l-.8,1.6-2,3.7-2-3.7-.8-1.6h0v7h-1.8ZM155.5,468.2c-2.6,0-4.2-1.7-4.2-5s1.6-5.1,4.2-5.1,2.9.7,3.6,2.3l-1.6.8c-.3-.9-.9-1.5-2-1.5s-2.3,1-2.3,2.7v1.5c0,1.7.9,2.6,2.3,2.6s1.8-.7,2.1-1.6l1.5.9c-.7,1.5-1.9,2.3-3.6,2.3ZM163.5,468h-1c-1.2,0-1.8-.6-1.8-1.8v-8.6h1.8v8.9h1v1.4ZM167.9,468.2c-2.1,0-3.4-1.5-3.4-3.8s1.3-3.8,3.4-3.8,3.4,1.5,3.4,3.8-1.3,3.8-3.4,3.8ZM167.9,466.7c.9,0,1.5-.6,1.5-1.7v-1.4c0-1.1-.6-1.7-1.5-1.7s-1.5.6-1.5,1.7v1.4c0,1.1.6,1.7,1.5,1.7ZM177.5,468v-1.2h0c-.3.7-.8,1.4-2,1.4s-2.3-1-2.3-2.9v-4.6h1.8v4.4c0,1,.4,1.6,1.2,1.6s1.4-.4,1.4-1.2v-4.8h1.8v7.3h-1.8ZM186,468v-1.2h0c-.3.8-1.1,1.4-2,1.4-1.8,0-2.9-1.4-2.9-3.8s1-3.8,2.9-3.8,1.8.5,2,1.4h0v-4.3h1.8v10.4h-1.8ZM184.5,466.7c.9,0,1.5-.4,1.5-1.2v-2.3c0-.7-.7-1.2-1.5-1.2s-1.6.7-1.6,1.7v1.3c0,1,.6,1.7,1.6,1.7ZM129.1,486h-1.9l-.8-2.5h-3.5l-.8,2.5h-1.9l3.3-9.8h2.3l3.2,9.8ZM126,481.9l-1.3-4h0l-1.2,4h2.6ZM133.5,486.2c-2.2,0-3.4-1.5-3.4-3.8s1.2-3.8,3.4-3.8,2.4.7,2.9,1.8l-1.5.7c-.2-.6-.6-1.1-1.4-1.1s-1.5.7-1.5,1.7v1.3c0,1,.5,1.7,1.5,1.7s1.3-.5,1.5-1.1l1.4.7c-.5,1.3-1.5,1.9-2.9,1.9ZM140.2,486c-1.2,0-1.9-.7-1.9-1.9v-4h-1.1v-1.4h.6c.5,0,.7-.3.7-.8v-1.2h1.6v2h1.5v1.4h-1.5v4.5h1.4v1.4h-1.3ZM144.2,477.6c-.7,0-1-.4-1-.9v-.3c0-.5.3-.9,1-.9s1.1.4,1.1.9v.3c0,.5-.3.9-1.1.9ZM143.3,486v-7.3h1.8v7.3h-1.8ZM151.1,486h-2.1l-2.4-7.3h1.8l1,3.2.7,2.6h0l.7-2.6,1-3.2h1.7l-2.4,7.3ZM155.8,477.6c-.7,0-1.1-.4-1.1-.9v-.3c0-.5.3-.9,1.1-.9s1.1.4,1.1.9v.3c0,.5-.3.9-1.1.9ZM154.9,486v-7.3h1.8v7.3h-1.8ZM161.2,486c-1.2,0-1.9-.7-1.9-1.9v-4h-1.1v-1.4h.6c.5,0,.7-.3.7-.8v-1.2h1.6v2h1.5v1.4h-1.5v4.5h1.4v1.4h-1.3ZM167.5,482.6l1.3-3.9h1.7l-2.9,8.6c-.4,1-.9,1.5-2.1,1.5h-1.1v-1.4h1.3l.3-1-2.6-7.7h1.8l1.3,3.9.5,1.8h0l.5-1.8ZM182,477.9h-2.8v8.1h-1.8v-8.1h-2.8v-1.6h7.4v1.6ZM184.7,486h-1.8v-7.3h1.8v1.5h0c.2-.8.8-1.5,1.9-1.5h.4v1.7h-.6c-1.2,0-1.8.3-1.8,1.1v4.5ZM190.2,486.2c-1.5,0-2.3-.9-2.3-2.2s1.1-2.2,3.1-2.2h1.2v-.5c0-.8-.4-1.3-1.4-1.3s-1.3.4-1.7.9l-1.1-1c.5-.8,1.4-1.4,2.9-1.4s3,.9,3,2.6v3.4h.7v1.4h-1c-.8,0-1.2-.5-1.4-1.3h0c-.2.9-1,1.4-2.1,1.4ZM190.8,484.9c.8,0,1.4-.4,1.4-1v-1h-1.1c-.9,0-1.4.3-1.4.9v.2c0,.6.4.9,1.1.9ZM199.3,486.2c-2.2,0-3.4-1.5-3.4-3.8s1.2-3.8,3.4-3.8,2.4.7,2.9,1.8l-1.5.7c-.2-.6-.6-1.1-1.4-1.1s-1.5.7-1.5,1.7v1.3c0,1,.5,1.7,1.5,1.7s1.3-.5,1.5-1.1l1.4.7c-.5,1.3-1.5,1.9-2.9,1.9ZM203.7,486v-10.4h1.8v6.2h0l1-1.3,1.6-1.9h2l-2.5,2.8,2.8,4.5h-2.1l-1.9-3.3-1,1v2.2h-1.8ZM214.4,486.2c-2.2,0-3.4-1.5-3.4-3.8s1.2-3.8,3.4-3.8,3.3,1.7,3.3,3.7v.6h-4.9v.2c0,1,.6,1.8,1.8,1.8s1.4-.4,1.9-1l1,1.1c-.6.8-1.7,1.3-3,1.3ZM214.3,479.9c-.9,0-1.6.7-1.6,1.7h0c0,.1,3,.1,3,.1h0c0-1.1-.5-1.8-1.4-1.8ZM221.2,486h-1.8v-7.3h1.8v1.5h0c.2-.8.8-1.5,1.9-1.5h.4v1.7h-.6c-1.2,0-1.8.3-1.8,1.1v4.5Z"/>
      <rect class="cls-15" x="301.5" y="360" width="69" height="92"/>
      <rect class="cls-16" x="312" y="360" width="48" height="48"/>
      <rect class="cls-15" x="324" y="372" width="24" height="24"/>
      <path class="cls-19" d="M334.5,390c-.2,0-.3,0-.5-.2-.1,0-.2-.2-.3-.4l-1.3-4.7h-2.4v-1.5h3c.2,0,.3,0,.5.2.1,0,.2.2.3.4l.8,2.7,2.3-8c0-.2.1-.3.3-.4.1,0,.3-.2.5-.2s.3,0,.5.2c.1,0,.2.2.3.4l1.3,4.7h2.4v1.5h-3c-.2,0-.3,0-.5-.2-.1,0-.2-.2-.3-.4l-.8-2.7-2.3,8c0,.2-.1.3-.3.4-.1,0-.3.2-.5.2Z"/>
      <path class="cls-19" d="M336,395.2c-.1,0-.3,0-.4-.1l-9-5.2c-.1,0-.2-.2-.3-.3,0-.1-.1-.2-.1-.4v-10.5c0-.1,0-.3.1-.4,0-.1.2-.2.3-.3l9-5.2c.1,0,.2-.1.4-.1s.3,0,.4.1l9,5.2-.8,1.3-8.6-5-8.2,4.8v9.6l8.2,4.8,8.2-4.8v-5.6h1.5v6c0,.1,0,.3-.1.4,0,.1-.2.2-.3.3l-9,5.2c-.1,0-.2.1-.4.1Z"/>
      <path class="cls-13" d="M306.8,430h-4.4v-1.5h1.3v-6.8h-1.3v-1.5h4.4v1.5h-1.3v6.8h1.3v1.5ZM308.8,430v-9.8h4.5c1.6,0,2.6,1,2.6,2.5s-.9,2-1.8,2.1h0c.9,0,2.1.7,2.1,2.4s-1.1,2.8-2.5,2.8h-5ZM310.7,425.8v2.6h2.6c.7,0,1.1-.4,1.1-1.1v-.5c0-.7-.4-1.1-1.1-1.1h-2.6ZM310.7,421.8v2.5h2.3c.7,0,1.1-.4,1.1-1v-.4c0-.7-.4-1-1.1-1h-2.3ZM318.3,430v-9.8h2.1l2.5,4.8h0l2.5-4.8h2v9.8h-1.8v-7h0l-.8,1.6-2,3.7-2-3.7-.8-1.6h0v7h-1.8ZM337.1,430.2c-2.6,0-4.2-1.7-4.2-5s1.6-5.1,4.2-5.1,2.9.7,3.6,2.3l-1.6.8c-.3-.9-.9-1.5-2-1.5s-2.3,1-2.3,2.7v1.5c0,1.7.9,2.6,2.3,2.6s1.8-.7,2.1-1.6l1.5.9c-.7,1.5-1.9,2.3-3.6,2.3ZM345.1,430h-1c-1.2,0-1.8-.6-1.8-1.8v-8.6h1.8v8.9h1v1.4ZM349.5,430.2c-2.1,0-3.4-1.5-3.4-3.8s1.3-3.8,3.4-3.8,3.4,1.5,3.4,3.8-1.3,3.8-3.4,3.8ZM349.5,428.7c.9,0,1.5-.6,1.5-1.7v-1.4c0-1.1-.6-1.7-1.5-1.7s-1.5.6-1.5,1.7v1.4c0,1.1.6,1.7,1.5,1.7ZM359,430v-1.2h0c-.3.7-.8,1.4-2,1.4s-2.3-1-2.3-2.9v-4.6h1.8v4.4c0,1,.4,1.6,1.2,1.6s1.4-.4,1.4-1.2v-4.8h1.8v7.3h-1.8ZM367.6,430v-1.2h0c-.3.8-1,1.4-2,1.4-1.8,0-2.9-1.4-2.9-3.8s1-3.8,2.9-3.8,1.8.5,2,1.4h0v-4.3h1.8v10.4h-1.8ZM366.1,428.7c.9,0,1.5-.4,1.5-1.2v-2.3c0-.7-.7-1.2-1.5-1.2s-1.6.7-1.6,1.7v1.3c0,1,.6,1.7,1.6,1.7ZM312.1,448.2c-1.4,0-2.3-.5-3-1.3l1.1-1.1c.5.6,1.2,1,2,1s1.2-.3,1.2-.8-.3-.7-.9-.8h-.7c-1.6-.3-2.4-1-2.4-2.3s1.1-2.3,2.8-2.3,2.2.4,2.9,1.1l-1,1c-.4-.4-1-.8-1.8-.8s-1.1.3-1.1.8.3.7,1,.8h.7c1.6.3,2.4,1,2.4,2.3s-1.2,2.4-3,2.4ZM319.8,448.2c-2.2,0-3.4-1.5-3.4-3.8s1.2-3.8,3.4-3.8,3.3,1.7,3.3,3.7v.6h-4.9v.2c0,1,.6,1.8,1.8,1.8s1.4-.4,1.9-1l1,1.1c-.6.8-1.7,1.3-3,1.3ZM319.8,441.9c-.9,0-1.6.7-1.6,1.7h0c0,.1,3,.1,3,.1h0c0-1.1-.5-1.8-1.4-1.8ZM326.6,448h-1.8v-7.3h1.8v1.5h0c.2-.8.8-1.5,1.9-1.5h.4v1.7h-.6c-1.2,0-1.8.3-1.8,1.1v4.5ZM334.3,448h-2.1l-2.4-7.3h1.8l1,3.2.7,2.6h0l.7-2.6,1-3.2h1.7l-2.4,7.3ZM339,439.6c-.7,0-1-.4-1-.9v-.3c0-.5.3-.9,1-.9s1,.4,1,.9v.3c0,.5-.3.9-1,.9ZM338.1,448v-7.3h1.8v7.3h-1.8ZM345,448.2c-2.2,0-3.4-1.5-3.4-3.8s1.2-3.8,3.4-3.8,2.4.7,2.9,1.8l-1.5.7c-.2-.6-.6-1.1-1.4-1.1s-1.5.7-1.5,1.7v1.3c0,1,.5,1.7,1.5,1.7s1.3-.5,1.5-1.1l1.4.7c-.5,1.3-1.5,1.9-2.9,1.9ZM352.4,448.2c-2.2,0-3.4-1.5-3.4-3.8s1.2-3.8,3.4-3.8,3.3,1.7,3.3,3.7v.6h-4.9v.2c0,1,.6,1.8,1.8,1.8s1.4-.4,1.9-1l1,1.1c-.6.8-1.7,1.3-3,1.3ZM352.3,441.9c-.9,0-1.6.7-1.6,1.7h0c0,.1,3,.1,3,.1h0c0-1.1-.5-1.8-1.4-1.8ZM359.8,448.2c-1.4,0-2.3-.5-3-1.3l1.1-1.1c.5.6,1.2,1,2,1s1.2-.3,1.2-.8-.3-.7-.9-.8h-.7c-1.6-.3-2.4-1-2.4-2.3s1.1-2.3,2.8-2.3,2.2.4,2.9,1.1l-1,1c-.4-.4-1-.8-1.8-.8s-1.1.3-1.1.8.3.7,1,.8h.7c1.6.3,2.4,1,2.4,2.3s-1.2,2.4-3,2.4Z"/>
      <rect class="cls-15" x="64" y="384" width="101" height="48"/>
      <rect class="cls-7" x="64.5" y="384.5" width="47" height="47"/>
      <path class="cls-19" d="M65,385h46v46h-46v-46Z"/>
      <path class="cls-11" d="M65,385h46v46h-46v-46Z"/>
      <rect class="cls-15" x="76" y="396" width="24" height="24"/>
      <path class="cls-13" d="M97,408v4.5h-18v-12h8.2v-1.5h-8.2c-.4,0-.8.2-1.1.4-.3.3-.4.7-.4,1.1v12c0,.4.2.8.4,1.1.3.3.7.4,1.1.4h6v3h-3v1.5h12v-1.5h-3v-3h6c.4,0,.8-.2,1.1-.4.3-.3.4-.7.4-1.1v-4.5h-1.5ZM89.5,417h-3v-3h3v3Z"/>
      <path class="cls-13" d="M98.5,399h-9v1.5h9v-1.5Z"/>
      <path class="cls-13" d="M98.5,402h-9v1.5h9v-1.5Z"/>
      <path class="cls-13" d="M94,405h-4.5v1.5h4.5v-1.5Z"/>
      <path class="cls-13" d="M125.2,404h-4.4v-1.5h1.3v-6.8h-1.3v-1.5h4.4v1.5h-1.3v6.8h1.3v1.5ZM127.2,404v-9.8h4.5c1.6,0,2.6,1,2.6,2.5s-.9,2-1.8,2.1h0c.9,0,2.1.7,2.1,2.4s-1.1,2.8-2.5,2.8h-5ZM129.1,399.8v2.6h2.6c.7,0,1.1-.4,1.1-1.1v-.5c0-.7-.4-1.1-1.1-1.1h-2.6ZM129.1,395.8v2.5h2.3c.7,0,1.1-.4,1.1-1v-.4c0-.7-.4-1-1.1-1h-2.3ZM136.7,404v-9.8h2.1l2.5,4.8h0l2.5-4.8h2v9.8h-1.8v-7h0l-.8,1.6-2,3.7-2-3.7-.8-1.6h0v7h-1.8ZM157.4,404h-5.7v-9.8h1.8v8.1h3.9v1.6ZM161.8,404.2c-2.1,0-3.4-1.5-3.4-3.8s1.3-3.8,3.4-3.8,3.4,1.5,3.4,3.8-1.3,3.8-3.4,3.8ZM161.8,402.7c.9,0,1.5-.6,1.5-1.7v-1.4c0-1.1-.6-1.7-1.5-1.7s-1.5.6-1.5,1.7v1.4c0,1.1.6,1.7,1.5,1.7ZM173.6,404.6c0,1.5-1,2.4-3.8,2.4s-3.4-.6-3.4-1.7.5-1.3,1.3-1.4v-.2c-.6-.2-.9-.6-.9-1.2s.6-1.1,1.3-1.3h0c-.9-.5-1.3-1.2-1.3-2.2,0-1.5,1.1-2.5,3-2.5s.9,0,1.3.2v-.2c0-.7.4-1.1,1-1.1h1.1v1.4h-1.6v.2c.8.4,1.1,1.1,1.1,2,0,1.5-1,2.4-3,2.4s-.8,0-1.1-.1c-.3.1-.5.3-.5.7s.3.5,1,.5h2c1.8,0,2.6.8,2.6,2.1ZM171.9,404.8c0-.5-.3-.7-1.2-.7h-2.5c-.3.2-.4.5-.4.8,0,.6.4.9,1.5.9h.9c1.2,0,1.7-.3,1.7-.9ZM169.7,400.2c.9,0,1.3-.4,1.3-1.1v-.2c0-.7-.5-1.1-1.3-1.1s-1.3.4-1.3,1.1v.2c0,.7.5,1.1,1.3,1.1ZM129.1,422h-1.9l-.8-2.5h-3.5l-.8,2.5h-1.9l3.3-9.8h2.3l3.2,9.8ZM126,417.9l-1.3-4h0l-1.2,4h2.6ZM132.4,422h-1.8v-7.3h1.8v1.2h0c.3-.8.9-1.4,2-1.4s2.3,1,2.3,2.9v4.6h-1.8v-4.4c0-1-.4-1.6-1.2-1.6s-1.5.4-1.5,1.2v4.8ZM140.8,422.2c-1.5,0-2.3-.9-2.3-2.2s1.1-2.2,3.1-2.2h1.2v-.5c0-.8-.4-1.3-1.4-1.3s-1.3.4-1.7.9l-1.1-1c.5-.8,1.4-1.4,2.9-1.4s3,.9,3,2.6v3.4h.7v1.4h-1c-.8,0-1.2-.5-1.4-1.3h0c-.2.9-1,1.4-2.1,1.4ZM141.4,420.9c.8,0,1.4-.4,1.4-1v-1h-1.1c-.9,0-1.4.3-1.4.9v.2c0,.6.4.9,1.1.9ZM149.7,422h-1c-1.2,0-1.8-.6-1.8-1.8v-8.6h1.8v8.9h1v1.4ZM154.4,418.6l1.3-3.9h1.7l-2.9,8.6c-.4,1-.9,1.5-2.1,1.5h-1.1v-1.4h1.3l.3-1-2.6-7.7h1.8l1.3,3.9.5,1.8h0l.5-1.8ZM160.9,422.2c-1.4,0-2.3-.5-3-1.3l1.1-1.1c.5.6,1.2,1,2,1s1.2-.3,1.2-.8-.3-.7-.9-.8h-.7c-1.6-.3-2.4-1-2.4-2.3s1.1-2.3,2.8-2.3,2.2.4,2.9,1.1l-1.1,1c-.4-.4-1-.8-1.8-.8s-1.1.3-1.1.8.3.7,1,.8h.7c1.6.3,2.4,1,2.4,2.3s-1.2,2.4-3,2.4ZM166.6,413.6c-.7,0-1.1-.4-1.1-.9v-.3c0-.5.3-.9,1.1-.9s1,.4,1,.9v.3c0,.5-.3.9-1,.9ZM165.7,422v-7.3h1.8v7.3h-1.8ZM172.1,422.2c-1.4,0-2.3-.5-3-1.3l1.1-1.1c.5.6,1.2,1,2,1s1.2-.3,1.2-.8-.3-.7-.9-.8h-.7c-1.6-.3-2.4-1-2.4-2.3s1.1-2.3,2.8-2.3,2.2.4,2.9,1.1l-1.1,1c-.4-.4-1-.8-1.8-.8s-1.1.3-1.1.8.3.7,1,.8h.7c1.6.3,2.4,1,2.4,2.3s-1.2,2.4-3,2.4Z"/>
      <rect class="cls-15" x="64" y="320" width="101" height="48"/>
      <rect class="cls-7" x="64.5" y="320.5" width="47" height="47"/>
      <path class="cls-19" d="M65,321h46v46h-46v-46Z"/>
      <path class="cls-11" d="M65,321h46v46h-46v-46Z"/>
      <rect class="cls-15" x="76" y="332" width="24" height="24"/>
      <path class="cls-13" d="M97,344v4.5h-18v-12h5.2v-1.5h-5.2c-.4,0-.8.2-1.1.4-.3.3-.4.7-.4,1.1v12c0,.4.2.8.4,1.1.3.3.7.4,1.1.4h6v3h-3v1.5h12v-1.5h-3v-3h6c.4,0,.8-.2,1.1-.4.3-.3.4-.7.4-1.1v-4.5h-1.5ZM89.5,353h-3v-3h3v3Z"/>
      <path class="cls-13" d="M89.5,345.5h0c-.2,0-.3,0-.4-.2-.1,0-.2-.2-.3-.4l-1.3-4.7h-3.2v-1.5h3.8c.2,0,.3,0,.5.2.1,0,.2.2.3.4l.8,2.8,2.3-7.3c0-.2.1-.3.3-.4.1,0,.3-.1.4-.1.2,0,.3,0,.4.1.1,0,.2.2.3.4l1.3,4h4v1.5h-4.5c-.2,0-.3,0-.4-.1s-.2-.2-.3-.4l-.8-2.3-2.3,7.5c0,.2-.1.3-.3.4-.1,0-.3.1-.4.1Z"/>
      <path class="cls-13" d="M125.2,340h-4.4v-1.5h1.3v-6.8h-1.3v-1.5h4.4v1.5h-1.3v6.8h1.3v1.5ZM127.2,340v-9.8h4.5c1.6,0,2.6,1,2.6,2.5s-.9,2-1.8,2.1h0c.9,0,2.1.7,2.1,2.4s-1.1,2.8-2.5,2.8h-5ZM129.1,335.8v2.6h2.6c.7,0,1.1-.4,1.1-1.1v-.5c0-.7-.4-1.1-1.1-1.1h-2.6ZM129.1,331.8v2.5h2.3c.7,0,1.1-.4,1.1-1v-.4c0-.7-.4-1-1.1-1h-2.3ZM136.7,340v-9.8h2.1l2.5,4.8h0l2.5-4.8h2v9.8h-1.8v-7h0l-.8,1.6-2,3.7-2-3.7-.8-1.6h0v7h-1.8ZM155.5,340.2c-2.6,0-4.2-1.7-4.2-5s1.6-5.1,4.2-5.1,2.9.7,3.6,2.3l-1.6.8c-.3-.9-.9-1.5-2-1.5s-2.3,1-2.3,2.7v1.5c0,1.7.9,2.6,2.3,2.6s1.8-.7,2.1-1.6l1.5.9c-.7,1.5-1.9,2.3-3.6,2.3ZM163.5,340h-1c-1.2,0-1.8-.6-1.8-1.8v-8.6h1.8v8.9h1v1.4ZM167.9,340.2c-2.1,0-3.4-1.5-3.4-3.8s1.3-3.8,3.4-3.8,3.4,1.5,3.4,3.8-1.3,3.8-3.4,3.8ZM167.9,338.7c.9,0,1.5-.6,1.5-1.7v-1.4c0-1.1-.6-1.7-1.5-1.7s-1.5.6-1.5,1.7v1.4c0,1.1.6,1.7,1.5,1.7ZM177.5,340v-1.2h0c-.3.7-.8,1.4-2,1.4s-2.3-1-2.3-2.9v-4.6h1.8v4.4c0,1,.4,1.6,1.2,1.6s1.4-.4,1.4-1.2v-4.8h1.8v7.3h-1.8ZM186,340v-1.2h0c-.3.8-1.1,1.4-2,1.4-1.8,0-2.9-1.4-2.9-3.8s1-3.8,2.9-3.8,1.8.5,2,1.4h0v-4.3h1.8v10.4h-1.8ZM184.5,338.7c.9,0,1.5-.4,1.5-1.2v-2.3c0-.7-.7-1.2-1.5-1.2s-1.6.7-1.6,1.7v1.3c0,1,.6,1.7,1.6,1.7ZM121.1,358v-9.8h2.1l2.5,4.8h0l2.5-4.8h2v9.8h-1.8v-7h0l-.8,1.6-2,3.7-2-3.7-.8-1.6h0v7h-1.8ZM135.5,358.2c-2.1,0-3.4-1.5-3.4-3.8s1.3-3.8,3.4-3.8,3.4,1.5,3.4,3.8-1.3,3.8-3.4,3.8ZM135.5,356.7c.9,0,1.5-.6,1.5-1.7v-1.4c0-1.1-.6-1.7-1.5-1.7s-1.5.6-1.5,1.7v1.4c0,1.1.6,1.7,1.5,1.7ZM142.5,358h-1.8v-7.3h1.8v1.2h0c.3-.8.9-1.4,2-1.4s2.3,1,2.3,2.9v4.6h-1.8v-4.4c0-1-.4-1.6-1.2-1.6s-1.5.4-1.5,1.2v4.8ZM150,349.6c-.7,0-1.1-.4-1.1-.9v-.3c0-.5.3-.9,1.1-.9s1.1.4,1.1.9v.3c0,.5-.3.9-1.1.9ZM149.1,358v-7.3h1.8v7.3h-1.8ZM155.4,358c-1.2,0-1.9-.7-1.9-1.9v-4h-1.1v-1.4h.6c.5,0,.7-.3.7-.8v-1.2h1.6v2h1.5v1.4h-1.5v4.5h1.4v1.4h-1.3ZM161.3,358.2c-2.1,0-3.4-1.5-3.4-3.8s1.3-3.8,3.4-3.8,3.4,1.5,3.4,3.8-1.3,3.8-3.4,3.8ZM161.3,356.7c.9,0,1.5-.6,1.5-1.7v-1.4c0-1.1-.6-1.7-1.5-1.7s-1.5.6-1.5,1.7v1.4c0,1.1.6,1.7,1.5,1.7ZM168.3,358h-1.8v-7.3h1.8v1.5h0c.2-.8.8-1.5,1.9-1.5h.4v1.7h-.6c-1.2,0-1.8.3-1.8,1.1v4.5ZM173,349.6c-.7,0-1.1-.4-1.1-.9v-.3c0-.5.3-.9,1.1-.9s1.1.4,1.1.9v.3c0,.5-.3.9-1.1.9ZM172.1,358v-7.3h1.8v7.3h-1.8ZM178,358h-1.8v-7.3h1.8v1.2h0c.3-.8.9-1.4,2-1.4s2.3,1,2.3,2.9v4.6h-1.8v-4.4c0-1-.3-1.6-1.2-1.6s-1.5.4-1.5,1.2v4.8ZM191.2,358.6c0,1.5-1,2.4-3.8,2.4s-3.4-.6-3.4-1.7.5-1.3,1.3-1.4v-.2c-.6-.2-.9-.6-.9-1.2s.6-1.1,1.3-1.3h0c-.9-.5-1.3-1.2-1.3-2.2,0-1.5,1-2.5,3-2.5s.9,0,1.3.2v-.2c0-.7.4-1.1,1-1.1h1.1v1.4h-1.6v.2c.8.4,1.1,1.1,1.1,2,0,1.5-1,2.4-3,2.4s-.8,0-1.1-.1c-.3.1-.5.3-.5.7s.3.5,1,.5h2c1.8,0,2.6.8,2.6,2.1ZM189.5,358.8c0-.5-.3-.7-1.2-.7h-2.5c-.3.2-.4.5-.4.8,0,.6.4.9,1.5.9h.9c1.2,0,1.7-.3,1.7-.9ZM187.3,354.2c.9,0,1.3-.4,1.3-1.1v-.2c0-.7-.5-1.1-1.3-1.1s-1.3.4-1.3,1.1v.2c0,.7.5,1.1,1.3,1.1Z"/>
      <rect class="cls-19" x="568.5" y="48.5" width="463" height="463"/>
      <rect class="cls-7" x="568.5" y="48.5" width="463" height="463"/>
      <rect class="cls-19" x="569" y="49" width="462" height="462"/>
      <g class="cls-31">
        <g>
          <path class="cls-13" d="M591.6,77h-6.4v-9.8h6.4v1.6h-4.6v2.4h4.1v1.6h-4.1v2.5h4.6v1.6ZM598,77v-1.2h0c-.3.8-1,1.4-2,1.4-1.8,0-2.9-1.4-2.9-3.8s1-3.8,2.9-3.8,1.8.5,2,1.4h0v-4.3h1.8v10.4h-1.8ZM596.5,75.7c.9,0,1.5-.4,1.5-1.2v-2.3c0-.7-.7-1.2-1.5-1.2s-1.6.7-1.6,1.7v1.3c0,1,.6,1.7,1.6,1.7ZM608.6,77.6c0,1.5-1,2.4-3.8,2.4s-3.4-.6-3.4-1.7.5-1.3,1.3-1.4v-.2c-.6-.2-.9-.6-.9-1.2s.6-1.1,1.3-1.3h0c-.9-.5-1.3-1.2-1.3-2.2,0-1.5,1-2.5,3-2.5s.9,0,1.3.2v-.2c0-.7.4-1.1,1-1.1h1.1v1.4h-1.6v.2c.8.4,1.1,1.1,1.1,2,0,1.5-1,2.5-3,2.5s-.8,0-1.1-.1c-.3.1-.5.3-.5.7s.3.5,1,.5h2c1.8,0,2.6.8,2.6,2.1ZM606.9,77.8c0-.5-.3-.7-1.2-.7h-2.5c-.3.2-.4.5-.4.8,0,.6.4.9,1.5.9h.9c1.2,0,1.7-.3,1.7-.9ZM604.8,73.2c.9,0,1.3-.4,1.3-1.1v-.2c0-.7-.5-1.1-1.3-1.1s-1.3.4-1.3,1.1v.2c0,.7.5,1.1,1.3,1.1ZM612.7,77.2c-2.2,0-3.4-1.5-3.4-3.8s1.2-3.8,3.4-3.8,3.3,1.7,3.3,3.7v.6h-4.9v.2c0,1.1.6,1.8,1.8,1.8s1.4-.4,1.9-1l1,1.1c-.6.8-1.7,1.3-3,1.3ZM612.6,70.9c-.9,0-1.6.7-1.6,1.7h0c0,.1,3,.1,3,.1h0c0-1.1-.5-1.8-1.4-1.8ZM618.5,74.8c.8,0,1.1.4,1.1,1v.3c0,1-.6,2.2-1.4,2.9h-1.3c.6-.6,1.1-1.2,1.3-1.9-.6,0-.8-.5-.8-1v-.3c0-.6.3-1,1.1-1ZM628.2,77.2c-2.1,0-3.4-1.5-3.4-3.8s1.3-3.8,3.4-3.8,3.4,1.5,3.4,3.8-1.3,3.8-3.4,3.8ZM628.2,75.7c.9,0,1.5-.6,1.5-1.7v-1.4c0-1.1-.6-1.7-1.5-1.7s-1.5.6-1.5,1.7v1.4c0,1.1.6,1.7,1.5,1.7ZM635.1,77h-1.8v-7.3h1.8v1.2h0c.3-.8.9-1.4,2-1.4s2.3,1,2.3,2.9v4.6h-1.8v-4.4c0-1-.4-1.6-1.2-1.6s-1.5.4-1.5,1.2v4.8ZM645.5,73.6h-4v-1.8h4v1.8ZM647.5,79.8v-10.1h1.8v1.2h0c.3-.8,1.1-1.4,2-1.4,1.8,0,2.9,1.4,2.9,3.8s-1,3.8-2.9,3.8-1.7-.6-2-1.4h0v4h-1.8ZM650.8,75.7c.9,0,1.6-.7,1.6-1.7v-1.3c0-1-.6-1.7-1.6-1.7s-1.5.5-1.5,1.2v2.3c0,.8.6,1.2,1.5,1.2ZM657.8,77h-1.8v-7.3h1.8v1.5h0c.2-.8.8-1.5,1.9-1.5h.4v1.7h-.6c-1.2,0-1.8.3-1.8,1.1v4.5ZM664.6,77.2c-2.2,0-3.4-1.5-3.4-3.8s1.2-3.8,3.4-3.8,3.3,1.7,3.3,3.7v.6h-4.9v.2c0,1.1.6,1.8,1.8,1.8s1.4-.4,1.9-1l1,1.1c-.6.8-1.7,1.3-3,1.3ZM664.6,70.9c-.9,0-1.6.7-1.6,1.7h0c0,.1,3,.1,3,.1h0c0-1.1-.5-1.8-1.4-1.8ZM671.4,77h-1.8v-7.3h1.8v1.2h0c.3-.8.9-1.4,2-1.4s1.8.5,2.1,1.5h0c.3-.8,1.1-1.5,2.2-1.5s2.2,1,2.2,2.9v4.6h-1.8v-4.4c0-1-.4-1.6-1.2-1.6s-1.4.4-1.4,1.2v4.8h-1.8v-4.4c0-1-.4-1.6-1.2-1.6s-1.4.4-1.4,1.2v4.8ZM683.2,74.8c.8,0,1.1.4,1.1,1v.3c0,1-.6,2.2-1.4,2.9h-1.3c.6-.6,1.1-1.2,1.3-1.9-.6,0-.8-.5-.8-1v-.3c0-.6.3-1,1.1-1ZM692.9,77.2c-2.1,0-3.4-1.5-3.4-3.8s1.3-3.8,3.4-3.8,3.4,1.5,3.4,3.8-1.3,3.8-3.4,3.8ZM692.9,75.7c.9,0,1.5-.6,1.5-1.7v-1.4c0-1.1-.6-1.7-1.5-1.7s-1.5.6-1.5,1.7v1.4c0,1.1.6,1.7,1.5,1.7ZM699.8,77h-1.8v-7.3h1.8v1.5h0c.2-.8.8-1.5,1.9-1.5h.4v1.7h-.6c-1.2,0-1.8.3-1.8,1.1v4.5ZM710,77.2c-2.2,0-3.4-1.5-3.4-3.8s1.2-3.8,3.4-3.8,2.4.7,2.9,1.8l-1.5.7c-.2-.6-.6-1.1-1.4-1.1s-1.5.7-1.5,1.7v1.3c0,1,.5,1.7,1.5,1.7s1.3-.5,1.5-1.1l1.4.7c-.5,1.3-1.5,1.9-2.9,1.9ZM717.3,77h-1c-1.2,0-1.8-.6-1.8-1.8v-8.6h1.8v8.9h1v1.4ZM721.7,77.2c-2.1,0-3.4-1.5-3.4-3.8s1.3-3.8,3.4-3.8,3.4,1.5,3.4,3.8-1.3,3.8-3.4,3.8ZM721.7,75.7c.9,0,1.5-.6,1.5-1.7v-1.4c0-1.1-.6-1.7-1.5-1.7s-1.5.6-1.5,1.7v1.4c0,1.1.6,1.7,1.5,1.7ZM731.2,77v-1.2h0c-.3.7-.8,1.4-2,1.4s-2.3-1-2.3-2.9v-4.6h1.8v4.4c0,1,.4,1.6,1.2,1.6s1.4-.4,1.4-1.2v-4.8h1.8v7.3h-1.8ZM739.8,77v-1.2h0c-.3.8-1,1.4-2,1.4-1.8,0-2.9-1.4-2.9-3.8s1-3.8,2.9-3.8,1.8.5,2,1.4h0v-4.3h1.8v10.4h-1.8ZM738.2,75.7c.9,0,1.5-.4,1.5-1.2v-2.3c0-.7-.7-1.2-1.5-1.2s-1.6.7-1.6,1.7v1.3c0,1,.6,1.7,1.6,1.7ZM748.1,68.6c-.7,0-1-.4-1-.9v-.3c0-.5.3-.9,1-.9s1,.4,1,.9v.3c0,.5-.3.9-1,.9ZM747.2,77v-7.3h1.8v7.3h-1.8ZM753.1,77h-1.8v-7.3h1.8v1.2h0c.3-.8.9-1.4,2-1.4s2.3,1,2.3,2.9v4.6h-1.8v-4.4c0-1-.4-1.6-1.2-1.6s-1.5.4-1.5,1.2v4.8ZM760,77v-5.9h-1.1v-1.4h1.1v-1.1c0-1.3.7-2,2-2h1.3v1.4h-1.5v1.6h1.5v1.4h-1.5v5.9h-1.8ZM766.5,77h-1.8v-7.3h1.8v1.5h0c.2-.8.8-1.5,1.9-1.5h.4v1.7h-.6c-1.2,0-1.8.3-1.8,1.1v4.5ZM772,77.2c-1.5,0-2.3-.9-2.3-2.2s1.1-2.2,3.1-2.2h1.2v-.5c0-.8-.4-1.3-1.4-1.3s-1.3.4-1.7.9l-1.1-1c.5-.8,1.4-1.4,2.9-1.4s3,.9,3,2.6v3.4h.7v1.4h-1c-.8,0-1.2-.5-1.4-1.3h0c-.2.9-1,1.4-2.1,1.4ZM772.6,75.9c.8,0,1.4-.4,1.4-1v-1h-1.1c-.9,0-1.4.3-1.4.9v.2c0,.6.4.9,1.1.9ZM780.6,77.2c-1.4,0-2.3-.5-3-1.3l1.1-1.1c.5.6,1.2,1,2,1s1.2-.3,1.2-.8-.3-.7-.9-.8h-.7c-1.6-.3-2.4-1-2.4-2.3s1.1-2.3,2.8-2.3,2.2.4,2.9,1.1l-1.1,1.1c-.4-.4-1-.8-1.8-.8s-1.1.3-1.1.8.3.7,1,.8h.7c1.6.3,2.4,1,2.4,2.3s-1.2,2.4-3,2.4ZM787.5,77c-1.2,0-1.9-.7-1.9-1.9v-4h-1.1v-1.4h.6c.5,0,.7-.3.7-.8v-1.2h1.6v2h1.5v1.4h-1.5v4.5h1.4v1.4h-1.3ZM792.4,77h-1.8v-7.3h1.8v1.5h0c.2-.8.8-1.5,1.9-1.5h.4v1.7h-.6c-1.2,0-1.8.3-1.8,1.1v4.5ZM800.7,77v-1.2h0c-.3.7-.8,1.4-2,1.4s-2.3-1-2.3-2.9v-4.6h1.8v4.4c0,1,.4,1.6,1.2,1.6s1.4-.4,1.4-1.2v-4.8h1.8v7.3h-1.8ZM807.6,77.2c-2.2,0-3.4-1.5-3.4-3.8s1.2-3.8,3.4-3.8,2.4.7,2.9,1.8l-1.5.7c-.2-.6-.6-1.1-1.4-1.1s-1.5.7-1.5,1.7v1.3c0,1,.5,1.7,1.5,1.7s1.3-.5,1.5-1.1l1.4.7c-.5,1.3-1.5,1.9-2.9,1.9ZM814.3,77c-1.2,0-1.9-.7-1.9-1.9v-4h-1.1v-1.4h.6c.5,0,.7-.3.7-.8v-1.2h1.6v2h1.5v1.4h-1.5v4.5h1.4v1.4h-1.3ZM821.8,77v-1.2h0c-.3.7-.8,1.4-2,1.4s-2.3-1-2.3-2.9v-4.6h1.8v4.4c0,1,.4,1.6,1.2,1.6s1.4-.4,1.4-1.2v-4.8h1.8v7.3h-1.8ZM827.6,77h-1.8v-7.3h1.8v1.5h0c.2-.8.8-1.5,1.9-1.5h.4v1.7h-.6c-1.2,0-1.8.3-1.8,1.1v4.5ZM834.3,77.2c-2.2,0-3.4-1.5-3.4-3.8s1.2-3.8,3.4-3.8,3.3,1.7,3.3,3.7v.6h-4.9v.2c0,1.1.6,1.8,1.8,1.8s1.4-.4,1.9-1l1,1.1c-.6.8-1.7,1.3-3,1.3ZM834.3,70.9c-.9,0-1.6.7-1.6,1.7h0c0,.1,3,.1,3,.1h0c0-1.1-.5-1.8-1.4-1.8Z"/>
          <line class="cls-2" x1="570" y1="48" x2="570" y2="96"/>
        </g>
      </g>
      <rect class="cls-11" x="584.5" y="112.5" width="431" height="383"/>
      <rect class="cls-7" x="584.5" y="112.5" width="431" height="383"/>
      <rect class="cls-19" x="585" y="113" width="430" height="382"/>
      <rect class="cls-11" x="585" y="113" width="430" height="382"/>
      <g class="cls-30">
        <g>
          <path class="cls-13" d="M647.6,132h-6.4v-9.8h6.4v1.6h-4.6v2.4h4.1v1.6h-4.1v2.5h4.6v1.6ZM651.4,132h-1.8v-7.3h1.8v1.2h0c.3-.8.9-1.4,2-1.4s2.3,1,2.3,2.9v4.6h-1.8v-4.4c0-1-.4-1.6-1.2-1.6s-1.5.4-1.5,1.2v4.8ZM660.3,132c-1.2,0-1.9-.7-1.9-1.9v-4h-1.1v-1.4h.6c.5,0,.7-.3.7-.8v-1.2h1.6v2h1.5v1.4h-1.5v4.5h1.4v1.4h-1.3ZM666.3,132.2c-2.2,0-3.4-1.5-3.4-3.8s1.2-3.8,3.4-3.8,3.3,1.7,3.3,3.7v.6h-4.9v.2c0,1.1.6,1.8,1.8,1.8s1.4-.4,1.9-1l1,1.1c-.6.8-1.7,1.3-3,1.3ZM666.2,125.9c-.9,0-1.6.7-1.6,1.7h0c0,.1,3,.1,3,.1h0c0-1.1-.5-1.8-1.4-1.8ZM673.1,132h-1.8v-7.3h1.8v1.5h0c.2-.8.8-1.5,1.9-1.5h.4v1.7h-.6c-1.2,0-1.8.3-1.8,1.1v4.5ZM676.9,134.8v-10.1h1.8v1.2h0c.3-.8,1-1.4,2-1.4,1.8,0,2.9,1.4,2.9,3.8s-1,3.8-2.9,3.8-1.7-.6-2-1.4h0v4h-1.8ZM680.2,130.7c.9,0,1.6-.7,1.6-1.7v-1.3c0-1-.6-1.7-1.6-1.7s-1.5.5-1.5,1.2v2.3c0,.8.6,1.2,1.5,1.2ZM687.3,132h-1.8v-7.3h1.8v1.5h0c.2-.8.8-1.5,1.9-1.5h.4v1.7h-.6c-1.2,0-1.8.3-1.8,1.1v4.5ZM692.1,123.6c-.7,0-1-.4-1-.9v-.3c0-.5.3-.9,1-.9s1,.4,1,.9v.3c0,.5-.3.9-1,.9ZM691.2,132v-7.3h1.8v7.3h-1.8ZM697.6,132.2c-1.4,0-2.3-.5-3-1.3l1.1-1.1c.5.6,1.2,1,2,1s1.2-.3,1.2-.8-.3-.7-.9-.8h-.7c-1.6-.3-2.4-1-2.4-2.3s1.1-2.3,2.8-2.3,2.2.4,2.9,1.1l-1,1.1c-.4-.4-1-.8-1.8-.8s-1.1.3-1.1.8.3.7,1,.8h.7c1.6.3,2.4,1,2.4,2.3s-1.2,2.4-3,2.4ZM705.3,132.2c-2.2,0-3.4-1.5-3.4-3.8s1.2-3.8,3.4-3.8,3.3,1.7,3.3,3.7v.6h-4.9v.2c0,1.1.6,1.8,1.8,1.8s1.4-.4,1.9-1l1,1.1c-.6.8-1.7,1.3-3,1.3ZM705.3,125.9c-.9,0-1.6.7-1.6,1.7h0c0,.1,3,.1,3,.1h0c0-1.1-.5-1.8-1.4-1.8ZM715.6,132h-1.8v-7.3h1.8v1.2h0c.3-.8.9-1.4,2-1.4s2.3,1,2.3,2.9v4.6h-1.8v-4.4c0-1-.3-1.6-1.2-1.6s-1.5.4-1.5,1.2v4.8ZM725.1,132.2c-2.2,0-3.4-1.5-3.4-3.8s1.2-3.8,3.4-3.8,3.3,1.7,3.3,3.7v.6h-4.9v.2c0,1.1.6,1.8,1.8,1.8s1.4-.4,1.9-1l1,1.1c-.6.8-1.7,1.3-3,1.3ZM725.1,125.9c-.9,0-1.6.7-1.6,1.7h0c0,.1,3,.1,3,.1h0c0-1.1-.5-1.8-1.4-1.8ZM732.4,132c-1.2,0-1.9-.7-1.9-1.9v-4h-1.1v-1.4h.6c.5,0,.7-.3.7-.8v-1.2h1.6v2h1.5v1.4h-1.5v4.5h1.4v1.4h-1.3ZM736.8,132l-2-7.3h1.7l.7,3,.6,2.5h0l.7-2.5.9-3h1.6l.9,3,.7,2.5h0l.6-2.5.7-3h1.7l-2,7.3h-1.9l-.9-3.2-.5-2h0l-.5,2-.9,3.2h-1.9ZM749.9,132.2c-2.1,0-3.4-1.5-3.4-3.8s1.3-3.8,3.4-3.8,3.4,1.5,3.4,3.8-1.3,3.8-3.4,3.8ZM749.9,130.7c.9,0,1.5-.6,1.5-1.7v-1.4c0-1.1-.6-1.7-1.5-1.7s-1.5.6-1.5,1.7v1.4c0,1.1.6,1.7,1.5,1.7ZM756.9,132h-1.8v-7.3h1.8v1.5h0c.2-.8.8-1.5,1.9-1.5h.4v1.7h-.6c-1.2,0-1.8.3-1.8,1.1v4.5ZM760.7,132v-10.4h1.8v6.2h0l1-1.3,1.6-1.9h2l-2.5,2.8,2.8,4.5h-2.1l-1.9-3.3-1,1.1v2.2h-1.8Z"/>
          <path class="cls-13" d="M644.7,150.2c-2.5,0-3.9-1.7-3.9-5s1.5-5.1,3.9-5.1,2.7.8,3.4,2.1l-1,.6c-.4-1-1.2-1.7-2.4-1.7s-2.7,1.3-2.7,3.3v1.5c0,2,1,3.2,2.7,3.2s2.1-.7,2.5-1.8l.9.6c-.6,1.4-1.8,2.2-3.4,2.2ZM654.5,150v-1.2h0c-.3.7-.8,1.3-2,1.3s-2.4-1-2.4-2.8v-4.6h1.1v4.4c0,1.3.6,1.9,1.7,1.9s1.8-.4,1.8-1.4v-5h1.1v7.2h-1.1ZM660.3,150.2c-1.3,0-2.2-.6-2.9-1.4l.8-.6c.6.7,1.2,1.1,2.1,1.1s1.5-.4,1.5-1.2-.3-1-1.3-1.1h-.6c-1.3-.3-2.3-.8-2.3-2.2s1.1-2.1,2.6-2.1,1.9.4,2.5,1.2l-.7.7c-.3-.4-.9-.9-1.9-.9s-1.4.4-1.4,1.1.5,1,1.4,1.1h.6c1.6.3,2.2,1,2.2,2.1s-1,2.3-2.7,2.3ZM668,150h-1.4c-.8,0-1.2-.5-1.2-1.2v-5.1h-1.2v-1h.7c.5,0,.6-.2.6-.7v-1.3h1v2h1.6v1h-1.6v5.3h1.5v1ZM672.8,150.2c-1.9,0-3.3-1.5-3.3-3.8s1.3-3.8,3.3-3.8,3.3,1.5,3.3,3.8-1.3,3.8-3.3,3.8ZM672.8,149.2c1.2,0,2.1-.7,2.1-2.3v-1c0-1.5-.9-2.3-2.1-2.3s-2.1.7-2.1,2.3v1c0,1.5.9,2.3,2.1,2.3ZM679.2,150h-1.1v-7.2h1.1v1.2h0c.3-.7.8-1.3,1.9-1.3s1.8.4,2.2,1.5h0c.3-.8,1-1.5,2.2-1.5s2.4,1,2.4,2.8v4.6h-1.1v-4.4c0-1.3-.5-1.9-1.6-1.9s-1.7.4-1.7,1.4v5h-1.1v-4.4c0-1.3-.5-1.9-1.6-1.9s-1.7.4-1.7,1.4v5ZM693.2,150.2c-2,0-3.2-1.5-3.2-3.8s1.3-3.8,3.2-3.8,3.1,1.5,3.1,3.5v.5h-5.2v.3c0,1.2.8,2.2,2.1,2.2s1.6-.4,2-1.2l.8.6c-.5,1-1.5,1.7-2.9,1.7ZM693.2,143.5c-1.2,0-2.1.9-2.1,2.2h0c0,0,4,0,4,0v-.2c0-1.3-.8-2.1-1.9-2.1ZM699.4,150h-1.1v-7.2h1.1v1.3h0c.3-.7.9-1.3,2.1-1.3h.4v1.1h-.7c-1.2,0-1.9.5-1.9,1.2v4.9ZM708.2,150h-1.1v-7.2h1.1v1.2h0c.3-.7.8-1.3,1.9-1.3s1.8.4,2.2,1.5h0c.3-.8,1-1.5,2.2-1.5s2.4,1,2.4,2.8v4.6h-1.1v-4.4c0-1.3-.5-1.9-1.6-1.9s-1.7.4-1.7,1.4v5h-1.1v-4.4c0-1.3-.5-1.9-1.6-1.9s-1.7.4-1.7,1.4v5ZM725.3,150h-.6c-.8,0-1.2-.5-1.2-1.2h0c-.3.9-1.1,1.3-2.1,1.3-1.5,0-2.4-.8-2.4-2.2s1-2.1,3.1-2.1h1.4v-.7c0-1-.6-1.6-1.7-1.6s-1.4.4-1.8,1.1l-.7-.6c.4-.8,1.3-1.4,2.6-1.4s2.8.9,2.8,2.4v4h.8v1ZM721.5,149.2c1.1,0,1.9-.6,1.9-1.3v-1.2h-1.5c-1.3,0-1.8.4-1.8,1.1v.3c0,.7.6,1.1,1.4,1.1ZM728.2,150h-1.1v-7.2h1.1v1.2h0c.3-.8,1-1.3,2-1.3s2.4,1,2.4,2.8v4.6h-1.1v-4.4c0-1.3-.6-1.9-1.6-1.9s-1.8.4-1.8,1.4v5ZM741.1,150h-.6c-.8,0-1.2-.5-1.2-1.2h0c-.3.9-1.1,1.3-2.1,1.3-1.5,0-2.4-.8-2.4-2.2s1-2.1,3.1-2.1h1.4v-.7c0-1-.6-1.6-1.7-1.6s-1.4.4-1.8,1.1l-.7-.6c.4-.8,1.3-1.4,2.6-1.4s2.8.9,2.8,2.4v4h.8v1ZM737.2,149.2c1.1,0,1.9-.6,1.9-1.3v-1.2h-1.5c-1.3,0-1.8.4-1.8,1.1v.3c0,.7.6,1.1,1.4,1.1ZM748.9,150.8c0,1.5-1.2,2.2-3.5,2.2s-3.2-.6-3.2-1.8.4-1.2,1.1-1.4v-.2c-.4-.2-.6-.5-.6-1,0-.7.5-1.1,1.2-1.3h0c-.9-.5-1.4-1.3-1.4-2.3,0-1.5,1.1-2.5,2.7-2.5s1,0,1.4.3h0c0-.7.2-1.1.8-1.1h1.1v1h-1.4v.5c.5.4.8,1.1.8,1.9,0,1.5-1.1,2.5-2.7,2.5s-.5,0-.7,0c-.5.1-1,.4-1,.8s.4.5,1.1.5h1.5c1.8,0,2.6.7,2.6,1.9ZM747.9,150.9c0-.6-.4-1-1.5-1h-2.4c-.5.2-.7.5-.7,1s.4,1.1,1.6,1.1h1c1.2,0,2-.4,2-1.2ZM745.4,146.7c1,0,1.6-.4,1.6-1.4v-.4c0-1-.6-1.4-1.6-1.4s-1.6.4-1.6,1.4v.4c0,1,.6,1.4,1.6,1.4ZM753,150.2c-2,0-3.2-1.5-3.2-3.8s1.3-3.8,3.2-3.8,3.1,1.5,3.1,3.5v.5h-5.2v.3c0,1.2.8,2.2,2.1,2.2s1.6-.4,2-1.2l.8.6c-.5,1-1.5,1.7-2.9,1.7ZM753,143.5c-1.2,0-2.1.9-2.1,2.2h0c0,0,4,0,4,0v-.2c0-1.3-.8-2.1-1.9-2.1ZM762.8,150v-1.2h0c-.4.9-1.1,1.3-2.1,1.3-1.8,0-2.9-1.5-2.9-3.8s1.1-3.8,2.9-3.8,1.7.4,2.1,1.3h0v-4.3h1.1v10.4h-1.1ZM760.9,149.2c1,0,1.9-.5,1.9-1.5v-2.7c0-.8-.8-1.4-1.9-1.4s-2,.9-2,2.2v1.2c0,1.3.8,2.2,2,2.2Z"/>
          <rect class="cls-15" x="600" y="124" width="24" height="24"/>
          <path class="cls-13" d="M619.3,131.5c-.3-1.7-1.3-3.2-2.6-4.3s-3-1.7-4.8-1.7-3.4.6-4.8,1.7c-1.3,1.1-2.2,2.7-2.6,4.4-1.4.2-2.6,1-3.5,2.1-.9,1.1-1.3,2.5-1.1,3.9.1,1.4.8,2.7,1.8,3.7,1,.9,2.4,1.5,3.8,1.5h.4v-1.5h-.4c-1.1,0-2.1-.4-2.9-1.2-.8-.7-1.2-1.8-1.3-2.8,0-1.1.3-2.1,1.1-2.9.7-.8,1.7-1.3,2.8-1.4h.6s0-.7,0-.7c.2-1.4.8-2.7,1.8-3.7,1-1,2.3-1.6,3.7-1.7,1.4-.1,2.8.3,3.9,1.1,1.1.8,2,2,2.3,3.4h1.5Z"/>
          <path class="cls-13" d="M621,133h-7.5c-.4,0-.8.2-1.1.4-.3.3-.4.7-.4,1.1v3h-3c-.4,0-.8.2-1.1.4-.3.3-.4.7-.4,1.1v7.5h15v-12c0-.4-.2-.8-.4-1.1-.3-.3-.7-.4-1.1-.4ZM609,145v-6h3v6h-3ZM621,145h-7.5v-10.5h7.5v10.5Z"/>
          <path class="cls-13" d="M616.5,136h-1.5v3h1.5v-3Z"/>
          <path class="cls-13" d="M619.5,136h-1.5v3h1.5v-3Z"/>
          <path class="cls-13" d="M616.5,140.5h-1.5v3h1.5v-3Z"/>
          <path class="cls-13" d="M619.5,140.5h-1.5v3h1.5v-3Z"/>
          <line class="cls-2" x1="586" y1="112" x2="586" y2="160"/>
        </g>
      </g>
      <rect class="cls-15" x="600.5" y="176.5" width="175" height="303"/>
      <rect class="cls-7" x="600.5" y="176.5" width="175" height="303"/>
      <rect class="cls-19" x="601" y="177" width="174" height="302"/>
      <g class="cls-28">
        <g>
          <path class="cls-13" d="M663.1,205v-4.1h-4.1v4.1h-1.8v-9.8h1.8v4h4.1v-4h1.8v9.8h-1.8ZM670.2,205.2c-2.1,0-3.4-1.5-3.4-3.8s1.3-3.8,3.4-3.8,3.4,1.5,3.4,3.8-1.3,3.8-3.4,3.8ZM670.2,203.7c.9,0,1.5-.6,1.5-1.7v-1.4c0-1.1-.6-1.7-1.5-1.7s-1.5.6-1.5,1.7v1.4c0,1.1.6,1.7,1.5,1.7ZM677.7,205.2c-1.4,0-2.3-.5-3-1.3l1.1-1.1c.5.6,1.2,1,2,1s1.2-.3,1.2-.8-.3-.7-.9-.8h-.7c-1.6-.3-2.4-1-2.4-2.3s1.1-2.3,2.8-2.3,2.2.4,2.9,1.1l-1,1.1c-.4-.4-1-.8-1.8-.8s-1.1.3-1.1.8.3.7,1,.8h.7c1.6.3,2.4,1,2.4,2.3s-1.2,2.4-3,2.4ZM684.6,205c-1.2,0-1.9-.7-1.9-1.9v-4h-1.1v-1.4h.6c.5,0,.7-.3.7-.8v-1.2h1.6v2h1.5v1.4h-1.5v4.5h1.4v1.4h-1.3Z"/>
          <g class="cls-29">
            <g>
              <rect class="cls-15" x="616" y="188" width="24" height="24"/>
              <path class="cls-13" d="M631,197.8h-6c-.4,0-.8.2-1.1.4-.3.3-.4.7-.4,1.1v9.8c0,.4.2.8.4,1.1.3.3.7.4,1.1.4h6c.4,0,.8-.2,1.1-.4.3-.3.4-.7.4-1.1v-9.8c0-.4-.2-.8-.4-1.1-.3-.3-.7-.4-1.1-.4ZM631,199.2v2.2h-6v-2.2h6ZM631,203v2.2h-6v-2.2h6ZM625,209v-2.2h6v2.2h-6Z"/>
              <path class="cls-13" d="M635.4,195.6s0,0,0,0,0,0,0,0c-.3-1.5-1-2.8-2.1-3.9-1.1-1-2.4-1.8-3.9-2-1.9-.4-4,0-5.6,1.1-1.6,1.1-2.8,2.8-3.2,4.8,0,0,0,0,0,0s0,0,0,0c-1.4.3-2.6,1-3.4,2.1-.8,1.1-1.2,2.5-1.1,3.9.1,1.4.8,2.7,1.8,3.6,1,.9,2.4,1.5,3.8,1.5h.4v-1.5h-.4c-.6,0-1.2-.1-1.7-.4-.5-.2-1-.6-1.4-1.1-.4-.4-.7-1-.8-1.5-.2-.6-.2-1.2-.1-1.8.2-.9.6-1.7,1.2-2.3.6-.6,1.4-1,2.3-1.2h.8c0-.1,0-.2,0-.2,0,0,0,0,0,0v-.7c.4-1.3,1-2.4,1.9-3.4.9-.9,2.1-1.5,3.4-1.7.7,0,1.4,0,2.1,0,1.2.3,2.2.9,3,1.8.8.9,1.4,2,1.6,3.1v.8c.1,0,.2,0,.2,0,0,0,0,0,0,0h.8c.9.3,1.7.7,2.3,1.3.6.6,1,1.3,1.1,2.1.2.8,0,1.6-.2,2.4-.3.8-.8,1.4-1.5,1.9-.7.5-1.5.7-2.3.7h-.4v1.5h.4c1.4,0,2.7-.5,3.8-1.5,1-.9,1.7-2.2,1.8-3.6.1-1.4-.3-2.8-1.1-3.9-.8-1.1-2.1-1.9-3.4-2.1Z"/>
            </g>
          </g>
          <line class="cls-2" x1="602" y1="176" x2="602" y2="224"/>
        </g>
      </g>
      <rect class="cls-19" x="616.5" y="240.5" width="143" height="223"/>
      <rect class="cls-1" x="616.5" y="240.5" width="143" height="223"/>
      <rect class="cls-19" x="617" y="241" width="142" height="222"/>
      <rect class="cls-9" x="617" y="241" width="142" height="222"/>
      <g class="cls-32">
        <g>
          <path class="cls-13" d="M676.9,260.2c-2.6,0-4.2-1.7-4.2-5s1.6-5.1,4.2-5.1,2.9.7,3.6,2.3l-1.6.8c-.3-.9-.9-1.5-2-1.5s-2.3,1-2.3,2.7v1.5c0,1.7.9,2.6,2.3,2.6s1.8-.7,2.1-1.6l1.5.9c-.7,1.5-1.9,2.3-3.6,2.3ZM685.1,260.2c-2.1,0-3.4-1.5-3.4-3.8s1.3-3.8,3.4-3.8,3.4,1.5,3.4,3.8-1.3,3.8-3.4,3.8ZM685.1,258.7c.9,0,1.5-.6,1.5-1.7v-1.4c0-1.1-.6-1.7-1.5-1.7s-1.5.6-1.5,1.7v1.4c0,1.1.6,1.7,1.5,1.7ZM692,260h-1.8v-7.3h1.8v1.2h0c.3-.8.9-1.4,2-1.4s2.3,1,2.3,2.9v4.6h-1.8v-4.4c0-1-.4-1.6-1.2-1.6s-1.5.4-1.5,1.2v4.8ZM700.9,260c-1.2,0-1.9-.7-1.9-1.9v-4h-1.1v-1.4h.6c.5,0,.7-.3.7-.8v-1.2h1.6v2h1.5v1.4h-1.5v4.5h1.4v1.4h-1.3ZM705.8,260.2c-1.5,0-2.3-.9-2.3-2.2s1.1-2.2,3.1-2.2h1.2v-.5c0-.8-.4-1.3-1.4-1.3s-1.3.4-1.7.9l-1.1-1c.5-.8,1.4-1.4,2.9-1.4s3,.9,3,2.6v3.4h.7v1.4h-1c-.8,0-1.2-.5-1.4-1.3h0c-.2.9-1,1.4-2.1,1.4ZM706.4,258.9c.8,0,1.4-.4,1.4-1v-1h-1.1c-.9,0-1.4.3-1.4.9v.2c0,.6.4.9,1.1.9ZM712.9,251.6c-.7,0-1-.4-1-.9v-.3c0-.5.3-.9,1-.9s1,.4,1,.9v.3c0,.5-.3.9-1,.9ZM712,260v-7.3h1.8v7.3h-1.8ZM717.8,260h-1.8v-7.3h1.8v1.2h0c.3-.8.9-1.4,2-1.4s2.3,1,2.3,2.9v4.6h-1.8v-4.4c0-1-.3-1.6-1.2-1.6s-1.5.4-1.5,1.2v4.8ZM727.4,260.2c-2.2,0-3.4-1.5-3.4-3.8s1.2-3.8,3.4-3.8,3.3,1.7,3.3,3.7v.6h-4.9v.2c0,1,.6,1.8,1.8,1.8s1.4-.4,1.9-1l1,1.1c-.6.8-1.7,1.3-3,1.3ZM727.3,253.9c-.9,0-1.6.7-1.6,1.7h0c0,.1,3,.1,3,.1h0c0-1.1-.5-1.8-1.4-1.8ZM734.2,260h-1.8v-7.3h1.8v1.5h0c.2-.8.8-1.5,1.9-1.5h.4v1.7h-.6c-1.2,0-1.8.3-1.8,1.1v4.5ZM673,280.8v-10.1h1.8v1.2h0c.3-.8,1.1-1.4,2-1.4,1.8,0,2.9,1.4,2.9,3.8s-1,3.8-2.9,3.8-1.7-.6-2-1.4h0v4h-1.8ZM676.3,276.7c.9,0,1.6-.7,1.6-1.7v-1.3c0-1-.6-1.7-1.6-1.7s-1.5.5-1.5,1.2v2.3c0,.8.6,1.2,1.5,1.2ZM684.3,278h-1c-1.2,0-1.8-.6-1.8-1.8v-8.6h1.8v8.9h1v1.4ZM687.7,278.2c-1.5,0-2.3-.9-2.3-2.2s1.1-2.2,3.1-2.2h1.2v-.5c0-.8-.4-1.3-1.4-1.3s-1.3.4-1.7.9l-1.1-1c.5-.8,1.4-1.4,2.9-1.4s3,.9,3,2.6v3.4h.7v1.4h-1c-.8,0-1.2-.5-1.4-1.3h0c-.2.9-1,1.4-2.1,1.4ZM688.3,276.9c.8,0,1.4-.4,1.4-1v-1h-1.1c-.9,0-1.4.3-1.4.9v.2c0,.6.4.9,1.1.9ZM696.1,278c-1.2,0-1.9-.7-1.9-1.9v-4h-1.1v-1.4h.6c.5,0,.7-.3.7-.8v-1.2h1.6v2h1.5v1.4h-1.5v4.5h1.4v1.4h-1.3ZM699.5,278v-5.9h-1.1v-1.4h1.1v-1c0-1.3.7-2,2-2h1.3v1.4h-1.5v1.6h1.5v1.4h-1.5v5.9h-1.8ZM707,278.2c-2.1,0-3.4-1.5-3.4-3.8s1.3-3.8,3.4-3.8,3.4,1.5,3.4,3.8-1.3,3.8-3.4,3.8ZM707,276.7c.9,0,1.5-.6,1.5-1.7v-1.4c0-1.1-.6-1.7-1.5-1.7s-1.5.6-1.5,1.7v1.4c0,1.1.6,1.7,1.5,1.7ZM714,278h-1.8v-7.3h1.8v1.5h0c.2-.8.8-1.5,1.9-1.5h.4v1.7h-.6c-1.2,0-1.8.3-1.8,1.1v4.5ZM719.6,278h-1.8v-7.3h1.8v1.2h0c.3-.8.9-1.4,2-1.4s1.8.5,2.1,1.5h0c.3-.8,1.1-1.5,2.2-1.5s2.2,1,2.2,2.9v4.6h-1.8v-4.4c0-1.1-.4-1.6-1.2-1.6s-1.4.4-1.4,1.2v4.8h-1.8v-4.4c0-1.1-.4-1.6-1.2-1.6s-1.4.4-1.4,1.2v4.8Z"/>
          <path class="cls-13" d="M673.2,291.6c0-2.7,1.1-5.1,2.5-6.3h1.1c-1.6,1.4-2.5,3.7-2.5,5.7v1.2c0,2,1,4.3,2.5,5.7h-1.1c-1.4-1.2-2.5-3.6-2.5-6.3ZM680.8,296.2c-2,0-3.2-1.5-3.2-3.8s1.3-3.8,3.2-3.8,3.1,1.5,3.1,3.5v.5h-5.2v.3c0,1.2.8,2.2,2.1,2.2s1.6-.4,2-1.2l.8.6c-.5,1-1.5,1.7-2.9,1.7ZM680.8,289.5c-1.2,0-2.1.9-2.1,2.2h0c0,0,4,0,4,0v-.2c0-1.3-.8-2.1-1.9-2.1ZM686.3,296.2c-.6,0-.9-.3-.9-.8v-.2c0-.5.3-.8.9-.8s.9.3.9.8v.2c0,.5-.3.8-.9.8ZM695.6,296.8c0,1.5-1.2,2.2-3.5,2.2s-3.2-.6-3.2-1.8.4-1.2,1.1-1.4v-.2c-.4-.2-.6-.5-.6-1,0-.7.5-1.1,1.2-1.3h0c-.9-.5-1.4-1.3-1.4-2.3,0-1.5,1.1-2.5,2.7-2.5s1,0,1.4.3h0c0-.7.2-1.1.8-1.1h1.1v1h-1.4v.5c.5.4.8,1.1.8,1.9,0,1.5-1.1,2.5-2.7,2.5s-.5,0-.7,0c-.5.1-1,.4-1,.8s.4.5,1.1.5h1.5c1.8,0,2.6.7,2.6,1.9ZM694.6,296.9c0-.6-.4-1-1.5-1h-2.4c-.5.2-.7.5-.7,1s.4,1.1,1.6,1.1h1c1.2,0,2-.4,2-1.2ZM692,292.7c1,0,1.6-.4,1.6-1.4v-.4c0-1-.6-1.4-1.6-1.4s-1.6.4-1.6,1.4v.4c0,1,.6,1.4,1.6,1.4ZM698,296.2c-.6,0-.9-.3-.9-.8v-.2c0-.5.3-.8.9-.8s.9.3.9.8v.2c0,.5-.3.8-.9.8ZM708.5,296.2c-2.5,0-4.1-1.8-4.1-5.1s1.6-5.1,4.1-5.1,4.1,1.8,4.1,5.1-1.6,5.1-4.1,5.1ZM708.5,295.1c1.7,0,2.9-1.3,2.9-3.2v-1.6c0-1.9-1.2-3.2-2.9-3.2s-2.9,1.3-2.9,3.2v1.6c0,1.9,1.2,3.2,2.9,3.2ZM718.3,296.2c-2.5,0-3.9-1.7-3.9-5s1.5-5.1,3.9-5.1,2.7.8,3.4,2.1l-1,.6c-.4-1-1.2-1.7-2.4-1.7s-2.7,1.3-2.7,3.3v1.5c0,2,1,3.2,2.7,3.2s2.1-.7,2.5-1.8l.9.6c-.6,1.4-1.8,2.2-3.4,2.2ZM724.9,296h-1.2v-9.8h3.9c1.8,0,2.7,1.1,2.7,2.8s-1,2.8-2.7,2.8h-2.7v4.2ZM724.9,287.3v3.5h2.7c.9,0,1.5-.5,1.5-1.4v-.7c0-.9-.5-1.4-1.5-1.4h-2.7ZM738.5,296.2c-1.9,0-3.3-1.5-3.3-3.8s1.3-3.8,3.3-3.8,3.3,1.5,3.3,3.8-1.3,3.8-3.3,3.8ZM738.5,295.2c1.2,0,2.1-.7,2.1-2.3v-1c0-1.5-.9-2.3-2.1-2.3s-2.1.7-2.1,2.3v1c0,1.5.9,2.3,2.1,2.3ZM744.9,296h-1.1v-7.2h1.1v1.3h0c.3-.7.9-1.3,2.1-1.3h.4v1.1h-.7c-1.2,0-1.9.5-1.9,1.2v4.9ZM674.5,314h-1.2v-9.8h3.9c1.8,0,2.7,1.1,2.7,2.8s-1,2.8-2.7,2.8h-2.7v4.2ZM674.5,305.3v3.5h2.7c.9,0,1.5-.5,1.5-1.4v-.7c0-.9-.5-1.4-1.5-1.4h-2.7ZM684.3,314.2c-1.9,0-3.3-1.5-3.3-3.8s1.3-3.8,3.3-3.8,3.3,1.5,3.3,3.8-1.3,3.8-3.3,3.8ZM684.3,313.2c1.2,0,2.1-.7,2.1-2.3v-1c0-1.5-.9-2.3-2.1-2.3s-2.1.7-2.1,2.3v1c0,1.5.9,2.3,2.1,2.3ZM694.2,314v-1.2h0c-.4.9-1.1,1.3-2.1,1.3-1.8,0-2.9-1.5-2.9-3.8s1.1-3.8,2.9-3.8,1.7.4,2.1,1.3h0v-4.3h1.1v10.4h-1.1ZM692.3,313.2c1,0,1.9-.5,1.9-1.5v-2.7c0-.8-.8-1.4-1.9-1.4s-2,.9-2,2.2v1.2c0,1.3.8,2.2,2,2.2ZM699,314h-1.1v-7.2h1.1v1.2h0c.3-.7.8-1.3,1.9-1.3s1.8.4,2.2,1.5h0c.3-.8,1-1.5,2.2-1.5s2.4,1,2.4,2.8v4.6h-1.1v-4.4c0-1.3-.5-1.9-1.6-1.9s-1.7.4-1.7,1.4v5h-1.1v-4.4c0-1.3-.5-1.9-1.6-1.9s-1.7.4-1.7,1.4v5ZM716.1,314h-.6c-.8,0-1.2-.5-1.2-1.2h0c-.3.9-1.1,1.3-2.1,1.3-1.5,0-2.4-.8-2.4-2.2s1-2.1,3.1-2.1h1.4v-.7c0-1-.6-1.6-1.7-1.6s-1.4.4-1.8,1.1l-.7-.6c.4-.8,1.3-1.4,2.6-1.4s2.8.9,2.8,2.4v4h.8v1ZM712.3,313.2c1.1,0,1.9-.6,1.9-1.3v-1.2h-1.5c-1.3,0-1.8.4-1.8,1.1v.3c0,.7.6,1.1,1.4,1.1ZM719,314h-1.1v-7.2h1.1v1.2h0c.3-.8,1-1.3,2-1.3s2.4,1,2.4,2.8v4.6h-1.1v-4.4c0-1.3-.6-1.9-1.6-1.9s-1.8.4-1.8,1.4v5ZM728.3,309.6c0,2.7-1.1,5.1-2.5,6.3h-1.1c1.5-1.3,2.5-3.7,2.5-5.7v-1.2c0-2-1-4.3-2.5-5.7h1.1c1.4,1.2,2.5,3.6,2.5,6.3Z"/>
          <rect class="cls-15" x="632" y="252" width="24" height="24"/>
          <path class="cls-13" d="M653,261h-6v-6h6v6ZM648.5,259.5h3v-3h-3v3Z"/>
          <path class="cls-13" d="M644.8,263.2v-4.5h-6v10.5h10.5v-6h-4.5ZM640.2,260.2h3v3h-3v-3ZM643.2,267.8h-3v-3h3v3ZM647.8,267.8h-3v-3h3v3Z"/>
          <path class="cls-13" d="M651.5,273h-15c-.4,0-.8-.2-1.1-.4s-.4-.7-.4-1.1v-15c0-.4.2-.8.4-1.1.3-.3.7-.4,1.1-.4h7.5v1.5h-7.5v15h15v-7.5h1.5v7.5c0,.4-.2.8-.4,1.1s-.7.4-1.1.4Z"/>
          <line class="cls-4" x1="618" y1="240" x2="618" y2="324"/>
        </g>
      </g>
      <rect class="cls-15" x="653.5" y="352" width="69" height="92"/>
      <rect class="cls-15" x="664.5" y="344" width="56" height="56"/>
      <path class="cls-15" d="M720.5,344h-56v56h56v-56Z"/>
      <path class="cls-1" d="M668.5,348.5h47.5v47.5"/>
      <path class="cls-1" d="M672.5,344.5h47.5v47.5"/>
      <rect class="cls-9" x="664.5" y="352.5" width="47" height="47"/>
      <rect class="cls-1" x="664.5" y="352.5" width="47" height="47"/>
      <path class="cls-19" d="M665,353h46v46h-46v-46Z"/>
      <g class="cls-33">
        <g>
          <rect class="cls-15" x="676" y="364" width="24" height="24"/>
          <path class="cls-13" d="M699.2,382.7l-3.8,3.8c-.5.5-1.2.8-1.9.8-.7,0-1.4-.3-1.9-.8-.5-.5-.8-1.2-.8-1.9s.3-1.4.8-1.9l1.1,1.1c-.2.2-.3.5-.3.8s.1.6.3.8.5.3.8.3.6-.1.8-.3l3.8-3.8c.2-.2.3-.5.3-.8s-.1-.6-.3-.8-.5-.3-.8-.3-.6.1-.8.3l-1.1-1.1c.5-.5,1.2-.8,1.9-.8.7,0,1.4.3,1.9.8.5.5.8,1.2.8,1.9s-.3,1.4-.8,1.9Z"/>
          <path class="cls-13" d="M691,379.8l-3.8,3.8c-.5.5-.8,1.2-.8,1.9s.3,1.4.8,1.9c.5.5,1.2.8,1.9.8.7,0,1.4-.3,1.9-.8l-1.1-1.1c-.2.2-.5.3-.8.3s-.6-.1-.8-.3-.3-.5-.3-.8.1-.6.3-.8l3.8-3.8c.2-.2.5-.3.8-.3s.6.1.8.3.3.5.3.8-.1.6-.3.8l1.1,1.1c.5-.5.8-1.2.8-1.9s-.3-1.4-.8-1.9c-.5-.5-1.2-.8-1.9-.8-.7,0-1.4.3-1.9.8Z"/>
          <path class="cls-13" d="M681.2,380.5c.8,0,1.5-.7,1.5-1.5s-.7-1.5-1.5-1.5-1.5.7-1.5,1.5.7,1.5,1.5,1.5Z"/>
          <path class="cls-13" d="M686.5,379c-.6,0-1.2-.2-1.7-.5-.5-.3-.9-.8-1.1-1.3-.2-.5-.3-1.2-.2-1.7.1-.6.4-1.1.8-1.5.4-.4,1-.7,1.5-.8.6-.1,1.2,0,1.7.2.5.2,1,.6,1.3,1.1.3.5.5,1.1.5,1.7,0,.8-.3,1.6-.9,2.1-.6.6-1.3.9-2.1.9ZM686.5,374.5c-.3,0-.6,0-.8.3-.2.2-.4.4-.6.7-.1.3-.1.6,0,.9,0,.3.2.6.4.8.2.2.5.4.8.4.3,0,.6,0,.9,0,.3-.1.5-.3.7-.6.2-.2.3-.5.3-.8,0-.4-.2-.8-.4-1.1-.3-.3-.7-.4-1.1-.4Z"/>
          <path class="cls-13" d="M691.8,374.5c.8,0,1.5-.7,1.5-1.5s-.7-1.5-1.5-1.5-1.5.7-1.5,1.5.7,1.5,1.5,1.5Z"/>
          <path class="cls-13" d="M684.5,384.5l-6.2-3.6v-9.6l8.2-4.8,8.6,5,.8-1.3-9-5.2c-.1,0-.2-.1-.4-.1s-.3,0-.4.1l-9,5.2c-.1,0-.2.2-.3.3,0,.1,0,.2,0,.4v10.5c0,.1,0,.3,0,.4,0,.1.2.2.3.3l6.6,3.9.8-1.3Z"/>
        </g>
      </g>
      <path class="cls-13" d="M658.9,422.2c-2.6,0-4.2-1.7-4.2-5s1.6-5.1,4.2-5.1,2.9.7,3.6,2.3l-1.6.8c-.3-.9-.9-1.5-2-1.5s-2.3,1-2.3,2.7v1.5c0,1.7.9,2.6,2.3,2.6s1.8-.7,2.1-1.6l1.5.9c-.7,1.5-1.9,2.3-3.6,2.3ZM667,422.2c-2.1,0-3.4-1.5-3.4-3.8s1.3-3.8,3.4-3.8,3.4,1.5,3.4,3.8-1.3,3.8-3.4,3.8ZM667,420.7c.9,0,1.5-.6,1.5-1.7v-1.4c0-1.1-.6-1.7-1.5-1.7s-1.5.6-1.5,1.7v1.4c0,1.1.6,1.7,1.5,1.7ZM673.9,422h-1.8v-7.3h1.8v1.2h0c.3-.8.9-1.4,2-1.4s2.3,1,2.3,2.9v4.6h-1.8v-4.4c0-1-.4-1.6-1.2-1.6s-1.5.4-1.5,1.2v4.8ZM682.3,422h-1.8v-7.3h1.8v1.2h0c.3-.8.9-1.4,2-1.4s2.3,1,2.3,2.9v4.6h-1.8v-4.4c0-1-.3-1.6-1.2-1.6s-1.5.4-1.5,1.2v4.8ZM691.9,422.2c-2.2,0-3.4-1.5-3.4-3.8s1.2-3.8,3.4-3.8,3.3,1.7,3.3,3.7v.6h-4.9v.2c0,1,.6,1.8,1.8,1.8s1.4-.4,1.9-1l1,1.1c-.6.8-1.7,1.3-3,1.3ZM691.9,415.9c-.9,0-1.6.7-1.6,1.7h0c0,.1,3,.1,3,.1h0c0-1.1-.5-1.8-1.4-1.8ZM699.8,422.2c-2.2,0-3.4-1.5-3.4-3.8s1.2-3.8,3.4-3.8,2.4.7,2.9,1.8l-1.5.7c-.2-.6-.6-1.1-1.4-1.1s-1.5.7-1.5,1.7v1.3c0,1,.5,1.7,1.5,1.7s1.3-.5,1.5-1.1l1.4.7c-.5,1.3-1.5,1.9-2.9,1.9ZM706.5,422c-1.2,0-1.9-.7-1.9-1.9v-4h-1.1v-1.4h.6c.5,0,.7-.3.7-.8v-1.2h1.6v2h1.5v1.4h-1.5v4.5h1.4v1.4h-1.3ZM712.5,422.2c-2.1,0-3.4-1.5-3.4-3.8s1.3-3.8,3.4-3.8,3.4,1.5,3.4,3.8-1.3,3.8-3.4,3.8ZM712.5,420.7c.9,0,1.5-.6,1.5-1.7v-1.4c0-1.1-.6-1.7-1.5-1.7s-1.5.6-1.5,1.7v1.4c0,1.1.6,1.7,1.5,1.7ZM719.4,422h-1.8v-7.3h1.8v1.5h0c.2-.8.8-1.5,1.9-1.5h.4v1.7h-.6c-1.2,0-1.8.3-1.8,1.1v4.5ZM661.4,440.2c-1.5,0-2.3-.9-2.3-2.2s1.1-2.2,3.1-2.2h1.2v-.5c0-.8-.4-1.3-1.4-1.3s-1.3.4-1.7.9l-1.1-1c.5-.8,1.4-1.4,2.9-1.4s3,.9,3,2.6v3.4h.7v1.4h-1c-.8,0-1.2-.5-1.4-1.3h0c-.2.9-1,1.4-2.1,1.4ZM662,438.9c.8,0,1.4-.4,1.4-1v-1h-1.1c-.9,0-1.4.3-1.4.9v.2c0,.6.4.9,1.1.9ZM674.2,440.6c0,1.5-1,2.4-3.8,2.4s-3.4-.6-3.4-1.7.5-1.3,1.3-1.4v-.2c-.6-.2-.9-.6-.9-1.2s.6-1.1,1.3-1.3h0c-.9-.5-1.3-1.2-1.3-2.2,0-1.5,1-2.5,3-2.5s.9,0,1.3.2v-.2c0-.7.4-1.1,1-1.1h1.1v1.4h-1.6v.2c.8.4,1.1,1.1,1.1,2,0,1.5-1,2.4-3,2.4s-.8,0-1.1-.1c-.3.1-.5.3-.5.7s.3.5,1,.5h2c1.8,0,2.6.8,2.6,2.1ZM672.5,440.8c0-.5-.3-.7-1.2-.7h-2.5c-.3.2-.4.5-.4.8,0,.6.4.9,1.5.9h.9c1.2,0,1.7-.3,1.7-.9ZM670.3,436.2c.9,0,1.3-.4,1.3-1.1v-.2c0-.7-.5-1.1-1.3-1.1s-1.3.4-1.3,1.1v.2c0,.7.5,1.1,1.3,1.1ZM678.2,440.2c-2.2,0-3.4-1.5-3.4-3.8s1.2-3.8,3.4-3.8,3.3,1.7,3.3,3.7v.6h-4.9v.2c0,1,.6,1.8,1.8,1.8s1.4-.4,1.9-1l1,1.1c-.6.8-1.7,1.3-3,1.3ZM678.2,433.9c-.9,0-1.6.7-1.6,1.7h0c0,.1,3,.1,3,.1h0c0-1.1-.5-1.8-1.4-1.8ZM685,440h-1.8v-7.3h1.8v1.2h0c.3-.8.9-1.4,2-1.4s2.3,1,2.3,2.9v4.6h-1.8v-4.4c0-1-.4-1.6-1.2-1.6s-1.5.4-1.5,1.2v4.8ZM693.9,440c-1.2,0-1.9-.7-1.9-1.9v-4h-1.1v-1.4h.6c.5,0,.7-.3.7-.8v-1.2h1.6v2h1.5v1.4h-1.5v4.5h1.4v1.4h-1.3ZM700.2,435.6c0-2.7,1.1-5.1,2.5-6.3h1.7c-1.5,1.4-2.5,3.5-2.5,5.8v1c0,2.3,1,4.4,2.5,5.8h-1.7c-1.4-1.2-2.5-3.6-2.5-6.3ZM707.2,440h-1.8v-7.3h1.8v1.2h0c.3-.8.9-1.4,2-1.4s2.3,1,2.3,2.9v4.6h-1.8v-4.4c0-1-.4-1.6-1.2-1.6s-1.5.4-1.5,1.2v4.8ZM716.7,435.6c0,2.7-1.1,5.1-2.5,6.3h-1.7c1.5-1.4,2.5-3.4,2.5-5.8v-1c0-2.3-1-4.4-2.5-5.8h1.7c1.4,1.2,2.5,3.6,2.5,6.3Z"/>
      <path class="cls-18" d="M923,373.1l5,2.9-5,2.9v-2.4h-51v-1h51v-2.4Z"/>
      <path class="cls-18" d="M819,373.1l5,2.9-5,2.9v-2.4h-98.5v-1h98.5v-2.4Z"/>
      <rect class="cls-15" x="917.5" y="352" width="69" height="110"/>
      <rect class="cls-16" x="928" y="352" width="48" height="48"/>
      <rect class="cls-15" x="940" y="364" width="24" height="24"/>
      <path class="cls-19" d="M952,373.8c-2.6,0-4.5,1.1-4.5,2.6v6c0,1.5,1.9,2.6,4.5,2.6s4.5-1.1,4.5-2.6v-6c0-1.5-1.9-2.6-4.5-2.6ZM952,375.2c1.9,0,3,.7,3,1.1s-1.1,1.1-3,1.1-3-.7-3-1.1,1.1-1.1,3-1.1ZM952,383.5c-1.9,0-3-.7-3-1.1v-1c.8.4,1.8.6,3,.6s2.2-.2,3-.6v1c0,.4-1.1,1.1-3,1.1ZM952,380.5c-1.9,0-3-.7-3-1.1v-1c.8.4,1.8.6,3,.6s2.2-.2,3-.6v1c0,.4-1.1,1.1-3,1.1Z"/>
      <path class="cls-19" d="M962.5,375.6c0,2.3-1.6,4.2-3.8,4.7v-1.6c1.3-.5,2.3-1.7,2.3-3.2s-1.4-3.2-3.1-3.4h-.6s0-.7,0-.7c-.3-2.6-2.6-4.6-5.2-4.6s-4.9,2-5.2,4.6v.6c0,0-.7,0-.7,0-1.7.1-3.1,1.6-3.1,3.4s.9,2.7,2.2,3.2v1.6c-2.1-.5-3.7-2.4-3.7-4.7s1.7-4.3,3.9-4.8c.6-3.1,3.4-5.4,6.6-5.4s5.9,2.3,6.6,5.4c2.2.5,3.9,2.4,3.9,4.8Z"/>
      <path class="cls-13" d="M924.9,422.2c-2.6,0-4.2-1.7-4.2-5s1.6-5.1,4.2-5.1,2.9.7,3.6,2.3l-1.6.8c-.3-.9-.9-1.5-2-1.5s-2.3,1-2.3,2.7v1.5c0,1.7.9,2.6,2.3,2.6s1.8-.7,2.1-1.6l1.5.9c-.7,1.5-1.9,2.3-3.6,2.3ZM934.5,422v-1.2h0c-.3.7-.8,1.4-2,1.4s-2.3-1-2.3-2.9v-4.6h1.8v4.4c0,1,.4,1.6,1.2,1.6s1.4-.4,1.4-1.2v-4.8h1.8v7.3h-1.8ZM941,422.2c-1.4,0-2.3-.5-3-1.3l1.1-1.1c.5.6,1.2,1,2,1s1.2-.3,1.2-.8-.3-.7-.9-.8h-.7c-1.6-.3-2.4-1-2.4-2.3s1.1-2.3,2.8-2.3,2.2.4,2.9,1.1l-1.1,1c-.4-.4-1-.8-1.8-.8s-1.1.3-1.1.8.3.7,1,.8h.7c1.6.3,2.4,1,2.4,2.3s-1.2,2.4-3,2.4ZM947.9,422c-1.2,0-1.9-.7-1.9-1.9v-4h-1.1v-1.4h.6c.5,0,.7-.3.7-.8v-1.2h1.6v2h1.5v1.4h-1.5v4.5h1.4v1.4h-1.3ZM953.8,422.2c-2.1,0-3.4-1.5-3.4-3.8s1.3-3.8,3.4-3.8,3.4,1.5,3.4,3.8-1.3,3.8-3.4,3.8ZM953.8,420.7c.9,0,1.5-.6,1.5-1.7v-1.4c0-1.1-.6-1.7-1.5-1.7s-1.5.6-1.5,1.7v1.4c0,1.1.6,1.7,1.5,1.7ZM960.8,422h-1.8v-7.3h1.8v1.2h0c.3-.8.9-1.4,2-1.4s1.8.5,2.1,1.5h0c.3-.8,1.1-1.5,2.2-1.5s2.2,1,2.2,2.9v4.6h-1.8v-4.4c0-1.1-.4-1.6-1.2-1.6s-1.4.4-1.4,1.2v4.8h-1.8v-4.4c0-1.1-.4-1.6-1.2-1.6s-1.4.4-1.4,1.2v4.8ZM974.5,422.2c-2.2,0-3.4-1.5-3.4-3.8s1.2-3.8,3.4-3.8,3.3,1.7,3.3,3.7v.6h-4.9v.2c0,1,.6,1.8,1.8,1.8s1.4-.4,1.9-1l1,1.1c-.6.8-1.7,1.3-3,1.3ZM974.5,415.9c-.9,0-1.6.7-1.6,1.7h0c0,.1,3,.1,3,.1h0c0-1.1-.5-1.8-1.4-1.8ZM981.3,422h-1.8v-7.3h1.8v1.5h0c.2-.8.8-1.5,1.9-1.5h.4v1.7h-.6c-1.2,0-1.8.3-1.8,1.1v4.5ZM925.9,440h-1.8v-7.3h1.8v1.5h0c.2-.8.8-1.5,1.9-1.5h.4v1.7h-.6c-1.2,0-1.8.3-1.8,1.1v4.5ZM932.7,440.2c-2.2,0-3.4-1.5-3.4-3.8s1.2-3.8,3.4-3.8,3.3,1.7,3.3,3.7v.6h-4.9v.2c0,1,.6,1.8,1.8,1.8s1.4-.4,1.9-1l1,1.1c-.6.8-1.7,1.3-3,1.3ZM932.6,433.9c-.9,0-1.6.7-1.6,1.7h0c0,.1,3,.1,3,.1h0c0-1.1-.5-1.8-1.4-1.8ZM940.1,440.2c-1.4,0-2.3-.5-3-1.3l1.1-1.1c.5.6,1.2,1,2,1s1.2-.3,1.2-.8-.3-.7-.9-.8h-.7c-1.6-.3-2.4-1-2.4-2.3s1.1-2.3,2.8-2.3,2.2.4,2.9,1.1l-1.1,1c-.4-.4-1-.8-1.8-.8s-1.1.3-1.1.8.3.7,1,.8h.7c1.6.3,2.4,1,2.4,2.3s-1.2,2.4-3,2.4ZM947.7,440.2c-2.1,0-3.4-1.5-3.4-3.8s1.3-3.8,3.4-3.8,3.4,1.5,3.4,3.8-1.3,3.8-3.4,3.8ZM947.7,438.7c.9,0,1.5-.6,1.5-1.7v-1.4c0-1.1-.6-1.7-1.5-1.7s-1.5.6-1.5,1.7v1.4c0,1.1.6,1.7,1.5,1.7ZM957.3,440v-1.2h0c-.3.7-.8,1.4-2,1.4s-2.3-1-2.3-2.9v-4.6h1.8v4.4c0,1,.4,1.6,1.2,1.6s1.4-.4,1.4-1.2v-4.8h1.8v7.3h-1.8ZM963.1,440h-1.8v-7.3h1.8v1.5h0c.2-.8.8-1.5,1.9-1.5h.4v1.7h-.6c-1.2,0-1.8.3-1.8,1.1v4.5ZM969.7,440.2c-2.2,0-3.4-1.5-3.4-3.8s1.2-3.8,3.4-3.8,2.4.7,2.9,1.8l-1.5.7c-.2-.6-.6-1.1-1.4-1.1s-1.5.7-1.5,1.7v1.3c0,1,.5,1.7,1.5,1.7s1.3-.5,1.5-1.1l1.4.7c-.5,1.3-1.5,1.9-2.9,1.9ZM977.1,440.2c-2.2,0-3.4-1.5-3.4-3.8s1.2-3.8,3.4-3.8,3.3,1.7,3.3,3.7v.6h-4.9v.2c0,1,.6,1.8,1.8,1.8s1.4-.4,1.9-1l1,1.1c-.6.8-1.7,1.3-3,1.3ZM977.1,433.9c-.9,0-1.6.7-1.6,1.7h0c0,.1,3,.1,3,.1h0c0-1.1-.5-1.8-1.4-1.8Z"/>
      <path class="cls-13" d="M918.7,453.6c0-2.7,1.1-5.1,2.5-6.3h1.1c-1.6,1.4-2.5,3.7-2.5,5.7v1.2c0,2,1,4.3,2.5,5.7h-1.1c-1.4-1.2-2.5-3.6-2.5-6.3ZM928.2,458v-1.2h0c-.4.9-1.1,1.3-2.1,1.3-1.8,0-2.9-1.5-2.9-3.8s1.1-3.8,2.9-3.8,1.7.4,2.1,1.3h0v-4.3h1.1v10.4h-1.1ZM926.3,457.2c1,0,1.9-.5,1.9-1.5v-2.7c0-.8-.8-1.4-1.9-1.4s-2,.9-2,2.2v1.2c0,1.3.8,2.2,2,2.2ZM937.7,458h-.6c-.8,0-1.2-.5-1.2-1.2h0c-.3.9-1.1,1.3-2.1,1.3-1.5,0-2.4-.8-2.4-2.2s1-2.1,3.1-2.1h1.4v-.7c0-1-.6-1.6-1.7-1.6s-1.4.4-1.8,1.1l-.7-.6c.4-.8,1.3-1.4,2.6-1.4s2.8.9,2.8,2.4v4h.8v1ZM933.9,457.2c1.1,0,1.9-.6,1.9-1.3v-1.2h-1.5c-1.3,0-1.8.4-1.8,1.1v.3c0,.7.6,1.1,1.4,1.1ZM942.5,458h-1.4c-.8,0-1.2-.5-1.2-1.2v-5.1h-1.2v-1h.7c.5,0,.6-.2.6-.7v-1.3h1v2h1.6v1h-1.6v5.3h1.5v1ZM950.5,458h-.6c-.8,0-1.2-.5-1.2-1.2h0c-.3.9-1.1,1.3-2.1,1.3-1.5,0-2.4-.8-2.4-2.2s1-2.1,3.1-2.1h1.4v-.7c0-1-.6-1.6-1.7-1.6s-1.4.4-1.8,1.1l-.7-.6c.4-.8,1.3-1.4,2.6-1.4s2.8.9,2.8,2.4v4h.8v1ZM946.6,457.2c1.1,0,1.9-.6,1.9-1.3v-1.2h-1.5c-1.3,0-1.8.4-1.8,1.1v.3c0,.7.6,1.1,1.4,1.1ZM952.2,458v-10.4h1.1v4.3h0c.4-.9,1.1-1.3,2.1-1.3,1.8,0,2.9,1.5,2.9,3.8s-1.1,3.8-2.9,3.8-1.7-.4-2.1-1.3h0v1.2h-1.1ZM955.2,457.2c1.3,0,2-.9,2-2.2v-1.2c0-1.3-.8-2.2-2-2.2s-1.9.6-1.9,1.4v2.7c0,.9.8,1.5,1.9,1.5ZM966.4,458h-.6c-.8,0-1.2-.5-1.2-1.2h0c-.3.9-1.1,1.3-2.1,1.3-1.5,0-2.4-.8-2.4-2.2s1-2.1,3.1-2.1h1.4v-.7c0-1-.6-1.6-1.7-1.6s-1.4.4-1.8,1.1l-.7-.6c.4-.8,1.3-1.4,2.6-1.4s2.8.9,2.8,2.4v4h.8v1ZM962.5,457.2c1.1,0,1.9-.6,1.9-1.3v-1.2h-1.5c-1.3,0-1.8.4-1.8,1.1v.3c0,.7.6,1.1,1.4,1.1ZM970.3,458.2c-1.3,0-2.2-.6-2.9-1.4l.8-.6c.6.7,1.2,1.1,2.1,1.1s1.5-.4,1.5-1.2-.3-1-1.3-1.1h-.6c-1.3-.3-2.3-.8-2.3-2.2s1.1-2.1,2.6-2.1,1.9.4,2.5,1.2l-.7.7c-.3-.4-.9-.9-1.9-.9s-1.4.4-1.4,1.1.5,1,1.4,1.1h.6c1.6.3,2.2,1,2.2,2.1s-1,2.3-2.7,2.3ZM977.8,458.2c-2,0-3.2-1.5-3.2-3.8s1.3-3.8,3.2-3.8,3.1,1.5,3.1,3.5v.5h-5.2v.3c0,1.2.8,2.2,2.1,2.2s1.6-.4,2-1.2l.8.6c-.5,1-1.5,1.7-2.9,1.7ZM977.8,451.5c-1.2,0-2.1.9-2.1,2.2h0c0,0,4,0,4,0v-.2c0-1.3-.8-2.1-1.9-2.1ZM985.3,453.6c0,2.7-1.1,5.1-2.5,6.3h-1.1c1.5-1.3,2.5-3.7,2.5-5.7v-1.2c0-2-1-4.3-2.5-5.7h1.1c1.4,1.2,2.5,3.6,2.5,6.3Z"/>
      <rect class="cls-15" x="807" y="352" width="82" height="110"/>
      <rect class="cls-10" x="824" y="352" width="48" height="48"/>
      <rect class="cls-15" x="836" y="364" width="24" height="24"/>
      <path class="cls-19" d="M857,379v-2.2c0-.8-.3-1.6-.9-2.1-.6-.6-1.3-.9-2.1-.9s-1.6.3-2.1.9c-.6.6-.9,1.3-.9,2.1v2.2c-.4,0-.8.2-1.1.4s-.4.7-.4,1.1v4.5c0,.4.2.8.4,1.1s.7.4,1.1.4h6c.4,0,.8-.2,1.1-.4s.4-.7.4-1.1v-4.5c0-.4-.2-.8-.4-1.1s-.7-.4-1.1-.4ZM852.5,376.8c0-.4.2-.8.4-1.1.3-.3.7-.4,1.1-.4s.8.2,1.1.4c.3.3.4.7.4,1.1v2.2h-3v-2.2ZM857,385h-6v-4.5h6v4.5Z"/>
      <path class="cls-19" d="M847.2,384.2h-8.2c-.4,0-.8-.2-1.1-.4-.3-.3-.4-.7-.4-1.1v-2.2c0-.4.2-.8.4-1.1.3-.3.7-.4,1.1-.4h8.2v1.5h-8.2v2.2h8.2v1.5Z"/>
      <path class="cls-19" d="M848.8,377.5h-6.8c-.4,0-.8-.2-1.1-.4-.3-.3-.4-.7-.4-1.1v-2.2c0-.4.2-.8.4-1.1.3-.3.7-.4,1.1-.4h8.2v1.5h-8.2v2.2h6.8v1.5Z"/>
      <path class="cls-19" d="M852.5,370.8h-13.5c-.4,0-.8-.2-1.1-.4-.3-.3-.4-.7-.4-1.1v-2.2c0-.4.2-.8.4-1.1.3-.3.7-.4,1.1-.4h13.5c.4,0,.8.2,1.1.4.3.3.4.7.4,1.1v2.2c0,.4-.2.8-.4,1.1-.3.3-.7.4-1.1.4ZM839,369.2h13.5v-2.2h-13.5v2.2Z"/>
      <path class="cls-13" d="M821.7,422l-2.9-5-1-2h0v7h-1.8v-9.8h2l2.9,5,1,2h0v-7h1.8v9.8h-2ZM829,422.2c-2.2,0-3.4-1.5-3.4-3.8s1.2-3.8,3.4-3.8,3.3,1.7,3.3,3.7v.6h-4.9v.2c0,1,.6,1.8,1.8,1.8s1.4-.4,1.9-1l1,1.1c-.6.8-1.7,1.3-3,1.3ZM829,415.9c-.9,0-1.6.7-1.6,1.7h0c0,.1,3,.1,3,.1h0c0-1.1-.5-1.8-1.4-1.8ZM836.3,422c-1.2,0-1.9-.7-1.9-1.9v-4h-1.1v-1.4h.6c.5,0,.7-.3.7-.8v-1.2h1.6v2h1.5v1.4h-1.5v4.5h1.4v1.4h-1.3ZM840.7,422l-2-7.3h1.7l.7,3,.6,2.5h0l.7-2.5.9-3h1.6l.9,3,.7,2.5h0l.6-2.5.7-3h1.7l-2,7.3h-1.9l-.9-3.2-.5-2h0l-.5,2-.9,3.2h-1.9ZM853.8,422.2c-2.1,0-3.4-1.5-3.4-3.8s1.3-3.8,3.4-3.8,3.4,1.5,3.4,3.8-1.3,3.8-3.4,3.8ZM853.8,420.7c.9,0,1.5-.6,1.5-1.7v-1.4c0-1.1-.6-1.7-1.5-1.7s-1.5.6-1.5,1.7v1.4c0,1.1.6,1.7,1.5,1.7ZM860.8,422h-1.8v-7.3h1.8v1.5h0c.2-.8.8-1.5,1.9-1.5h.4v1.7h-.6c-1.2,0-1.8.3-1.8,1.1v4.5ZM864.6,422v-10.4h1.8v6.2h0l1-1.3,1.6-1.9h2l-2.5,2.8,2.8,4.5h-2.1l-1.9-3.3-1,1v2.2h-1.8ZM873.2,424.1h-1.5l4-12.5h1.5l-4,12.5ZM824.3,440v-5.9h-1.1v-1.4h1.1v-1c0-1.3.7-2,2-2h1.3v1.4h-1.5v1.6h4.5v7.3h-1.8v-5.9h-2.7v5.9h-1.8ZM829.7,431.6c-.7,0-1.1-.4-1.1-.9v-.3c0-.5.3-.9,1.1-.9s1,.4,1,.9v.3c0,.5-.3.9-1,.9ZM834.7,440h-1.8v-7.3h1.8v1.5h0c.2-.8.8-1.5,1.9-1.5h.4v1.7h-.6c-1.2,0-1.8.3-1.8,1.1v4.5ZM841.4,440.2c-2.2,0-3.4-1.5-3.4-3.8s1.2-3.8,3.4-3.8,3.3,1.7,3.3,3.7v.6h-4.9v.2c0,1,.6,1.8,1.8,1.8s1.4-.4,1.9-1l1,1.1c-.6.8-1.7,1.3-3,1.3ZM841.4,433.9c-.9,0-1.6.7-1.6,1.7h0c0,.1,3,.1,3,.1h0c0-1.1-.5-1.8-1.4-1.8ZM847.7,440l-2-7.3h1.7l.7,3,.6,2.5h0l.7-2.5.9-3h1.6l.9,3,.7,2.5h0l.6-2.5.7-3h1.7l-2,7.3h-1.9l-.9-3.2-.5-2h0l-.5,2-.9,3.2h-1.9ZM859.6,440.2c-1.5,0-2.3-.9-2.3-2.2s1.1-2.2,3.1-2.2h1.2v-.5c0-.8-.4-1.3-1.4-1.3s-1.3.4-1.7.9l-1.1-1c.5-.8,1.4-1.4,2.9-1.4s3,.9,3,2.6v3.4h.7v1.4h-1c-.8,0-1.2-.5-1.4-1.3h0c-.2.9-1,1.4-2.1,1.4ZM860.2,438.9c.8,0,1.4-.4,1.4-1v-1h-1.1c-.9,0-1.4.3-1.4.9v.2c0,.6.4.9,1.1.9ZM868.6,440h-1c-1.2,0-1.8-.6-1.8-1.8v-8.6h1.8v8.9h1v1.4ZM872.7,440h-1c-1.2,0-1.8-.6-1.8-1.8v-8.6h1.8v8.9h1v1.4ZM811.4,458.2c-2.2,0-3.4-1.5-3.4-3.8s1.2-3.8,3.4-3.8,2.4.7,2.9,1.8l-1.5.7c-.2-.6-.6-1.1-1.4-1.1s-1.5.7-1.5,1.7v1.3c0,1,.5,1.7,1.5,1.7s1.3-.5,1.5-1.1l1.4.7c-.5,1.3-1.5,1.9-2.9,1.9ZM818.7,458.2c-2.1,0-3.4-1.5-3.4-3.8s1.3-3.8,3.4-3.8,3.4,1.5,3.4,3.8-1.3,3.8-3.4,3.8ZM818.7,456.7c.9,0,1.5-.6,1.5-1.7v-1.4c0-1.1-.6-1.7-1.5-1.7s-1.5.6-1.5,1.7v1.4c0,1.1.6,1.7,1.5,1.7ZM825.6,458h-1.8v-7.3h1.8v1.2h0c.3-.8.9-1.4,2-1.4s2.3,1,2.3,2.9v4.6h-1.8v-4.4c0-1-.4-1.6-1.2-1.6s-1.5.4-1.5,1.2v4.8ZM834,458h-1.8v-7.3h1.8v1.2h0c.3-.8.9-1.4,2-1.4s2.3,1,2.3,2.9v4.6h-1.8v-4.4c0-1-.4-1.6-1.2-1.6s-1.5.4-1.5,1.2v4.8ZM843.5,458.2c-2.2,0-3.4-1.5-3.4-3.8s1.2-3.8,3.4-3.8,3.3,1.7,3.3,3.7v.6h-4.9v.2c0,1,.6,1.8,1.8,1.8s1.4-.4,1.9-1l1,1.1c-.6.8-1.7,1.3-3,1.3ZM843.5,451.9c-.9,0-1.6.7-1.6,1.7h0c0,.1,3,.1,3,.1h0c0-1.1-.5-1.8-1.4-1.8ZM851.4,458.2c-2.2,0-3.4-1.5-3.4-3.8s1.2-3.8,3.4-3.8,2.4.7,2.9,1.8l-1.5.7c-.2-.6-.6-1.1-1.4-1.1s-1.5.7-1.5,1.7v1.3c0,1,.5,1.7,1.5,1.7s1.3-.5,1.5-1.1l1.4.7c-.5,1.3-1.5,1.9-2.9,1.9ZM858.2,458c-1.2,0-1.9-.7-1.9-1.9v-4h-1.1v-1.4h.6c.5,0,.7-.3.7-.8v-1.2h1.6v2h1.5v1.4h-1.5v4.5h1.4v1.4h-1.3ZM862.2,449.6c-.7,0-1-.4-1-.9v-.3c0-.5.3-.9,1-.9s1,.4,1,.9v.3c0,.5-.3.9-1,.9ZM861.3,458v-7.3h1.8v7.3h-1.8ZM869,458h-2.1l-2.4-7.3h1.8l1,3.2.7,2.6h0l.7-2.6,1-3.2h1.7l-2.4,7.3ZM873.7,449.6c-.7,0-1-.4-1-.9v-.3c0-.5.3-.9,1-.9s1,.4,1,.9v.3c0,.5-.3.9-1,.9ZM872.8,458v-7.3h1.8v7.3h-1.8ZM879.1,458c-1.2,0-1.9-.7-1.9-1.9v-4h-1.1v-1.4h.6c.5,0,.7-.3.7-.8v-1.2h1.6v2h1.5v1.4h-1.5v4.5h1.4v1.4h-1.3ZM885.4,454.6l1.3-3.9h1.7l-2.9,8.6c-.4,1-.9,1.5-2.1,1.5h-1.1v-1.4h1.3l.3-1-2.6-7.7h1.8l1.3,3.9.5,1.8h0l.5-1.8Z"/>
      <rect class="cls-15" x="864" y="344" width="17" height="16"/>
      <path class="cls-13" d="M866,360c-.8,0-1.5-.7-1.5-1.5s0-.5.2-.7l6.5-12.5c.3-.5.8-.8,1.3-.8s.5,0,.7.2c.3.1.5.4.6.6l6.5,12.5c.2.4.2.8,0,1.1-.1.4-.4.7-.7.9-.2.1-.5.2-.7.2h-13Z"/>
      <rect class="cls-15" x="864.5" y="344" width="16" height="16"/>
      <path class="cls-14" d="M872.5,347.1h0l-5.7,10.9h0s11.3,0,11.3,0h0s-5.7-10.9-5.7-10.9ZM871.9,350h1.1v4.5h-1.1v-4.5ZM872.5,357c-.1,0-.3,0-.4-.1-.1,0-.2-.2-.3-.3,0-.1,0-.3,0-.4,0-.1.1-.3.2-.4.1-.1.2-.2.4-.2.1,0,.3,0,.4,0,.1,0,.3.2.3.3,0,.1.1.3.1.4s0,.4-.2.5c-.1.1-.3.2-.5.2Z"/>
      <path class="cls-14" d="M879,359h-13c0,0-.2,0-.2,0s-.1-.1-.2-.2c0,0,0-.2,0-.2,0,0,0-.2,0-.2l6.5-12.5c0,0,.1-.1.2-.2,0,0,.2,0,.3,0s.2,0,.3,0c0,0,.1.1.2.2l6.5,12.5c0,0,0,.2,0,.2,0,0,0,.2,0,.2,0,0-.1.1-.2.2s-.2,0-.2,0ZM866.8,358h11.4s-5.7-10.9-5.7-10.9h0l-5.7,10.9h0Z"/>
      <rect class="cls-15" x="48.5" y="549.5" width="27" height="11"/>
      <rect class="cls-6" x="48.5" y="549.5" width="27" height="11"/>
      <g class="cls-22">
        <path class="cls-21" d="M80,545h1v-1h-1v1ZM52,546h28v-2h-28v2ZM79,545v11h2v-11h-2Z"/>
      </g>
      <g class="cls-34">
        <path class="cls-21" d="M78,547h1v-1h-1v1ZM50,548h28v-2h-28v2ZM77,547v12h2v-12h-2Z"/>
      </g>
      <path class="cls-20" d="M89.3,558v-9.8h1.6l2.8,5.3h0l2.8-5.3h1.5v9.8h-1.1v-8.2h0l-.8,1.6-2.3,4.3-2.3-4.3-.8-1.6h0v8.2h-1.1ZM105,558v-1.2h0c-.3.7-.8,1.3-2,1.3s-2.4-1-2.4-2.8v-4.6h1.1v4.4c0,1.3.6,1.9,1.7,1.9s1.8-.4,1.8-1.4v-5h1.1v7.2h-1.1ZM110.7,558h-1c-.8,0-1.2-.5-1.2-1.2v-9.2h1.1v9.4h1.1v1ZM115.3,558h-1.4c-.8,0-1.2-.5-1.2-1.2v-5.1h-1.2v-1h.7c.5,0,.6-.2.6-.7v-1.3h1v2h1.6v1h-1.6v5.3h1.5v1ZM117.8,549.1c-.5,0-.7-.3-.7-.6v-.2c0-.4.2-.6.7-.6s.7.3.7.6v.2c0,.4-.2.6-.7.6ZM117.3,558v-7.2h1.1v7.2h-1.1ZM120.8,560.8v-10h1.1v1.2h0c.4-.9,1.1-1.3,2.1-1.3,1.8,0,2.9,1.5,2.9,3.8s-1.1,3.8-2.9,3.8-1.7-.4-2.1-1.3h0v4h-1.1ZM123.8,557.2c1.3,0,2-.9,2-2.2v-1.2c0-1.3-.8-2.2-2-2.2s-1.9.6-1.9,1.4v2.7c0,.9.8,1.5,1.9,1.5ZM131.1,558h-1c-.8,0-1.2-.5-1.2-1.2v-9.2h1.1v9.4h1.1v1ZM135.5,558.2c-2,0-3.2-1.5-3.2-3.8s1.3-3.8,3.2-3.8,3.1,1.5,3.1,3.5v.5h-5.2v.3c0,1.2.8,2.2,2.1,2.2s1.6-.4,2-1.2l.8.6c-.5,1-1.5,1.7-2.9,1.7ZM135.5,551.5c-1.2,0-2.1.9-2.1,2.2h0c0,0,4,0,4,0v-.2c0-1.3-.8-2.1-1.9-2.1ZM144.4,549.1c-.5,0-.7-.3-.7-.6v-.2c0-.4.2-.6.7-.6s.7.3.7.6v.2c0,.4-.2.6-.7.6ZM143.8,558v-7.2h1.1v7.2h-1.1ZM148.4,558h-1.1v-7.2h1.1v1.2h0c.3-.8,1-1.3,2-1.3s2.4,1,2.4,2.8v4.6h-1.1v-4.4c0-1.3-.6-1.9-1.6-1.9s-1.8.4-1.8,1.4v5ZM157.5,558.2c-1.3,0-2.2-.6-2.9-1.4l.8-.6c.6.7,1.2,1.1,2.1,1.1s1.5-.4,1.5-1.2-.3-1-1.3-1.1h-.6c-1.3-.3-2.3-.8-2.3-2.2s1.1-2.1,2.6-2.1,1.9.4,2.5,1.2l-.7.7c-.3-.4-.9-.9-1.9-.9s-1.4.4-1.4,1.1.5,1,1.4,1.1h.6c1.6.3,2.2,1,2.2,2.1s-1,2.3-2.7,2.3ZM165,558h-1.4c-.8,0-1.2-.5-1.2-1.2v-5.1h-1.2v-1h.7c.5,0,.6-.2.6-.7v-1.3h1v2h1.6v1h-1.6v5.3h1.5v1ZM172.9,558h-.6c-.8,0-1.2-.5-1.2-1.2h0c-.3.9-1.1,1.3-2.1,1.3-1.5,0-2.4-.8-2.4-2.2s1-2.1,3.1-2.1h1.4v-.7c0-1-.6-1.6-1.7-1.6s-1.4.4-1.8,1.1l-.7-.6c.4-.8,1.3-1.4,2.6-1.4s2.8.9,2.8,2.4v4h.8v1ZM169,557.2c1.1,0,1.9-.6,1.9-1.3v-1.2h-1.5c-1.3,0-1.8.4-1.8,1.1v.3c0,.7.6,1.1,1.4,1.1ZM175.6,558h-1.1v-7.2h1.1v1.2h0c.4-.8,1-1.3,2-1.3s2.4,1,2.4,2.8v4.6h-1.1v-4.4c0-1.3-.6-1.9-1.6-1.9s-1.8.4-1.8,1.4v5ZM185.1,558.2c-2,0-3.2-1.5-3.2-3.8s1.2-3.8,3.2-3.8,2.3.7,2.7,1.7l-.9.5c-.3-.7-.9-1.2-1.8-1.2-1.3,0-2,.9-2,2.2v1.2c0,1.3.7,2.2,2,2.2s1.6-.4,2-1.3l.8.5c-.5,1-1.4,1.7-2.8,1.7ZM192.2,558.2c-2,0-3.2-1.5-3.2-3.8s1.3-3.8,3.2-3.8,3.1,1.5,3.1,3.5v.5h-5.2v.3c0,1.2.8,2.2,2.1,2.2s1.6-.4,2-1.2l.8.6c-.5,1-1.5,1.7-2.9,1.7ZM192.2,551.5c-1.2,0-2.1.9-2.1,2.2h0c0,0,4,0,4,0v-.2c0-1.3-.8-2.1-1.9-2.1ZM199.3,558.2c-1.3,0-2.2-.6-2.9-1.4l.8-.6c.6.7,1.2,1.1,2.1,1.1s1.5-.4,1.5-1.2-.3-1-1.3-1.1h-.6c-1.3-.3-2.3-.8-2.3-2.2s1.1-2.1,2.6-2.1,1.9.4,2.5,1.2l-.7.7c-.3-.4-.9-.9-1.9-.9s-1.4.4-1.4,1.1.5,1,1.4,1.1h.6c1.6.3,2.2,1,2.2,2.1s-1,2.3-2.7,2.3ZM204.6,556.4c.6,0,.9.3.9.8v.2c0,.8-.5,1.8-1.3,2.5h-.9c.6-.6.9-1.1,1.1-1.7-.4,0-.5-.4-.5-.7v-.2c0-.5.3-.8.9-.8ZM212.3,558l-1.9-7.2h1.1l.8,3.1.8,3.2h0l.9-3.2.9-3.1h1l.9,3.1.9,3.2h0l.7-3.2.8-3.1h1.1l-1.9,7.2h-1.4l-1-3.5-.6-2.2h0l-.6,2.2-1,3.5h-1.4ZM221.9,558v-10.4h1.1v4.3h0c.4-.8,1-1.3,2-1.3s2.4,1,2.4,2.8v4.6h-1.1v-4.4c0-1.3-.6-1.9-1.6-1.9s-1.8.4-1.8,1.4v5h-1.1ZM232.5,558.2c-2,0-3.2-1.5-3.2-3.8s1.3-3.8,3.2-3.8,3.1,1.5,3.1,3.5v.5h-5.2v.3c0,1.2.8,2.2,2.1,2.2s1.6-.4,2-1.2l.8.6c-.5,1-1.5,1.7-2.9,1.7ZM232.5,551.5c-1.2,0-2.1.9-2.1,2.2h0c0,0,4,0,4,0v-.2c0-1.3-.8-2.1-1.9-2.1ZM238.7,558h-1.1v-7.2h1.1v1.3h0c.3-.7.9-1.3,2.1-1.3h.4v1.1h-.7c-1.2,0-1.9.5-1.9,1.2v4.9ZM245.4,558.2c-2,0-3.2-1.5-3.2-3.8s1.3-3.8,3.2-3.8,3.1,1.5,3.1,3.5v.5h-5.2v.3c0,1.2.8,2.2,2.1,2.2s1.6-.4,2-1.2l.8.6c-.5,1-1.5,1.7-2.9,1.7ZM245.4,551.5c-1.2,0-2.1.9-2.1,2.2h0c0,0,4,0,4,0v-.2c0-1.3-.8-2.1-1.9-2.1ZM254.8,558h-1.1v-7.2h1.1v1.2h0c.4-.8,1-1.3,2-1.3s2.4,1,2.4,2.8v4.6h-1.1v-4.4c0-1.3-.6-1.9-1.6-1.9s-1.8.4-1.8,1.4v5ZM265.1,556.3v-1.1l4.8-2.1h0c0,0-4.8-2.2-4.8-2.2v-1.1l5.9,2.7v1.2l-5.9,2.7ZM265.1,558v-1h5.9v1h-5.9ZM283.2,558h-6.4v-1h2.7v-7.9h0l-2.5,2.3-.7-.7,2.6-2.4h1.8v8.7h2.5v1Z"/>
      <rect class="cls-15" x="300.5" y="545.5" width="15" height="15" rx="3.5" ry="3.5"/>
      <rect class="cls-5" x="300.5" y="545.5" width="15" height="15" rx="3.5" ry="3.5"/>
      <path class="cls-20" d="M325.3,558v-9.8h1.6l2.8,5.3h0l2.8-5.3h1.5v9.8h-1.1v-8.2h0l-.8,1.6-2.3,4.3-2.3-4.3-.8-1.6h0v8.2h-1.1ZM341,558v-1.2h0c-.3.7-.8,1.3-2,1.3s-2.4-1-2.4-2.8v-4.6h1.1v4.4c0,1.3.6,1.9,1.7,1.9s1.8-.4,1.8-1.4v-5h1.1v7.2h-1.1ZM346.7,558.2c-1.3,0-2.2-.6-2.9-1.4l.8-.6c.6.7,1.2,1.1,2.1,1.1s1.5-.4,1.5-1.2-.3-1-1.3-1.1h-.6c-1.3-.3-2.3-.8-2.3-2.2s1.1-2.1,2.6-2.1,1.9.4,2.5,1.2l-.7.7c-.3-.4-.9-.9-1.9-.9s-1.4.4-1.4,1.1.5,1,1.4,1.1h.6c1.6.3,2.2,1,2.2,2.1s-1,2.3-2.7,2.3ZM354.3,558h-1.4c-.8,0-1.2-.5-1.2-1.2v-5.1h-1.2v-1h.7c.5,0,.6-.2.6-.7v-1.3h1v2h1.6v1h-1.6v5.3h1.5v1ZM359.6,558v-10.4h1.1v4.3h0c.4-.9,1.1-1.3,2.1-1.3,1.8,0,2.9,1.5,2.9,3.8s-1.1,3.8-2.9,3.8-1.7-.4-2.1-1.3h0v1.2h-1.1ZM362.5,557.2c1.3,0,2-.9,2-2.2v-1.2c0-1.3-.8-2.2-2-2.2s-1.9.6-1.9,1.4v2.7c0,.9.8,1.5,1.9,1.5ZM370.4,558.2c-2,0-3.2-1.5-3.2-3.8s1.3-3.8,3.2-3.8,3.1,1.5,3.1,3.5v.5h-5.2v.3c0,1.2.8,2.2,2.1,2.2s1.6-.4,2-1.2l.8.6c-.5,1-1.5,1.7-2.9,1.7ZM370.4,551.5c-1.2,0-2.1.9-2.1,2.2h0c0,0,4,0,4,0v-.2c0-1.3-.8-2.1-1.9-2.1ZM381.4,558.2c-2,0-3.2-1.5-3.2-3.8s1.2-3.8,3.2-3.8,2.3.7,2.7,1.7l-.9.5c-.3-.7-.9-1.2-1.8-1.2-1.3,0-2,.9-2,2.2v1.2c0,1.3.7,2.2,2,2.2s1.6-.4,2-1.3l.8.5c-.5,1-1.4,1.7-2.8,1.7ZM388.5,558.2c-1.9,0-3.3-1.5-3.3-3.8s1.3-3.8,3.3-3.8,3.3,1.5,3.3,3.8-1.3,3.8-3.3,3.8ZM388.5,557.2c1.2,0,2.1-.7,2.1-2.3v-1c0-1.5-.9-2.3-2.1-2.3s-2.1.7-2.1,2.3v1c0,1.5.9,2.3,2.1,2.3ZM394.7,558h-1.1v-7.2h1.1v1.2h0c.4-.8,1-1.3,2-1.3s2.4,1,2.4,2.8v4.6h-1.1v-4.4c0-1.3-.6-1.9-1.6-1.9s-1.8.4-1.8,1.4v5ZM402,558v-6.2h-1.2v-1h1.2v-1.5c0-1,.5-1.7,1.6-1.7h1.1v1h-1.6v2.2h4v7.2h-1.1v-6.2h-2.9v6.2h-1.1ZM406.6,549.1c-.5,0-.7-.3-.7-.6v-.2c0-.4.2-.6.7-.6s.7.3.7.6v.2c0,.4-.2.6-.7.6ZM415.6,558.8c0,1.5-1.2,2.2-3.5,2.2s-3.2-.6-3.2-1.8.4-1.2,1.1-1.4v-.2c-.4-.2-.6-.5-.6-1,0-.7.5-1.1,1.2-1.3h0c-.9-.5-1.4-1.3-1.4-2.3,0-1.5,1.1-2.5,2.7-2.5s1,0,1.4.3h0c0-.7.2-1.1.8-1.1h1.1v1h-1.4v.5c.5.4.8,1.1.8,1.9,0,1.5-1.1,2.5-2.7,2.5s-.5,0-.7,0c-.5.1-1,.4-1,.8s.4.5,1.1.5h1.5c1.8,0,2.6.7,2.6,1.9ZM414.6,558.9c0-.6-.4-1-1.5-1h-2.4c-.5.2-.7.5-.7,1s.4,1.1,1.6,1.1h1c1.2,0,2-.4,2-1.2ZM412.1,554.7c1,0,1.6-.4,1.6-1.4v-.4c0-1-.6-1.4-1.6-1.4s-1.6.4-1.6,1.4v.4c0,1,.6,1.4,1.6,1.4ZM421.3,558v-1.2h0c-.3.7-.8,1.3-2,1.3s-2.4-1-2.4-2.8v-4.6h1.1v4.4c0,1.3.6,1.9,1.7,1.9s1.8-.4,1.8-1.4v-5h1.1v7.2h-1.1ZM426,558h-1.1v-7.2h1.1v1.3h0c.3-.7.9-1.3,2.1-1.3h.4v1.1h-.7c-1.2,0-1.9.5-1.9,1.2v4.9ZM432.7,558.2c-2,0-3.2-1.5-3.2-3.8s1.3-3.8,3.2-3.8,3.1,1.5,3.1,3.5v.5h-5.2v.3c0,1.2.8,2.2,2.1,2.2s1.6-.4,2-1.2l.8.6c-.5,1-1.5,1.7-2.9,1.7ZM432.7,551.5c-1.2,0-2.1.9-2.1,2.2h0c0,0,4,0,4,0v-.2c0-1.3-.8-2.1-1.9-2.1ZM442.3,558v-1.2h0c-.4.9-1.1,1.3-2.1,1.3-1.8,0-2.9-1.5-2.9-3.8s1.1-3.8,2.9-3.8,1.7.4,2.1,1.3h0v-4.3h1.1v10.4h-1.1ZM440.4,557.2c1,0,1.9-.5,1.9-1.5v-2.7c0-.8-.8-1.4-1.9-1.4s-2,.9-2,2.2v1.2c0,1.3.8,2.2,2,2.2ZM452.1,558h-1.4c-.8,0-1.2-.5-1.2-1.2v-5.1h-1.2v-1h.7c.5,0,.6-.2.6-.7v-1.3h1v2h1.6v1h-1.6v5.3h1.5v1ZM456.8,558.2c-1.9,0-3.3-1.5-3.3-3.8s1.3-3.8,3.3-3.8,3.3,1.5,3.3,3.8-1.3,3.8-3.3,3.8ZM456.8,557.2c1.2,0,2.1-.7,2.1-2.3v-1c0-1.5-.9-2.3-2.1-2.3s-2.1.7-2.1,2.3v1c0,1.5.9,2.3,2.1,2.3ZM471.1,558h-.6c-.8,0-1.2-.5-1.2-1.2h0c-.3.9-1.1,1.3-2.1,1.3-1.5,0-2.4-.8-2.4-2.2s1-2.1,3.1-2.1h1.4v-.7c0-1-.6-1.6-1.7-1.6s-1.4.4-1.8,1.1l-.7-.6c.4-.8,1.3-1.4,2.6-1.4s2.8.9,2.8,2.4v4h.8v1ZM467.2,557.2c1.1,0,1.9-.6,1.9-1.3v-1.2h-1.5c-1.3,0-1.8.4-1.8,1.1v.3c0,.7.6,1.1,1.4,1.1ZM474.9,558h-1c-.8,0-1.2-.5-1.2-1.2v-9.2h1.1v9.4h1.1v1ZM478.7,558h-1c-.8,0-1.2-.5-1.2-1.2v-9.2h1.1v9.4h1.1v1ZM483,558.2c-1.9,0-3.3-1.5-3.3-3.8s1.3-3.8,3.3-3.8,3.3,1.5,3.3,3.8-1.3,3.8-3.3,3.8ZM483,557.2c1.2,0,2.1-.7,2.1-2.3v-1c0-1.5-.9-2.3-2.1-2.3s-2.1.7-2.1,2.3v1c0,1.5.9,2.3,2.1,2.3ZM489.3,558l-1.9-7.2h1.1l.8,3.1.8,3.2h0l.9-3.2.9-3.1h1l.9,3.1.9,3.2h0l.7-3.2.8-3.1h1l-1.9,7.2h-1.4l-1-3.5-.6-2.2h0l-.6,2.2-1,3.5h-1.4ZM504.9,558.2c-1.9,0-3.3-1.5-3.3-3.8s1.3-3.8,3.3-3.8,3.3,1.5,3.3,3.8-1.3,3.8-3.3,3.8ZM504.9,557.2c1.2,0,2.1-.7,2.1-2.3v-1c0-1.5-.9-2.3-2.1-2.3s-2.1.7-2.1,2.3v1c0,1.5.9,2.3,2.1,2.3ZM511.2,558h-1.1v-7.2h1.1v1.2h0c.4-.8,1-1.3,2-1.3s2.4,1,2.4,2.8v4.6h-1.1v-4.4c0-1.3-.6-1.9-1.6-1.9s-1.8.4-1.8,1.4v5ZM524.1,558.2c-2,0-3.2-1.5-3.2-3.8s1.2-3.8,3.2-3.8,2.3.7,2.7,1.7l-.9.5c-.3-.7-.9-1.2-1.8-1.2-1.3,0-2,.9-2,2.2v1.2c0,1.3.7,2.2,2,2.2s1.6-.4,2-1.3l.8.5c-.5,1-1.4,1.7-2.8,1.7ZM532.9,558v-1.2h0c-.3.7-.8,1.3-2,1.3s-2.4-1-2.4-2.8v-4.6h1.1v4.4c0,1.3.6,1.9,1.7,1.9s1.8-.4,1.8-1.4v-5h1.1v7.2h-1.1ZM538.6,558.2c-1.3,0-2.2-.6-2.9-1.4l.8-.6c.6.7,1.2,1.1,2.1,1.1s1.5-.4,1.5-1.2-.3-1-1.3-1.1h-.6c-1.3-.3-2.3-.8-2.3-2.2s1.1-2.1,2.6-2.1,1.9.4,2.5,1.2l-.7.7c-.3-.4-.9-.9-1.9-.9s-1.4.4-1.4,1.1.5,1,1.4,1.1h.6c1.6.3,2.2,1,2.2,2.1s-1,2.3-2.7,2.3ZM546.2,558h-1.4c-.8,0-1.2-.5-1.2-1.2v-5.1h-1.2v-1h.7c.5,0,.6-.2.6-.7v-1.3h1v2h1.6v1h-1.6v5.3h1.5v1ZM550.8,558.2c-1.9,0-3.3-1.5-3.3-3.8s1.3-3.8,3.3-3.8,3.3,1.5,3.3,3.8-1.3,3.8-3.3,3.8ZM550.8,557.2c1.2,0,2.1-.7,2.1-2.3v-1c0-1.5-.9-2.3-2.1-2.3s-2.1.7-2.1,2.3v1c0,1.5.9,2.3,2.1,2.3ZM557,558h-1.1v-7.2h1.1v1.2h0c.3-.7.8-1.3,1.9-1.3s1.8.4,2.2,1.5h0c.3-.8,1-1.5,2.2-1.5s2.4,1,2.4,2.8v4.6h-1.1v-4.4c0-1.3-.5-1.9-1.6-1.9s-1.7.4-1.7,1.4v5h-1.1v-4.4c0-1.3-.5-1.9-1.6-1.9s-1.7.4-1.7,1.4v5ZM570.9,558.2c-2,0-3.2-1.5-3.2-3.8s1.3-3.8,3.2-3.8,3.1,1.5,3.1,3.5v.5h-5.2v.3c0,1.2.8,2.2,2.1,2.2s1.6-.4,2-1.2l.8.6c-.5,1-1.5,1.7-2.9,1.7ZM570.9,551.5c-1.2,0-2.1.9-2.1,2.2h0c0,0,4,0,4,0v-.2c0-1.3-.8-2.1-1.9-2.1ZM577,558h-1.1v-7.2h1.1v1.3h0c.3-.7.9-1.3,2.1-1.3h.4v1.1h-.7c-1.2,0-1.9.5-1.9,1.2v4.9ZM585.5,558h-1.1v-7.2h1.1v1.2h0c.3-.7.8-1.3,1.9-1.3s1.8.4,2.2,1.5h0c.3-.8,1-1.5,2.2-1.5s2.4,1,2.4,2.8v4.6h-1.1v-4.4c0-1.3-.5-1.9-1.6-1.9s-1.7.4-1.7,1.4v5h-1.1v-4.4c0-1.3-.5-1.9-1.6-1.9s-1.7.4-1.7,1.4v5ZM602.5,558h-.6c-.8,0-1.2-.5-1.2-1.2h0c-.3.9-1.1,1.3-2.1,1.3-1.5,0-2.4-.8-2.4-2.2s1-2.1,3.1-2.1h1.4v-.7c0-1-.6-1.6-1.7-1.6s-1.4.4-1.8,1.1l-.7-.6c.4-.8,1.3-1.4,2.6-1.4s2.8.9,2.8,2.4v4h.8v1ZM598.6,557.2c1.1,0,1.9-.6,1.9-1.3v-1.2h-1.5c-1.3,0-1.8.4-1.8,1.1v.3c0,.7.6,1.1,1.4,1.1ZM605.2,558h-1.1v-7.2h1.1v1.2h0c.4-.8,1-1.3,2-1.3s2.4,1,2.4,2.8v4.6h-1.1v-4.4c0-1.3-.6-1.9-1.6-1.9s-1.8.4-1.8,1.4v5ZM617.9,558h-.6c-.8,0-1.2-.5-1.2-1.2h0c-.3.9-1.1,1.3-2.1,1.3-1.5,0-2.4-.8-2.4-2.2s1-2.1,3.1-2.1h1.4v-.7c0-1-.6-1.6-1.7-1.6s-1.4.4-1.8,1.1l-.7-.6c.4-.8,1.3-1.4,2.6-1.4s2.8.9,2.8,2.4v4h.8v1ZM614.1,557.2c1.1,0,1.9-.6,1.9-1.3v-1.2h-1.5c-1.3,0-1.8.4-1.8,1.1v.3c0,.7.6,1.1,1.4,1.1ZM625.7,558.8c0,1.5-1.2,2.2-3.5,2.2s-3.2-.6-3.2-1.8.4-1.2,1.1-1.4v-.2c-.4-.2-.6-.5-.6-1,0-.7.5-1.1,1.2-1.3h0c-.9-.5-1.4-1.3-1.4-2.3,0-1.5,1.1-2.5,2.7-2.5s1,0,1.4.3h0c0-.7.2-1.1.8-1.1h1.1v1h-1.4v.5c.5.4.8,1.1.8,1.9,0,1.5-1.1,2.5-2.7,2.5s-.5,0-.7,0c-.5.1-1,.4-1,.8s.4.5,1.1.5h1.5c1.8,0,2.6.7,2.6,1.9ZM624.6,558.9c0-.6-.4-1-1.5-1h-2.4c-.5.2-.7.5-.7,1s.4,1.1,1.6,1.1h1c1.2,0,2-.4,2-1.2ZM622.1,554.7c1,0,1.6-.4,1.6-1.4v-.4c0-1-.6-1.4-1.6-1.4s-1.6.4-1.6,1.4v.4c0,1,.6,1.4,1.6,1.4ZM629.6,558.2c-2,0-3.2-1.5-3.2-3.8s1.3-3.8,3.2-3.8,3.1,1.5,3.1,3.5v.5h-5.2v.3c0,1.2.8,2.2,2.1,2.2s1.6-.4,2-1.2l.8.6c-.5,1-1.5,1.7-2.9,1.7ZM629.6,551.5c-1.2,0-2.1.9-2.1,2.2h0c0,0,4,0,4,0v-.2c0-1.3-.8-2.1-1.9-2.1ZM639.2,558v-1.2h0c-.4.9-1.1,1.3-2.1,1.3-1.8,0-2.9-1.5-2.9-3.8s1.1-3.8,2.9-3.8,1.7.4,2.1,1.3h0v-4.3h1.1v10.4h-1.1ZM637.4,557.2c1,0,1.9-.5,1.9-1.5v-2.7c0-.8-.8-1.4-1.9-1.4s-2,.9-2,2.2v1.2c0,1.3.8,2.2,2,2.2ZM646.6,549.1c-.5,0-.7-.3-.7-.6v-.2c0-.4.2-.6.7-.6s.7.3.7.6v.2c0,.4-.2.6-.7.6ZM646.1,558v-7.2h1.1v7.2h-1.1ZM650.7,558h-1.1v-7.2h1.1v1.2h0c.3-.8,1-1.3,2-1.3s2.4,1,2.4,2.8v4.6h-1.1v-4.4c0-1.3-.6-1.9-1.6-1.9s-1.8.4-1.8,1.4v5ZM658,558v-6.2h-1.2v-1h1.2v-1.5c0-1,.5-1.7,1.6-1.7h1.1v1h-1.6v2.2h1.6v1h-1.6v6.2h-1.1ZM663.3,558h-1.1v-7.2h1.1v1.3h0c.3-.7.9-1.3,2.1-1.3h.4v1.1h-.7c-1.2,0-1.9.5-1.9,1.2v4.9ZM673.1,558h-.6c-.8,0-1.2-.5-1.2-1.2h0c-.3.9-1.1,1.3-2.1,1.3-1.5,0-2.4-.8-2.4-2.2s1-2.1,3.1-2.1h1.4v-.7c0-1-.6-1.6-1.7-1.6s-1.4.4-1.8,1.1l-.7-.6c.4-.8,1.3-1.4,2.6-1.4s2.8.9,2.8,2.4v4h.8v1ZM669.3,557.2c1.1,0,1.9-.6,1.9-1.3v-1.2h-1.5c-1.3,0-1.8.4-1.8,1.1v.3c0,.7.6,1.1,1.4,1.1ZM676.9,558.2c-1.3,0-2.2-.6-2.9-1.4l.8-.6c.6.7,1.2,1.1,2.1,1.1s1.5-.4,1.5-1.2-.3-1-1.3-1.1h-.6c-1.3-.3-2.3-.8-2.3-2.2s1.1-2.1,2.6-2.1,1.9.4,2.5,1.2l-.7.7c-.3-.4-.9-.9-1.9-.9s-1.4.4-1.4,1.1.5,1,1.4,1.1h.6c1.6.3,2.2,1,2.2,2.1s-1,2.3-2.7,2.3ZM684.5,558h-1.4c-.8,0-1.2-.5-1.2-1.2v-5.1h-1.2v-1h.7c.5,0,.6-.2.6-.7v-1.3h1v2h1.6v1h-1.6v5.3h1.5v1ZM687.6,558h-1.1v-7.2h1.1v1.3h0c.3-.7.9-1.3,2.1-1.3h.4v1.1h-.7c-1.2,0-1.9.5-1.9,1.2v4.9ZM696,558v-1.2h0c-.3.7-.8,1.3-2,1.3s-2.4-1-2.4-2.8v-4.6h1.1v4.4c0,1.3.6,1.9,1.7,1.9s1.8-.4,1.8-1.4v-5h1.1v7.2h-1.1ZM702.3,558.2c-2,0-3.2-1.5-3.2-3.8s1.2-3.8,3.2-3.8,2.3.7,2.7,1.7l-.9.5c-.3-.7-.9-1.2-1.8-1.2-1.3,0-2,.9-2,2.2v1.2c0,1.3.7,2.2,2,2.2s1.6-.4,2-1.3l.8.5c-.5,1-1.4,1.7-2.8,1.7ZM709.6,558h-1.4c-.8,0-1.2-.5-1.2-1.2v-5.1h-1.2v-1h.7c.5,0,.6-.2.6-.7v-1.3h1v2h1.6v1h-1.6v5.3h1.5v1ZM716,558v-1.2h0c-.3.7-.8,1.3-2,1.3s-2.4-1-2.4-2.8v-4.6h1.1v4.4c0,1.3.6,1.9,1.7,1.9s1.8-.4,1.8-1.4v-5h1.1v7.2h-1.1ZM720.7,558h-1.1v-7.2h1.1v1.3h0c.3-.7.9-1.3,2.1-1.3h.4v1.1h-.7c-1.2,0-1.9.5-1.9,1.2v4.9ZM727.4,558.2c-2,0-3.2-1.5-3.2-3.8s1.3-3.8,3.2-3.8,3.1,1.5,3.1,3.5v.5h-5.2v.3c0,1.2.8,2.2,2.1,2.2s1.6-.4,2-1.2l.8.6c-.5,1-1.5,1.7-2.9,1.7ZM727.4,551.5c-1.2,0-2.1.9-2.1,2.2h0c0,0,4,0,4,0v-.2c0-1.3-.8-2.1-1.9-2.1Z"/>
      <rect class="cls-15" x="300" y="545" width="17" height="16"/>
      <path class="cls-13" d="M302,561c-.8,0-1.5-.7-1.5-1.5s0-.5.2-.7l6.5-12.5c.3-.5.8-.8,1.3-.8s.5,0,.7.2c.3.1.5.4.6.6l6.5,12.5c.2.4.2.8.1,1.1-.1.4-.4.7-.7.9-.2.1-.5.2-.7.2h-13Z"/>
      <rect class="cls-15" x="300.5" y="545" width="16" height="16"/>
      <path class="cls-14" d="M308.5,548.1h0l-5.7,10.9h0s11.3,0,11.3,0h0s-5.7-10.9-5.7-10.9ZM307.9,551h1.1v4.5h-1.1v-4.5ZM308.5,558c-.1,0-.3,0-.4-.1-.1,0-.2-.2-.3-.3,0-.1,0-.3,0-.4,0-.1.1-.3.2-.4.1-.1.2-.2.4-.2.1,0,.3,0,.4,0,.1,0,.3.2.3.3,0,.1.1.3.1.4s0,.4-.2.5c-.1.1-.3.2-.5.2Z"/>
      <path class="cls-14" d="M315,560h-13c0,0-.2,0-.2,0,0,0-.1-.1-.2-.2,0,0,0-.2,0-.2,0,0,0-.2,0-.2l6.5-12.5c0,0,.1-.1.2-.2,0,0,.2,0,.3,0s.2,0,.3,0c0,0,.1.1.2.2l6.5,12.5c0,0,0,.2,0,.2,0,0,0,.2,0,.2,0,0-.1.1-.2.2,0,0-.2,0-.2,0ZM302.8,559h11.4s-5.7-10.9-5.7-10.9h0l-5.7,10.9h0Z"/>
      <path class="cls-17" d="M460,188h64c6.6,0,12,5.4,12,12h0c0,6.6-5.4,12-12,12h-64c-6.6,0-12-5.4-12-12h0c0-6.6,5.4-12,12-12Z"/>
      <path class="cls-19" d="M478.6,196.5h-2.7v7.5h-1v-7.5h-2.7v-.9h6.3v.9ZM483.4,204v-1h0c-.2.6-.7,1.2-1.7,1.2s-2.1-.9-2.1-2.4v-4h1v3.8c0,1.1.5,1.7,1.4,1.7s1.5-.4,1.5-1.2v-4.3h1v6.2h-1ZM487.7,204h-1v-6.2h1v1h0c.3-.7.8-1.2,1.8-1.2s2.1.9,2.1,2.4v4h-1v-3.8c0-1.1-.5-1.7-1.4-1.7s-1.5.4-1.5,1.2v4.3ZM494.9,204h-1v-6.2h1v1h0c.3-.7.8-1.2,1.8-1.2s2.1.9,2.1,2.4v4h-1v-3.8c0-1.1-.5-1.7-1.4-1.7s-1.5.4-1.5,1.2v4.3ZM503.4,204.1c-1.7,0-2.8-1.3-2.8-3.2s1.1-3.2,2.8-3.2,2.7,1.3,2.7,3v.5h-4.5v.3c0,1.1.7,1.9,1.8,1.9s1.4-.4,1.7-1.1l.7.5c-.4.8-1.3,1.4-2.4,1.4ZM503.4,198.5c-1,0-1.8.8-1.8,1.9h0c0,0,3.4,0,3.4,0h0c0-1.2-.7-2-1.6-2ZM509.8,204h-.9c-.7,0-1-.4-1-1v-7.9h1v8h.9v.8Z"/>
      <rect class="cls-12" x="483.5" y="207" width="16" height="0"/>
      <path class="cls-18" d="M365,202.9l-5-2.9,5-2.9v2.4h83v1h-83v2.4Z"/>
      <path class="cls-18" d="M544,200.5h-8v-1h8c4.7,0,8.5,3.8,8.5,8.5v160c0,4.1,3.4,7.5,7.5,7.5h99v-2.4l5,2.9-5,2.9v-2.4h-99c-4.7,0-8.5-3.8-8.5-8.5v-160c0-4.1-3.4-7.5-7.5-7.5Z"/>
    </g>
  </g>
</svg>