<?xml version="1.0" encoding="UTF-8"?><svg xmlns="http://www.w3.org/2000/svg" width="515" height="430" viewBox="0 0 515 430"><defs><style>.c{letter-spacing:.02em;}.d{letter-spacing:0em;}.e{letter-spacing:0em;}.f{stroke-dasharray:0 0 7.94 7.94;}.f,.g,.h,.i{fill:none;stroke-miterlimit:10;}.f,.g,.i{stroke:#000;}.j{fill:#f6f2ff;}.k{fill:#ffd7d9;}.l{fill:#d0e2ff;}.m{letter-spacing:0em;}.h{stroke:#858585;}.n{letter-spacing:0em;}.o{font-family:IBMPlexSans, IBM Plex Sans;font-size:17px;}.i{stroke-dasharray:0 0 8.03 8.03;}.p{letter-spacing:0em;}.q{letter-spacing:0em;}.r{letter-spacing:-.01em;}</style></defs><g id="a"><rect class="l" x="190" y="181" width="135" height="59"/><rect class="j" x="190" y="276.5" width="135" height="57.5"/><line class="h" x1="85.54" y1="182.5" x2="241.5" y2="60.5"/><line class="h" x1="257.5" y1="180.5" x2="257.54" y2="61"/><line class="h" x1="278.5" y1="59.5" x2="433.54" y2="179.5"/><g><polyline class="g" points="514.5 425.5 514.5 429.5 510.5 429.5"/><line class="i" x1="502.47" y1="429.5" x2="8.52" y2="429.5"/><polyline class="g" points="4.5 429.5 .5 429.5 .5 425.5"/><line class="f" x1=".5" y1="417.56" x2=".5" y2="167.47"/><polyline class="g" points=".5 163.5 .5 159.5 4.5 159.5"/><line class="i" x1="12.53" y1="159.5" x2="506.48" y2="159.5"/><polyline class="g" points="510.5 159.5 514.5 159.5 514.5 163.5"/><line class="f" x1="514.5" y1="171.44" x2="514.5" y2="421.53"/></g><rect class="k" x="190" y="243.82" width="135" height="28.23"/><rect class="l" x="353.78" y="180.35" width="135" height="59"/><rect class="j" x="353.78" y="275.85" width="135" height="57.5"/><rect class="k" x="353.78" y="243.17" width="135" height="28.23"/><rect class="l" x="25.78" y="181.35" width="135" height="59"/><rect class="j" x="25.78" y="276.85" width="135" height="57.5"/><rect class="k" x="25.78" y="244.17" width="135" height="28.23"/><rect class="l" x="49" width="407" height="59"/></g><g id="b"><g><path d="M211.98,206.78c-1.51,0-2.68-.51-3.52-1.54s-1.26-2.54-1.26-4.53,.42-3.53,1.26-4.6c.84-1.07,2.01-1.61,3.52-1.61,1,0,1.83,.22,2.51,.67,.67,.45,1.2,1.09,1.57,1.91l-1.16,.7c-.24-.61-.6-1.1-1.09-1.47s-1.1-.55-1.84-.55c-.51,0-.97,.1-1.37,.29s-.74,.47-1.02,.83c-.28,.36-.49,.79-.64,1.28-.15,.5-.22,1.05-.22,1.66v1.77c0,1.23,.28,2.19,.85,2.88,.57,.69,1.37,1.04,2.4,1.04,.76,0,1.39-.2,1.9-.59,.51-.39,.88-.91,1.12-1.55l1.14,.71c-.37,.84-.91,1.5-1.61,1.97-.7,.48-1.55,.71-2.55,.71Z"/><path d="M221.54,206.78c-.59,0-1.13-.11-1.62-.32-.49-.21-.9-.52-1.25-.93s-.62-.88-.81-1.45-.29-1.19-.29-1.9,.1-1.32,.29-1.89,.46-1.05,.81-1.45c.35-.4,.76-.71,1.25-.93,.49-.22,1.03-.32,1.62-.32s1.12,.11,1.61,.32c.48,.21,.9,.52,1.25,.93,.35,.4,.62,.89,.82,1.45,.19,.57,.29,1.2,.29,1.89s-.1,1.33-.29,1.9c-.19,.56-.46,1.04-.82,1.45-.35,.4-.77,.71-1.25,.93-.48,.22-1.02,.32-1.61,.32Zm0-1.21c.74,0,1.34-.23,1.8-.68s.7-1.14,.7-2.07v-1.26c0-.93-.23-1.62-.7-2.07s-1.07-.68-1.8-.68-1.34,.23-1.8,.68-.7,1.14-.7,2.07v1.26c0,.93,.23,1.62,.7,2.07s1.07,.68,1.8,.68Z"/><path d="M227.74,206.58v-8.77h1.36v1.41h.07c.21-.49,.52-.89,.91-1.18,.39-.29,.92-.44,1.57-.44,.91,0,1.62,.29,2.15,.88,.53,.58,.79,1.41,.79,2.47v5.63h-1.36v-5.4c0-1.58-.66-2.37-1.99-2.37-.27,0-.54,.03-.79,.1-.25,.07-.48,.17-.69,.31-.2,.14-.37,.31-.48,.52s-.18,.46-.18,.74v6.1h-1.36Z"/><path d="M239.34,206.58c-.48,0-.84-.13-1.08-.4-.24-.27-.37-.61-.37-1.04v-6.12h-1.45v-1.21h.82c.29,0,.5-.06,.6-.18,.11-.12,.16-.33,.16-.62v-1.63h1.22v2.43h1.92v1.21h-1.92v6.36h1.79v1.21h-1.7Z"/><path d="M243.37,206.58v-8.77h1.36v1.61h.08c.16-.42,.44-.79,.85-1.12,.41-.33,.97-.49,1.68-.49h.53v1.36h-.8c-.74,0-1.31,.14-1.73,.42-.41,.28-.62,.63-.62,1.04v5.95h-1.36Z"/><path d="M252.83,206.78c-.59,0-1.13-.11-1.62-.32-.49-.21-.9-.52-1.25-.93s-.62-.88-.81-1.45-.29-1.19-.29-1.9,.1-1.32,.29-1.89,.46-1.05,.81-1.45c.35-.4,.76-.71,1.25-.93,.49-.22,1.03-.32,1.62-.32s1.12,.11,1.61,.32c.48,.21,.9,.52,1.25,.93,.35,.4,.62,.89,.82,1.45,.19,.57,.29,1.2,.29,1.89s-.1,1.33-.29,1.9c-.19,.56-.46,1.04-.82,1.45-.35,.4-.77,.71-1.25,.93-.48,.22-1.02,.32-1.61,.32Zm0-1.21c.74,0,1.34-.23,1.8-.68s.7-1.14,.7-2.07v-1.26c0-.93-.23-1.62-.7-2.07s-1.07-.68-1.8-.68-1.34,.23-1.8,.68-.7,1.14-.7,2.07v1.26c0,.93,.23,1.62,.7,2.07s1.07,.68,1.8,.68Z"/><path d="M260.48,206.58c-.48,0-.84-.13-1.08-.4-.24-.27-.37-.6-.37-1.01v-11.17h1.36v11.37h1.29v1.21h-1.21Z"/><path d="M267.67,197.81h1.36v1.41h.07c.23-.55,.56-.96,.99-1.22s.96-.4,1.57-.4c.54,0,1.04,.11,1.48,.32,.44,.21,.82,.52,1.13,.92,.31,.4,.55,.88,.71,1.44,.16,.57,.25,1.2,.25,1.9s-.08,1.34-.25,1.9c-.17,.57-.4,1.05-.71,1.44-.31,.4-.69,.7-1.13,.92-.44,.22-.93,.32-1.48,.32-1.19,0-2.05-.54-2.57-1.62h-.07v4.81h-1.36v-12.17Zm3.62,7.77c.77,0,1.38-.24,1.82-.73,.44-.48,.66-1.12,.66-1.91v-1.5c0-.79-.22-1.42-.66-1.91-.44-.48-1.05-.73-1.82-.73-.31,0-.6,.04-.88,.13-.28,.09-.52,.2-.72,.35-.2,.15-.37,.33-.48,.54s-.18,.44-.18,.67v3.28c0,.29,.06,.54,.18,.76,.12,.22,.28,.41,.48,.56s.45,.27,.72,.35c.28,.08,.57,.12,.88,.12Z"/><path d="M278.98,206.58c-.48,0-.84-.13-1.08-.4-.24-.27-.37-.6-.37-1.01v-11.17h1.36v11.37h1.29v1.21h-1.21Z"/><path d="M288.53,206.58c-.51,0-.88-.14-1.1-.41-.22-.27-.36-.61-.42-1.02h-.08c-.19,.54-.51,.95-.95,1.22-.44,.27-.97,.41-1.58,.41-.93,0-1.65-.24-2.17-.71s-.77-1.12-.77-1.94,.3-1.46,.91-1.9c.61-.44,1.55-.66,2.83-.66h1.73v-.87c0-.62-.17-1.1-.51-1.43s-.86-.49-1.56-.49c-.53,0-.98,.12-1.33,.36-.36,.24-.65,.55-.89,.95l-.82-.76c.24-.48,.62-.88,1.14-1.22,.52-.33,1.18-.5,1.97-.5,1.07,0,1.89,.26,2.48,.78,.59,.52,.88,1.24,.88,2.17v4.82h1v1.21h-.76Zm-3.91-.95c.34,0,.65-.04,.93-.12,.28-.08,.53-.19,.73-.34,.2-.15,.36-.32,.48-.51,.11-.19,.17-.4,.17-.63v-1.45h-1.8c-.78,0-1.35,.11-1.71,.34-.36,.23-.54,.55-.54,.99v.36c0,.43,.16,.76,.47,1s.73,.36,1.27,.36Z"/><path d="M291.24,206.58v-8.77h1.36v1.41h.07c.21-.49,.52-.89,.91-1.18,.39-.29,.92-.44,1.57-.44,.91,0,1.62,.29,2.15,.88,.53,.58,.79,1.41,.79,2.47v5.63h-1.36v-5.4c0-1.58-.66-2.37-1.99-2.37-.27,0-.54,.03-.79,.1-.25,.07-.48,.17-.69,.31-.2,.14-.37,.31-.48,.52s-.18,.46-.18,.74v6.1h-1.36Z"/><path d="M304.19,206.78c-.6,0-1.14-.11-1.62-.32-.48-.21-.9-.52-1.24-.93-.35-.4-.61-.88-.8-1.45-.19-.56-.28-1.19-.28-1.9s.09-1.32,.28-1.89c.19-.57,.45-1.05,.8-1.45,.34-.4,.76-.71,1.24-.93,.48-.22,1.02-.32,1.62-.32s1.12,.11,1.58,.32c.46,.21,.86,.51,1.19,.89,.33,.38,.58,.83,.76,1.35s.26,1.09,.26,1.71v.64h-6.31v.41c0,.37,.06,.72,.18,1.04s.29,.6,.51,.84c.22,.24,.49,.42,.82,.56,.32,.14,.69,.2,1.1,.2,.55,0,1.04-.13,1.45-.39s.73-.63,.96-1.12l.97,.7c-.28,.6-.73,1.09-1.33,1.46-.6,.37-1.31,.56-2.14,.56Zm0-8.04c-.37,0-.71,.07-1.02,.19-.31,.13-.57,.31-.79,.55-.22,.24-.39,.52-.52,.84s-.19,.67-.19,1.06v.12h4.85v-.19c0-.78-.21-1.4-.64-1.87-.42-.47-.99-.7-1.69-.7Z"/><path d="M212.36,218.21h1.33l.94,3.79,.93,3.84h.03l1.07-3.84,1.1-3.79h1.21l1.14,3.79,1.09,3.84h.03l.9-3.84,.95-3.79h1.28l-2.33,8.77h-1.68l-1.22-4.22-.76-2.67h-.03l-.75,2.67-1.22,4.22h-1.65l-2.35-8.77Z"/><path d="M229.56,227.18c-.59,0-1.13-.11-1.62-.32-.49-.21-.9-.52-1.25-.93s-.62-.88-.81-1.45-.29-1.19-.29-1.9,.1-1.32,.29-1.89,.46-1.05,.81-1.45c.35-.4,.76-.71,1.25-.93,.49-.22,1.03-.32,1.62-.32s1.12,.11,1.61,.32c.48,.21,.9,.52,1.25,.93,.35,.4,.62,.89,.82,1.45,.19,.57,.29,1.2,.29,1.89s-.1,1.33-.29,1.9c-.19,.56-.46,1.04-.82,1.45-.35,.4-.77,.71-1.25,.93-.48,.22-1.02,.32-1.61,.32Zm0-1.21c.74,0,1.34-.23,1.8-.68s.7-1.14,.7-2.07v-1.26c0-.93-.23-1.62-.7-2.07s-1.07-.68-1.8-.68-1.34,.23-1.8,.68-.7,1.14-.7,2.07v1.26c0,.93,.23,1.62,.7,2.07s1.07,.68,1.8,.68Z"/><path d="M235.77,226.98v-8.77h1.36v1.61h.08c.16-.42,.44-.79,.85-1.12,.41-.33,.97-.49,1.68-.49h.53v1.36h-.8c-.74,0-1.31,.14-1.73,.42-.41,.28-.62,.63-.62,1.04v5.95h-1.36Z"/><path d="M242,214.4h1.36v7.97h.07l1.34-1.5,2.48-2.67h1.65l-3.25,3.47,3.57,5.3h-1.65l-2.91-4.47-1.31,1.34v3.13h-1.36v-12.58Z"/><path d="M253.97,227.18c-.6,0-1.14-.11-1.62-.32-.48-.21-.9-.52-1.24-.93-.35-.4-.61-.88-.8-1.45-.19-.56-.28-1.19-.28-1.9s.09-1.32,.28-1.89c.19-.57,.45-1.05,.8-1.45,.34-.4,.76-.71,1.24-.93,.48-.22,1.02-.32,1.62-.32s1.12,.11,1.58,.32c.46,.21,.86,.51,1.19,.89,.33,.38,.58,.83,.76,1.35s.26,1.09,.26,1.71v.64h-6.31v.41c0,.37,.06,.72,.18,1.04s.29,.6,.51,.84c.22,.24,.49,.42,.82,.56,.32,.14,.69,.2,1.1,.2,.55,0,1.04-.13,1.45-.39s.73-.63,.96-1.12l.97,.7c-.28,.6-.73,1.09-1.33,1.46-.6,.37-1.31,.56-2.14,.56Zm0-8.04c-.37,0-.71,.07-1.02,.19-.31,.13-.57,.31-.79,.55-.22,.24-.39,.52-.52,.84s-.19,.67-.19,1.06v.12h4.85v-.19c0-.78-.21-1.4-.64-1.87-.42-.47-.99-.7-1.69-.7Z"/><path d="M260.01,226.98v-8.77h1.36v1.61h.08c.16-.42,.44-.79,.85-1.12,.41-.33,.97-.49,1.68-.49h.53v1.36h-.8c-.74,0-1.31,.14-1.73,.42-.41,.28-.62,.63-.62,1.04v5.95h-1.36Z"/><path d="M270.26,226.98v-8.77h1.36v1.41h.07c.21-.49,.52-.89,.91-1.18,.39-.29,.92-.44,1.57-.44,.91,0,1.62,.29,2.15,.88,.53,.58,.79,1.41,.79,2.47v5.63h-1.36v-5.4c0-1.58-.66-2.37-1.99-2.37-.27,0-.54,.03-.79,.1-.25,.07-.48,.17-.69,.31-.2,.14-.37,.31-.48,.52s-.18,.46-.18,.74v6.1h-1.36Z"/><path d="M283.23,227.18c-.59,0-1.13-.11-1.62-.32-.49-.21-.9-.52-1.25-.93s-.62-.88-.81-1.45-.29-1.19-.29-1.9,.1-1.32,.29-1.89,.46-1.05,.81-1.45c.35-.4,.76-.71,1.25-.93,.49-.22,1.03-.32,1.62-.32s1.12,.11,1.61,.32c.48,.21,.9,.52,1.25,.93,.35,.4,.62,.89,.82,1.45,.19,.57,.29,1.2,.29,1.89s-.1,1.33-.29,1.9c-.19,.56-.46,1.04-.82,1.45-.35,.4-.77,.71-1.25,.93-.48,.22-1.02,.32-1.61,.32Zm0-1.21c.74,0,1.34-.23,1.8-.68s.7-1.14,.7-2.07v-1.26c0-.93-.23-1.62-.7-2.07s-1.07-.68-1.8-.68-1.34,.23-1.8,.68-.7,1.14-.7,2.07v1.26c0,.93,.23,1.62,.7,2.07s1.07,.68,1.8,.68Z"/><path d="M295.04,225.57h-.07c-.53,1.08-1.39,1.62-2.57,1.62-.54,0-1.04-.11-1.48-.32-.44-.21-.82-.52-1.13-.92-.31-.4-.55-.88-.71-1.44-.17-.57-.25-1.2-.25-1.9s.08-1.34,.25-1.9c.16-.57,.4-1.05,.71-1.44s.69-.7,1.13-.92c.44-.22,.93-.32,1.48-.32,.61,0,1.14,.13,1.57,.4s.77,.67,1,1.22h.07v-5.22h1.36v12.58h-1.36v-1.41Zm-2.26,.41c.31,0,.6-.04,.88-.12,.28-.08,.52-.2,.72-.35,.2-.15,.37-.34,.49-.56,.12-.22,.18-.48,.18-.76v-3.28c0-.24-.06-.46-.18-.67-.12-.21-.28-.39-.49-.54-.2-.15-.44-.26-.72-.35-.28-.08-.57-.13-.88-.13-.77,0-1.38,.24-1.82,.73-.44,.48-.66,1.12-.66,1.91v1.5c0,.79,.22,1.42,.66,1.91,.44,.48,1.05,.73,1.82,.73Z"/><path d="M302.59,227.18c-.6,0-1.14-.11-1.62-.32-.48-.21-.9-.52-1.24-.93-.35-.4-.61-.88-.8-1.45-.19-.56-.28-1.19-.28-1.9s.09-1.32,.28-1.89c.19-.57,.45-1.05,.8-1.45,.34-.4,.76-.71,1.24-.93,.48-.22,1.02-.32,1.62-.32s1.12,.11,1.58,.32c.46,.21,.86,.51,1.19,.89,.33,.38,.58,.83,.76,1.35s.26,1.09,.26,1.71v.64h-6.31v.41c0,.37,.06,.72,.18,1.04s.29,.6,.51,.84c.22,.24,.49,.42,.82,.56,.32,.14,.69,.2,1.1,.2,.55,0,1.04-.13,1.45-.39s.73-.63,.96-1.12l.97,.7c-.28,.6-.73,1.09-1.33,1.46-.6,.37-1.31,.56-2.14,.56Zm0-8.04c-.37,0-.71,.07-1.02,.19-.31,.13-.57,.31-.79,.55-.22,.24-.39,.52-.52,.84s-.19,.67-.19,1.06v.12h4.85v-.19c0-.78-.21-1.4-.64-1.87-.42-.47-.99-.7-1.69-.7Z"/></g><text class="o" transform="translate(205.85 298.03)"><tspan x="0" y="0">Ba</tspan><tspan class="q" x="20.18" y="0">r</tspan><tspan x="26.33" y="0">e metal or </tspan><tspan x="-7.17" y="20.4">vi</tspan><tspan class="d" x="5.45" y="20.4">r</tspan><tspan x="11.76" y="20.4">tual machine</tspan></text><text class="o" transform="translate(162.41 413.23)"><tspan x="0" y="0">On-p</tspan><tspan class="q" x="38.33" y="0">r</tspan><tspan x="44.49" y="0">emises data </tspan><tspan class="e" x="140.81" y="0">c</tspan><tspan x="149.26" y="0">en</tspan><tspan class="m" x="168.25" y="0">t</tspan><tspan x="174.15" y="0">er</tspan></text><text class="o" transform="translate(233.99 358.22)"><tspan x="0" y="0">Ho</tspan><tspan class="n" x="21.54" y="0">s</tspan><tspan x="29.7" y="0">t 2</tspan></text><text class="o" transform="translate(392.51 359.15)"><tspan x="0" y="0">Ho</tspan><tspan class="n" x="21.54" y="0">s</tspan><tspan x="29.7" y="0">t 3</tspan></text><text class="o" transform="translate(205.8 265.03)"><tspan x="0" y="0">RHE</tspan><tspan class="c" x="32.81" y="0">L</tspan><tspan x="41.75" y="0">/RH</tspan><tspan class="r" x="71.16" y="0">C</tspan><tspan x="81.5" y="0">OS</tspan></text><g><path d="M375.76,206.13c-1.51,0-2.68-.51-3.52-1.54-.84-1.03-1.26-2.54-1.26-4.53s.42-3.53,1.26-4.6,2.01-1.61,3.52-1.61c1,0,1.83,.22,2.51,.67,.67,.45,1.2,1.08,1.57,1.91l-1.16,.7c-.24-.61-.6-1.1-1.09-1.47s-1.1-.55-1.84-.55c-.51,0-.97,.1-1.37,.29s-.74,.47-1.02,.83c-.28,.36-.49,.78-.64,1.28-.15,.49-.22,1.05-.22,1.66v1.77c0,1.23,.28,2.19,.85,2.88,.57,.69,1.37,1.04,2.4,1.04,.76,0,1.39-.2,1.9-.59,.51-.39,.88-.91,1.12-1.56l1.14,.71c-.37,.84-.91,1.5-1.61,1.97-.7,.48-1.55,.71-2.55,.71Z"/><path d="M385.31,206.13c-.59,0-1.13-.11-1.62-.32s-.9-.52-1.25-.93-.62-.88-.81-1.45c-.19-.56-.29-1.19-.29-1.9s.1-1.32,.29-1.89c.19-.57,.46-1.05,.81-1.45s.76-.71,1.25-.93c.49-.21,1.03-.32,1.62-.32s1.12,.11,1.61,.32c.48,.22,.9,.52,1.25,.93,.35,.4,.62,.89,.82,1.45,.19,.57,.29,1.2,.29,1.89s-.1,1.33-.29,1.9c-.19,.56-.46,1.04-.82,1.45-.35,.4-.77,.71-1.25,.93s-1.02,.32-1.61,.32Zm0-1.21c.74,0,1.34-.23,1.8-.68,.46-.45,.7-1.14,.7-2.07v-1.26c0-.93-.23-1.62-.7-2.07s-1.07-.68-1.8-.68-1.34,.23-1.8,.68-.7,1.14-.7,2.07v1.26c0,.93,.23,1.62,.7,2.07,.46,.45,1.07,.68,1.8,.68Z"/><path d="M391.52,205.93v-8.77h1.36v1.41h.07c.21-.49,.52-.89,.91-1.18,.39-.29,.92-.44,1.57-.44,.91,0,1.62,.29,2.15,.88,.53,.58,.79,1.41,.79,2.47v5.63h-1.36v-5.4c0-1.58-.66-2.37-1.99-2.37-.27,0-.54,.03-.79,.1s-.48,.17-.69,.31c-.2,.14-.37,.31-.48,.52s-.18,.46-.18,.74v6.1h-1.36Z"/><path d="M403.11,205.93c-.48,0-.84-.13-1.08-.4-.24-.27-.37-.61-.37-1.04v-6.12h-1.45v-1.21h.82c.29,0,.5-.06,.6-.18,.11-.12,.16-.33,.16-.62v-1.63h1.22v2.43h1.92v1.21h-1.92v6.36h1.79v1.21h-1.7Z"/><path d="M407.14,205.93v-8.77h1.36v1.62h.08c.16-.42,.44-.79,.85-1.12,.41-.33,.97-.49,1.68-.49h.53v1.36h-.8c-.74,0-1.31,.14-1.73,.42-.41,.28-.62,.63-.62,1.05v5.95h-1.36Z"/><path d="M416.61,206.13c-.59,0-1.13-.11-1.62-.32s-.9-.52-1.25-.93-.62-.88-.81-1.45c-.19-.56-.29-1.19-.29-1.9s.1-1.32,.29-1.89c.19-.57,.46-1.05,.81-1.45s.76-.71,1.25-.93c.49-.21,1.03-.32,1.62-.32s1.12,.11,1.61,.32c.48,.22,.9,.52,1.25,.93,.35,.4,.62,.89,.82,1.45,.19,.57,.29,1.2,.29,1.89s-.1,1.33-.29,1.9c-.19,.56-.46,1.04-.82,1.45-.35,.4-.77,.71-1.25,.93s-1.02,.32-1.61,.32Zm0-1.21c.74,0,1.34-.23,1.8-.68,.46-.45,.7-1.14,.7-2.07v-1.26c0-.93-.23-1.62-.7-2.07s-1.07-.68-1.8-.68-1.34,.23-1.8,.68-.7,1.14-.7,2.07v1.26c0,.93,.23,1.62,.7,2.07,.46,.45,1.07,.68,1.8,.68Z"/><path d="M424.26,205.93c-.48,0-.84-.13-1.08-.4-.24-.27-.37-.6-.37-1.01v-11.17h1.36v11.37h1.29v1.21h-1.21Z"/><path d="M431.45,197.16h1.36v1.41h.07c.23-.55,.56-.96,.99-1.22,.44-.26,.96-.4,1.57-.4,.54,0,1.04,.11,1.48,.32,.44,.22,.82,.52,1.13,.92,.31,.4,.55,.88,.71,1.45,.16,.57,.25,1.2,.25,1.9s-.08,1.34-.25,1.9c-.17,.57-.4,1.05-.71,1.45-.31,.4-.69,.7-1.13,.92s-.93,.32-1.48,.32c-1.19,0-2.05-.54-2.57-1.62h-.07v4.81h-1.36v-12.17Zm3.62,7.77c.77,0,1.38-.24,1.82-.73,.44-.48,.66-1.12,.66-1.91v-1.5c0-.79-.22-1.42-.66-1.91-.44-.48-1.05-.73-1.82-.73-.31,0-.6,.04-.88,.13-.28,.08-.52,.2-.72,.35-.2,.15-.37,.33-.48,.54-.12,.21-.18,.44-.18,.67v3.28c0,.28,.06,.54,.18,.76,.12,.22,.28,.41,.48,.56,.2,.15,.45,.27,.72,.35,.28,.08,.57,.12,.88,.12Z"/><path d="M442.75,205.93c-.48,0-.84-.13-1.08-.4-.24-.27-.37-.6-.37-1.01v-11.17h1.36v11.37h1.29v1.21h-1.21Z"/><path d="M452.31,205.93c-.51,0-.88-.14-1.1-.41-.22-.27-.36-.61-.42-1.02h-.08c-.19,.54-.51,.95-.95,1.22-.44,.27-.97,.41-1.58,.41-.93,0-1.65-.24-2.17-.71-.52-.48-.77-1.12-.77-1.94s.3-1.46,.91-1.9c.61-.44,1.55-.66,2.83-.66h1.73v-.87c0-.62-.17-1.1-.51-1.43-.34-.33-.86-.49-1.56-.49-.53,0-.98,.12-1.33,.36s-.65,.56-.89,.95l-.82-.76c.24-.48,.62-.88,1.14-1.22s1.18-.5,1.97-.5c1.07,0,1.89,.26,2.48,.78,.59,.52,.88,1.24,.88,2.17v4.82h1v1.21h-.76Zm-3.91-.95c.34,0,.65-.04,.93-.12s.53-.19,.73-.34,.36-.32,.48-.51c.11-.19,.17-.4,.17-.63v-1.45h-1.8c-.78,0-1.35,.11-1.71,.34-.36,.23-.54,.56-.54,.99v.36c0,.43,.16,.77,.47,1,.31,.24,.73,.36,1.27,.36Z"/><path d="M455.01,205.93v-8.77h1.36v1.41h.07c.21-.49,.52-.89,.91-1.18,.39-.29,.92-.44,1.57-.44,.91,0,1.62,.29,2.15,.88,.53,.58,.79,1.41,.79,2.47v5.63h-1.36v-5.4c0-1.58-.66-2.37-1.99-2.37-.27,0-.54,.03-.79,.1s-.48,.17-.69,.31c-.2,.14-.37,.31-.48,.52s-.18,.46-.18,.74v6.1h-1.36Z"/><path d="M467.97,206.13c-.6,0-1.14-.11-1.62-.32-.48-.21-.9-.52-1.24-.93-.35-.4-.61-.88-.8-1.45-.19-.56-.28-1.19-.28-1.9s.09-1.32,.28-1.89c.19-.57,.45-1.05,.8-1.45,.34-.4,.76-.71,1.24-.93,.48-.21,1.02-.32,1.62-.32s1.12,.11,1.58,.32,.86,.51,1.19,.89c.33,.38,.58,.83,.76,1.35s.26,1.09,.26,1.71v.64h-6.31v.41c0,.37,.06,.72,.18,1.05,.12,.32,.29,.6,.51,.84,.22,.24,.49,.43,.82,.56s.69,.2,1.1,.2c.55,0,1.04-.13,1.45-.39s.73-.63,.96-1.12l.97,.7c-.28,.6-.73,1.09-1.33,1.46-.6,.37-1.31,.56-2.14,.56Zm0-8.04c-.37,0-.71,.06-1.02,.19-.31,.13-.57,.31-.79,.55s-.39,.52-.52,.84c-.12,.32-.19,.67-.19,1.06v.12h4.85v-.19c0-.78-.21-1.4-.64-1.87-.42-.47-.99-.7-1.69-.7Z"/><path d="M376.13,217.56h1.33l.94,3.79,.93,3.84h.03l1.07-3.84,1.1-3.79h1.21l1.14,3.79,1.09,3.84h.03l.9-3.84,.95-3.79h1.28l-2.33,8.77h-1.68l-1.22-4.22-.76-2.67h-.03l-.75,2.67-1.22,4.22h-1.65l-2.35-8.77Z"/><path d="M393.34,226.53c-.59,0-1.13-.11-1.62-.32s-.9-.52-1.25-.93-.62-.88-.81-1.45c-.19-.56-.29-1.19-.29-1.9s.1-1.32,.29-1.89c.19-.57,.46-1.05,.81-1.45s.76-.71,1.25-.93c.49-.21,1.03-.32,1.62-.32s1.12,.11,1.61,.32c.48,.22,.9,.52,1.25,.93,.35,.4,.62,.89,.82,1.45,.19,.57,.29,1.2,.29,1.89s-.1,1.33-.29,1.9c-.19,.56-.46,1.04-.82,1.45-.35,.4-.77,.71-1.25,.93s-1.02,.32-1.61,.32Zm0-1.21c.74,0,1.34-.23,1.8-.68,.46-.45,.7-1.14,.7-2.07v-1.26c0-.93-.23-1.62-.7-2.07s-1.07-.68-1.8-.68-1.34,.23-1.8,.68-.7,1.14-.7,2.07v1.26c0,.93,.23,1.62,.7,2.07,.46,.45,1.07,.68,1.8,.68Z"/><path d="M399.54,226.33v-8.77h1.36v1.62h.08c.16-.42,.44-.79,.85-1.12,.41-.33,.97-.49,1.68-.49h.53v1.36h-.8c-.74,0-1.31,.14-1.73,.42-.41,.28-.62,.63-.62,1.05v5.95h-1.36Z"/><path d="M405.78,213.75h1.36v7.97h.07l1.34-1.5,2.48-2.67h1.65l-3.25,3.47,3.57,5.3h-1.65l-2.91-4.47-1.31,1.34v3.13h-1.36v-12.58Z"/><path d="M417.75,226.53c-.6,0-1.14-.11-1.62-.32-.48-.21-.9-.52-1.24-.93-.35-.4-.61-.88-.8-1.45-.19-.56-.28-1.19-.28-1.9s.09-1.32,.28-1.89c.19-.57,.45-1.05,.8-1.45,.34-.4,.76-.71,1.24-.93,.48-.21,1.02-.32,1.62-.32s1.12,.11,1.58,.32,.86,.51,1.19,.89c.33,.38,.58,.83,.76,1.35s.26,1.09,.26,1.71v.64h-6.31v.41c0,.37,.06,.72,.18,1.05,.12,.32,.29,.6,.51,.84,.22,.24,.49,.43,.82,.56s.69,.2,1.1,.2c.55,0,1.04-.13,1.45-.39s.73-.63,.96-1.12l.97,.7c-.28,.6-.73,1.09-1.33,1.46-.6,.37-1.31,.56-2.14,.56Zm0-8.04c-.37,0-.71,.06-1.02,.19-.31,.13-.57,.31-.79,.55s-.39,.52-.52,.84c-.12,.32-.19,.67-.19,1.06v.12h4.85v-.19c0-.78-.21-1.4-.64-1.87-.42-.47-.99-.7-1.69-.7Z"/><path d="M423.78,226.33v-8.77h1.36v1.62h.08c.16-.42,.44-.79,.85-1.12,.41-.33,.97-.49,1.68-.49h.53v1.36h-.8c-.74,0-1.31,.14-1.73,.42-.41,.28-.62,.63-.62,1.05v5.95h-1.36Z"/><path d="M434.04,226.33v-8.77h1.36v1.41h.07c.21-.49,.52-.89,.91-1.18,.39-.29,.92-.44,1.57-.44,.91,0,1.62,.29,2.15,.88,.53,.58,.79,1.41,.79,2.47v5.63h-1.36v-5.4c0-1.58-.66-2.37-1.99-2.37-.27,0-.54,.03-.79,.1s-.48,.17-.69,.31c-.2,.14-.37,.31-.48,.52s-.18,.46-.18,.74v6.1h-1.36Z"/><path d="M447.01,226.53c-.59,0-1.13-.11-1.62-.32s-.9-.52-1.25-.93-.62-.88-.81-1.45c-.19-.56-.29-1.19-.29-1.9s.1-1.32,.29-1.89c.19-.57,.46-1.05,.81-1.45s.76-.71,1.25-.93c.49-.21,1.03-.32,1.62-.32s1.12,.11,1.61,.32c.48,.22,.9,.52,1.25,.93,.35,.4,.62,.89,.82,1.45,.19,.57,.29,1.2,.29,1.89s-.1,1.33-.29,1.9c-.19,.56-.46,1.04-.82,1.45-.35,.4-.77,.71-1.25,.93s-1.02,.32-1.61,.32Zm0-1.21c.74,0,1.34-.23,1.8-.68,.46-.45,.7-1.14,.7-2.07v-1.26c0-.93-.23-1.62-.7-2.07s-1.07-.68-1.8-.68-1.34,.23-1.8,.68-.7,1.14-.7,2.07v1.26c0,.93,.23,1.62,.7,2.07,.46,.45,1.07,.68,1.8,.68Z"/><path d="M458.82,224.92h-.07c-.53,1.08-1.39,1.62-2.57,1.62-.54,0-1.04-.11-1.48-.32-.44-.21-.82-.52-1.13-.92s-.55-.88-.71-1.45c-.17-.57-.25-1.2-.25-1.9s.08-1.34,.25-1.9c.16-.57,.4-1.05,.71-1.45s.69-.7,1.13-.92c.44-.21,.93-.32,1.48-.32,.61,0,1.14,.13,1.57,.4,.44,.26,.77,.67,1,1.22h.07v-5.22h1.36v12.58h-1.36v-1.41Zm-2.26,.41c.31,0,.6-.04,.88-.12,.28-.08,.52-.2,.72-.35,.2-.15,.37-.34,.49-.56,.12-.22,.18-.48,.18-.76v-3.28c0-.24-.06-.46-.18-.67-.12-.21-.28-.39-.49-.54-.2-.15-.44-.26-.72-.35-.28-.09-.57-.13-.88-.13-.77,0-1.38,.24-1.82,.73-.44,.48-.66,1.12-.66,1.91v1.5c0,.79,.22,1.42,.66,1.91,.44,.48,1.05,.73,1.82,.73Z"/><path d="M466.37,226.53c-.6,0-1.14-.11-1.62-.32-.48-.21-.9-.52-1.24-.93-.35-.4-.61-.88-.8-1.45-.19-.56-.28-1.19-.28-1.9s.09-1.32,.28-1.89c.19-.57,.45-1.05,.8-1.45,.34-.4,.76-.71,1.24-.93,.48-.21,1.02-.32,1.62-.32s1.12,.11,1.58,.32,.86,.51,1.19,.89c.33,.38,.58,.83,.76,1.35s.26,1.09,.26,1.71v.64h-6.31v.41c0,.37,.06,.72,.18,1.05,.12,.32,.29,.6,.51,.84,.22,.24,.49,.43,.82,.56s.69,.2,1.1,.2c.55,0,1.04-.13,1.45-.39s.73-.63,.96-1.12l.97,.7c-.28,.6-.73,1.09-1.33,1.46-.6,.37-1.31,.56-2.14,.56Zm0-8.04c-.37,0-.71,.06-1.02,.19-.31,.13-.57,.31-.79,.55s-.39,.52-.52,.84c-.12,.32-.19,.67-.19,1.06v.12h4.85v-.19c0-.78-.21-1.4-.64-1.87-.42-.47-.99-.7-1.69-.7Z"/></g><text class="o" transform="translate(369.63 297.38)"><tspan x="0" y="0">Ba</tspan><tspan class="q" x="20.18" y="0">r</tspan><tspan x="26.33" y="0">e metal or </tspan><tspan x="-7.17" y="20.4">vi</tspan><tspan class="d" x="5.45" y="20.4">r</tspan><tspan x="11.76" y="20.4">tual machine</tspan></text><text class="o" transform="translate(369.57 264.38)"><tspan x="0" y="0">RHE</tspan><tspan class="c" x="32.81" y="0">L</tspan><tspan x="41.75" y="0">/RH</tspan><tspan class="r" x="71.16" y="0">C</tspan><tspan x="81.5" y="0">OS</tspan></text><g><path d="M47.76,207.13c-1.51,0-2.68-.51-3.52-1.54-.84-1.03-1.26-2.54-1.26-4.53s.42-3.53,1.26-4.6,2.01-1.61,3.52-1.61c1,0,1.83,.22,2.51,.67,.67,.45,1.2,1.08,1.57,1.91l-1.16,.7c-.24-.61-.6-1.1-1.09-1.47s-1.1-.55-1.84-.55c-.51,0-.97,.1-1.37,.29s-.74,.47-1.02,.83c-.28,.36-.49,.78-.64,1.28-.15,.49-.22,1.05-.22,1.66v1.77c0,1.23,.28,2.19,.85,2.88,.57,.69,1.37,1.04,2.4,1.04,.76,0,1.39-.2,1.9-.59,.51-.39,.88-.91,1.12-1.56l1.14,.71c-.37,.84-.91,1.5-1.61,1.97-.7,.48-1.55,.71-2.55,.71Z"/><path d="M57.31,207.13c-.59,0-1.13-.11-1.62-.32s-.9-.52-1.25-.93-.62-.88-.81-1.45c-.19-.56-.29-1.19-.29-1.9s.1-1.32,.29-1.89c.19-.57,.46-1.05,.81-1.45s.76-.71,1.25-.93c.49-.21,1.03-.32,1.62-.32s1.12,.11,1.61,.32c.48,.22,.9,.52,1.25,.93,.35,.4,.62,.89,.82,1.45,.19,.57,.29,1.2,.29,1.89s-.1,1.33-.29,1.9c-.19,.56-.46,1.04-.82,1.45-.35,.4-.77,.71-1.25,.93s-1.02,.32-1.61,.32Zm0-1.21c.74,0,1.34-.23,1.8-.68,.46-.45,.7-1.14,.7-2.07v-1.26c0-.93-.23-1.62-.7-2.07s-1.07-.68-1.8-.68-1.34,.23-1.8,.68-.7,1.14-.7,2.07v1.26c0,.93,.23,1.62,.7,2.07,.46,.45,1.07,.68,1.8,.68Z"/><path d="M63.52,206.93v-8.77h1.36v1.41h.07c.21-.49,.52-.89,.91-1.18,.39-.29,.92-.44,1.57-.44,.91,0,1.62,.29,2.15,.88,.53,.58,.79,1.41,.79,2.47v5.63h-1.36v-5.4c0-1.58-.66-2.37-1.99-2.37-.27,0-.54,.03-.79,.1s-.48,.17-.69,.31c-.2,.14-.37,.31-.48,.52s-.18,.46-.18,.74v6.1h-1.36Z"/><path d="M75.11,206.93c-.48,0-.84-.13-1.08-.4-.24-.27-.37-.61-.37-1.04v-6.12h-1.45v-1.21h.82c.29,0,.5-.06,.6-.18,.11-.12,.16-.33,.16-.62v-1.63h1.22v2.43h1.92v1.21h-1.92v6.36h1.79v1.21h-1.7Z"/><path d="M79.14,206.93v-8.77h1.36v1.62h.08c.16-.42,.44-.79,.85-1.12,.41-.33,.97-.49,1.68-.49h.53v1.36h-.8c-.74,0-1.31,.14-1.73,.42-.41,.28-.62,.63-.62,1.05v5.95h-1.36Z"/><path d="M88.61,207.13c-.59,0-1.13-.11-1.62-.32s-.9-.52-1.25-.93-.62-.88-.81-1.45c-.19-.56-.29-1.19-.29-1.9s.1-1.32,.29-1.89c.19-.57,.46-1.05,.81-1.45s.76-.71,1.25-.93c.49-.21,1.03-.32,1.62-.32s1.12,.11,1.61,.32c.48,.22,.9,.52,1.25,.93,.35,.4,.62,.89,.82,1.45,.19,.57,.29,1.2,.29,1.89s-.1,1.33-.29,1.9c-.19,.56-.46,1.04-.82,1.45-.35,.4-.77,.71-1.25,.93s-1.02,.32-1.61,.32Zm0-1.21c.74,0,1.34-.23,1.8-.68,.46-.45,.7-1.14,.7-2.07v-1.26c0-.93-.23-1.62-.7-2.07s-1.07-.68-1.8-.68-1.34,.23-1.8,.68-.7,1.14-.7,2.07v1.26c0,.93,.23,1.62,.7,2.07,.46,.45,1.07,.68,1.8,.68Z"/><path d="M96.26,206.93c-.48,0-.84-.13-1.08-.4-.24-.27-.37-.6-.37-1.01v-11.17h1.36v11.37h1.29v1.21h-1.21Z"/><path d="M103.45,198.16h1.36v1.41h.07c.23-.55,.56-.96,.99-1.22,.44-.26,.96-.4,1.57-.4,.54,0,1.04,.11,1.48,.32,.44,.22,.82,.52,1.13,.92,.31,.4,.55,.88,.71,1.45,.16,.57,.25,1.2,.25,1.9s-.08,1.34-.25,1.9c-.17,.57-.4,1.05-.71,1.45-.31,.4-.69,.7-1.13,.92s-.93,.32-1.48,.32c-1.19,0-2.05-.54-2.57-1.62h-.07v4.81h-1.36v-12.17Zm3.62,7.77c.77,0,1.38-.24,1.82-.73,.44-.48,.66-1.12,.66-1.91v-1.5c0-.79-.22-1.42-.66-1.91-.44-.48-1.05-.73-1.82-.73-.31,0-.6,.04-.88,.13-.28,.08-.52,.2-.72,.35-.2,.15-.37,.33-.48,.54-.12,.21-.18,.44-.18,.67v3.28c0,.28,.06,.54,.18,.76,.12,.22,.28,.41,.48,.56,.2,.15,.45,.27,.72,.35,.28,.08,.57,.12,.88,.12Z"/><path d="M114.75,206.93c-.48,0-.84-.13-1.08-.4-.24-.27-.37-.6-.37-1.01v-11.17h1.36v11.37h1.29v1.21h-1.21Z"/><path d="M124.31,206.93c-.51,0-.88-.14-1.1-.41-.22-.27-.36-.61-.42-1.02h-.08c-.19,.54-.51,.95-.95,1.22-.44,.27-.97,.41-1.58,.41-.93,0-1.65-.24-2.17-.71-.52-.48-.77-1.12-.77-1.94s.3-1.46,.91-1.9c.61-.44,1.55-.66,2.83-.66h1.73v-.87c0-.62-.17-1.1-.51-1.43-.34-.33-.86-.49-1.56-.49-.53,0-.98,.12-1.33,.36s-.65,.56-.89,.95l-.82-.76c.24-.48,.62-.88,1.14-1.22s1.18-.5,1.97-.5c1.07,0,1.89,.26,2.48,.78,.59,.52,.88,1.24,.88,2.17v4.82h1v1.21h-.76Zm-3.91-.95c.34,0,.65-.04,.93-.12s.53-.19,.73-.34,.36-.32,.48-.51c.11-.19,.17-.4,.17-.63v-1.45h-1.8c-.78,0-1.35,.11-1.71,.34-.36,.23-.54,.56-.54,.99v.36c0,.43,.16,.77,.47,1,.31,.24,.73,.36,1.27,.36Z"/><path d="M127.01,206.93v-8.77h1.36v1.41h.07c.21-.49,.52-.89,.91-1.18,.39-.29,.92-.44,1.57-.44,.91,0,1.62,.29,2.15,.88,.53,.58,.79,1.41,.79,2.47v5.63h-1.36v-5.4c0-1.58-.66-2.37-1.99-2.37-.27,0-.54,.03-.79,.1s-.48,.17-.69,.31c-.2,.14-.37,.31-.48,.52s-.18,.46-.18,.74v6.1h-1.36Z"/><path d="M139.97,207.13c-.6,0-1.14-.11-1.62-.32-.48-.21-.9-.52-1.24-.93-.35-.4-.61-.88-.8-1.45-.19-.56-.28-1.19-.28-1.9s.09-1.32,.28-1.89c.19-.57,.45-1.05,.8-1.45,.34-.4,.76-.71,1.24-.93,.48-.21,1.02-.32,1.62-.32s1.12,.11,1.58,.32,.86,.51,1.19,.89c.33,.38,.58,.83,.76,1.35s.26,1.09,.26,1.71v.64h-6.31v.41c0,.37,.06,.72,.18,1.05,.12,.32,.29,.6,.51,.84,.22,.24,.49,.43,.82,.56s.69,.2,1.1,.2c.55,0,1.04-.13,1.45-.39s.73-.63,.96-1.12l.97,.7c-.28,.6-.73,1.09-1.33,1.46-.6,.37-1.31,.56-2.14,.56Zm0-8.04c-.37,0-.71,.06-1.02,.19-.31,.13-.57,.31-.79,.55s-.39,.52-.52,.84c-.12,.32-.19,.67-.19,1.06v.12h4.85v-.19c0-.78-.21-1.4-.64-1.87-.42-.47-.99-.7-1.69-.7Z"/><path d="M48.13,218.56h1.33l.94,3.79,.93,3.84h.03l1.07-3.84,1.1-3.79h1.21l1.14,3.79,1.09,3.84h.03l.9-3.84,.95-3.79h1.28l-2.33,8.77h-1.68l-1.22-4.22-.76-2.67h-.03l-.75,2.67-1.22,4.22h-1.65l-2.35-8.77Z"/><path d="M65.34,227.53c-.59,0-1.13-.11-1.62-.32s-.9-.52-1.25-.93-.62-.88-.81-1.45c-.19-.56-.29-1.19-.29-1.9s.1-1.32,.29-1.89c.19-.57,.46-1.05,.81-1.45s.76-.71,1.25-.93c.49-.21,1.03-.32,1.62-.32s1.12,.11,1.61,.32c.48,.22,.9,.52,1.25,.93,.35,.4,.62,.89,.82,1.45,.19,.57,.29,1.2,.29,1.89s-.1,1.33-.29,1.9c-.19,.56-.46,1.04-.82,1.45-.35,.4-.77,.71-1.25,.93s-1.02,.32-1.61,.32Zm0-1.21c.74,0,1.34-.23,1.8-.68,.46-.45,.7-1.14,.7-2.07v-1.26c0-.93-.23-1.62-.7-2.07s-1.07-.68-1.8-.68-1.34,.23-1.8,.68-.7,1.14-.7,2.07v1.26c0,.93,.23,1.62,.7,2.07,.46,.45,1.07,.68,1.8,.68Z"/><path d="M71.54,227.33v-8.77h1.36v1.62h.08c.16-.42,.44-.79,.85-1.12,.41-.33,.97-.49,1.68-.49h.53v1.36h-.8c-.74,0-1.31,.14-1.73,.42-.41,.28-.62,.63-.62,1.05v5.95h-1.36Z"/><path d="M77.78,214.75h1.36v7.97h.07l1.34-1.5,2.48-2.67h1.65l-3.25,3.47,3.57,5.3h-1.65l-2.91-4.47-1.31,1.34v3.13h-1.36v-12.58Z"/><path d="M89.75,227.53c-.6,0-1.14-.11-1.62-.32-.48-.21-.9-.52-1.24-.93-.35-.4-.61-.88-.8-1.45-.19-.56-.28-1.19-.28-1.9s.09-1.32,.28-1.89c.19-.57,.45-1.05,.8-1.45,.34-.4,.76-.71,1.24-.93,.48-.21,1.02-.32,1.62-.32s1.12,.11,1.58,.32,.86,.51,1.19,.89c.33,.38,.58,.83,.76,1.35s.26,1.09,.26,1.71v.64h-6.31v.41c0,.37,.06,.72,.18,1.05,.12,.32,.29,.6,.51,.84,.22,.24,.49,.43,.82,.56s.69,.2,1.1,.2c.55,0,1.04-.13,1.45-.39s.73-.63,.96-1.12l.97,.7c-.28,.6-.73,1.09-1.33,1.46-.6,.37-1.31,.56-2.14,.56Zm0-8.04c-.37,0-.71,.06-1.02,.19-.31,.13-.57,.31-.79,.55s-.39,.52-.52,.84c-.12,.32-.19,.67-.19,1.06v.12h4.85v-.19c0-.78-.21-1.4-.64-1.87-.42-.47-.99-.7-1.69-.7Z"/><path d="M95.78,227.33v-8.77h1.36v1.62h.08c.16-.42,.44-.79,.85-1.12,.41-.33,.97-.49,1.68-.49h.53v1.36h-.8c-.74,0-1.31,.14-1.73,.42-.41,.28-.62,.63-.62,1.05v5.95h-1.36Z"/><path d="M106.04,227.33v-8.77h1.36v1.41h.07c.21-.49,.52-.89,.91-1.18,.39-.29,.92-.44,1.57-.44,.91,0,1.62,.29,2.15,.88,.53,.58,.79,1.41,.79,2.47v5.63h-1.36v-5.4c0-1.58-.66-2.37-1.99-2.37-.27,0-.54,.03-.79,.1s-.48,.17-.69,.31c-.2,.14-.37,.31-.48,.52s-.18,.46-.18,.74v6.1h-1.36Z"/><path d="M119.01,227.53c-.59,0-1.13-.11-1.62-.32s-.9-.52-1.25-.93-.62-.88-.81-1.45c-.19-.56-.29-1.19-.29-1.9s.1-1.32,.29-1.89c.19-.57,.46-1.05,.81-1.45s.76-.71,1.25-.93c.49-.21,1.03-.32,1.62-.32s1.12,.11,1.61,.32c.48,.22,.9,.52,1.25,.93,.35,.4,.62,.89,.82,1.45,.19,.57,.29,1.2,.29,1.89s-.1,1.33-.29,1.9c-.19,.56-.46,1.04-.82,1.45-.35,.4-.77,.71-1.25,.93s-1.02,.32-1.61,.32Zm0-1.21c.74,0,1.34-.23,1.8-.68,.46-.45,.7-1.14,.7-2.07v-1.26c0-.93-.23-1.62-.7-2.07s-1.07-.68-1.8-.68-1.34,.23-1.8,.68-.7,1.14-.7,2.07v1.26c0,.93,.23,1.62,.7,2.07,.46,.45,1.07,.68,1.8,.68Z"/><path d="M130.82,225.92h-.07c-.53,1.08-1.39,1.62-2.57,1.62-.54,0-1.04-.11-1.48-.32-.44-.21-.82-.52-1.13-.92s-.55-.88-.71-1.45c-.17-.57-.25-1.2-.25-1.9s.08-1.34,.25-1.9c.16-.57,.4-1.05,.71-1.45s.69-.7,1.13-.92c.44-.21,.93-.32,1.48-.32,.61,0,1.14,.13,1.57,.4,.44,.26,.77,.67,1,1.22h.07v-5.22h1.36v12.58h-1.36v-1.41Zm-2.26,.41c.31,0,.6-.04,.88-.12,.28-.08,.52-.2,.72-.35,.2-.15,.37-.34,.49-.56,.12-.22,.18-.48,.18-.76v-3.28c0-.24-.06-.46-.18-.67-.12-.21-.28-.39-.49-.54-.2-.15-.44-.26-.72-.35-.28-.09-.57-.13-.88-.13-.77,0-1.38,.24-1.82,.73-.44,.48-.66,1.12-.66,1.91v1.5c0,.79,.22,1.42,.66,1.91,.44,.48,1.05,.73,1.82,.73Z"/><path d="M138.37,227.53c-.6,0-1.14-.11-1.62-.32-.48-.21-.9-.52-1.24-.93-.35-.4-.61-.88-.8-1.45-.19-.56-.28-1.19-.28-1.9s.09-1.32,.28-1.89c.19-.57,.45-1.05,.8-1.45,.34-.4,.76-.71,1.24-.93,.48-.21,1.02-.32,1.62-.32s1.12,.11,1.58,.32,.86,.51,1.19,.89c.33,.38,.58,.83,.76,1.35s.26,1.09,.26,1.71v.64h-6.31v.41c0,.37,.06,.72,.18,1.05,.12,.32,.29,.6,.51,.84,.22,.24,.49,.43,.82,.56s.69,.2,1.1,.2c.55,0,1.04-.13,1.45-.39s.73-.63,.96-1.12l.97,.7c-.28,.6-.73,1.09-1.33,1.46-.6,.37-1.31,.56-2.14,.56Zm0-8.04c-.37,0-.71,.06-1.02,.19-.31,.13-.57,.31-.79,.55s-.39,.52-.52,.84c-.12,.32-.19,.67-.19,1.06v.12h4.85v-.19c0-.78-.21-1.4-.64-1.87-.42-.47-.99-.7-1.69-.7Z"/></g><text class="o" transform="translate(41.63 298.38)"><tspan x="0" y="0">Ba</tspan><tspan class="q" x="20.18" y="0">r</tspan><tspan x="26.33" y="0">e metal or </tspan><tspan x="-7.17" y="20.4">vi</tspan><tspan class="d" x="5.45" y="20.4">r</tspan><tspan x="11.76" y="20.4">tual machine</tspan></text><text class="o" transform="translate(41.57 265.38)"><tspan x="0" y="0">RHE</tspan><tspan class="c" x="32.81" y="0">L</tspan><tspan x="41.75" y="0">/RH</tspan><tspan class="r" x="71.16" y="0">C</tspan><tspan x="81.5" y="0">OS</tspan></text><text class="o" transform="translate(68.06 357.48)"><tspan x="0" y="0">Ho</tspan><tspan class="n" x="21.54" y="0">s</tspan><tspan x="29.7" y="0">t 1</tspan></text><text class="o" transform="translate(140.07 34.07)"><tspan x="0" y="0">Sa</tspan><tspan class="m" x="18.96" y="0">t</tspan><tspan x="24.85" y="0">e</tspan><tspan class="p" x="34.19" y="0">l</tspan><tspan x="38.73" y="0">li</tspan><tspan class="m" x="47.6" y="0">t</tspan><tspan x="53.5" y="0">e </tspan><tspan class="e" x="66.84" y="0">c</tspan><tspan x="75.29" y="0">ont</tspan><tspan class="q" x="100.44" y="0">r</tspan><tspan x="106.59" y="0">ol plane ma</tspan><tspan class="n" x="195.23" y="0">s</tspan><tspan class="m" x="203.39" y="0">t</tspan><tspan x="209.29" y="0">er</tspan></text></g></svg>