<?xml version="1.0" encoding="utf-8"?>
<!-- Generator: Adobe Illustrator 26.1.0, SVG Export Plug-In . SVG Version: 6.00 Build 0)  -->
<svg version="1.1" id="Layer_1" xmlns="http://www.w3.org/2000/svg" xmlns:xlink="http://www.w3.org/1999/xlink" x="0px" y="0px"
	 viewBox="0 0 1000 1000" style="enable-background:new 0 0 1000 1000;" xml:space="preserve">
<style type="text/css">
	.st0{fill:#D0E2FF;}
	.st1{fill:#F6F2FF;}
	.st2{fill:none;stroke:#858585;stroke-miterlimit:10;}
	.st3{fill:none;stroke:#000000;stroke-miterlimit:10;}
	.st4{fill:none;stroke:#000000;stroke-miterlimit:10;stroke-dasharray:0,0,8.03,8.03;}
	.st5{fill:none;stroke:#000000;stroke-miterlimit:10;stroke-dasharray:0,0,7.94,7.94;}
	.st6{fill:#FFD7D9;}
	.st7{font-family:'IBMPlexSans';}
	.st8{font-size:17px;}
</style>
<g id="a">
	<rect x="432.5" y="466.2" class="st0" width="135" height="59"/>
	<rect x="432.5" y="561.8" class="st1" width="135" height="57.5"/>
	<line class="st2" x1="328" y1="467.8" x2="484" y2="345.8"/>
	<line class="st2" x1="500" y1="465.8" x2="500" y2="346.2"/>
	<line class="st2" x1="521" y1="344.8" x2="676" y2="464.8"/>
	<g>
		<polyline class="st3" points="757,710.8 757,714.8 753,714.8 		"/>
		<line class="st4" x1="745" y1="714.8" x2="251" y2="714.8"/>
		<polyline class="st3" points="247,714.8 243,714.8 243,710.8 		"/>
		<line class="st5" x1="243" y1="702.8" x2="243" y2="452.7"/>
		<polyline class="st3" points="243,448.8 243,444.8 247,444.8 		"/>
		<line class="st4" x1="255" y1="444.8" x2="749" y2="444.8"/>
		<polyline class="st3" points="753,444.8 757,444.8 757,448.8 		"/>
		<line class="st5" x1="757" y1="456.7" x2="757" y2="706.8"/>
	</g>
	<rect x="432.5" y="529.1" class="st6" width="135" height="28.2"/>
	<rect x="596.3" y="465.6" class="st0" width="135" height="59"/>
	<rect x="596.3" y="561.1" class="st1" width="135" height="57.5"/>
	<rect x="596.3" y="528.4" class="st6" width="135" height="28.2"/>
	<rect x="268.3" y="466.6" class="st0" width="135" height="59"/>
	<rect x="268.3" y="562.1" class="st1" width="135" height="57.5"/>
	<rect x="268.3" y="529.4" class="st6" width="135" height="28.2"/>
	<rect x="291.5" y="285.2" class="st0" width="407" height="59"/>
</g>
<g id="b">
	<g>
		<path d="M454.5,492c-1.5,0-2.7-0.5-3.5-1.5c-0.8-1-1.3-2.5-1.3-4.5c0-2,0.4-3.5,1.3-4.6s2-1.6,3.5-1.6c1,0,1.8,0.2,2.5,0.7
			c0.7,0.5,1.2,1.1,1.6,1.9l-1.2,0.7c-0.2-0.6-0.6-1.1-1.1-1.5s-1.1-0.5-1.8-0.5c-0.5,0-1,0.1-1.4,0.3s-0.7,0.5-1,0.8
			c-0.3,0.4-0.5,0.8-0.6,1.3c-0.1,0.5-0.2,1.1-0.2,1.7v1.8c0,1.2,0.3,2.2,0.9,2.9s1.4,1,2.4,1c0.8,0,1.4-0.2,1.9-0.6
			c0.5-0.4,0.9-0.9,1.1-1.5l1.1,0.7c-0.4,0.8-0.9,1.5-1.6,2C456.3,491.8,455.5,492,454.5,492L454.5,492z"/>
		<path d="M464,492c-0.6,0-1.1-0.1-1.6-0.3s-0.9-0.5-1.2-0.9c-0.3-0.4-0.6-0.9-0.8-1.4c-0.2-0.6-0.3-1.2-0.3-1.9
			c0-0.7,0.1-1.3,0.3-1.9c0.2-0.6,0.5-1.1,0.8-1.4c0.4-0.4,0.8-0.7,1.2-0.9c0.5-0.2,1-0.3,1.6-0.3c0.6,0,1.1,0.1,1.6,0.3
			c0.5,0.2,0.9,0.5,1.2,0.9c0.4,0.4,0.6,0.9,0.8,1.4c0.2,0.6,0.3,1.2,0.3,1.9s-0.1,1.3-0.3,1.9c-0.2,0.6-0.5,1-0.8,1.4
			c-0.4,0.4-0.8,0.7-1.2,0.9S464.6,492,464,492z M464,490.8c0.7,0,1.3-0.2,1.8-0.7c0.5-0.5,0.7-1.1,0.7-2.1v-1.3
			c0-0.9-0.2-1.6-0.7-2.1s-1.1-0.7-1.8-0.7c-0.7,0-1.3,0.2-1.8,0.7s-0.7,1.1-0.7,2.1v1.3c0,0.9,0.2,1.6,0.7,2.1
			S463.3,490.8,464,490.8z"/>
		<path d="M470.2,491.8v-8.8h1.4v1.4h0.1c0.2-0.5,0.5-0.9,0.9-1.2s0.9-0.4,1.6-0.4c0.9,0,1.6,0.3,2.1,0.9c0.5,0.6,0.8,1.4,0.8,2.5
			v5.6h-1.4v-5.4c0-1.6-0.7-2.4-2-2.4c-0.3,0-0.5,0-0.8,0.1s-0.5,0.2-0.7,0.3c-0.2,0.1-0.4,0.3-0.5,0.5c-0.1,0.2-0.2,0.5-0.2,0.7
			v6.1L470.2,491.8L470.2,491.8z"/>
		<path d="M481.8,491.8c-0.5,0-0.8-0.1-1.1-0.4c-0.2-0.3-0.4-0.6-0.4-1v-6.1h-1.5v-1.2h0.8c0.3,0,0.5-0.1,0.6-0.2
			c0.1-0.1,0.2-0.3,0.2-0.6v-1.6h1.2v2.4h1.9v1.2h-1.9v6.4h1.8v1.2L481.8,491.8L481.8,491.8z"/>
		<path d="M485.9,491.8v-8.8h1.4v1.6h0.1c0.2-0.4,0.4-0.8,0.9-1.1c0.4-0.3,1-0.5,1.7-0.5h0.5v1.4h-0.8c-0.7,0-1.3,0.1-1.7,0.4
			c-0.4,0.3-0.6,0.6-0.6,1v5.9L485.9,491.8L485.9,491.8z"/>
		<path d="M495.3,492c-0.6,0-1.1-0.1-1.6-0.3c-0.5-0.2-0.9-0.5-1.2-0.9c-0.4-0.4-0.6-0.9-0.8-1.4c-0.2-0.6-0.3-1.2-0.3-1.9
			c0-0.7,0.1-1.3,0.3-1.9c0.2-0.6,0.5-1.1,0.8-1.4c0.3-0.4,0.8-0.7,1.2-0.9c0.5-0.2,1-0.3,1.6-0.3c0.6,0,1.1,0.1,1.6,0.3
			c0.5,0.2,0.9,0.5,1.2,0.9c0.4,0.4,0.6,0.9,0.8,1.4c0.2,0.6,0.3,1.2,0.3,1.9s-0.1,1.3-0.3,1.9c-0.2,0.6-0.5,1-0.8,1.4
			c-0.4,0.4-0.8,0.7-1.2,0.9S495.9,492,495.3,492z M495.3,490.8c0.7,0,1.3-0.2,1.8-0.7c0.5-0.5,0.7-1.1,0.7-2.1v-1.3
			c0-0.9-0.2-1.6-0.7-2.1s-1.1-0.7-1.8-0.7c-0.7,0-1.3,0.2-1.8,0.7s-0.7,1.1-0.7,2.1v1.3c0,0.9,0.2,1.6,0.7,2.1
			S494.6,490.8,495.3,490.8z"/>
		<path d="M503,491.8c-0.5,0-0.8-0.1-1.1-0.4c-0.2-0.3-0.4-0.6-0.4-1v-11.2h1.4v11.4h1.3v1.2H503L503,491.8z"/>
		<path d="M510.2,483.1h1.4v1.4h0.1c0.2-0.6,0.6-1,1-1.2c0.4-0.3,1-0.4,1.6-0.4c0.5,0,1,0.1,1.5,0.3s0.8,0.5,1.1,0.9
			c0.3,0.4,0.5,0.9,0.7,1.4c0.2,0.6,0.2,1.2,0.2,1.9c0,0.7-0.1,1.3-0.2,1.9c-0.2,0.6-0.4,1-0.7,1.4c-0.3,0.4-0.7,0.7-1.1,0.9
			s-0.9,0.3-1.5,0.3c-1.2,0-2.1-0.5-2.6-1.6h-0.1v4.8h-1.4L510.2,483.1L510.2,483.1z M513.8,490.8c0.8,0,1.4-0.2,1.8-0.7
			c0.4-0.5,0.7-1.1,0.7-1.9v-1.5c0-0.8-0.2-1.4-0.7-1.9c-0.4-0.5-1-0.7-1.8-0.7c-0.3,0-0.6,0-0.9,0.1c-0.3,0.1-0.5,0.2-0.7,0.4
			c-0.2,0.1-0.4,0.3-0.5,0.5s-0.2,0.4-0.2,0.7v3.3c0,0.3,0.1,0.5,0.2,0.8s0.3,0.4,0.5,0.6s0.5,0.3,0.7,0.4
			C513.2,490.8,513.5,490.8,513.8,490.8L513.8,490.8z"/>
		<path d="M521.5,491.8c-0.5,0-0.8-0.1-1.1-0.4c-0.2-0.3-0.4-0.6-0.4-1v-11.2h1.4v11.4h1.3v1.2H521.5L521.5,491.8z"/>
		<path d="M531,491.8c-0.5,0-0.9-0.1-1.1-0.4c-0.2-0.3-0.4-0.6-0.4-1h-0.1c-0.2,0.5-0.5,0.9-1,1.2s-1,0.4-1.6,0.4
			c-0.9,0-1.7-0.2-2.2-0.7c-0.5-0.5-0.8-1.1-0.8-1.9s0.3-1.5,0.9-1.9s1.5-0.7,2.8-0.7h1.7V486c0-0.6-0.2-1.1-0.5-1.4
			c-0.3-0.3-0.9-0.5-1.6-0.5c-0.5,0-1,0.1-1.3,0.4c-0.4,0.2-0.7,0.5-0.9,0.9l-0.8-0.8c0.2-0.5,0.6-0.9,1.1-1.2
			c0.5-0.3,1.2-0.5,2-0.5c1.1,0,1.9,0.3,2.5,0.8c0.6,0.5,0.9,1.2,0.9,2.2v4.8h1v1.2L531,491.8L531,491.8z M527.1,490.9
			c0.3,0,0.7,0,0.9-0.1s0.5-0.2,0.7-0.3c0.2-0.1,0.4-0.3,0.5-0.5c0.1-0.2,0.2-0.4,0.2-0.6v-1.5h-1.8c-0.8,0-1.3,0.1-1.7,0.3
			s-0.5,0.6-0.5,1v0.4c0,0.4,0.2,0.8,0.5,1S526.6,490.9,527.1,490.9L527.1,490.9z"/>
		<path d="M533.7,491.8v-8.8h1.4v1.4h0.1c0.2-0.5,0.5-0.9,0.9-1.2s0.9-0.4,1.6-0.4c0.9,0,1.6,0.3,2.1,0.9c0.5,0.6,0.8,1.4,0.8,2.5
			v5.6h-1.4v-5.4c0-1.6-0.7-2.4-2-2.4c-0.3,0-0.5,0-0.8,0.1s-0.5,0.2-0.7,0.3c-0.2,0.1-0.4,0.3-0.5,0.5c-0.1,0.2-0.2,0.5-0.2,0.7
			v6.1L533.7,491.8L533.7,491.8z"/>
		<path d="M546.7,492c-0.6,0-1.1-0.1-1.6-0.3c-0.5-0.2-0.9-0.5-1.2-0.9c-0.4-0.4-0.6-0.9-0.8-1.4c-0.2-0.6-0.3-1.2-0.3-1.9
			c0-0.7,0.1-1.3,0.3-1.9c0.2-0.6,0.5-1.1,0.8-1.4c0.3-0.4,0.8-0.7,1.2-0.9c0.5-0.2,1-0.3,1.6-0.3s1.1,0.1,1.6,0.3
			c0.5,0.2,0.9,0.5,1.2,0.9c0.3,0.4,0.6,0.8,0.8,1.4c0.2,0.5,0.3,1.1,0.3,1.7v0.6h-6.3v0.4c0,0.4,0.1,0.7,0.2,1
			c0.1,0.3,0.3,0.6,0.5,0.8c0.2,0.2,0.5,0.4,0.8,0.6c0.3,0.1,0.7,0.2,1.1,0.2c0.5,0,1-0.1,1.5-0.4c0.4-0.3,0.7-0.6,1-1.1l1,0.7
			c-0.3,0.6-0.7,1.1-1.3,1.5C548.2,491.8,547.5,492,546.7,492L546.7,492z M546.7,484c-0.4,0-0.7,0.1-1,0.2c-0.3,0.1-0.6,0.3-0.8,0.6
			s-0.4,0.5-0.5,0.8c-0.1,0.3-0.2,0.7-0.2,1.1v0.1h4.8v-0.2c0-0.8-0.2-1.4-0.6-1.9C548,484.2,547.4,484,546.7,484z"/>
		<path d="M454.9,503.5h1.3l0.9,3.8l0.9,3.8h0l1.1-3.8l1.1-3.8h1.2l1.1,3.8l1.1,3.8h0l0.9-3.8l1-3.8h1.3l-2.3,8.8h-1.7l-1.2-4.2
			l-0.8-2.7h0l-0.8,2.7l-1.2,4.2h-1.6L454.9,503.5L454.9,503.5z"/>
		<path d="M472.1,512.4c-0.6,0-1.1-0.1-1.6-0.3s-0.9-0.5-1.2-0.9s-0.6-0.9-0.8-1.5c-0.2-0.6-0.3-1.2-0.3-1.9c0-0.7,0.1-1.3,0.3-1.9
			s0.5-1,0.8-1.5c0.4-0.4,0.8-0.7,1.2-0.9c0.5-0.2,1-0.3,1.6-0.3s1.1,0.1,1.6,0.3c0.5,0.2,0.9,0.5,1.2,0.9c0.4,0.4,0.6,0.9,0.8,1.5
			c0.2,0.6,0.3,1.2,0.3,1.9s-0.1,1.3-0.3,1.9c-0.2,0.6-0.5,1-0.8,1.5c-0.3,0.4-0.8,0.7-1.2,0.9C473.2,512.3,472.6,512.4,472.1,512.4
			z M472.1,511.2c0.7,0,1.3-0.2,1.8-0.7c0.5-0.4,0.7-1.1,0.7-2.1v-1.3c0-0.9-0.2-1.6-0.7-2.1c-0.5-0.5-1.1-0.7-1.8-0.7
			s-1.3,0.2-1.8,0.7c-0.5,0.4-0.7,1.1-0.7,2.1v1.3c0,0.9,0.2,1.6,0.7,2.1C470.7,511,471.3,511.2,472.1,511.2z"/>
		<path d="M478.3,512.2v-8.8h1.4v1.6h0.1c0.2-0.4,0.4-0.8,0.8-1.1c0.4-0.3,1-0.5,1.7-0.5h0.5v1.4H482c-0.7,0-1.3,0.1-1.7,0.4
			c-0.4,0.3-0.6,0.6-0.6,1v6H478.3L478.3,512.2z"/>
		<path d="M484.5,499.6h1.4v8h0.1l1.3-1.5l2.5-2.7h1.6l-3.2,3.5l3.6,5.3h-1.6l-2.9-4.5l-1.3,1.3v3.1h-1.4L484.5,499.6L484.5,499.6z"
			/>
		<path d="M496.5,512.4c-0.6,0-1.1-0.1-1.6-0.3s-0.9-0.5-1.2-0.9c-0.3-0.4-0.6-0.9-0.8-1.5c-0.2-0.6-0.3-1.2-0.3-1.9
			c0-0.7,0.1-1.3,0.3-1.9s0.5-1,0.8-1.5c0.3-0.4,0.8-0.7,1.2-0.9c0.5-0.2,1-0.3,1.6-0.3s1.1,0.1,1.6,0.3c0.5,0.2,0.9,0.5,1.2,0.9
			s0.6,0.8,0.8,1.4s0.3,1.1,0.3,1.7v0.6H494v0.4c0,0.4,0.1,0.7,0.2,1c0.1,0.3,0.3,0.6,0.5,0.8c0.2,0.2,0.5,0.4,0.8,0.6
			c0.3,0.1,0.7,0.2,1.1,0.2c0.6,0,1-0.1,1.5-0.4c0.4-0.3,0.7-0.6,1-1.1l1,0.7c-0.3,0.6-0.7,1.1-1.3,1.5
			C498,512.2,497.3,512.4,496.5,512.4L496.5,512.4z M496.5,504.4c-0.4,0-0.7,0.1-1,0.2c-0.3,0.1-0.6,0.3-0.8,0.5s-0.4,0.5-0.5,0.8
			s-0.2,0.7-0.2,1.1v0.1h4.8V507c0-0.8-0.2-1.4-0.6-1.9C497.7,504.6,497.2,504.4,496.5,504.4L496.5,504.4z"/>
		<path d="M502.5,512.2v-8.8h1.4v1.6h0.1c0.2-0.4,0.4-0.8,0.9-1.1c0.4-0.3,1-0.5,1.7-0.5h0.5v1.4h-0.8c-0.7,0-1.3,0.1-1.7,0.4
			c-0.4,0.3-0.6,0.6-0.6,1v6H502.5L502.5,512.2z"/>
		<path d="M512.8,512.2v-8.8h1.4v1.4h0.1c0.2-0.5,0.5-0.9,0.9-1.2s0.9-0.4,1.6-0.4c0.9,0,1.6,0.3,2.1,0.9c0.5,0.6,0.8,1.4,0.8,2.5
			v5.6h-1.4v-5.4c0-1.6-0.7-2.4-2-2.4c-0.3,0-0.5,0-0.8,0.1s-0.5,0.2-0.7,0.3c-0.2,0.1-0.4,0.3-0.5,0.5c-0.1,0.2-0.2,0.5-0.2,0.7
			v6.1L512.8,512.2L512.8,512.2z"/>
		<path d="M525.7,512.4c-0.6,0-1.1-0.1-1.6-0.3s-0.9-0.5-1.2-0.9c-0.3-0.4-0.6-0.9-0.8-1.5c-0.2-0.6-0.3-1.2-0.3-1.9
			c0-0.7,0.1-1.3,0.3-1.9c0.2-0.6,0.5-1,0.8-1.5c0.4-0.4,0.8-0.7,1.2-0.9c0.5-0.2,1-0.3,1.6-0.3c0.6,0,1.1,0.1,1.6,0.3
			c0.5,0.2,0.9,0.5,1.2,0.9c0.4,0.4,0.6,0.9,0.8,1.5c0.2,0.6,0.3,1.2,0.3,1.9s-0.1,1.3-0.3,1.9c-0.2,0.6-0.5,1-0.8,1.5
			c-0.3,0.4-0.8,0.7-1.2,0.9C526.9,512.3,526.3,512.4,525.7,512.4z M525.7,511.2c0.7,0,1.3-0.2,1.8-0.7c0.5-0.4,0.7-1.1,0.7-2.1
			v-1.3c0-0.9-0.2-1.6-0.7-2.1c-0.5-0.5-1.1-0.7-1.8-0.7s-1.3,0.2-1.8,0.7c-0.5,0.4-0.7,1.1-0.7,2.1v1.3c0,0.9,0.2,1.6,0.7,2.1
			C524.4,511,525,511.2,525.7,511.2z"/>
		<path d="M537.5,510.8L537.5,510.8c-0.6,1.1-1.5,1.6-2.6,1.6c-0.5,0-1-0.1-1.5-0.3s-0.8-0.5-1.1-0.9c-0.3-0.4-0.5-0.9-0.7-1.4
			c-0.2-0.6-0.2-1.2-0.2-1.9c0-0.7,0.1-1.3,0.2-1.9c0.2-0.6,0.4-1.1,0.7-1.4c0.3-0.4,0.7-0.7,1.1-0.9s0.9-0.3,1.5-0.3
			c0.6,0,1.1,0.1,1.6,0.4c0.4,0.3,0.8,0.7,1,1.2h0.1v-5.2h1.4v12.6h-1.4V510.8L537.5,510.8z M535.3,511.2c0.3,0,0.6,0,0.9-0.1
			c0.3-0.1,0.5-0.2,0.7-0.4c0.2-0.1,0.4-0.3,0.5-0.6s0.2-0.5,0.2-0.8v-3.3c0-0.2-0.1-0.5-0.2-0.7s-0.3-0.4-0.5-0.5
			c-0.2-0.1-0.4-0.3-0.7-0.3c-0.3-0.1-0.6-0.1-0.9-0.1c-0.8,0-1.4,0.2-1.8,0.7c-0.4,0.5-0.7,1.1-0.7,1.9v1.5c0,0.8,0.2,1.4,0.7,1.9
			C533.9,511,534.5,511.2,535.3,511.2L535.3,511.2z"/>
		<path d="M545.1,512.4c-0.6,0-1.1-0.1-1.6-0.3s-0.9-0.5-1.2-0.9c-0.3-0.4-0.6-0.9-0.8-1.5c-0.2-0.6-0.3-1.2-0.3-1.9
			c0-0.7,0.1-1.3,0.3-1.9c0.2-0.6,0.4-1,0.8-1.5c0.3-0.4,0.8-0.7,1.2-0.9c0.5-0.2,1-0.3,1.6-0.3c0.6,0,1.1,0.1,1.6,0.3
			c0.5,0.2,0.9,0.5,1.2,0.9c0.3,0.4,0.6,0.8,0.8,1.4s0.3,1.1,0.3,1.7v0.6h-6.3v0.4c0,0.4,0.1,0.7,0.2,1c0.1,0.3,0.3,0.6,0.5,0.8
			c0.2,0.2,0.5,0.4,0.8,0.6c0.3,0.1,0.7,0.2,1.1,0.2c0.5,0,1-0.1,1.4-0.4c0.4-0.3,0.7-0.6,1-1.1l1,0.7c-0.3,0.6-0.7,1.1-1.3,1.5
			C546.6,512.2,545.9,512.4,545.1,512.4L545.1,512.4z M545.1,504.4c-0.4,0-0.7,0.1-1,0.2c-0.3,0.1-0.6,0.3-0.8,0.5
			c-0.2,0.2-0.4,0.5-0.5,0.8s-0.2,0.7-0.2,1.1v0.1h4.9V507c0-0.8-0.2-1.4-0.6-1.9C546.4,504.6,545.8,504.4,545.1,504.4z"/>
	</g>
	<text transform="matrix(1 0 0 1 448.35 583.28)" class="st7 st8">Ba</text>
	<text transform="matrix(1 0 0 1 468.53 583.28)" class="st7 st8">r</text>
	<text transform="matrix(1 0 0 1 474.6799 583.28)" class="st7 st8">e metal or </text>
	<text transform="matrix(1 0 0 1 441.1799 603.68)" class="st7 st8">vi</text>
	<text transform="matrix(1 0 0 1 453.8 603.68)" class="st7 st8">r</text>
	<text transform="matrix(1 0 0 1 460.11 603.68)" class="st7 st8">tual machine</text>
	<text transform="matrix(1 0 0 1 404.91 698.48)" class="st7 st8">On-p</text>
	<text transform="matrix(1 0 0 1 443.24 698.48)" class="st7 st8">r</text>
	<text transform="matrix(1 0 0 1 449.4 698.48)" class="st7 st8">emises data </text>
	<text transform="matrix(1 0 0 1 545.72 698.48)" class="st7 st8">c</text>
	<text transform="matrix(1 0 0 1 554.1699 698.48)" class="st7 st8">en</text>
	<text transform="matrix(1 0 0 1 573.16 698.48)" class="st7 st8">t</text>
	<text transform="matrix(1 0 0 1 579.0601 698.48)" class="st7 st8">er</text>
	<text transform="matrix(1 0 0 1 476.49 643.47)" class="st7 st8">Ho</text>
	<text transform="matrix(1 0 0 1 498.03 643.47)" class="st7 st8">s</text>
	<text transform="matrix(1 0 0 1 506.1899 643.47)" class="st7 st8">t 2</text>
	<text transform="matrix(1 0 0 1 635.01 644.4)" class="st7 st8">Ho</text>
	<text transform="matrix(1 0 0 1 656.55 644.4)" class="st7 st8">s</text>
	<text transform="matrix(1 0 0 1 664.71 644.4)" class="st7 st8">t 3</text>
	<text transform="matrix(1 0 0 1 448.3 550.28)" class="st7 st8">RHE</text>
	<text transform="matrix(1 0 0 1 481.11 550.28)" class="st7 st8">L</text>
	<text transform="matrix(1 0 0 1 490.05 550.28)" class="st7 st8">/RH</text>
	<text transform="matrix(1 0 0 1 519.46 550.28)" class="st7 st8">C</text>
	<text transform="matrix(1 0 0 1 529.8 550.28)" class="st7 st8">OS</text>
	<g>
		<path d="M618.3,491.4c-1.5,0-2.7-0.5-3.5-1.5c-0.8-1-1.3-2.5-1.3-4.5c0-2,0.4-3.5,1.3-4.6c0.8-1.1,2-1.6,3.5-1.6
			c1,0,1.8,0.2,2.5,0.7c0.7,0.4,1.2,1.1,1.6,1.9l-1.2,0.7c-0.2-0.6-0.6-1.1-1.1-1.5s-1.1-0.6-1.8-0.6c-0.5,0-1,0.1-1.4,0.3
			c-0.4,0.2-0.7,0.5-1,0.8c-0.3,0.4-0.5,0.8-0.6,1.3c-0.1,0.5-0.2,1-0.2,1.7v1.8c0,1.2,0.3,2.2,0.9,2.9s1.4,1,2.4,1
			c0.8,0,1.4-0.2,1.9-0.6c0.5-0.4,0.9-0.9,1.1-1.6l1.1,0.7c-0.4,0.8-0.9,1.5-1.6,2C620.1,491.1,619.3,491.4,618.3,491.4L618.3,491.4
			z"/>
		<path d="M627.8,491.4c-0.6,0-1.1-0.1-1.6-0.3s-0.9-0.5-1.2-0.9s-0.6-0.9-0.8-1.5c-0.2-0.6-0.3-1.2-0.3-1.9c0-0.7,0.1-1.3,0.3-1.9
			s0.5-1,0.8-1.5c0.4-0.4,0.8-0.7,1.2-0.9c0.5-0.2,1-0.3,1.6-0.3s1.1,0.1,1.6,0.3c0.5,0.2,0.9,0.5,1.2,0.9c0.4,0.4,0.6,0.9,0.8,1.5
			c0.2,0.6,0.3,1.2,0.3,1.9s-0.1,1.3-0.3,1.9c-0.2,0.6-0.5,1-0.8,1.5c-0.4,0.4-0.8,0.7-1.2,0.9S628.4,491.4,627.8,491.4z
			 M627.8,490.2c0.7,0,1.3-0.2,1.8-0.7c0.5-0.4,0.7-1.1,0.7-2.1v-1.3c0-0.9-0.2-1.6-0.7-2.1s-1.1-0.7-1.8-0.7s-1.3,0.2-1.8,0.7
			s-0.7,1.1-0.7,2.1v1.3c0,0.9,0.2,1.6,0.7,2.1C626.5,489.9,627.1,490.2,627.8,490.2z"/>
		<path d="M634,491.2v-8.8h1.4v1.4h0.1c0.2-0.5,0.5-0.9,0.9-1.2c0.4-0.3,0.9-0.4,1.6-0.4c0.9,0,1.6,0.3,2.1,0.9
			c0.5,0.6,0.8,1.4,0.8,2.5v5.6h-1.4v-5.4c0-1.6-0.7-2.4-2-2.4c-0.3,0-0.5,0-0.8,0.1s-0.5,0.2-0.7,0.3c-0.2,0.1-0.4,0.3-0.5,0.5
			s-0.2,0.5-0.2,0.7v6.1L634,491.2L634,491.2z"/>
		<path d="M645.6,491.2c-0.5,0-0.8-0.1-1.1-0.4s-0.4-0.6-0.4-1v-6.1h-1.5v-1.2h0.8c0.3,0,0.5-0.1,0.6-0.2c0.1-0.1,0.2-0.3,0.2-0.6
			V480h1.2v2.4h1.9v1.2h-1.9v6.4h1.8v1.2L645.6,491.2L645.6,491.2z"/>
		<path d="M649.6,491.2v-8.8h1.4v1.6h0.1c0.2-0.4,0.4-0.8,0.9-1.1c0.4-0.3,1-0.5,1.7-0.5h0.5v1.4h-0.8c-0.7,0-1.3,0.1-1.7,0.4
			c-0.4,0.3-0.6,0.6-0.6,1.1v5.9L649.6,491.2L649.6,491.2z"/>
		<path d="M659.1,491.4c-0.6,0-1.1-0.1-1.6-0.3s-0.9-0.5-1.2-0.9s-0.6-0.9-0.8-1.5c-0.2-0.6-0.3-1.2-0.3-1.9c0-0.7,0.1-1.3,0.3-1.9
			s0.5-1,0.8-1.5c0.3-0.4,0.8-0.7,1.2-0.9c0.5-0.2,1-0.3,1.6-0.3s1.1,0.1,1.6,0.3c0.5,0.2,0.9,0.5,1.2,0.9c0.3,0.4,0.6,0.9,0.8,1.5
			c0.2,0.6,0.3,1.2,0.3,1.9s-0.1,1.3-0.3,1.9c-0.2,0.6-0.5,1-0.8,1.5c-0.3,0.4-0.8,0.7-1.2,0.9S659.7,491.4,659.1,491.4z
			 M659.1,490.2c0.7,0,1.3-0.2,1.8-0.7c0.5-0.4,0.7-1.1,0.7-2.1v-1.3c0-0.9-0.2-1.6-0.7-2.1s-1.1-0.7-1.8-0.7s-1.3,0.2-1.8,0.7
			s-0.7,1.1-0.7,2.1v1.3c0,0.9,0.2,1.6,0.7,2.1C657.8,489.9,658.4,490.2,659.1,490.2z"/>
		<path d="M666.8,491.2c-0.5,0-0.8-0.1-1.1-0.4s-0.4-0.6-0.4-1v-11.2h1.4V490h1.3v1.2H666.8L666.8,491.2z"/>
		<path d="M674,482.4h1.4v1.4h0.1c0.2-0.5,0.6-1,1-1.2c0.4-0.3,1-0.4,1.6-0.4c0.5,0,1,0.1,1.5,0.3c0.4,0.2,0.8,0.5,1.1,0.9
			c0.3,0.4,0.5,0.9,0.7,1.5s0.2,1.2,0.2,1.9s-0.1,1.3-0.2,1.9c-0.2,0.6-0.4,1-0.7,1.5c-0.3,0.4-0.7,0.7-1.1,0.9
			c-0.4,0.2-0.9,0.3-1.5,0.3c-1.2,0-2-0.5-2.6-1.6h-0.1v4.8h-1.4L674,482.4L674,482.4z M677.6,490.2c0.8,0,1.4-0.2,1.8-0.7
			c0.4-0.5,0.7-1.1,0.7-1.9V486c0-0.8-0.2-1.4-0.7-1.9c-0.4-0.5-1-0.7-1.8-0.7c-0.3,0-0.6,0-0.9,0.1c-0.3,0.1-0.5,0.2-0.7,0.3
			c-0.2,0.2-0.4,0.3-0.5,0.5c-0.1,0.2-0.2,0.4-0.2,0.7v3.3c0,0.3,0.1,0.5,0.2,0.8s0.3,0.4,0.5,0.6c0.2,0.1,0.5,0.3,0.7,0.4
			C677,490.1,677.3,490.2,677.6,490.2L677.6,490.2z"/>
		<path d="M685.2,491.2c-0.5,0-0.8-0.1-1.1-0.4s-0.4-0.6-0.4-1v-11.2h1.4V490h1.3v1.2H685.2L685.2,491.2z"/>
		<path d="M694.8,491.2c-0.5,0-0.9-0.1-1.1-0.4c-0.2-0.3-0.4-0.6-0.4-1h-0.1c-0.2,0.5-0.5,0.9-0.9,1.2c-0.4,0.3-1,0.4-1.6,0.4
			c-0.9,0-1.6-0.2-2.2-0.7c-0.5-0.5-0.8-1.1-0.8-1.9s0.3-1.5,0.9-1.9c0.6-0.4,1.5-0.7,2.8-0.7h1.7v-0.9c0-0.6-0.2-1.1-0.5-1.4
			c-0.3-0.3-0.9-0.5-1.6-0.5c-0.5,0-1,0.1-1.3,0.4s-0.6,0.6-0.9,1l-0.8-0.8c0.2-0.5,0.6-0.9,1.1-1.2s1.2-0.5,2-0.5
			c1.1,0,1.9,0.3,2.5,0.8s0.9,1.2,0.9,2.2v4.8h1v1.2L694.8,491.2L694.8,491.2z M690.9,490.2c0.3,0,0.6,0,0.9-0.1
			c0.3-0.1,0.5-0.2,0.7-0.3c0.2-0.2,0.4-0.3,0.5-0.5c0.1-0.2,0.2-0.4,0.2-0.6v-1.5h-1.8c-0.8,0-1.3,0.1-1.7,0.3
			c-0.4,0.2-0.5,0.6-0.5,1v0.4c0,0.4,0.2,0.8,0.5,1C689.9,490.1,690.4,490.2,690.9,490.2L690.9,490.2z"/>
		<path d="M697.5,491.2v-8.8h1.4v1.4h0.1c0.2-0.5,0.5-0.9,0.9-1.2c0.4-0.3,0.9-0.4,1.6-0.4c0.9,0,1.6,0.3,2.1,0.9
			c0.5,0.6,0.8,1.4,0.8,2.5v5.6H703v-5.4c0-1.6-0.7-2.4-2-2.4c-0.3,0-0.5,0-0.8,0.1s-0.5,0.2-0.7,0.3c-0.2,0.1-0.4,0.3-0.5,0.5
			c-0.1,0.2-0.2,0.5-0.2,0.7v6.1L697.5,491.2L697.5,491.2z"/>
		<path d="M710.5,491.4c-0.6,0-1.1-0.1-1.6-0.3s-0.9-0.5-1.2-0.9c-0.3-0.4-0.6-0.9-0.8-1.5c-0.2-0.6-0.3-1.2-0.3-1.9
			c0-0.7,0.1-1.3,0.3-1.9c0.2-0.6,0.4-1,0.8-1.5c0.3-0.4,0.8-0.7,1.2-0.9c0.5-0.2,1-0.3,1.6-0.3c0.6,0,1.1,0.1,1.6,0.3
			c0.5,0.2,0.9,0.5,1.2,0.9c0.3,0.4,0.6,0.8,0.8,1.4s0.3,1.1,0.3,1.7v0.6H708v0.4c0,0.4,0.1,0.7,0.2,1.1c0.1,0.3,0.3,0.6,0.5,0.8
			c0.2,0.2,0.5,0.4,0.8,0.6s0.7,0.2,1.1,0.2c0.5,0,1-0.1,1.4-0.4c0.4-0.3,0.7-0.6,1-1.1l1,0.7c-0.3,0.6-0.7,1.1-1.3,1.5
			C712,491.2,711.3,491.4,710.5,491.4L710.5,491.4z M710.5,483.3c-0.4,0-0.7,0.1-1,0.2s-0.6,0.3-0.8,0.5c-0.2,0.2-0.4,0.5-0.5,0.8
			c-0.1,0.3-0.2,0.7-0.2,1.1v0.1h4.9v-0.2c0-0.8-0.2-1.4-0.6-1.9C711.7,483.6,711.2,483.3,710.5,483.3z"/>
		<path d="M618.6,502.8h1.3l0.9,3.8l0.9,3.8h0l1.1-3.8l1.1-3.8h1.2l1.1,3.8l1.1,3.8h0l0.9-3.8l0.9-3.8h1.3l-2.3,8.8h-1.7l-1.2-4.2
			l-0.8-2.7h0l-0.8,2.7l-1.2,4.2H621L618.6,502.8L618.6,502.8z"/>
		<path d="M635.8,511.8c-0.6,0-1.1-0.1-1.6-0.3s-0.9-0.5-1.2-0.9c-0.3-0.4-0.6-0.9-0.8-1.4c-0.2-0.6-0.3-1.2-0.3-1.9
			c0-0.7,0.1-1.3,0.3-1.9c0.2-0.6,0.5-1.1,0.8-1.4c0.4-0.4,0.8-0.7,1.2-0.9c0.5-0.2,1-0.3,1.6-0.3c0.6,0,1.1,0.1,1.6,0.3
			c0.5,0.2,0.9,0.5,1.2,0.9c0.4,0.4,0.6,0.9,0.8,1.4c0.2,0.6,0.3,1.2,0.3,1.9s-0.1,1.3-0.3,1.9c-0.2,0.6-0.5,1-0.8,1.4
			c-0.3,0.4-0.8,0.7-1.2,0.9C637,511.7,636.4,511.8,635.8,511.8z M635.8,510.6c0.7,0,1.3-0.2,1.8-0.7c0.5-0.5,0.7-1.1,0.7-2.1v-1.3
			c0-0.9-0.2-1.6-0.7-2.1c-0.5-0.5-1.1-0.7-1.8-0.7s-1.3,0.2-1.8,0.7c-0.5,0.5-0.7,1.1-0.7,2.1v1.3c0,0.9,0.2,1.6,0.7,2.1
			C634.5,510.3,635.1,510.6,635.8,510.6z"/>
		<path d="M642,511.6v-8.8h1.4v1.6h0.1c0.2-0.4,0.4-0.8,0.8-1.1c0.4-0.3,1-0.5,1.7-0.5h0.5v1.4h-0.8c-0.7,0-1.3,0.1-1.7,0.4
			c-0.4,0.3-0.6,0.6-0.6,1.1v5.9L642,511.6L642,511.6z"/>
		<path d="M648.3,499h1.4v8h0.1l1.3-1.5l2.5-2.7h1.6l-3.2,3.5l3.6,5.3h-1.7l-2.9-4.5l-1.3,1.3v3.1h-1.4L648.3,499L648.3,499z"/>
		<path d="M660.2,511.8c-0.6,0-1.1-0.1-1.6-0.3s-0.9-0.5-1.2-0.9c-0.3-0.4-0.6-0.9-0.8-1.4c-0.2-0.6-0.3-1.2-0.3-1.9
			c0-0.7,0.1-1.3,0.3-1.9c0.2-0.6,0.5-1.1,0.8-1.4c0.3-0.4,0.8-0.7,1.2-0.9c0.5-0.2,1-0.3,1.6-0.3s1.1,0.1,1.6,0.3
			c0.5,0.2,0.9,0.5,1.2,0.9c0.3,0.4,0.6,0.8,0.8,1.4c0.2,0.5,0.3,1.1,0.3,1.7v0.6h-6.3v0.4c0,0.4,0.1,0.7,0.2,1
			c0.1,0.3,0.3,0.6,0.5,0.8c0.2,0.2,0.5,0.4,0.8,0.6c0.3,0.1,0.7,0.2,1.1,0.2c0.5,0,1-0.1,1.5-0.4c0.4-0.3,0.7-0.6,1-1.1l1,0.7
			c-0.3,0.6-0.7,1.1-1.3,1.5S661.1,511.8,660.2,511.8L660.2,511.8z M660.2,503.7c-0.4,0-0.7,0.1-1,0.2c-0.3,0.1-0.6,0.3-0.8,0.6
			s-0.4,0.5-0.5,0.8c-0.1,0.3-0.2,0.7-0.2,1.1v0.1h4.9v-0.2c0-0.8-0.2-1.4-0.6-1.9C661.5,504,661,503.7,660.2,503.7z"/>
		<path d="M666.3,511.6v-8.8h1.4v1.6h0.1c0.2-0.4,0.4-0.8,0.8-1.1c0.4-0.3,1-0.5,1.7-0.5h0.5v1.4H670c-0.7,0-1.3,0.1-1.7,0.4
			c-0.4,0.3-0.6,0.6-0.6,1.1v5.9L666.3,511.6L666.3,511.6z"/>
		<path d="M676.5,511.6v-8.8h1.4v1.4h0.1c0.2-0.5,0.5-0.9,0.9-1.2s0.9-0.4,1.6-0.4c0.9,0,1.6,0.3,2.1,0.9c0.5,0.6,0.8,1.4,0.8,2.5
			v5.6H682v-5.4c0-1.6-0.7-2.4-2-2.4c-0.3,0-0.5,0-0.8,0.1s-0.5,0.2-0.7,0.3c-0.2,0.1-0.4,0.3-0.5,0.5c-0.1,0.2-0.2,0.5-0.2,0.7v6.1
			L676.5,511.6L676.5,511.6z"/>
		<path d="M689.5,511.8c-0.6,0-1.1-0.1-1.6-0.3s-0.9-0.5-1.2-0.9s-0.6-0.9-0.8-1.4c-0.2-0.6-0.3-1.2-0.3-1.9c0-0.7,0.1-1.3,0.3-1.9
			c0.2-0.6,0.5-1.1,0.8-1.4c0.3-0.4,0.8-0.7,1.2-0.9c0.5-0.2,1-0.3,1.6-0.3s1.1,0.1,1.6,0.3c0.5,0.2,0.9,0.5,1.2,0.9
			c0.3,0.4,0.6,0.9,0.8,1.4c0.2,0.6,0.3,1.2,0.3,1.9s-0.1,1.3-0.3,1.9c-0.2,0.6-0.5,1-0.8,1.4c-0.3,0.4-0.8,0.7-1.2,0.9
			S690.1,511.8,689.5,511.8z M689.5,510.6c0.7,0,1.3-0.2,1.8-0.7c0.5-0.5,0.7-1.1,0.7-2.1v-1.3c0-0.9-0.2-1.6-0.7-2.1
			s-1.1-0.7-1.8-0.7s-1.3,0.2-1.8,0.7s-0.7,1.1-0.7,2.1v1.3c0,0.9,0.2,1.6,0.7,2.1C688.2,510.3,688.8,510.6,689.5,510.6z"/>
		<path d="M701.3,510.2L701.3,510.2c-0.6,1.1-1.5,1.6-2.6,1.6c-0.5,0-1-0.1-1.5-0.3c-0.4-0.2-0.8-0.5-1.1-0.9
			c-0.3-0.4-0.5-0.9-0.7-1.5c-0.2-0.6-0.2-1.2-0.2-1.9c0-0.7,0.1-1.3,0.2-1.9c0.2-0.6,0.4-1,0.7-1.4c0.3-0.4,0.7-0.7,1.1-0.9
			c0.4-0.2,0.9-0.3,1.5-0.3c0.6,0,1.1,0.1,1.6,0.4c0.4,0.3,0.8,0.7,1,1.2h0.1V499h1.4v12.6h-1.4V510.2L701.3,510.2z M699.1,510.6
			c0.3,0,0.6,0,0.9-0.1c0.3-0.1,0.5-0.2,0.7-0.4c0.2-0.1,0.4-0.3,0.5-0.6c0.1-0.2,0.2-0.5,0.2-0.8v-3.3c0-0.2-0.1-0.5-0.2-0.7
			c-0.1-0.2-0.3-0.4-0.5-0.5c-0.2-0.1-0.4-0.3-0.7-0.4c-0.3-0.1-0.6-0.1-0.9-0.1c-0.8,0-1.4,0.2-1.8,0.7c-0.4,0.5-0.7,1.1-0.7,1.9
			v1.5c0,0.8,0.2,1.4,0.7,1.9C697.7,510.4,698.3,510.6,699.1,510.6L699.1,510.6z"/>
		<path d="M708.9,511.8c-0.6,0-1.1-0.1-1.6-0.3s-0.9-0.5-1.2-0.9c-0.3-0.4-0.6-0.9-0.8-1.4c-0.2-0.6-0.3-1.2-0.3-1.9
			c0-0.7,0.1-1.3,0.3-1.9c0.2-0.6,0.5-1.1,0.8-1.4c0.3-0.4,0.8-0.7,1.2-0.9c0.5-0.2,1-0.3,1.6-0.3s1.1,0.1,1.6,0.3
			c0.5,0.2,0.9,0.5,1.2,0.9c0.3,0.4,0.6,0.8,0.8,1.4c0.2,0.5,0.3,1.1,0.3,1.7v0.6h-6.3v0.4c0,0.4,0.1,0.7,0.2,1
			c0.1,0.3,0.3,0.6,0.5,0.8c0.2,0.2,0.5,0.4,0.8,0.6c0.3,0.1,0.7,0.2,1.1,0.2c0.5,0,1-0.1,1.5-0.4c0.4-0.3,0.7-0.6,1-1.1l1,0.7
			c-0.3,0.6-0.7,1.1-1.3,1.5S709.7,511.8,708.9,511.8L708.9,511.8z M708.9,503.7c-0.4,0-0.7,0.1-1,0.2c-0.3,0.1-0.6,0.3-0.8,0.6
			s-0.4,0.5-0.5,0.8c-0.1,0.3-0.2,0.7-0.2,1.1v0.1h4.9v-0.2c0-0.8-0.2-1.4-0.6-1.9C710.1,504,709.6,503.7,708.9,503.7z"/>
	</g>
	<text transform="matrix(1 0 0 1 612.13 582.63)" class="st7 st8">Ba</text>
	<text transform="matrix(1 0 0 1 632.3101 582.63)" class="st7 st8">r</text>
	<text transform="matrix(1 0 0 1 638.46 582.63)" class="st7 st8">e metal or </text>
	<text transform="matrix(1 0 0 1 604.96 603.03)" class="st7 st8">vi</text>
	<text transform="matrix(1 0 0 1 617.5801 603.03)" class="st7 st8">r</text>
	<text transform="matrix(1 0 0 1 623.89 603.03)" class="st7 st8">tual machine</text>
	<text transform="matrix(1 0 0 1 612.0701 549.63)" class="st7 st8">RHE</text>
	<text transform="matrix(1 0 0 1 644.88 549.63)" class="st7 st8">L</text>
	<text transform="matrix(1 0 0 1 653.8201 549.63)" class="st7 st8">/RH</text>
	<text transform="matrix(1 0 0 1 683.23 549.63)" class="st7 st8">C</text>
	<text transform="matrix(1 0 0 1 693.5701 549.63)" class="st7 st8">OS</text>
	<g>
		<path d="M290.3,492.4c-1.5,0-2.7-0.5-3.5-1.5c-0.8-1-1.3-2.5-1.3-4.5c0-2,0.4-3.5,1.3-4.6s2-1.6,3.5-1.6c1,0,1.8,0.2,2.5,0.7
			c0.7,0.4,1.2,1.1,1.6,1.9l-1.2,0.7c-0.2-0.6-0.6-1.1-1.1-1.5s-1.1-0.6-1.8-0.6c-0.5,0-1,0.1-1.4,0.3s-0.7,0.5-1,0.8
			c-0.3,0.4-0.5,0.8-0.6,1.3c-0.1,0.5-0.2,1-0.2,1.7v1.8c0,1.2,0.3,2.2,0.9,2.9c0.6,0.7,1.4,1,2.4,1c0.8,0,1.4-0.2,1.9-0.6
			c0.5-0.4,0.9-0.9,1.1-1.6l1.1,0.7c-0.4,0.8-0.9,1.5-1.6,2C292.1,492.1,291.2,492.4,290.3,492.4L290.3,492.4z"/>
		<path d="M299.8,492.4c-0.6,0-1.1-0.1-1.6-0.3s-0.9-0.5-1.2-0.9s-0.6-0.9-0.8-1.5c-0.2-0.6-0.3-1.2-0.3-1.9c0-0.7,0.1-1.3,0.3-1.9
			s0.5-1,0.8-1.5c0.4-0.4,0.8-0.7,1.2-0.9c0.5-0.2,1-0.3,1.6-0.3s1.1,0.1,1.6,0.3c0.5,0.2,0.9,0.5,1.2,0.9c0.3,0.4,0.6,0.9,0.8,1.5
			c0.2,0.6,0.3,1.2,0.3,1.9s-0.1,1.3-0.3,1.9c-0.2,0.6-0.5,1-0.8,1.5c-0.4,0.4-0.8,0.7-1.2,0.9C300.9,492.3,300.4,492.4,299.8,492.4
			z M299.8,491.2c0.7,0,1.3-0.2,1.8-0.7c0.5-0.4,0.7-1.1,0.7-2.1v-1.3c0-0.9-0.2-1.6-0.7-2.1c-0.5-0.5-1.1-0.7-1.8-0.7
			c-0.7,0-1.3,0.2-1.8,0.7c-0.5,0.4-0.7,1.1-0.7,2.1v1.3c0,0.9,0.2,1.6,0.7,2.1C298.5,490.9,299.1,491.2,299.8,491.2z"/>
		<path d="M306,492.2v-8.8h1.4v1.4h0.1c0.2-0.5,0.5-0.9,0.9-1.2c0.4-0.3,0.9-0.4,1.6-0.4c0.9,0,1.6,0.3,2.2,0.9
			c0.5,0.6,0.8,1.4,0.8,2.5v5.6h-1.4v-5.4c0-1.6-0.7-2.4-2-2.4c-0.3,0-0.5,0-0.8,0.1s-0.5,0.2-0.7,0.3c-0.2,0.1-0.4,0.3-0.5,0.5
			s-0.2,0.5-0.2,0.7v6.1L306,492.2L306,492.2z"/>
		<path d="M317.6,492.2c-0.5,0-0.8-0.1-1.1-0.4c-0.2-0.3-0.4-0.6-0.4-1v-6.1h-1.5v-1.2h0.8c0.3,0,0.5-0.1,0.6-0.2
			c0.1-0.1,0.2-0.3,0.2-0.6V481h1.2v2.4h1.9v1.2h-1.9v6.4h1.8v1.2L317.6,492.2L317.6,492.2z"/>
		<path d="M321.6,492.2v-8.8h1.4v1.6h0.1c0.2-0.4,0.4-0.8,0.8-1.1c0.4-0.3,1-0.5,1.7-0.5h0.5v1.4h-0.8c-0.7,0-1.3,0.1-1.7,0.4
			c-0.4,0.3-0.6,0.6-0.6,1.1v5.9L321.6,492.2L321.6,492.2z"/>
		<path d="M331.1,492.4c-0.6,0-1.1-0.1-1.6-0.3c-0.5-0.2-0.9-0.5-1.2-0.9c-0.3-0.4-0.6-0.9-0.8-1.5c-0.2-0.6-0.3-1.2-0.3-1.9
			c0-0.7,0.1-1.3,0.3-1.9s0.5-1,0.8-1.5c0.4-0.4,0.8-0.7,1.2-0.9c0.5-0.2,1-0.3,1.6-0.3c0.6,0,1.1,0.1,1.6,0.3
			c0.5,0.2,0.9,0.5,1.2,0.9c0.4,0.4,0.6,0.9,0.8,1.5c0.2,0.6,0.3,1.2,0.3,1.9s-0.1,1.3-0.3,1.9c-0.2,0.6-0.5,1-0.8,1.5
			c-0.4,0.4-0.8,0.7-1.2,0.9S331.7,492.4,331.1,492.4z M331.1,491.2c0.7,0,1.3-0.2,1.8-0.7c0.5-0.4,0.7-1.1,0.7-2.1v-1.3
			c0-0.9-0.2-1.6-0.7-2.1s-1.1-0.7-1.8-0.7c-0.7,0-1.3,0.2-1.8,0.7s-0.7,1.1-0.7,2.1v1.3c0,0.9,0.2,1.6,0.7,2.1
			C329.8,490.9,330.4,491.2,331.1,491.2z"/>
		<path d="M338.8,492.2c-0.5,0-0.8-0.1-1.1-0.4c-0.2-0.3-0.4-0.6-0.4-1v-11.2h1.4V491h1.3v1.2H338.8L338.8,492.2z"/>
		<path d="M346,483.4h1.4v1.4h0.1c0.2-0.5,0.6-1,1-1.2c0.4-0.3,1-0.4,1.6-0.4c0.5,0,1,0.1,1.5,0.3c0.4,0.2,0.8,0.5,1.1,0.9
			c0.3,0.4,0.6,0.9,0.7,1.5c0.2,0.6,0.2,1.2,0.2,1.9s-0.1,1.3-0.2,1.9c-0.2,0.6-0.4,1-0.7,1.5c-0.3,0.4-0.7,0.7-1.1,0.9
			c-0.4,0.2-0.9,0.3-1.5,0.3c-1.2,0-2.1-0.5-2.6-1.6h-0.1v4.8h-1.4L346,483.4L346,483.4z M349.6,491.2c0.8,0,1.4-0.2,1.8-0.7
			c0.4-0.5,0.7-1.1,0.7-1.9V487c0-0.8-0.2-1.4-0.7-1.9c-0.4-0.5-1.1-0.7-1.8-0.7c-0.3,0-0.6,0-0.9,0.1c-0.3,0.1-0.5,0.2-0.7,0.3
			c-0.2,0.2-0.4,0.3-0.5,0.5c-0.1,0.2-0.2,0.4-0.2,0.7v3.3c0,0.3,0.1,0.5,0.2,0.8s0.3,0.4,0.5,0.6c0.2,0.1,0.4,0.3,0.7,0.4
			C349,491.1,349.3,491.2,349.6,491.2L349.6,491.2z"/>
		<path d="M357.2,492.2c-0.5,0-0.8-0.1-1.1-0.4c-0.2-0.3-0.4-0.6-0.4-1v-11.2h1.4V491h1.3v1.2H357.2L357.2,492.2z"/>
		<path d="M366.8,492.2c-0.5,0-0.9-0.1-1.1-0.4s-0.4-0.6-0.4-1h-0.1c-0.2,0.5-0.5,0.9-0.9,1.2c-0.4,0.3-1,0.4-1.6,0.4
			c-0.9,0-1.6-0.2-2.2-0.7c-0.5-0.5-0.8-1.1-0.8-1.9s0.3-1.5,0.9-1.9c0.6-0.4,1.5-0.7,2.8-0.7h1.7v-0.9c0-0.6-0.2-1.1-0.5-1.4
			c-0.3-0.3-0.9-0.5-1.6-0.5c-0.5,0-1,0.1-1.3,0.4c-0.3,0.2-0.6,0.6-0.9,1l-0.8-0.8c0.2-0.5,0.6-0.9,1.1-1.2s1.2-0.5,2-0.5
			c1.1,0,1.9,0.3,2.5,0.8c0.6,0.5,0.9,1.2,0.9,2.2v4.8h1v1.2L366.8,492.2L366.8,492.2z M362.9,491.2c0.3,0,0.6,0,0.9-0.1
			c0.3-0.1,0.5-0.2,0.7-0.3c0.2-0.2,0.4-0.3,0.5-0.5c0.1-0.2,0.2-0.4,0.2-0.6v-1.5h-1.8c-0.8,0-1.4,0.1-1.7,0.3
			c-0.4,0.2-0.5,0.6-0.5,1v0.4c0,0.4,0.2,0.8,0.5,1C361.9,491.1,362.4,491.2,362.9,491.2L362.9,491.2z"/>
		<path d="M369.5,492.2v-8.8h1.4v1.4h0.1c0.2-0.5,0.5-0.9,0.9-1.2c0.4-0.3,0.9-0.4,1.6-0.4c0.9,0,1.6,0.3,2.1,0.9
			c0.5,0.6,0.8,1.4,0.8,2.5v5.6H375v-5.4c0-1.6-0.7-2.4-2-2.4c-0.3,0-0.5,0-0.8,0.1s-0.5,0.2-0.7,0.3c-0.2,0.1-0.4,0.3-0.5,0.5
			c-0.1,0.2-0.2,0.5-0.2,0.7v6.1L369.5,492.2L369.5,492.2z"/>
		<path d="M382.5,492.4c-0.6,0-1.1-0.1-1.6-0.3s-0.9-0.5-1.2-0.9c-0.3-0.4-0.6-0.9-0.8-1.5c-0.2-0.6-0.3-1.2-0.3-1.9
			c0-0.7,0.1-1.3,0.3-1.9s0.5-1,0.8-1.5c0.3-0.4,0.8-0.7,1.2-0.9c0.5-0.2,1-0.3,1.6-0.3s1.1,0.1,1.6,0.3c0.5,0.2,0.9,0.5,1.2,0.9
			c0.3,0.4,0.6,0.8,0.8,1.4s0.3,1.1,0.3,1.7v0.6H380v0.4c0,0.4,0.1,0.7,0.2,1.1c0.1,0.3,0.3,0.6,0.5,0.8c0.2,0.2,0.5,0.4,0.8,0.6
			s0.7,0.2,1.1,0.2c0.5,0,1-0.1,1.5-0.4c0.4-0.3,0.7-0.6,1-1.1l1,0.7c-0.3,0.6-0.7,1.1-1.3,1.5C384,492.2,383.3,492.4,382.5,492.4
			L382.5,492.4z M382.5,484.3c-0.4,0-0.7,0.1-1,0.2s-0.6,0.3-0.8,0.5s-0.4,0.5-0.5,0.8c-0.1,0.3-0.2,0.7-0.2,1.1v0.1h4.8v-0.2
			c0-0.8-0.2-1.4-0.6-1.9C383.7,484.6,383.2,484.3,382.5,484.3z"/>
		<path d="M290.6,503.8h1.3l0.9,3.8l0.9,3.8h0l1.1-3.8l1.1-3.8h1.2l1.1,3.8l1.1,3.8h0l0.9-3.8l1-3.8h1.3l-2.3,8.8h-1.7l-1.2-4.2
			l-0.8-2.7h0l-0.8,2.7l-1.2,4.2H293L290.6,503.8L290.6,503.8z"/>
		<path d="M307.8,512.8c-0.6,0-1.1-0.1-1.6-0.3c-0.5-0.2-0.9-0.5-1.2-0.9s-0.6-0.9-0.8-1.4c-0.2-0.6-0.3-1.2-0.3-1.9
			c0-0.7,0.1-1.3,0.3-1.9c0.2-0.6,0.5-1.1,0.8-1.4c0.4-0.4,0.8-0.7,1.2-0.9c0.5-0.2,1-0.3,1.6-0.3s1.1,0.1,1.6,0.3
			c0.5,0.2,0.9,0.5,1.2,0.9c0.3,0.4,0.6,0.9,0.8,1.4c0.2,0.6,0.3,1.2,0.3,1.9s-0.1,1.3-0.3,1.9c-0.2,0.6-0.5,1-0.8,1.4
			c-0.4,0.4-0.8,0.7-1.2,0.9C309,512.7,308.4,512.8,307.8,512.8z M307.8,511.6c0.7,0,1.3-0.2,1.8-0.7c0.5-0.5,0.7-1.1,0.7-2.1v-1.3
			c0-0.9-0.2-1.6-0.7-2.1c-0.5-0.5-1.1-0.7-1.8-0.7s-1.3,0.2-1.8,0.7c-0.5,0.5-0.7,1.1-0.7,2.1v1.3c0,0.9,0.2,1.6,0.7,2.1
			C306.5,511.3,307.1,511.6,307.8,511.6z"/>
		<path d="M314,512.6v-8.8h1.4v1.6h0.1c0.2-0.4,0.4-0.8,0.9-1.1c0.4-0.3,1-0.5,1.7-0.5h0.5v1.4h-0.8c-0.7,0-1.3,0.1-1.7,0.4
			c-0.4,0.3-0.6,0.6-0.6,1.1v5.9L314,512.6L314,512.6z"/>
		<path d="M320.3,500h1.4v8h0.1l1.3-1.5l2.5-2.7h1.6l-3.2,3.5l3.6,5.3h-1.6l-2.9-4.5l-1.3,1.3v3.1h-1.4L320.3,500L320.3,500z"/>
		<path d="M332.2,512.8c-0.6,0-1.1-0.1-1.6-0.3c-0.5-0.2-0.9-0.5-1.2-0.9c-0.4-0.4-0.6-0.9-0.8-1.4c-0.2-0.6-0.3-1.2-0.3-1.9
			c0-0.7,0.1-1.3,0.3-1.9c0.2-0.6,0.4-1.1,0.8-1.4c0.3-0.4,0.8-0.7,1.2-0.9c0.5-0.2,1-0.3,1.6-0.3s1.1,0.1,1.6,0.3
			c0.5,0.2,0.9,0.5,1.2,0.9c0.3,0.4,0.6,0.8,0.8,1.4c0.2,0.5,0.3,1.1,0.3,1.7v0.6h-6.3v0.4c0,0.4,0.1,0.7,0.2,1
			c0.1,0.3,0.3,0.6,0.5,0.8s0.5,0.4,0.8,0.6c0.3,0.1,0.7,0.2,1.1,0.2c0.5,0,1-0.1,1.4-0.4c0.4-0.3,0.7-0.6,1-1.1l1,0.7
			c-0.3,0.6-0.7,1.1-1.3,1.5C333.8,512.6,333.1,512.8,332.2,512.8L332.2,512.8z M332.2,504.7c-0.4,0-0.7,0.1-1,0.2s-0.6,0.3-0.8,0.6
			s-0.4,0.5-0.5,0.8c-0.1,0.3-0.2,0.7-0.2,1.1v0.1h4.9v-0.2c0-0.8-0.2-1.4-0.6-1.9C333.5,505,333,504.7,332.2,504.7z"/>
		<path d="M338.3,512.6v-8.8h1.4v1.6h0.1c0.2-0.4,0.4-0.8,0.9-1.1s1-0.5,1.7-0.5h0.5v1.4H342c-0.7,0-1.3,0.1-1.7,0.4
			c-0.4,0.3-0.6,0.6-0.6,1.1v5.9L338.3,512.6L338.3,512.6z"/>
		<path d="M348.5,512.6v-8.8h1.4v1.4h0.1c0.2-0.5,0.5-0.9,0.9-1.2s0.9-0.4,1.6-0.4c0.9,0,1.6,0.3,2.1,0.9c0.5,0.6,0.8,1.4,0.8,2.5
			v5.6H354v-5.4c0-1.6-0.7-2.4-2-2.4c-0.3,0-0.5,0-0.8,0.1s-0.5,0.2-0.7,0.3c-0.2,0.1-0.4,0.3-0.5,0.5c-0.1,0.2-0.2,0.5-0.2,0.7v6.1
			L348.5,512.6L348.5,512.6z"/>
		<path d="M361.5,512.8c-0.6,0-1.1-0.1-1.6-0.3c-0.5-0.2-0.9-0.5-1.2-0.9c-0.4-0.4-0.6-0.9-0.8-1.4c-0.2-0.6-0.3-1.2-0.3-1.9
			c0-0.7,0.1-1.3,0.3-1.9c0.2-0.6,0.5-1.1,0.8-1.4c0.3-0.4,0.8-0.7,1.2-0.9c0.5-0.2,1-0.3,1.6-0.3c0.6,0,1.1,0.1,1.6,0.3
			c0.5,0.2,0.9,0.5,1.2,0.9c0.4,0.4,0.6,0.9,0.8,1.4c0.2,0.6,0.3,1.2,0.3,1.9s-0.1,1.3-0.3,1.9c-0.2,0.6-0.5,1-0.8,1.4
			c-0.3,0.4-0.8,0.7-1.2,0.9C362.6,512.7,362.1,512.8,361.5,512.8z M361.5,511.6c0.7,0,1.3-0.2,1.8-0.7c0.5-0.5,0.7-1.1,0.7-2.1
			v-1.3c0-0.9-0.2-1.6-0.7-2.1c-0.5-0.5-1.1-0.7-1.8-0.7c-0.7,0-1.3,0.2-1.8,0.7c-0.5,0.5-0.7,1.1-0.7,2.1v1.3
			c0,0.9,0.2,1.6,0.7,2.1C360.2,511.3,360.8,511.6,361.5,511.6z"/>
		<path d="M373.3,511.2L373.3,511.2c-0.6,1.1-1.5,1.6-2.6,1.6c-0.5,0-1-0.1-1.5-0.3c-0.4-0.2-0.8-0.5-1.1-0.9s-0.6-0.9-0.7-1.5
			c-0.2-0.6-0.2-1.2-0.2-1.9c0-0.7,0.1-1.3,0.2-1.9c0.2-0.6,0.4-1,0.7-1.4s0.7-0.7,1.1-0.9c0.4-0.2,0.9-0.3,1.5-0.3
			c0.6,0,1.1,0.1,1.6,0.4c0.4,0.3,0.8,0.7,1,1.2h0.1V500h1.4v12.6h-1.4V511.2L373.3,511.2z M371.1,511.6c0.3,0,0.6,0,0.9-0.1
			c0.3-0.1,0.5-0.2,0.7-0.4c0.2-0.1,0.4-0.3,0.5-0.6c0.1-0.2,0.2-0.5,0.2-0.8v-3.3c0-0.2-0.1-0.5-0.2-0.7c-0.1-0.2-0.3-0.4-0.5-0.5
			c-0.2-0.1-0.4-0.3-0.7-0.4c-0.3-0.1-0.6-0.1-0.9-0.1c-0.8,0-1.4,0.2-1.8,0.7c-0.4,0.5-0.7,1.1-0.7,1.9v1.5c0,0.8,0.2,1.4,0.7,1.9
			C369.7,511.4,370.3,511.6,371.1,511.6L371.1,511.6z"/>
		<path d="M380.9,512.8c-0.6,0-1.1-0.1-1.6-0.3c-0.5-0.2-0.9-0.5-1.2-0.9c-0.4-0.4-0.6-0.9-0.8-1.4c-0.2-0.6-0.3-1.2-0.3-1.9
			c0-0.7,0.1-1.3,0.3-1.9c0.2-0.6,0.4-1.1,0.8-1.4c0.3-0.4,0.8-0.7,1.2-0.9c0.5-0.2,1-0.3,1.6-0.3s1.1,0.1,1.6,0.3
			c0.5,0.2,0.9,0.5,1.2,0.9c0.3,0.4,0.6,0.8,0.8,1.4s0.3,1.1,0.3,1.7v0.6h-6.3v0.4c0,0.4,0.1,0.7,0.2,1c0.1,0.3,0.3,0.6,0.5,0.8
			s0.5,0.4,0.8,0.6s0.7,0.2,1.1,0.2c0.6,0,1-0.1,1.4-0.4c0.4-0.3,0.7-0.6,1-1.1l1,0.7c-0.3,0.6-0.7,1.1-1.3,1.5
			C382.4,512.6,381.7,512.8,380.9,512.8L380.9,512.8z M380.9,504.7c-0.4,0-0.7,0.1-1,0.2s-0.6,0.3-0.8,0.6s-0.4,0.5-0.5,0.8
			c-0.1,0.3-0.2,0.7-0.2,1.1v0.1h4.9v-0.2c0-0.8-0.2-1.4-0.6-1.9C382.1,505,381.6,504.7,380.9,504.7z"/>
	</g>
	<text transform="matrix(1 0 0 1 284.13 583.63)" class="st7 st8">Ba</text>
	<text transform="matrix(1 0 0 1 304.3101 583.63)" class="st7 st8">r</text>
	<text transform="matrix(1 0 0 1 310.46 583.63)" class="st7 st8">e metal or </text>
	<text transform="matrix(1 0 0 1 276.96 604.03)" class="st7 st8">vi</text>
	<text transform="matrix(1 0 0 1 289.5801 604.03)" class="st7 st8">r</text>
	<text transform="matrix(1 0 0 1 295.89 604.03)" class="st7 st8">tual machine</text>
	<text transform="matrix(1 0 0 1 284.0701 550.63)" class="st7 st8">RHE</text>
	<text transform="matrix(1 0 0 1 316.88 550.63)" class="st7 st8">L</text>
	<text transform="matrix(1 0 0 1 325.8201 550.63)" class="st7 st8">/RH</text>
	<text transform="matrix(1 0 0 1 355.23 550.63)" class="st7 st8">C</text>
	<text transform="matrix(1 0 0 1 365.5701 550.63)" class="st7 st8">OS</text>
	<text transform="matrix(1 0 0 1 310.5601 642.73)" class="st7 st8">Ho</text>
	<text transform="matrix(1 0 0 1 332.1 642.73)" class="st7 st8">s</text>
	<text transform="matrix(1 0 0 1 340.26 642.73)" class="st7 st8">t 1</text>
	<text transform="matrix(1 0 0 1 382.5701 319.3199)" class="st7 st8">Sa</text>
	<text transform="matrix(1 0 0 1 401.53 319.3199)" class="st7 st8">t</text>
	<text transform="matrix(1 0 0 1 407.42 319.3199)" class="st7 st8">e</text>
	<text transform="matrix(1 0 0 1 416.76 319.3199)" class="st7 st8">l</text>
	<text transform="matrix(1 0 0 1 421.3 319.3199)" class="st7 st8">li</text>
	<text transform="matrix(1 0 0 1 430.17 319.3199)" class="st7 st8">t</text>
	<text transform="matrix(1 0 0 1 436.0701 319.3199)" class="st7 st8">e </text>
	<text transform="matrix(1 0 0 1 449.41 319.3199)" class="st7 st8">c</text>
	<text transform="matrix(1 0 0 1 457.86 319.3199)" class="st7 st8">ont</text>
	<text transform="matrix(1 0 0 1 483.01 319.3199)" class="st7 st8">r</text>
	<text transform="matrix(1 0 0 1 489.16 319.3199)" class="st7 st8">ol plane ma</text>
	<text transform="matrix(1 0 0 1 577.8 319.3199)" class="st7 st8">s</text>
	<text transform="matrix(1 0 0 1 585.96 319.3199)" class="st7 st8">t</text>
	<text transform="matrix(1 0 0 1 591.86 319.3199)" class="st7 st8">er</text>
</g>
</svg>
