<?xml version="1.0" encoding="UTF-8"?><svg xmlns="http://www.w3.org/2000/svg" width="581.44" height="855" viewBox="0 0 581.44 855"><defs><style>.av,.aw{fill:none;}.ax{letter-spacing:0em;}.ay{letter-spacing:-.02em;}.aw{stroke-dasharray:0 0 12.04 12.04;stroke-width:6px;}.aw,.b`{stroke:#d2e0f3;stroke-miterlimit:10;}.ba{font-family:IBMPlexSans-Bold, IBM Plex Sans;font-size:24px;}.ba,.bb,.bc{fill:#010101;}.bd{letter-spacing:-.02em;}.be{letter-spacing:0em;}.bf{letter-spacing:0em;}.bg{letter-spacing:-.03em;}.bh{fill:#f4f4f5;}.bi,.b`{fill:#fff;}.bj{fill:#e6d9eb;}.bk{fill:#d2e0f3;}.bl{letter-spacing:0em;}.bm{letter-spacing:0em;}.bc{font-family:IBMPlexSans, IBM Plex Sans;font-size:21px;}.b`{stroke-width:4px;}.bn{letter-spacing:0em;}.bo{letter-spacing:0em;}.bp{letter-spacing:0em;}.bq{letter-spacing:0em;}.br{letter-spacing:-.01em;}.bs{letter-spacing:0em;}.bt{letter-spacing:-.05em;}.bu{letter-spacing:-.06em;}.bv{letter-spacing:0em;}</style></defs><g id="a"><rect class="bk" x="148.96" y="483.37" width="50" height="80"/><rect class="bk" x="268.96" y="483.37" width="50" height="80"/><rect class="bk" x="508.96" y="483.37" width="50" height="80"/><rect class="bk" x="388.96" y="483.37" width="50" height="80"/><g id="b"><path class="bb" d="M180.96,525.12h-16c-1.1,0-2,.9-2,2v22c0,1.1,.9,2,2,2h16c1.1,0,2-.9,2-2v-22c0-1.1-.9-2-2-2Zm0,2v6h-16v-6h16Zm-16,14v-6h16v6h-16Zm0,8v-6h16v6h-16Z"/><circle class="bb" cx="167.53" cy="529.92" r="1"/><circle class="bb" cx="167.53" cy="537.92" r="1"/><circle class="bb" cx="167.53" cy="545.92" r="1"/><rect id="c" class="av" x="156.96" y="522.12" width="32" height="32"/></g><g id="d"><path class="bb" d="M299.96,525.24h-16c-1.1,0-2,.9-2,2v22c0,1.1,.9,2,2,2h16c1.1,0,2-.9,2-2v-22c0-1.1-.9-2-2-2Zm0,2v6h-16v-6h16Zm-16,14v-6h16v6h-16Zm0,8v-6h16v6h-16Z"/><circle class="bb" cx="286.53" cy="530.05" r="1"/><circle class="bb" cx="286.53" cy="538.05" r="1"/><circle class="bb" cx="286.53" cy="546.05" r="1"/><rect id="e" class="av" x="275.96" y="522.24" width="32" height="32"/></g><g id="f"><path class="bb" d="M420.96,524.87h-16c-1.1,0-2,.9-2,2v22c0,1.1,.9,2,2,2h16c1.1,0,2-.9,2-2v-22c0-1.1-.9-2-2-2Zm0,2v6h-16v-6h16Zm-16,14v-6h16v6h-16Zm0,8v-6h16v6h-16Z"/><circle class="bb" cx="407.53" cy="529.67" r="1"/><circle class="bb" cx="407.53" cy="537.67" r="1"/><circle class="bb" cx="407.53" cy="545.67" r="1"/><rect id="g" class="av" x="396.96" y="521.87" width="32" height="32"/></g><g id="h"><path class="bb" d="M539.96,525.62h-16c-1.1,0-2,.9-2,2v22c0,1.1,.9,2,2,2h16c1.1,0,2-.9,2-2v-22c0-1.1-.9-2-2-2Zm0,2v6h-16v-6h16Zm-16,14v-6h16v6h-16Zm0,8v-6h16v6h-16Z"/><circle class="bb" cx="526.53" cy="530.42" r="1"/><circle class="bb" cx="526.53" cy="538.42" r="1"/><circle class="bb" cx="526.53" cy="546.42" r="1"/><rect id="i" class="av" x="515.96" y="522.62" width="32" height="32"/></g><rect class="bk" x="115.44" y="75" width="50" height="80"/><rect class="bk" x="235.44" y="75" width="50" height="80"/><rect class="bk" x="475.44" y="75" width="50" height="80"/><rect class="bk" x="355.44" y="75" width="50" height="80"/><rect class="aw" x="65.44" y="16" width="513" height="716" rx="15" ry="15"/><rect class="bh" x="74.3" y="732" width="145" height="74"/><rect class="bh" x="246.63" y="732" width="145" height="74"/><rect class="bh" x="421.36" y="732" width="145" height="74"/><rect class="bj" x="65.44" y="801.92" width="513" height="53.08" rx="19.96" ry="19.96"/><rect class="bi" x="91.44" width="294" height="43"/><g id="j"><path class="bb" d="M147.44,116.31h-16c-1.1,0-2,.9-2,2v22c0,1.1,.9,2,2,2h16c1.1,0,2-.9,2-2v-22c0-1.1-.9-2-2-2Zm0,2v6h-16v-6h16Zm-16,14v-6h16v6h-16Zm0,8v-6h16v6h-16Z"/><circle class="bb" cx="134.02" cy="121.12" r="1"/><circle class="bb" cx="134.02" cy="129.12" r="1"/><circle class="bb" cx="134.02" cy="137.12" r="1"/><rect id="k" class="av" x="123.44" y="113.31" width="32" height="32"/></g><rect class="b`" x="79.44" y="45" width="487" height="58" rx="15" ry="15"/><g id="l"><polygon class="bb" points="330.29 756.89 324.85 753 330.29 749.11 332.81 749.95 333.44 748.05 331.13 747.28 331.13 745 329.13 745 329.13 747.49 324.13 751.06 324.13 745.23 326.68 743.53 325.57 741.86 323.13 743.49 320.68 741.86 319.57 743.53 322.13 745.23 322.13 750.92 319.13 748.78 319.13 751.23 321.41 752.86 319.13 754.49 319.13 756.95 322.13 754.8 322.13 761.56 325.57 763.86 326.68 762.2 324.13 760.49 324.13 754.8 329.13 758.38 329.13 761 331.13 761 331.13 758.72 333.44 757.95 332.81 756.05 330.29 756.89"/><path class="bb" d="M315.26,763c0,1.66-1.34,3-3,3s-3-1.34-3-3h6Z"/><path class="bb" d="M316.13,757.12v-11.11c0-1.92-1.29-3.69-3.17-4.07-2.57-.51-4.83,1.44-4.83,3.92v11.26c-3.2,2.23-3.97,6.65-1.69,9.83s6.52,3.8,9.6,1.72c3.24-2.19,4.05-6.6,1.83-9.8-.47-.68-1.06-1.27-1.74-1.74Zm-4,10.74c-3.7,0-6.46-4.01-4.16-7.92,.26-.44,.63-.81,1.07-1.06l1.09-.63v-12.88c0-.3,.11-.61,.33-.81,1.7-1.52,3.67-.34,3.67,1.3v12.39l1.41,.82c.58,.33,1.03,.86,1.24,1.49,1.41,4.15-1.4,7.32-4.65,7.31Z"/><rect id="m" class="av" x="303.13" y="740" width="32" height="32"/></g><g id="n"><rect class="bb" x="492.86" y="753" width="2" height="18"/><path class="bb" d="M488.87,758.96c-2.88-2.58-3.13-7-.56-9.88,.17-.2,.36-.38,.56-.56l1.34,1.49c-2.06,1.84-2.24,5-.4,7.06,.13,.14,.26,.27,.4,.4l-1.34,1.49Z"/><path class="bb" d="M498.21,758.96l-1.34-1.49c2.06-1.84,2.24-5,.4-7.06-.13-.14-.26-.27-.4-.4l1.34-1.49c2.88,2.58,3.13,7,.56,9.88-.17,.2-.36,.38-.56,.56Z"/><path class="bb" d="M485.94,762.54c-4.86-3.65-5.85-10.54-2.2-15.4,.63-.83,1.37-1.57,2.2-2.2l1.2,1.6c-3.98,2.98-4.78,8.62-1.8,12.6,.51,.68,1.12,1.29,1.8,1.8l-1.2,1.6Z"/><path class="bb" d="M501.14,762.54l-1.2-1.6c3.98-2.98,4.78-8.62,1.8-12.6-.51-.68-1.12-1.29-1.8-1.8l1.2-1.6c4.86,3.65,5.85,10.54,2.2,15.4-.63,.83-1.37,1.57-2.2,2.2Z"/><rect id="o" class="av" x="477.86" y="741" width="32" height="32"/></g><g id="p"><path class="bb" d="M153.07,745.6l-1,1.73c5.26,3.04,7.06,9.77,4.03,15.03s-9.77,7.06-15.03,4.03c-5.26-3.04-7.06-9.77-4.03-15.03,.97-1.67,2.35-3.06,4.03-4.03l-1-1.73c-6.22,3.59-8.35,11.54-4.76,17.76,3.59,6.22,11.54,8.35,17.76,4.76s8.35-11.54,4.76-17.76c-1.14-1.98-2.78-3.62-4.76-4.76Z"/><rect class="bb" x="145.8" y="742" width="2" height="14"/><rect id="q" class="av" x="130.8" y="740" width="32" height="32"/></g><g id="r"><path class="bb" d="M266.44,116.56h-16c-1.1,0-2,.9-2,2v22c0,1.1,.9,2,2,2h16c1.1,0,2-.9,2-2v-22c0-1.1-.9-2-2-2Zm0,2v6h-16v-6h16Zm-16,14v-6h16v6h-16Zm0,8v-6h16v6h-16Z"/><circle class="bb" cx="253.02" cy="121.37" r="1"/><circle class="bb" cx="253.02" cy="129.37" r="1"/><circle class="bb" cx="253.02" cy="137.37" r="1"/><rect id="s" class="av" x="242.44" y="113.56" width="32" height="32"/></g><g id="t"><path class="bb" d="M387.44,115.81h-16c-1.1,0-2,.9-2,2v22c0,1.1,.9,2,2,2h16c1.1,0,2-.9,2-2v-22c0-1.1-.9-2-2-2Zm0,2v6h-16v-6h16Zm-16,14v-6h16v6h-16Zm0,8v-6h16v6h-16Z"/><circle class="bb" cx="374.02" cy="120.62" r="1"/><circle class="bb" cx="374.02" cy="128.62" r="1"/><circle class="bb" cx="374.02" cy="136.62" r="1"/><rect id="u" class="av" x="363.44" y="112.81" width="32" height="32"/></g><g id="v"><path class="bb" d="M506.44,117.31h-16c-1.1,0-2,.9-2,2v22c0,1.1,.9,2,2,2h16c1.1,0,2-.9,2-2v-22c0-1.1-.9-2-2-2Zm0,2v6h-16v-6h16Zm-16,14v-6h16v6h-16Zm0,8v-6h16v6h-16Z"/><circle class="bb" cx="493.02" cy="122.12" r="1"/><circle class="bb" cx="493.02" cy="130.12" r="1"/><circle class="bb" cx="493.02" cy="138.12" r="1"/><rect id="w" class="av" x="482.44" y="114.31" width="32" height="32"/></g><rect class="bk" x="118.65" y="206.68" width="166.8" height="80"/><rect class="bk" x="355.44" y="206.68" width="173.2" height="80"/><rect class="b`" x="79.44" y="176.68" width="487" height="58" rx="15" ry="15"/><g id="x"><path id="y" class="bb" d="M202.44,243.95l-12,5.98v13.73c0,5.94,4.17,11.25,10.03,12.18,7.5,1.19,13.97-4.57,13.97-11.84v-14.07l-12-5.98Zm6.83,27.31l-6.83-3.4v2.23l5.04,2.51c-4.77,2.78-10.9,1.16-13.68-3.61-.88-1.52-1.35-3.24-1.36-4.99v-12.83l10-4.98,10,4.98v3.75l-10-4.98v2.23l10,4.98v3.75l-10-4.98v2.23l10,4.98v.88c0,.91-.12,1.81-.37,2.69l-9.63-4.8v2.23l8.9,4.43c-.53,1.02-1.23,1.94-2.07,2.72Z"/><rect id="a`" class="av" x="186.44" y="244.2" width="32" height="32"/></g><g id="aa"><path id="ab" class="bb" d="M436.15,243.95l-12,5.98v13.73c0,5.94,4.17,11.25,10.03,12.18,7.5,1.19,13.97-4.57,13.97-11.84v-14.07l-12-5.98Zm6.83,27.31l-6.83-3.4v2.23l5.04,2.51c-4.77,2.78-10.9,1.16-13.68-3.61-.88-1.52-1.35-3.24-1.36-4.99v-12.83l10-4.98,10,4.98v3.75l-10-4.98v2.23l10,4.98v3.75l-10-4.98v2.23l10,4.98v.88c0,.91-.12,1.81-.37,2.69l-9.63-4.8v2.23l8.9,4.43c-.53,1.02-1.23,1.94-2.07,2.72Z"/><rect id="ac" class="av" x="420.15" y="244.2" width="32" height="32"/></g><rect class="bk" x="118.65" y="346.68" width="166.8" height="80"/><rect class="bk" x="355.44" y="346.68" width="173.2" height="80"/><rect class="b`" x="79.44" y="316.68" width="487" height="58" rx="15" ry="15"/><g id="ad"><circle class="bb" cx="209.44" cy="404.77" r="1"/><rect class="bb" x="194.44" y="404" width="12" height="2"/><circle class="bb" cx="209.44" cy="390.77" r="1"/><rect class="bb" x="194.44" y="390" width="12" height="2"/><path class="bb" d="M212.44,396c1.1,0,2-.9,2-2v-6c0-1.1-.9-2-2-2h-20c-1.1,0-2,.9-2,2v6c0,1.1,.9,2,2,2h2v4h-2c-1.1,0-2,.9-2,2v6c0,1.1,.9,2,2,2h20c1.1,0,2-.9,2-2v-6c0-1.1-.9-2-2-2h-2v-4h2Zm-20-8h20v6h-20v-6Zm20,20h-20v-6h20v6Zm-4-8h-12v-4h12v4Z"/><rect id="ae" class="av" x="186.44" y="382" width="32" height="32"/></g><g id="af"><circle class="bb" cx="443.44" cy="404.77" r="1"/><rect class="bb" x="428.44" y="404" width="12" height="2"/><circle class="bb" cx="443.44" cy="390.77" r="1"/><rect class="bb" x="428.44" y="390" width="12" height="2"/><path class="bb" d="M446.44,396c1.1,0,2-.9,2-2v-6c0-1.1-.9-2-2-2h-20c-1.1,0-2,.9-2,2v6c0,1.1,.9,2,2,2h2v4h-2c-1.1,0-2,.9-2,2v6c0,1.1,.9,2,2,2h20c1.1,0,2-.9,2-2v-6c0-1.1-.9-2-2-2h-2v-4h2Zm-20-8h20v6h-20v-6Zm20,20h-20v-6h20v6Zm-4-8h-12v-4h12v4Z"/><rect id="ag" class="av" x="420.44" y="382" width="32" height="32"/></g><rect class="bk" x="88.65" y="483.37" width="50" height="80"/><rect class="bk" x="208.65" y="483.37" width="50" height="80"/><rect class="bk" x="448.65" y="483.37" width="50" height="80"/><rect class="bk" x="328.65" y="483.37" width="50" height="80"/><g id="ah"><path class="bb" d="M120.65,524.43h-16c-1.1,0-2,.9-2,2v22c0,1.1,.9,2,2,2h16c1.1,0,2-.9,2-2v-22c0-1.1-.9-2-2-2Zm0,2v6h-16v-6h16Zm-16,14v-6h16v6h-16Zm0,8v-6h16v6h-16Z"/><circle class="bb" cx="107.22" cy="529.23" r="1"/><circle class="bb" cx="107.22" cy="537.23" r="1"/><circle class="bb" cx="107.22" cy="545.23" r="1"/><rect id="ai" class="av" x="96.65" y="521.43" width="32" height="32"/></g><rect class="b`" x="79.44" y="453.68" width="487" height="58" rx="15" ry="15"/><g id="aj"><path class="bb" d="M239.65,524.56h-16c-1.1,0-2,.9-2,2v22c0,1.1,.9,2,2,2h16c1.1,0,2-.9,2-2v-22c0-1.1-.9-2-2-2Zm0,2v6h-16v-6h16Zm-16,14v-6h16v6h-16Zm0,8v-6h16v6h-16Z"/><circle class="bb" cx="226.22" cy="529.36" r="1"/><circle class="bb" cx="226.22" cy="537.36" r="1"/><circle class="bb" cx="226.22" cy="545.36" r="1"/><rect id="ak" class="av" x="215.65" y="521.56" width="32" height="32"/></g><g id="al"><path class="bb" d="M360.65,524.18h-16c-1.1,0-2,.9-2,2v22c0,1.1,.9,2,2,2h16c1.1,0,2-.9,2-2v-22c0-1.1-.9-2-2-2Zm0,2v6h-16v-6h16Zm-16,14v-6h16v6h-16Zm0,8v-6h16v6h-16Z"/><circle class="bb" cx="347.22" cy="528.98" r="1"/><circle class="bb" cx="347.22" cy="536.98" r="1"/><circle class="bb" cx="347.22" cy="544.98" r="1"/><rect id="am" class="av" x="336.65" y="521.18" width="32" height="32"/></g><g id="an"><path class="bb" d="M479.65,524.93h-16c-1.1,0-2,.9-2,2v22c0,1.1,.9,2,2,2h16c1.1,0,2-.9,2-2v-22c0-1.1-.9-2-2-2Zm0,2v6h-16v-6h16Zm-16,14v-6h16v6h-16Zm0,8v-6h16v6h-16Z"/><circle class="bb" cx="466.22" cy="529.73" r="1"/><circle class="bb" cx="466.22" cy="537.73" r="1"/><circle class="bb" cx="466.22" cy="545.73" r="1"/><rect id="ao" class="av" x="455.65" y="521.93" width="32" height="32"/></g><rect class="bk" x="114.36" y="621.47" width="166.8" height="80"/><rect class="bk" x="351.16" y="621.47" width="173.2" height="80"/><rect class="b`" x="75.16" y="591.47" width="487" height="58" rx="15" ry="15"/><g id="ap"><path class="bb" d="M218.69,663.76c-2.34-2.35-6.14-2.35-8.49-.01h-.01l1.42,1.43c1.57-1.57,4.1-1.57,5.67,0s1.57,4.1,0,5.67l-8,8c-1.56,1.57-4.1,1.57-5.66,0-1.57-1.56-1.57-4.1,0-5.67l1.41-1.42-1.41-1.42-1.42,1.42c-2.35,2.34-2.35,6.14-.01,8.49h.01c1.13,1.13,2.66,1.75,4.25,1.74,1.6,0,3.14-.63,4.27-1.76l8-8c2.33-2.35,2.33-6.14-.02-8.48Z"/><path class="bb" d="M193.63,681.82c-1.57-1.56-1.57-4.09-.01-5.66h.01l8-8.01c1.56-1.57,4.09-1.57,5.66-.01h.01c.75,.77,1.16,1.8,1.14,2.86,0,1.07-.42,2.09-1.17,2.85l-2.12,2.15,1.42,1.42,2.12-2.12c2.35-2.35,2.35-6.16,0-8.51s-6.16-2.35-8.51,0l-8,8c-2.35,2.34-2.36,6.14-.02,8.49l.02,.02c1.14,1.11,2.67,1.72,4.26,1.7,1.6,0,3.14-.63,4.28-1.76l-1.42-1.42c-1.56,1.57-4.09,1.57-5.66,.01h-.01Z"/><rect id="aq" class="av" x="189.44" y="657" width="32" height="32"/></g><g id="ar"><path class="bb" d="M447.69,663.76c-2.34-2.35-6.14-2.35-8.49-.01h-.01l1.42,1.43c1.57-1.57,4.1-1.57,5.67,0s1.57,4.1,0,5.67l-8,8c-1.56,1.57-4.1,1.57-5.66,0-1.57-1.56-1.57-4.1,0-5.67l1.41-1.42-1.41-1.42-1.42,1.42c-2.35,2.34-2.35,6.14-.01,8.49h.01c1.13,1.13,2.66,1.75,4.25,1.74,1.6,0,3.14-.63,4.27-1.76l8-8c2.33-2.35,2.33-6.14-.02-8.48Z"/><path class="bb" d="M422.63,681.82c-1.57-1.56-1.57-4.09-.01-5.66h.01l8-8.01c1.56-1.57,4.09-1.57,5.66-.01h.01c.75,.77,1.16,1.8,1.14,2.86,0,1.07-.42,2.09-1.17,2.85l-2.12,2.15,1.42,1.42,2.12-2.12c2.35-2.35,2.35-6.16,0-8.51s-6.16-2.35-8.51,0l-8,8c-2.35,2.34-2.36,6.14-.02,8.49l.02,.02c1.14,1.11,2.67,1.72,4.26,1.7,1.6,0,3.14-.63,4.28-1.76l-1.42-1.42c-1.56,1.57-4.09,1.57-5.66,.01h-.01Z"/><rect id="as" class="av" x="418.44" y="657" width="32" height="32"/></g><g id="at"/></g><g id="au"><text class="bc" transform="translate(117.19 791.86)"><tspan class="bd" x="0" y="0">P</tspan><tspan class="bv" x="12.31" y="0">ow</tspan><tspan class="bl" x="39.98" y="0">er</tspan></text><text class="bc" transform="translate(283.86 791.86)"><tspan x="0" y="0">Cooling</tspan></text><text class="bc" transform="translate(453.71 791.86)"><tspan x="0" y="0">Net</tspan><tspan class="bv" x="33.75" y="0">w</tspan><tspan x="49.77" y="0">ork</tspan></text><text class="bc" transform="translate(263.65 838.07)"><tspan x="0" y="0">Floor spa</tspan><tspan class="bp" x="87.25" y="0">c</tspan><tspan x="97.69" y="0">e</tspan></text><text class="bc" transform="translate(106.76 22.74)"><tspan x="0" y="0">Minimum </tspan><tspan class="bp" x="93.03" y="0">c</tspan><tspan x="103.47" y="0">onfi</tspan><tspan class="bs" x="139.06" y="0">g</tspan><tspan x="150.06" y="0">u</tspan><tspan class="bs" x="161.99" y="0">r</tspan><tspan x="169.62" y="0">ation </tspan><tspan class="bs" x="222.09" y="0">r</tspan><tspan x="229.72" y="0">ack</tspan></text><text class="ba" transform="translate(20.38 828.05) rotate(-90)"><tspan class="bt" x="0" y="0">Y</tspan><tspan x="14.38" y="0">OU</tspan></text><text class="ba" transform="translate(20.38 588.33) rotate(-90)"><tspan x="0" y="0">S</tspan><tspan class="bu" x="14.98" y="0">A</tspan><tspan x="29.86" y="0">TELL</tspan><tspan class="bq" x="83.88" y="0">I</tspan><tspan class="bo" x="94.15" y="0">TE INFRA</tspan><tspan class="ay" x="202.8" y="0">S</tspan><tspan class="bo" x="217.22" y="0">T</tspan><tspan class="br" x="231.24" y="0">R</tspan><tspan x="247.08" y="0">UCTURE SE</tspan><tspan class="bg" x="375.98" y="0">R</tspan><tspan class="bo" x="391.44" y="0">VICE</tspan></text><text class="bc" transform="translate(209.36 81.91)"><tspan x="0" y="0">Mana</tspan><tspan class="ax" x="51.41" y="0">g</tspan><tspan class="bl" x="62.37" y="0">ement </tspan><tspan class="bv" x="128.01" y="0">r</tspan><tspan class="bl" x="135.62" y="0">esou</tspan><tspan class="be" x="181.06" y="0">r</tspan><tspan class="ax" x="188.66" y="0">c</tspan><tspan class="bl" x="199.1" y="0">es</tspan></text><text class="bc" transform="translate(235.57 213.59)"><tspan x="0" y="0">Security fi</tspan><tspan class="be" x="93.89" y="0">re</tspan><tspan class="bf" x="112.92" y="0">w</tspan><tspan x="128.85" y="0">a</tspan><tspan class="bv" x="140.07" y="0">l</tspan><tspan x="145.68" y="0">l</tspan></text><text class="bc" transform="translate(274.57 353.59)"><tspan x="0" y="0">S</tspan><tspan class="bs" x="12.2" y="0">t</tspan><tspan x="19.49" y="0">o</tspan><tspan class="bs" x="31.25" y="0">r</tspan><tspan x="38.87" y="0">a</tspan><tspan class="bp" x="50.08" y="0">g</tspan><tspan class="bl" x="61.05" y="0">e</tspan></text><text class="bc" transform="translate(219.57 490.59)"><tspan x="0" y="0">Compu</tspan><tspan class="bs" x="67.24" y="0">t</tspan><tspan class="bl" x="74.53" y="0">e </tspan><tspan class="be" x="91.01" y="0">r</tspan><tspan x="98.61" y="0">esou</tspan><tspan class="be" x="144.06" y="0">r</tspan><tspan class="ax" x="151.66" y="0">c</tspan><tspan class="bl" x="162.1" y="0">es</tspan></text><text class="bc" transform="translate(221.28 628.38)"><tspan x="0" y="0">Net</tspan><tspan class="bv" x="33.75" y="0">w</tspan><tspan x="49.77" y="0">orking </tspan><tspan class="bm" x="113.52" y="0">s</tspan><tspan class="bl" x="123.56" y="0">wi</tspan><tspan class="bs" x="144.94" y="0">t</tspan><tspan class="bn" x="152.23" y="0">ches</tspan></text></g></svg>