<?xml version="1.0" encoding="utf-8"?>
<!-- Generator: Adobe Illustrator 26.5.0, SVG Export Plug-In . SVG Version: 6.00 Build 0)  -->
<svg version="1.1" id="Layer_1" xmlns="http://www.w3.org/2000/svg" xmlns:xlink="http://www.w3.org/1999/xlink" x="0px" y="0px"
	 viewBox="0 0 1080 540" style="enable-background:new 0 0 1080 540;" xml:space="preserve">
<style type="text/css">
	.st0{fill:#F4F4F4;}
	.st1{fill:#FFFFFF;}
	.st2{fill:#EDF5FF;}
	.st3{clip-path:url(#SVGID_00000172401087206756868760000012855447589348688823_);}
	.st4{fill:none;stroke:#0F62FE;stroke-width:4;}
	.st5{clip-path:url(#SVGID_00000106126359236612167710000017716119453431837085_);}
	.st6{fill:none;stroke:#0F62FE;}
	.st7{fill-rule:evenodd;clip-rule:evenodd;fill:#0043CE;}
	.st8{fill:#0F62FE;}
	.st9{clip-path:url(#SVGID_00000064333617644757599570000002926269245991179187_);}
	.st10{fill:none;stroke:#8D8D8D;stroke-width:4;}
	.st11{fill:none;stroke:#8D8D8D;}
	.st12{fill:#F7F3F2;}
	.st13{clip-path:url(#SVGID_00000181076190196682108950000015585912542855618977_);}
	.st14{fill-rule:evenodd;clip-rule:evenodd;fill:#8D8D8D;}
	.st15{fill-rule:evenodd;clip-rule:evenodd;fill:#0F62FE;}
	.st16{fill-rule:evenodd;clip-rule:evenodd;fill:#565151;}
	.st17{fill:#8D8D8D;}
	.st18{fill:none;stroke:#6F6F6F;stroke-dasharray:4,4;}
	.st19{fill:none;stroke:#8D8D8D;stroke-dasharray:4,4;}
	.st20{fill:#6F6F6F;}
</style>
<rect class="st0" width="1080" height="540"/>
<rect x="48.5" y="48.5" class="st1" width="319" height="391"/>
<rect x="49" y="49" class="st2" width="318" height="390"/>
<g>
	<defs>
		<rect id="SVGID_1_" x="48" y="48" width="137" height="48"/>
	</defs>
	<clipPath id="SVGID_00000031182371944282513030000018134147382856874113_">
		<use xlink:href="#SVGID_1_"  style="overflow:visible;"/>
	</clipPath>
	<g style="clip-path:url(#SVGID_00000031182371944282513030000018134147382856874113_);">
		<line class="st4" x1="50" y1="48" x2="50" y2="96"/>
		<g>
			<defs>
				<rect id="SVGID_00000072969779789112389940000007243271228283540628_" x="64" y="62" width="20" height="20"/>
			</defs>
			<clipPath id="SVGID_00000110451557500847618070000008573699802258071214_">
				<use xlink:href="#SVGID_00000072969779789112389940000007243271228283540628_"  style="overflow:visible;"/>
			</clipPath>
			<g style="clip-path:url(#SVGID_00000110451557500847618070000008573699802258071214_);">
				<path d="M79.4,70.5c-0.6-1.2-1.6-2.1-2.8-2.7c-1.2-0.6-2.5-0.7-3.8-0.4c-1.3,0.3-2.5,1-3.3,2c-0.9,1-1.4,2.2-1.5,3.6
					c-1.1,0.1-2.1,0.6-2.8,1.5c-0.7,0.8-1.1,1.9-1,3c0.1,1.1,0.5,2.1,1.3,2.8c0.8,0.7,1.8,1.2,2.9,1.2h10c1.4,0,2.7-0.5,3.7-1.4
					c1-0.9,1.6-2.2,1.8-3.5c0.1-1.4-0.3-2.7-1.1-3.8C81.9,71.5,80.7,70.8,79.4,70.5z M78.4,80.4h-10c-0.8,0-1.6-0.3-2.2-0.9
					s-1-1.3-1-2.2c-0.1-0.8,0.2-1.6,0.7-2.3c0.5-0.6,1.3-1.1,2.1-1.2c0.1,0.8,0.3,1.6,0.7,2.4c0,0.1,0.1,0.1,0.1,0.1
					c0,0,0.1,0.1,0.2,0.1c0.1,0,0.1,0,0.2,0c0.1,0,0.1,0,0.2-0.1s0.1-0.1,0.1-0.1c0,0,0.1-0.1,0.1-0.2c0-0.1,0-0.1,0-0.2
					c0-0.1,0-0.1-0.1-0.2c-0.6-1.2-0.8-2.5-0.4-3.8c0.3-1.3,1.2-2.4,2.3-3c1.1-0.7,2.5-0.9,3.7-0.7c1.3,0.3,2.4,1,3.2,2.1
					c-0.7,0-1.5,0.2-2.2,0.5c-0.7,0.3-1.3,0.8-1.8,1.3c0,0-0.1,0.1-0.1,0.2c0,0.1,0,0.1,0,0.2c0,0.1,0,0.1,0,0.2
					c0,0.1,0.1,0.1,0.1,0.1c0,0,0.1,0.1,0.2,0.1c0.1,0,0.1,0,0.2,0c0.1,0,0.1,0,0.2,0c0.1,0,0.1-0.1,0.1-0.1c0.5-0.6,1.1-1,1.8-1.3
					c0.7-0.3,1.5-0.3,2.2-0.2c0.7,0.1,1.5,0.4,2.1,0.9c0.6,0.5,1.1,1.1,1.4,1.7c0.3,0.7,0.4,1.4,0.4,2.2c-0.1,0.8-0.3,1.5-0.7,2.1
					c-0.4,0.6-1,1.2-1.6,1.5C79.9,80.2,79.1,80.4,78.4,80.4z"/>
				<path d="M83.9,68.4c0-0.1-0.1-0.1-0.1-0.1c0,0-0.1-0.1-0.2-0.1c-0.1,0-0.1,0-0.2,0c-0.1,0-0.1,0-0.2,0.1l-1.9,1.1
					c-0.1,0-0.1,0.1-0.1,0.1c0,0-0.1,0.1-0.1,0.2c0,0.1,0,0.1,0,0.2c0,0.1,0,0.1,0.1,0.2s0.1,0.1,0.1,0.1s0.1,0.1,0.2,0.1
					c0.1,0,0.1,0,0.2,0s0.1,0,0.2-0.1l1.9-1.1c0.1-0.1,0.2-0.2,0.2-0.3C84,68.6,84,68.5,83.9,68.4z"/>
				<path d="M78.2,66.9c0.1,0,0.1,0.1,0.2,0.1c0.1,0,0.1,0,0.2,0c0.1,0,0.1,0,0.2-0.1c0,0,0.1-0.1,0.1-0.1l1.1-1.9
					c0.1-0.1,0.1-0.2,0-0.4c0-0.1-0.1-0.2-0.2-0.3c-0.1-0.1-0.2-0.1-0.4,0s-0.2,0.1-0.3,0.2L78,66.3c-0.1,0.1-0.1,0.2,0,0.4
					C78,66.8,78.1,66.9,78.2,66.9z"/>
				<path d="M74,65.8c0.1,0,0.2,0,0.3-0.1c0.1-0.1,0.1-0.2,0.1-0.3v-2.2c0-0.1,0-0.1,0-0.2c0-0.1-0.1-0.1-0.1-0.2
					c0,0-0.1-0.1-0.2-0.1c-0.1,0-0.1,0-0.2,0s-0.1,0-0.2,0s-0.1,0.1-0.2,0.1c0,0-0.1,0.1-0.1,0.2c0,0.1,0,0.1,0,0.2v2.2
					c0,0.1,0,0.2,0.1,0.3C73.8,65.8,73.9,65.8,74,65.8z"/>
				<path d="M69.2,66.7c0.1,0.1,0.2,0.2,0.3,0.2s0.2,0,0.4,0c0.1-0.1,0.2-0.2,0.2-0.3c0-0.1,0-0.2,0-0.4l-1.1-1.9
					c0-0.1-0.1-0.1-0.1-0.1c0,0-0.1-0.1-0.2-0.1c-0.1,0-0.1,0-0.2,0c-0.1,0-0.1,0-0.2,0.1c-0.1,0-0.1,0.1-0.1,0.1
					c0,0-0.1,0.1-0.1,0.2c0,0.1,0,0.1,0,0.2c0,0.1,0,0.1,0.1,0.2L69.2,66.7z"/>
				<path d="M66.6,69.3l-1.9-1.1c-0.1,0-0.1-0.1-0.2-0.1c-0.1,0-0.1,0-0.2,0c-0.1,0-0.1,0-0.2,0.1c0,0-0.1,0.1-0.1,0.1
					c0,0.1-0.1,0.1-0.1,0.2c0,0.1,0,0.1,0,0.2c0,0.1,0,0.1,0.1,0.2c0,0,0.1,0.1,0.1,0.1l1.9,1.1c0.1,0,0.1,0.1,0.2,0.1
					c0.1,0,0.1,0,0.2,0s0.1,0,0.2-0.1s0.1-0.1,0.1-0.1c0-0.1,0.1-0.1,0.1-0.2c0-0.1,0-0.1,0-0.2c0-0.1,0-0.1-0.1-0.2
					C66.7,69.4,66.7,69.4,66.6,69.3z"/>
			</g>
		</g>
		<path d="M105.2,77v-1.5h-1.3v-6.8h1.3v-1.5h-4.4v1.5h1.3v6.8h-1.3V77H105.2z M107.2,77h5c1.4,0,2.5-1.2,2.5-2.8
			c0-1.7-1.3-2.3-2.1-2.3v-0.1c0.9-0.1,1.8-0.6,1.8-2.1c0-1.5-1-2.5-2.6-2.5h-4.5V77z M109.1,72.8h2.6c0.7,0,1.1,0.4,1.1,1.1v0.5
			c0,0.7-0.4,1.1-1.1,1.1h-2.6V72.8z M109.1,68.8h2.3c0.7,0,1.1,0.4,1.1,1v0.4c0,0.6-0.4,1-1.1,1h-2.3V68.8z M116.7,77h1.8v-7h0.1
			l0.8,1.6l2,3.7l2-3.7L124,70h0.1v7h1.8v-9.8h-2l-2.5,4.8h-0.1l-2.5-4.8h-2.1V77z M135.5,77.2c1.8,0,2.9-0.9,3.6-2.3l-1.5-0.9
			c-0.3,0.9-1,1.6-2.1,1.6c-1.4,0-2.3-1-2.3-2.6v-1.5c0-1.7,0.9-2.7,2.3-2.7c1.1,0,1.7,0.6,2,1.5l1.6-0.8c-0.7-1.5-1.8-2.3-3.6-2.3
			c-2.6,0-4.2,1.8-4.2,5.1S132.9,77.2,135.5,77.2z M143.5,77v-1.4h-1v-8.9h-1.8v8.6c0,1.1,0.6,1.8,1.8,1.8H143.5z M147.9,77.2
			c2.1,0,3.4-1.5,3.4-3.8c0-2.3-1.3-3.8-3.4-3.8c-2.1,0-3.4,1.5-3.4,3.8C144.5,75.7,145.8,77.2,147.9,77.2z M147.9,75.7
			c-0.9,0-1.5-0.6-1.5-1.7v-1.4c0-1.1,0.6-1.7,1.5-1.7c0.9,0,1.5,0.6,1.5,1.7V74C149.5,75.1,148.9,75.7,147.9,75.7z M157.5,77h1.8
			v-7.3h-1.8v4.8c0,0.8-0.7,1.2-1.4,1.2c-0.9,0-1.2-0.5-1.2-1.6v-4.4H153v4.6c0,1.8,0.8,2.9,2.3,2.9c1.2,0,1.8-0.7,2-1.4h0.1V77z
			 M166,77h1.8V66.6H166v4.3h-0.1c-0.3-0.8-1.1-1.4-2-1.4c-1.8,0-2.9,1.4-2.9,3.8c0,2.4,1,3.8,2.9,3.8c1,0,1.8-0.6,2-1.4h0.1V77z
			 M164.5,75.7c-0.9,0-1.6-0.7-1.6-1.7v-1.3c0-1,0.6-1.7,1.6-1.7c0.9,0,1.5,0.5,1.5,1.2v2.3C166,75.2,165.4,75.7,164.5,75.7z"/>
	</g>
</g>
<rect x="48.5" y="48.5" class="st6" width="319" height="391"/>
<path class="st7" d="M149,210.9l-5-2.9l5-2.9v2.4h38v-2.4l5,2.9l-5,2.9v-2.4h-38V210.9z"/>
<path class="st8" d="M104,184h32c4.4,0,8,3.6,8,8v32c0,4.4-3.6,8-8,8h-32c-4.4,0-8-3.6-8-8v-32C96,187.6,99.6,184,104,184z"/>
<path class="st1" d="M127.5,206.8h-0.6v-7.5h-1.2v7.5H125c-0.3,0-0.6,0.1-0.9,0.4c-0.2,0.2-0.4,0.6-0.4,0.9v1.2
	c0,0.3,0.1,0.6,0.4,0.9c0.2,0.2,0.6,0.4,0.9,0.4h0.6v6.2h1.2v-6.2h0.6c0.3,0,0.6-0.1,0.9-0.4c0.2-0.2,0.4-0.6,0.4-0.9V208
	c0-0.3-0.1-0.6-0.4-0.9C128.1,206.9,127.8,206.8,127.5,206.8z M127.5,209.3H125V208h2.5V209.3z"/>
<path class="st1" d="M121.2,201.8h-0.6v-2.5h-1.2v2.5h-0.6c-0.3,0-0.6,0.1-0.9,0.4c-0.2,0.2-0.4,0.6-0.4,0.9v1.2
	c0,0.3,0.1,0.6,0.4,0.9c0.2,0.2,0.6,0.4,0.9,0.4h0.6v11.2h1.2v-11.2h0.6c0.3,0,0.6-0.1,0.9-0.4c0.2-0.2,0.4-0.6,0.4-0.9V203
	c0-0.3-0.1-0.6-0.4-0.9C121.9,201.9,121.6,201.8,121.2,201.8z M121.2,204.3h-2.5V203h2.5V204.3z"/>
<path class="st1" d="M115,210.5h-0.6v-11.2h-1.2v11.2h-0.6c-0.3,0-0.6,0.1-0.9,0.4c-0.2,0.2-0.4,0.6-0.4,0.9v1.2
	c0,0.3,0.1,0.6,0.4,0.9c0.2,0.2,0.6,0.4,0.9,0.4h0.6v2.5h1.2v-2.5h0.6c0.3,0,0.6-0.1,0.9-0.4c0.2-0.2,0.4-0.6,0.4-0.9v-1.2
	c0-0.3-0.1-0.6-0.4-0.9C115.6,210.6,115.3,210.5,115,210.5z M115,213h-2.5v-1.2h2.5V213z"/>
<path d="M94.7,254.2c2.3,0,3.7-1.3,3.7-3.1c0-1.6-0.9-2.5-2.9-2.8l-0.9-0.2c-0.9-0.2-1.4-0.5-1.4-1.2c0-0.7,0.5-1.1,1.6-1.1
	c1,0,1.7,0.4,2.2,1l1.3-1.2c-0.8-0.9-1.9-1.4-3.3-1.4c-2.2,0-3.5,1.1-3.5,2.9c0,1.6,1,2.5,2.9,2.8l0.9,0.1c1,0.2,1.3,0.6,1.3,1.2
	c0,0.8-0.6,1.4-1.7,1.4c-1,0-1.8-0.4-2.5-1.2l-1.2,1.2C91.8,253.5,93,254.2,94.7,254.2z M102,254.2c1.1,0,1.9-0.5,2.1-1.4h0.1
	c0.1,0.8,0.6,1.3,1.4,1.3h1v-1.4h-0.7v-3.4c0-1.7-1.1-2.6-3-2.6c-1.5,0-2.3,0.6-2.9,1.4l1.1,1c0.3-0.5,0.8-0.9,1.7-0.9
	c1,0,1.4,0.5,1.4,1.3v0.5h-1.2c-2,0-3.1,0.7-3.1,2.2C99.7,253.3,100.6,254.2,102,254.2z M102.6,252.9c-0.7,0-1.1-0.3-1.1-0.9v-0.2
	c0-0.6,0.5-0.9,1.4-0.9h1.1v1C104.1,252.5,103.4,252.9,102.6,252.9z M110.4,254h1.3v-1.4h-1.4v-4.5h1.5v-1.4h-1.5v-2h-1.6v1.2
	c0,0.5-0.2,0.8-0.7,0.8h-0.6v1.4h1.1v4C108.5,253.3,109.2,254,110.4,254z M116.4,254.2c1.4,0,2.4-0.5,3-1.3l-1-1.1
	c-0.4,0.6-1,1-1.9,1c-1.2,0-1.8-0.7-1.8-1.8v-0.2h4.9v-0.6c0-2-1-3.7-3.3-3.7c-2.1,0-3.4,1.5-3.4,3.8
	C113,252.7,114.3,254.2,116.4,254.2z M116.4,247.9c0.9,0,1.4,0.7,1.4,1.7v0.1h-3v-0.1C114.9,248.6,115.5,247.9,116.4,247.9z
	 M124.2,254v-1.4h-1v-8.9h-1.8v8.6c0,1.1,0.6,1.8,1.8,1.8H124.2z M128.4,254v-1.4h-1v-8.9h-1.8v8.6c0,1.1,0.6,1.8,1.8,1.8H128.4z
	 M130.8,245.6c0.7,0,1.1-0.4,1.1-0.9v-0.3c0-0.5-0.3-0.9-1.1-0.9c-0.7,0-1.1,0.4-1.1,0.9v0.3C129.8,245.2,130.1,245.6,130.8,245.6z
	 M129.9,254h1.8v-7.3h-1.8V254z M136.2,254h1.3v-1.4h-1.4v-4.5h1.5v-1.4h-1.5v-2h-1.6v1.2c0,0.5-0.2,0.8-0.7,0.8h-0.6v1.4h1.1v4
	C134.3,253.3,135,254,136.2,254z M142.2,254.2c1.4,0,2.4-0.5,3-1.3l-1-1.1c-0.4,0.6-1,1-1.9,1c-1.2,0-1.8-0.7-1.8-1.8v-0.2h4.9v-0.6
	c0-2-1.1-3.7-3.3-3.7c-2.1,0-3.4,1.5-3.4,3.8C138.8,252.7,140.1,254.2,142.2,254.2z M142.2,247.9c0.9,0,1.4,0.7,1.4,1.7v0.1h-3v-0.1
	C140.7,248.6,141.3,247.9,142.2,247.9z M79.4,272v-4.8c0-0.8,0.7-1.2,1.4-1.2c0.8,0,1.2,0.5,1.2,1.6v4.4h1.8v-4.8
	c0-0.8,0.7-1.2,1.4-1.2c0.8,0,1.2,0.5,1.2,1.6v4.4h1.8v-4.6c0-1.8-0.8-2.9-2.2-2.9c-1.2,0-2,0.7-2.2,1.5h0c-0.4-1-1.1-1.5-2.1-1.5
	c-1.1,0-1.7,0.6-2,1.4h-0.1v-1.2h-1.8v7.3H79.4z M92,272.2c1.1,0,1.9-0.5,2.1-1.4h0.1c0.1,0.8,0.6,1.3,1.4,1.3h1v-1.4h-0.7v-3.4
	c0-1.7-1.1-2.6-3-2.6c-1.5,0-2.3,0.6-2.9,1.4l1.1,1c0.3-0.5,0.8-0.9,1.7-0.9c1,0,1.4,0.5,1.4,1.3v0.5h-1.2c-2,0-3.1,0.7-3.1,2.2
	C89.7,271.3,90.5,272.2,92,272.2z M92.6,270.9c-0.7,0-1.1-0.3-1.1-0.9v-0.2c0-0.6,0.5-0.9,1.4-0.9h1.1v1
	C94.1,270.5,93.4,270.9,92.6,270.9z M100,272v-4.8c0-0.8,0.7-1.2,1.5-1.2c0.9,0,1.2,0.5,1.2,1.6v4.4h1.8v-4.6c0-1.8-0.8-2.9-2.3-2.9
	c-1.1,0-1.8,0.6-2,1.4H100v-1.2h-1.8v7.3H100z M108.4,272.2c1.1,0,1.9-0.5,2.1-1.4h0.1c0.1,0.8,0.6,1.3,1.4,1.3h1v-1.4h-0.7v-3.4
	c0-1.7-1-2.6-3-2.6c-1.5,0-2.3,0.6-2.9,1.4l1.1,1c0.3-0.5,0.8-0.9,1.7-0.9c1,0,1.4,0.5,1.4,1.3v0.5h-1.2c-2,0-3.1,0.7-3.1,2.2
	C106.1,271.3,106.9,272.2,108.4,272.2z M109,270.9c-0.7,0-1.1-0.3-1.1-0.9v-0.2c0-0.6,0.5-0.9,1.4-0.9h1.1v1
	C110.4,270.5,109.8,270.9,109,270.9z M121.2,272.6c0-1.3-0.8-2.1-2.6-2.1h-2c-0.6,0-1-0.2-1-0.5c0-0.3,0.2-0.5,0.5-0.7
	c0.3,0.1,0.7,0.1,1.1,0.1c2,0,3-1,3-2.4c0-0.9-0.4-1.6-1.1-2v-0.2h1.6v-1.4h-1.1c-0.7,0-1,0.4-1,1.1v0.2c-0.4-0.1-0.8-0.2-1.3-0.2
	c-2,0-3,1-3,2.5c0,1,0.4,1.7,1.3,2.1v0.1c-0.7,0.2-1.3,0.5-1.3,1.3c0,0.6,0.3,1.1,0.9,1.2v0.2c-0.8,0.1-1.3,0.6-1.3,1.4
	c0,1.1,0.9,1.7,3.4,1.7C120.1,275,121.2,274.1,121.2,272.6z M119.5,272.8c0,0.6-0.5,0.9-1.7,0.9h-0.9c-1.1,0-1.5-0.3-1.5-0.9
	c0-0.3,0.1-0.6,0.4-0.8h2.5C119.2,272.1,119.5,272.4,119.5,272.8z M117.3,268.2c-0.9,0-1.3-0.4-1.3-1.1v-0.2c0-0.7,0.5-1.1,1.3-1.1
	c0.9,0,1.3,0.4,1.3,1.1v0.2C118.7,267.8,118.2,268.2,117.3,268.2z M125.2,272.2c1.4,0,2.4-0.5,3-1.3l-1-1.1c-0.4,0.6-1,1-1.9,1
	c-1.2,0-1.8-0.7-1.8-1.8v-0.2h4.9v-0.6c0-2-1.1-3.7-3.3-3.7c-2.1,0-3.4,1.5-3.4,3.8C121.8,270.7,123.1,272.2,125.2,272.2z
	 M125.2,265.9c0.9,0,1.4,0.7,1.4,1.7v0.1h-3v-0.1C123.7,266.6,124.3,265.9,125.2,265.9z M132,272v-4.8c0-0.8,0.7-1.2,1.4-1.2
	c0.8,0,1.2,0.5,1.2,1.6v4.4h1.8v-4.8c0-0.8,0.7-1.2,1.4-1.2c0.8,0,1.2,0.5,1.2,1.6v4.4h1.8v-4.6c0-1.8-0.8-2.9-2.2-2.9
	c-1.2,0-2,0.7-2.2,1.5h0c-0.4-1-1.1-1.5-2.1-1.5c-1.1,0-1.7,0.6-2,1.4H132v-1.2h-1.8v7.3H132z M145.8,272.2c1.4,0,2.4-0.5,3-1.3
	l-1-1.1c-0.4,0.6-1,1-1.9,1c-1.2,0-1.8-0.7-1.8-1.8v-0.2h4.9v-0.6c0-2-1.1-3.7-3.3-3.7c-2.1,0-3.4,1.5-3.4,3.8
	C142.3,270.7,143.6,272.2,145.8,272.2z M145.8,265.9c0.9,0,1.4,0.7,1.4,1.7v0.1h-3v-0.1C144.2,266.6,144.8,265.9,145.8,265.9z
	 M152.6,272v-4.8c0-0.8,0.7-1.2,1.5-1.2c0.9,0,1.2,0.5,1.2,1.6v4.4h1.8v-4.6c0-1.8-0.8-2.9-2.3-2.9c-1.1,0-1.8,0.6-2,1.4h-0.1v-1.2
	h-1.8v7.3H152.6z M161.5,272h1.3v-1.4h-1.4v-4.5h1.5v-1.4h-1.5v-2h-1.6v1.2c0,0.5-0.2,0.8-0.7,0.8h-0.6v1.4h1.1v4
	C159.6,271.3,160.2,272,161.5,272z M102.5,292.8h1.8v-4h0.1c0.3,0.8,1.1,1.4,2,1.4c1.8,0,2.9-1.4,2.9-3.8c0-2.4-1-3.8-2.9-3.8
	c-1,0-1.8,0.5-2,1.4h-0.1v-1.2h-1.8V292.8z M105.8,288.7c-0.9,0-1.5-0.4-1.5-1.2v-2.3c0-0.7,0.6-1.2,1.5-1.2c0.9,0,1.6,0.7,1.6,1.7
	v1.3C107.4,288,106.7,288.7,105.8,288.7z M113.8,290v-1.4h-1v-8.9h-1.8v8.6c0,1.1,0.6,1.8,1.8,1.8H113.8z M117.2,290.2
	c1.1,0,1.9-0.5,2.1-1.4h0.1c0.1,0.8,0.6,1.3,1.4,1.3h1v-1.4H121v-3.4c0-1.7-1-2.6-3-2.6c-1.5,0-2.3,0.6-2.9,1.4l1.1,1
	c0.3-0.5,0.8-0.9,1.7-0.9c1,0,1.4,0.5,1.4,1.3v0.5H118c-2,0-3.1,0.7-3.1,2.2C114.8,289.3,115.7,290.2,117.2,290.2z M117.8,288.9
	c-0.7,0-1.1-0.3-1.1-0.9v-0.2c0-0.6,0.5-0.9,1.4-0.9h1.1v1C119.2,288.5,118.6,288.9,117.8,288.9z M125.1,290v-4.8
	c0-0.8,0.7-1.2,1.5-1.2c0.9,0,1.2,0.5,1.2,1.6v4.4h1.8v-4.6c0-1.8-0.8-2.9-2.3-2.9c-1.1,0-1.8,0.6-2,1.4h-0.1v-1.2h-1.8v7.3H125.1z
	 M134.7,290.2c1.4,0,2.4-0.5,3-1.3l-1-1.1c-0.4,0.6-1,1-1.9,1c-1.2,0-1.8-0.7-1.8-1.8v-0.2h4.9v-0.6c0-2-1.1-3.7-3.3-3.7
	c-2.1,0-3.4,1.5-3.4,3.8C131.2,288.7,132.5,290.2,134.7,290.2z M134.7,283.9c0.9,0,1.4,0.7,1.4,1.7v0.1h-3v-0.1
	C133.1,284.6,133.7,283.9,134.7,283.9z"/>
<rect x="416.5" y="48.5" class="st1" width="615" height="391"/>
<rect x="417" y="49" class="st1" width="614" height="390"/>
<g>
	<defs>
		<rect id="SVGID_00000116214382923430492040000016725666947940043177_" x="416" y="48" width="213" height="48"/>
	</defs>
	<clipPath id="SVGID_00000046340947719962824510000007109384974015236252_">
		<use xlink:href="#SVGID_00000116214382923430492040000016725666947940043177_"  style="overflow:visible;"/>
	</clipPath>
	<g style="clip-path:url(#SVGID_00000046340947719962824510000007109384974015236252_);">
		<line class="st10" x1="418" y1="48" x2="418" y2="96"/>
		<path d="M439.6,68v-1.6H435v-2.5h4.1v-1.6H435v-2.4h4.6v-1.6h-6.4V68H439.6z M446,68h1.8V57.6H446v4.3h-0.1
			c-0.3-0.8-1.1-1.4-2-1.4c-1.8,0-2.9,1.4-2.9,3.8c0,2.4,1,3.8,2.9,3.8c1,0,1.8-0.6,2-1.4h0.1V68z M444.5,66.7
			c-0.9,0-1.6-0.7-1.6-1.7v-1.3c0-1,0.6-1.7,1.6-1.7c0.9,0,1.5,0.5,1.5,1.2v2.3C446,66.2,445.3,66.7,444.5,66.7z M456.6,68.6
			c0-1.3-0.8-2.1-2.6-2.1h-2c-0.6,0-1-0.2-1-0.5c0-0.3,0.2-0.5,0.5-0.7c0.3,0.1,0.7,0.1,1.1,0.1c2,0,3-1,3-2.5c0-0.9-0.4-1.6-1.1-2
			v-0.2h1.6v-1.4h-1.1c-0.7,0-1,0.4-1,1.1v0.2c-0.4-0.1-0.8-0.2-1.3-0.2c-2,0-3,1-3,2.5c0,1,0.4,1.7,1.3,2.1v0.1
			c-0.7,0.2-1.3,0.5-1.3,1.3c0,0.6,0.3,1.1,0.9,1.2v0.2c-0.8,0.1-1.3,0.6-1.3,1.4c0,1.1,0.9,1.7,3.4,1.7
			C455.6,71,456.6,70.1,456.6,68.6z M454.9,68.8c0,0.6-0.5,0.9-1.7,0.9h-0.9c-1.1,0-1.5-0.3-1.5-0.9c0-0.3,0.1-0.6,0.4-0.8h2.5
			C454.6,68.1,454.9,68.4,454.9,68.8z M452.8,64.2c-0.9,0-1.3-0.4-1.3-1.1v-0.2c0-0.7,0.5-1.1,1.3-1.1s1.3,0.4,1.3,1.1v0.2
			C454.1,63.8,453.6,64.2,452.8,64.2z M460.7,68.2c1.4,0,2.4-0.5,3-1.3l-1-1.1c-0.4,0.6-1,1-1.9,1c-1.2,0-1.8-0.7-1.8-1.8v-0.2h4.9
			v-0.6c0-2-1.1-3.7-3.3-3.7c-2.1,0-3.4,1.5-3.4,3.8C457.2,66.7,458.5,68.2,460.7,68.2z M460.6,61.9c0.9,0,1.4,0.7,1.4,1.7v0.1h-3
			v-0.1C459.1,62.6,459.7,61.9,460.6,61.9z M472,68.2c2.1,0,3.4-1.5,3.4-3.8c0-2.3-1.3-3.8-3.4-3.8c-2.1,0-3.4,1.5-3.4,3.8
			C468.7,66.7,470,68.2,472,68.2z M472,66.7c-0.9,0-1.5-0.6-1.5-1.7v-1.4c0-1.1,0.6-1.7,1.5-1.7c0.9,0,1.5,0.6,1.5,1.7V65
			C473.6,66.1,473,66.7,472,66.7z M479,68v-4.5c0-0.8,0.6-1.1,1.8-1.1h0.6v-1.7H481c-1.2,0-1.8,0.7-1.9,1.5H479v-1.5h-1.8V68H479z
			 M489.2,68.2c2.1,0,3.4-1.5,3.4-3.8c0-2.3-1.3-3.8-3.4-3.8c-2.1,0-3.4,1.5-3.4,3.8C485.8,66.7,487.1,68.2,489.2,68.2z M489.2,66.7
			c-0.9,0-1.5-0.6-1.5-1.7v-1.4c0-1.1,0.6-1.7,1.5-1.7c0.9,0,1.5,0.6,1.5,1.7V65C490.7,66.1,490.2,66.7,489.2,66.7z M496.6,68h1.3
			v-1.4h-1.4v-4.5h1.5v-1.4h-1.5v-2h-1.6v1.2c0,0.5-0.2,0.8-0.7,0.8h-0.6v1.4h1.1v4C494.7,67.3,495.4,68,496.6,68z M499.7,68h1.8
			v-4.8c0-0.8,0.7-1.2,1.5-1.2c0.9,0,1.2,0.5,1.2,1.6V68h1.8v-4.6c0-1.8-0.8-2.9-2.3-2.9c-1.1,0-1.8,0.6-2,1.4h-0.1v-4.3h-1.8V68z
			 M511.1,68.2c1.4,0,2.4-0.5,3-1.3l-1-1.1c-0.4,0.6-1,1-1.9,1c-1.2,0-1.8-0.7-1.8-1.8v-0.2h4.9v-0.6c0-2-1.1-3.7-3.3-3.7
			c-2.1,0-3.4,1.5-3.4,3.8C507.6,66.7,508.9,68.2,511.1,68.2z M511,61.9c0.9,0,1.4,0.7,1.4,1.7v0.1h-3v-0.1
			C509.5,62.6,510.1,61.9,511,61.9z M517.9,68v-4.5c0-0.8,0.6-1.1,1.8-1.1h0.6v-1.7h-0.4c-1.2,0-1.8,0.7-1.9,1.5h-0.1v-1.5h-1.8V68
			H517.9z M529.7,68h1.8V57.6h-1.8v4.3h-0.1c-0.3-0.8-1-1.4-2-1.4c-1.8,0-2.9,1.4-2.9,3.8c0,2.4,1,3.8,2.9,3.8c1,0,1.8-0.6,2-1.4
			h0.1V68z M528.2,66.7c-0.9,0-1.6-0.7-1.6-1.7v-1.3c0-1,0.6-1.7,1.6-1.7c0.9,0,1.5,0.5,1.5,1.2v2.3
			C529.7,66.2,529.1,66.7,528.2,66.7z M535.6,68.2c1.1,0,1.9-0.5,2.1-1.4h0.1c0.1,0.8,0.6,1.3,1.4,1.3h1v-1.4h-0.7v-3.4
			c0-1.7-1.1-2.6-3-2.6c-1.5,0-2.3,0.6-2.9,1.4l1.1,1c0.4-0.5,0.8-0.9,1.7-0.9c1,0,1.4,0.5,1.4,1.3v0.5h-1.2c-2,0-3.1,0.7-3.1,2.2
			C533.2,67.3,534.1,68.2,535.6,68.2z M536.2,66.9c-0.7,0-1.1-0.3-1.1-0.9v-0.2c0-0.6,0.5-0.9,1.4-0.9h1.1v1
			C537.6,66.5,537,66.9,536.2,66.9z M544,68h1.3v-1.4h-1.4v-4.5h1.5v-1.4h-1.5v-2h-1.6v1.2c0,0.5-0.2,0.8-0.7,0.8H541v1.4h1.1v4
			C542.1,67.3,542.7,68,544,68z M548.9,68.2c1.1,0,1.9-0.5,2.1-1.4h0.1c0.1,0.8,0.6,1.3,1.4,1.3h1v-1.4h-0.7v-3.4c0-1.7-1-2.6-3-2.6
			c-1.5,0-2.3,0.6-2.9,1.4l1.1,1c0.3-0.5,0.8-0.9,1.7-0.9c1,0,1.4,0.5,1.4,1.3v0.5h-1.2c-2,0-3.1,0.7-3.1,2.2
			C546.6,67.3,547.4,68.2,548.9,68.2z M549.5,66.9c-0.7,0-1.1-0.3-1.1-0.9v-0.2c0-0.6,0.5-0.9,1.4-0.9h1.1v1
			C550.9,66.5,550.3,66.9,549.5,66.9z M561.4,68.2c1.4,0,2.4-0.6,2.9-1.9l-1.4-0.7c-0.3,0.7-0.7,1.1-1.5,1.1c-1,0-1.5-0.7-1.5-1.7
			v-1.3c0-1,0.5-1.7,1.5-1.7c0.8,0,1.2,0.4,1.4,1.1l1.5-0.7c-0.4-1.1-1.4-1.8-2.9-1.8c-2.2,0-3.4,1.5-3.4,3.8
			C558,66.7,559.2,68.2,561.4,68.2z M568.7,68.2c1.4,0,2.4-0.5,3-1.3l-1-1.1c-0.4,0.6-1,1-1.9,1c-1.2,0-1.8-0.7-1.8-1.8v-0.2h4.9
			v-0.6c0-2-1-3.7-3.3-3.7c-2.1,0-3.4,1.5-3.4,3.8C565.3,66.7,566.6,68.2,568.7,68.2z M568.7,61.9c0.9,0,1.4,0.7,1.4,1.7v0.1h-3
			v-0.1C567.2,62.6,567.8,61.9,568.7,61.9z M575.5,68v-4.8c0-0.8,0.7-1.2,1.5-1.2c0.9,0,1.2,0.5,1.2,1.6V68h1.8v-4.6
			c0-1.8-0.8-2.9-2.3-2.9c-1.1,0-1.8,0.6-2,1.4h-0.1v-1.2h-1.8V68H575.5z M584.4,68h1.3v-1.4h-1.4v-4.5h1.5v-1.4h-1.5v-2h-1.6v1.2
			c0,0.5-0.2,0.8-0.7,0.8h-0.6v1.4h1.1v4C582.5,67.3,583.2,68,584.4,68z M590.4,68.2c1.4,0,2.4-0.5,3-1.3l-1-1.1c-0.4,0.6-1,1-1.9,1
			c-1.2,0-1.8-0.7-1.8-1.8v-0.2h4.9v-0.6c0-2-1-3.7-3.3-3.7c-2.1,0-3.4,1.5-3.4,3.8C587,66.7,588.3,68.2,590.4,68.2z M590.4,61.9
			c0.9,0,1.4,0.7,1.4,1.7v0.1h-3v-0.1C588.9,62.6,589.5,61.9,590.4,61.9z M597.2,68v-4.5c0-0.8,0.6-1.1,1.8-1.1h0.6v-1.7h-0.4
			c-1.2,0-1.8,0.7-1.9,1.5h-0.1v-1.5h-1.8V68H597.2z M612.7,68l-3.2-9.8h-2.3l-3.3,9.8h1.9l0.8-2.5h3.5l0.8,2.5H612.7z M609.5,63.9
			h-2.6l1.2-4h0.1L609.5,63.9z"/>
		<path d="M433.2,81.6c0,2.7,1.1,5.1,2.5,6.3h1.1c-1.5-1.3-2.5-3.7-2.5-5.7V81c0-2,1-4.3,2.5-5.7h-1.1
			C434.3,76.6,433.2,78.9,433.2,81.6z M441.6,86.2c1.6,0,2.8-0.9,3.4-2.2l-0.9-0.6c-0.4,1.1-1.2,1.8-2.5,1.8c-1.7,0-2.7-1.2-2.7-3.2
			v-1.5c0-2,1-3.3,2.7-3.3c1.2,0,2,0.7,2.4,1.7l1-0.6c-0.6-1.4-1.7-2.1-3.4-2.1c-2.5,0-3.9,1.8-3.9,5.1S439.1,86.2,441.6,86.2z
			 M451.3,86h1.1v-7.2h-1.1v5c0,1-0.9,1.4-1.8,1.4c-1.1,0-1.7-0.7-1.7-1.9v-4.4h-1.1v4.6c0,1.8,1,2.8,2.4,2.8c1.2,0,1.8-0.7,2-1.3
			h0.1V86z M457.2,86.2c1.7,0,2.7-0.9,2.7-2.3c0-1.1-0.6-1.8-2.2-2l-0.6-0.1c-0.9-0.1-1.4-0.4-1.4-1.1c0-0.7,0.5-1.1,1.4-1.1
			s1.5,0.4,1.9,0.9l0.7-0.7c-0.6-0.7-1.4-1.2-2.5-1.2c-1.5,0-2.6,0.7-2.6,2.1c0,1.3,1,1.9,2.3,2.1l0.6,0.1c1,0.1,1.3,0.6,1.3,1.1
			c0,0.7-0.6,1.2-1.5,1.2c-0.9,0-1.6-0.4-2.1-1.1l-0.8,0.6C455,85.6,455.9,86.2,457.2,86.2z M464.9,86v-1h-1.5v-5.3h1.6v-1h-1.6v-2
			h-1v1.3c0,0.5-0.2,0.7-0.6,0.7h-0.7v1h1.2v5.1c0,0.7,0.4,1.2,1.2,1.2H464.9z M469.6,86.2c1.9,0,3.3-1.5,3.3-3.8s-1.3-3.8-3.3-3.8
			s-3.3,1.5-3.3,3.8S467.7,86.2,469.6,86.2z M469.6,85.2c-1.2,0-2.1-0.7-2.1-2.3v-1c0-1.5,0.9-2.3,2.1-2.3s2.1,0.7,2.1,2.3v1
			C471.7,84.4,470.8,85.2,469.6,85.2z M476,86v-5c0-0.9,0.8-1.4,1.7-1.4c1.1,0,1.6,0.7,1.6,1.9V86h1.1v-5c0-0.9,0.8-1.4,1.7-1.4
			c1.1,0,1.6,0.7,1.6,1.9V86h1.1v-4.6c0-1.8-0.9-2.8-2.4-2.8c-1.2,0-1.9,0.7-2.2,1.5h0c-0.4-1-1.3-1.5-2.2-1.5
			c-1.1,0-1.6,0.6-1.9,1.3H476v-1.2h-1.1V86H476z M490,86.2c1.4,0,2.4-0.7,2.9-1.7l-0.8-0.6c-0.4,0.8-1.1,1.2-2,1.2
			c-1.3,0-2.1-0.9-2.1-2.2v-0.3h5.2v-0.5c0-2-1.2-3.5-3.1-3.5c-2,0-3.2,1.5-3.2,3.8S488,86.2,490,86.2z M490,79.5
			c1.1,0,1.9,0.9,1.9,2.1v0.2h-4v-0.1C487.9,80.5,488.8,79.5,490,79.5z M496.3,86v-4.9c0-0.7,0.7-1.2,1.9-1.2h0.7v-1.1h-0.4
			c-1.2,0-1.8,0.6-2.1,1.3h-0.1v-1.3h-1.1V86H496.3z M503.6,82.3v-1.2h-3.7v1.2H503.6z M508.8,86.2c1.9,0,3.3-1.5,3.3-3.8
			s-1.3-3.8-3.3-3.8c-1.9,0-3.3,1.5-3.3,3.8S506.8,86.2,508.8,86.2z M508.8,85.2c-1.2,0-2.1-0.7-2.1-2.3v-1c0-1.5,0.9-2.3,2.1-2.3
			c1.2,0,2.1,0.7,2.1,2.3v1C510.8,84.4,510,85.2,508.8,85.2z M515.1,86h1.4l1-3.5l0.6-2.2h0l0.6,2.2l1,3.5h1.4l1.9-7.2h-1l-0.8,3.1
			l-0.7,3.2h0l-0.9-3.2l-0.9-3.1h-1l-0.9,3.1l-0.9,3.2h0l-0.8-3.2l-0.8-3.1h-1.1L515.1,86z M526,86v-5c0-0.9,0.9-1.4,1.8-1.4
			c1.1,0,1.6,0.7,1.6,1.9V86h1.1v-4.6c0-1.8-0.9-2.8-2.4-2.8c-1.1,0-1.7,0.5-2,1.3H526v-1.2h-1.1V86H526z M535.7,86.2
			c1.4,0,2.4-0.7,2.9-1.7l-0.8-0.6c-0.4,0.8-1.1,1.2-2,1.2c-1.3,0-2.1-0.9-2.1-2.2v-0.3h5.2v-0.5c0-2-1.2-3.5-3.1-3.5
			c-2,0-3.2,1.5-3.2,3.8S533.8,86.2,535.7,86.2z M535.7,79.5c1.1,0,1.9,0.9,1.9,2.1v0.2h-4v-0.1C533.6,80.5,534.5,79.5,535.7,79.5z
			 M545.5,86h1.1V75.6h-1.1V80h-0.1c-0.4-0.9-1.1-1.3-2.1-1.3c-1.8,0-2.9,1.5-2.9,3.8s1.1,3.8,2.9,3.8c1,0,1.7-0.4,2.1-1.3h0.1V86z
			 M543.6,85.2c-1.3,0-2-0.9-2-2.2v-1.2c0-1.3,0.8-2.2,2-2.2c1,0,1.9,0.6,1.9,1.4v2.7C545.5,84.6,544.6,85.2,543.6,85.2z
			 M551.5,81.6c0-2.7-1.1-5.1-2.5-6.3h-1.1c1.6,1.4,2.5,3.7,2.5,5.7v1.2c0,2-1,4.3-2.5,5.7h1.1C550.3,86.7,551.5,84.4,551.5,81.6z"
			/>
	</g>
</g>
<rect x="416.5" y="48.5" class="st11" width="615" height="391"/>
<path class="st12" d="M192.5,112.5H1010c4.1,0,7.5,3.4,7.5,7.5v296c0,4.1-3.4,7.5-7.5,7.5H200c-4.1,0-7.5-3.4-7.5-7.5V112.5z"/>
<g>
	<defs>
		<rect id="SVGID_00000066481961976031691910000013596514251686082232_" x="192" y="112" width="181" height="48"/>
	</defs>
	<clipPath id="SVGID_00000169556440551654622470000008024315020409518474_">
		<use xlink:href="#SVGID_00000066481961976031691910000013596514251686082232_"  style="overflow:visible;"/>
	</clipPath>
	<g style="clip-path:url(#SVGID_00000169556440551654622470000008024315020409518474_);">
		<line class="st10" x1="194" y1="112" x2="194" y2="160"/>
		<path d="M213.6,139.8c0.7,0,1.2-0.6,1.2-1.2s-0.6-1.2-1.2-1.2s-1.2,0.6-1.2,1.2S212.9,139.8,213.6,139.8z"/>
		<path d="M218,138.5c-1.4,0-2.5-1.1-2.5-2.5s1.1-2.5,2.5-2.5s2.5,1.1,2.5,2.5S219.4,138.5,218,138.5z M218,134.8
			c-0.7,0-1.2,0.6-1.2,1.2s0.6,1.2,1.2,1.2s1.2-0.6,1.2-1.2S218.7,134.8,218,134.8z"/>
		<path d="M222.4,134.8c0.7,0,1.2-0.6,1.2-1.2s-0.6-1.2-1.2-1.2s-1.2,0.6-1.2,1.2S221.7,134.8,222.4,134.8z"/>
		<path d="M218,145.4c-0.1,0-0.2,0-0.3-0.1l-7.5-4.4c-0.2-0.1-0.3-0.3-0.3-0.5v-8.8c0-0.2,0.1-0.4,0.3-0.5l7.5-4.4
			c0.2-0.1,0.4-0.1,0.6,0l7.5,4.4l-0.6,1.1L218,128l-6.9,4v8l6.9,4l6.9-4v-4.6h1.2v5c0,0.2-0.1,0.4-0.3,0.5l-7.5,4.4
			C218.2,145.3,218.1,145.4,218,145.4L218,145.4z"/>
		<path d="M248.2,141.2c2.3,0,3.7-1.3,3.7-3.1c0-1.6-0.9-2.5-2.9-2.8l-0.9-0.2c-0.9-0.2-1.4-0.5-1.4-1.2c0-0.7,0.5-1.1,1.6-1.1
			c1,0,1.7,0.4,2.2,1l1.3-1.2c-0.8-0.9-1.9-1.4-3.3-1.4c-2.2,0-3.5,1.1-3.5,2.9c0,1.6,1,2.5,2.9,2.8l0.9,0.1c1,0.2,1.3,0.6,1.3,1.2
			c0,0.8-0.6,1.4-1.7,1.4c-1,0-1.8-0.4-2.5-1.2l-1.2,1.2C245.4,140.5,246.5,141.2,248.2,141.2z M255.6,141.2c1.1,0,1.9-0.5,2.1-1.4
			h0.1c0.1,0.8,0.6,1.3,1.4,1.3h1v-1.4h-0.7v-3.4c0-1.7-1.1-2.6-3-2.6c-1.5,0-2.3,0.6-2.9,1.4l1.1,1c0.4-0.5,0.8-0.9,1.7-0.9
			c1,0,1.4,0.5,1.4,1.3v0.5h-1.2c-2,0-3.1,0.7-3.1,2.2C253.2,140.3,254.1,141.2,255.6,141.2z M256.2,139.9c-0.7,0-1.1-0.3-1.1-0.9
			v-0.2c0-0.6,0.5-0.9,1.4-0.9h1.1v1C257.6,139.5,257,139.9,256.2,139.9z M264,141h1.3v-1.4h-1.4v-4.5h1.5v-1.4h-1.5v-2h-1.6v1.2
			c0,0.5-0.2,0.8-0.7,0.8H261v1.4h1.1v4C262.1,140.3,262.7,141,264,141z M270,141.2c1.4,0,2.4-0.5,3-1.3l-1-1.1c-0.4,0.6-1,1-1.9,1
			c-1.2,0-1.8-0.7-1.8-1.8v-0.2h4.9v-0.6c0-2-1.1-3.7-3.3-3.7c-2.1,0-3.4,1.5-3.4,3.8C266.5,139.7,267.8,141.2,270,141.2z
			 M269.9,134.9c0.9,0,1.4,0.7,1.4,1.7v0.1h-3v-0.1C268.4,135.6,269,134.9,269.9,134.9z M277.7,141v-1.4h-1v-8.9H275v8.6
			c0,1.1,0.6,1.8,1.8,1.8H277.7z M281.9,141v-1.4h-1v-8.9h-1.8v8.6c0,1.1,0.6,1.8,1.8,1.8H281.9z M284.3,132.6
			c0.7,0,1.1-0.4,1.1-0.9v-0.3c0-0.5-0.3-0.9-1.1-0.9c-0.7,0-1,0.4-1,0.9v0.3C283.3,132.2,283.6,132.6,284.3,132.6z M283.4,141h1.8
			v-7.3h-1.8V141z M289.8,141h1.3v-1.4h-1.4v-4.5h1.5v-1.4h-1.5v-2H288v1.2c0,0.5-0.2,0.8-0.7,0.8h-0.6v1.4h1.1v4
			C287.9,140.3,288.5,141,289.8,141z M295.8,141.2c1.4,0,2.4-0.5,3-1.3l-1-1.1c-0.4,0.6-1,1-1.9,1c-1.2,0-1.8-0.7-1.8-1.8v-0.2h4.9
			v-0.6c0-2-1.1-3.7-3.3-3.7c-2.1,0-3.4,1.5-3.4,3.8C292.3,139.7,293.6,141.2,295.8,141.2z M295.7,134.9c0.9,0,1.4,0.7,1.4,1.7v0.1
			h-3v-0.1C294.2,135.6,294.8,134.9,295.7,134.9z M307,141v-1.4h-1v-8.9h-1.8v8.6c0,1.1,0.6,1.8,1.8,1.8H307z M311.4,141.2
			c2.1,0,3.4-1.5,3.4-3.8c0-2.3-1.3-3.8-3.4-3.8c-2.1,0-3.4,1.5-3.4,3.8C308,139.7,309.3,141.2,311.4,141.2z M311.4,139.7
			c-0.9,0-1.5-0.6-1.5-1.7v-1.4c0-1.1,0.6-1.7,1.5-1.7c0.9,0,1.5,0.6,1.5,1.7v1.4C312.9,139.1,312.4,139.7,311.4,139.7z
			 M319.5,141.2c1.4,0,2.4-0.6,2.9-1.9l-1.4-0.7c-0.3,0.7-0.7,1.1-1.5,1.1c-1,0-1.5-0.7-1.5-1.7v-1.3c0-1,0.5-1.7,1.5-1.7
			c0.8,0,1.2,0.4,1.4,1.1l1.5-0.7c-0.4-1.1-1.4-1.8-2.9-1.8c-2.2,0-3.4,1.5-3.4,3.8C316.1,139.7,317.3,141.2,319.5,141.2z
			 M325.7,141.2c1.1,0,1.9-0.5,2.1-1.4h0.1c0.1,0.8,0.6,1.3,1.4,1.3h1v-1.4h-0.7v-3.4c0-1.7-1.1-2.6-3-2.6c-1.5,0-2.3,0.6-2.9,1.4
			l1.1,1c0.4-0.5,0.8-0.9,1.7-0.9c1,0,1.4,0.5,1.4,1.3v0.5h-1.2c-2,0-3.1,0.7-3.1,2.2C323.4,140.3,324.2,141.2,325.7,141.2z
			 M326.3,139.9c-0.7,0-1.1-0.3-1.1-0.9v-0.2c0-0.6,0.5-0.9,1.4-0.9h1.1v1C327.8,139.5,327.1,139.9,326.3,139.9z M334.1,141h1.3
			v-1.4H334v-4.5h1.5v-1.4H334v-2h-1.6v1.2c0,0.5-0.2,0.8-0.7,0.8h-0.6v1.4h1.1v4C332.2,140.3,332.9,141,334.1,141z M338.1,132.6
			c0.7,0,1-0.4,1-0.9v-0.3c0-0.5-0.3-0.9-1-0.9c-0.7,0-1,0.4-1,0.9v0.3C337.1,132.2,337.4,132.6,338.1,132.6z M337.2,141h1.8v-7.3
			h-1.8V141z M344.2,141.2c2.1,0,3.4-1.5,3.4-3.8c0-2.3-1.3-3.8-3.4-3.8c-2.1,0-3.4,1.5-3.4,3.8
			C340.8,139.7,342.1,141.2,344.2,141.2z M344.2,139.7c-0.9,0-1.5-0.6-1.5-1.7v-1.4c0-1.1,0.6-1.7,1.5-1.7c0.9,0,1.5,0.6,1.5,1.7
			v1.4C345.7,139.1,345.1,139.7,344.2,139.7z M351.1,141v-4.8c0-0.8,0.7-1.2,1.5-1.2c0.9,0,1.2,0.5,1.2,1.6v4.4h1.8v-4.6
			c0-1.8-0.8-2.9-2.3-2.9c-1.1,0-1.8,0.6-2,1.4h-0.1v-1.2h-1.8v7.3H351.1z"/>
	</g>
</g>
<path class="st11" d="M192.5,112.5H1010c4.1,0,7.5,3.4,7.5,7.5v296c0,4.1-3.4,7.5-7.5,7.5H200c-4.1,0-7.5-3.4-7.5-7.5V112.5z"/>
<path class="st14" d="M416,114v-2h1v2H416z M416,122v-4h1v4H416z M416,130v-4h1v4H416z M416,138v-4h1v4H416z M416,146v-4h1v4H416z
	 M416,154v-4h1v4H416z M416,162v-4h1v4H416z M416,170v-4h1v4H416z M416,178v-4h1v4H416z M416,186v-4h1v4H416z M416,194v-4h1v4H416z
	 M416,202v-4h1v4H416z M416,210v-4h1v4H416z M416,218v-4h1v4H416z M416,226v-4h1v4H416z M416,234v-4h1v4H416z M416,242v-4h1v4H416z
	 M416,250v-4h1v4H416z M416,258v-4h1v4H416z M416,266v-4h1v4H416z M416,274v-4h1v4H416z M416,282v-4h1v4H416z M416,290v-4h1v4H416z
	 M416,298v-4h1v4H416z M416,306v-4h1v4H416z M416,314v-4h1v4H416z M416,322v-4h1v4H416z M416,330v-4h1v4H416z M416,338v-4h1v4H416z
	 M416,346v-4h1v4H416z M416,354v-4h1v4H416z M416,362v-4h1v4H416z M416,370v-4h1v4H416z M416,378v-4h1v4H416z M416,386v-4h1v4H416z
	 M416,394v-4h1v4H416z M416,402v-4h1v4H416z M416,410v-4h1v4H416z M416,418v-4h1v4H416z M416,424v-2h1v2H416z"/>
<path class="st15" d="M367,114v-2h1v2H367z M367,122v-4h1v4H367z M367,130v-4h1v4H367z M367,138v-4h1v4H367z M367,146v-4h1v4H367z
	 M367,154v-4h1v4H367z M367,162v-4h1v4H367z M367,170v-4h1v4H367z M367,178v-4h1v4H367z M367,186v-4h1v4H367z M367,194v-4h1v4H367z
	 M367,202v-4h1v4H367z M367,210v-4h1v4H367z M367,218v-4h1v4H367z M367,226v-4h1v4H367z M367,234v-4h1v4H367z M367,242v-4h1v4H367z
	 M367,250v-4h1v4H367z M367,258v-4h1v4H367z M367,266v-4h1v4H367z M367,274v-4h1v4H367z M367,282v-4h1v4H367z M367,290v-4h1v4H367z
	 M367,298v-4h1v4H367z M367,306v-4h1v4H367z M367,314v-4h1v4H367z M367,322v-4h1v4H367z M367,330v-4h1v4H367z M367,338v-4h1v4H367z
	 M367,346v-4h1v4H367z M367,354v-4h1v4H367z M367,362v-4h1v4H367z M367,370v-4h1v4H367z M367,378v-4h1v4H367z M367,386v-4h1v4H367z
	 M367,394v-4h1v4H367z M367,402v-4h1v4H367z M367,410v-4h1v4H367z M367,418v-4h1v4H367z M367,424v-2h1v2H367z"/>
<path class="st16" d="M410,255.5l-138,0c-4.1,0-7.5-3.4-7.5-7.5v-11h2.4l-2.9-5l-2.9,5h2.4v11c0,4.7,3.8,8.5,8.5,8.5l38,0v0l109,0v0
	h37h2h4h2.1c4,0.1,7.3,3.4,7.3,7.5v11h-2.4l2.9,5l2.9-5h-2.4v-11c0-3.2-1.8-6.1-4.5-7.5h2.1h4h4h4h4h4h4h4h4h4h4h4h4h4h4h3.9h0.2h4
	h4h4h4l4,0v0h4v0h4v0h4v0h4v0h3.9h0.2h4h4h4h4h4h4h4h4h4h4h4h4h4h1.5c4.1,0.1,7.3,3.4,7.3,7.5v11h-2.4l2.9,5l2.9-5h-2.4v-11
	c0-3.2-1.8-6.1-4.5-7.5h2.8h4h4h4h4h4h4h4h4h4h4h4h4h4h1.9h2.1h4h4h4h4h4h4h2h2h4h4l4,0v0h4v0l4,0v0l4,0v0h4v0h4v0h4v0h4v0h4v0h4v0
	h4v0h4v0l4,0v0h4v0h4v0h0.3c4.1,0.1,7.3,3.4,7.3,7.5v11h-2.4l2.9,5l2.9-5h-2.4v-11c0-3.3-1.9-6.2-4.7-7.6v-0.9h-3.6
	c-0.1,0-0.1,0-0.2,0l-59.4,0h-4h-4h-2h-2h-4h-4h-4h-4h-4h-4h-2.1h-1.9h-4h-4h-4h-4h-4h-4h-4h-4h-4h-4h-4h-4h-4h-4h-2.6
	c0,0,0,0-0.1,0c0,0-0.1,0-0.1,0l-78.1,0h-4h-4h-4h-4h-0.2h-3.9h-4h-4h-4h-4h-4h-4h-4h-4h-4h-4h-4h-4h-4h-4h-4h-1.9c0,0-0.1,0-0.1,0
	c0,0-0.1,0-0.1,0L410,255.5L410,255.5z M944,256.5h-2v-1h2c0.6,0,1.1,0.1,1.7,0.2l-0.2,1C945,256.5,944.5,256.5,944,256.5z
	 M938.1,256.5h-4v-1h4V256.5z M930.2,256.5h-4v-1h4V256.5z M922.3,256.5h-4v-1h4V256.5z M914.3,256.5h-4v-1h4V256.5z M906.4,256.5
	h-4v-1h4V256.5z M898.5,256.5h-4v-1h4V256.5z M890.6,256.5h-4v-1h4L890.6,256.5z M882.7,256.5h-4v-1h4V256.5z M874.8,256.5h-4v-1h4
	V256.5z M866.9,256.5h-4v-1h4V256.5z M859,256.5h-4v-1h4V256.5z M851.1,256.5h-4v-1h4V256.5z M843.2,256.5h-4v-1h4V256.5z
	 M835.3,256.5h-4v-1h4V256.5z M827.4,256.5h-4v-1h4V256.5z M819.5,256.5h-4v-1h4V256.5z M811.5,256.5h-4v-1h4V256.5z M803.6,256.5
	h-4v-1h4V256.5z M795.7,256.5h-4v-1h4V256.5z M950.2,259.8c-0.5-0.8-1.3-1.5-2.1-2.1l0.6-0.8c0.9,0.6,1.7,1.4,2.3,2.3L950.2,259.8z
	 M951.5,264c0-0.5,0-1-0.1-1.5l1-0.2c0.1,0.5,0.2,1.1,0.2,1.7v2h-1V264z M951.5,274v-4h1v4H951.5z M954.9,275l-2.9,5l-2.9-5H954.9z"
	/>
<rect x="448" y="280" class="st17" width="48" height="48"/>
<path class="st1" d="M472,298.4c-0.4,0-0.7-0.1-1-0.3c-0.3-0.2-0.5-0.5-0.7-0.8c-0.1-0.3-0.2-0.7-0.1-1.1c0.1-0.4,0.3-0.7,0.5-1
	c0.3-0.3,0.6-0.4,1-0.5c0.4-0.1,0.7,0,1.1,0.1c0.3,0.1,0.6,0.4,0.8,0.7c0.2,0.3,0.3,0.7,0.3,1c0,0.5-0.2,1-0.5,1.3
	C473,298.2,472.5,298.4,472,298.4z M472,295.9c-0.1,0-0.2,0-0.3,0.1c-0.1,0.1-0.2,0.2-0.2,0.3c0,0.1-0.1,0.2,0,0.4
	c0,0.1,0.1,0.2,0.2,0.3c0.1,0.1,0.2,0.1,0.3,0.2c0.1,0,0.2,0,0.4,0c0.1,0,0.2-0.1,0.3-0.2c0.1-0.1,0.1-0.2,0.1-0.3
	c0-0.2-0.1-0.3-0.2-0.4C472.3,295.9,472.2,295.9,472,295.9z"/>
<path class="st1" d="M468.9,312.8c-0.4,0-0.7-0.1-1-0.3c-0.3-0.2-0.5-0.5-0.7-0.8c-0.1-0.3-0.2-0.7-0.1-1.1c0.1-0.4,0.3-0.7,0.5-1
	c0.3-0.3,0.6-0.4,1-0.5c0.4-0.1,0.7,0,1.1,0.1c0.3,0.1,0.6,0.4,0.8,0.7c0.2,0.3,0.3,0.7,0.3,1c0,0.5-0.2,1-0.5,1.3
	C469.8,312.6,469.4,312.7,468.9,312.8z M468.9,310.2c-0.1,0-0.2,0-0.3,0.1c-0.1,0.1-0.2,0.2-0.2,0.3c0,0.1-0.1,0.2,0,0.4
	c0,0.1,0.1,0.2,0.2,0.3c0.1,0.1,0.2,0.1,0.3,0.2c0.1,0,0.2,0,0.4,0c0.1,0,0.2-0.1,0.3-0.2c0.1-0.1,0.1-0.2,0.1-0.3
	c0-0.2-0.1-0.3-0.2-0.4C469.2,310.3,469,310.2,468.9,310.2z"/>
<path class="st1" d="M466.4,300.9c-0.4,0-0.7-0.1-1-0.3c-0.3-0.2-0.5-0.5-0.7-0.8c-0.1-0.3-0.2-0.7-0.1-1.1c0.1-0.4,0.3-0.7,0.5-1
	c0.3-0.3,0.6-0.4,1-0.5c0.4-0.1,0.7,0,1.1,0.1c0.3,0.1,0.6,0.4,0.8,0.7c0.2,0.3,0.3,0.7,0.3,1c0,0.5-0.2,1-0.5,1.3
	C467.3,300.7,466.9,300.9,466.4,300.9z M466.4,298.4c-0.1,0-0.2,0-0.3,0.1c-0.1,0.1-0.2,0.2-0.2,0.3c0,0.1-0.1,0.2,0,0.4
	c0,0.1,0.1,0.2,0.2,0.3c0.1,0.1,0.2,0.1,0.3,0.2c0.1,0,0.2,0,0.4,0c0.1,0,0.2-0.1,0.3-0.2c0.1-0.1,0.1-0.2,0.1-0.3
	c0-0.2-0.1-0.3-0.2-0.4C466.7,298.4,466.5,298.4,466.4,298.4z"/>
<path class="st1" d="M475.1,312.8c-0.4,0-0.7-0.1-1-0.3c-0.3-0.2-0.5-0.5-0.7-0.8c-0.1-0.3-0.2-0.7-0.1-1.1c0.1-0.4,0.3-0.7,0.5-1
	c0.3-0.3,0.6-0.4,1-0.5c0.4-0.1,0.7,0,1.1,0.1c0.3,0.1,0.6,0.4,0.8,0.7c0.2,0.3,0.3,0.7,0.3,1c0,0.5-0.2,1-0.5,1.3
	C476.1,312.6,475.6,312.7,475.1,312.8z M475.1,310.2c-0.1,0-0.2,0-0.3,0.1c-0.1,0.1-0.2,0.2-0.2,0.3c0,0.1-0.1,0.2,0,0.4
	c0,0.1,0.1,0.2,0.2,0.3c0.1,0.1,0.2,0.1,0.3,0.2c0.1,0,0.2,0,0.4,0c0.1,0,0.2-0.1,0.3-0.2c0.1-0.1,0.1-0.2,0.1-0.3
	c0-0.2-0.1-0.3-0.2-0.4C475.5,310.3,475.3,310.2,475.1,310.2z"/>
<path class="st1" d="M477.6,300.9c-0.4,0-0.7-0.1-1-0.3c-0.3-0.2-0.5-0.5-0.7-0.8c-0.1-0.3-0.2-0.7-0.1-1.1c0.1-0.4,0.3-0.7,0.5-1
	c0.3-0.3,0.6-0.4,1-0.5c0.4-0.1,0.7,0,1.1,0.1c0.3,0.1,0.6,0.4,0.8,0.7c0.2,0.3,0.3,0.7,0.3,1c0,0.5-0.2,1-0.5,1.3
	C478.6,300.7,478.1,300.9,477.6,300.9z M477.6,298.4c-0.1,0-0.2,0-0.3,0.1c-0.1,0.1-0.2,0.2-0.2,0.3c0,0.1-0.1,0.2,0,0.4
	c0,0.1,0.1,0.2,0.2,0.3c0.1,0.1,0.2,0.1,0.3,0.2c0.1,0,0.2,0,0.4,0c0.1,0,0.2-0.1,0.3-0.2c0.1-0.1,0.1-0.2,0.1-0.3
	c0-0.2-0.1-0.3-0.2-0.4C478,298.4,477.8,298.4,477.6,298.4z"/>
<path class="st1" d="M464.5,307.1c-0.4,0-0.7-0.1-1-0.3c-0.3-0.2-0.5-0.5-0.7-0.8c-0.1-0.3-0.2-0.7-0.1-1.1c0.1-0.4,0.3-0.7,0.5-1
	c0.3-0.3,0.6-0.4,1-0.5c0.4-0.1,0.7,0,1.1,0.1c0.3,0.1,0.6,0.4,0.8,0.7c0.2,0.3,0.3,0.7,0.3,1c0,0.5-0.2,1-0.5,1.3
	C465.5,306.9,465,307.1,464.5,307.1z M464.5,304.6c-0.1,0-0.2,0-0.3,0.1c-0.1,0.1-0.2,0.2-0.2,0.3c0,0.1-0.1,0.2,0,0.4
	c0,0.1,0.1,0.2,0.2,0.3c0.1,0.1,0.2,0.1,0.3,0.2c0.1,0,0.2,0,0.4,0c0.1,0,0.2-0.1,0.3-0.2c0.1-0.1,0.1-0.2,0.1-0.3
	c0-0.2-0.1-0.3-0.2-0.4C464.8,304.7,464.7,304.6,464.5,304.6z"/>
<path class="st1" d="M479.5,307.1c-0.4,0-0.7-0.1-1-0.3c-0.3-0.2-0.5-0.5-0.7-0.8c-0.1-0.3-0.2-0.7-0.1-1.1c0.1-0.4,0.3-0.7,0.5-1
	c0.3-0.3,0.6-0.4,1-0.5c0.4-0.1,0.7,0,1.1,0.1c0.3,0.1,0.6,0.4,0.8,0.7c0.2,0.3,0.3,0.7,0.3,1c0,0.5-0.2,1-0.5,1.3
	C480.5,306.9,480,307.1,479.5,307.1z M479.5,304.6c-0.1,0-0.2,0-0.3,0.1c-0.1,0.1-0.2,0.2-0.2,0.3c0,0.1-0.1,0.2,0,0.4
	c0,0.1,0.1,0.2,0.2,0.3c0.1,0.1,0.2,0.1,0.3,0.2c0.1,0,0.2,0,0.4,0c0.1,0,0.2-0.1,0.3-0.2c0.1-0.1,0.1-0.2,0.1-0.3
	c0-0.2-0.1-0.3-0.2-0.4C479.8,304.7,479.7,304.6,479.5,304.6z"/>
<path class="st1" d="M472,307.8c-0.7,0-1.5-0.2-2.1-0.6c-0.6-0.4-1.1-1-1.4-1.7c-0.3-0.7-0.4-1.4-0.2-2.2c0.1-0.7,0.5-1.4,1-1.9
	c0.5-0.5,1.2-0.9,1.9-1c0.7-0.1,1.5-0.1,2.2,0.2c0.7,0.3,1.3,0.8,1.7,1.4c0.4,0.6,0.6,1.3,0.6,2.1c0,1-0.4,1.9-1.1,2.6
	S473,307.7,472,307.8z M472,301.5c-0.5,0-1,0.1-1.4,0.4c-0.4,0.3-0.7,0.7-0.9,1.1c-0.2,0.5-0.2,1-0.1,1.4c0.1,0.5,0.3,0.9,0.7,1.3
	c0.4,0.3,0.8,0.6,1.3,0.7c0.5,0.1,1,0,1.4-0.1c0.5-0.2,0.8-0.5,1.1-0.9c0.3-0.4,0.4-0.9,0.4-1.4c0-0.7-0.3-1.3-0.7-1.8
	S472.7,301.5,472,301.5z"/>
<path d="M447.1,350.2c1.8,0,2.9-0.9,3.6-2.3l-1.5-0.9c-0.3,0.9-1,1.6-2.1,1.6c-1.4,0-2.3-1-2.3-2.6v-1.5c0-1.7,0.9-2.7,2.3-2.7
	c1.1,0,1.7,0.6,2,1.5l1.6-0.8c-0.7-1.5-1.8-2.3-3.6-2.3c-2.6,0-4.2,1.8-4.2,5.1C442.9,348.5,444.5,350.2,447.1,350.2z M455.1,350
	v-1.4h-1v-8.9h-1.8v8.6c0,1.1,0.6,1.8,1.8,1.8H455.1z M461,350h1.8v-7.3H461v4.8c0,0.8-0.7,1.2-1.4,1.2c-0.9,0-1.2-0.5-1.2-1.6v-4.4
	h-1.8v4.6c0,1.8,0.8,2.9,2.3,2.9c1.2,0,1.8-0.7,2-1.4h0.1V350z M467.4,350.2c1.8,0,3-1,3-2.4c0-1.2-0.8-1.9-2.4-2.2l-0.7-0.1
	c-0.7-0.1-1-0.3-1-0.8c0-0.4,0.3-0.8,1.1-0.8c0.7,0,1.3,0.3,1.8,0.8l1-1c-0.7-0.7-1.4-1.1-2.9-1.1c-1.7,0-2.8,0.9-2.8,2.3
	c0,1.3,0.9,2,2.4,2.2l0.7,0.1c0.6,0.1,0.9,0.3,0.9,0.8c0,0.5-0.4,0.8-1.2,0.8c-0.8,0-1.5-0.4-2-1l-1.1,1.1
	C465.1,349.7,466,350.2,467.4,350.2z M474.3,350h1.3v-1.4h-1.4v-4.5h1.5v-1.4h-1.5v-2h-1.6v1.2c0,0.5-0.2,0.8-0.7,0.8h-0.6v1.4h1.1
	v4C472.4,349.3,473.1,350,474.3,350z M480.3,350.2c1.4,0,2.4-0.5,3-1.3l-1-1.1c-0.4,0.6-1,1-1.9,1c-1.2,0-1.8-0.7-1.8-1.8v-0.2h4.9
	v-0.6c0-2-1-3.7-3.3-3.7c-2.1,0-3.4,1.5-3.4,3.8C476.9,348.7,478.2,350.2,480.3,350.2z M480.3,343.9c0.9,0,1.4,0.7,1.4,1.7v0.1h-3
	v-0.1C478.8,344.6,479.4,343.9,480.3,343.9z M487.1,350v-4.5c0-0.8,0.6-1.1,1.8-1.1h0.6v-1.7h-0.4c-1.2,0-1.8,0.7-1.9,1.5h-0.1v-1.5
	h-1.8v7.3H487.1z M501.5,350v-1.5h-2.2v-8.3h-2.8l-2.4,2.9l1.1,1l2.1-2.5h0.1v6.9h-2.7v1.5H501.5z"/>
<rect x="608" y="280" class="st17" width="48" height="48"/>
<path class="st1" d="M632,298.4c-0.4,0-0.7-0.1-1-0.3c-0.3-0.2-0.5-0.5-0.7-0.8c-0.1-0.3-0.2-0.7-0.1-1.1c0.1-0.4,0.3-0.7,0.5-1
	c0.3-0.3,0.6-0.4,1-0.5c0.4-0.1,0.7,0,1.1,0.1c0.3,0.1,0.6,0.4,0.8,0.7c0.2,0.3,0.3,0.7,0.3,1c0,0.5-0.2,1-0.5,1.3
	C633,298.2,632.5,298.4,632,298.4z M632,295.9c-0.1,0-0.2,0-0.3,0.1c-0.1,0.1-0.2,0.2-0.2,0.3c0,0.1-0.1,0.2,0,0.4
	c0,0.1,0.1,0.2,0.2,0.3c0.1,0.1,0.2,0.1,0.3,0.2c0.1,0,0.2,0,0.4,0c0.1,0,0.2-0.1,0.3-0.2c0.1-0.1,0.1-0.2,0.1-0.3
	c0-0.2-0.1-0.3-0.2-0.4C632.3,295.9,632.2,295.9,632,295.9z"/>
<path class="st1" d="M628.9,312.8c-0.4,0-0.7-0.1-1-0.3c-0.3-0.2-0.5-0.5-0.7-0.8c-0.1-0.3-0.2-0.7-0.1-1.1c0.1-0.4,0.3-0.7,0.5-1
	c0.3-0.3,0.6-0.4,1-0.5c0.4-0.1,0.7,0,1.1,0.1c0.3,0.1,0.6,0.4,0.8,0.7c0.2,0.3,0.3,0.7,0.3,1c0,0.5-0.2,1-0.5,1.3
	C629.8,312.6,629.4,312.7,628.9,312.8z M628.9,310.2c-0.1,0-0.2,0-0.3,0.1c-0.1,0.1-0.2,0.2-0.2,0.3c0,0.1-0.1,0.2,0,0.4
	c0,0.1,0.1,0.2,0.2,0.3c0.1,0.1,0.2,0.1,0.3,0.2c0.1,0,0.2,0,0.4,0c0.1,0,0.2-0.1,0.3-0.2c0.1-0.1,0.1-0.2,0.1-0.3
	c0-0.2-0.1-0.3-0.2-0.4C629.2,310.3,629,310.2,628.9,310.2z"/>
<path class="st1" d="M626.4,300.9c-0.4,0-0.7-0.1-1-0.3c-0.3-0.2-0.5-0.5-0.7-0.8c-0.1-0.3-0.2-0.7-0.1-1.1c0.1-0.4,0.3-0.7,0.5-1
	c0.3-0.3,0.6-0.4,1-0.5c0.4-0.1,0.7,0,1.1,0.1c0.3,0.1,0.6,0.4,0.8,0.7c0.2,0.3,0.3,0.7,0.3,1c0,0.5-0.2,1-0.5,1.3
	C627.3,300.7,626.9,300.9,626.4,300.9z M626.4,298.4c-0.1,0-0.2,0-0.3,0.1c-0.1,0.1-0.2,0.2-0.2,0.3c0,0.1-0.1,0.2,0,0.4
	c0,0.1,0.1,0.2,0.2,0.3c0.1,0.1,0.2,0.1,0.3,0.2c0.1,0,0.2,0,0.4,0c0.1,0,0.2-0.1,0.3-0.2c0.1-0.1,0.1-0.2,0.1-0.3
	c0-0.2-0.1-0.3-0.2-0.4C626.7,298.4,626.5,298.4,626.4,298.4z"/>
<path class="st1" d="M635.1,312.8c-0.4,0-0.7-0.1-1-0.3c-0.3-0.2-0.5-0.5-0.7-0.8c-0.1-0.3-0.2-0.7-0.1-1.1c0.1-0.4,0.3-0.7,0.5-1
	c0.3-0.3,0.6-0.4,1-0.5c0.4-0.1,0.7,0,1.1,0.1c0.3,0.1,0.6,0.4,0.8,0.7c0.2,0.3,0.3,0.7,0.3,1c0,0.5-0.2,1-0.5,1.3
	C636.1,312.6,635.6,312.7,635.1,312.8z M635.1,310.2c-0.1,0-0.2,0-0.3,0.1c-0.1,0.1-0.2,0.2-0.2,0.3c0,0.1-0.1,0.2,0,0.4
	c0,0.1,0.1,0.2,0.2,0.3c0.1,0.1,0.2,0.1,0.3,0.2c0.1,0,0.2,0,0.4,0c0.1,0,0.2-0.1,0.3-0.2c0.1-0.1,0.1-0.2,0.1-0.3
	c0-0.2-0.1-0.3-0.2-0.4C635.5,310.3,635.3,310.2,635.1,310.2z"/>
<path class="st1" d="M637.6,300.9c-0.4,0-0.7-0.1-1-0.3c-0.3-0.2-0.5-0.5-0.7-0.8c-0.1-0.3-0.2-0.7-0.1-1.1c0.1-0.4,0.3-0.7,0.5-1
	c0.3-0.3,0.6-0.4,1-0.5c0.4-0.1,0.7,0,1.1,0.1c0.3,0.1,0.6,0.4,0.8,0.7c0.2,0.3,0.3,0.7,0.3,1c0,0.5-0.2,1-0.5,1.3
	C638.6,300.7,638.1,300.9,637.6,300.9z M637.6,298.4c-0.1,0-0.2,0-0.3,0.1c-0.1,0.1-0.2,0.2-0.2,0.3c0,0.1-0.1,0.2,0,0.4
	c0,0.1,0.1,0.2,0.2,0.3c0.1,0.1,0.2,0.1,0.3,0.2c0.1,0,0.2,0,0.4,0c0.1,0,0.2-0.1,0.3-0.2c0.1-0.1,0.1-0.2,0.1-0.3
	c0-0.2-0.1-0.3-0.2-0.4C638,298.4,637.8,298.4,637.6,298.4z"/>
<path class="st1" d="M624.5,307.1c-0.4,0-0.7-0.1-1-0.3c-0.3-0.2-0.5-0.5-0.7-0.8c-0.1-0.3-0.2-0.7-0.1-1.1c0.1-0.4,0.3-0.7,0.5-1
	c0.3-0.3,0.6-0.4,1-0.5c0.4-0.1,0.7,0,1.1,0.1c0.3,0.1,0.6,0.4,0.8,0.7c0.2,0.3,0.3,0.7,0.3,1c0,0.5-0.2,1-0.5,1.3
	C625.5,306.9,625,307.1,624.5,307.1z M624.5,304.6c-0.1,0-0.2,0-0.3,0.1c-0.1,0.1-0.2,0.2-0.2,0.3c0,0.1-0.1,0.2,0,0.4
	c0,0.1,0.1,0.2,0.2,0.3c0.1,0.1,0.2,0.1,0.3,0.2c0.1,0,0.2,0,0.4,0c0.1,0,0.2-0.1,0.3-0.2c0.1-0.1,0.1-0.2,0.1-0.3
	c0-0.2-0.1-0.3-0.2-0.4C624.8,304.7,624.7,304.6,624.5,304.6z"/>
<path class="st1" d="M639.5,307.1c-0.4,0-0.7-0.1-1-0.3c-0.3-0.2-0.5-0.5-0.7-0.8c-0.1-0.3-0.2-0.7-0.1-1.1c0.1-0.4,0.3-0.7,0.5-1
	c0.3-0.3,0.6-0.4,1-0.5c0.4-0.1,0.7,0,1.1,0.1c0.3,0.1,0.6,0.4,0.8,0.7c0.2,0.3,0.3,0.7,0.3,1c0,0.5-0.2,1-0.5,1.3
	C640.5,306.9,640,307.1,639.5,307.1z M639.5,304.6c-0.1,0-0.2,0-0.3,0.1c-0.1,0.1-0.2,0.2-0.2,0.3c0,0.1-0.1,0.2,0,0.4
	c0,0.1,0.1,0.2,0.2,0.3c0.1,0.1,0.2,0.1,0.3,0.2c0.1,0,0.2,0,0.4,0c0.1,0,0.2-0.1,0.3-0.2c0.1-0.1,0.1-0.2,0.1-0.3
	c0-0.2-0.1-0.3-0.2-0.4C639.8,304.7,639.7,304.6,639.5,304.6z"/>
<path class="st1" d="M632,307.8c-0.7,0-1.5-0.2-2.1-0.6c-0.6-0.4-1.1-1-1.4-1.7c-0.3-0.7-0.4-1.4-0.2-2.2c0.1-0.7,0.5-1.4,1-1.9
	c0.5-0.5,1.2-0.9,1.9-1c0.7-0.1,1.5-0.1,2.2,0.2c0.7,0.3,1.3,0.8,1.7,1.4c0.4,0.6,0.6,1.3,0.6,2.1c0,1-0.4,1.9-1.1,2.6
	S633,307.7,632,307.8z M632,301.5c-0.5,0-1,0.1-1.4,0.4c-0.4,0.3-0.7,0.7-0.9,1.1c-0.2,0.5-0.2,1-0.1,1.4c0.1,0.5,0.3,0.9,0.7,1.3
	c0.3,0.3,0.8,0.6,1.3,0.7c0.5,0.1,1,0,1.4-0.1c0.5-0.2,0.8-0.5,1.1-0.9c0.3-0.4,0.4-0.9,0.4-1.4c0-0.7-0.3-1.3-0.7-1.8
	C633.3,301.8,632.7,301.5,632,301.5z"/>
<path d="M607.1,350.2c1.8,0,2.9-0.9,3.6-2.3l-1.5-0.9c-0.3,0.9-1,1.6-2.1,1.6c-1.4,0-2.3-1-2.3-2.6v-1.5c0-1.7,0.9-2.7,2.3-2.7
	c1.1,0,1.7,0.6,2,1.5l1.6-0.8c-0.7-1.5-1.8-2.3-3.6-2.3c-2.6,0-4.2,1.8-4.2,5.1C602.9,348.5,604.5,350.2,607.1,350.2z M615.1,350
	v-1.4h-1v-8.9h-1.8v8.6c0,1.1,0.6,1.8,1.8,1.8H615.1z M621,350h1.8v-7.3H621v4.8c0,0.8-0.7,1.2-1.4,1.2c-0.9,0-1.2-0.5-1.2-1.6v-4.4
	h-1.8v4.6c0,1.8,0.8,2.9,2.3,2.9c1.2,0,1.8-0.7,2-1.4h0.1V350z M627.4,350.2c1.8,0,3-1,3-2.4c0-1.2-0.8-1.9-2.4-2.2l-0.7-0.1
	c-0.7-0.1-1-0.3-1-0.8c0-0.4,0.3-0.8,1.1-0.8c0.7,0,1.3,0.3,1.8,0.8l1-1c-0.7-0.7-1.4-1.1-2.9-1.1c-1.7,0-2.8,0.9-2.8,2.3
	c0,1.3,0.9,2,2.4,2.2l0.7,0.1c0.6,0.1,0.9,0.3,0.9,0.8c0,0.5-0.4,0.8-1.2,0.8c-0.8,0-1.5-0.4-2-1l-1.1,1.1
	C625.1,349.7,626,350.2,627.4,350.2z M634.3,350h1.3v-1.4h-1.4v-4.5h1.5v-1.4h-1.5v-2h-1.6v1.2c0,0.5-0.2,0.8-0.7,0.8h-0.6v1.4h1.1
	v4C632.4,349.3,633.1,350,634.3,350z M640.3,350.2c1.4,0,2.4-0.5,3-1.3l-1-1.1c-0.4,0.6-1,1-1.9,1c-1.2,0-1.8-0.7-1.8-1.8v-0.2h4.9
	v-0.6c0-2-1.1-3.7-3.3-3.7c-2.1,0-3.4,1.5-3.4,3.8C636.9,348.7,638.2,350.2,640.3,350.2z M640.3,343.9c0.9,0,1.4,0.7,1.4,1.7v0.1h-3
	v-0.1C638.8,344.6,639.4,343.9,640.3,343.9z M647.1,350v-4.5c0-0.8,0.6-1.1,1.8-1.1h0.6v-1.7h-0.4c-1.2,0-1.8,0.7-1.9,1.5h-0.1v-1.5
	h-1.8v7.3H647.1z M661.1,348.4h-4.8l2.1-1.7c1.4-1.1,2.5-2.2,2.5-3.8c0-1.7-1.2-2.9-3.2-2.9c-2,0-3,1.1-3.5,2.4l1.6,0.6
	c0.2-0.8,0.7-1.5,1.7-1.5c0.8,0,1.4,0.5,1.4,1.3v0.2c0,0.9-0.5,1.5-1.5,2.4l-3.1,2.7v1.7h6.8V348.4z"/>
<rect x="768" y="280" class="st17" width="48" height="48"/>
<path class="st1" d="M792,298.4c-0.4,0-0.7-0.1-1-0.3c-0.3-0.2-0.5-0.5-0.7-0.8c-0.1-0.3-0.2-0.7-0.1-1.1c0.1-0.4,0.3-0.7,0.5-1
	c0.3-0.3,0.6-0.4,1-0.5c0.4-0.1,0.7,0,1.1,0.1c0.3,0.1,0.6,0.4,0.8,0.7c0.2,0.3,0.3,0.7,0.3,1c0,0.5-0.2,1-0.5,1.3
	C793,298.2,792.5,298.4,792,298.4z M792,295.9c-0.1,0-0.2,0-0.3,0.1c-0.1,0.1-0.2,0.2-0.2,0.3c0,0.1-0.1,0.2,0,0.4
	c0,0.1,0.1,0.2,0.2,0.3c0.1,0.1,0.2,0.1,0.3,0.2c0.1,0,0.2,0,0.4,0c0.1,0,0.2-0.1,0.3-0.2c0.1-0.1,0.1-0.2,0.1-0.3
	c0-0.2-0.1-0.3-0.2-0.4C792.3,295.9,792.2,295.9,792,295.9z"/>
<path class="st1" d="M788.9,312.8c-0.4,0-0.7-0.1-1-0.3c-0.3-0.2-0.5-0.5-0.7-0.8c-0.1-0.3-0.2-0.7-0.1-1.1c0.1-0.4,0.3-0.7,0.5-1
	c0.3-0.3,0.6-0.4,1-0.5c0.4-0.1,0.7,0,1.1,0.1c0.3,0.1,0.6,0.4,0.8,0.7c0.2,0.3,0.3,0.7,0.3,1c0,0.5-0.2,1-0.5,1.3
	C789.8,312.6,789.4,312.7,788.9,312.8z M788.9,310.2c-0.1,0-0.2,0-0.3,0.1c-0.1,0.1-0.2,0.2-0.2,0.3c0,0.1-0.1,0.2,0,0.4
	c0,0.1,0.1,0.2,0.2,0.3c0.1,0.1,0.2,0.1,0.3,0.2c0.1,0,0.2,0,0.4,0c0.1,0,0.2-0.1,0.3-0.2c0.1-0.1,0.1-0.2,0.1-0.3
	c0-0.2-0.1-0.3-0.2-0.4C789.2,310.3,789,310.2,788.9,310.2z"/>
<path class="st1" d="M786.4,300.9c-0.4,0-0.7-0.1-1-0.3c-0.3-0.2-0.5-0.5-0.7-0.8c-0.1-0.3-0.2-0.7-0.1-1.1c0.1-0.4,0.3-0.7,0.5-1
	c0.3-0.3,0.6-0.4,1-0.5c0.4-0.1,0.7,0,1.1,0.1c0.3,0.1,0.6,0.4,0.8,0.7c0.2,0.3,0.3,0.7,0.3,1c0,0.5-0.2,1-0.5,1.3
	C787.3,300.7,786.9,300.9,786.4,300.9z M786.4,298.4c-0.1,0-0.2,0-0.3,0.1c-0.1,0.1-0.2,0.2-0.2,0.3c0,0.1-0.1,0.2,0,0.4
	c0,0.1,0.1,0.2,0.2,0.3c0.1,0.1,0.2,0.1,0.3,0.2c0.1,0,0.2,0,0.4,0c0.1,0,0.2-0.1,0.3-0.2c0.1-0.1,0.1-0.2,0.1-0.3
	c0-0.2-0.1-0.3-0.2-0.4C786.7,298.4,786.5,298.4,786.4,298.4z"/>
<path class="st1" d="M795.1,312.8c-0.4,0-0.7-0.1-1-0.3c-0.3-0.2-0.5-0.5-0.7-0.8c-0.1-0.3-0.2-0.7-0.1-1.1c0.1-0.4,0.3-0.7,0.5-1
	c0.3-0.3,0.6-0.4,1-0.5c0.4-0.1,0.7,0,1.1,0.1c0.3,0.1,0.6,0.4,0.8,0.7c0.2,0.3,0.3,0.7,0.3,1c0,0.5-0.2,1-0.5,1.3
	C796.1,312.6,795.6,312.7,795.1,312.8z M795.1,310.2c-0.1,0-0.2,0-0.3,0.1c-0.1,0.1-0.2,0.2-0.2,0.3c0,0.1-0.1,0.2,0,0.4
	c0,0.1,0.1,0.2,0.2,0.3c0.1,0.1,0.2,0.1,0.3,0.2c0.1,0,0.2,0,0.4,0c0.1,0,0.2-0.1,0.3-0.2c0.1-0.1,0.1-0.2,0.1-0.3
	c0-0.2-0.1-0.3-0.2-0.4C795.5,310.3,795.3,310.2,795.1,310.2z"/>
<path class="st1" d="M797.6,300.9c-0.4,0-0.7-0.1-1-0.3c-0.3-0.2-0.5-0.5-0.7-0.8c-0.1-0.3-0.2-0.7-0.1-1.1c0.1-0.4,0.3-0.7,0.5-1
	c0.3-0.3,0.6-0.4,1-0.5c0.4-0.1,0.7,0,1.1,0.1c0.3,0.1,0.6,0.4,0.8,0.7c0.2,0.3,0.3,0.7,0.3,1c0,0.5-0.2,1-0.5,1.3
	C798.6,300.7,798.1,300.9,797.6,300.9z M797.6,298.4c-0.1,0-0.2,0-0.3,0.1c-0.1,0.1-0.2,0.2-0.2,0.3c0,0.1-0.1,0.2,0,0.4
	c0,0.1,0.1,0.2,0.2,0.3c0.1,0.1,0.2,0.1,0.3,0.2c0.1,0,0.2,0,0.4,0c0.1,0,0.2-0.1,0.3-0.2c0.1-0.1,0.1-0.2,0.1-0.3
	c0-0.2-0.1-0.3-0.2-0.4C798,298.4,797.8,298.4,797.6,298.4z"/>
<path class="st1" d="M784.5,307.1c-0.4,0-0.7-0.1-1-0.3c-0.3-0.2-0.5-0.5-0.7-0.8c-0.1-0.3-0.2-0.7-0.1-1.1c0.1-0.4,0.3-0.7,0.5-1
	c0.3-0.3,0.6-0.4,1-0.5c0.4-0.1,0.7,0,1.1,0.1c0.3,0.1,0.6,0.4,0.8,0.7c0.2,0.3,0.3,0.7,0.3,1c0,0.5-0.2,1-0.5,1.3
	C785.5,306.9,785,307.1,784.5,307.1z M784.5,304.6c-0.1,0-0.2,0-0.3,0.1c-0.1,0.1-0.2,0.2-0.2,0.3c0,0.1-0.1,0.2,0,0.4
	c0,0.1,0.1,0.2,0.2,0.3c0.1,0.1,0.2,0.1,0.3,0.2c0.1,0,0.2,0,0.4,0c0.1,0,0.2-0.1,0.3-0.2c0.1-0.1,0.1-0.2,0.1-0.3
	c0-0.2-0.1-0.3-0.2-0.4C784.8,304.7,784.7,304.6,784.5,304.6z"/>
<path class="st1" d="M799.5,307.1c-0.4,0-0.7-0.1-1-0.3c-0.3-0.2-0.5-0.5-0.7-0.8c-0.1-0.3-0.2-0.7-0.1-1.1c0.1-0.4,0.3-0.7,0.5-1
	c0.3-0.3,0.6-0.4,1-0.5c0.4-0.1,0.7,0,1.1,0.1c0.3,0.1,0.6,0.4,0.8,0.7c0.2,0.3,0.3,0.7,0.3,1c0,0.5-0.2,1-0.5,1.3
	C800.5,306.9,800,307.1,799.5,307.1z M799.5,304.6c-0.1,0-0.2,0-0.3,0.1c-0.1,0.1-0.2,0.2-0.2,0.3c0,0.1-0.1,0.2,0,0.4
	c0,0.1,0.1,0.2,0.2,0.3c0.1,0.1,0.2,0.1,0.3,0.2c0.1,0,0.2,0,0.4,0c0.1,0,0.2-0.1,0.3-0.2c0.1-0.1,0.1-0.2,0.1-0.3
	c0-0.2-0.1-0.3-0.2-0.4C799.8,304.7,799.7,304.6,799.5,304.6z"/>
<path class="st1" d="M792,307.8c-0.7,0-1.5-0.2-2.1-0.6c-0.6-0.4-1.1-1-1.4-1.7c-0.3-0.7-0.4-1.4-0.2-2.2c0.1-0.7,0.5-1.4,1-1.9
	c0.5-0.5,1.2-0.9,1.9-1c0.7-0.1,1.5-0.1,2.2,0.2c0.7,0.3,1.3,0.8,1.7,1.4c0.4,0.6,0.6,1.3,0.6,2.1c0,1-0.4,1.9-1.1,2.6
	S793,307.7,792,307.8z M792,301.5c-0.5,0-1,0.1-1.4,0.4c-0.4,0.3-0.7,0.7-0.9,1.1c-0.2,0.5-0.2,1-0.1,1.4c0.1,0.5,0.3,0.9,0.7,1.3
	c0.3,0.3,0.8,0.6,1.3,0.7c0.5,0.1,1,0,1.4-0.1c0.5-0.2,0.8-0.5,1.1-0.9c0.3-0.4,0.4-0.9,0.4-1.4c0-0.7-0.3-1.3-0.7-1.8
	C793.3,301.8,792.7,301.5,792,301.5z"/>
<path d="M767.1,350.2c1.8,0,2.9-0.9,3.6-2.3l-1.5-0.9c-0.3,0.9-1,1.6-2.1,1.6c-1.4,0-2.3-1-2.3-2.6v-1.5c0-1.7,0.9-2.7,2.3-2.7
	c1.1,0,1.7,0.6,2,1.5l1.6-0.8c-0.7-1.5-1.8-2.3-3.6-2.3c-2.6,0-4.2,1.8-4.2,5.1C762.9,348.5,764.5,350.2,767.1,350.2z M775.1,350
	v-1.4h-1v-8.9h-1.8v8.6c0,1.1,0.6,1.8,1.8,1.8H775.1z M781,350h1.8v-7.3H781v4.8c0,0.8-0.7,1.2-1.4,1.2c-0.9,0-1.2-0.5-1.2-1.6v-4.4
	h-1.8v4.6c0,1.8,0.8,2.9,2.3,2.9c1.2,0,1.8-0.7,2-1.4h0.1V350z M787.4,350.2c1.8,0,3-1,3-2.4c0-1.2-0.8-1.9-2.4-2.2l-0.7-0.1
	c-0.7-0.1-1-0.3-1-0.8c0-0.4,0.3-0.8,1.1-0.8c0.7,0,1.3,0.3,1.8,0.8l1-1c-0.7-0.7-1.4-1.1-2.9-1.1c-1.7,0-2.8,0.9-2.8,2.3
	c0,1.3,0.9,2,2.4,2.2l0.7,0.1c0.6,0.1,0.9,0.3,0.9,0.8c0,0.5-0.4,0.8-1.2,0.8c-0.8,0-1.5-0.4-2-1l-1.1,1.1
	C785.1,349.7,786,350.2,787.4,350.2z M794.3,350h1.3v-1.4h-1.4v-4.5h1.5v-1.4h-1.5v-2h-1.6v1.2c0,0.5-0.2,0.8-0.7,0.8h-0.6v1.4h1.1
	v4C792.4,349.3,793.1,350,794.3,350z M800.3,350.2c1.4,0,2.4-0.5,3-1.3l-1-1.1c-0.4,0.6-1,1-1.9,1c-1.2,0-1.8-0.7-1.8-1.8v-0.2h4.9
	v-0.6c0-2-1.1-3.7-3.3-3.7c-2.1,0-3.4,1.5-3.4,3.8C796.9,348.7,798.2,350.2,800.3,350.2z M800.3,343.9c0.9,0,1.4,0.7,1.4,1.7v0.1h-3
	v-0.1C798.8,344.6,799.4,343.9,800.3,343.9z M807.1,350v-4.5c0-0.8,0.6-1.1,1.8-1.1h0.6v-1.7h-0.4c-1.2,0-1.8,0.7-1.9,1.5h-0.1v-1.5
	h-1.8v7.3H807.1z M816.1,344.2v1.5h1c1.2,0,1.8,0.5,1.8,1.4v0.1c0,0.9-0.6,1.5-1.7,1.5c-1.1,0-1.7-0.6-2.1-1.3l-1.4,1
	c0.6,1,1.6,1.8,3.5,1.8c2.2,0,3.6-1.1,3.6-2.9c0-1.4-0.9-2.2-2-2.4v-0.1c1-0.2,1.9-1,1.9-2.2c0-1.6-1.3-2.5-3.3-2.5
	c-1.7,0-2.6,0.7-3.2,1.6l1.2,1.1c0.5-0.7,1.1-1.2,2-1.2c0.9,0,1.4,0.5,1.4,1.3v0.1c0,0.7-0.5,1.2-1.6,1.2H816.1z"/>
<rect x="928.5" y="280.5" class="st1" width="47" height="47"/>
<path d="M952,298.4c-0.4,0-0.7-0.1-1-0.3c-0.3-0.2-0.5-0.5-0.7-0.8c-0.1-0.3-0.2-0.7-0.1-1.1c0.1-0.4,0.3-0.7,0.5-1
	c0.3-0.3,0.6-0.4,1-0.5c0.4-0.1,0.7,0,1.1,0.1c0.3,0.1,0.6,0.4,0.8,0.7c0.2,0.3,0.3,0.7,0.3,1c0,0.5-0.2,1-0.5,1.3
	C953,298.2,952.5,298.4,952,298.4z M952,295.9c-0.1,0-0.2,0-0.3,0.1c-0.1,0.1-0.2,0.2-0.2,0.3c0,0.1-0.1,0.2,0,0.4
	c0,0.1,0.1,0.2,0.2,0.3c0.1,0.1,0.2,0.1,0.3,0.2c0.1,0,0.2,0,0.4,0c0.1,0,0.2-0.1,0.3-0.2c0.1-0.1,0.1-0.2,0.1-0.3
	c0-0.2-0.1-0.3-0.2-0.4C952.3,295.9,952.2,295.9,952,295.9z"/>
<path d="M948.9,312.8c-0.4,0-0.7-0.1-1-0.3c-0.3-0.2-0.5-0.5-0.7-0.8c-0.1-0.3-0.2-0.7-0.1-1.1c0.1-0.4,0.3-0.7,0.5-1
	c0.3-0.3,0.6-0.4,1-0.5c0.4-0.1,0.7,0,1.1,0.1c0.3,0.1,0.6,0.4,0.8,0.7c0.2,0.3,0.3,0.7,0.3,1c0,0.5-0.2,1-0.5,1.3
	C949.8,312.6,949.4,312.7,948.9,312.8z M948.9,310.2c-0.1,0-0.2,0-0.3,0.1c-0.1,0.1-0.2,0.2-0.2,0.3c0,0.1-0.1,0.2,0,0.4
	c0,0.1,0.1,0.2,0.2,0.3c0.1,0.1,0.2,0.1,0.3,0.2c0.1,0,0.2,0,0.4,0c0.1,0,0.2-0.1,0.3-0.2c0.1-0.1,0.1-0.2,0.1-0.3
	c0-0.2-0.1-0.3-0.2-0.4C949.2,310.3,949,310.2,948.9,310.2z"/>
<path d="M946.4,300.9c-0.4,0-0.7-0.1-1-0.3c-0.3-0.2-0.5-0.5-0.7-0.8c-0.1-0.3-0.2-0.7-0.1-1.1c0.1-0.4,0.3-0.7,0.5-1
	c0.3-0.3,0.6-0.4,1-0.5c0.4-0.1,0.7,0,1.1,0.1c0.3,0.1,0.6,0.4,0.8,0.7c0.2,0.3,0.3,0.7,0.3,1c0,0.5-0.2,1-0.5,1.3
	C947.3,300.7,946.9,300.9,946.4,300.9z M946.4,298.4c-0.1,0-0.2,0-0.3,0.1c-0.1,0.1-0.2,0.2-0.2,0.3c0,0.1-0.1,0.2,0,0.4
	c0,0.1,0.1,0.2,0.2,0.3c0.1,0.1,0.2,0.1,0.3,0.2c0.1,0,0.2,0,0.4,0c0.1,0,0.2-0.1,0.3-0.2c0.1-0.1,0.1-0.2,0.1-0.3
	c0-0.2-0.1-0.3-0.2-0.4C946.7,298.4,946.5,298.4,946.4,298.4z"/>
<path d="M955.1,312.8c-0.4,0-0.7-0.1-1-0.3c-0.3-0.2-0.5-0.5-0.7-0.8c-0.1-0.3-0.2-0.7-0.1-1.1c0.1-0.4,0.3-0.7,0.5-1
	c0.3-0.3,0.6-0.4,1-0.5c0.4-0.1,0.7,0,1.1,0.1c0.3,0.1,0.6,0.4,0.8,0.7c0.2,0.3,0.3,0.7,0.3,1c0,0.5-0.2,1-0.5,1.3
	C956.1,312.6,955.6,312.7,955.1,312.8z M955.1,310.2c-0.1,0-0.2,0-0.3,0.1c-0.1,0.1-0.2,0.2-0.2,0.3c0,0.1-0.1,0.2,0,0.4
	c0,0.1,0.1,0.2,0.2,0.3c0.1,0.1,0.2,0.1,0.3,0.2c0.1,0,0.2,0,0.4,0c0.1,0,0.2-0.1,0.3-0.2c0.1-0.1,0.1-0.2,0.1-0.3
	c0-0.2-0.1-0.3-0.2-0.4C955.5,310.3,955.3,310.2,955.1,310.2z"/>
<path d="M957.6,300.9c-0.4,0-0.7-0.1-1-0.3c-0.3-0.2-0.5-0.5-0.7-0.8c-0.1-0.3-0.2-0.7-0.1-1.1c0.1-0.4,0.3-0.7,0.5-1
	c0.3-0.3,0.6-0.4,1-0.5c0.4-0.1,0.7,0,1.1,0.1c0.3,0.1,0.6,0.4,0.8,0.7c0.2,0.3,0.3,0.7,0.3,1c0,0.5-0.2,1-0.5,1.3
	C958.6,300.7,958.1,300.9,957.6,300.9z M957.6,298.4c-0.1,0-0.2,0-0.3,0.1c-0.1,0.1-0.2,0.2-0.2,0.3c0,0.1-0.1,0.2,0,0.4
	c0,0.1,0.1,0.2,0.2,0.3c0.1,0.1,0.2,0.1,0.3,0.2c0.1,0,0.2,0,0.4,0c0.1,0,0.2-0.1,0.3-0.2c0.1-0.1,0.1-0.2,0.1-0.3
	c0-0.2-0.1-0.3-0.2-0.4C958,298.4,957.8,298.4,957.6,298.4z"/>
<path d="M944.5,307.1c-0.4,0-0.7-0.1-1-0.3c-0.3-0.2-0.5-0.5-0.7-0.8c-0.1-0.3-0.2-0.7-0.1-1.1c0.1-0.4,0.3-0.7,0.5-1
	c0.3-0.3,0.6-0.4,1-0.5c0.4-0.1,0.7,0,1.1,0.1c0.3,0.1,0.6,0.4,0.8,0.7c0.2,0.3,0.3,0.7,0.3,1c0,0.5-0.2,1-0.5,1.3
	C945.5,306.9,945,307.1,944.5,307.1z M944.5,304.6c-0.1,0-0.2,0-0.3,0.1c-0.1,0.1-0.2,0.2-0.2,0.3c0,0.1-0.1,0.2,0,0.4
	c0,0.1,0.1,0.2,0.2,0.3c0.1,0.1,0.2,0.1,0.3,0.2c0.1,0,0.2,0,0.4,0c0.1,0,0.2-0.1,0.3-0.2c0.1-0.1,0.1-0.2,0.1-0.3
	c0-0.2-0.1-0.3-0.2-0.4C944.8,304.7,944.7,304.6,944.5,304.6z"/>
<path d="M959.5,307.1c-0.4,0-0.7-0.1-1-0.3c-0.3-0.2-0.5-0.5-0.7-0.8c-0.1-0.3-0.2-0.7-0.1-1.1c0.1-0.4,0.3-0.7,0.5-1
	c0.3-0.3,0.6-0.4,1-0.5c0.4-0.1,0.7,0,1.1,0.1c0.3,0.1,0.6,0.4,0.8,0.7c0.2,0.3,0.3,0.7,0.3,1c0,0.5-0.2,1-0.5,1.3
	C960.5,306.9,960,307.1,959.5,307.1z M959.5,304.6c-0.1,0-0.2,0-0.3,0.1c-0.1,0.1-0.2,0.2-0.2,0.3c0,0.1-0.1,0.2,0,0.4
	c0,0.1,0.1,0.2,0.2,0.3c0.1,0.1,0.2,0.1,0.3,0.2c0.1,0,0.2,0,0.4,0c0.1,0,0.2-0.1,0.3-0.2c0.1-0.1,0.1-0.2,0.1-0.3
	c0-0.2-0.1-0.3-0.2-0.4C959.8,304.7,959.7,304.6,959.5,304.6z"/>
<path d="M952,307.8c-0.7,0-1.5-0.2-2.1-0.6c-0.6-0.4-1.1-1-1.4-1.7c-0.3-0.7-0.4-1.4-0.2-2.2c0.1-0.7,0.5-1.4,1-1.9
	c0.5-0.5,1.2-0.9,1.9-1c0.7-0.1,1.5-0.1,2.2,0.2c0.7,0.3,1.3,0.8,1.7,1.4c0.4,0.6,0.6,1.3,0.6,2.1c0,1-0.4,1.9-1.1,2.6
	S953,307.7,952,307.8z M952,301.5c-0.5,0-1,0.1-1.4,0.4c-0.4,0.3-0.7,0.7-0.9,1.1c-0.2,0.5-0.2,1-0.1,1.4c0.1,0.5,0.3,0.9,0.7,1.3
	c0.3,0.3,0.8,0.6,1.3,0.7c0.5,0.1,1,0,1.4-0.1c0.5-0.2,0.8-0.5,1.1-0.9c0.3-0.4,0.4-0.9,0.4-1.4c0-0.7-0.3-1.3-0.7-1.8
	C953.3,301.8,952.7,301.5,952,301.5z"/>
<rect x="928.5" y="280.5" class="st18" width="47" height="47"/>
<path class="st17" d="M927.2,350.2c1.8,0,2.9-0.9,3.6-2.3l-1.5-0.9c-0.3,0.9-1,1.6-2.1,1.6c-1.4,0-2.3-1-2.3-2.6v-1.5
	c0-1.7,0.9-2.7,2.3-2.7c1.1,0,1.7,0.6,2,1.5l1.6-0.8c-0.7-1.5-1.8-2.3-3.6-2.3c-2.6,0-4.2,1.8-4.2,5.1
	C923,348.5,924.6,350.2,927.2,350.2z M935.2,350v-1.4h-1v-8.9h-1.8v8.6c0,1.1,0.6,1.8,1.8,1.8H935.2z M941.1,350h1.8v-7.3h-1.8v4.8
	c0,0.8-0.7,1.2-1.4,1.2c-0.9,0-1.2-0.5-1.2-1.6v-4.4h-1.8v4.6c0,1.8,0.8,2.9,2.3,2.9c1.2,0,1.8-0.7,2-1.4h0.1V350z M947.5,350.2
	c1.8,0,3-1,3-2.4c0-1.2-0.8-1.9-2.4-2.2l-0.7-0.1c-0.7-0.1-1-0.3-1-0.8c0-0.4,0.3-0.8,1.1-0.8c0.7,0,1.3,0.3,1.8,0.8l1.1-1
	c-0.7-0.7-1.4-1.1-2.9-1.1c-1.7,0-2.8,0.9-2.8,2.3c0,1.3,0.9,2,2.4,2.2l0.7,0.1c0.6,0.1,0.9,0.3,0.9,0.8c0,0.5-0.4,0.8-1.2,0.8
	c-0.8,0-1.5-0.4-2-1l-1.1,1.1C945.2,349.7,946.1,350.2,947.5,350.2z M954.4,350h1.3v-1.4h-1.4v-4.5h1.5v-1.4h-1.5v-2h-1.6v1.2
	c0,0.5-0.2,0.8-0.7,0.8h-0.6v1.4h1.1v4C952.5,349.3,953.2,350,954.4,350z M960.4,350.2c1.4,0,2.4-0.5,3-1.3l-1-1.1
	c-0.4,0.6-1,1-1.9,1c-1.2,0-1.8-0.7-1.8-1.8v-0.2h4.9v-0.6c0-2-1-3.7-3.3-3.7c-2.1,0-3.4,1.5-3.4,3.8
	C957,348.7,958.3,350.2,960.4,350.2z M960.4,343.9c0.9,0,1.4,0.7,1.4,1.7v0.1h-3v-0.1C958.8,344.6,959.5,343.9,960.4,343.9z
	 M967.2,350v-4.5c0-0.8,0.6-1.1,1.8-1.1h0.6v-1.7h-0.4c-1.2,0-1.8,0.7-1.9,1.5h-0.1v-1.5h-1.8v7.3H967.2z M976.4,350v-4.8
	c0-0.8,0.7-1.2,1.5-1.2c0.9,0,1.2,0.5,1.2,1.6v4.4h1.8v-4.6c0-1.8-0.8-2.9-2.3-2.9c-1.1,0-1.8,0.6-2,1.4h-0.1v-1.2h-1.8v7.3H976.4z"
	/>
<path class="st2" d="M248,184.5h32c4.1,0,7.5,3.4,7.5,7.5v32c0,4.1-3.4,7.5-7.5,7.5h-32c-4.1,0-7.5-3.4-7.5-7.5v-32
	C240.5,187.9,243.9,184.5,248,184.5z"/>
<path d="M271.5,206.8h-0.6v-7.5h-1.2v7.5H269c-0.3,0-0.6,0.1-0.9,0.4c-0.2,0.2-0.4,0.6-0.4,0.9v1.2c0,0.3,0.1,0.6,0.4,0.9
	c0.2,0.2,0.6,0.4,0.9,0.4h0.6v6.2h1.2v-6.2h0.6c0.3,0,0.6-0.1,0.9-0.4c0.2-0.2,0.4-0.6,0.4-0.9V208c0-0.3-0.1-0.6-0.4-0.9
	C272.1,206.9,271.8,206.8,271.5,206.8z M271.5,209.3H269V208h2.5V209.3z"/>
<path d="M265.2,201.8h-0.6v-2.5h-1.2v2.5h-0.6c-0.3,0-0.6,0.1-0.9,0.4c-0.2,0.2-0.4,0.6-0.4,0.9v1.2c0,0.3,0.1,0.6,0.4,0.9
	c0.2,0.2,0.6,0.4,0.9,0.4h0.6v11.2h1.2v-11.2h0.6c0.3,0,0.6-0.1,0.9-0.4c0.2-0.2,0.4-0.6,0.4-0.9V203c0-0.3-0.1-0.6-0.4-0.9
	C265.9,201.9,265.6,201.8,265.2,201.8z M265.2,204.3h-2.5V203h2.5V204.3z"/>
<path d="M259,210.5h-0.6v-11.2h-1.2v11.2h-0.6c-0.3,0-0.6,0.1-0.9,0.4c-0.2,0.2-0.4,0.6-0.4,0.9v1.2c0,0.3,0.1,0.6,0.4,0.9
	c0.2,0.2,0.6,0.4,0.9,0.4h0.6v2.5h1.2v-2.5h0.6c0.3,0,0.6-0.1,0.9-0.4c0.2-0.2,0.4-0.6,0.4-0.9v-1.2c0-0.3-0.1-0.6-0.4-0.9
	C259.6,210.6,259.3,210.5,259,210.5z M259,213h-2.5v-1.2h2.5V213z"/>
<path class="st6" d="M248,184.5h32c4.1,0,7.5,3.4,7.5,7.5v32c0,4.1-3.4,7.5-7.5,7.5h-32c-4.1,0-7.5-3.4-7.5-7.5v-32
	C240.5,187.9,243.9,184.5,248,184.5z"/>
<path d="M300.9,204.2c1.8,0,2.9-0.9,3.6-2.3l-1.5-0.9c-0.3,0.9-1,1.6-2.1,1.6c-1.4,0-2.3-1-2.3-2.6v-1.5c0-1.7,0.9-2.7,2.3-2.7
	c1.1,0,1.7,0.6,2,1.5l1.6-0.8c-0.7-1.5-1.8-2.3-3.6-2.3c-2.6,0-4.2,1.8-4.2,5.1C296.7,202.5,298.4,204.2,300.9,204.2z M309.1,204.2
	c2.1,0,3.4-1.5,3.4-3.8c0-2.3-1.3-3.8-3.4-3.8c-2.1,0-3.4,1.5-3.4,3.8C305.7,202.7,307,204.2,309.1,204.2z M309.1,202.7
	c-0.9,0-1.5-0.6-1.5-1.7v-1.4c0-1.1,0.6-1.7,1.5-1.7c0.9,0,1.5,0.6,1.5,1.7v1.4C310.6,202.1,310,202.7,309.1,202.7z M316,204v-4.8
	c0-0.8,0.7-1.2,1.5-1.2c0.9,0,1.2,0.5,1.2,1.6v4.4h1.8v-4.6c0-1.8-0.8-2.9-2.3-2.9c-1.1,0-1.8,0.6-2,1.4H316v-1.2h-1.8v7.3H316z
	 M324.9,204h1.3v-1.4h-1.4v-4.5h1.5v-1.4h-1.5v-2h-1.6v1.2c0,0.5-0.2,0.8-0.7,0.8h-0.6v1.4h1.1v4C323,203.3,323.7,204,324.9,204z
	 M329.8,204v-4.5c0-0.8,0.6-1.1,1.8-1.1h0.6v-1.7h-0.4c-1.2,0-1.8,0.7-1.9,1.5h-0.1v-1.5H328v7.3H329.8z M336.5,204.2
	c2.1,0,3.4-1.5,3.4-3.8c0-2.3-1.3-3.8-3.4-3.8c-2.1,0-3.4,1.5-3.4,3.8C333.1,202.7,334.4,204.2,336.5,204.2z M336.5,202.7
	c-0.9,0-1.5-0.6-1.5-1.7v-1.4c0-1.1,0.6-1.7,1.5-1.7c0.9,0,1.5,0.6,1.5,1.7v1.4C338,202.1,337.4,202.7,336.5,202.7z M344.4,204v-1.4
	h-1v-8.9h-1.8v8.6c0,1.1,0.6,1.8,1.8,1.8H344.4z M297,224.8h1.8v-4h0.1c0.3,0.8,1,1.4,2,1.4c1.8,0,2.9-1.4,2.9-3.8
	c0-2.4-1-3.8-2.9-3.8c-1,0-1.8,0.5-2,1.4h-0.1v-1.2H297V224.8z M300.3,220.7c-0.9,0-1.5-0.4-1.5-1.2v-2.3c0-0.7,0.6-1.2,1.5-1.2
	c0.9,0,1.6,0.7,1.6,1.7v1.3C301.9,220,301.2,220.7,300.3,220.7z M308.3,222v-1.4h-1v-8.9h-1.8v8.6c0,1.1,0.6,1.8,1.8,1.8H308.3z
	 M311.7,222.2c1.1,0,1.9-0.5,2.1-1.4h0.1c0.1,0.8,0.6,1.3,1.4,1.3h1v-1.4h-0.7v-3.4c0-1.7-1-2.6-3-2.6c-1.5,0-2.3,0.6-2.9,1.4l1.1,1
	c0.4-0.5,0.8-0.9,1.7-0.9c1,0,1.4,0.5,1.4,1.3v0.5h-1.2c-2,0-3.1,0.7-3.1,2.2C309.3,221.3,310.2,222.2,311.7,222.2z M312.3,220.9
	c-0.7,0-1.1-0.3-1.1-0.9v-0.2c0-0.6,0.5-0.9,1.4-0.9h1.1v1C313.7,220.5,313.1,220.9,312.3,220.9z M319.6,222v-4.8
	c0-0.8,0.7-1.2,1.5-1.2c0.9,0,1.2,0.5,1.2,1.6v4.4h1.8v-4.6c0-1.8-0.8-2.9-2.3-2.9c-1.1,0-1.8,0.6-2,1.4h-0.1v-1.2h-1.8v7.3H319.6z
	 M329.2,222.2c1.4,0,2.4-0.5,3-1.3l-1-1.1c-0.4,0.6-1,1-1.9,1c-1.2,0-1.8-0.7-1.8-1.8v-0.2h4.9v-0.6c0-2-1.1-3.7-3.3-3.7
	c-2.1,0-3.4,1.5-3.4,3.8C325.7,220.7,327,222.2,329.2,222.2z M329.2,215.9c0.9,0,1.4,0.7,1.4,1.7v0.1h-3v-0.1
	C327.6,216.6,328.2,215.9,329.2,215.9z"/>
<rect x="48.5" y="472.5" class="st0" width="15" height="15"/>
<rect x="48.5" y="472.5" class="st19" width="15" height="15"/>
<path class="st20" d="M76.7,485.2c1.6,0,2.8-0.9,3.4-2.2l-0.9-0.6c-0.4,1.1-1.2,1.8-2.5,1.8c-1.7,0-2.7-1.2-2.7-3.2v-1.5
	c0-2,1-3.3,2.7-3.3c1.2,0,2,0.7,2.4,1.7l1-0.6c-0.6-1.4-1.7-2.1-3.4-2.1c-2.5,0-3.9,1.8-3.9,5.1C72.8,483.4,74.3,485.2,76.7,485.2z
	 M84.2,485v-1h-1.1v-9.4H82v9.2c0,0.7,0.4,1.2,1.2,1.2H84.2z M90.5,485h1.1v-7.2h-1.1v5c0,1-0.9,1.4-1.8,1.4c-1.1,0-1.7-0.7-1.7-1.9
	v-4.4h-1.1v4.6c0,1.8,1,2.8,2.4,2.8c1.2,0,1.8-0.7,2-1.3h0.1V485z M96.3,485.2c1.7,0,2.7-0.9,2.7-2.3c0-1.1-0.6-1.8-2.2-2l-0.6-0.1
	c-0.9-0.1-1.4-0.4-1.4-1.1c0-0.7,0.5-1.1,1.4-1.1c0.9,0,1.5,0.4,1.9,0.9l0.7-0.7c-0.6-0.7-1.4-1.2-2.5-1.2c-1.5,0-2.6,0.7-2.6,2.1
	c0,1.3,1,1.9,2.3,2.1l0.6,0.1c1,0.1,1.3,0.6,1.3,1.1c0,0.7-0.6,1.2-1.5,1.2c-0.9,0-1.6-0.4-2.1-1.1l-0.8,0.6
	C94.1,484.6,95,485.2,96.3,485.2z M104,485v-1h-1.5v-5.3h1.6v-1h-1.6v-2h-1v1.3c0,0.5-0.2,0.7-0.6,0.7h-0.7v1h1.2v5.1
	c0,0.7,0.4,1.2,1.2,1.2H104z M108.8,485.2c1.4,0,2.4-0.7,2.9-1.7l-0.8-0.6c-0.4,0.8-1.1,1.2-2,1.2c-1.3,0-2.1-0.9-2.1-2.2v-0.3h5.2
	v-0.5c0-2-1.2-3.5-3.1-3.5c-2,0-3.2,1.5-3.2,3.8S106.8,485.2,108.8,485.2z M108.8,478.5c1.1,0,1.9,0.9,1.9,2.1v0.2h-4v-0.1
	C106.7,479.5,107.5,478.5,108.8,478.5z M115,485v-4.9c0-0.7,0.7-1.2,1.9-1.2h0.7v-1.1h-0.4c-1.2,0-1.8,0.6-2.1,1.3H115v-1.3h-1.1
	v7.2H115z M121.4,485.2c1.7,0,2.7-0.9,2.7-2.3c0-1.1-0.6-1.8-2.2-2l-0.6-0.1c-0.9-0.1-1.4-0.4-1.4-1.1c0-0.7,0.5-1.1,1.4-1.1
	c0.9,0,1.5,0.4,1.9,0.9l0.7-0.7c-0.6-0.7-1.4-1.2-2.5-1.2c-1.5,0-2.6,0.7-2.6,2.1c0,1.3,1,1.9,2.3,2.1l0.6,0.1
	c1,0.1,1.3,0.6,1.3,1.1c0,0.7-0.6,1.2-1.5,1.2c-0.9,0-1.6-0.4-2.1-1.1l-0.8,0.6C119.1,484.6,120,485.2,121.4,485.2z M134.8,485v-1.9
	h1.4v-1h-1.4v-6.9h-1.8L129,482v1h4.7v1.9H134.8z M133.6,476.1L133.6,476.1l0.1,6h-3.6L133.6,476.1z M144.7,485v-1h-1.5v-5.3h1.6v-1
	h-1.6v-2h-1v1.3c0,0.5-0.2,0.7-0.6,0.7h-0.7v1h1.2v5.1c0,0.7,0.4,1.2,1.2,1.2H144.7z M149.4,485.2c1.9,0,3.3-1.5,3.3-3.8
	s-1.3-3.8-3.3-3.8c-1.9,0-3.3,1.5-3.3,3.8S147.5,485.2,149.4,485.2z M149.4,484.2c-1.2,0-2.1-0.7-2.1-2.3v-1c0-1.5,0.9-2.3,2.1-2.3
	s2.1,0.7,2.1,2.3v1C151.5,483.4,150.6,484.2,149.4,484.2z M159.3,485v-5c0-0.9,0.9-1.4,1.8-1.4c1.1,0,1.6,0.7,1.6,1.9v4.4h1.1v-4.6
	c0-1.8-0.9-2.8-2.4-2.8c-1.1,0-1.7,0.5-2,1.3h-0.1v-1.2h-1.1v7.2H159.3z"/>
</svg>
