<?xml version="1.0" encoding="utf-8"?>
<!-- Generator: Adobe Illustrator 26.5.0, SVG Export Plug-In . SVG Version: 6.00 Build 0)  -->
<svg version="1.1" id="Layer_1" xmlns="http://www.w3.org/2000/svg" xmlns:xlink="http://www.w3.org/1999/xlink" x="0px" y="0px"
	 viewBox="0 0 1080 540" style="enable-background:new 0 0 1080 540;" xml:space="preserve">
<style type="text/css">
	.st0{fill:#F4F4F4;}
	.st1{fill:#FFFFFF;}
	.st2{fill:#EDF5FF;}
	.st3{clip-path:url(#SVGID_00000090282718832911250270000006194523447806731428_);}
	.st4{fill:none;stroke:#0F62FE;stroke-width:4;}
	.st5{clip-path:url(#SVGID_00000081639243316200804180000009936264397902497937_);}
	.st6{fill:none;stroke:#0F62FE;}
	.st7{fill:#0F62FE;}
	.st8{clip-path:url(#SVGID_00000051341542738583584730000006674299064354201772_);}
	.st9{fill:none;stroke:#8D8D8D;stroke-width:4;}
	.st10{fill:none;stroke:#8D8D8D;}
	.st11{fill:#F7F3F2;}
	.st12{clip-path:url(#SVGID_00000175282720169503203340000005020631133093792164_);}
	.st13{fill:#8D8D8D;}
	.st14{fill:none;stroke:#6F6F6F;stroke-dasharray:4,4;}
	.st15{fill:#565151;}
	.st16{fill-rule:evenodd;clip-rule:evenodd;fill:#0043CE;}
	.st17{fill:none;stroke:#8D8D8D;stroke-dasharray:4,4;}
	.st18{fill:#6F6F6F;}
</style>
<rect class="st0" width="1080" height="540"/>
<rect x="48.5" y="48.5" class="st1" width="143" height="391"/>
<rect x="49" y="49" class="st2" width="142" height="390"/>
<g>
	<defs>
		<rect id="SVGID_1_" x="48" y="48" width="137" height="48"/>
	</defs>
	<clipPath id="SVGID_00000063635166725558301170000004039969106979289511_">
		<use xlink:href="#SVGID_1_"  style="overflow:visible;"/>
	</clipPath>
	<g style="clip-path:url(#SVGID_00000063635166725558301170000004039969106979289511_);">
		<line class="st4" x1="50" y1="48" x2="50" y2="96"/>
		<g>
			<defs>
				<rect id="SVGID_00000174565294602427607060000009644903001467655840_" x="64" y="62" width="20" height="20"/>
			</defs>
			<clipPath id="SVGID_00000047754874008645049830000011242276994981314991_">
				<use xlink:href="#SVGID_00000174565294602427607060000009644903001467655840_"  style="overflow:visible;"/>
			</clipPath>
			<g style="clip-path:url(#SVGID_00000047754874008645049830000011242276994981314991_);">
				<path d="M79.4,70.5c-0.6-1.2-1.6-2.1-2.8-2.7c-1.2-0.6-2.5-0.7-3.8-0.4c-1.3,0.3-2.5,1-3.3,2c-0.9,1-1.4,2.2-1.5,3.6
					c-1.1,0.1-2.1,0.6-2.8,1.5c-0.7,0.8-1.1,1.9-1,3c0.1,1.1,0.5,2.1,1.3,2.8c0.8,0.7,1.8,1.2,2.9,1.2h10c1.4,0,2.7-0.5,3.7-1.4
					c1-0.9,1.6-2.2,1.8-3.5c0.1-1.4-0.3-2.7-1.1-3.8C81.9,71.5,80.7,70.8,79.4,70.5z M78.4,80.4h-10c-0.8,0-1.6-0.3-2.2-0.9
					s-1-1.3-1-2.2c-0.1-0.8,0.2-1.6,0.7-2.3c0.5-0.6,1.3-1.1,2.1-1.2c0.1,0.8,0.3,1.6,0.7,2.4c0,0.1,0.1,0.1,0.1,0.1
					c0,0,0.1,0.1,0.2,0.1c0.1,0,0.1,0,0.2,0c0.1,0,0.1,0,0.2-0.1s0.1-0.1,0.1-0.1c0,0,0.1-0.1,0.1-0.2c0-0.1,0-0.1,0-0.2
					c0-0.1,0-0.1-0.1-0.2c-0.6-1.2-0.8-2.5-0.4-3.8c0.3-1.3,1.2-2.4,2.3-3c1.1-0.7,2.5-0.9,3.7-0.7c1.3,0.3,2.4,1,3.2,2.1
					c-0.7,0-1.5,0.2-2.2,0.5c-0.7,0.3-1.3,0.8-1.8,1.3c0,0-0.1,0.1-0.1,0.2c0,0.1,0,0.1,0,0.2c0,0.1,0,0.1,0,0.2
					c0,0.1,0.1,0.1,0.1,0.1c0,0,0.1,0.1,0.2,0.1c0.1,0,0.1,0,0.2,0c0.1,0,0.1,0,0.2,0c0.1,0,0.1-0.1,0.1-0.1c0.5-0.6,1.1-1,1.8-1.3
					c0.7-0.3,1.5-0.3,2.2-0.2c0.7,0.1,1.5,0.4,2.1,0.9c0.6,0.5,1.1,1.1,1.4,1.7c0.3,0.7,0.4,1.4,0.4,2.2c-0.1,0.8-0.3,1.5-0.7,2.1
					c-0.4,0.6-1,1.2-1.6,1.5C79.9,80.2,79.1,80.4,78.4,80.4z"/>
				<path d="M83.9,68.4c0-0.1-0.1-0.1-0.1-0.1c0,0-0.1-0.1-0.2-0.1c-0.1,0-0.1,0-0.2,0c-0.1,0-0.1,0-0.2,0.1l-1.9,1.1
					c-0.1,0-0.1,0.1-0.1,0.1c0,0-0.1,0.1-0.1,0.2c0,0.1,0,0.1,0,0.2c0,0.1,0,0.1,0.1,0.2s0.1,0.1,0.1,0.1s0.1,0.1,0.2,0.1
					c0.1,0,0.1,0,0.2,0s0.1,0,0.2-0.1l1.9-1.1c0.1-0.1,0.2-0.2,0.2-0.3C84,68.6,84,68.5,83.9,68.4z"/>
				<path d="M78.2,66.9c0.1,0,0.1,0.1,0.2,0.1c0.1,0,0.1,0,0.2,0c0.1,0,0.1,0,0.2-0.1c0,0,0.1-0.1,0.1-0.1l1.1-1.9
					c0.1-0.1,0.1-0.2,0-0.4c0-0.1-0.1-0.2-0.2-0.3c-0.1-0.1-0.2-0.1-0.4,0s-0.2,0.1-0.3,0.2L78,66.3c-0.1,0.1-0.1,0.2,0,0.4
					C78,66.8,78.1,66.9,78.2,66.9z"/>
				<path d="M74,65.8c0.1,0,0.2,0,0.3-0.1c0.1-0.1,0.1-0.2,0.1-0.3v-2.2c0-0.1,0-0.1,0-0.2c0-0.1-0.1-0.1-0.1-0.2
					c0,0-0.1-0.1-0.2-0.1c-0.1,0-0.1,0-0.2,0s-0.1,0-0.2,0s-0.1,0.1-0.2,0.1c0,0-0.1,0.1-0.1,0.2c0,0.1,0,0.1,0,0.2v2.2
					c0,0.1,0,0.2,0.1,0.3C73.8,65.8,73.9,65.8,74,65.8z"/>
				<path d="M69.2,66.7c0.1,0.1,0.2,0.2,0.3,0.2s0.2,0,0.4,0c0.1-0.1,0.2-0.2,0.2-0.3c0-0.1,0-0.2,0-0.4l-1.1-1.9
					c0-0.1-0.1-0.1-0.1-0.1c0,0-0.1-0.1-0.2-0.1c-0.1,0-0.1,0-0.2,0c-0.1,0-0.1,0-0.2,0.1c-0.1,0-0.1,0.1-0.1,0.1
					c0,0-0.1,0.1-0.1,0.2c0,0.1,0,0.1,0,0.2c0,0.1,0,0.1,0.1,0.2L69.2,66.7z"/>
				<path d="M66.6,69.3l-1.9-1.1c-0.1,0-0.1-0.1-0.2-0.1c-0.1,0-0.1,0-0.2,0c-0.1,0-0.1,0-0.2,0.1c0,0-0.1,0.1-0.1,0.1
					c0,0.1-0.1,0.1-0.1,0.2c0,0.1,0,0.1,0,0.2c0,0.1,0,0.1,0.1,0.2c0,0,0.1,0.1,0.1,0.1l1.9,1.1c0.1,0,0.1,0.1,0.2,0.1
					c0.1,0,0.1,0,0.2,0s0.1,0,0.2-0.1s0.1-0.1,0.1-0.1c0-0.1,0.1-0.1,0.1-0.2c0-0.1,0-0.1,0-0.2c0-0.1,0-0.1-0.1-0.2
					C66.7,69.4,66.7,69.4,66.6,69.3z"/>
			</g>
		</g>
		<path d="M105.2,77v-1.5h-1.3v-6.8h1.3v-1.5h-4.4v1.5h1.3v6.8h-1.3V77H105.2z M107.2,77h5c1.4,0,2.5-1.2,2.5-2.8
			c0-1.7-1.3-2.3-2.1-2.3v-0.1c0.9-0.1,1.8-0.6,1.8-2.1c0-1.5-1-2.5-2.6-2.5h-4.5V77z M109.1,72.8h2.6c0.7,0,1.1,0.4,1.1,1.1v0.5
			c0,0.7-0.4,1.1-1.1,1.1h-2.6V72.8z M109.1,68.8h2.3c0.7,0,1.1,0.4,1.1,1v0.4c0,0.6-0.4,1-1.1,1h-2.3V68.8z M116.7,77h1.8v-7h0.1
			l0.8,1.6l2,3.7l2-3.7L124,70h0.1v7h1.8v-9.8h-2l-2.5,4.8h-0.1l-2.5-4.8h-2.1V77z M135.5,77.2c1.8,0,2.9-0.9,3.6-2.3l-1.5-0.9
			c-0.3,0.9-1,1.6-2.1,1.6c-1.4,0-2.3-1-2.3-2.6v-1.5c0-1.7,0.9-2.7,2.3-2.7c1.1,0,1.7,0.6,2,1.5l1.6-0.8c-0.7-1.5-1.8-2.3-3.6-2.3
			c-2.6,0-4.2,1.8-4.2,5.1S132.9,77.2,135.5,77.2z M143.5,77v-1.4h-1v-8.9h-1.8v8.6c0,1.1,0.6,1.8,1.8,1.8H143.5z M147.9,77.2
			c2.1,0,3.4-1.5,3.4-3.8c0-2.3-1.3-3.8-3.4-3.8c-2.1,0-3.4,1.5-3.4,3.8C144.5,75.7,145.8,77.2,147.9,77.2z M147.9,75.7
			c-0.9,0-1.5-0.6-1.5-1.7v-1.4c0-1.1,0.6-1.7,1.5-1.7c0.9,0,1.5,0.6,1.5,1.7V74C149.5,75.1,148.9,75.7,147.9,75.7z M157.5,77h1.8
			v-7.3h-1.8v4.8c0,0.8-0.7,1.2-1.4,1.2c-0.9,0-1.2-0.5-1.2-1.6v-4.4H153v4.6c0,1.8,0.8,2.9,2.3,2.9c1.2,0,1.8-0.7,2-1.4h0.1V77z
			 M166,77h1.8V66.6H166v4.3h-0.1c-0.3-0.8-1.1-1.4-2-1.4c-1.8,0-2.9,1.4-2.9,3.8c0,2.4,1,3.8,2.9,3.8c1,0,1.8-0.6,2-1.4h0.1V77z
			 M164.5,75.7c-0.9,0-1.6-0.7-1.6-1.7v-1.3c0-1,0.6-1.7,1.6-1.7c0.9,0,1.5,0.5,1.5,1.2v2.3C166,75.2,165.4,75.7,164.5,75.7z"/>
	</g>
</g>
<rect x="48.5" y="48.5" class="st6" width="143" height="391"/>
<path class="st7" d="M104,184h32c4.4,0,8,3.6,8,8v32c0,4.4-3.6,8-8,8h-32c-4.4,0-8-3.6-8-8v-32C96,187.6,99.6,184,104,184z"/>
<path class="st1" d="M127.5,206.8h-0.6v-7.5h-1.2v7.5H125c-0.3,0-0.6,0.1-0.9,0.4c-0.2,0.2-0.4,0.6-0.4,0.9v1.2
	c0,0.3,0.1,0.6,0.4,0.9c0.2,0.2,0.6,0.4,0.9,0.4h0.6v6.2h1.2v-6.2h0.6c0.3,0,0.6-0.1,0.9-0.4c0.2-0.2,0.4-0.6,0.4-0.9V208
	c0-0.3-0.1-0.6-0.4-0.9C128.1,206.9,127.8,206.8,127.5,206.8z M127.5,209.3H125V208h2.5V209.3z"/>
<path class="st1" d="M121.2,201.8h-0.6v-2.5h-1.2v2.5h-0.6c-0.3,0-0.6,0.1-0.9,0.4c-0.2,0.2-0.4,0.6-0.4,0.9v1.2
	c0,0.3,0.1,0.6,0.4,0.9c0.2,0.2,0.6,0.4,0.9,0.4h0.6v11.2h1.2v-11.2h0.6c0.3,0,0.6-0.1,0.9-0.4c0.2-0.2,0.4-0.6,0.4-0.9V203
	c0-0.3-0.1-0.6-0.4-0.9C121.9,201.9,121.6,201.8,121.2,201.8z M121.2,204.3h-2.5V203h2.5V204.3z"/>
<path class="st1" d="M115,210.5h-0.6v-11.2h-1.2v11.2h-0.6c-0.3,0-0.6,0.1-0.9,0.4c-0.2,0.2-0.4,0.6-0.4,0.9v1.2
	c0,0.3,0.1,0.6,0.4,0.9c0.2,0.2,0.6,0.4,0.9,0.4h0.6v2.5h1.2v-2.5h0.6c0.3,0,0.6-0.1,0.9-0.4c0.2-0.2,0.4-0.6,0.4-0.9v-1.2
	c0-0.3-0.1-0.6-0.4-0.9C115.6,210.6,115.3,210.5,115,210.5z M115,213h-2.5v-1.2h2.5V213z"/>
<path d="M94.7,254.2c2.3,0,3.7-1.3,3.7-3.1c0-1.6-0.9-2.5-2.9-2.8l-0.9-0.2c-0.9-0.2-1.4-0.5-1.4-1.2c0-0.7,0.5-1.1,1.6-1.1
	c1,0,1.7,0.4,2.2,1l1.3-1.2c-0.8-0.9-1.9-1.4-3.3-1.4c-2.2,0-3.5,1.1-3.5,2.9c0,1.6,1,2.5,2.9,2.8l0.9,0.1c1,0.2,1.3,0.6,1.3,1.2
	c0,0.8-0.6,1.4-1.7,1.4c-1,0-1.8-0.4-2.5-1.2l-1.2,1.2C91.8,253.5,93,254.2,94.7,254.2z M102,254.2c1.1,0,1.9-0.5,2.1-1.4h0.1
	c0.1,0.8,0.6,1.3,1.4,1.3h1v-1.4h-0.7v-3.4c0-1.7-1.1-2.6-3-2.6c-1.5,0-2.3,0.6-2.9,1.4l1.1,1c0.3-0.5,0.8-0.9,1.7-0.9
	c1,0,1.4,0.5,1.4,1.3v0.5h-1.2c-2,0-3.1,0.7-3.1,2.2C99.7,253.3,100.6,254.2,102,254.2z M102.6,252.9c-0.7,0-1.1-0.3-1.1-0.9v-0.2
	c0-0.6,0.5-0.9,1.4-0.9h1.1v1C104.1,252.5,103.4,252.9,102.6,252.9z M110.4,254h1.3v-1.4h-1.4v-4.5h1.5v-1.4h-1.5v-2h-1.6v1.2
	c0,0.5-0.2,0.8-0.7,0.8h-0.6v1.4h1.1v4C108.5,253.3,109.2,254,110.4,254z M116.4,254.2c1.4,0,2.4-0.5,3-1.3l-1-1.1
	c-0.4,0.6-1,1-1.9,1c-1.2,0-1.8-0.7-1.8-1.8v-0.2h4.9v-0.6c0-2-1-3.7-3.3-3.7c-2.1,0-3.4,1.5-3.4,3.8
	C113,252.7,114.3,254.2,116.4,254.2z M116.4,247.9c0.9,0,1.4,0.7,1.4,1.7v0.1h-3v-0.1C114.9,248.6,115.5,247.9,116.4,247.9z
	 M124.2,254v-1.4h-1v-8.9h-1.8v8.6c0,1.1,0.6,1.8,1.8,1.8H124.2z M128.4,254v-1.4h-1v-8.9h-1.8v8.6c0,1.1,0.6,1.8,1.8,1.8H128.4z
	 M130.8,245.6c0.7,0,1.1-0.4,1.1-0.9v-0.3c0-0.5-0.3-0.9-1.1-0.9c-0.7,0-1.1,0.4-1.1,0.9v0.3C129.8,245.2,130.1,245.6,130.8,245.6z
	 M129.9,254h1.8v-7.3h-1.8V254z M136.2,254h1.3v-1.4h-1.4v-4.5h1.5v-1.4h-1.5v-2h-1.6v1.2c0,0.5-0.2,0.8-0.7,0.8h-0.6v1.4h1.1v4
	C134.3,253.3,135,254,136.2,254z M142.2,254.2c1.4,0,2.4-0.5,3-1.3l-1-1.1c-0.4,0.6-1,1-1.9,1c-1.2,0-1.8-0.7-1.8-1.8v-0.2h4.9v-0.6
	c0-2-1.1-3.7-3.3-3.7c-2.1,0-3.4,1.5-3.4,3.8C138.8,252.7,140.1,254.2,142.2,254.2z M142.2,247.9c0.9,0,1.4,0.7,1.4,1.7v0.1h-3v-0.1
	C140.7,248.6,141.3,247.9,142.2,247.9z M79.4,272v-4.8c0-0.8,0.7-1.2,1.4-1.2c0.8,0,1.2,0.5,1.2,1.6v4.4h1.8v-4.8
	c0-0.8,0.7-1.2,1.4-1.2c0.8,0,1.2,0.5,1.2,1.6v4.4h1.8v-4.6c0-1.8-0.8-2.9-2.2-2.9c-1.2,0-2,0.7-2.2,1.5h0c-0.4-1-1.1-1.5-2.1-1.5
	c-1.1,0-1.7,0.6-2,1.4h-0.1v-1.2h-1.8v7.3H79.4z M92,272.2c1.1,0,1.9-0.5,2.1-1.4h0.1c0.1,0.8,0.6,1.3,1.4,1.3h1v-1.4h-0.7v-3.4
	c0-1.7-1.1-2.6-3-2.6c-1.5,0-2.3,0.6-2.9,1.4l1.1,1c0.3-0.5,0.8-0.9,1.7-0.9c1,0,1.4,0.5,1.4,1.3v0.5h-1.2c-2,0-3.1,0.7-3.1,2.2
	C89.7,271.3,90.5,272.2,92,272.2z M92.6,270.9c-0.7,0-1.1-0.3-1.1-0.9v-0.2c0-0.6,0.5-0.9,1.4-0.9h1.1v1
	C94.1,270.5,93.4,270.9,92.6,270.9z M100,272v-4.8c0-0.8,0.7-1.2,1.5-1.2c0.9,0,1.2,0.5,1.2,1.6v4.4h1.8v-4.6c0-1.8-0.8-2.9-2.3-2.9
	c-1.1,0-1.8,0.6-2,1.4H100v-1.2h-1.8v7.3H100z M108.4,272.2c1.1,0,1.9-0.5,2.1-1.4h0.1c0.1,0.8,0.6,1.3,1.4,1.3h1v-1.4h-0.7v-3.4
	c0-1.7-1-2.6-3-2.6c-1.5,0-2.3,0.6-2.9,1.4l1.1,1c0.3-0.5,0.8-0.9,1.7-0.9c1,0,1.4,0.5,1.4,1.3v0.5h-1.2c-2,0-3.1,0.7-3.1,2.2
	C106.1,271.3,106.9,272.2,108.4,272.2z M109,270.9c-0.7,0-1.1-0.3-1.1-0.9v-0.2c0-0.6,0.5-0.9,1.4-0.9h1.1v1
	C110.4,270.5,109.8,270.9,109,270.9z M121.2,272.6c0-1.3-0.8-2.1-2.6-2.1h-2c-0.6,0-1-0.2-1-0.5c0-0.3,0.2-0.5,0.5-0.7
	c0.3,0.1,0.7,0.1,1.1,0.1c2,0,3-1,3-2.4c0-0.9-0.4-1.6-1.1-2v-0.2h1.6v-1.4h-1.1c-0.7,0-1,0.4-1,1.1v0.2c-0.4-0.1-0.8-0.2-1.3-0.2
	c-2,0-3,1-3,2.5c0,1,0.4,1.7,1.3,2.1v0.1c-0.7,0.2-1.3,0.5-1.3,1.3c0,0.6,0.3,1.1,0.9,1.2v0.2c-0.8,0.1-1.3,0.6-1.3,1.4
	c0,1.1,0.9,1.7,3.4,1.7C120.1,275,121.2,274.1,121.2,272.6z M119.5,272.8c0,0.6-0.5,0.9-1.7,0.9h-0.9c-1.1,0-1.5-0.3-1.5-0.9
	c0-0.3,0.1-0.6,0.4-0.8h2.5C119.2,272.1,119.5,272.4,119.5,272.8z M117.3,268.2c-0.9,0-1.3-0.4-1.3-1.1v-0.2c0-0.7,0.5-1.1,1.3-1.1
	c0.9,0,1.3,0.4,1.3,1.1v0.2C118.7,267.8,118.2,268.2,117.3,268.2z M125.2,272.2c1.4,0,2.4-0.5,3-1.3l-1-1.1c-0.4,0.6-1,1-1.9,1
	c-1.2,0-1.8-0.7-1.8-1.8v-0.2h4.9v-0.6c0-2-1.1-3.7-3.3-3.7c-2.1,0-3.4,1.5-3.4,3.8C121.8,270.7,123.1,272.2,125.2,272.2z
	 M125.2,265.9c0.9,0,1.4,0.7,1.4,1.7v0.1h-3v-0.1C123.7,266.6,124.3,265.9,125.2,265.9z M132,272v-4.8c0-0.8,0.7-1.2,1.4-1.2
	c0.8,0,1.2,0.5,1.2,1.6v4.4h1.8v-4.8c0-0.8,0.7-1.2,1.4-1.2c0.8,0,1.2,0.5,1.2,1.6v4.4h1.8v-4.6c0-1.8-0.8-2.9-2.2-2.9
	c-1.2,0-2,0.7-2.2,1.5h0c-0.4-1-1.1-1.5-2.1-1.5c-1.1,0-1.7,0.6-2,1.4H132v-1.2h-1.8v7.3H132z M145.8,272.2c1.4,0,2.4-0.5,3-1.3
	l-1-1.1c-0.4,0.6-1,1-1.9,1c-1.2,0-1.8-0.7-1.8-1.8v-0.2h4.9v-0.6c0-2-1.1-3.7-3.3-3.7c-2.1,0-3.4,1.5-3.4,3.8
	C142.3,270.7,143.6,272.2,145.8,272.2z M145.8,265.9c0.9,0,1.4,0.7,1.4,1.7v0.1h-3v-0.1C144.2,266.6,144.8,265.9,145.8,265.9z
	 M152.6,272v-4.8c0-0.8,0.7-1.2,1.5-1.2c0.9,0,1.2,0.5,1.2,1.6v4.4h1.8v-4.6c0-1.8-0.8-2.9-2.3-2.9c-1.1,0-1.8,0.6-2,1.4h-0.1v-1.2
	h-1.8v7.3H152.6z M161.5,272h1.3v-1.4h-1.4v-4.5h1.5v-1.4h-1.5v-2h-1.6v1.2c0,0.5-0.2,0.8-0.7,0.8h-0.6v1.4h1.1v4
	C159.6,271.3,160.2,272,161.5,272z M102.5,292.8h1.8v-4h0.1c0.3,0.8,1.1,1.4,2,1.4c1.8,0,2.9-1.4,2.9-3.8c0-2.4-1-3.8-2.9-3.8
	c-1,0-1.8,0.5-2,1.4h-0.1v-1.2h-1.8V292.8z M105.8,288.7c-0.9,0-1.5-0.4-1.5-1.2v-2.3c0-0.7,0.6-1.2,1.5-1.2c0.9,0,1.6,0.7,1.6,1.7
	v1.3C107.4,288,106.7,288.7,105.8,288.7z M113.8,290v-1.4h-1v-8.9h-1.8v8.6c0,1.1,0.6,1.8,1.8,1.8H113.8z M117.2,290.2
	c1.1,0,1.9-0.5,2.1-1.4h0.1c0.1,0.8,0.6,1.3,1.4,1.3h1v-1.4H121v-3.4c0-1.7-1-2.6-3-2.6c-1.5,0-2.3,0.6-2.9,1.4l1.1,1
	c0.3-0.5,0.8-0.9,1.7-0.9c1,0,1.4,0.5,1.4,1.3v0.5H118c-2,0-3.1,0.7-3.1,2.2C114.8,289.3,115.7,290.2,117.2,290.2z M117.8,288.9
	c-0.7,0-1.1-0.3-1.1-0.9v-0.2c0-0.6,0.5-0.9,1.4-0.9h1.1v1C119.2,288.5,118.6,288.9,117.8,288.9z M125.1,290v-4.8
	c0-0.8,0.7-1.2,1.5-1.2c0.9,0,1.2,0.5,1.2,1.6v4.4h1.8v-4.6c0-1.8-0.8-2.9-2.3-2.9c-1.1,0-1.8,0.6-2,1.4h-0.1v-1.2h-1.8v7.3H125.1z
	 M134.7,290.2c1.4,0,2.4-0.5,3-1.3l-1-1.1c-0.4,0.6-1,1-1.9,1c-1.2,0-1.8-0.7-1.8-1.8v-0.2h4.9v-0.6c0-2-1.1-3.7-3.3-3.7
	c-2.1,0-3.4,1.5-3.4,3.8C131.2,288.7,132.5,290.2,134.7,290.2z M134.7,283.9c0.9,0,1.4,0.7,1.4,1.7v0.1h-3v-0.1
	C133.1,284.6,133.7,283.9,134.7,283.9z"/>
<rect x="240.5" y="48.5" class="st1" width="703" height="391"/>
<rect x="241" y="49" class="st1" width="702" height="390"/>
<g>
	<defs>
		<rect id="SVGID_00000173877572746282690870000017663265791501803192_" x="240" y="48" width="213" height="48"/>
	</defs>
	<clipPath id="SVGID_00000121245951031186302570000003477623619070972300_">
		<use xlink:href="#SVGID_00000173877572746282690870000017663265791501803192_"  style="overflow:visible;"/>
	</clipPath>
	<g style="clip-path:url(#SVGID_00000121245951031186302570000003477623619070972300_);">
		<line class="st9" x1="242" y1="48" x2="242" y2="96"/>
		<path d="M263.6,68v-1.6H259v-2.5h4.1v-1.6H259v-2.4h4.6v-1.6h-6.4V68H263.6z M270,68h1.8V57.6H270v4.3h-0.1
			c-0.3-0.8-1.1-1.4-2-1.4c-1.8,0-2.9,1.4-2.9,3.8c0,2.4,1,3.8,2.9,3.8c1,0,1.8-0.6,2-1.4h0.1V68z M268.5,66.7
			c-0.9,0-1.6-0.7-1.6-1.7v-1.3c0-1,0.6-1.7,1.6-1.7c0.9,0,1.5,0.5,1.5,1.2v2.3C270,66.2,269.3,66.7,268.5,66.7z M280.6,68.6
			c0-1.3-0.8-2.1-2.6-2.1h-2c-0.6,0-1-0.2-1-0.5c0-0.3,0.2-0.5,0.5-0.7c0.3,0.1,0.7,0.1,1.1,0.1c2,0,3-1,3-2.5c0-0.9-0.4-1.6-1.1-2
			v-0.2h1.6v-1.4h-1.1c-0.7,0-1,0.4-1,1.1v0.2c-0.4-0.1-0.8-0.2-1.3-0.2c-2,0-3,1-3,2.5c0,1,0.4,1.7,1.3,2.1v0.1
			c-0.7,0.2-1.3,0.5-1.3,1.3c0,0.6,0.3,1.1,0.9,1.2v0.2c-0.8,0.1-1.3,0.6-1.3,1.4c0,1.1,0.9,1.7,3.4,1.7
			C279.6,71,280.6,70.1,280.6,68.6z M278.9,68.8c0,0.6-0.5,0.9-1.7,0.9h-0.9c-1.1,0-1.5-0.3-1.5-0.9c0-0.3,0.1-0.6,0.4-0.8h2.5
			C278.6,68.1,278.9,68.4,278.9,68.8z M276.8,64.2c-0.9,0-1.3-0.4-1.3-1.1v-0.2c0-0.7,0.5-1.1,1.3-1.1s1.3,0.4,1.3,1.1v0.2
			C278.1,63.8,277.6,64.2,276.8,64.2z M284.7,68.2c1.4,0,2.4-0.5,3-1.3l-1-1.1c-0.4,0.6-1,1-1.9,1c-1.2,0-1.8-0.7-1.8-1.8v-0.2h4.9
			v-0.6c0-2-1.1-3.7-3.3-3.7c-2.1,0-3.4,1.5-3.4,3.8C281.2,66.7,282.5,68.2,284.7,68.2z M284.6,61.9c0.9,0,1.4,0.7,1.4,1.7v0.1h-3
			v-0.1C283.1,62.6,283.7,61.9,284.6,61.9z M296,68.2c2.1,0,3.4-1.5,3.4-3.8c0-2.3-1.3-3.8-3.4-3.8c-2.1,0-3.4,1.5-3.4,3.8
			C292.7,66.7,294,68.2,296,68.2z M296,66.7c-0.9,0-1.5-0.6-1.5-1.7v-1.4c0-1.1,0.6-1.7,1.5-1.7c0.9,0,1.5,0.6,1.5,1.7V65
			C297.6,66.1,297,66.7,296,66.7z M303,68v-4.5c0-0.8,0.6-1.1,1.8-1.1h0.6v-1.7H305c-1.2,0-1.8,0.7-1.9,1.5H303v-1.5h-1.8V68H303z
			 M313.2,68.2c2.1,0,3.4-1.5,3.4-3.8c0-2.3-1.3-3.8-3.4-3.8c-2.1,0-3.4,1.5-3.4,3.8C309.8,66.7,311.1,68.2,313.2,68.2z M313.2,66.7
			c-0.9,0-1.5-0.6-1.5-1.7v-1.4c0-1.1,0.6-1.7,1.5-1.7c0.9,0,1.5,0.6,1.5,1.7V65C314.7,66.1,314.2,66.7,313.2,66.7z M320.6,68h1.3
			v-1.4h-1.4v-4.5h1.5v-1.4h-1.5v-2h-1.6v1.2c0,0.5-0.2,0.8-0.7,0.8h-0.6v1.4h1.1v4C318.7,67.3,319.4,68,320.6,68z M323.7,68h1.8
			v-4.8c0-0.8,0.7-1.2,1.5-1.2c0.9,0,1.2,0.5,1.2,1.6V68h1.8v-4.6c0-1.8-0.8-2.9-2.3-2.9c-1.1,0-1.8,0.6-2,1.4h-0.1v-4.3h-1.8V68z
			 M335.1,68.2c1.4,0,2.4-0.5,3-1.3l-1-1.1c-0.4,0.6-1,1-1.9,1c-1.2,0-1.8-0.7-1.8-1.8v-0.2h4.9v-0.6c0-2-1-3.7-3.3-3.7
			c-2.1,0-3.4,1.5-3.4,3.8C331.6,66.7,332.9,68.2,335.1,68.2z M335,61.9c0.9,0,1.4,0.7,1.4,1.7v0.1h-3v-0.1
			C333.5,62.6,334.1,61.9,335,61.9z M341.9,68v-4.5c0-0.8,0.6-1.1,1.8-1.1h0.6v-1.7h-0.4c-1.2,0-1.8,0.7-1.9,1.5h-0.1v-1.5h-1.8V68
			H341.9z M353.7,68h1.8V57.6h-1.8v4.3h-0.1c-0.3-0.8-1-1.4-2-1.4c-1.8,0-2.9,1.4-2.9,3.8c0,2.4,1,3.8,2.9,3.8c1,0,1.8-0.6,2-1.4
			h0.1V68z M352.2,66.7c-0.9,0-1.6-0.7-1.6-1.7v-1.3c0-1,0.6-1.7,1.6-1.7c0.9,0,1.5,0.5,1.5,1.2v2.3
			C353.7,66.2,353.1,66.7,352.2,66.7z M359.6,68.2c1.1,0,1.9-0.5,2.1-1.4h0.1c0.1,0.8,0.6,1.3,1.4,1.3h1v-1.4h-0.7v-3.4
			c0-1.7-1-2.6-3-2.6c-1.5,0-2.3,0.6-2.9,1.4l1.1,1c0.4-0.5,0.8-0.9,1.7-0.9c1,0,1.4,0.5,1.4,1.3v0.5h-1.2c-2,0-3.1,0.7-3.1,2.2
			C357.2,67.3,358.1,68.2,359.6,68.2z M360.2,66.9c-0.7,0-1.1-0.3-1.1-0.9v-0.2c0-0.6,0.5-0.9,1.4-0.9h1.1v1
			C361.6,66.5,361,66.9,360.2,66.9z M368,68h1.3v-1.4h-1.4v-4.5h1.5v-1.4h-1.5v-2h-1.6v1.2c0,0.5-0.2,0.8-0.7,0.8H365v1.4h1.1v4
			C366.1,67.3,366.7,68,368,68z M372.9,68.2c1.1,0,1.9-0.5,2.1-1.4h0.1c0.1,0.8,0.6,1.3,1.4,1.3h1v-1.4h-0.7v-3.4c0-1.7-1-2.6-3-2.6
			c-1.5,0-2.3,0.6-2.9,1.4l1.1,1c0.3-0.5,0.8-0.9,1.7-0.9c1,0,1.4,0.5,1.4,1.3v0.5h-1.2c-2,0-3.1,0.7-3.1,2.2
			C370.6,67.3,371.4,68.2,372.9,68.2z M373.5,66.9c-0.7,0-1.1-0.3-1.1-0.9v-0.2c0-0.6,0.5-0.9,1.4-0.9h1.1v1
			C374.9,66.5,374.3,66.9,373.5,66.9z M385.4,68.2c1.4,0,2.4-0.6,2.9-1.9l-1.4-0.7c-0.3,0.7-0.7,1.1-1.5,1.1c-1,0-1.5-0.7-1.5-1.7
			v-1.3c0-1,0.5-1.7,1.5-1.7c0.8,0,1.2,0.4,1.4,1.1l1.5-0.7c-0.4-1.1-1.4-1.8-2.9-1.8c-2.2,0-3.4,1.5-3.4,3.8
			C382,66.7,383.2,68.2,385.4,68.2z M392.7,68.2c1.4,0,2.4-0.5,3-1.3l-1-1.1c-0.4,0.6-1,1-1.9,1c-1.2,0-1.8-0.7-1.8-1.8v-0.2h4.9
			v-0.6c0-2-1-3.7-3.3-3.7c-2.1,0-3.4,1.5-3.4,3.8C389.3,66.7,390.6,68.2,392.7,68.2z M392.7,61.9c0.9,0,1.4,0.7,1.4,1.7v0.1h-3
			v-0.1C391.2,62.6,391.8,61.9,392.7,61.9z M399.5,68v-4.8c0-0.8,0.7-1.2,1.5-1.2c0.9,0,1.2,0.5,1.2,1.6V68h1.8v-4.6
			c0-1.8-0.8-2.9-2.3-2.9c-1.1,0-1.8,0.6-2,1.4h-0.1v-1.2h-1.8V68H399.5z M408.4,68h1.3v-1.4h-1.4v-4.5h1.5v-1.4h-1.5v-2h-1.6v1.2
			c0,0.5-0.2,0.8-0.7,0.8h-0.6v1.4h1.1v4C406.5,67.3,407.2,68,408.4,68z M414.4,68.2c1.4,0,2.4-0.5,3-1.3l-1-1.1c-0.4,0.6-1,1-1.9,1
			c-1.2,0-1.8-0.7-1.8-1.8v-0.2h4.9v-0.6c0-2-1-3.7-3.3-3.7c-2.1,0-3.4,1.5-3.4,3.8C411,66.7,412.3,68.2,414.4,68.2z M414.4,61.9
			c0.9,0,1.4,0.7,1.4,1.7v0.1h-3v-0.1C412.9,62.6,413.5,61.9,414.4,61.9z M421.2,68v-4.5c0-0.8,0.6-1.1,1.8-1.1h0.6v-1.7h-0.4
			c-1.2,0-1.8,0.7-1.9,1.5h-0.1v-1.5h-1.8V68H421.2z M436.7,68l-3.2-9.8h-2.3l-3.3,9.8h1.9l0.8-2.5h3.5l0.8,2.5H436.7z M433.5,63.9
			h-2.6l1.2-4h0.1L433.5,63.9z"/>
		<path d="M257.2,81.6c0,2.7,1.1,5.1,2.5,6.3h1.1c-1.5-1.3-2.5-3.7-2.5-5.7V81c0-2,1-4.3,2.5-5.7h-1.1
			C258.3,76.6,257.2,78.9,257.2,81.6z M265.6,86.2c1.6,0,2.8-0.9,3.4-2.2l-0.9-0.6c-0.4,1.1-1.2,1.8-2.5,1.8c-1.7,0-2.7-1.2-2.7-3.2
			v-1.5c0-2,1-3.3,2.7-3.3c1.2,0,2,0.7,2.4,1.7l1-0.6c-0.6-1.4-1.7-2.1-3.4-2.1c-2.5,0-3.9,1.8-3.9,5.1S263.1,86.2,265.6,86.2z
			 M275.3,86h1.1v-7.2h-1.1v5c0,1-0.9,1.4-1.8,1.4c-1.1,0-1.7-0.7-1.7-1.9v-4.4h-1.1v4.6c0,1.8,1,2.8,2.4,2.8c1.2,0,1.8-0.7,2-1.3
			h0.1V86z M281.2,86.2c1.7,0,2.7-0.9,2.7-2.3c0-1.1-0.6-1.8-2.2-2l-0.6-0.1c-0.9-0.1-1.4-0.4-1.4-1.1c0-0.7,0.5-1.1,1.4-1.1
			s1.5,0.4,1.9,0.9l0.7-0.7c-0.6-0.7-1.4-1.2-2.5-1.2c-1.5,0-2.6,0.7-2.6,2.1c0,1.3,1,1.9,2.3,2.1l0.6,0.1c1,0.1,1.3,0.6,1.3,1.1
			c0,0.7-0.6,1.2-1.5,1.2c-0.9,0-1.6-0.4-2.1-1.1l-0.8,0.6C279,85.6,279.9,86.2,281.2,86.2z M288.9,86v-1h-1.5v-5.3h1.6v-1h-1.6v-2
			h-1v1.3c0,0.5-0.2,0.7-0.6,0.7h-0.7v1h1.2v5.1c0,0.7,0.4,1.2,1.2,1.2H288.9z M293.6,86.2c1.9,0,3.3-1.5,3.3-3.8s-1.3-3.8-3.3-3.8
			s-3.3,1.5-3.3,3.8S291.7,86.2,293.6,86.2z M293.6,85.2c-1.2,0-2.1-0.7-2.1-2.3v-1c0-1.5,0.9-2.3,2.1-2.3s2.1,0.7,2.1,2.3v1
			C295.7,84.4,294.8,85.2,293.6,85.2z M300,86v-5c0-0.9,0.8-1.4,1.7-1.4c1.1,0,1.6,0.7,1.6,1.9V86h1.1v-5c0-0.9,0.8-1.4,1.7-1.4
			c1.1,0,1.6,0.7,1.6,1.9V86h1.1v-4.6c0-1.8-0.9-2.8-2.4-2.8c-1.2,0-1.9,0.7-2.2,1.5h0c-0.4-1-1.3-1.5-2.2-1.5
			c-1.1,0-1.6,0.6-1.9,1.3H300v-1.2h-1.1V86H300z M314,86.2c1.4,0,2.4-0.7,2.9-1.7l-0.8-0.6c-0.4,0.8-1.1,1.2-2,1.2
			c-1.3,0-2.1-0.9-2.1-2.2v-0.3h5.2v-0.5c0-2-1.2-3.5-3.1-3.5c-2,0-3.2,1.5-3.2,3.8S312,86.2,314,86.2z M314,79.5
			c1.1,0,1.9,0.9,1.9,2.1v0.2h-4v-0.1C311.9,80.5,312.8,79.5,314,79.5z M320.3,86v-4.9c0-0.7,0.7-1.2,1.9-1.2h0.7v-1.1h-0.4
			c-1.2,0-1.8,0.6-2.1,1.3h-0.1v-1.3h-1.1V86H320.3z M327.6,82.3v-1.2h-3.7v1.2H327.6z M332.8,86.2c1.9,0,3.3-1.5,3.3-3.8
			s-1.3-3.8-3.3-3.8c-1.9,0-3.3,1.5-3.3,3.8S330.8,86.2,332.8,86.2z M332.8,85.2c-1.2,0-2.1-0.7-2.1-2.3v-1c0-1.5,0.9-2.3,2.1-2.3
			c1.2,0,2.1,0.7,2.1,2.3v1C334.8,84.4,334,85.2,332.8,85.2z M339.1,86h1.4l1-3.5l0.6-2.2h0l0.6,2.2l1,3.5h1.4l1.9-7.2h-1.1
			l-0.8,3.1l-0.7,3.2h0l-0.9-3.2l-0.9-3.1h-1l-0.9,3.1l-0.9,3.2h0l-0.8-3.2l-0.8-3.1h-1.1L339.1,86z M350,86v-5
			c0-0.9,0.9-1.4,1.8-1.4c1.1,0,1.6,0.7,1.6,1.9V86h1.1v-4.6c0-1.8-0.9-2.8-2.4-2.8c-1.1,0-1.7,0.5-2,1.3H350v-1.2h-1.1V86H350z
			 M359.7,86.2c1.4,0,2.4-0.7,2.9-1.7l-0.8-0.6c-0.4,0.8-1.1,1.2-2,1.2c-1.3,0-2.1-0.9-2.1-2.2v-0.3h5.2v-0.5c0-2-1.2-3.5-3.1-3.5
			c-2,0-3.2,1.5-3.2,3.8S357.8,86.2,359.7,86.2z M359.7,79.5c1.1,0,1.9,0.9,1.9,2.1v0.2h-4v-0.1C357.6,80.5,358.5,79.5,359.7,79.5z
			 M369.5,86h1.1V75.6h-1.1V80h-0.1c-0.4-0.9-1.1-1.3-2.1-1.3c-1.8,0-2.9,1.5-2.9,3.8s1.1,3.8,2.9,3.8c1,0,1.7-0.4,2.1-1.3h0.1V86z
			 M367.6,85.2c-1.3,0-2-0.9-2-2.2v-1.2c0-1.3,0.8-2.2,2-2.2c1,0,1.9,0.6,1.9,1.4v2.7C369.5,84.6,368.6,85.2,367.6,85.2z
			 M375.5,81.6c0-2.7-1.1-5.1-2.5-6.3h-1.1c1.6,1.4,2.5,3.7,2.5,5.7v1.2c0,2-1,4.3-2.5,5.7h1.1C374.3,86.7,375.5,84.4,375.5,81.6z"
			/>
	</g>
</g>
<rect x="240.5" y="48.5" class="st10" width="703" height="391"/>
<path class="st11" d="M256.5,112.5H920c4.1,0,7.5,3.4,7.5,7.5v296c0,4.1-3.4,7.5-7.5,7.5H264c-4.1,0-7.5-3.4-7.5-7.5V112.5z"/>
<g>
	<defs>
		<rect id="SVGID_00000041986345579344144560000000211716807576217995_" x="256" y="112" width="181" height="48"/>
	</defs>
	<clipPath id="SVGID_00000099648362309399104020000014829716130285635005_">
		<use xlink:href="#SVGID_00000041986345579344144560000000211716807576217995_"  style="overflow:visible;"/>
	</clipPath>
	<g style="clip-path:url(#SVGID_00000099648362309399104020000014829716130285635005_);">
		<line class="st9" x1="258" y1="112" x2="258" y2="160"/>
		<path d="M277.6,139.8c0.7,0,1.2-0.6,1.2-1.2s-0.6-1.2-1.2-1.2s-1.2,0.6-1.2,1.2S276.9,139.8,277.6,139.8z"/>
		<path d="M282,138.5c-1.4,0-2.5-1.1-2.5-2.5s1.1-2.5,2.5-2.5s2.5,1.1,2.5,2.5S283.4,138.5,282,138.5z M282,134.8
			c-0.7,0-1.2,0.6-1.2,1.2s0.6,1.2,1.2,1.2s1.2-0.6,1.2-1.2S282.7,134.8,282,134.8z"/>
		<path d="M286.4,134.8c0.7,0,1.2-0.6,1.2-1.2s-0.6-1.2-1.2-1.2s-1.2,0.6-1.2,1.2S285.7,134.8,286.4,134.8z"/>
		<path d="M282,145.4c-0.1,0-0.2,0-0.3-0.1l-7.5-4.4c-0.2-0.1-0.3-0.3-0.3-0.5v-8.8c0-0.2,0.1-0.4,0.3-0.5l7.5-4.4
			c0.2-0.1,0.4-0.1,0.6,0l7.5,4.4l-0.6,1.1L282,128l-6.9,4v8l6.9,4l6.9-4v-4.6h1.2v5c0,0.2-0.1,0.4-0.3,0.5l-7.5,4.4
			C282.2,145.3,282.1,145.4,282,145.4L282,145.4z"/>
		<path d="M312.2,141.2c2.3,0,3.7-1.3,3.7-3.1c0-1.6-0.9-2.5-2.9-2.8l-0.9-0.2c-0.9-0.2-1.4-0.5-1.4-1.2c0-0.7,0.5-1.1,1.6-1.1
			c1,0,1.7,0.4,2.2,1l1.3-1.2c-0.8-0.9-1.9-1.4-3.3-1.4c-2.2,0-3.5,1.1-3.5,2.9c0,1.6,1,2.5,2.9,2.8l0.9,0.1c1,0.2,1.3,0.6,1.3,1.2
			c0,0.8-0.6,1.4-1.7,1.4c-1,0-1.8-0.4-2.5-1.2l-1.2,1.2C309.4,140.5,310.5,141.2,312.2,141.2z M319.6,141.2c1.1,0,1.9-0.5,2.1-1.4
			h0.1c0.1,0.8,0.6,1.3,1.4,1.3h1v-1.4h-0.7v-3.4c0-1.7-1.1-2.6-3-2.6c-1.5,0-2.3,0.6-2.9,1.4l1.1,1c0.4-0.5,0.8-0.9,1.7-0.9
			c1,0,1.4,0.5,1.4,1.3v0.5h-1.2c-2,0-3.1,0.7-3.1,2.2C317.2,140.3,318.1,141.2,319.6,141.2z M320.2,139.9c-0.7,0-1.1-0.3-1.1-0.9
			v-0.2c0-0.6,0.5-0.9,1.4-0.9h1.1v1C321.6,139.5,321,139.9,320.2,139.9z M328,141h1.3v-1.4h-1.4v-4.5h1.5v-1.4h-1.5v-2h-1.6v1.2
			c0,0.5-0.2,0.8-0.7,0.8H325v1.4h1.1v4C326.1,140.3,326.7,141,328,141z M334,141.2c1.4,0,2.4-0.5,3-1.3l-1-1.1c-0.4,0.6-1,1-1.9,1
			c-1.2,0-1.8-0.7-1.8-1.8v-0.2h4.9v-0.6c0-2-1.1-3.7-3.3-3.7c-2.1,0-3.4,1.5-3.4,3.8C330.5,139.7,331.8,141.2,334,141.2z
			 M333.9,134.9c0.9,0,1.4,0.7,1.4,1.7v0.1h-3v-0.1C332.4,135.6,333,134.9,333.9,134.9z M341.7,141v-1.4h-1v-8.9H339v8.6
			c0,1.1,0.6,1.8,1.8,1.8H341.7z M345.9,141v-1.4h-1v-8.9h-1.8v8.6c0,1.1,0.6,1.8,1.8,1.8H345.9z M348.3,132.6
			c0.7,0,1.1-0.4,1.1-0.9v-0.3c0-0.5-0.3-0.9-1.1-0.9c-0.7,0-1,0.4-1,0.9v0.3C347.3,132.2,347.6,132.6,348.3,132.6z M347.4,141h1.8
			v-7.3h-1.8V141z M353.8,141h1.3v-1.4h-1.4v-4.5h1.5v-1.4h-1.5v-2H352v1.2c0,0.5-0.2,0.8-0.7,0.8h-0.6v1.4h1.1v4
			C351.9,140.3,352.5,141,353.8,141z M359.8,141.2c1.4,0,2.4-0.5,3-1.3l-1-1.1c-0.4,0.6-1,1-1.9,1c-1.2,0-1.8-0.7-1.8-1.8v-0.2h4.9
			v-0.6c0-2-1.1-3.7-3.3-3.7c-2.1,0-3.4,1.5-3.4,3.8C356.3,139.7,357.6,141.2,359.8,141.2z M359.7,134.9c0.9,0,1.4,0.7,1.4,1.7v0.1
			h-3v-0.1C358.2,135.6,358.8,134.9,359.7,134.9z M371,141v-1.4h-1v-8.9h-1.8v8.6c0,1.1,0.6,1.8,1.8,1.8H371z M375.4,141.2
			c2.1,0,3.4-1.5,3.4-3.8c0-2.3-1.3-3.8-3.4-3.8c-2.1,0-3.4,1.5-3.4,3.8C372,139.7,373.3,141.2,375.4,141.2z M375.4,139.7
			c-0.9,0-1.5-0.6-1.5-1.7v-1.4c0-1.1,0.6-1.7,1.5-1.7c0.9,0,1.5,0.6,1.5,1.7v1.4C376.9,139.1,376.4,139.7,375.4,139.7z
			 M383.5,141.2c1.4,0,2.4-0.6,2.9-1.9l-1.4-0.7c-0.3,0.7-0.7,1.1-1.5,1.1c-1,0-1.5-0.7-1.5-1.7v-1.3c0-1,0.5-1.7,1.5-1.7
			c0.8,0,1.2,0.4,1.4,1.1l1.5-0.7c-0.4-1.1-1.4-1.8-2.9-1.8c-2.2,0-3.4,1.5-3.4,3.8C380.1,139.7,381.3,141.2,383.5,141.2z
			 M389.7,141.2c1.1,0,1.9-0.5,2.1-1.4h0.1c0.1,0.8,0.6,1.3,1.4,1.3h1v-1.4h-0.7v-3.4c0-1.7-1.1-2.6-3-2.6c-1.5,0-2.3,0.6-2.9,1.4
			l1.1,1c0.4-0.5,0.8-0.9,1.7-0.9c1,0,1.4,0.5,1.4,1.3v0.5h-1.2c-2,0-3.1,0.7-3.1,2.2C387.4,140.3,388.2,141.2,389.7,141.2z
			 M390.3,139.9c-0.7,0-1.1-0.3-1.1-0.9v-0.2c0-0.6,0.5-0.9,1.4-0.9h1.1v1C391.8,139.5,391.1,139.9,390.3,139.9z M398.1,141h1.3
			v-1.4H398v-4.5h1.5v-1.4H398v-2h-1.6v1.2c0,0.5-0.2,0.8-0.7,0.8h-0.6v1.4h1.1v4C396.2,140.3,396.9,141,398.1,141z M402.1,132.6
			c0.7,0,1-0.4,1-0.9v-0.3c0-0.5-0.3-0.9-1-0.9c-0.7,0-1,0.4-1,0.9v0.3C401.1,132.2,401.4,132.6,402.1,132.6z M401.2,141h1.8v-7.3
			h-1.8V141z M408.2,141.2c2.1,0,3.4-1.5,3.4-3.8c0-2.3-1.3-3.8-3.4-3.8c-2.1,0-3.4,1.5-3.4,3.8
			C404.8,139.7,406.1,141.2,408.2,141.2z M408.2,139.7c-0.9,0-1.5-0.6-1.5-1.7v-1.4c0-1.1,0.6-1.7,1.5-1.7c0.9,0,1.5,0.6,1.5,1.7
			v1.4C409.7,139.1,409.1,139.7,408.2,139.7z M415.1,141v-4.8c0-0.8,0.7-1.2,1.5-1.2c0.9,0,1.2,0.5,1.2,1.6v4.4h1.8v-4.6
			c0-1.8-0.8-2.9-2.3-2.9c-1.1,0-1.8,0.6-2,1.4h-0.1v-1.2h-1.8v7.3H415.1z"/>
	</g>
</g>
<path class="st10" d="M256.5,112.5H920c4.1,0,7.5,3.4,7.5,7.5v296c0,4.1-3.4,7.5-7.5,7.5H264c-4.1,0-7.5-3.4-7.5-7.5V112.5z"/>
<rect x="328" y="280" class="st13" width="48" height="48"/>
<path class="st1" d="M352,298.4c-0.4,0-0.7-0.1-1-0.3c-0.3-0.2-0.5-0.5-0.7-0.8c-0.1-0.3-0.2-0.7-0.1-1.1c0.1-0.4,0.3-0.7,0.5-1
	c0.3-0.3,0.6-0.4,1-0.5c0.4-0.1,0.7,0,1.1,0.1c0.3,0.1,0.6,0.4,0.8,0.7c0.2,0.3,0.3,0.7,0.3,1c0,0.5-0.2,1-0.5,1.3
	C353,298.2,352.5,298.4,352,298.4z M352,295.9c-0.1,0-0.2,0-0.3,0.1c-0.1,0.1-0.2,0.2-0.2,0.3c0,0.1-0.1,0.2,0,0.4
	c0,0.1,0.1,0.2,0.2,0.3c0.1,0.1,0.2,0.1,0.3,0.2c0.1,0,0.2,0,0.4,0c0.1,0,0.2-0.1,0.3-0.2c0.1-0.1,0.1-0.2,0.1-0.3
	c0-0.2-0.1-0.3-0.2-0.4C352.3,295.9,352.2,295.9,352,295.9z"/>
<path class="st1" d="M348.9,312.8c-0.4,0-0.7-0.1-1-0.3c-0.3-0.2-0.5-0.5-0.7-0.8c-0.1-0.3-0.2-0.7-0.1-1.1c0.1-0.4,0.3-0.7,0.5-1
	c0.3-0.3,0.6-0.4,1-0.5c0.4-0.1,0.7,0,1.1,0.1c0.3,0.1,0.6,0.4,0.8,0.7c0.2,0.3,0.3,0.7,0.3,1c0,0.5-0.2,1-0.5,1.3
	C349.8,312.6,349.4,312.7,348.9,312.8z M348.9,310.2c-0.1,0-0.2,0-0.3,0.1c-0.1,0.1-0.2,0.2-0.2,0.3c0,0.1-0.1,0.2,0,0.4
	c0,0.1,0.1,0.2,0.2,0.3c0.1,0.1,0.2,0.1,0.3,0.2c0.1,0,0.2,0,0.4,0c0.1,0,0.2-0.1,0.3-0.2c0.1-0.1,0.1-0.2,0.1-0.3
	c0-0.2-0.1-0.3-0.2-0.4C349.2,310.3,349,310.2,348.9,310.2z"/>
<path class="st1" d="M346.4,300.9c-0.4,0-0.7-0.1-1-0.3c-0.3-0.2-0.5-0.5-0.7-0.8c-0.1-0.3-0.2-0.7-0.1-1.1c0.1-0.4,0.3-0.7,0.5-1
	c0.3-0.3,0.6-0.4,1-0.5c0.4-0.1,0.7,0,1.1,0.1c0.3,0.1,0.6,0.4,0.8,0.7c0.2,0.3,0.3,0.7,0.3,1c0,0.5-0.2,1-0.5,1.3
	C347.3,300.7,346.9,300.9,346.4,300.9z M346.4,298.4c-0.1,0-0.2,0-0.3,0.1c-0.1,0.1-0.2,0.2-0.2,0.3c0,0.1-0.1,0.2,0,0.4
	c0,0.1,0.1,0.2,0.2,0.3c0.1,0.1,0.2,0.1,0.3,0.2c0.1,0,0.2,0,0.4,0c0.1,0,0.2-0.1,0.3-0.2c0.1-0.1,0.1-0.2,0.1-0.3
	c0-0.2-0.1-0.3-0.2-0.4C346.7,298.4,346.5,298.4,346.4,298.4z"/>
<path class="st1" d="M355.1,312.8c-0.4,0-0.7-0.1-1-0.3c-0.3-0.2-0.5-0.5-0.7-0.8c-0.1-0.3-0.2-0.7-0.1-1.1c0.1-0.4,0.3-0.7,0.5-1
	c0.3-0.3,0.6-0.4,1-0.5c0.4-0.1,0.7,0,1.1,0.1c0.3,0.1,0.6,0.4,0.8,0.7c0.2,0.3,0.3,0.7,0.3,1c0,0.5-0.2,1-0.5,1.3
	C356.1,312.6,355.6,312.7,355.1,312.8z M355.1,310.2c-0.1,0-0.2,0-0.3,0.1c-0.1,0.1-0.2,0.2-0.2,0.3c0,0.1-0.1,0.2,0,0.4
	c0,0.1,0.1,0.2,0.2,0.3c0.1,0.1,0.2,0.1,0.3,0.2c0.1,0,0.2,0,0.4,0c0.1,0,0.2-0.1,0.3-0.2c0.1-0.1,0.1-0.2,0.1-0.3
	c0-0.2-0.1-0.3-0.2-0.4C355.5,310.3,355.3,310.2,355.1,310.2z"/>
<path class="st1" d="M357.6,300.9c-0.4,0-0.7-0.1-1-0.3c-0.3-0.2-0.5-0.5-0.7-0.8c-0.1-0.3-0.2-0.7-0.1-1.1c0.1-0.4,0.3-0.7,0.5-1
	c0.3-0.3,0.6-0.4,1-0.5c0.4-0.1,0.7,0,1.1,0.1c0.3,0.1,0.6,0.4,0.8,0.7c0.2,0.3,0.3,0.7,0.3,1c0,0.5-0.2,1-0.5,1.3
	C358.6,300.7,358.1,300.9,357.6,300.9z M357.6,298.4c-0.1,0-0.2,0-0.3,0.1c-0.1,0.1-0.2,0.2-0.2,0.3c0,0.1-0.1,0.2,0,0.4
	c0,0.1,0.1,0.2,0.2,0.3c0.1,0.1,0.2,0.1,0.3,0.2c0.1,0,0.2,0,0.4,0c0.1,0,0.2-0.1,0.3-0.2c0.1-0.1,0.1-0.2,0.1-0.3
	c0-0.2-0.1-0.3-0.2-0.4C358,298.4,357.8,298.4,357.6,298.4z"/>
<path class="st1" d="M344.5,307.1c-0.4,0-0.7-0.1-1-0.3c-0.3-0.2-0.5-0.5-0.7-0.8c-0.1-0.3-0.2-0.7-0.1-1.1c0.1-0.4,0.3-0.7,0.5-1
	c0.3-0.3,0.6-0.4,1-0.5c0.4-0.1,0.7,0,1.1,0.1c0.3,0.1,0.6,0.4,0.8,0.7c0.2,0.3,0.3,0.7,0.3,1c0,0.5-0.2,1-0.5,1.3
	C345.5,306.9,345,307.1,344.5,307.1z M344.5,304.6c-0.1,0-0.2,0-0.3,0.1c-0.1,0.1-0.2,0.2-0.2,0.3c0,0.1-0.1,0.2,0,0.4
	c0,0.1,0.1,0.2,0.2,0.3c0.1,0.1,0.2,0.1,0.3,0.2c0.1,0,0.2,0,0.4,0c0.1,0,0.2-0.1,0.3-0.2c0.1-0.1,0.1-0.2,0.1-0.3
	c0-0.2-0.1-0.3-0.2-0.4C344.8,304.7,344.7,304.6,344.5,304.6z"/>
<path class="st1" d="M359.5,307.1c-0.4,0-0.7-0.1-1-0.3c-0.3-0.2-0.5-0.5-0.7-0.8c-0.1-0.3-0.2-0.7-0.1-1.1c0.1-0.4,0.3-0.7,0.5-1
	c0.3-0.3,0.6-0.4,1-0.5c0.4-0.1,0.7,0,1.1,0.1c0.3,0.1,0.6,0.4,0.8,0.7c0.2,0.3,0.3,0.7,0.3,1c0,0.5-0.2,1-0.5,1.3
	C360.5,306.9,360,307.1,359.5,307.1z M359.5,304.6c-0.1,0-0.2,0-0.3,0.1c-0.1,0.1-0.2,0.2-0.2,0.3c0,0.1-0.1,0.2,0,0.4
	c0,0.1,0.1,0.2,0.2,0.3c0.1,0.1,0.2,0.1,0.3,0.2c0.1,0,0.2,0,0.4,0c0.1,0,0.2-0.1,0.3-0.2c0.1-0.1,0.1-0.2,0.1-0.3
	c0-0.2-0.1-0.3-0.2-0.4C359.8,304.7,359.7,304.6,359.5,304.6z"/>
<path class="st1" d="M352,307.8c-0.7,0-1.5-0.2-2.1-0.6c-0.6-0.4-1.1-1-1.4-1.7c-0.3-0.7-0.4-1.4-0.2-2.2c0.1-0.7,0.5-1.4,1-1.9
	c0.5-0.5,1.2-0.9,1.9-1c0.7-0.1,1.5-0.1,2.2,0.2c0.7,0.3,1.3,0.8,1.7,1.4c0.4,0.6,0.6,1.3,0.6,2.1c0,1-0.4,1.9-1.1,2.6
	S353,307.7,352,307.8z M352,301.5c-0.5,0-1,0.1-1.4,0.4c-0.4,0.3-0.7,0.7-0.9,1.1c-0.2,0.5-0.2,1-0.1,1.4c0.1,0.5,0.3,0.9,0.7,1.3
	c0.4,0.3,0.8,0.6,1.3,0.7c0.5,0.1,1,0,1.4-0.1c0.5-0.2,0.8-0.5,1.1-0.9c0.3-0.4,0.4-0.9,0.4-1.4c0-0.7-0.3-1.3-0.7-1.8
	S352.7,301.5,352,301.5z"/>
<path d="M327.1,350.2c1.8,0,2.9-0.9,3.6-2.3l-1.5-0.9c-0.3,0.9-1,1.6-2.1,1.6c-1.4,0-2.3-1-2.3-2.6v-1.5c0-1.7,0.9-2.7,2.3-2.7
	c1.1,0,1.7,0.6,2,1.5l1.6-0.8c-0.7-1.5-1.8-2.3-3.6-2.3c-2.6,0-4.2,1.8-4.2,5.1C322.9,348.5,324.5,350.2,327.1,350.2z M335.1,350
	v-1.4h-1v-8.9h-1.8v8.6c0,1.1,0.6,1.8,1.8,1.8H335.1z M341,350h1.8v-7.3H341v4.8c0,0.8-0.7,1.2-1.4,1.2c-0.9,0-1.2-0.5-1.2-1.6v-4.4
	h-1.8v4.6c0,1.8,0.8,2.9,2.3,2.9c1.2,0,1.8-0.7,2-1.4h0.1V350z M347.4,350.2c1.8,0,3-1,3-2.4c0-1.2-0.8-1.9-2.4-2.2l-0.7-0.1
	c-0.7-0.1-1-0.3-1-0.8c0-0.4,0.3-0.8,1.1-0.8c0.7,0,1.3,0.3,1.8,0.8l1-1c-0.7-0.7-1.4-1.1-2.9-1.1c-1.7,0-2.8,0.9-2.8,2.3
	c0,1.3,0.9,2,2.4,2.2l0.7,0.1c0.6,0.1,0.9,0.3,0.9,0.8c0,0.5-0.4,0.8-1.2,0.8c-0.8,0-1.5-0.4-2-1l-1.1,1.1
	C345.1,349.7,346,350.2,347.4,350.2z M354.3,350h1.3v-1.4h-1.4v-4.5h1.5v-1.4h-1.5v-2h-1.6v1.2c0,0.5-0.2,0.8-0.7,0.8h-0.6v1.4h1.1
	v4C352.4,349.3,353.1,350,354.3,350z M360.3,350.2c1.4,0,2.4-0.5,3-1.3l-1-1.1c-0.4,0.6-1,1-1.9,1c-1.2,0-1.8-0.7-1.8-1.8v-0.2h4.9
	v-0.6c0-2-1-3.7-3.3-3.7c-2.1,0-3.4,1.5-3.4,3.8C356.9,348.7,358.2,350.2,360.3,350.2z M360.3,343.9c0.9,0,1.4,0.7,1.4,1.7v0.1h-3
	v-0.1C358.8,344.6,359.4,343.9,360.3,343.9z M367.1,350v-4.5c0-0.8,0.6-1.1,1.8-1.1h0.6v-1.7h-0.4c-1.2,0-1.8,0.7-1.9,1.5h-0.1v-1.5
	h-1.8v7.3H367.1z M381.5,350v-1.5h-2.2v-8.3h-2.8l-2.4,2.9l1.1,1l2.1-2.5h0.1v6.9h-2.7v1.5H381.5z"/>
<rect x="488" y="280" class="st13" width="48" height="48"/>
<path class="st1" d="M512,298.4c-0.4,0-0.7-0.1-1-0.3c-0.3-0.2-0.5-0.5-0.7-0.8c-0.1-0.3-0.2-0.7-0.1-1.1c0.1-0.4,0.3-0.7,0.5-1
	c0.3-0.3,0.6-0.4,1-0.5c0.4-0.1,0.7,0,1.1,0.1c0.3,0.1,0.6,0.4,0.8,0.7c0.2,0.3,0.3,0.7,0.3,1c0,0.5-0.2,1-0.5,1.3
	C513,298.2,512.5,298.4,512,298.4z M512,295.9c-0.1,0-0.2,0-0.3,0.1c-0.1,0.1-0.2,0.2-0.2,0.3c0,0.1-0.1,0.2,0,0.4
	c0,0.1,0.1,0.2,0.2,0.3c0.1,0.1,0.2,0.1,0.3,0.2c0.1,0,0.2,0,0.4,0c0.1,0,0.2-0.1,0.3-0.2c0.1-0.1,0.1-0.2,0.1-0.3
	c0-0.2-0.1-0.3-0.2-0.4C512.3,295.9,512.2,295.9,512,295.9z"/>
<path class="st1" d="M508.9,312.8c-0.4,0-0.7-0.1-1-0.3c-0.3-0.2-0.5-0.5-0.7-0.8c-0.1-0.3-0.2-0.7-0.1-1.1c0.1-0.4,0.3-0.7,0.5-1
	c0.3-0.3,0.6-0.4,1-0.5c0.4-0.1,0.7,0,1.1,0.1c0.3,0.1,0.6,0.4,0.8,0.7c0.2,0.3,0.3,0.7,0.3,1c0,0.5-0.2,1-0.5,1.3
	C509.8,312.6,509.4,312.7,508.9,312.8z M508.9,310.2c-0.1,0-0.2,0-0.3,0.1c-0.1,0.1-0.2,0.2-0.2,0.3c0,0.1-0.1,0.2,0,0.4
	c0,0.1,0.1,0.2,0.2,0.3c0.1,0.1,0.2,0.1,0.3,0.2c0.1,0,0.2,0,0.4,0c0.1,0,0.2-0.1,0.3-0.2c0.1-0.1,0.1-0.2,0.1-0.3
	c0-0.2-0.1-0.3-0.2-0.4C509.2,310.3,509,310.2,508.9,310.2z"/>
<path class="st1" d="M506.4,300.9c-0.4,0-0.7-0.1-1-0.3c-0.3-0.2-0.5-0.5-0.7-0.8c-0.1-0.3-0.2-0.7-0.1-1.1c0.1-0.4,0.3-0.7,0.5-1
	c0.3-0.3,0.6-0.4,1-0.5c0.4-0.1,0.7,0,1.1,0.1c0.3,0.1,0.6,0.4,0.8,0.7c0.2,0.3,0.3,0.7,0.3,1c0,0.5-0.2,1-0.5,1.3
	C507.3,300.7,506.9,300.9,506.4,300.9z M506.4,298.4c-0.1,0-0.2,0-0.3,0.1c-0.1,0.1-0.2,0.2-0.2,0.3c0,0.1-0.1,0.2,0,0.4
	c0,0.1,0.1,0.2,0.2,0.3c0.1,0.1,0.2,0.1,0.3,0.2c0.1,0,0.2,0,0.4,0c0.1,0,0.2-0.1,0.3-0.2c0.1-0.1,0.1-0.2,0.1-0.3
	c0-0.2-0.1-0.3-0.2-0.4C506.7,298.4,506.5,298.4,506.4,298.4z"/>
<path class="st1" d="M515.1,312.8c-0.4,0-0.7-0.1-1-0.3c-0.3-0.2-0.5-0.5-0.7-0.8c-0.1-0.3-0.2-0.7-0.1-1.1c0.1-0.4,0.3-0.7,0.5-1
	c0.3-0.3,0.6-0.4,1-0.5c0.4-0.1,0.7,0,1.1,0.1c0.3,0.1,0.6,0.4,0.8,0.7c0.2,0.3,0.3,0.7,0.3,1c0,0.5-0.2,1-0.5,1.3
	C516.1,312.6,515.6,312.7,515.1,312.8z M515.1,310.2c-0.1,0-0.2,0-0.3,0.1c-0.1,0.1-0.2,0.2-0.2,0.3c0,0.1-0.1,0.2,0,0.4
	c0,0.1,0.1,0.2,0.2,0.3c0.1,0.1,0.2,0.1,0.3,0.2c0.1,0,0.2,0,0.4,0c0.1,0,0.2-0.1,0.3-0.2c0.1-0.1,0.1-0.2,0.1-0.3
	c0-0.2-0.1-0.3-0.2-0.4C515.5,310.3,515.3,310.2,515.1,310.2z"/>
<path class="st1" d="M517.6,300.9c-0.4,0-0.7-0.1-1-0.3c-0.3-0.2-0.5-0.5-0.7-0.8c-0.1-0.3-0.2-0.7-0.1-1.1c0.1-0.4,0.3-0.7,0.5-1
	c0.3-0.3,0.6-0.4,1-0.5c0.4-0.1,0.7,0,1.1,0.1c0.3,0.1,0.6,0.4,0.8,0.7c0.2,0.3,0.3,0.7,0.3,1c0,0.5-0.2,1-0.5,1.3
	C518.6,300.7,518.1,300.9,517.6,300.9z M517.6,298.4c-0.1,0-0.2,0-0.3,0.1c-0.1,0.1-0.2,0.2-0.2,0.3c0,0.1-0.1,0.2,0,0.4
	c0,0.1,0.1,0.2,0.2,0.3c0.1,0.1,0.2,0.1,0.3,0.2c0.1,0,0.2,0,0.4,0c0.1,0,0.2-0.1,0.3-0.2c0.1-0.1,0.1-0.2,0.1-0.3
	c0-0.2-0.1-0.3-0.2-0.4C518,298.4,517.8,298.4,517.6,298.4z"/>
<path class="st1" d="M504.5,307.1c-0.4,0-0.7-0.1-1-0.3c-0.3-0.2-0.5-0.5-0.7-0.8c-0.1-0.3-0.2-0.7-0.1-1.1c0.1-0.4,0.3-0.7,0.5-1
	c0.3-0.3,0.6-0.4,1-0.5c0.4-0.1,0.7,0,1.1,0.1c0.3,0.1,0.6,0.4,0.8,0.7c0.2,0.3,0.3,0.7,0.3,1c0,0.5-0.2,1-0.5,1.3
	C505.5,306.9,505,307.1,504.5,307.1z M504.5,304.6c-0.1,0-0.2,0-0.3,0.1c-0.1,0.1-0.2,0.2-0.2,0.3c0,0.1-0.1,0.2,0,0.4
	c0,0.1,0.1,0.2,0.2,0.3c0.1,0.1,0.2,0.1,0.3,0.2c0.1,0,0.2,0,0.4,0c0.1,0,0.2-0.1,0.3-0.2c0.1-0.1,0.1-0.2,0.1-0.3
	c0-0.2-0.1-0.3-0.2-0.4C504.8,304.7,504.7,304.6,504.5,304.6z"/>
<path class="st1" d="M519.5,307.1c-0.4,0-0.7-0.1-1-0.3c-0.3-0.2-0.5-0.5-0.7-0.8c-0.1-0.3-0.2-0.7-0.1-1.1c0.1-0.4,0.3-0.7,0.5-1
	c0.3-0.3,0.6-0.4,1-0.5c0.4-0.1,0.7,0,1.1,0.1c0.3,0.1,0.6,0.4,0.8,0.7c0.2,0.3,0.3,0.7,0.3,1c0,0.5-0.2,1-0.5,1.3
	C520.5,306.9,520,307.1,519.5,307.1z M519.5,304.6c-0.1,0-0.2,0-0.3,0.1c-0.1,0.1-0.2,0.2-0.2,0.3c0,0.1-0.1,0.2,0,0.4
	c0,0.1,0.1,0.2,0.2,0.3c0.1,0.1,0.2,0.1,0.3,0.2c0.1,0,0.2,0,0.4,0c0.1,0,0.2-0.1,0.3-0.2c0.1-0.1,0.1-0.2,0.1-0.3
	c0-0.2-0.1-0.3-0.2-0.4C519.8,304.7,519.7,304.6,519.5,304.6z"/>
<path class="st1" d="M512,307.8c-0.7,0-1.5-0.2-2.1-0.6c-0.6-0.4-1.1-1-1.4-1.7c-0.3-0.7-0.4-1.4-0.2-2.2c0.1-0.7,0.5-1.4,1-1.9
	c0.5-0.5,1.2-0.9,1.9-1c0.7-0.1,1.5-0.1,2.2,0.2c0.7,0.3,1.3,0.8,1.7,1.4c0.4,0.6,0.6,1.3,0.6,2.1c0,1-0.4,1.9-1.1,2.6
	S513,307.7,512,307.8z M512,301.5c-0.5,0-1,0.1-1.4,0.4c-0.4,0.3-0.7,0.7-0.9,1.1c-0.2,0.5-0.2,1-0.1,1.4c0.1,0.5,0.3,0.9,0.7,1.3
	c0.4,0.3,0.8,0.6,1.3,0.7c0.5,0.1,1,0,1.4-0.1c0.5-0.2,0.8-0.5,1.1-0.9c0.3-0.4,0.4-0.9,0.4-1.4c0-0.7-0.3-1.3-0.7-1.8
	C513.3,301.8,512.7,301.5,512,301.5z"/>
<path d="M487.1,350.2c1.8,0,2.9-0.9,3.6-2.3l-1.5-0.9c-0.3,0.9-1,1.6-2.1,1.6c-1.4,0-2.3-1-2.3-2.6v-1.5c0-1.7,0.9-2.7,2.3-2.7
	c1.1,0,1.7,0.6,2,1.5l1.6-0.8c-0.7-1.5-1.8-2.3-3.6-2.3c-2.6,0-4.2,1.8-4.2,5.1C482.9,348.5,484.5,350.2,487.1,350.2z M495.1,350
	v-1.4h-1v-8.9h-1.8v8.6c0,1.1,0.6,1.8,1.8,1.8H495.1z M501,350h1.8v-7.3H501v4.8c0,0.8-0.7,1.2-1.4,1.2c-0.9,0-1.2-0.5-1.2-1.6v-4.4
	h-1.8v4.6c0,1.8,0.8,2.9,2.3,2.9c1.2,0,1.8-0.7,2-1.4h0.1V350z M507.4,350.2c1.8,0,3-1,3-2.4c0-1.2-0.8-1.9-2.4-2.2l-0.7-0.1
	c-0.7-0.1-1-0.3-1-0.8c0-0.4,0.3-0.8,1.1-0.8c0.7,0,1.3,0.3,1.8,0.8l1-1c-0.7-0.7-1.4-1.1-2.9-1.1c-1.7,0-2.8,0.9-2.8,2.3
	c0,1.3,0.9,2,2.4,2.2l0.7,0.1c0.6,0.1,0.9,0.3,0.9,0.8c0,0.5-0.4,0.8-1.2,0.8c-0.8,0-1.5-0.4-2-1l-1.1,1.1
	C505.1,349.7,506,350.2,507.4,350.2z M514.3,350h1.3v-1.4h-1.4v-4.5h1.5v-1.4h-1.5v-2h-1.6v1.2c0,0.5-0.2,0.8-0.7,0.8h-0.6v1.4h1.1
	v4C512.4,349.3,513.1,350,514.3,350z M520.3,350.2c1.4,0,2.4-0.5,3-1.3l-1-1.1c-0.4,0.6-1,1-1.9,1c-1.2,0-1.8-0.7-1.8-1.8v-0.2h4.9
	v-0.6c0-2-1.1-3.7-3.3-3.7c-2.1,0-3.4,1.5-3.4,3.8C516.9,348.7,518.2,350.2,520.3,350.2z M520.3,343.9c0.9,0,1.4,0.7,1.4,1.7v0.1h-3
	v-0.1C518.8,344.6,519.4,343.9,520.3,343.9z M527.1,350v-4.5c0-0.8,0.6-1.1,1.8-1.1h0.6v-1.7h-0.4c-1.2,0-1.8,0.7-1.9,1.5h-0.1v-1.5
	h-1.8v7.3H527.1z M541.1,348.4h-4.8l2.1-1.7c1.4-1.1,2.5-2.2,2.5-3.8c0-1.7-1.2-2.9-3.2-2.9c-2,0-3,1.1-3.5,2.4l1.6,0.6
	c0.2-0.8,0.7-1.5,1.7-1.5c0.8,0,1.4,0.5,1.4,1.3v0.2c0,0.9-0.5,1.5-1.5,2.4l-3.1,2.7v1.7h6.8V348.4z"/>
<rect x="648" y="280" class="st13" width="48" height="48"/>
<path class="st1" d="M672,298.4c-0.4,0-0.7-0.1-1-0.3c-0.3-0.2-0.5-0.5-0.7-0.8c-0.1-0.3-0.2-0.7-0.1-1.1c0.1-0.4,0.3-0.7,0.5-1
	c0.3-0.3,0.6-0.4,1-0.5c0.4-0.1,0.7,0,1.1,0.1c0.3,0.1,0.6,0.4,0.8,0.7c0.2,0.3,0.3,0.7,0.3,1c0,0.5-0.2,1-0.5,1.3
	C673,298.2,672.5,298.4,672,298.4z M672,295.9c-0.1,0-0.2,0-0.3,0.1c-0.1,0.1-0.2,0.2-0.2,0.3c0,0.1-0.1,0.2,0,0.4
	c0,0.1,0.1,0.2,0.2,0.3c0.1,0.1,0.2,0.1,0.3,0.2c0.1,0,0.2,0,0.4,0c0.1,0,0.2-0.1,0.3-0.2c0.1-0.1,0.1-0.2,0.1-0.3
	c0-0.2-0.1-0.3-0.2-0.4C672.3,295.9,672.2,295.9,672,295.9z"/>
<path class="st1" d="M668.9,312.8c-0.4,0-0.7-0.1-1-0.3c-0.3-0.2-0.5-0.5-0.7-0.8c-0.1-0.3-0.2-0.7-0.1-1.1c0.1-0.4,0.3-0.7,0.5-1
	c0.3-0.3,0.6-0.4,1-0.5c0.4-0.1,0.7,0,1.1,0.1c0.3,0.1,0.6,0.4,0.8,0.7c0.2,0.3,0.3,0.7,0.3,1c0,0.5-0.2,1-0.5,1.3
	C669.8,312.6,669.4,312.7,668.9,312.8z M668.9,310.2c-0.1,0-0.2,0-0.3,0.1c-0.1,0.1-0.2,0.2-0.2,0.3c0,0.1-0.1,0.2,0,0.4
	c0,0.1,0.1,0.2,0.2,0.3c0.1,0.1,0.2,0.1,0.3,0.2c0.1,0,0.2,0,0.4,0c0.1,0,0.2-0.1,0.3-0.2c0.1-0.1,0.1-0.2,0.1-0.3
	c0-0.2-0.1-0.3-0.2-0.4C669.2,310.3,669,310.2,668.9,310.2z"/>
<path class="st1" d="M666.4,300.9c-0.4,0-0.7-0.1-1-0.3c-0.3-0.2-0.5-0.5-0.7-0.8c-0.1-0.3-0.2-0.7-0.1-1.1c0.1-0.4,0.3-0.7,0.5-1
	c0.3-0.3,0.6-0.4,1-0.5c0.4-0.1,0.7,0,1.1,0.1c0.3,0.1,0.6,0.4,0.8,0.7c0.2,0.3,0.3,0.7,0.3,1c0,0.5-0.2,1-0.5,1.3
	C667.3,300.7,666.9,300.9,666.4,300.9z M666.4,298.4c-0.1,0-0.2,0-0.3,0.1c-0.1,0.1-0.2,0.2-0.2,0.3c0,0.1-0.1,0.2,0,0.4
	c0,0.1,0.1,0.2,0.2,0.3c0.1,0.1,0.2,0.1,0.3,0.2c0.1,0,0.2,0,0.4,0c0.1,0,0.2-0.1,0.3-0.2c0.1-0.1,0.1-0.2,0.1-0.3
	c0-0.2-0.1-0.3-0.2-0.4C666.7,298.4,666.5,298.4,666.4,298.4z"/>
<path class="st1" d="M675.1,312.8c-0.4,0-0.7-0.1-1-0.3c-0.3-0.2-0.5-0.5-0.7-0.8c-0.1-0.3-0.2-0.7-0.1-1.1c0.1-0.4,0.3-0.7,0.5-1
	c0.3-0.3,0.6-0.4,1-0.5c0.4-0.1,0.7,0,1.1,0.1c0.3,0.1,0.6,0.4,0.8,0.7c0.2,0.3,0.3,0.7,0.3,1c0,0.5-0.2,1-0.5,1.3
	C676.1,312.6,675.6,312.7,675.1,312.8z M675.1,310.2c-0.1,0-0.2,0-0.3,0.1c-0.1,0.1-0.2,0.2-0.2,0.3c0,0.1-0.1,0.2,0,0.4
	c0,0.1,0.1,0.2,0.2,0.3c0.1,0.1,0.2,0.1,0.3,0.2c0.1,0,0.2,0,0.4,0c0.1,0,0.2-0.1,0.3-0.2c0.1-0.1,0.1-0.2,0.1-0.3
	c0-0.2-0.1-0.3-0.2-0.4C675.5,310.3,675.3,310.2,675.1,310.2z"/>
<path class="st1" d="M677.6,300.9c-0.4,0-0.7-0.1-1-0.3c-0.3-0.2-0.5-0.5-0.7-0.8c-0.1-0.3-0.2-0.7-0.1-1.1c0.1-0.4,0.3-0.7,0.5-1
	c0.3-0.3,0.6-0.4,1-0.5c0.4-0.1,0.7,0,1.1,0.1c0.3,0.1,0.6,0.4,0.8,0.7c0.2,0.3,0.3,0.7,0.3,1c0,0.5-0.2,1-0.5,1.3
	C678.6,300.7,678.1,300.9,677.6,300.9z M677.6,298.4c-0.1,0-0.2,0-0.3,0.1c-0.1,0.1-0.2,0.2-0.2,0.3c0,0.1-0.1,0.2,0,0.4
	c0,0.1,0.1,0.2,0.2,0.3c0.1,0.1,0.2,0.1,0.3,0.2c0.1,0,0.2,0,0.4,0c0.1,0,0.2-0.1,0.3-0.2c0.1-0.1,0.1-0.2,0.1-0.3
	c0-0.2-0.1-0.3-0.2-0.4C678,298.4,677.8,298.4,677.6,298.4z"/>
<path class="st1" d="M664.5,307.1c-0.4,0-0.7-0.1-1-0.3c-0.3-0.2-0.5-0.5-0.7-0.8c-0.1-0.3-0.2-0.7-0.1-1.1c0.1-0.4,0.3-0.7,0.5-1
	c0.3-0.3,0.6-0.4,1-0.5c0.4-0.1,0.7,0,1.1,0.1c0.3,0.1,0.6,0.4,0.8,0.7c0.2,0.3,0.3,0.7,0.3,1c0,0.5-0.2,1-0.5,1.3
	C665.5,306.9,665,307.1,664.5,307.1z M664.5,304.6c-0.1,0-0.2,0-0.3,0.1c-0.1,0.1-0.2,0.2-0.2,0.3c0,0.1-0.1,0.2,0,0.4
	c0,0.1,0.1,0.2,0.2,0.3c0.1,0.1,0.2,0.1,0.3,0.2c0.1,0,0.2,0,0.4,0c0.1,0,0.2-0.1,0.3-0.2c0.1-0.1,0.1-0.2,0.1-0.3
	c0-0.2-0.1-0.3-0.2-0.4C664.8,304.7,664.7,304.6,664.5,304.6z"/>
<path class="st1" d="M679.5,307.1c-0.4,0-0.7-0.1-1-0.3c-0.3-0.2-0.5-0.5-0.7-0.8c-0.1-0.3-0.2-0.7-0.1-1.1c0.1-0.4,0.3-0.7,0.5-1
	c0.3-0.3,0.6-0.4,1-0.5c0.4-0.1,0.7,0,1.1,0.1c0.3,0.1,0.6,0.4,0.8,0.7c0.2,0.3,0.3,0.7,0.3,1c0,0.5-0.2,1-0.5,1.3
	C680.5,306.9,680,307.1,679.5,307.1z M679.5,304.6c-0.1,0-0.2,0-0.3,0.1c-0.1,0.1-0.2,0.2-0.2,0.3c0,0.1-0.1,0.2,0,0.4
	c0,0.1,0.1,0.2,0.2,0.3c0.1,0.1,0.2,0.1,0.3,0.2c0.1,0,0.2,0,0.4,0c0.1,0,0.2-0.1,0.3-0.2c0.1-0.1,0.1-0.2,0.1-0.3
	c0-0.2-0.1-0.3-0.2-0.4C679.8,304.7,679.7,304.6,679.5,304.6z"/>
<path class="st1" d="M672,307.8c-0.7,0-1.5-0.2-2.1-0.6c-0.6-0.4-1.1-1-1.4-1.7c-0.3-0.7-0.4-1.4-0.2-2.2c0.1-0.7,0.5-1.4,1-1.9
	c0.5-0.5,1.2-0.9,1.9-1c0.7-0.1,1.5-0.1,2.2,0.2c0.7,0.3,1.3,0.8,1.7,1.4c0.4,0.6,0.6,1.3,0.6,2.1c0,1-0.4,1.9-1.1,2.6
	S673,307.7,672,307.8z M672,301.5c-0.5,0-1,0.1-1.4,0.4c-0.4,0.3-0.7,0.7-0.9,1.1c-0.2,0.5-0.2,1-0.1,1.4c0.1,0.5,0.3,0.9,0.7,1.3
	c0.3,0.3,0.8,0.6,1.3,0.7c0.5,0.1,1,0,1.4-0.1c0.5-0.2,0.8-0.5,1.1-0.9c0.3-0.4,0.4-0.9,0.4-1.4c0-0.7-0.3-1.3-0.7-1.8
	C673.3,301.8,672.7,301.5,672,301.5z"/>
<path d="M647.1,350.2c1.8,0,2.9-0.9,3.6-2.3l-1.5-0.9c-0.3,0.9-1,1.6-2.1,1.6c-1.4,0-2.3-1-2.3-2.6v-1.5c0-1.7,0.9-2.7,2.3-2.7
	c1.1,0,1.7,0.6,2,1.5l1.6-0.8c-0.7-1.5-1.8-2.3-3.6-2.3c-2.6,0-4.2,1.8-4.2,5.1C642.9,348.5,644.5,350.2,647.1,350.2z M655.1,350
	v-1.4h-1v-8.9h-1.8v8.6c0,1.1,0.6,1.8,1.8,1.8H655.1z M661,350h1.8v-7.3H661v4.8c0,0.8-0.7,1.2-1.4,1.2c-0.9,0-1.2-0.5-1.2-1.6v-4.4
	h-1.8v4.6c0,1.8,0.8,2.9,2.3,2.9c1.2,0,1.8-0.7,2-1.4h0.1V350z M667.4,350.2c1.8,0,3-1,3-2.4c0-1.2-0.8-1.9-2.4-2.2l-0.7-0.1
	c-0.7-0.1-1-0.3-1-0.8c0-0.4,0.3-0.8,1.1-0.8c0.7,0,1.3,0.3,1.8,0.8l1-1c-0.7-0.7-1.4-1.1-2.9-1.1c-1.7,0-2.8,0.9-2.8,2.3
	c0,1.3,0.9,2,2.4,2.2l0.7,0.1c0.6,0.1,0.9,0.3,0.9,0.8c0,0.5-0.4,0.8-1.2,0.8c-0.8,0-1.5-0.4-2-1l-1.1,1.1
	C665.1,349.7,666,350.2,667.4,350.2z M674.3,350h1.3v-1.4h-1.4v-4.5h1.5v-1.4h-1.5v-2h-1.6v1.2c0,0.5-0.2,0.8-0.7,0.8h-0.6v1.4h1.1
	v4C672.4,349.3,673.1,350,674.3,350z M680.3,350.2c1.4,0,2.4-0.5,3-1.3l-1-1.1c-0.4,0.6-1,1-1.9,1c-1.2,0-1.8-0.7-1.8-1.8v-0.2h4.9
	v-0.6c0-2-1.1-3.7-3.3-3.7c-2.1,0-3.4,1.5-3.4,3.8C676.9,348.7,678.2,350.2,680.3,350.2z M680.3,343.9c0.9,0,1.4,0.7,1.4,1.7v0.1h-3
	v-0.1C678.8,344.6,679.4,343.9,680.3,343.9z M687.1,350v-4.5c0-0.8,0.6-1.1,1.8-1.1h0.6v-1.7h-0.4c-1.2,0-1.8,0.7-1.9,1.5h-0.1v-1.5
	h-1.8v7.3H687.1z M696.1,344.2v1.5h1c1.2,0,1.8,0.5,1.8,1.4v0.1c0,0.9-0.6,1.5-1.7,1.5c-1.1,0-1.7-0.6-2.1-1.3l-1.4,1
	c0.6,1,1.6,1.8,3.5,1.8c2.2,0,3.6-1.1,3.6-2.9c0-1.4-0.9-2.2-2-2.4v-0.1c1-0.2,1.9-1,1.9-2.2c0-1.6-1.3-2.5-3.3-2.5
	c-1.7,0-2.6,0.7-3.2,1.6l1.2,1.1c0.5-0.7,1.1-1.2,2-1.2c0.9,0,1.4,0.5,1.4,1.3v0.1c0,0.7-0.5,1.2-1.6,1.2H696.1z"/>
<rect x="808.5" y="280.5" class="st1" width="47" height="47"/>
<path d="M832,298.4c-0.4,0-0.7-0.1-1-0.3c-0.3-0.2-0.5-0.5-0.7-0.8c-0.1-0.3-0.2-0.7-0.1-1.1c0.1-0.4,0.3-0.7,0.5-1
	c0.3-0.3,0.6-0.4,1-0.5c0.4-0.1,0.7,0,1.1,0.1c0.3,0.1,0.6,0.4,0.8,0.7c0.2,0.3,0.3,0.7,0.3,1c0,0.5-0.2,1-0.5,1.3
	C833,298.2,832.5,298.4,832,298.4z M832,295.9c-0.1,0-0.2,0-0.3,0.1c-0.1,0.1-0.2,0.2-0.2,0.3c0,0.1-0.1,0.2,0,0.4
	c0,0.1,0.1,0.2,0.2,0.3c0.1,0.1,0.2,0.1,0.3,0.2c0.1,0,0.2,0,0.4,0c0.1,0,0.2-0.1,0.3-0.2c0.1-0.1,0.1-0.2,0.1-0.3
	c0-0.2-0.1-0.3-0.2-0.4C832.3,295.9,832.2,295.9,832,295.9z"/>
<path d="M828.9,312.8c-0.4,0-0.7-0.1-1-0.3c-0.3-0.2-0.5-0.5-0.7-0.8c-0.1-0.3-0.2-0.7-0.1-1.1c0.1-0.4,0.3-0.7,0.5-1
	c0.3-0.3,0.6-0.4,1-0.5c0.4-0.1,0.7,0,1.1,0.1c0.3,0.1,0.6,0.4,0.8,0.7c0.2,0.3,0.3,0.7,0.3,1c0,0.5-0.2,1-0.5,1.3
	C829.8,312.6,829.4,312.7,828.9,312.8z M828.9,310.2c-0.1,0-0.2,0-0.3,0.1c-0.1,0.1-0.2,0.2-0.2,0.3c0,0.1-0.1,0.2,0,0.4
	c0,0.1,0.1,0.2,0.2,0.3c0.1,0.1,0.2,0.1,0.3,0.2c0.1,0,0.2,0,0.4,0c0.1,0,0.2-0.1,0.3-0.2c0.1-0.1,0.1-0.2,0.1-0.3
	c0-0.2-0.1-0.3-0.2-0.4C829.2,310.3,829,310.2,828.9,310.2z"/>
<path d="M826.4,300.9c-0.4,0-0.7-0.1-1-0.3c-0.3-0.2-0.5-0.5-0.7-0.8c-0.1-0.3-0.2-0.7-0.1-1.1c0.1-0.4,0.3-0.7,0.5-1
	c0.3-0.3,0.6-0.4,1-0.5c0.4-0.1,0.7,0,1.1,0.1c0.3,0.1,0.6,0.4,0.8,0.7c0.2,0.3,0.3,0.7,0.3,1c0,0.5-0.2,1-0.5,1.3
	C827.3,300.7,826.9,300.9,826.4,300.9z M826.4,298.4c-0.1,0-0.2,0-0.3,0.1c-0.1,0.1-0.2,0.2-0.2,0.3c0,0.1-0.1,0.2,0,0.4
	c0,0.1,0.1,0.2,0.2,0.3c0.1,0.1,0.2,0.1,0.3,0.2c0.1,0,0.2,0,0.4,0c0.1,0,0.2-0.1,0.3-0.2c0.1-0.1,0.1-0.2,0.1-0.3
	c0-0.2-0.1-0.3-0.2-0.4C826.7,298.4,826.5,298.4,826.4,298.4z"/>
<path d="M835.1,312.8c-0.4,0-0.7-0.1-1-0.3c-0.3-0.2-0.5-0.5-0.7-0.8c-0.1-0.3-0.2-0.7-0.1-1.1c0.1-0.4,0.3-0.7,0.5-1
	c0.3-0.3,0.6-0.4,1-0.5c0.4-0.1,0.7,0,1.1,0.1c0.3,0.1,0.6,0.4,0.8,0.7c0.2,0.3,0.3,0.7,0.3,1c0,0.5-0.2,1-0.5,1.3
	C836.1,312.6,835.6,312.7,835.1,312.8z M835.1,310.2c-0.1,0-0.2,0-0.3,0.1c-0.1,0.1-0.2,0.2-0.2,0.3c0,0.1-0.1,0.2,0,0.4
	c0,0.1,0.1,0.2,0.2,0.3c0.1,0.1,0.2,0.1,0.3,0.2c0.1,0,0.2,0,0.4,0c0.1,0,0.2-0.1,0.3-0.2c0.1-0.1,0.1-0.2,0.1-0.3
	c0-0.2-0.1-0.3-0.2-0.4C835.5,310.3,835.3,310.2,835.1,310.2z"/>
<path d="M837.6,300.9c-0.4,0-0.7-0.1-1-0.3c-0.3-0.2-0.5-0.5-0.7-0.8c-0.1-0.3-0.2-0.7-0.1-1.1c0.1-0.4,0.3-0.7,0.5-1
	c0.3-0.3,0.6-0.4,1-0.5c0.4-0.1,0.7,0,1.1,0.1c0.3,0.1,0.6,0.4,0.8,0.7c0.2,0.3,0.3,0.7,0.3,1c0,0.5-0.2,1-0.5,1.3
	C838.6,300.7,838.1,300.9,837.6,300.9z M837.6,298.4c-0.1,0-0.2,0-0.3,0.1c-0.1,0.1-0.2,0.2-0.2,0.3c0,0.1-0.1,0.2,0,0.4
	c0,0.1,0.1,0.2,0.2,0.3c0.1,0.1,0.2,0.1,0.3,0.2c0.1,0,0.2,0,0.4,0c0.1,0,0.2-0.1,0.3-0.2c0.1-0.1,0.1-0.2,0.1-0.3
	c0-0.2-0.1-0.3-0.2-0.4C838,298.4,837.8,298.4,837.6,298.4z"/>
<path d="M824.5,307.1c-0.4,0-0.7-0.1-1-0.3c-0.3-0.2-0.5-0.5-0.7-0.8c-0.1-0.3-0.2-0.7-0.1-1.1c0.1-0.4,0.3-0.7,0.5-1
	c0.3-0.3,0.6-0.4,1-0.5c0.4-0.1,0.7,0,1.1,0.1c0.3,0.1,0.6,0.4,0.8,0.7c0.2,0.3,0.3,0.7,0.3,1c0,0.5-0.2,1-0.5,1.3
	C825.5,306.9,825,307.1,824.5,307.1z M824.5,304.6c-0.1,0-0.2,0-0.3,0.1c-0.1,0.1-0.2,0.2-0.2,0.3c0,0.1-0.1,0.2,0,0.4
	c0,0.1,0.1,0.2,0.2,0.3c0.1,0.1,0.2,0.1,0.3,0.2c0.1,0,0.2,0,0.4,0c0.1,0,0.2-0.1,0.3-0.2c0.1-0.1,0.1-0.2,0.1-0.3
	c0-0.2-0.1-0.3-0.2-0.4C824.8,304.7,824.7,304.6,824.5,304.6z"/>
<path d="M839.5,307.1c-0.4,0-0.7-0.1-1-0.3c-0.3-0.2-0.5-0.5-0.7-0.8c-0.1-0.3-0.2-0.7-0.1-1.1c0.1-0.4,0.3-0.7,0.5-1
	c0.3-0.3,0.6-0.4,1-0.5c0.4-0.1,0.7,0,1.1,0.1c0.3,0.1,0.6,0.4,0.8,0.7c0.2,0.3,0.3,0.7,0.3,1c0,0.5-0.2,1-0.5,1.3
	C840.5,306.9,840,307.1,839.5,307.1z M839.5,304.6c-0.1,0-0.2,0-0.3,0.1c-0.1,0.1-0.2,0.2-0.2,0.3c0,0.1-0.1,0.2,0,0.4
	c0,0.1,0.1,0.2,0.2,0.3c0.1,0.1,0.2,0.1,0.3,0.2c0.1,0,0.2,0,0.4,0c0.1,0,0.2-0.1,0.3-0.2c0.1-0.1,0.1-0.2,0.1-0.3
	c0-0.2-0.1-0.3-0.2-0.4C839.8,304.7,839.7,304.6,839.5,304.6z"/>
<path d="M832,307.8c-0.7,0-1.5-0.2-2.1-0.6c-0.6-0.4-1.1-1-1.4-1.7c-0.3-0.7-0.4-1.4-0.2-2.2c0.1-0.7,0.5-1.4,1-1.9
	c0.5-0.5,1.2-0.9,1.9-1c0.7-0.1,1.5-0.1,2.2,0.2c0.7,0.3,1.3,0.8,1.7,1.4c0.4,0.6,0.6,1.3,0.6,2.1c0,1-0.4,1.9-1.1,2.6
	S833,307.7,832,307.8z M832,301.5c-0.5,0-1,0.1-1.4,0.4c-0.4,0.3-0.7,0.7-0.9,1.1c-0.2,0.5-0.2,1-0.1,1.4c0.1,0.5,0.3,0.9,0.7,1.3
	c0.3,0.3,0.8,0.6,1.3,0.7c0.5,0.1,1,0,1.4-0.1c0.5-0.2,0.8-0.5,1.1-0.9c0.3-0.4,0.4-0.9,0.4-1.4c0-0.7-0.3-1.3-0.7-1.8
	C833.3,301.8,832.7,301.5,832,301.5z"/>
<rect x="808.5" y="280.5" class="st14" width="47" height="47"/>
<path class="st13" d="M807.2,350.2c1.8,0,2.9-0.9,3.6-2.3l-1.5-0.9c-0.3,0.9-1,1.6-2.1,1.6c-1.4,0-2.3-1-2.3-2.6v-1.5
	c0-1.7,0.9-2.7,2.3-2.7c1.1,0,1.7,0.6,2,1.5l1.6-0.8c-0.7-1.5-1.8-2.3-3.6-2.3c-2.6,0-4.2,1.8-4.2,5.1
	C803,348.5,804.6,350.2,807.2,350.2z M815.2,350v-1.4h-1v-8.9h-1.8v8.6c0,1.1,0.6,1.8,1.8,1.8H815.2z M821.1,350h1.8v-7.3h-1.8v4.8
	c0,0.8-0.7,1.2-1.4,1.2c-0.9,0-1.2-0.5-1.2-1.6v-4.4h-1.8v4.6c0,1.8,0.8,2.9,2.3,2.9c1.2,0,1.8-0.7,2-1.4h0.1V350z M827.5,350.2
	c1.8,0,3-1,3-2.4c0-1.2-0.8-1.9-2.4-2.2l-0.7-0.1c-0.7-0.1-1-0.3-1-0.8c0-0.4,0.3-0.8,1.1-0.8c0.7,0,1.3,0.3,1.8,0.8l1.1-1
	c-0.7-0.7-1.4-1.1-2.9-1.1c-1.7,0-2.8,0.9-2.8,2.3c0,1.3,0.9,2,2.4,2.2l0.7,0.1c0.6,0.1,0.9,0.3,0.9,0.8c0,0.5-0.4,0.8-1.2,0.8
	c-0.8,0-1.5-0.4-2-1l-1.1,1.1C825.2,349.7,826.1,350.2,827.5,350.2z M834.4,350h1.3v-1.4h-1.4v-4.5h1.5v-1.4h-1.5v-2h-1.6v1.2
	c0,0.5-0.2,0.8-0.7,0.8h-0.6v1.4h1.1v4C832.5,349.3,833.2,350,834.4,350z M840.4,350.2c1.4,0,2.4-0.5,3-1.3l-1-1.1
	c-0.4,0.6-1,1-1.9,1c-1.2,0-1.8-0.7-1.8-1.8v-0.2h4.9v-0.6c0-2-1-3.7-3.3-3.7c-2.1,0-3.4,1.5-3.4,3.8
	C837,348.7,838.3,350.2,840.4,350.2z M840.4,343.9c0.9,0,1.4,0.7,1.4,1.7v0.1h-3v-0.1C838.8,344.6,839.5,343.9,840.4,343.9z
	 M847.2,350v-4.5c0-0.8,0.6-1.1,1.8-1.1h0.6v-1.7h-0.4c-1.2,0-1.8,0.7-1.9,1.5h-0.1v-1.5h-1.8v7.3H847.2z M856.4,350v-4.8
	c0-0.8,0.7-1.2,1.5-1.2c0.9,0,1.2,0.5,1.2,1.6v4.4h1.8v-4.6c0-1.8-0.8-2.9-2.3-2.9c-1.1,0-1.8,0.6-2,1.4h-0.1v-1.2h-1.8v7.3H856.4z"
	/>
<path class="st2" d="M336,184.5h32c4.1,0,7.5,3.4,7.5,7.5v32c0,4.1-3.4,7.5-7.5,7.5h-32c-4.1,0-7.5-3.4-7.5-7.5v-32
	C328.5,187.9,331.9,184.5,336,184.5z"/>
<path d="M359.5,206.8h-0.6v-7.5h-1.2v7.5H357c-0.3,0-0.6,0.1-0.9,0.4c-0.2,0.2-0.4,0.6-0.4,0.9v1.2c0,0.3,0.1,0.6,0.4,0.9
	c0.2,0.2,0.6,0.4,0.9,0.4h0.6v6.2h1.2v-6.2h0.6c0.3,0,0.6-0.1,0.9-0.4c0.2-0.2,0.4-0.6,0.4-0.9V208c0-0.3-0.1-0.6-0.4-0.9
	C360.1,206.9,359.8,206.8,359.5,206.8z M359.5,209.3H357V208h2.5V209.3z"/>
<path d="M353.2,201.8h-0.6v-2.5h-1.2v2.5h-0.6c-0.3,0-0.6,0.1-0.9,0.4c-0.2,0.2-0.4,0.6-0.4,0.9v1.2c0,0.3,0.1,0.6,0.4,0.9
	c0.2,0.2,0.6,0.4,0.9,0.4h0.6v11.2h1.2v-11.2h0.6c0.3,0,0.6-0.1,0.9-0.4c0.2-0.2,0.4-0.6,0.4-0.9V203c0-0.3-0.1-0.6-0.4-0.9
	C353.9,201.9,353.6,201.8,353.2,201.8z M353.2,204.3h-2.5V203h2.5V204.3z"/>
<path d="M347,210.5h-0.6v-11.2h-1.2v11.2h-0.6c-0.3,0-0.6,0.1-0.9,0.4c-0.2,0.2-0.4,0.6-0.4,0.9v1.2c0,0.3,0.1,0.6,0.4,0.9
	c0.2,0.2,0.6,0.4,0.9,0.4h0.6v2.5h1.2v-2.5h0.6c0.3,0,0.6-0.1,0.9-0.4c0.2-0.2,0.4-0.6,0.4-0.9v-1.2c0-0.3-0.1-0.6-0.4-0.9
	C347.6,210.6,347.3,210.5,347,210.5z M347,213h-2.5v-1.2h2.5V213z"/>
<path class="st6" d="M336,184.5h32c4.1,0,7.5,3.4,7.5,7.5v32c0,4.1-3.4,7.5-7.5,7.5h-32c-4.1,0-7.5-3.4-7.5-7.5v-32
	C328.5,187.9,331.9,184.5,336,184.5z"/>
<path d="M388.9,204.2c1.8,0,2.9-0.9,3.6-2.3l-1.5-0.9c-0.3,0.9-1,1.6-2.1,1.6c-1.4,0-2.3-1-2.3-2.6v-1.5c0-1.7,0.9-2.7,2.3-2.7
	c1.1,0,1.7,0.6,2,1.5l1.6-0.8c-0.7-1.5-1.8-2.3-3.6-2.3c-2.6,0-4.2,1.8-4.2,5.1C384.7,202.5,386.4,204.2,388.9,204.2z M397.1,204.2
	c2.1,0,3.4-1.5,3.4-3.8c0-2.3-1.3-3.8-3.4-3.8c-2.1,0-3.4,1.5-3.4,3.8C393.7,202.7,395,204.2,397.1,204.2z M397.1,202.7
	c-0.9,0-1.5-0.6-1.5-1.7v-1.4c0-1.1,0.6-1.7,1.5-1.7c0.9,0,1.5,0.6,1.5,1.7v1.4C398.6,202.1,398,202.7,397.1,202.7z M404,204v-4.8
	c0-0.8,0.7-1.2,1.5-1.2c0.9,0,1.2,0.5,1.2,1.6v4.4h1.8v-4.6c0-1.8-0.8-2.9-2.3-2.9c-1.1,0-1.8,0.6-2,1.4H404v-1.2h-1.8v7.3H404z
	 M412.9,204h1.3v-1.4h-1.4v-4.5h1.5v-1.4h-1.5v-2h-1.6v1.2c0,0.5-0.2,0.8-0.7,0.8h-0.6v1.4h1.1v4C411,203.3,411.7,204,412.9,204z
	 M417.8,204v-4.5c0-0.8,0.6-1.1,1.8-1.1h0.6v-1.7h-0.4c-1.2,0-1.8,0.7-1.9,1.5h-0.1v-1.5H416v7.3H417.8z M424.5,204.2
	c2.1,0,3.4-1.5,3.4-3.8c0-2.3-1.3-3.8-3.4-3.8c-2.1,0-3.4,1.5-3.4,3.8C421.1,202.7,422.4,204.2,424.5,204.2z M424.5,202.7
	c-0.9,0-1.5-0.6-1.5-1.7v-1.4c0-1.1,0.6-1.7,1.5-1.7c0.9,0,1.5,0.6,1.5,1.7v1.4C426,202.1,425.4,202.7,424.5,202.7z M432.4,204v-1.4
	h-1v-8.9h-1.8v8.6c0,1.1,0.6,1.8,1.8,1.8H432.4z M385,224.8h1.8v-4h0.1c0.3,0.8,1,1.4,2,1.4c1.8,0,2.9-1.4,2.9-3.8
	c0-2.4-1-3.8-2.9-3.8c-1,0-1.8,0.5-2,1.4h-0.1v-1.2H385V224.8z M388.3,220.7c-0.9,0-1.5-0.4-1.5-1.2v-2.3c0-0.7,0.6-1.2,1.5-1.2
	c0.9,0,1.6,0.7,1.6,1.7v1.3C389.9,220,389.2,220.7,388.3,220.7z M396.3,222v-1.4h-1v-8.9h-1.8v8.6c0,1.1,0.6,1.8,1.8,1.8H396.3z
	 M399.7,222.2c1.1,0,1.9-0.5,2.1-1.4h0.1c0.1,0.8,0.6,1.3,1.4,1.3h1v-1.4h-0.7v-3.4c0-1.7-1-2.6-3-2.6c-1.5,0-2.3,0.6-2.9,1.4l1.1,1
	c0.4-0.5,0.8-0.9,1.7-0.9c1,0,1.4,0.5,1.4,1.3v0.5h-1.2c-2,0-3.1,0.7-3.1,2.2C397.3,221.3,398.2,222.2,399.7,222.2z M400.3,220.9
	c-0.7,0-1.1-0.3-1.1-0.9v-0.2c0-0.6,0.5-0.9,1.4-0.9h1.1v1C401.7,220.5,401.1,220.9,400.3,220.9z M407.6,222v-4.8
	c0-0.8,0.7-1.2,1.5-1.2c0.9,0,1.2,0.5,1.2,1.6v4.4h1.8v-4.6c0-1.8-0.8-2.9-2.3-2.9c-1.1,0-1.8,0.6-2,1.4h-0.1v-1.2h-1.8v7.3H407.6z
	 M417.2,222.2c1.4,0,2.4-0.5,3-1.3l-1-1.1c-0.4,0.6-1,1-1.9,1c-1.2,0-1.8-0.7-1.8-1.8v-0.2h4.9v-0.6c0-2-1.1-3.7-3.3-3.7
	c-2.1,0-3.4,1.5-3.4,3.8C413.7,220.7,415,222.2,417.2,222.2z M417.2,215.9c0.9,0,1.4,0.7,1.4,1.7v0.1h-3v-0.1
	C415.6,216.6,416.2,215.9,417.2,215.9z"/>
<path class="st15" d="M360,255.5l129,0v0l15,0c0.1,0,0.1,0,0.2,0l159.8,0c1.3,0,2.5,0.3,3.6,0.8v-0.8h3.9v1H668
	c2.7,1.4,4.5,4.3,4.5,7.5v11h2.4l-2.9,5l-2.9-5h2.4v-11c0-4.1-3.4-7.5-7.5-7.5h-0.3v0h-3.9v0h-3.9v0H652v0h-3.9v0h-3.9v0h-3.9v0
	h-3.9v0h-3.9v0h-3.9v0h-3.9v0h-3.9v0l-3.9,0v0h-3.9v0l-104.9,0c2.7,1.4,4.5,4.3,4.5,7.5v11h2.4l-2.9,5l-2.9-5h2.4v-11
	c0-4.1-3.3-7.4-7.3-7.5H373v0h-13c-3.2,0-6.1-1.8-7.5-4.5v23h2.4l-2.9,5l-2.9-5h2.4v-27c0,0,0,0,0,0v-11h-2.4l2.9-5l2.9,5h-2.4v11
	C352.5,252.1,355.9,255.5,360,255.5z"/>
<path class="st15" d="M824,256.5h-2.1v-1h2.1c0.6,0,1.1,0.1,1.7,0.2l-0.2,1C825,256.5,824.5,256.5,824,256.5z"/>
<path class="st15" d="M817.8,256.5h-4.2v-1h4.2V256.5z"/>
<path class="st15" d="M809.5,256.5h-4.2v-1h4.2V256.5z"/>
<path class="st15" d="M801.2,256.5H797v-1h4.2V256.5z"/>
<path class="st15" d="M792.9,256.5h-4.2v-1h4.2V256.5z"/>
<path class="st15" d="M784.6,256.5h-4.2v-1h4.2V256.5z"/>
<path class="st15" d="M776.2,256.5l-4.2,0v-1l4.2,0V256.5z"/>
<path class="st15" d="M767.9,256.5h-4.2v-1h4.2V256.5z"/>
<path class="st15" d="M759.6,256.5h-4.2v-1h4.2L759.6,256.5z"/>
<path class="st15" d="M751.3,256.5h-4.2v-1h4.2V256.5z"/>
<path class="st15" d="M743,256.5h-4.2v-1h4.2V256.5z"/>
<path class="st15" d="M734.7,256.5h-4.2v-1h4.2V256.5z"/>
<path class="st15" d="M726.4,256.5h-4v-1h4V256.5z"/>
<path class="st15" d="M679.4,256.5h-3.9v-1h3.9V256.5z"/>
<path class="st15" d="M687.2,256.5h-3.9v-1h3.9V256.5z"/>
<path class="st15" d="M695,256.5h-3.9v-1h3.9V256.5z"/>
<path class="st15" d="M702.8,256.5h-3.9v-1h3.9V256.5z"/>
<path class="st15" d="M710.7,256.5h-3.9v-1h3.9V256.5z"/>
<path class="st15" d="M718.5,256.5h-3.9v-1h3.9V256.5z"/>
<path class="st15" d="M830.2,259.8c-0.5-0.8-1.3-1.5-2.1-2.1l0.6-0.8c0.9,0.6,1.7,1.4,2.3,2.3L830.2,259.8z"/>
<path class="st15" d="M831.5,264c0-0.5,0-1-0.1-1.5l1-0.2c0.1,0.5,0.2,1.1,0.2,1.7v2h-1V264z"/>
<path class="st15" d="M831.5,274v-4h1v4H831.5z"/>
<path class="st15" d="M834.9,275l-2.9,5l-2.9-5H834.9z"/>
<path class="st16" d="M149,210.9l-5-2.9l5-2.9v2.4h102v-2.4l5,2.9l-5,2.9v-2.4H149V210.9z"/>
<rect x="48.5" y="472.5" class="st0" width="15" height="15"/>
<rect x="48.5" y="472.5" class="st17" width="15" height="15"/>
<path class="st18" d="M76.7,485.2c1.6,0,2.8-0.9,3.4-2.2l-0.9-0.6c-0.4,1.1-1.2,1.8-2.5,1.8c-1.7,0-2.7-1.2-2.7-3.2v-1.5
	c0-2,1-3.3,2.7-3.3c1.2,0,2,0.7,2.4,1.7l1-0.6c-0.6-1.4-1.7-2.1-3.4-2.1c-2.5,0-3.9,1.8-3.9,5.1C72.8,483.4,74.3,485.2,76.7,485.2z
	 M84.2,485v-1h-1.1v-9.4H82v9.2c0,0.7,0.4,1.2,1.2,1.2H84.2z M90.5,485h1.1v-7.2h-1.1v5c0,1-0.9,1.4-1.8,1.4c-1.1,0-1.7-0.7-1.7-1.9
	v-4.4h-1.1v4.6c0,1.8,1,2.8,2.4,2.8c1.2,0,1.8-0.7,2-1.3h0.1V485z M96.3,485.2c1.7,0,2.7-0.9,2.7-2.3c0-1.1-0.6-1.8-2.2-2l-0.6-0.1
	c-0.9-0.1-1.4-0.4-1.4-1.1c0-0.7,0.5-1.1,1.4-1.1c0.9,0,1.5,0.4,1.9,0.9l0.7-0.7c-0.6-0.7-1.4-1.2-2.5-1.2c-1.5,0-2.6,0.7-2.6,2.1
	c0,1.3,1,1.9,2.3,2.1l0.6,0.1c1,0.1,1.3,0.6,1.3,1.1c0,0.7-0.6,1.2-1.5,1.2c-0.9,0-1.6-0.4-2.1-1.1l-0.8,0.6
	C94.1,484.6,95,485.2,96.3,485.2z M104,485v-1h-1.5v-5.3h1.6v-1h-1.6v-2h-1v1.3c0,0.5-0.2,0.7-0.6,0.7h-0.7v1h1.2v5.1
	c0,0.7,0.4,1.2,1.2,1.2H104z M108.8,485.2c1.4,0,2.4-0.7,2.9-1.7l-0.8-0.6c-0.4,0.8-1.1,1.2-2,1.2c-1.3,0-2.1-0.9-2.1-2.2v-0.3h5.2
	v-0.5c0-2-1.2-3.5-3.1-3.5c-2,0-3.2,1.5-3.2,3.8S106.8,485.2,108.8,485.2z M108.8,478.5c1.1,0,1.9,0.9,1.9,2.1v0.2h-4v-0.1
	C106.7,479.5,107.5,478.5,108.8,478.5z M115,485v-4.9c0-0.7,0.7-1.2,1.9-1.2h0.7v-1.1h-0.4c-1.2,0-1.8,0.6-2.1,1.3H115v-1.3h-1.1
	v7.2H115z M121.4,485.2c1.7,0,2.7-0.9,2.7-2.3c0-1.1-0.6-1.8-2.2-2l-0.6-0.1c-0.9-0.1-1.4-0.4-1.4-1.1c0-0.7,0.5-1.1,1.4-1.1
	c0.9,0,1.5,0.4,1.9,0.9l0.7-0.7c-0.6-0.7-1.4-1.2-2.5-1.2c-1.5,0-2.6,0.7-2.6,2.1c0,1.3,1,1.9,2.3,2.1l0.6,0.1
	c1,0.1,1.3,0.6,1.3,1.1c0,0.7-0.6,1.2-1.5,1.2c-0.9,0-1.6-0.4-2.1-1.1l-0.8,0.6C119.1,484.6,120,485.2,121.4,485.2z M134.8,485v-1.9
	h1.4v-1h-1.4v-6.9h-1.8L129,482v1h4.7v1.9H134.8z M133.6,476.1L133.6,476.1l0.1,6h-3.6L133.6,476.1z M144.7,485v-1h-1.5v-5.3h1.6v-1
	h-1.6v-2h-1v1.3c0,0.5-0.2,0.7-0.6,0.7h-0.7v1h1.2v5.1c0,0.7,0.4,1.2,1.2,1.2H144.7z M149.4,485.2c1.9,0,3.3-1.5,3.3-3.8
	s-1.3-3.8-3.3-3.8c-1.9,0-3.3,1.5-3.3,3.8S147.5,485.2,149.4,485.2z M149.4,484.2c-1.2,0-2.1-0.7-2.1-2.3v-1c0-1.5,0.9-2.3,2.1-2.3
	s2.1,0.7,2.1,2.3v1C151.5,483.4,150.6,484.2,149.4,484.2z M159.3,485v-5c0-0.9,0.9-1.4,1.8-1.4c1.1,0,1.6,0.7,1.6,1.9v4.4h1.1v-4.6
	c0-1.8-0.9-2.8-2.4-2.8c-1.1,0-1.7,0.5-2,1.3h-0.1v-1.2h-1.1v7.2H159.3z"/>
</svg>
