<svg width="1080" height="540" viewBox="0 0 1080 540" fill="none" xmlns="http://www.w3.org/2000/svg">
<rect width="1080" height="540" fill="#B0ADAD"/>
<rect x="-3587" y="-10703" width="19980" height="19930" fill="white" style="mix-blend-mode:multiply"/>
<rect x="-3587" y="-10703" width="19980" height="19930" stroke="#161616" stroke-width="20"/>
<rect width="1080" height="540" fill="#F4F4F4"/>
<rect x="48.5" y="48.5" width="319" height="391" fill="white"/>
<rect x="49" y="49" width="318" height="390" fill="#EDF5FF"/>
<g clip-path="url(#clip0_22_27)">
<line x1="50" y1="48" x2="50" y2="96" stroke="#0F62FE" stroke-width="4"/>
<g clip-path="url(#clip1_22_27)">
<rect width="20" height="20" transform="translate(64 62)" fill="white" style="mix-blend-mode:multiply"/>
<path d="M79.3637 70.5322C78.7425 69.3683 77.7598 68.4378 76.5637 67.8812C75.3675 67.3245 74.0228 67.1718 72.7324 67.4461C71.4419 67.7204 70.2755 68.4069 69.4092 69.4019C68.5429 70.397 68.0236 71.6467 67.9296 72.9627C66.8564 73.0781 65.8683 73.6004 65.1686 74.4222C64.4688 75.2441 64.1107 76.3028 64.1679 77.3807C64.225 78.4585 64.6932 79.4735 65.4759 80.2167C66.2587 80.9598 67.2965 81.3747 68.3759 81.376H78.3759C79.7404 81.3768 81.056 80.8673 82.0639 79.9475C83.0719 79.0278 83.6995 77.7643 83.8233 76.4053C83.947 75.0464 83.5581 73.6903 82.7329 72.6036C81.9077 71.5168 80.7059 70.778 79.3637 70.5322ZM78.3759 80.4385H68.3759C67.5443 80.4404 66.7433 80.1258 66.1353 79.5585C65.5273 78.9912 65.158 78.2138 65.1024 77.3842C65.0467 76.5545 65.3089 75.7348 65.8357 75.0914C66.3626 74.448 67.1145 74.0293 67.9388 73.9202C68.0049 74.7473 68.2397 75.5521 68.6286 76.285C68.6567 76.3409 68.6958 76.3906 68.7434 76.4311C68.7911 76.4717 68.8464 76.5023 68.9061 76.5211C68.9657 76.5399 69.0286 76.5466 69.0909 76.5408C69.1532 76.535 69.2137 76.5167 69.2688 76.4871C69.3239 76.4575 69.3726 76.4172 69.4119 76.3685C69.4512 76.3199 69.4804 76.2638 69.4977 76.2037C69.5149 76.1435 69.52 76.0805 69.5126 76.0184C69.5052 75.9563 69.4854 75.8963 69.4544 75.8419C68.8348 74.6837 68.6806 73.3326 69.0234 72.0645C69.3661 70.7965 70.1798 69.707 71.2985 69.0186C72.4172 68.3301 73.7565 68.0945 75.0429 68.36C76.3294 68.6254 77.466 69.3718 78.2209 70.4468C77.4718 70.4674 76.735 70.6418 76.056 70.9589C75.3771 71.2761 74.7705 71.7293 74.274 72.2905C74.2317 72.3364 74.199 72.3903 74.1778 72.449C74.1566 72.5077 74.1474 72.57 74.1506 72.6324C74.1538 72.6947 74.1695 72.7557 74.1966 72.8119C74.2237 72.8681 74.2618 72.9184 74.3086 72.9596C74.3554 73.0009 74.41 73.0325 74.4691 73.0524C74.5282 73.0723 74.5908 73.0802 74.653 73.0757C74.7152 73.0711 74.7759 73.0541 74.8315 73.0258C74.8872 72.9975 74.9365 72.9583 74.9768 72.9107C75.4776 72.3427 76.1127 71.9092 76.8241 71.6499C77.5355 71.3906 78.3006 71.3138 79.0494 71.4263C79.7982 71.5389 80.5068 71.8373 81.1106 72.2943C81.7143 72.7513 82.1939 73.3524 82.5055 74.0425C82.8171 74.7326 82.9508 75.4898 82.8944 76.2449C82.838 77 82.5932 77.729 82.1825 78.3651C81.7718 79.0012 81.2082 79.5243 80.5432 79.8865C79.8782 80.2487 79.1331 80.4385 78.3759 80.4385Z" fill="black"/>
<path d="M83.9373 68.4102C83.9062 68.3563 83.8648 68.309 83.8154 68.2711C83.766 68.2331 83.7096 68.2053 83.6494 68.1892C83.5892 68.1731 83.5265 68.169 83.4648 68.1771C83.403 68.1853 83.3435 68.2055 83.2896 68.2367L81.4021 69.3266C81.3466 69.3569 81.2978 69.398 81.2585 69.4475C81.2192 69.4969 81.1901 69.5537 81.1731 69.6145C81.156 69.6754 81.1513 69.739 81.1591 69.8017C81.167 69.8644 81.1873 69.9249 81.2189 69.9796C81.2505 70.0343 81.2927 70.0822 81.343 70.1204C81.3933 70.1586 81.4508 70.1863 81.512 70.202C81.5732 70.2177 81.6369 70.2209 81.6994 70.2116C81.7619 70.2023 81.8219 70.1807 81.8759 70.1479L83.7634 69.058C83.8723 68.9951 83.9519 68.8916 83.9845 68.7701C84.0171 68.6486 84.0001 68.5192 83.9373 68.4102Z" fill="black"/>
<path d="M78.1736 66.9197C78.2275 66.9509 78.2871 66.9711 78.3488 66.9793C78.4106 66.9874 78.4733 66.9833 78.5335 66.9672C78.5936 66.9511 78.65 66.9233 78.6994 66.8854C78.7488 66.8475 78.7903 66.8002 78.8214 66.7462L79.9112 64.8587C79.973 64.7499 79.9893 64.621 79.9564 64.5003C79.9236 64.3795 79.8444 64.2766 79.736 64.214C79.6276 64.1515 79.4989 64.1343 79.3779 64.1662C79.2569 64.1981 79.1534 64.2766 79.09 64.3845L78.0001 66.272C77.9373 66.3809 77.9202 66.5103 77.9528 66.6318C77.9853 66.7532 78.0647 66.8568 78.1736 66.9197Z" fill="black"/>
<path d="M74.0009 65.8017C74.1266 65.8016 74.2473 65.7517 74.3362 65.6627C74.4251 65.5738 74.4751 65.4532 74.4751 65.3274V63.1477C74.4758 63.0849 74.4641 63.0227 74.4406 62.9645C74.4171 62.9063 74.3823 62.8534 74.3382 62.8088C74.2941 62.7642 74.2415 62.7288 74.1836 62.7046C74.1258 62.6804 74.0636 62.668 74.0009 62.668C73.9382 62.668 73.8761 62.6804 73.8182 62.7046C73.7603 62.7288 73.7077 62.7642 73.6636 62.8088C73.6195 62.8534 73.5847 62.9063 73.5612 62.9645C73.5377 63.0227 73.526 63.0849 73.5267 63.1477V65.3274C73.5267 65.4532 73.5767 65.5738 73.6656 65.6627C73.7545 65.7517 73.8751 65.8016 74.0009 65.8017Z" fill="black"/>
<path d="M69.1804 66.7461C69.2438 66.854 69.3473 66.9325 69.4683 66.9644C69.5893 66.9963 69.718 66.9791 69.8264 66.9165C69.9348 66.854 70.014 66.7511 70.0469 66.6303C70.0797 66.5095 70.0635 66.3807 70.0017 66.2719L68.9118 64.3844C68.8809 64.3299 68.8396 64.2822 68.7902 64.2438C68.7407 64.2054 68.6842 64.1772 68.6238 64.1608C68.5634 64.1444 68.5004 64.1401 68.4384 64.1482C68.3763 64.1562 68.3165 64.1765 68.2623 64.2078C68.2081 64.2391 68.1606 64.2808 68.1226 64.3305C68.0847 64.3802 68.0569 64.4369 68.0409 64.4974C68.025 64.5579 68.0211 64.621 68.0296 64.683C68.0382 64.745 68.0589 64.8047 68.0906 64.8586L69.1804 66.7461Z" fill="black"/>
<path d="M66.5999 69.3266L64.7124 68.2367C64.6585 68.205 64.5988 68.1843 64.5368 68.1758C64.4748 68.1673 64.4118 68.1711 64.3513 68.1871C64.2908 68.203 64.234 68.2308 64.1843 68.2688C64.1346 68.3068 64.0929 68.3543 64.0616 68.4084C64.0303 68.4626 64.0101 68.5225 64.002 68.5845C63.9939 68.6466 63.9982 68.7096 64.0147 68.77C64.0311 68.8304 64.0593 68.8869 64.0976 68.9363C64.136 68.9857 64.1838 69.0271 64.2382 69.058L66.1259 70.1479C66.1798 70.1795 66.2395 70.2003 66.3015 70.2088C66.3635 70.2173 66.4265 70.2135 66.487 70.1975C66.5475 70.1815 66.6043 70.1538 66.654 70.1158C66.7037 70.0778 66.7454 70.0303 66.7767 69.9761C66.808 69.9219 66.8283 69.8621 66.8363 69.8001C66.8444 69.738 66.8401 69.675 66.8237 69.6146C66.8072 69.5542 66.779 69.4977 66.7407 69.4483C66.7023 69.3988 66.6544 69.3575 66.5999 69.3266Z" fill="black"/>
</g>
<text fill="black" xml:space="preserve" style="white-space: pre" font-family="IBM Plex Sans" font-size="14" font-weight="600" letter-spacing="0.16px"><tspan x="100" y="77.25">IBM Cloud</tspan></text>
</g>
<rect x="48.5" y="48.5" width="319" height="391" stroke="#0F62FE"/>
<path fill-rule="evenodd" clip-rule="evenodd" d="M149 210.887L144 208L149 205.113V207.5H187V205.113L192 208L187 210.887V208.5H149V210.887Z" fill="#0043CE"/>
<rect x="96" y="184" width="48" height="48" rx="8" fill="#0F62FE"/>
<rect width="20" height="20" transform="translate(110 198)" fill="white" style="mix-blend-mode:multiply"/>
<path d="M127.5 206.754H126.875V199.254H125.625V206.754H125C124.669 206.754 124.351 206.886 124.116 207.12C123.882 207.355 123.75 207.672 123.75 208.004V209.254C123.75 209.585 123.882 209.903 124.117 210.137C124.351 210.372 124.669 210.504 125 210.504H125.625V216.754H126.875V210.504H127.5C127.831 210.503 128.149 210.372 128.383 210.137C128.618 209.903 128.75 209.585 128.75 209.254V208.004C128.75 207.673 128.618 207.355 128.383 207.12C128.149 206.886 127.831 206.754 127.5 206.754ZM127.5 209.254H125V208.004H127.5V209.254Z" fill="white"/>
<path d="M121.25 201.754H120.625V199.254H119.375V201.754H118.75C118.419 201.754 118.101 201.886 117.866 202.12C117.632 202.355 117.5 202.672 117.5 203.004V204.254C117.5 204.585 117.632 204.903 117.866 205.137C118.101 205.372 118.419 205.504 118.75 205.504H119.375V216.754H120.625V205.504H121.25C121.581 205.504 121.899 205.372 122.134 205.137C122.368 204.903 122.5 204.585 122.5 204.254V203.004C122.5 202.672 122.368 202.355 122.134 202.12C121.899 201.886 121.581 201.754 121.25 201.754ZM121.25 204.254H118.75V203.004H121.25V204.254Z" fill="white"/>
<path d="M115 210.504H114.375V199.254H113.125V210.504H112.5C112.169 210.504 111.851 210.636 111.617 210.87C111.382 211.105 111.25 211.423 111.25 211.754V213.004C111.25 213.335 111.382 213.653 111.617 213.887C111.851 214.122 112.169 214.254 112.5 214.254H113.125V216.754H114.375V214.254H115C115.331 214.254 115.649 214.122 115.883 213.887C116.118 213.653 116.25 213.335 116.25 213.004V211.754C116.25 211.423 116.118 211.105 115.883 210.87C115.649 210.636 115.331 210.504 115 210.504ZM115 213.004H112.5V211.754H115V213.004Z" fill="white"/>
<text fill="black" xml:space="preserve" style="white-space: pre" font-family="IBM Plex Sans" font-size="14" font-weight="600" letter-spacing="0.16px"><tspan x="90.4734" y="254.25">Satellite &#10;</tspan><tspan x="73.1346" y="272.25"> management &#10;</tspan><tspan x="101.496" y="290.25">plane</tspan></text>
<rect x="416.5" y="48.5" width="615" height="391" fill="white"/>
<rect x="417" y="49" width="614" height="390" fill="white"/>
<g clip-path="url(#clip2_22_27)">
<line x1="418" y1="48" x2="418" y2="96" stroke="#8D8D8D" stroke-width="4"/>
<text fill="black" xml:space="preserve" style="white-space: pre" font-family="IBM Plex Sans" font-size="14" font-weight="600" letter-spacing="0.16px"><tspan x="432" y="68.25">Edge or other data center A</tspan></text>
<text fill="black" xml:space="preserve" style="white-space: pre" font-family="IBM Plex Sans" font-size="14" letter-spacing="0.16px"><tspan x="432" y="86.25">(Customer-owned)</tspan></text>
</g>
<rect x="416.5" y="48.5" width="615" height="391" stroke="#8D8D8D"/>
<path d="M192.5 112.5H1010C1014.14 112.5 1017.5 115.858 1017.5 120V416C1017.5 420.142 1014.14 423.5 1010 423.5H200C195.858 423.5 192.5 420.142 192.5 416V112.5Z" fill="#F7F3F2"/>
<g clip-path="url(#clip3_22_27)">
<line x1="194" y1="112" x2="194" y2="160" stroke="#8D8D8D" stroke-width="4"/>
<g clip-path="url(#clip4_22_27)">
<rect width="20" height="20" transform="translate(208 126)" fill="white" style="mix-blend-mode:multiply"/>
<path d="M228 142.25V141H226.687C226.606 140.609 226.451 140.237 226.229 139.904L227.161 138.973L226.277 138.089L225.346 139.021C225.013 138.799 224.641 138.644 224.25 138.563V137.25H223V138.563C222.609 138.644 222.237 138.799 221.904 139.021L220.973 138.089L220.089 138.973L221.021 139.904C220.799 140.237 220.644 140.609 220.563 141H219.25V142.25H220.563C220.644 142.641 220.799 143.013 221.021 143.346L220.089 144.277L220.973 145.161L221.904 144.229C222.237 144.451 222.609 144.606 223 144.687V146H224.25V144.687C224.641 144.606 225.013 144.451 225.346 144.229L226.277 145.161L227.161 144.277L226.229 143.346C226.451 143.013 226.606 142.641 226.687 142.25H228ZM223.625 143.5C223.254 143.5 222.892 143.39 222.583 143.184C222.275 142.978 222.035 142.685 221.893 142.343C221.751 142 221.714 141.623 221.786 141.259C221.858 140.896 222.037 140.561 222.299 140.299C222.561 140.037 222.895 139.858 223.259 139.786C223.623 139.714 224 139.751 224.343 139.893C224.685 140.035 224.978 140.275 225.184 140.583C225.39 140.892 225.5 141.254 225.5 141.625C225.499 142.122 225.302 142.599 224.95 142.95C224.599 143.302 224.122 143.499 223.625 143.5Z" fill="black"/>
<path d="M212.375 139.75C213.065 139.75 213.625 139.19 213.625 138.5C213.625 137.81 213.065 137.25 212.375 137.25C211.685 137.25 211.125 137.81 211.125 138.5C211.125 139.19 211.685 139.75 212.375 139.75Z" fill="black"/>
<path d="M216.75 138.5C216.256 138.5 215.772 138.353 215.361 138.079C214.95 137.804 214.63 137.414 214.44 136.957C214.251 136.5 214.202 135.997 214.298 135.512C214.394 135.027 214.633 134.582 214.982 134.232C215.332 133.883 215.777 133.645 216.262 133.548C216.747 133.452 217.25 133.501 217.707 133.69C218.164 133.88 218.554 134.2 218.829 134.611C219.103 135.022 219.25 135.506 219.25 136C219.248 136.662 218.984 137.297 218.516 137.766C218.047 138.234 217.412 138.498 216.75 138.5ZM216.75 134.75C216.503 134.75 216.261 134.823 216.056 134.961C215.85 135.098 215.69 135.293 215.595 135.522C215.501 135.75 215.476 136.001 215.524 136.244C215.572 136.486 215.691 136.709 215.866 136.884C216.041 137.059 216.264 137.178 216.506 137.226C216.749 137.274 217 137.249 217.228 137.155C217.457 137.06 217.652 136.9 217.789 136.694C217.927 136.489 218 136.247 218 136C217.999 135.669 217.867 135.351 217.633 135.117C217.399 134.883 217.081 134.751 216.75 134.75Z" fill="black"/>
<path d="M221.125 134.75C221.815 134.75 222.375 134.19 222.375 133.5C222.375 132.81 221.815 132.25 221.125 132.25C220.435 132.25 219.875 132.81 219.875 133.5C219.875 134.19 220.435 134.75 221.125 134.75Z" fill="black"/>
<path d="M216.138 143.67L209.875 140.016V131.984L216.75 127.974L223.935 132.165L224.565 131.085L217.065 126.71C216.969 126.654 216.861 126.625 216.75 126.625C216.639 126.625 216.531 126.654 216.435 126.71L208.935 131.085C208.841 131.14 208.762 131.219 208.708 131.314C208.654 131.408 208.625 131.516 208.625 131.625V140.375C208.625 140.484 208.654 140.592 208.708 140.686C208.762 140.781 208.841 140.86 208.935 140.915L215.508 144.75L216.138 143.67Z" fill="black"/>
</g>
<text fill="black" xml:space="preserve" style="white-space: pre" font-family="IBM Plex Sans" font-size="14" font-weight="600" letter-spacing="0.16px"><tspan x="244" y="141.25">Satellite location</tspan></text>
</g>
<path d="M192.5 112.5H1010C1014.14 112.5 1017.5 115.858 1017.5 120V416C1017.5 420.142 1014.14 423.5 1010 423.5H200C195.858 423.5 192.5 420.142 192.5 416V112.5Z" stroke="#8D8D8D"/>
<path fill-rule="evenodd" clip-rule="evenodd" d="M416 114L416 112L417 112L417 114L416 114ZM416 122L416 118L417 118L417 122L416 122ZM416 130L416 126L417 126L417 130L416 130ZM416 138L416 134L417 134L417 138L416 138ZM416 146L416 142L417 142L417 146L416 146ZM416 154L416 150L417 150L417 154L416 154ZM416 162L416 158L417 158L417 162L416 162ZM416 170L416 166L417 166L417 170L416 170ZM416 178L416 174L417 174L417 178L416 178ZM416 186L416 182L417 182L417 186L416 186ZM416 194L416 190L417 190L417 194L416 194ZM416 202L416 198L417 198L417 202L416 202ZM416 210L416 206L417 206L417 210L416 210ZM416 218L416 214L417 214L417 218L416 218ZM416 226L416 222L417 222L417 226L416 226ZM416 234L416 230L417 230L417 234L416 234ZM416 242L416 238L417 238L417 242L416 242ZM416 250L416 246L417 246L417 250L416 250ZM416 258L416 254L417 254L417 258L416 258ZM416 266L416 262L417 262L417 266L416 266ZM416 274L416 270L417 270L417 274L416 274ZM416 282L416 278L417 278L417 282L416 282ZM416 290L416 286L417 286L417 290L416 290ZM416 298L416 294L417 294L417 298L416 298ZM416 306L416 302L417 302L417 306L416 306ZM416 314L416 310L417 310L417 314L416 314ZM416 322L416 318L417 318L417 322L416 322ZM416 330L416 326L417 326L417 330L416 330ZM416 338L416 334L417 334L417 338L416 338ZM416 346L416 342L417 342L417 346L416 346ZM416 354L416 350L417 350L417 354L416 354ZM416 362L416 358L417 358L417 362L416 362ZM416 370L416 366L417 366L417 370L416 370ZM416 378L416 374L417 374L417 378L416 378ZM416 386L416 382L417 382L417 386L416 386ZM416 394L416 390L417 390L417 394L416 394ZM416 402L416 398L417 398L417 402L416 402ZM416 410L416 406L417 406L417 410L416 410ZM416 418L416 414L417 414L417 418L416 418ZM416 424L416 422L417 422L417 424L416 424Z" fill="#8D8D8D"/>
<path fill-rule="evenodd" clip-rule="evenodd" d="M367 114L367 112L368 112L368 114L367 114ZM367 122L367 118L368 118L368 122L367 122ZM367 130L367 126L368 126L368 130L367 130ZM367 138L367 134L368 134L368 138L367 138ZM367 146L367 142L368 142L368 146L367 146ZM367 154L367 150L368 150L368 154L367 154ZM367 162L367 158L368 158L368 162L367 162ZM367 170L367 166L368 166L368 170L367 170ZM367 178L367 174L368 174L368 178L367 178ZM367 186L367 182L368 182L368 186L367 186ZM367 194L367 190L368 190L368 194L367 194ZM367 202L367 198L368 198L368 202L367 202ZM367 210L367 206L368 206L368 210L367 210ZM367 218L367 214L368 214L368 218L367 218ZM367 226L367 222L368 222L368 226L367 226ZM367 234L367 230L368 230L368 234L367 234ZM367 242L367 238L368 238L368 242L367 242ZM367 250L367 246L368 246L368 250L367 250ZM367 258L367 254L368 254L368 258L367 258ZM367 266L367 262L368 262L368 266L367 266ZM367 274L367 270L368 270L368 274L367 274ZM367 282L367 278L368 278L368 282L367 282ZM367 290L367 286L368 286L368 290L367 290ZM367 298L367 294L368 294L368 298L367 298ZM367 306L367 302L368 302L368 306L367 306ZM367 314L367 310L368 310L368 314L367 314ZM367 322L367 318L368 318L368 322L367 322ZM367 330L367 326L368 326L368 330L367 330ZM367 338L367 334L368 334L368 338L367 338ZM367 346L367 342L368 342L368 346L367 346ZM367 354L367 350L368 350L368 354L367 354ZM367 362L367 358L368 358L368 362L367 362ZM367 370L367 366L368 366L368 370L367 370ZM367 378L367 374L368 374L368 378L367 378ZM367 386L367 382L368 382L368 386L367 386ZM367 394L367 390L368 390L368 394L367 394ZM367 402L367 398L368 398L368 402L367 402ZM367 410L367 406L368 406L368 410L367 410ZM367 418L367 414L368 414L368 418L367 418ZM367 424L367 422L368 422L368 424L367 424Z" fill="#0F62FE"/>
<path fill-rule="evenodd" clip-rule="evenodd" d="M410 247.497L272 247.5C267.858 247.5 264.5 244.142 264.5 240L264.5 229L266.887 229L264 224L261.113 229H263.5L263.5 240C263.5 244.694 267.306 248.5 272 248.5L310 248.499V248.503L419 248.501V248.503H456H458.021H462.063H464.201C468.25 248.61 471.5 251.925 471.5 256V267H469.113L472 272L474.887 267H472.5V256C472.5 252.755 470.682 249.935 468.009 248.503H470.146H474.188H478.23H482.271H486.313H490.355H494.396H498.438H502.48H506.522H510.563H514.605H518.647H522.689H526.73H530.604H530.772H534.814H538.855H542.897H546.939L550.981 248.502V248.503H555.022V248.502L559.064 248.502V248.503H563.106V248.502L567.147 248.502V248.503H571H571.189H575.231H579.273H583.314H587.356H591.398H595.44H599.481H603.523H607.565H611.607H615.648H619.69H623.732H625.198C629.249 248.608 632.5 251.924 632.5 256V267H630.113L633 272L635.887 267H633.5V256C633.5 252.755 631.682 249.935 629.008 248.503H631.815H635.857H639.899H643.94H647.982H652.024H656.066H660.107H664.149H668.191H672.233H676.274H680.316H684.358H686.254H688.399H692.441H696.483H700.525H704.566H708.608H712.65H714.671L716.648 248.503L720.602 248.503L724.555 248.503L728.509 248.502V248.503L732.463 248.503V248.502L736.417 248.501V248.503L740.371 248.502V248.501L744.325 248.501V248.502L748.279 248.502V248.501L752.233 248.501V248.502L756.187 248.502V248.501L760.141 248.501V248.502L764.095 248.502V248.501L768.049 248.501V248.502L772.003 248.502V248.501L775.957 248.5V248.502L779.911 248.502V248.5L783.865 248.5V248.502L784.164 248.502C788.231 248.589 791.5 251.913 791.5 256V267H789.113L792 272L794.887 267H792.5V256C792.5 252.679 790.595 249.803 787.819 248.404V247.502L784.175 247.502C784.117 247.501 784.058 247.5 784 247.5L724.555 247.503L720.602 247.503L716.648 247.503L714.671 247.503H712.65H708.608H704.566H700.525H696.483H692.441H688.399H686.254H684.358H680.316H676.274H672.233H668.191H664.149H660.107H656.066H652.024H647.982H643.94H639.899H635.857H631.815H627.773H625.211C625.188 247.502 625.164 247.502 625.14 247.501C625.093 247.501 625.047 247.5 625 247.5L546.939 247.503H542.897H538.855H534.814H530.772H530.604H526.73H522.689H518.647H514.605H510.563H506.522H502.48H498.438H494.396H490.355H486.313H482.271H478.23H474.188H470.146H466.104H464.215C464.185 247.502 464.155 247.501 464.125 247.501C464.083 247.5 464.042 247.5 464 247.5L410 247.501V247.497ZM944 248.5L942.023 248.5V247.5L944 247.5C944.567 247.5 945.122 247.556 945.658 247.662L945.464 248.643C944.991 248.549 944.501 248.5 944 248.5ZM938.069 248.5L934.115 248.5L934.115 247.5L938.069 247.5L938.069 248.5ZM930.161 248.5L926.207 248.5V247.5L930.161 247.5V248.5ZM922.253 248.5L918.299 248.5V247.5L922.253 247.5V248.5ZM914.345 248.5L910.391 248.5V247.5L914.345 247.5V248.5ZM906.437 248.501L902.483 248.501V247.501L906.437 247.501V248.501ZM898.529 248.501L894.575 248.501V247.501L898.529 247.501V248.501ZM890.622 248.501L886.668 248.501L886.668 247.501L890.621 247.501L890.622 248.501ZM882.714 248.501L878.76 248.501V247.501L882.714 247.501V248.501ZM874.806 248.501L870.852 248.501V247.501L874.806 247.501V248.501ZM866.898 248.501L862.944 248.501V247.501L866.898 247.501V248.501ZM858.99 248.501L855.036 248.501L855.036 247.501L858.99 247.501V248.501ZM851.082 248.501L847.128 248.501V247.501L851.082 247.501V248.501ZM843.174 248.501L839.22 248.501L839.22 247.501L843.174 247.501V248.501ZM835.266 248.501L831.312 248.501V247.501L835.266 247.501V248.501ZM827.358 248.501L823.404 248.501L823.404 247.501L827.358 247.501V248.501ZM819.45 248.502L815.496 248.502V247.502L819.45 247.502L819.45 248.502ZM811.542 248.502L807.589 248.502V247.502L811.542 247.502V248.502ZM803.635 248.502L799.681 248.502V247.502L803.635 247.502L803.635 248.502ZM795.727 248.502L791.773 248.502V247.502L795.727 247.502V248.502ZM950.237 251.833C949.689 251.015 948.985 250.311 948.167 249.763L948.723 248.932C949.65 249.552 950.448 250.35 951.068 251.277L950.237 251.833ZM951.5 256C951.5 255.499 951.451 255.009 951.357 254.536L952.338 254.342C952.444 254.878 952.5 255.433 952.5 256V258H951.5V256ZM951.5 266V262H952.5V266H951.5ZM954.887 267L952 272L949.113 267H954.887Z" fill="#565151"/>
<rect width="48" height="48" transform="translate(448 272)" fill="#8D8D8D"/>
<rect width="20" height="20" transform="translate(462 286)" fill="white" style="mix-blend-mode:multiply"/>
<path d="M472 290.375C471.629 290.375 471.267 290.265 470.958 290.059C470.65 289.853 470.41 289.56 470.268 289.218C470.126 288.875 470.089 288.498 470.161 288.134C470.233 287.77 470.412 287.436 470.674 287.174C470.936 286.912 471.27 286.733 471.634 286.661C471.998 286.589 472.375 286.626 472.718 286.768C473.06 286.91 473.353 287.15 473.559 287.458C473.765 287.767 473.875 288.129 473.875 288.5C473.874 288.997 473.677 289.474 473.325 289.825C472.974 290.177 472.497 290.374 472 290.375ZM472 287.875C471.876 287.875 471.756 287.912 471.653 287.98C471.55 288.049 471.47 288.147 471.423 288.261C471.375 288.375 471.363 288.501 471.387 288.622C471.411 288.743 471.471 288.855 471.558 288.942C471.645 289.029 471.757 289.089 471.878 289.113C471.999 289.137 472.125 289.125 472.239 289.077C472.353 289.03 472.451 288.95 472.52 288.847C472.588 288.744 472.625 288.624 472.625 288.5C472.625 288.334 472.559 288.175 472.442 288.058C472.325 287.941 472.166 287.875 472 287.875Z" fill="white"/>
<path d="M468.875 304.75C468.504 304.75 468.142 304.64 467.833 304.434C467.525 304.228 467.285 303.935 467.143 303.593C467.001 303.25 466.964 302.873 467.036 302.509C467.108 302.145 467.287 301.811 467.549 301.549C467.811 301.287 468.145 301.108 468.509 301.036C468.873 300.964 469.25 301.001 469.593 301.143C469.935 301.285 470.228 301.525 470.434 301.833C470.64 302.142 470.75 302.504 470.75 302.875C470.749 303.372 470.552 303.849 470.2 304.2C469.849 304.552 469.372 304.749 468.875 304.75ZM468.875 302.25C468.751 302.25 468.631 302.287 468.528 302.355C468.425 302.424 468.345 302.522 468.298 302.636C468.25 302.75 468.238 302.876 468.262 302.997C468.286 303.118 468.346 303.23 468.433 303.317C468.52 303.404 468.632 303.464 468.753 303.488C468.874 303.512 469 303.5 469.114 303.452C469.228 303.405 469.326 303.325 469.395 303.222C469.463 303.119 469.5 302.999 469.5 302.875C469.5 302.709 469.434 302.55 469.317 302.433C469.2 302.316 469.041 302.25 468.875 302.25Z" fill="white"/>
<path d="M466.375 292.875C466.004 292.875 465.642 292.765 465.333 292.559C465.025 292.353 464.785 292.06 464.643 291.718C464.501 291.375 464.464 290.998 464.536 290.634C464.608 290.27 464.787 289.936 465.049 289.674C465.311 289.412 465.645 289.233 466.009 289.161C466.373 289.089 466.75 289.126 467.093 289.268C467.435 289.41 467.728 289.65 467.934 289.958C468.14 290.267 468.25 290.629 468.25 291C468.249 291.497 468.052 291.974 467.7 292.325C467.349 292.677 466.872 292.874 466.375 292.875ZM466.375 290.375C466.251 290.375 466.131 290.412 466.028 290.48C465.925 290.549 465.845 290.647 465.798 290.761C465.75 290.875 465.738 291.001 465.762 291.122C465.786 291.243 465.846 291.355 465.933 291.442C466.02 291.529 466.132 291.589 466.253 291.613C466.374 291.637 466.5 291.625 466.614 291.577C466.728 291.53 466.826 291.45 466.895 291.347C466.963 291.244 467 291.124 467 291C467 290.834 466.934 290.675 466.817 290.558C466.7 290.441 466.541 290.375 466.375 290.375Z" fill="white"/>
<path d="M475.125 304.75C474.754 304.75 474.392 304.64 474.083 304.434C473.775 304.228 473.535 303.935 473.393 303.593C473.251 303.25 473.214 302.873 473.286 302.509C473.358 302.145 473.537 301.811 473.799 301.549C474.061 301.287 474.395 301.108 474.759 301.036C475.123 300.964 475.5 301.001 475.843 301.143C476.185 301.285 476.478 301.525 476.684 301.833C476.89 302.142 477 302.504 477 302.875C476.999 303.372 476.802 303.849 476.45 304.2C476.099 304.552 475.622 304.749 475.125 304.75ZM475.125 302.25C475.001 302.25 474.881 302.287 474.778 302.355C474.675 302.424 474.595 302.522 474.548 302.636C474.5 302.75 474.488 302.876 474.512 302.997C474.536 303.118 474.596 303.23 474.683 303.317C474.77 303.404 474.882 303.464 475.003 303.488C475.124 303.512 475.25 303.5 475.364 303.452C475.478 303.405 475.576 303.325 475.645 303.222C475.713 303.119 475.75 302.999 475.75 302.875C475.75 302.709 475.684 302.55 475.567 302.433C475.45 302.316 475.291 302.25 475.125 302.25Z" fill="white"/>
<path d="M477.625 292.875C477.254 292.875 476.892 292.765 476.583 292.559C476.275 292.353 476.035 292.06 475.893 291.718C475.751 291.375 475.714 290.998 475.786 290.634C475.858 290.27 476.037 289.936 476.299 289.674C476.561 289.412 476.895 289.233 477.259 289.161C477.623 289.089 478 289.126 478.343 289.268C478.685 289.41 478.978 289.65 479.184 289.958C479.39 290.267 479.5 290.629 479.5 291C479.499 291.497 479.302 291.974 478.95 292.325C478.599 292.677 478.122 292.874 477.625 292.875ZM477.625 290.375C477.501 290.375 477.381 290.412 477.278 290.48C477.175 290.549 477.095 290.647 477.048 290.761C477 290.875 476.988 291.001 477.012 291.122C477.036 291.243 477.096 291.355 477.183 291.442C477.27 291.529 477.382 291.589 477.503 291.613C477.624 291.637 477.75 291.625 477.864 291.577C477.978 291.53 478.076 291.45 478.145 291.347C478.213 291.244 478.25 291.124 478.25 291C478.25 290.834 478.184 290.675 478.067 290.558C477.95 290.441 477.791 290.375 477.625 290.375Z" fill="white"/>
<path d="M464.5 299.125C464.129 299.125 463.767 299.015 463.458 298.809C463.15 298.603 462.91 298.31 462.768 297.968C462.626 297.625 462.589 297.248 462.661 296.884C462.733 296.52 462.912 296.186 463.174 295.924C463.436 295.662 463.77 295.483 464.134 295.411C464.498 295.339 464.875 295.376 465.218 295.518C465.56 295.66 465.853 295.9 466.059 296.208C466.265 296.517 466.375 296.879 466.375 297.25C466.374 297.747 466.177 298.224 465.825 298.575C465.474 298.927 464.997 299.124 464.5 299.125ZM464.5 296.625C464.376 296.625 464.256 296.662 464.153 296.73C464.05 296.799 463.97 296.897 463.923 297.011C463.875 297.125 463.863 297.251 463.887 297.372C463.911 297.493 463.971 297.605 464.058 297.692C464.145 297.779 464.257 297.839 464.378 297.863C464.499 297.887 464.625 297.875 464.739 297.827C464.853 297.78 464.951 297.7 465.02 297.597C465.088 297.494 465.125 297.374 465.125 297.25C465.125 297.084 465.059 296.925 464.942 296.808C464.825 296.691 464.666 296.625 464.5 296.625Z" fill="white"/>
<path d="M479.5 299.125C479.129 299.125 478.767 299.015 478.458 298.809C478.15 298.603 477.91 298.31 477.768 297.968C477.626 297.625 477.589 297.248 477.661 296.884C477.733 296.52 477.912 296.186 478.174 295.924C478.436 295.662 478.77 295.483 479.134 295.411C479.498 295.339 479.875 295.376 480.218 295.518C480.56 295.66 480.853 295.9 481.059 296.208C481.265 296.517 481.375 296.879 481.375 297.25C481.374 297.747 481.177 298.224 480.825 298.575C480.474 298.927 479.997 299.124 479.5 299.125ZM479.5 296.625C479.376 296.625 479.256 296.662 479.153 296.73C479.05 296.799 478.97 296.897 478.923 297.011C478.875 297.125 478.863 297.251 478.887 297.372C478.911 297.493 478.971 297.605 479.058 297.692C479.145 297.779 479.257 297.839 479.378 297.863C479.499 297.887 479.625 297.875 479.739 297.827C479.853 297.78 479.951 297.7 480.02 297.597C480.088 297.494 480.125 297.374 480.125 297.25C480.125 297.084 480.059 296.925 479.942 296.808C479.825 296.691 479.666 296.625 479.5 296.625Z" fill="white"/>
<path d="M472 299.75C471.258 299.75 470.533 299.53 469.917 299.118C469.3 298.706 468.819 298.12 468.535 297.435C468.252 296.75 468.177 295.996 468.322 295.268C468.467 294.541 468.824 293.873 469.348 293.348C469.873 292.824 470.541 292.467 471.268 292.322C471.996 292.177 472.75 292.252 473.435 292.535C474.12 292.819 474.706 293.3 475.118 293.917C475.53 294.533 475.75 295.258 475.75 296C475.749 296.994 475.353 297.947 474.65 298.65C473.947 299.353 472.994 299.749 472 299.75ZM472 293.5C471.506 293.5 471.022 293.647 470.611 293.921C470.2 294.196 469.88 294.586 469.69 295.043C469.501 295.5 469.452 296.003 469.548 296.488C469.645 296.973 469.883 297.418 470.232 297.768C470.582 298.117 471.027 298.356 471.512 298.452C471.997 298.548 472.5 298.499 472.957 298.31C473.414 298.12 473.804 297.8 474.079 297.389C474.353 296.978 474.5 296.494 474.5 296C474.499 295.337 474.236 294.702 473.767 294.233C473.298 293.764 472.663 293.501 472 293.5Z" fill="white"/>
<text fill="black" xml:space="preserve" style="white-space: pre" font-family="IBM Plex Sans" font-size="14" font-weight="600" letter-spacing="0.16px"><tspan x="442.164" y="342.25">Cluster 1</tspan></text>
<rect width="48" height="48" transform="translate(608 272)" fill="#8D8D8D"/>
<rect width="20" height="20" transform="translate(622 286)" fill="white" style="mix-blend-mode:multiply"/>
<path d="M632 290.375C631.629 290.375 631.267 290.265 630.958 290.059C630.65 289.853 630.41 289.56 630.268 289.218C630.126 288.875 630.089 288.498 630.161 288.134C630.233 287.77 630.412 287.436 630.674 287.174C630.936 286.912 631.27 286.733 631.634 286.661C631.998 286.589 632.375 286.626 632.718 286.768C633.06 286.91 633.353 287.15 633.559 287.458C633.765 287.767 633.875 288.129 633.875 288.5C633.874 288.997 633.677 289.474 633.325 289.825C632.974 290.177 632.497 290.374 632 290.375ZM632 287.875C631.876 287.875 631.756 287.912 631.653 287.98C631.55 288.049 631.47 288.147 631.423 288.261C631.375 288.375 631.363 288.501 631.387 288.622C631.411 288.743 631.471 288.855 631.558 288.942C631.645 289.029 631.757 289.089 631.878 289.113C631.999 289.137 632.125 289.125 632.239 289.077C632.353 289.03 632.451 288.95 632.52 288.847C632.588 288.744 632.625 288.624 632.625 288.5C632.625 288.334 632.559 288.175 632.442 288.058C632.325 287.941 632.166 287.875 632 287.875Z" fill="white"/>
<path d="M628.875 304.75C628.504 304.75 628.142 304.64 627.833 304.434C627.525 304.228 627.285 303.935 627.143 303.593C627.001 303.25 626.964 302.873 627.036 302.509C627.108 302.145 627.287 301.811 627.549 301.549C627.811 301.287 628.145 301.108 628.509 301.036C628.873 300.964 629.25 301.001 629.593 301.143C629.935 301.285 630.228 301.525 630.434 301.833C630.64 302.142 630.75 302.504 630.75 302.875C630.749 303.372 630.552 303.849 630.2 304.2C629.849 304.552 629.372 304.749 628.875 304.75ZM628.875 302.25C628.751 302.25 628.631 302.287 628.528 302.355C628.425 302.424 628.345 302.522 628.298 302.636C628.25 302.75 628.238 302.876 628.262 302.997C628.286 303.118 628.346 303.23 628.433 303.317C628.52 303.404 628.632 303.464 628.753 303.488C628.874 303.512 629 303.5 629.114 303.452C629.228 303.405 629.326 303.325 629.395 303.222C629.463 303.119 629.5 302.999 629.5 302.875C629.5 302.709 629.434 302.55 629.317 302.433C629.2 302.316 629.041 302.25 628.875 302.25Z" fill="white"/>
<path d="M626.375 292.875C626.004 292.875 625.642 292.765 625.333 292.559C625.025 292.353 624.785 292.06 624.643 291.718C624.501 291.375 624.464 290.998 624.536 290.634C624.608 290.27 624.787 289.936 625.049 289.674C625.311 289.412 625.645 289.233 626.009 289.161C626.373 289.089 626.75 289.126 627.093 289.268C627.435 289.41 627.728 289.65 627.934 289.958C628.14 290.267 628.25 290.629 628.25 291C628.249 291.497 628.052 291.974 627.7 292.325C627.349 292.677 626.872 292.874 626.375 292.875ZM626.375 290.375C626.251 290.375 626.131 290.412 626.028 290.48C625.925 290.549 625.845 290.647 625.798 290.761C625.75 290.875 625.738 291.001 625.762 291.122C625.786 291.243 625.846 291.355 625.933 291.442C626.02 291.529 626.132 291.589 626.253 291.613C626.374 291.637 626.5 291.625 626.614 291.577C626.728 291.53 626.826 291.45 626.895 291.347C626.963 291.244 627 291.124 627 291C627 290.834 626.934 290.675 626.817 290.558C626.7 290.441 626.541 290.375 626.375 290.375Z" fill="white"/>
<path d="M635.125 304.75C634.754 304.75 634.392 304.64 634.083 304.434C633.775 304.228 633.535 303.935 633.393 303.593C633.251 303.25 633.214 302.873 633.286 302.509C633.358 302.145 633.537 301.811 633.799 301.549C634.061 301.287 634.395 301.108 634.759 301.036C635.123 300.964 635.5 301.001 635.843 301.143C636.185 301.285 636.478 301.525 636.684 301.833C636.89 302.142 637 302.504 637 302.875C636.999 303.372 636.802 303.849 636.45 304.2C636.099 304.552 635.622 304.749 635.125 304.75ZM635.125 302.25C635.001 302.25 634.881 302.287 634.778 302.355C634.675 302.424 634.595 302.522 634.548 302.636C634.5 302.75 634.488 302.876 634.512 302.997C634.536 303.118 634.596 303.23 634.683 303.317C634.77 303.404 634.882 303.464 635.003 303.488C635.124 303.512 635.25 303.5 635.364 303.452C635.478 303.405 635.576 303.325 635.645 303.222C635.713 303.119 635.75 302.999 635.75 302.875C635.75 302.709 635.684 302.55 635.567 302.433C635.45 302.316 635.291 302.25 635.125 302.25Z" fill="white"/>
<path d="M637.625 292.875C637.254 292.875 636.892 292.765 636.583 292.559C636.275 292.353 636.035 292.06 635.893 291.718C635.751 291.375 635.714 290.998 635.786 290.634C635.858 290.27 636.037 289.936 636.299 289.674C636.561 289.412 636.895 289.233 637.259 289.161C637.623 289.089 638 289.126 638.343 289.268C638.685 289.41 638.978 289.65 639.184 289.958C639.39 290.267 639.5 290.629 639.5 291C639.499 291.497 639.302 291.974 638.95 292.325C638.599 292.677 638.122 292.874 637.625 292.875ZM637.625 290.375C637.501 290.375 637.381 290.412 637.278 290.48C637.175 290.549 637.095 290.647 637.048 290.761C637 290.875 636.988 291.001 637.012 291.122C637.036 291.243 637.096 291.355 637.183 291.442C637.27 291.529 637.382 291.589 637.503 291.613C637.624 291.637 637.75 291.625 637.864 291.577C637.978 291.53 638.076 291.45 638.145 291.347C638.213 291.244 638.25 291.124 638.25 291C638.25 290.834 638.184 290.675 638.067 290.558C637.95 290.441 637.791 290.375 637.625 290.375Z" fill="white"/>
<path d="M624.5 299.125C624.129 299.125 623.767 299.015 623.458 298.809C623.15 298.603 622.91 298.31 622.768 297.968C622.626 297.625 622.589 297.248 622.661 296.884C622.733 296.52 622.912 296.186 623.174 295.924C623.436 295.662 623.77 295.483 624.134 295.411C624.498 295.339 624.875 295.376 625.218 295.518C625.56 295.66 625.853 295.9 626.059 296.208C626.265 296.517 626.375 296.879 626.375 297.25C626.374 297.747 626.177 298.224 625.825 298.575C625.474 298.927 624.997 299.124 624.5 299.125ZM624.5 296.625C624.376 296.625 624.256 296.662 624.153 296.73C624.05 296.799 623.97 296.897 623.923 297.011C623.875 297.125 623.863 297.251 623.887 297.372C623.911 297.493 623.971 297.605 624.058 297.692C624.145 297.779 624.257 297.839 624.378 297.863C624.499 297.887 624.625 297.875 624.739 297.827C624.853 297.78 624.951 297.7 625.02 297.597C625.088 297.494 625.125 297.374 625.125 297.25C625.125 297.084 625.059 296.925 624.942 296.808C624.825 296.691 624.666 296.625 624.5 296.625Z" fill="white"/>
<path d="M639.5 299.125C639.129 299.125 638.767 299.015 638.458 298.809C638.15 298.603 637.91 298.31 637.768 297.968C637.626 297.625 637.589 297.248 637.661 296.884C637.733 296.52 637.912 296.186 638.174 295.924C638.436 295.662 638.77 295.483 639.134 295.411C639.498 295.339 639.875 295.376 640.218 295.518C640.56 295.66 640.853 295.9 641.059 296.208C641.265 296.517 641.375 296.879 641.375 297.25C641.374 297.747 641.177 298.224 640.825 298.575C640.474 298.927 639.997 299.124 639.5 299.125ZM639.5 296.625C639.376 296.625 639.256 296.662 639.153 296.73C639.05 296.799 638.97 296.897 638.923 297.011C638.875 297.125 638.863 297.251 638.887 297.372C638.911 297.493 638.971 297.605 639.058 297.692C639.145 297.779 639.257 297.839 639.378 297.863C639.499 297.887 639.625 297.875 639.739 297.827C639.853 297.78 639.951 297.7 640.02 297.597C640.088 297.494 640.125 297.374 640.125 297.25C640.125 297.084 640.059 296.925 639.942 296.808C639.825 296.691 639.666 296.625 639.5 296.625Z" fill="white"/>
<path d="M632 299.75C631.258 299.75 630.533 299.53 629.917 299.118C629.3 298.706 628.819 298.12 628.535 297.435C628.252 296.75 628.177 295.996 628.322 295.268C628.467 294.541 628.824 293.873 629.348 293.348C629.873 292.824 630.541 292.467 631.268 292.322C631.996 292.177 632.75 292.252 633.435 292.535C634.12 292.819 634.706 293.3 635.118 293.917C635.53 294.533 635.75 295.258 635.75 296C635.749 296.994 635.353 297.947 634.65 298.65C633.947 299.353 632.994 299.749 632 299.75ZM632 293.5C631.506 293.5 631.022 293.647 630.611 293.921C630.2 294.196 629.88 294.586 629.69 295.043C629.501 295.5 629.452 296.003 629.548 296.488C629.645 296.973 629.883 297.418 630.232 297.768C630.582 298.117 631.027 298.356 631.512 298.452C631.997 298.548 632.5 298.499 632.957 298.31C633.414 298.12 633.804 297.8 634.079 297.389C634.353 296.978 634.5 296.494 634.5 296C634.499 295.337 634.236 294.702 633.767 294.233C633.298 293.764 632.663 293.501 632 293.5Z" fill="white"/>
<text fill="black" xml:space="preserve" style="white-space: pre" font-family="IBM Plex Sans" font-size="14" font-weight="600" letter-spacing="0.16px"><tspan x="602.164" y="342.25">Cluster 2</tspan></text>
<rect width="48" height="48" transform="translate(768 272)" fill="#8D8D8D"/>
<rect width="20" height="20" transform="translate(782 286)" fill="white" style="mix-blend-mode:multiply"/>
<path d="M792 290.375C791.629 290.375 791.267 290.265 790.958 290.059C790.65 289.853 790.41 289.56 790.268 289.218C790.126 288.875 790.089 288.498 790.161 288.134C790.233 287.77 790.412 287.436 790.674 287.174C790.936 286.912 791.27 286.733 791.634 286.661C791.998 286.589 792.375 286.626 792.718 286.768C793.06 286.91 793.353 287.15 793.559 287.458C793.765 287.767 793.875 288.129 793.875 288.5C793.874 288.997 793.677 289.474 793.325 289.825C792.974 290.177 792.497 290.374 792 290.375ZM792 287.875C791.876 287.875 791.756 287.912 791.653 287.98C791.55 288.049 791.47 288.147 791.423 288.261C791.375 288.375 791.363 288.501 791.387 288.622C791.411 288.743 791.471 288.855 791.558 288.942C791.645 289.029 791.757 289.089 791.878 289.113C791.999 289.137 792.125 289.125 792.239 289.077C792.353 289.03 792.451 288.95 792.52 288.847C792.588 288.744 792.625 288.624 792.625 288.5C792.625 288.334 792.559 288.175 792.442 288.058C792.325 287.941 792.166 287.875 792 287.875Z" fill="white"/>
<path d="M788.875 304.75C788.504 304.75 788.142 304.64 787.833 304.434C787.525 304.228 787.285 303.935 787.143 303.593C787.001 303.25 786.964 302.873 787.036 302.509C787.108 302.145 787.287 301.811 787.549 301.549C787.811 301.287 788.145 301.108 788.509 301.036C788.873 300.964 789.25 301.001 789.593 301.143C789.935 301.285 790.228 301.525 790.434 301.833C790.64 302.142 790.75 302.504 790.75 302.875C790.749 303.372 790.552 303.849 790.2 304.2C789.849 304.552 789.372 304.749 788.875 304.75ZM788.875 302.25C788.751 302.25 788.631 302.287 788.528 302.355C788.425 302.424 788.345 302.522 788.298 302.636C788.25 302.75 788.238 302.876 788.262 302.997C788.286 303.118 788.346 303.23 788.433 303.317C788.52 303.404 788.632 303.464 788.753 303.488C788.874 303.512 789 303.5 789.114 303.452C789.228 303.405 789.326 303.325 789.395 303.222C789.463 303.119 789.5 302.999 789.5 302.875C789.5 302.709 789.434 302.55 789.317 302.433C789.2 302.316 789.041 302.25 788.875 302.25Z" fill="white"/>
<path d="M786.375 292.875C786.004 292.875 785.642 292.765 785.333 292.559C785.025 292.353 784.785 292.06 784.643 291.718C784.501 291.375 784.464 290.998 784.536 290.634C784.608 290.27 784.787 289.936 785.049 289.674C785.311 289.412 785.645 289.233 786.009 289.161C786.373 289.089 786.75 289.126 787.093 289.268C787.435 289.41 787.728 289.65 787.934 289.958C788.14 290.267 788.25 290.629 788.25 291C788.249 291.497 788.052 291.974 787.7 292.325C787.349 292.677 786.872 292.874 786.375 292.875ZM786.375 290.375C786.251 290.375 786.131 290.412 786.028 290.48C785.925 290.549 785.845 290.647 785.798 290.761C785.75 290.875 785.738 291.001 785.762 291.122C785.786 291.243 785.846 291.355 785.933 291.442C786.02 291.529 786.132 291.589 786.253 291.613C786.374 291.637 786.5 291.625 786.614 291.577C786.728 291.53 786.826 291.45 786.895 291.347C786.963 291.244 787 291.124 787 291C787 290.834 786.934 290.675 786.817 290.558C786.7 290.441 786.541 290.375 786.375 290.375Z" fill="white"/>
<path d="M795.125 304.75C794.754 304.75 794.392 304.64 794.083 304.434C793.775 304.228 793.535 303.935 793.393 303.593C793.251 303.25 793.214 302.873 793.286 302.509C793.358 302.145 793.537 301.811 793.799 301.549C794.061 301.287 794.395 301.108 794.759 301.036C795.123 300.964 795.5 301.001 795.843 301.143C796.185 301.285 796.478 301.525 796.684 301.833C796.89 302.142 797 302.504 797 302.875C796.999 303.372 796.802 303.849 796.45 304.2C796.099 304.552 795.622 304.749 795.125 304.75ZM795.125 302.25C795.001 302.25 794.881 302.287 794.778 302.355C794.675 302.424 794.595 302.522 794.548 302.636C794.5 302.75 794.488 302.876 794.512 302.997C794.536 303.118 794.596 303.23 794.683 303.317C794.77 303.404 794.882 303.464 795.003 303.488C795.124 303.512 795.25 303.5 795.364 303.452C795.478 303.405 795.576 303.325 795.645 303.222C795.713 303.119 795.75 302.999 795.75 302.875C795.75 302.709 795.684 302.55 795.567 302.433C795.45 302.316 795.291 302.25 795.125 302.25Z" fill="white"/>
<path d="M797.625 292.875C797.254 292.875 796.892 292.765 796.583 292.559C796.275 292.353 796.035 292.06 795.893 291.718C795.751 291.375 795.714 290.998 795.786 290.634C795.858 290.27 796.037 289.936 796.299 289.674C796.561 289.412 796.895 289.233 797.259 289.161C797.623 289.089 798 289.126 798.343 289.268C798.685 289.41 798.978 289.65 799.184 289.958C799.39 290.267 799.5 290.629 799.5 291C799.499 291.497 799.302 291.974 798.95 292.325C798.599 292.677 798.122 292.874 797.625 292.875ZM797.625 290.375C797.501 290.375 797.381 290.412 797.278 290.48C797.175 290.549 797.095 290.647 797.048 290.761C797 290.875 796.988 291.001 797.012 291.122C797.036 291.243 797.096 291.355 797.183 291.442C797.27 291.529 797.382 291.589 797.503 291.613C797.624 291.637 797.75 291.625 797.864 291.577C797.978 291.53 798.076 291.45 798.145 291.347C798.213 291.244 798.25 291.124 798.25 291C798.25 290.834 798.184 290.675 798.067 290.558C797.95 290.441 797.791 290.375 797.625 290.375Z" fill="white"/>
<path d="M784.5 299.125C784.129 299.125 783.767 299.015 783.458 298.809C783.15 298.603 782.91 298.31 782.768 297.968C782.626 297.625 782.589 297.248 782.661 296.884C782.733 296.52 782.912 296.186 783.174 295.924C783.436 295.662 783.77 295.483 784.134 295.411C784.498 295.339 784.875 295.376 785.218 295.518C785.56 295.66 785.853 295.9 786.059 296.208C786.265 296.517 786.375 296.879 786.375 297.25C786.374 297.747 786.177 298.224 785.825 298.575C785.474 298.927 784.997 299.124 784.5 299.125ZM784.5 296.625C784.376 296.625 784.256 296.662 784.153 296.73C784.05 296.799 783.97 296.897 783.923 297.011C783.875 297.125 783.863 297.251 783.887 297.372C783.911 297.493 783.971 297.605 784.058 297.692C784.145 297.779 784.257 297.839 784.378 297.863C784.499 297.887 784.625 297.875 784.739 297.827C784.853 297.78 784.951 297.7 785.02 297.597C785.088 297.494 785.125 297.374 785.125 297.25C785.125 297.084 785.059 296.925 784.942 296.808C784.825 296.691 784.666 296.625 784.5 296.625Z" fill="white"/>
<path d="M799.5 299.125C799.129 299.125 798.767 299.015 798.458 298.809C798.15 298.603 797.91 298.31 797.768 297.968C797.626 297.625 797.589 297.248 797.661 296.884C797.733 296.52 797.912 296.186 798.174 295.924C798.436 295.662 798.77 295.483 799.134 295.411C799.498 295.339 799.875 295.376 800.218 295.518C800.56 295.66 800.853 295.9 801.059 296.208C801.265 296.517 801.375 296.879 801.375 297.25C801.374 297.747 801.177 298.224 800.825 298.575C800.474 298.927 799.997 299.124 799.5 299.125ZM799.5 296.625C799.376 296.625 799.256 296.662 799.153 296.73C799.05 296.799 798.97 296.897 798.923 297.011C798.875 297.125 798.863 297.251 798.887 297.372C798.911 297.493 798.971 297.605 799.058 297.692C799.145 297.779 799.257 297.839 799.378 297.863C799.499 297.887 799.625 297.875 799.739 297.827C799.853 297.78 799.951 297.7 800.02 297.597C800.088 297.494 800.125 297.374 800.125 297.25C800.125 297.084 800.059 296.925 799.942 296.808C799.825 296.691 799.666 296.625 799.5 296.625Z" fill="white"/>
<path d="M792 299.75C791.258 299.75 790.533 299.53 789.917 299.118C789.3 298.706 788.819 298.12 788.535 297.435C788.252 296.75 788.177 295.996 788.322 295.268C788.467 294.541 788.824 293.873 789.348 293.348C789.873 292.824 790.541 292.467 791.268 292.322C791.996 292.177 792.75 292.252 793.435 292.535C794.12 292.819 794.706 293.3 795.118 293.917C795.53 294.533 795.75 295.258 795.75 296C795.749 296.994 795.353 297.947 794.65 298.65C793.947 299.353 792.994 299.749 792 299.75ZM792 293.5C791.506 293.5 791.022 293.647 790.611 293.921C790.2 294.196 789.88 294.586 789.69 295.043C789.501 295.5 789.452 296.003 789.548 296.488C789.645 296.973 789.883 297.418 790.232 297.768C790.582 298.117 791.027 298.356 791.512 298.452C791.997 298.548 792.5 298.499 792.957 298.31C793.414 298.12 793.804 297.8 794.079 297.389C794.353 296.978 794.5 296.494 794.5 296C794.499 295.337 794.236 294.702 793.767 294.233C793.298 293.764 792.663 293.501 792 293.5Z" fill="white"/>
<text fill="black" xml:space="preserve" style="white-space: pre" font-family="IBM Plex Sans" font-size="14" font-weight="600" letter-spacing="0.16px"><tspan x="762.164" y="342.25">Cluster 3</tspan></text>
<rect x="928.5" y="272.5" width="47" height="47" fill="white"/>
<rect width="20" height="20" transform="translate(942 286)" fill="white" style="mix-blend-mode:multiply"/>
<path d="M952 290.375C951.629 290.375 951.267 290.265 950.958 290.059C950.65 289.853 950.41 289.56 950.268 289.218C950.126 288.875 950.089 288.498 950.161 288.134C950.233 287.77 950.412 287.436 950.674 287.174C950.936 286.912 951.27 286.733 951.634 286.661C951.998 286.589 952.375 286.626 952.718 286.768C953.06 286.91 953.353 287.15 953.559 287.458C953.765 287.767 953.875 288.129 953.875 288.5C953.874 288.997 953.677 289.474 953.325 289.825C952.974 290.177 952.497 290.374 952 290.375ZM952 287.875C951.876 287.875 951.756 287.912 951.653 287.98C951.55 288.049 951.47 288.147 951.423 288.261C951.375 288.375 951.363 288.501 951.387 288.622C951.411 288.743 951.471 288.855 951.558 288.942C951.645 289.029 951.757 289.089 951.878 289.113C951.999 289.137 952.125 289.125 952.239 289.077C952.353 289.03 952.451 288.95 952.52 288.847C952.588 288.744 952.625 288.624 952.625 288.5C952.625 288.334 952.559 288.175 952.442 288.058C952.325 287.941 952.166 287.875 952 287.875Z" fill="black"/>
<path d="M948.875 304.75C948.504 304.75 948.142 304.64 947.833 304.434C947.525 304.228 947.285 303.935 947.143 303.593C947.001 303.25 946.964 302.873 947.036 302.509C947.108 302.145 947.287 301.811 947.549 301.549C947.811 301.287 948.145 301.108 948.509 301.036C948.873 300.964 949.25 301.001 949.593 301.143C949.935 301.285 950.228 301.525 950.434 301.833C950.64 302.142 950.75 302.504 950.75 302.875C950.749 303.372 950.552 303.849 950.2 304.2C949.849 304.552 949.372 304.749 948.875 304.75ZM948.875 302.25C948.751 302.25 948.631 302.287 948.528 302.355C948.425 302.424 948.345 302.522 948.298 302.636C948.25 302.75 948.238 302.876 948.262 302.997C948.286 303.118 948.346 303.23 948.433 303.317C948.52 303.404 948.632 303.464 948.753 303.488C948.874 303.512 949 303.5 949.114 303.452C949.228 303.405 949.326 303.325 949.395 303.222C949.463 303.119 949.5 302.999 949.5 302.875C949.5 302.709 949.434 302.55 949.317 302.433C949.2 302.316 949.041 302.25 948.875 302.25Z" fill="black"/>
<path d="M946.375 292.875C946.004 292.875 945.642 292.765 945.333 292.559C945.025 292.353 944.785 292.06 944.643 291.718C944.501 291.375 944.464 290.998 944.536 290.634C944.608 290.27 944.787 289.936 945.049 289.674C945.311 289.412 945.645 289.233 946.009 289.161C946.373 289.089 946.75 289.126 947.093 289.268C947.435 289.41 947.728 289.65 947.934 289.958C948.14 290.267 948.25 290.629 948.25 291C948.249 291.497 948.052 291.974 947.7 292.325C947.349 292.677 946.872 292.874 946.375 292.875ZM946.375 290.375C946.251 290.375 946.131 290.412 946.028 290.48C945.925 290.549 945.845 290.647 945.798 290.761C945.75 290.875 945.738 291.001 945.762 291.122C945.786 291.243 945.846 291.355 945.933 291.442C946.02 291.529 946.132 291.589 946.253 291.613C946.374 291.637 946.5 291.625 946.614 291.577C946.728 291.53 946.826 291.45 946.895 291.347C946.963 291.244 947 291.124 947 291C947 290.834 946.934 290.675 946.817 290.558C946.7 290.441 946.541 290.375 946.375 290.375Z" fill="black"/>
<path d="M955.125 304.75C954.754 304.75 954.392 304.64 954.083 304.434C953.775 304.228 953.535 303.935 953.393 303.593C953.251 303.25 953.214 302.873 953.286 302.509C953.358 302.145 953.537 301.811 953.799 301.549C954.061 301.287 954.395 301.108 954.759 301.036C955.123 300.964 955.5 301.001 955.843 301.143C956.185 301.285 956.478 301.525 956.684 301.833C956.89 302.142 957 302.504 957 302.875C956.999 303.372 956.802 303.849 956.45 304.2C956.099 304.552 955.622 304.749 955.125 304.75ZM955.125 302.25C955.001 302.25 954.881 302.287 954.778 302.355C954.675 302.424 954.595 302.522 954.548 302.636C954.5 302.75 954.488 302.876 954.512 302.997C954.536 303.118 954.596 303.23 954.683 303.317C954.77 303.404 954.882 303.464 955.003 303.488C955.124 303.512 955.25 303.5 955.364 303.452C955.478 303.405 955.576 303.325 955.645 303.222C955.713 303.119 955.75 302.999 955.75 302.875C955.75 302.709 955.684 302.55 955.567 302.433C955.45 302.316 955.291 302.25 955.125 302.25Z" fill="black"/>
<path d="M957.625 292.875C957.254 292.875 956.892 292.765 956.583 292.559C956.275 292.353 956.035 292.06 955.893 291.718C955.751 291.375 955.714 290.998 955.786 290.634C955.858 290.27 956.037 289.936 956.299 289.674C956.561 289.412 956.895 289.233 957.259 289.161C957.623 289.089 958 289.126 958.343 289.268C958.685 289.41 958.978 289.65 959.184 289.958C959.39 290.267 959.5 290.629 959.5 291C959.499 291.497 959.302 291.974 958.95 292.325C958.599 292.677 958.122 292.874 957.625 292.875ZM957.625 290.375C957.501 290.375 957.381 290.412 957.278 290.48C957.175 290.549 957.095 290.647 957.048 290.761C957 290.875 956.988 291.001 957.012 291.122C957.036 291.243 957.096 291.355 957.183 291.442C957.27 291.529 957.382 291.589 957.503 291.613C957.624 291.637 957.75 291.625 957.864 291.577C957.978 291.53 958.076 291.45 958.145 291.347C958.213 291.244 958.25 291.124 958.25 291C958.25 290.834 958.184 290.675 958.067 290.558C957.95 290.441 957.791 290.375 957.625 290.375Z" fill="black"/>
<path d="M944.5 299.125C944.129 299.125 943.767 299.015 943.458 298.809C943.15 298.603 942.91 298.31 942.768 297.968C942.626 297.625 942.589 297.248 942.661 296.884C942.733 296.52 942.912 296.186 943.174 295.924C943.436 295.662 943.77 295.483 944.134 295.411C944.498 295.339 944.875 295.376 945.218 295.518C945.56 295.66 945.853 295.9 946.059 296.208C946.265 296.517 946.375 296.879 946.375 297.25C946.374 297.747 946.177 298.224 945.825 298.575C945.474 298.927 944.997 299.124 944.5 299.125ZM944.5 296.625C944.376 296.625 944.256 296.662 944.153 296.73C944.05 296.799 943.97 296.897 943.923 297.011C943.875 297.125 943.863 297.251 943.887 297.372C943.911 297.493 943.971 297.605 944.058 297.692C944.145 297.779 944.257 297.839 944.378 297.863C944.499 297.887 944.625 297.875 944.739 297.827C944.853 297.78 944.951 297.7 945.02 297.597C945.088 297.494 945.125 297.374 945.125 297.25C945.125 297.084 945.059 296.925 944.942 296.808C944.825 296.691 944.666 296.625 944.5 296.625Z" fill="black"/>
<path d="M959.5 299.125C959.129 299.125 958.767 299.015 958.458 298.809C958.15 298.603 957.91 298.31 957.768 297.968C957.626 297.625 957.589 297.248 957.661 296.884C957.733 296.52 957.912 296.186 958.174 295.924C958.436 295.662 958.77 295.483 959.134 295.411C959.498 295.339 959.875 295.376 960.218 295.518C960.56 295.66 960.853 295.9 961.059 296.208C961.265 296.517 961.375 296.879 961.375 297.25C961.374 297.747 961.177 298.224 960.825 298.575C960.474 298.927 959.997 299.124 959.5 299.125ZM959.5 296.625C959.376 296.625 959.256 296.662 959.153 296.73C959.05 296.799 958.97 296.897 958.923 297.011C958.875 297.125 958.863 297.251 958.887 297.372C958.911 297.493 958.971 297.605 959.058 297.692C959.145 297.779 959.257 297.839 959.378 297.863C959.499 297.887 959.625 297.875 959.739 297.827C959.853 297.78 959.951 297.7 960.02 297.597C960.088 297.494 960.125 297.374 960.125 297.25C960.125 297.084 960.059 296.925 959.942 296.808C959.825 296.691 959.666 296.625 959.5 296.625Z" fill="black"/>
<path d="M952 299.75C951.258 299.75 950.533 299.53 949.917 299.118C949.3 298.706 948.819 298.12 948.535 297.435C948.252 296.75 948.177 295.996 948.322 295.268C948.467 294.541 948.824 293.873 949.348 293.348C949.873 292.824 950.541 292.467 951.268 292.322C951.996 292.177 952.75 292.252 953.435 292.535C954.12 292.819 954.706 293.3 955.118 293.917C955.53 294.533 955.75 295.258 955.75 296C955.749 296.994 955.353 297.947 954.65 298.65C953.947 299.353 952.994 299.749 952 299.75ZM952 293.5C951.506 293.5 951.022 293.647 950.611 293.921C950.2 294.196 949.88 294.586 949.69 295.043C949.501 295.5 949.452 296.003 949.548 296.488C949.645 296.973 949.883 297.418 950.232 297.768C950.582 298.117 951.027 298.356 951.512 298.452C951.997 298.548 952.5 298.499 952.957 298.31C953.414 298.12 953.804 297.8 954.079 297.389C954.353 296.978 954.5 296.494 954.5 296C954.499 295.337 954.236 294.702 953.767 294.233C953.298 293.764 952.663 293.501 952 293.5Z" fill="black"/>
<rect x="928.5" y="272.5" width="47" height="47" stroke="#6F6F6F" stroke-dasharray="4 4"/>
<text fill="#8D8D8D" xml:space="preserve" style="white-space: pre" font-family="IBM Plex Sans" font-size="14" font-weight="600" letter-spacing="0.16px"><tspan x="922.246" y="342.25">Cluster n</tspan></text>
<rect x="240.5" y="176.5" width="47" height="47" rx="7.5" fill="#EDF5FF"/>
<rect width="20" height="20" transform="translate(254 190)" fill="white" style="mix-blend-mode:multiply"/>
<path d="M271.5 198.754H270.875V191.254H269.625V198.754H269C268.669 198.754 268.351 198.886 268.116 199.12C267.882 199.355 267.75 199.672 267.75 200.004V201.254C267.75 201.585 267.882 201.903 268.117 202.137C268.351 202.372 268.669 202.504 269 202.504H269.625V208.754H270.875V202.504H271.5C271.831 202.503 272.149 202.372 272.383 202.137C272.618 201.903 272.75 201.585 272.75 201.254V200.004C272.75 199.673 272.618 199.355 272.383 199.12C272.149 198.886 271.831 198.754 271.5 198.754ZM271.5 201.254H269V200.004H271.5V201.254Z" fill="black"/>
<path d="M265.25 193.754H264.625V191.254H263.375V193.754H262.75C262.419 193.754 262.101 193.886 261.866 194.12C261.632 194.355 261.5 194.672 261.5 195.004V196.254C261.5 196.585 261.632 196.903 261.866 197.137C262.101 197.372 262.419 197.504 262.75 197.504H263.375V208.754H264.625V197.504H265.25C265.581 197.504 265.899 197.372 266.134 197.137C266.368 196.903 266.5 196.585 266.5 196.254V195.004C266.5 194.672 266.368 194.355 266.134 194.12C265.899 193.886 265.581 193.754 265.25 193.754ZM265.25 196.254H262.75V195.004H265.25V196.254Z" fill="black"/>
<path d="M259 202.504H258.375V191.254H257.125V202.504H256.5C256.169 202.504 255.851 202.636 255.617 202.87C255.382 203.105 255.25 203.423 255.25 203.754V205.004C255.25 205.335 255.382 205.653 255.617 205.887C255.851 206.122 256.169 206.254 256.5 206.254H257.125V208.754H258.375V206.254H259C259.331 206.254 259.649 206.122 259.883 205.887C260.118 205.653 260.25 205.335 260.25 205.004V203.754C260.25 203.423 260.118 203.105 259.883 202.87C259.649 202.636 259.331 202.504 259 202.504ZM259 205.004H256.5V203.754H259V205.004Z" fill="black"/>
<rect x="240.5" y="176.5" width="47" height="47" rx="7.5" stroke="#0F62FE"/>
<text fill="black" xml:space="preserve" style="white-space: pre" font-family="IBM Plex Sans" font-size="14" font-weight="600" letter-spacing="0.16px"><tspan x="296" y="196.25">Control &#10;</tspan><tspan x="296" y="214.25">plane</tspan></text>
<rect x="48.5" y="472.5" width="15" height="15" fill="#F4F4F4"/>
<rect x="48.5" y="472.5" width="15" height="15" stroke="#8D8D8D" stroke-dasharray="4 4"/>
<text fill="#6F6F6F" xml:space="preserve" style="white-space: pre" font-family="IBM Plex Sans" font-size="14" letter-spacing="0.16px"><tspan x="72" y="485.25">Clusters 4 to n</tspan></text>
<defs>
<clipPath id="clip0_22_27">
<rect width="137" height="48" fill="white" transform="translate(48 48)"/>
</clipPath>
<clipPath id="clip1_22_27">
<rect width="20" height="20" fill="white" transform="translate(64 62)"/>
</clipPath>
<clipPath id="clip2_22_27">
<rect width="213" height="48" fill="white" transform="translate(416 48)"/>
</clipPath>
<clipPath id="clip3_22_27">
<rect width="181" height="48" fill="white" transform="translate(192 112)"/>
</clipPath>
<clipPath id="clip4_22_27">
<rect width="20" height="20" fill="white" transform="translate(208 126)"/>
</clipPath>
</defs>
</svg>
