<svg width="1080" height="540" viewBox="0 0 1080 540" fill="none" xmlns="http://www.w3.org/2000/svg">
<rect width="1080" height="540" fill="#B0ADAD"/>
<rect x="-3587" y="-10089" width="19980" height="19930" fill="white" style="mix-blend-mode:multiply"/>
<rect x="-3587" y="-10089" width="19980" height="19930" stroke="#161616" stroke-width="20"/>
<rect width="1080" height="540" fill="#F4F4F4"/>
<rect x="48.5" y="48.5" width="143" height="391" fill="white"/>
<rect x="49" y="49" width="142" height="390" fill="#EDF5FF"/>
<g clip-path="url(#clip0_22_27)">
<line x1="50" y1="48" x2="50" y2="96" stroke="#0F62FE" stroke-width="4"/>
<g clip-path="url(#clip1_22_27)">
<rect width="20" height="20" transform="translate(64 62)" fill="white" style="mix-blend-mode:multiply"/>
<path d="M79.3637 70.5322C78.7425 69.3683 77.7598 68.4378 76.5637 67.8812C75.3675 67.3245 74.0228 67.1718 72.7324 67.4461C71.4419 67.7204 70.2755 68.4069 69.4092 69.4019C68.5429 70.397 68.0236 71.6467 67.9296 72.9627C66.8564 73.0781 65.8683 73.6004 65.1686 74.4222C64.4688 75.2441 64.1107 76.3028 64.1679 77.3807C64.225 78.4585 64.6932 79.4735 65.4759 80.2167C66.2587 80.9598 67.2965 81.3747 68.3759 81.376H78.3759C79.7404 81.3768 81.056 80.8673 82.0639 79.9475C83.0719 79.0278 83.6995 77.7643 83.8233 76.4053C83.947 75.0464 83.5581 73.6903 82.7329 72.6036C81.9077 71.5168 80.7059 70.778 79.3637 70.5322ZM78.3759 80.4385H68.3759C67.5443 80.4404 66.7433 80.1258 66.1353 79.5585C65.5273 78.9912 65.158 78.2138 65.1024 77.3842C65.0467 76.5545 65.3089 75.7348 65.8357 75.0914C66.3626 74.448 67.1145 74.0293 67.9388 73.9202C68.0049 74.7473 68.2397 75.5521 68.6286 76.285C68.6567 76.3409 68.6958 76.3906 68.7434 76.4311C68.7911 76.4717 68.8464 76.5023 68.9061 76.5211C68.9657 76.5399 69.0286 76.5466 69.0909 76.5408C69.1532 76.535 69.2137 76.5167 69.2688 76.4871C69.3239 76.4575 69.3726 76.4172 69.4119 76.3685C69.4512 76.3199 69.4804 76.2638 69.4977 76.2037C69.5149 76.1435 69.52 76.0805 69.5126 76.0184C69.5052 75.9563 69.4854 75.8963 69.4544 75.8419C68.8348 74.6837 68.6806 73.3326 69.0234 72.0645C69.3661 70.7965 70.1798 69.707 71.2985 69.0186C72.4172 68.3301 73.7565 68.0945 75.0429 68.36C76.3294 68.6254 77.466 69.3718 78.2209 70.4468C77.4718 70.4674 76.735 70.6418 76.056 70.9589C75.3771 71.2761 74.7705 71.7293 74.274 72.2905C74.2317 72.3364 74.199 72.3903 74.1778 72.449C74.1566 72.5077 74.1474 72.57 74.1506 72.6324C74.1538 72.6947 74.1695 72.7557 74.1966 72.8119C74.2237 72.8681 74.2618 72.9184 74.3086 72.9596C74.3554 73.0009 74.41 73.0325 74.4691 73.0524C74.5282 73.0723 74.5908 73.0802 74.653 73.0757C74.7152 73.0711 74.7759 73.0541 74.8315 73.0258C74.8872 72.9975 74.9365 72.9583 74.9768 72.9107C75.4776 72.3427 76.1127 71.9092 76.8241 71.6499C77.5355 71.3906 78.3006 71.3138 79.0494 71.4263C79.7982 71.5389 80.5068 71.8373 81.1106 72.2943C81.7143 72.7513 82.1939 73.3524 82.5055 74.0425C82.8171 74.7326 82.9508 75.4898 82.8944 76.2449C82.838 77 82.5932 77.729 82.1825 78.3651C81.7718 79.0012 81.2082 79.5243 80.5432 79.8865C79.8782 80.2487 79.1331 80.4385 78.3759 80.4385Z" fill="black"/>
<path d="M83.9373 68.4102C83.9062 68.3563 83.8648 68.309 83.8154 68.2711C83.766 68.2331 83.7096 68.2053 83.6494 68.1892C83.5892 68.1731 83.5265 68.169 83.4648 68.1771C83.403 68.1853 83.3435 68.2055 83.2896 68.2367L81.4021 69.3266C81.3466 69.3569 81.2978 69.398 81.2585 69.4475C81.2192 69.4969 81.1901 69.5537 81.1731 69.6145C81.156 69.6754 81.1513 69.739 81.1591 69.8017C81.167 69.8644 81.1873 69.9249 81.2189 69.9796C81.2505 70.0343 81.2927 70.0822 81.343 70.1204C81.3933 70.1586 81.4508 70.1863 81.512 70.202C81.5732 70.2177 81.6369 70.2209 81.6994 70.2116C81.7619 70.2023 81.8219 70.1807 81.8759 70.1479L83.7634 69.058C83.8723 68.9951 83.9519 68.8916 83.9845 68.7701C84.0171 68.6486 84.0001 68.5192 83.9373 68.4102Z" fill="black"/>
<path d="M78.1736 66.9197C78.2275 66.9509 78.2871 66.9711 78.3488 66.9793C78.4106 66.9874 78.4733 66.9833 78.5335 66.9672C78.5936 66.9511 78.65 66.9233 78.6994 66.8854C78.7488 66.8475 78.7903 66.8002 78.8214 66.7462L79.9112 64.8587C79.973 64.7499 79.9893 64.621 79.9564 64.5003C79.9236 64.3795 79.8444 64.2766 79.736 64.214C79.6276 64.1515 79.4989 64.1343 79.3779 64.1662C79.2569 64.1981 79.1534 64.2766 79.09 64.3845L78.0001 66.272C77.9373 66.3809 77.9202 66.5103 77.9528 66.6318C77.9853 66.7532 78.0647 66.8568 78.1736 66.9197Z" fill="black"/>
<path d="M74.0009 65.8017C74.1266 65.8016 74.2473 65.7517 74.3362 65.6627C74.4251 65.5738 74.4751 65.4532 74.4751 65.3274V63.1477C74.4758 63.0849 74.4641 63.0227 74.4406 62.9645C74.4171 62.9063 74.3823 62.8534 74.3382 62.8088C74.2941 62.7642 74.2415 62.7288 74.1836 62.7046C74.1258 62.6804 74.0636 62.668 74.0009 62.668C73.9382 62.668 73.8761 62.6804 73.8182 62.7046C73.7603 62.7288 73.7077 62.7642 73.6636 62.8088C73.6195 62.8534 73.5847 62.9063 73.5612 62.9645C73.5377 63.0227 73.526 63.0849 73.5267 63.1477V65.3274C73.5267 65.4532 73.5767 65.5738 73.6656 65.6627C73.7545 65.7517 73.8751 65.8016 74.0009 65.8017Z" fill="black"/>
<path d="M69.1804 66.7461C69.2438 66.854 69.3473 66.9325 69.4683 66.9644C69.5893 66.9963 69.718 66.9791 69.8264 66.9165C69.9348 66.854 70.014 66.7511 70.0469 66.6303C70.0797 66.5095 70.0635 66.3807 70.0017 66.2719L68.9118 64.3844C68.8809 64.3299 68.8396 64.2822 68.7902 64.2438C68.7407 64.2054 68.6842 64.1772 68.6238 64.1608C68.5634 64.1444 68.5004 64.1401 68.4384 64.1482C68.3763 64.1562 68.3165 64.1765 68.2623 64.2078C68.2081 64.2391 68.1606 64.2808 68.1226 64.3305C68.0847 64.3802 68.0569 64.4369 68.0409 64.4974C68.025 64.5579 68.0211 64.621 68.0296 64.683C68.0382 64.745 68.0589 64.8047 68.0906 64.8586L69.1804 66.7461Z" fill="black"/>
<path d="M66.5999 69.3266L64.7124 68.2367C64.6585 68.205 64.5988 68.1843 64.5368 68.1758C64.4748 68.1673 64.4118 68.1711 64.3513 68.1871C64.2908 68.203 64.234 68.2308 64.1843 68.2688C64.1346 68.3068 64.0929 68.3543 64.0616 68.4084C64.0303 68.4626 64.0101 68.5225 64.002 68.5845C63.9939 68.6466 63.9982 68.7096 64.0147 68.77C64.0311 68.8304 64.0593 68.8869 64.0976 68.9363C64.136 68.9857 64.1838 69.0271 64.2382 69.058L66.1259 70.1479C66.1798 70.1795 66.2395 70.2003 66.3015 70.2088C66.3635 70.2173 66.4265 70.2135 66.487 70.1975C66.5475 70.1815 66.6043 70.1538 66.654 70.1158C66.7037 70.0778 66.7454 70.0303 66.7767 69.9761C66.808 69.9219 66.8283 69.8621 66.8363 69.8001C66.8444 69.738 66.8401 69.675 66.8237 69.6146C66.8072 69.5542 66.779 69.4977 66.7407 69.4483C66.7023 69.3988 66.6544 69.3575 66.5999 69.3266Z" fill="black"/>
</g>
<text fill="black" xml:space="preserve" style="white-space: pre" font-family="IBM Plex Sans" font-size="14" font-weight="600" letter-spacing="0.16px"><tspan x="100" y="77.25">IBM Cloud</tspan></text>
</g>
<rect x="48.5" y="48.5" width="143" height="391" stroke="#0F62FE"/>
<rect x="96" y="184" width="48" height="48" rx="8" fill="#0F62FE"/>
<rect width="20" height="20" transform="translate(110 198)" fill="white" style="mix-blend-mode:multiply"/>
<path d="M127.5 206.754H126.875V199.254H125.625V206.754H125C124.669 206.754 124.351 206.886 124.116 207.12C123.882 207.355 123.75 207.672 123.75 208.004V209.254C123.75 209.585 123.882 209.903 124.117 210.137C124.351 210.372 124.669 210.504 125 210.504H125.625V216.754H126.875V210.504H127.5C127.831 210.503 128.149 210.372 128.383 210.137C128.618 209.903 128.75 209.585 128.75 209.254V208.004C128.75 207.673 128.618 207.355 128.383 207.12C128.149 206.886 127.831 206.754 127.5 206.754ZM127.5 209.254H125V208.004H127.5V209.254Z" fill="white"/>
<path d="M121.25 201.754H120.625V199.254H119.375V201.754H118.75C118.419 201.754 118.101 201.886 117.866 202.12C117.632 202.355 117.5 202.672 117.5 203.004V204.254C117.5 204.585 117.632 204.903 117.866 205.137C118.101 205.372 118.419 205.504 118.75 205.504H119.375V216.754H120.625V205.504H121.25C121.581 205.504 121.899 205.372 122.134 205.137C122.368 204.903 122.5 204.585 122.5 204.254V203.004C122.5 202.672 122.368 202.355 122.134 202.12C121.899 201.886 121.581 201.754 121.25 201.754ZM121.25 204.254H118.75V203.004H121.25V204.254Z" fill="white"/>
<path d="M115 210.504H114.375V199.254H113.125V210.504H112.5C112.169 210.504 111.851 210.636 111.617 210.87C111.382 211.105 111.25 211.423 111.25 211.754V213.004C111.25 213.335 111.382 213.653 111.617 213.887C111.851 214.122 112.169 214.254 112.5 214.254H113.125V216.754H114.375V214.254H115C115.331 214.254 115.649 214.122 115.883 213.887C116.118 213.653 116.25 213.335 116.25 213.004V211.754C116.25 211.423 116.118 211.105 115.883 210.87C115.649 210.636 115.331 210.504 115 210.504ZM115 213.004H112.5V211.754H115V213.004Z" fill="white"/>
<text fill="black" xml:space="preserve" style="white-space: pre" font-family="IBM Plex Sans" font-size="14" font-weight="600" letter-spacing="0.16px"><tspan x="90.4734" y="254.25">Satellite &#10;</tspan><tspan x="73.1346" y="272.25"> management &#10;</tspan><tspan x="101.496" y="290.25">plane</tspan></text>
<rect x="240.5" y="48.5" width="703" height="391" fill="white"/>
<rect x="241" y="49" width="702" height="390" fill="white"/>
<g clip-path="url(#clip2_22_27)">
<line x1="242" y1="48" x2="242" y2="96" stroke="#8D8D8D" stroke-width="4"/>
<text fill="black" xml:space="preserve" style="white-space: pre" font-family="IBM Plex Sans" font-size="14" font-weight="600" letter-spacing="0.16px"><tspan x="256" y="68.25">Edge or other data center A</tspan></text>
<text fill="black" xml:space="preserve" style="white-space: pre" font-family="IBM Plex Sans" font-size="14" letter-spacing="0.16px"><tspan x="256" y="86.25">(Customer-owned)</tspan></text>
</g>
<rect x="240.5" y="48.5" width="703" height="391" stroke="#8D8D8D"/>
<path d="M256.5 112.5H920C924.142 112.5 927.5 115.858 927.5 120V416C927.5 420.142 924.142 423.5 920 423.5H264C259.858 423.5 256.5 420.142 256.5 416V112.5Z" fill="#F7F3F2"/>
<g clip-path="url(#clip3_22_27)">
<line x1="258" y1="112" x2="258" y2="160" stroke="#8D8D8D" stroke-width="4"/>
<g clip-path="url(#clip4_22_27)">
<rect width="20" height="20" transform="translate(272 126)" fill="white" style="mix-blend-mode:multiply"/>
<path d="M292 142.25V141H290.687C290.606 140.609 290.451 140.237 290.229 139.904L291.161 138.973L290.277 138.089L289.346 139.021C289.013 138.799 288.641 138.644 288.25 138.563V137.25H287V138.563C286.609 138.644 286.237 138.799 285.904 139.021L284.973 138.089L284.089 138.973L285.021 139.904C284.799 140.237 284.644 140.609 284.563 141H283.25V142.25H284.563C284.644 142.641 284.799 143.013 285.021 143.346L284.089 144.277L284.973 145.161L285.904 144.229C286.237 144.451 286.609 144.606 287 144.687V146H288.25V144.687C288.641 144.606 289.013 144.451 289.346 144.229L290.277 145.161L291.161 144.277L290.229 143.346C290.451 143.013 290.606 142.641 290.687 142.25H292ZM287.625 143.5C287.254 143.5 286.892 143.39 286.583 143.184C286.275 142.978 286.035 142.685 285.893 142.343C285.751 142 285.714 141.623 285.786 141.259C285.858 140.896 286.037 140.561 286.299 140.299C286.561 140.037 286.895 139.858 287.259 139.786C287.623 139.714 288 139.751 288.343 139.893C288.685 140.035 288.978 140.275 289.184 140.583C289.39 140.892 289.5 141.254 289.5 141.625C289.499 142.122 289.302 142.599 288.95 142.95C288.599 143.302 288.122 143.499 287.625 143.5Z" fill="black"/>
<path d="M276.375 139.75C277.065 139.75 277.625 139.19 277.625 138.5C277.625 137.81 277.065 137.25 276.375 137.25C275.685 137.25 275.125 137.81 275.125 138.5C275.125 139.19 275.685 139.75 276.375 139.75Z" fill="black"/>
<path d="M280.75 138.5C280.256 138.5 279.772 138.353 279.361 138.079C278.95 137.804 278.63 137.414 278.44 136.957C278.251 136.5 278.202 135.997 278.298 135.512C278.394 135.027 278.633 134.582 278.982 134.232C279.332 133.883 279.777 133.645 280.262 133.548C280.747 133.452 281.25 133.501 281.707 133.69C282.164 133.88 282.554 134.2 282.829 134.611C283.103 135.022 283.25 135.506 283.25 136C283.248 136.662 282.984 137.297 282.516 137.766C282.047 138.234 281.412 138.498 280.75 138.5ZM280.75 134.75C280.503 134.75 280.261 134.823 280.056 134.961C279.85 135.098 279.69 135.293 279.595 135.522C279.501 135.75 279.476 136.001 279.524 136.244C279.572 136.486 279.691 136.709 279.866 136.884C280.041 137.059 280.264 137.178 280.506 137.226C280.749 137.274 281 137.249 281.228 137.155C281.457 137.06 281.652 136.9 281.789 136.694C281.927 136.489 282 136.247 282 136C281.999 135.669 281.867 135.351 281.633 135.117C281.399 134.883 281.081 134.751 280.75 134.75Z" fill="black"/>
<path d="M285.125 134.75C285.815 134.75 286.375 134.19 286.375 133.5C286.375 132.81 285.815 132.25 285.125 132.25C284.435 132.25 283.875 132.81 283.875 133.5C283.875 134.19 284.435 134.75 285.125 134.75Z" fill="black"/>
<path d="M280.138 143.67L273.875 140.016V131.984L280.75 127.974L287.935 132.165L288.565 131.085L281.065 126.71C280.969 126.654 280.861 126.625 280.75 126.625C280.639 126.625 280.531 126.654 280.435 126.71L272.935 131.085C272.841 131.14 272.762 131.219 272.708 131.314C272.654 131.408 272.625 131.516 272.625 131.625V140.375C272.625 140.484 272.654 140.592 272.708 140.686C272.762 140.781 272.841 140.86 272.935 140.915L279.508 144.75L280.138 143.67Z" fill="black"/>
</g>
<text fill="black" xml:space="preserve" style="white-space: pre" font-family="IBM Plex Sans" font-size="14" font-weight="600" letter-spacing="0.16px"><tspan x="308" y="141.25">Satellite location</tspan></text>
</g>
<path d="M256.5 112.5H920C924.142 112.5 927.5 115.858 927.5 120V416C927.5 420.142 924.142 423.5 920 423.5H264C259.858 423.5 256.5 420.142 256.5 416V112.5Z" stroke="#8D8D8D"/>
<rect width="48" height="48" transform="translate(328 272)" fill="#8D8D8D"/>
<rect width="20" height="20" transform="translate(342 286)" fill="white" style="mix-blend-mode:multiply"/>
<path d="M352 290.375C351.629 290.375 351.267 290.265 350.958 290.059C350.65 289.853 350.41 289.56 350.268 289.218C350.126 288.875 350.089 288.498 350.161 288.134C350.233 287.77 350.412 287.436 350.674 287.174C350.936 286.912 351.27 286.733 351.634 286.661C351.998 286.589 352.375 286.626 352.718 286.768C353.06 286.91 353.353 287.15 353.559 287.458C353.765 287.767 353.875 288.129 353.875 288.5C353.874 288.997 353.677 289.474 353.325 289.825C352.974 290.177 352.497 290.374 352 290.375ZM352 287.875C351.876 287.875 351.756 287.912 351.653 287.98C351.55 288.049 351.47 288.147 351.423 288.261C351.375 288.375 351.363 288.501 351.387 288.622C351.411 288.743 351.471 288.855 351.558 288.942C351.645 289.029 351.757 289.089 351.878 289.113C351.999 289.137 352.125 289.125 352.239 289.077C352.353 289.03 352.451 288.95 352.52 288.847C352.588 288.744 352.625 288.624 352.625 288.5C352.625 288.334 352.559 288.175 352.442 288.058C352.325 287.941 352.166 287.875 352 287.875Z" fill="white"/>
<path d="M348.875 304.75C348.504 304.75 348.142 304.64 347.833 304.434C347.525 304.228 347.285 303.935 347.143 303.593C347.001 303.25 346.964 302.873 347.036 302.509C347.108 302.145 347.287 301.811 347.549 301.549C347.811 301.287 348.145 301.108 348.509 301.036C348.873 300.964 349.25 301.001 349.593 301.143C349.935 301.285 350.228 301.525 350.434 301.833C350.64 302.142 350.75 302.504 350.75 302.875C350.749 303.372 350.552 303.849 350.2 304.2C349.849 304.552 349.372 304.749 348.875 304.75ZM348.875 302.25C348.751 302.25 348.631 302.287 348.528 302.355C348.425 302.424 348.345 302.522 348.298 302.636C348.25 302.75 348.238 302.876 348.262 302.997C348.286 303.118 348.346 303.23 348.433 303.317C348.52 303.404 348.632 303.464 348.753 303.488C348.874 303.512 349 303.5 349.114 303.452C349.228 303.405 349.326 303.325 349.395 303.222C349.463 303.119 349.5 302.999 349.5 302.875C349.5 302.709 349.434 302.55 349.317 302.433C349.2 302.316 349.041 302.25 348.875 302.25Z" fill="white"/>
<path d="M346.375 292.875C346.004 292.875 345.642 292.765 345.333 292.559C345.025 292.353 344.785 292.06 344.643 291.718C344.501 291.375 344.464 290.998 344.536 290.634C344.608 290.27 344.787 289.936 345.049 289.674C345.311 289.412 345.645 289.233 346.009 289.161C346.373 289.089 346.75 289.126 347.093 289.268C347.435 289.41 347.728 289.65 347.934 289.958C348.14 290.267 348.25 290.629 348.25 291C348.249 291.497 348.052 291.974 347.7 292.325C347.349 292.677 346.872 292.874 346.375 292.875ZM346.375 290.375C346.251 290.375 346.131 290.412 346.028 290.48C345.925 290.549 345.845 290.647 345.798 290.761C345.75 290.875 345.738 291.001 345.762 291.122C345.786 291.243 345.846 291.355 345.933 291.442C346.02 291.529 346.132 291.589 346.253 291.613C346.374 291.637 346.5 291.625 346.614 291.577C346.728 291.53 346.826 291.45 346.895 291.347C346.963 291.244 347 291.124 347 291C347 290.834 346.934 290.675 346.817 290.558C346.7 290.441 346.541 290.375 346.375 290.375Z" fill="white"/>
<path d="M355.125 304.75C354.754 304.75 354.392 304.64 354.083 304.434C353.775 304.228 353.535 303.935 353.393 303.593C353.251 303.25 353.214 302.873 353.286 302.509C353.358 302.145 353.537 301.811 353.799 301.549C354.061 301.287 354.395 301.108 354.759 301.036C355.123 300.964 355.5 301.001 355.843 301.143C356.185 301.285 356.478 301.525 356.684 301.833C356.89 302.142 357 302.504 357 302.875C356.999 303.372 356.802 303.849 356.45 304.2C356.099 304.552 355.622 304.749 355.125 304.75ZM355.125 302.25C355.001 302.25 354.881 302.287 354.778 302.355C354.675 302.424 354.595 302.522 354.548 302.636C354.5 302.75 354.488 302.876 354.512 302.997C354.536 303.118 354.596 303.23 354.683 303.317C354.77 303.404 354.882 303.464 355.003 303.488C355.124 303.512 355.25 303.5 355.364 303.452C355.478 303.405 355.576 303.325 355.645 303.222C355.713 303.119 355.75 302.999 355.75 302.875C355.75 302.709 355.684 302.55 355.567 302.433C355.45 302.316 355.291 302.25 355.125 302.25Z" fill="white"/>
<path d="M357.625 292.875C357.254 292.875 356.892 292.765 356.583 292.559C356.275 292.353 356.035 292.06 355.893 291.718C355.751 291.375 355.714 290.998 355.786 290.634C355.858 290.27 356.037 289.936 356.299 289.674C356.561 289.412 356.895 289.233 357.259 289.161C357.623 289.089 358 289.126 358.343 289.268C358.685 289.41 358.978 289.65 359.184 289.958C359.39 290.267 359.5 290.629 359.5 291C359.499 291.497 359.302 291.974 358.95 292.325C358.599 292.677 358.122 292.874 357.625 292.875ZM357.625 290.375C357.501 290.375 357.381 290.412 357.278 290.48C357.175 290.549 357.095 290.647 357.048 290.761C357 290.875 356.988 291.001 357.012 291.122C357.036 291.243 357.096 291.355 357.183 291.442C357.27 291.529 357.382 291.589 357.503 291.613C357.624 291.637 357.75 291.625 357.864 291.577C357.978 291.53 358.076 291.45 358.145 291.347C358.213 291.244 358.25 291.124 358.25 291C358.25 290.834 358.184 290.675 358.067 290.558C357.95 290.441 357.791 290.375 357.625 290.375Z" fill="white"/>
<path d="M344.5 299.125C344.129 299.125 343.767 299.015 343.458 298.809C343.15 298.603 342.91 298.31 342.768 297.968C342.626 297.625 342.589 297.248 342.661 296.884C342.733 296.52 342.912 296.186 343.174 295.924C343.436 295.662 343.77 295.483 344.134 295.411C344.498 295.339 344.875 295.376 345.218 295.518C345.56 295.66 345.853 295.9 346.059 296.208C346.265 296.517 346.375 296.879 346.375 297.25C346.374 297.747 346.177 298.224 345.825 298.575C345.474 298.927 344.997 299.124 344.5 299.125ZM344.5 296.625C344.376 296.625 344.256 296.662 344.153 296.73C344.05 296.799 343.97 296.897 343.923 297.011C343.875 297.125 343.863 297.251 343.887 297.372C343.911 297.493 343.971 297.605 344.058 297.692C344.145 297.779 344.257 297.839 344.378 297.863C344.499 297.887 344.625 297.875 344.739 297.827C344.853 297.78 344.951 297.7 345.02 297.597C345.088 297.494 345.125 297.374 345.125 297.25C345.125 297.084 345.059 296.925 344.942 296.808C344.825 296.691 344.666 296.625 344.5 296.625Z" fill="white"/>
<path d="M359.5 299.125C359.129 299.125 358.767 299.015 358.458 298.809C358.15 298.603 357.91 298.31 357.768 297.968C357.626 297.625 357.589 297.248 357.661 296.884C357.733 296.52 357.912 296.186 358.174 295.924C358.436 295.662 358.77 295.483 359.134 295.411C359.498 295.339 359.875 295.376 360.218 295.518C360.56 295.66 360.853 295.9 361.059 296.208C361.265 296.517 361.375 296.879 361.375 297.25C361.374 297.747 361.177 298.224 360.825 298.575C360.474 298.927 359.997 299.124 359.5 299.125ZM359.5 296.625C359.376 296.625 359.256 296.662 359.153 296.73C359.05 296.799 358.97 296.897 358.923 297.011C358.875 297.125 358.863 297.251 358.887 297.372C358.911 297.493 358.971 297.605 359.058 297.692C359.145 297.779 359.257 297.839 359.378 297.863C359.499 297.887 359.625 297.875 359.739 297.827C359.853 297.78 359.951 297.7 360.02 297.597C360.088 297.494 360.125 297.374 360.125 297.25C360.125 297.084 360.059 296.925 359.942 296.808C359.825 296.691 359.666 296.625 359.5 296.625Z" fill="white"/>
<path d="M352 299.75C351.258 299.75 350.533 299.53 349.917 299.118C349.3 298.706 348.819 298.12 348.535 297.435C348.252 296.75 348.177 295.996 348.322 295.268C348.467 294.541 348.824 293.873 349.348 293.348C349.873 292.824 350.541 292.467 351.268 292.322C351.996 292.177 352.75 292.252 353.435 292.535C354.12 292.819 354.706 293.3 355.118 293.917C355.53 294.533 355.75 295.258 355.75 296C355.749 296.994 355.353 297.947 354.65 298.65C353.947 299.353 352.994 299.749 352 299.75ZM352 293.5C351.506 293.5 351.022 293.647 350.611 293.921C350.2 294.196 349.88 294.586 349.69 295.043C349.501 295.5 349.452 296.003 349.548 296.488C349.645 296.973 349.883 297.418 350.232 297.768C350.582 298.117 351.027 298.356 351.512 298.452C351.997 298.548 352.5 298.499 352.957 298.31C353.414 298.12 353.804 297.8 354.079 297.389C354.353 296.978 354.5 296.494 354.5 296C354.499 295.337 354.236 294.702 353.767 294.233C353.298 293.764 352.663 293.501 352 293.5Z" fill="white"/>
<text fill="black" xml:space="preserve" style="white-space: pre" font-family="IBM Plex Sans" font-size="14" font-weight="600" letter-spacing="0.16px"><tspan x="322.164" y="342.25">Cluster 1</tspan></text>
<rect width="48" height="48" transform="translate(488 272)" fill="#8D8D8D"/>
<rect width="20" height="20" transform="translate(502 286)" fill="white" style="mix-blend-mode:multiply"/>
<path d="M512 290.375C511.629 290.375 511.267 290.265 510.958 290.059C510.65 289.853 510.41 289.56 510.268 289.218C510.126 288.875 510.089 288.498 510.161 288.134C510.233 287.77 510.412 287.436 510.674 287.174C510.936 286.912 511.27 286.733 511.634 286.661C511.998 286.589 512.375 286.626 512.718 286.768C513.06 286.91 513.353 287.15 513.559 287.458C513.765 287.767 513.875 288.129 513.875 288.5C513.874 288.997 513.677 289.474 513.325 289.825C512.974 290.177 512.497 290.374 512 290.375ZM512 287.875C511.876 287.875 511.756 287.912 511.653 287.98C511.55 288.049 511.47 288.147 511.423 288.261C511.375 288.375 511.363 288.501 511.387 288.622C511.411 288.743 511.471 288.855 511.558 288.942C511.645 289.029 511.757 289.089 511.878 289.113C511.999 289.137 512.125 289.125 512.239 289.077C512.353 289.03 512.451 288.95 512.52 288.847C512.588 288.744 512.625 288.624 512.625 288.5C512.625 288.334 512.559 288.175 512.442 288.058C512.325 287.941 512.166 287.875 512 287.875Z" fill="white"/>
<path d="M508.875 304.75C508.504 304.75 508.142 304.64 507.833 304.434C507.525 304.228 507.285 303.935 507.143 303.593C507.001 303.25 506.964 302.873 507.036 302.509C507.108 302.145 507.287 301.811 507.549 301.549C507.811 301.287 508.145 301.108 508.509 301.036C508.873 300.964 509.25 301.001 509.593 301.143C509.935 301.285 510.228 301.525 510.434 301.833C510.64 302.142 510.75 302.504 510.75 302.875C510.749 303.372 510.552 303.849 510.2 304.2C509.849 304.552 509.372 304.749 508.875 304.75ZM508.875 302.25C508.751 302.25 508.631 302.287 508.528 302.355C508.425 302.424 508.345 302.522 508.298 302.636C508.25 302.75 508.238 302.876 508.262 302.997C508.286 303.118 508.346 303.23 508.433 303.317C508.52 303.404 508.632 303.464 508.753 303.488C508.874 303.512 509 303.5 509.114 303.452C509.228 303.405 509.326 303.325 509.395 303.222C509.463 303.119 509.5 302.999 509.5 302.875C509.5 302.709 509.434 302.55 509.317 302.433C509.2 302.316 509.041 302.25 508.875 302.25Z" fill="white"/>
<path d="M506.375 292.875C506.004 292.875 505.642 292.765 505.333 292.559C505.025 292.353 504.785 292.06 504.643 291.718C504.501 291.375 504.464 290.998 504.536 290.634C504.608 290.27 504.787 289.936 505.049 289.674C505.311 289.412 505.645 289.233 506.009 289.161C506.373 289.089 506.75 289.126 507.093 289.268C507.435 289.41 507.728 289.65 507.934 289.958C508.14 290.267 508.25 290.629 508.25 291C508.249 291.497 508.052 291.974 507.7 292.325C507.349 292.677 506.872 292.874 506.375 292.875ZM506.375 290.375C506.251 290.375 506.131 290.412 506.028 290.48C505.925 290.549 505.845 290.647 505.798 290.761C505.75 290.875 505.738 291.001 505.762 291.122C505.786 291.243 505.846 291.355 505.933 291.442C506.02 291.529 506.132 291.589 506.253 291.613C506.374 291.637 506.5 291.625 506.614 291.577C506.728 291.53 506.826 291.45 506.895 291.347C506.963 291.244 507 291.124 507 291C507 290.834 506.934 290.675 506.817 290.558C506.7 290.441 506.541 290.375 506.375 290.375Z" fill="white"/>
<path d="M515.125 304.75C514.754 304.75 514.392 304.64 514.083 304.434C513.775 304.228 513.535 303.935 513.393 303.593C513.251 303.25 513.214 302.873 513.286 302.509C513.358 302.145 513.537 301.811 513.799 301.549C514.061 301.287 514.395 301.108 514.759 301.036C515.123 300.964 515.5 301.001 515.843 301.143C516.185 301.285 516.478 301.525 516.684 301.833C516.89 302.142 517 302.504 517 302.875C516.999 303.372 516.802 303.849 516.45 304.2C516.099 304.552 515.622 304.749 515.125 304.75ZM515.125 302.25C515.001 302.25 514.881 302.287 514.778 302.355C514.675 302.424 514.595 302.522 514.548 302.636C514.5 302.75 514.488 302.876 514.512 302.997C514.536 303.118 514.596 303.23 514.683 303.317C514.77 303.404 514.882 303.464 515.003 303.488C515.124 303.512 515.25 303.5 515.364 303.452C515.478 303.405 515.576 303.325 515.645 303.222C515.713 303.119 515.75 302.999 515.75 302.875C515.75 302.709 515.684 302.55 515.567 302.433C515.45 302.316 515.291 302.25 515.125 302.25Z" fill="white"/>
<path d="M517.625 292.875C517.254 292.875 516.892 292.765 516.583 292.559C516.275 292.353 516.035 292.06 515.893 291.718C515.751 291.375 515.714 290.998 515.786 290.634C515.858 290.27 516.037 289.936 516.299 289.674C516.561 289.412 516.895 289.233 517.259 289.161C517.623 289.089 518 289.126 518.343 289.268C518.685 289.41 518.978 289.65 519.184 289.958C519.39 290.267 519.5 290.629 519.5 291C519.499 291.497 519.302 291.974 518.95 292.325C518.599 292.677 518.122 292.874 517.625 292.875ZM517.625 290.375C517.501 290.375 517.381 290.412 517.278 290.48C517.175 290.549 517.095 290.647 517.048 290.761C517 290.875 516.988 291.001 517.012 291.122C517.036 291.243 517.096 291.355 517.183 291.442C517.27 291.529 517.382 291.589 517.503 291.613C517.624 291.637 517.75 291.625 517.864 291.577C517.978 291.53 518.076 291.45 518.145 291.347C518.213 291.244 518.25 291.124 518.25 291C518.25 290.834 518.184 290.675 518.067 290.558C517.95 290.441 517.791 290.375 517.625 290.375Z" fill="white"/>
<path d="M504.5 299.125C504.129 299.125 503.767 299.015 503.458 298.809C503.15 298.603 502.91 298.31 502.768 297.968C502.626 297.625 502.589 297.248 502.661 296.884C502.733 296.52 502.912 296.186 503.174 295.924C503.436 295.662 503.77 295.483 504.134 295.411C504.498 295.339 504.875 295.376 505.218 295.518C505.56 295.66 505.853 295.9 506.059 296.208C506.265 296.517 506.375 296.879 506.375 297.25C506.374 297.747 506.177 298.224 505.825 298.575C505.474 298.927 504.997 299.124 504.5 299.125ZM504.5 296.625C504.376 296.625 504.256 296.662 504.153 296.73C504.05 296.799 503.97 296.897 503.923 297.011C503.875 297.125 503.863 297.251 503.887 297.372C503.911 297.493 503.971 297.605 504.058 297.692C504.145 297.779 504.257 297.839 504.378 297.863C504.499 297.887 504.625 297.875 504.739 297.827C504.853 297.78 504.951 297.7 505.02 297.597C505.088 297.494 505.125 297.374 505.125 297.25C505.125 297.084 505.059 296.925 504.942 296.808C504.825 296.691 504.666 296.625 504.5 296.625Z" fill="white"/>
<path d="M519.5 299.125C519.129 299.125 518.767 299.015 518.458 298.809C518.15 298.603 517.91 298.31 517.768 297.968C517.626 297.625 517.589 297.248 517.661 296.884C517.733 296.52 517.912 296.186 518.174 295.924C518.436 295.662 518.77 295.483 519.134 295.411C519.498 295.339 519.875 295.376 520.218 295.518C520.56 295.66 520.853 295.9 521.059 296.208C521.265 296.517 521.375 296.879 521.375 297.25C521.374 297.747 521.177 298.224 520.825 298.575C520.474 298.927 519.997 299.124 519.5 299.125ZM519.5 296.625C519.376 296.625 519.256 296.662 519.153 296.73C519.05 296.799 518.97 296.897 518.923 297.011C518.875 297.125 518.863 297.251 518.887 297.372C518.911 297.493 518.971 297.605 519.058 297.692C519.145 297.779 519.257 297.839 519.378 297.863C519.499 297.887 519.625 297.875 519.739 297.827C519.853 297.78 519.951 297.7 520.02 297.597C520.088 297.494 520.125 297.374 520.125 297.25C520.125 297.084 520.059 296.925 519.942 296.808C519.825 296.691 519.666 296.625 519.5 296.625Z" fill="white"/>
<path d="M512 299.75C511.258 299.75 510.533 299.53 509.917 299.118C509.3 298.706 508.819 298.12 508.535 297.435C508.252 296.75 508.177 295.996 508.322 295.268C508.467 294.541 508.824 293.873 509.348 293.348C509.873 292.824 510.541 292.467 511.268 292.322C511.996 292.177 512.75 292.252 513.435 292.535C514.12 292.819 514.706 293.3 515.118 293.917C515.53 294.533 515.75 295.258 515.75 296C515.749 296.994 515.353 297.947 514.65 298.65C513.947 299.353 512.994 299.749 512 299.75ZM512 293.5C511.506 293.5 511.022 293.647 510.611 293.921C510.2 294.196 509.88 294.586 509.69 295.043C509.501 295.5 509.452 296.003 509.548 296.488C509.645 296.973 509.883 297.418 510.232 297.768C510.582 298.117 511.027 298.356 511.512 298.452C511.997 298.548 512.5 298.499 512.957 298.31C513.414 298.12 513.804 297.8 514.079 297.389C514.353 296.978 514.5 296.494 514.5 296C514.499 295.337 514.236 294.702 513.767 294.233C513.298 293.764 512.663 293.501 512 293.5Z" fill="white"/>
<text fill="black" xml:space="preserve" style="white-space: pre" font-family="IBM Plex Sans" font-size="14" font-weight="600" letter-spacing="0.16px"><tspan x="482.164" y="342.25">Cluster 2</tspan></text>
<rect width="48" height="48" transform="translate(648 272)" fill="#8D8D8D"/>
<rect width="20" height="20" transform="translate(662 286)" fill="white" style="mix-blend-mode:multiply"/>
<path d="M672 290.375C671.629 290.375 671.267 290.265 670.958 290.059C670.65 289.853 670.41 289.56 670.268 289.218C670.126 288.875 670.089 288.498 670.161 288.134C670.233 287.77 670.412 287.436 670.674 287.174C670.936 286.912 671.27 286.733 671.634 286.661C671.998 286.589 672.375 286.626 672.718 286.768C673.06 286.91 673.353 287.15 673.559 287.458C673.765 287.767 673.875 288.129 673.875 288.5C673.874 288.997 673.677 289.474 673.325 289.825C672.974 290.177 672.497 290.374 672 290.375ZM672 287.875C671.876 287.875 671.756 287.912 671.653 287.98C671.55 288.049 671.47 288.147 671.423 288.261C671.375 288.375 671.363 288.501 671.387 288.622C671.411 288.743 671.471 288.855 671.558 288.942C671.645 289.029 671.757 289.089 671.878 289.113C671.999 289.137 672.125 289.125 672.239 289.077C672.353 289.03 672.451 288.95 672.52 288.847C672.588 288.744 672.625 288.624 672.625 288.5C672.625 288.334 672.559 288.175 672.442 288.058C672.325 287.941 672.166 287.875 672 287.875Z" fill="white"/>
<path d="M668.875 304.75C668.504 304.75 668.142 304.64 667.833 304.434C667.525 304.228 667.285 303.935 667.143 303.593C667.001 303.25 666.964 302.873 667.036 302.509C667.108 302.145 667.287 301.811 667.549 301.549C667.811 301.287 668.145 301.108 668.509 301.036C668.873 300.964 669.25 301.001 669.593 301.143C669.935 301.285 670.228 301.525 670.434 301.833C670.64 302.142 670.75 302.504 670.75 302.875C670.749 303.372 670.552 303.849 670.2 304.2C669.849 304.552 669.372 304.749 668.875 304.75ZM668.875 302.25C668.751 302.25 668.631 302.287 668.528 302.355C668.425 302.424 668.345 302.522 668.298 302.636C668.25 302.75 668.238 302.876 668.262 302.997C668.286 303.118 668.346 303.23 668.433 303.317C668.52 303.404 668.632 303.464 668.753 303.488C668.874 303.512 669 303.5 669.114 303.452C669.228 303.405 669.326 303.325 669.395 303.222C669.463 303.119 669.5 302.999 669.5 302.875C669.5 302.709 669.434 302.55 669.317 302.433C669.2 302.316 669.041 302.25 668.875 302.25Z" fill="white"/>
<path d="M666.375 292.875C666.004 292.875 665.642 292.765 665.333 292.559C665.025 292.353 664.785 292.06 664.643 291.718C664.501 291.375 664.464 290.998 664.536 290.634C664.608 290.27 664.787 289.936 665.049 289.674C665.311 289.412 665.645 289.233 666.009 289.161C666.373 289.089 666.75 289.126 667.093 289.268C667.435 289.41 667.728 289.65 667.934 289.958C668.14 290.267 668.25 290.629 668.25 291C668.249 291.497 668.052 291.974 667.7 292.325C667.349 292.677 666.872 292.874 666.375 292.875ZM666.375 290.375C666.251 290.375 666.131 290.412 666.028 290.48C665.925 290.549 665.845 290.647 665.798 290.761C665.75 290.875 665.738 291.001 665.762 291.122C665.786 291.243 665.846 291.355 665.933 291.442C666.02 291.529 666.132 291.589 666.253 291.613C666.374 291.637 666.5 291.625 666.614 291.577C666.728 291.53 666.826 291.45 666.895 291.347C666.963 291.244 667 291.124 667 291C667 290.834 666.934 290.675 666.817 290.558C666.7 290.441 666.541 290.375 666.375 290.375Z" fill="white"/>
<path d="M675.125 304.75C674.754 304.75 674.392 304.64 674.083 304.434C673.775 304.228 673.535 303.935 673.393 303.593C673.251 303.25 673.214 302.873 673.286 302.509C673.358 302.145 673.537 301.811 673.799 301.549C674.061 301.287 674.395 301.108 674.759 301.036C675.123 300.964 675.5 301.001 675.843 301.143C676.185 301.285 676.478 301.525 676.684 301.833C676.89 302.142 677 302.504 677 302.875C676.999 303.372 676.802 303.849 676.45 304.2C676.099 304.552 675.622 304.749 675.125 304.75ZM675.125 302.25C675.001 302.25 674.881 302.287 674.778 302.355C674.675 302.424 674.595 302.522 674.548 302.636C674.5 302.75 674.488 302.876 674.512 302.997C674.536 303.118 674.596 303.23 674.683 303.317C674.77 303.404 674.882 303.464 675.003 303.488C675.124 303.512 675.25 303.5 675.364 303.452C675.478 303.405 675.576 303.325 675.645 303.222C675.713 303.119 675.75 302.999 675.75 302.875C675.75 302.709 675.684 302.55 675.567 302.433C675.45 302.316 675.291 302.25 675.125 302.25Z" fill="white"/>
<path d="M677.625 292.875C677.254 292.875 676.892 292.765 676.583 292.559C676.275 292.353 676.035 292.06 675.893 291.718C675.751 291.375 675.714 290.998 675.786 290.634C675.858 290.27 676.037 289.936 676.299 289.674C676.561 289.412 676.895 289.233 677.259 289.161C677.623 289.089 678 289.126 678.343 289.268C678.685 289.41 678.978 289.65 679.184 289.958C679.39 290.267 679.5 290.629 679.5 291C679.499 291.497 679.302 291.974 678.95 292.325C678.599 292.677 678.122 292.874 677.625 292.875ZM677.625 290.375C677.501 290.375 677.381 290.412 677.278 290.48C677.175 290.549 677.095 290.647 677.048 290.761C677 290.875 676.988 291.001 677.012 291.122C677.036 291.243 677.096 291.355 677.183 291.442C677.27 291.529 677.382 291.589 677.503 291.613C677.624 291.637 677.75 291.625 677.864 291.577C677.978 291.53 678.076 291.45 678.145 291.347C678.213 291.244 678.25 291.124 678.25 291C678.25 290.834 678.184 290.675 678.067 290.558C677.95 290.441 677.791 290.375 677.625 290.375Z" fill="white"/>
<path d="M664.5 299.125C664.129 299.125 663.767 299.015 663.458 298.809C663.15 298.603 662.91 298.31 662.768 297.968C662.626 297.625 662.589 297.248 662.661 296.884C662.733 296.52 662.912 296.186 663.174 295.924C663.436 295.662 663.77 295.483 664.134 295.411C664.498 295.339 664.875 295.376 665.218 295.518C665.56 295.66 665.853 295.9 666.059 296.208C666.265 296.517 666.375 296.879 666.375 297.25C666.374 297.747 666.177 298.224 665.825 298.575C665.474 298.927 664.997 299.124 664.5 299.125ZM664.5 296.625C664.376 296.625 664.256 296.662 664.153 296.73C664.05 296.799 663.97 296.897 663.923 297.011C663.875 297.125 663.863 297.251 663.887 297.372C663.911 297.493 663.971 297.605 664.058 297.692C664.145 297.779 664.257 297.839 664.378 297.863C664.499 297.887 664.625 297.875 664.739 297.827C664.853 297.78 664.951 297.7 665.02 297.597C665.088 297.494 665.125 297.374 665.125 297.25C665.125 297.084 665.059 296.925 664.942 296.808C664.825 296.691 664.666 296.625 664.5 296.625Z" fill="white"/>
<path d="M679.5 299.125C679.129 299.125 678.767 299.015 678.458 298.809C678.15 298.603 677.91 298.31 677.768 297.968C677.626 297.625 677.589 297.248 677.661 296.884C677.733 296.52 677.912 296.186 678.174 295.924C678.436 295.662 678.77 295.483 679.134 295.411C679.498 295.339 679.875 295.376 680.218 295.518C680.56 295.66 680.853 295.9 681.059 296.208C681.265 296.517 681.375 296.879 681.375 297.25C681.374 297.747 681.177 298.224 680.825 298.575C680.474 298.927 679.997 299.124 679.5 299.125ZM679.5 296.625C679.376 296.625 679.256 296.662 679.153 296.73C679.05 296.799 678.97 296.897 678.923 297.011C678.875 297.125 678.863 297.251 678.887 297.372C678.911 297.493 678.971 297.605 679.058 297.692C679.145 297.779 679.257 297.839 679.378 297.863C679.499 297.887 679.625 297.875 679.739 297.827C679.853 297.78 679.951 297.7 680.02 297.597C680.088 297.494 680.125 297.374 680.125 297.25C680.125 297.084 680.059 296.925 679.942 296.808C679.825 296.691 679.666 296.625 679.5 296.625Z" fill="white"/>
<path d="M672 299.75C671.258 299.75 670.533 299.53 669.917 299.118C669.3 298.706 668.819 298.12 668.535 297.435C668.252 296.75 668.177 295.996 668.322 295.268C668.467 294.541 668.824 293.873 669.348 293.348C669.873 292.824 670.541 292.467 671.268 292.322C671.996 292.177 672.75 292.252 673.435 292.535C674.12 292.819 674.706 293.3 675.118 293.917C675.53 294.533 675.75 295.258 675.75 296C675.749 296.994 675.353 297.947 674.65 298.65C673.947 299.353 672.994 299.749 672 299.75ZM672 293.5C671.506 293.5 671.022 293.647 670.611 293.921C670.2 294.196 669.88 294.586 669.69 295.043C669.501 295.5 669.452 296.003 669.548 296.488C669.645 296.973 669.883 297.418 670.232 297.768C670.582 298.117 671.027 298.356 671.512 298.452C671.997 298.548 672.5 298.499 672.957 298.31C673.414 298.12 673.804 297.8 674.079 297.389C674.353 296.978 674.5 296.494 674.5 296C674.499 295.337 674.236 294.702 673.767 294.233C673.298 293.764 672.663 293.501 672 293.5Z" fill="white"/>
<text fill="black" xml:space="preserve" style="white-space: pre" font-family="IBM Plex Sans" font-size="14" font-weight="600" letter-spacing="0.16px"><tspan x="642.164" y="342.25">Cluster 3</tspan></text>
<rect x="808.5" y="272.5" width="47" height="47" fill="white"/>
<rect width="20" height="20" transform="translate(822 286)" fill="white" style="mix-blend-mode:multiply"/>
<path d="M832 290.375C831.629 290.375 831.267 290.265 830.958 290.059C830.65 289.853 830.41 289.56 830.268 289.218C830.126 288.875 830.089 288.498 830.161 288.134C830.233 287.77 830.412 287.436 830.674 287.174C830.936 286.912 831.27 286.733 831.634 286.661C831.998 286.589 832.375 286.626 832.718 286.768C833.06 286.91 833.353 287.15 833.559 287.458C833.765 287.767 833.875 288.129 833.875 288.5C833.874 288.997 833.677 289.474 833.325 289.825C832.974 290.177 832.497 290.374 832 290.375ZM832 287.875C831.876 287.875 831.756 287.912 831.653 287.98C831.55 288.049 831.47 288.147 831.423 288.261C831.375 288.375 831.363 288.501 831.387 288.622C831.411 288.743 831.471 288.855 831.558 288.942C831.645 289.029 831.757 289.089 831.878 289.113C831.999 289.137 832.125 289.125 832.239 289.077C832.353 289.03 832.451 288.95 832.52 288.847C832.588 288.744 832.625 288.624 832.625 288.5C832.625 288.334 832.559 288.175 832.442 288.058C832.325 287.941 832.166 287.875 832 287.875Z" fill="black"/>
<path d="M828.875 304.75C828.504 304.75 828.142 304.64 827.833 304.434C827.525 304.228 827.285 303.935 827.143 303.593C827.001 303.25 826.964 302.873 827.036 302.509C827.108 302.145 827.287 301.811 827.549 301.549C827.811 301.287 828.145 301.108 828.509 301.036C828.873 300.964 829.25 301.001 829.593 301.143C829.935 301.285 830.228 301.525 830.434 301.833C830.64 302.142 830.75 302.504 830.75 302.875C830.749 303.372 830.552 303.849 830.2 304.2C829.849 304.552 829.372 304.749 828.875 304.75ZM828.875 302.25C828.751 302.25 828.631 302.287 828.528 302.355C828.425 302.424 828.345 302.522 828.298 302.636C828.25 302.75 828.238 302.876 828.262 302.997C828.286 303.118 828.346 303.23 828.433 303.317C828.52 303.404 828.632 303.464 828.753 303.488C828.874 303.512 829 303.5 829.114 303.452C829.228 303.405 829.326 303.325 829.395 303.222C829.463 303.119 829.5 302.999 829.5 302.875C829.5 302.709 829.434 302.55 829.317 302.433C829.2 302.316 829.041 302.25 828.875 302.25Z" fill="black"/>
<path d="M826.375 292.875C826.004 292.875 825.642 292.765 825.333 292.559C825.025 292.353 824.785 292.06 824.643 291.718C824.501 291.375 824.464 290.998 824.536 290.634C824.608 290.27 824.787 289.936 825.049 289.674C825.311 289.412 825.645 289.233 826.009 289.161C826.373 289.089 826.75 289.126 827.093 289.268C827.435 289.41 827.728 289.65 827.934 289.958C828.14 290.267 828.25 290.629 828.25 291C828.249 291.497 828.052 291.974 827.7 292.325C827.349 292.677 826.872 292.874 826.375 292.875ZM826.375 290.375C826.251 290.375 826.131 290.412 826.028 290.48C825.925 290.549 825.845 290.647 825.798 290.761C825.75 290.875 825.738 291.001 825.762 291.122C825.786 291.243 825.846 291.355 825.933 291.442C826.02 291.529 826.132 291.589 826.253 291.613C826.374 291.637 826.5 291.625 826.614 291.577C826.728 291.53 826.826 291.45 826.895 291.347C826.963 291.244 827 291.124 827 291C827 290.834 826.934 290.675 826.817 290.558C826.7 290.441 826.541 290.375 826.375 290.375Z" fill="black"/>
<path d="M835.125 304.75C834.754 304.75 834.392 304.64 834.083 304.434C833.775 304.228 833.535 303.935 833.393 303.593C833.251 303.25 833.214 302.873 833.286 302.509C833.358 302.145 833.537 301.811 833.799 301.549C834.061 301.287 834.395 301.108 834.759 301.036C835.123 300.964 835.5 301.001 835.843 301.143C836.185 301.285 836.478 301.525 836.684 301.833C836.89 302.142 837 302.504 837 302.875C836.999 303.372 836.802 303.849 836.45 304.2C836.099 304.552 835.622 304.749 835.125 304.75ZM835.125 302.25C835.001 302.25 834.881 302.287 834.778 302.355C834.675 302.424 834.595 302.522 834.548 302.636C834.5 302.75 834.488 302.876 834.512 302.997C834.536 303.118 834.596 303.23 834.683 303.317C834.77 303.404 834.882 303.464 835.003 303.488C835.124 303.512 835.25 303.5 835.364 303.452C835.478 303.405 835.576 303.325 835.645 303.222C835.713 303.119 835.75 302.999 835.75 302.875C835.75 302.709 835.684 302.55 835.567 302.433C835.45 302.316 835.291 302.25 835.125 302.25Z" fill="black"/>
<path d="M837.625 292.875C837.254 292.875 836.892 292.765 836.583 292.559C836.275 292.353 836.035 292.06 835.893 291.718C835.751 291.375 835.714 290.998 835.786 290.634C835.858 290.27 836.037 289.936 836.299 289.674C836.561 289.412 836.895 289.233 837.259 289.161C837.623 289.089 838 289.126 838.343 289.268C838.685 289.41 838.978 289.65 839.184 289.958C839.39 290.267 839.5 290.629 839.5 291C839.499 291.497 839.302 291.974 838.95 292.325C838.599 292.677 838.122 292.874 837.625 292.875ZM837.625 290.375C837.501 290.375 837.381 290.412 837.278 290.48C837.175 290.549 837.095 290.647 837.048 290.761C837 290.875 836.988 291.001 837.012 291.122C837.036 291.243 837.096 291.355 837.183 291.442C837.27 291.529 837.382 291.589 837.503 291.613C837.624 291.637 837.75 291.625 837.864 291.577C837.978 291.53 838.076 291.45 838.145 291.347C838.213 291.244 838.25 291.124 838.25 291C838.25 290.834 838.184 290.675 838.067 290.558C837.95 290.441 837.791 290.375 837.625 290.375Z" fill="black"/>
<path d="M824.5 299.125C824.129 299.125 823.767 299.015 823.458 298.809C823.15 298.603 822.91 298.31 822.768 297.968C822.626 297.625 822.589 297.248 822.661 296.884C822.733 296.52 822.912 296.186 823.174 295.924C823.436 295.662 823.77 295.483 824.134 295.411C824.498 295.339 824.875 295.376 825.218 295.518C825.56 295.66 825.853 295.9 826.059 296.208C826.265 296.517 826.375 296.879 826.375 297.25C826.374 297.747 826.177 298.224 825.825 298.575C825.474 298.927 824.997 299.124 824.5 299.125ZM824.5 296.625C824.376 296.625 824.256 296.662 824.153 296.73C824.05 296.799 823.97 296.897 823.923 297.011C823.875 297.125 823.863 297.251 823.887 297.372C823.911 297.493 823.971 297.605 824.058 297.692C824.145 297.779 824.257 297.839 824.378 297.863C824.499 297.887 824.625 297.875 824.739 297.827C824.853 297.78 824.951 297.7 825.02 297.597C825.088 297.494 825.125 297.374 825.125 297.25C825.125 297.084 825.059 296.925 824.942 296.808C824.825 296.691 824.666 296.625 824.5 296.625Z" fill="black"/>
<path d="M839.5 299.125C839.129 299.125 838.767 299.015 838.458 298.809C838.15 298.603 837.91 298.31 837.768 297.968C837.626 297.625 837.589 297.248 837.661 296.884C837.733 296.52 837.912 296.186 838.174 295.924C838.436 295.662 838.77 295.483 839.134 295.411C839.498 295.339 839.875 295.376 840.218 295.518C840.56 295.66 840.853 295.9 841.059 296.208C841.265 296.517 841.375 296.879 841.375 297.25C841.374 297.747 841.177 298.224 840.825 298.575C840.474 298.927 839.997 299.124 839.5 299.125ZM839.5 296.625C839.376 296.625 839.256 296.662 839.153 296.73C839.05 296.799 838.97 296.897 838.923 297.011C838.875 297.125 838.863 297.251 838.887 297.372C838.911 297.493 838.971 297.605 839.058 297.692C839.145 297.779 839.257 297.839 839.378 297.863C839.499 297.887 839.625 297.875 839.739 297.827C839.853 297.78 839.951 297.7 840.02 297.597C840.088 297.494 840.125 297.374 840.125 297.25C840.125 297.084 840.059 296.925 839.942 296.808C839.825 296.691 839.666 296.625 839.5 296.625Z" fill="black"/>
<path d="M832 299.75C831.258 299.75 830.533 299.53 829.917 299.118C829.3 298.706 828.819 298.12 828.535 297.435C828.252 296.75 828.177 295.996 828.322 295.268C828.467 294.541 828.824 293.873 829.348 293.348C829.873 292.824 830.541 292.467 831.268 292.322C831.996 292.177 832.75 292.252 833.435 292.535C834.12 292.819 834.706 293.3 835.118 293.917C835.53 294.533 835.75 295.258 835.75 296C835.749 296.994 835.353 297.947 834.65 298.65C833.947 299.353 832.994 299.749 832 299.75ZM832 293.5C831.506 293.5 831.022 293.647 830.611 293.921C830.2 294.196 829.88 294.586 829.69 295.043C829.501 295.5 829.452 296.003 829.548 296.488C829.645 296.973 829.883 297.418 830.232 297.768C830.582 298.117 831.027 298.356 831.512 298.452C831.997 298.548 832.5 298.499 832.957 298.31C833.414 298.12 833.804 297.8 834.079 297.389C834.353 296.978 834.5 296.494 834.5 296C834.499 295.337 834.236 294.702 833.767 294.233C833.298 293.764 832.663 293.501 832 293.5Z" fill="black"/>
<rect x="808.5" y="272.5" width="47" height="47" stroke="#6F6F6F" stroke-dasharray="4 4"/>
<text fill="#8D8D8D" xml:space="preserve" style="white-space: pre" font-family="IBM Plex Sans" font-size="14" font-weight="600" letter-spacing="0.16px"><tspan x="802.246" y="342.25">Cluster n</tspan></text>
<rect x="328.5" y="176.5" width="47" height="47" rx="7.5" fill="#EDF5FF"/>
<rect width="20" height="20" transform="translate(342 190)" fill="white" style="mix-blend-mode:multiply"/>
<path d="M359.5 198.754H358.875V191.254H357.625V198.754H357C356.669 198.754 356.351 198.886 356.116 199.12C355.882 199.355 355.75 199.672 355.75 200.004V201.254C355.75 201.585 355.882 201.903 356.117 202.137C356.351 202.372 356.669 202.504 357 202.504H357.625V208.754H358.875V202.504H359.5C359.831 202.503 360.149 202.372 360.383 202.137C360.618 201.903 360.75 201.585 360.75 201.254V200.004C360.75 199.673 360.618 199.355 360.383 199.12C360.149 198.886 359.831 198.754 359.5 198.754ZM359.5 201.254H357V200.004H359.5V201.254Z" fill="black"/>
<path d="M353.25 193.754H352.625V191.254H351.375V193.754H350.75C350.419 193.754 350.101 193.886 349.866 194.12C349.632 194.355 349.5 194.672 349.5 195.004V196.254C349.5 196.585 349.632 196.903 349.866 197.137C350.101 197.372 350.419 197.504 350.75 197.504H351.375V208.754H352.625V197.504H353.25C353.581 197.504 353.899 197.372 354.134 197.137C354.368 196.903 354.5 196.585 354.5 196.254V195.004C354.5 194.672 354.368 194.355 354.134 194.12C353.899 193.886 353.581 193.754 353.25 193.754ZM353.25 196.254H350.75V195.004H353.25V196.254Z" fill="black"/>
<path d="M347 202.504H346.375V191.254H345.125V202.504H344.5C344.169 202.504 343.851 202.636 343.617 202.87C343.382 203.105 343.25 203.423 343.25 203.754V205.004C343.25 205.335 343.382 205.653 343.617 205.887C343.851 206.122 344.169 206.254 344.5 206.254H345.125V208.754H346.375V206.254H347C347.331 206.254 347.649 206.122 347.883 205.887C348.118 205.653 348.25 205.335 348.25 205.004V203.754C348.25 203.423 348.118 203.105 347.883 202.87C347.649 202.636 347.331 202.504 347 202.504ZM347 205.004H344.5V203.754H347V205.004Z" fill="black"/>
<rect x="328.5" y="176.5" width="47" height="47" rx="7.5" stroke="#0F62FE"/>
<text fill="black" xml:space="preserve" style="white-space: pre" font-family="IBM Plex Sans" font-size="14" font-weight="600" letter-spacing="0.16px"><tspan x="384" y="196.25">Control &#10;</tspan><tspan x="384" y="214.25">plane</tspan></text>
<path d="M360 247.5L489 247.497V247.501L504 247.5C504.069 247.5 504.138 247.501 504.206 247.503L664 247.5C665.297 247.5 666.526 247.791 667.626 248.31V247.503H671.537V248.503H668.008C670.682 249.935 672.5 252.755 672.5 256V267H674.887L672 272L669.113 267H671.5V256C671.5 251.858 668.142 248.5 664 248.5L663.715 248.5V248.503H659.803V248.5L655.892 248.5V248.503H651.981V248.501L648.069 248.501V248.503H644.158V248.501L640.246 248.501V248.503H636.335V248.501L632.424 248.501V248.503H628.512V248.501L624.601 248.501V248.503H620.69V248.501L616.778 248.502V248.503H612.867V248.502L508.008 248.503C510.682 249.935 512.5 252.755 512.5 256V267H514.887L512 272L509.113 267H511.5V256C511.5 251.923 508.246 248.606 504.194 248.503H373V248.5L360 248.5C356.753 248.5 353.931 246.679 352.5 244.003L352.5 267H354.887L352 272L349.113 267H351.5L351.5 240.007C351.5 240.005 351.5 240.002 351.5 240L351.5 229L349.113 229L352 224L354.887 229H352.5L352.5 240.007C352.504 244.146 355.86 247.5 360 247.5Z" fill="#565151"/>
<path d="M824 248.5L821.924 248.5L821.924 247.5L824 247.5C824.567 247.5 825.121 247.556 825.658 247.662L825.464 248.643C824.991 248.549 824.501 248.5 824 248.5Z" fill="#565151"/>
<path d="M817.771 248.5L813.619 248.5V247.5L817.771 247.5V248.5Z" fill="#565151"/>
<path d="M809.466 248.501L805.314 248.501L805.314 247.501L809.466 247.501V248.501Z" fill="#565151"/>
<path d="M801.161 248.501L797.009 248.501L797.009 247.501L801.161 247.501L801.161 248.501Z" fill="#565151"/>
<path d="M792.856 248.501L788.704 248.501L788.704 247.501L792.856 247.501L792.856 248.501Z" fill="#565151"/>
<path d="M784.551 248.501L780.399 248.501V247.501L784.551 247.501V248.501Z" fill="#565151"/>
<path d="M776.246 248.501L772.094 248.502L772.094 247.502L776.246 247.501V248.501Z" fill="#565151"/>
<path d="M767.941 248.502L763.789 248.502L763.789 247.502L767.941 247.502L767.941 248.502Z" fill="#565151"/>
<path d="M759.637 248.502L755.484 248.502L755.484 247.502L759.636 247.502L759.637 248.502Z" fill="#565151"/>
<path d="M751.332 248.502L747.179 248.502V247.502L751.332 247.502L751.332 248.502Z" fill="#565151"/>
<path d="M743.027 248.502L738.874 248.502V247.502L743.027 247.502V248.502Z" fill="#565151"/>
<path d="M734.722 248.503L730.569 248.503L730.569 247.503L734.722 247.503L734.722 248.503Z" fill="#565151"/>
<path d="M726.417 248.503L722.385 248.503V247.503L726.417 247.503L726.417 248.503Z" fill="#565151"/>
<path d="M679.36 248.503H675.449V247.503H679.36V248.503Z" fill="#565151"/>
<path d="M687.183 248.503H683.271V247.503H687.183V248.503Z" fill="#565151"/>
<path d="M695.005 248.503H691.094V247.503H695.005V248.503Z" fill="#565151"/>
<path d="M702.828 248.503H698.917V247.503H702.828V248.503Z" fill="#565151"/>
<path d="M710.651 248.503H706.739V247.503H710.651V248.503Z" fill="#565151"/>
<path d="M718.473 248.503H714.562V247.503H718.473V248.503Z" fill="#565151"/>
<path d="M830.237 251.833C829.689 251.015 828.985 250.311 828.167 249.763L828.723 248.932C829.65 249.553 830.448 250.35 831.068 251.277L830.237 251.833Z" fill="#565151"/>
<path d="M831.5 256C831.5 255.499 831.451 255.009 831.357 254.536L832.338 254.342C832.444 254.879 832.5 255.433 832.5 256V258H831.5V256Z" fill="#565151"/>
<path d="M831.5 266V262H832.5V266H831.5Z" fill="#565151"/>
<path d="M834.887 267L832 272L829.113 267H834.887Z" fill="#565151"/>
<path fill-rule="evenodd" clip-rule="evenodd" d="M149 210.887L144 208L149 205.113V207.5H251V205.113L256 208L251 210.887V208.5H149V210.887Z" fill="#0043CE"/>
<rect x="48.5" y="472.5" width="15" height="15" fill="#F4F4F4"/>
<rect x="48.5" y="472.5" width="15" height="15" stroke="#8D8D8D" stroke-dasharray="4 4"/>
<text fill="#6F6F6F" xml:space="preserve" style="white-space: pre" font-family="IBM Plex Sans" font-size="14" letter-spacing="0.16px"><tspan x="72" y="485.25">Clusters 4 to n</tspan></text>
<defs>
<clipPath id="clip0_22_27">
<rect width="137" height="48" fill="white" transform="translate(48 48)"/>
</clipPath>
<clipPath id="clip1_22_27">
<rect width="20" height="20" fill="white" transform="translate(64 62)"/>
</clipPath>
<clipPath id="clip2_22_27">
<rect width="213" height="48" fill="white" transform="translate(240 48)"/>
</clipPath>
<clipPath id="clip3_22_27">
<rect width="181" height="48" fill="white" transform="translate(256 112)"/>
</clipPath>
<clipPath id="clip4_22_27">
<rect width="20" height="20" fill="white" transform="translate(272 126)"/>
</clipPath>
</defs>
</svg>
