<svg width="1080" height="540" viewBox="0 0 1080 540" fill="none" xmlns="http://www.w3.org/2000/svg">
<rect width="1080" height="540" fill="#B0ADAD"/>
<rect x="-3587" y="-11293" width="19980" height="19930" fill="white" style="mix-blend-mode:multiply"/>
<rect x="-3587" y="-11293" width="19980" height="19930" stroke="#161616" stroke-width="20"/>
<rect width="1080" height="540" fill="#F4F4F4"/>
<rect x="48.5" y="48.5" width="327" height="391" fill="white"/>
<rect x="49" y="49" width="326" height="390" fill="#EDF5FF"/>
<g clip-path="url(#clip0_22_27)">
<line x1="50" y1="48" x2="50" y2="96" stroke="#0F62FE" stroke-width="4"/>
<g clip-path="url(#clip1_22_27)">
<rect width="20" height="20" transform="translate(64 62)" fill="white" style="mix-blend-mode:multiply"/>
<path d="M79.3637 70.5322C78.7425 69.3683 77.7598 68.4378 76.5637 67.8812C75.3675 67.3245 74.0228 67.1718 72.7324 67.4461C71.4419 67.7204 70.2755 68.4069 69.4092 69.4019C68.5429 70.397 68.0236 71.6467 67.9296 72.9627C66.8564 73.0781 65.8683 73.6004 65.1686 74.4222C64.4688 75.2441 64.1107 76.3028 64.1679 77.3807C64.225 78.4585 64.6932 79.4735 65.4759 80.2167C66.2587 80.9598 67.2965 81.3747 68.3759 81.376H78.3759C79.7404 81.3768 81.056 80.8673 82.0639 79.9475C83.0719 79.0278 83.6995 77.7643 83.8233 76.4053C83.947 75.0464 83.5581 73.6903 82.7329 72.6036C81.9077 71.5168 80.7059 70.778 79.3637 70.5322ZM78.3759 80.4385H68.3759C67.5443 80.4404 66.7433 80.1258 66.1353 79.5585C65.5273 78.9912 65.158 78.2138 65.1024 77.3842C65.0467 76.5545 65.3089 75.7348 65.8357 75.0914C66.3626 74.448 67.1145 74.0293 67.9388 73.9202C68.0049 74.7473 68.2397 75.5521 68.6286 76.285C68.6567 76.3409 68.6958 76.3906 68.7434 76.4311C68.7911 76.4717 68.8464 76.5023 68.9061 76.5211C68.9657 76.5399 69.0286 76.5466 69.0909 76.5408C69.1532 76.535 69.2137 76.5167 69.2688 76.4871C69.3239 76.4575 69.3726 76.4172 69.4119 76.3685C69.4512 76.3199 69.4804 76.2638 69.4977 76.2037C69.5149 76.1435 69.52 76.0805 69.5126 76.0184C69.5052 75.9563 69.4854 75.8963 69.4544 75.8419C68.8348 74.6837 68.6806 73.3326 69.0234 72.0645C69.3661 70.7965 70.1798 69.707 71.2985 69.0186C72.4172 68.3301 73.7565 68.0945 75.0429 68.36C76.3294 68.6254 77.466 69.3718 78.2209 70.4468C77.4718 70.4674 76.735 70.6418 76.056 70.9589C75.3771 71.2761 74.7705 71.7293 74.274 72.2905C74.2317 72.3364 74.199 72.3903 74.1778 72.449C74.1566 72.5077 74.1474 72.57 74.1506 72.6324C74.1538 72.6947 74.1695 72.7557 74.1966 72.8119C74.2237 72.8681 74.2618 72.9184 74.3086 72.9596C74.3554 73.0009 74.41 73.0325 74.4691 73.0524C74.5282 73.0723 74.5908 73.0802 74.653 73.0757C74.7152 73.0711 74.7759 73.0541 74.8315 73.0258C74.8872 72.9975 74.9365 72.9583 74.9768 72.9107C75.4776 72.3427 76.1127 71.9092 76.8241 71.6499C77.5355 71.3906 78.3006 71.3138 79.0494 71.4263C79.7982 71.5389 80.5068 71.8373 81.1106 72.2943C81.7143 72.7513 82.1939 73.3524 82.5055 74.0425C82.8171 74.7326 82.9508 75.4898 82.8944 76.2449C82.838 77 82.5932 77.729 82.1825 78.3651C81.7718 79.0012 81.2082 79.5243 80.5432 79.8865C79.8782 80.2487 79.1331 80.4385 78.3759 80.4385Z" fill="black"/>
<path d="M83.9373 68.4102C83.9062 68.3563 83.8648 68.309 83.8154 68.2711C83.766 68.2331 83.7096 68.2053 83.6494 68.1892C83.5892 68.1731 83.5265 68.169 83.4648 68.1771C83.403 68.1853 83.3435 68.2055 83.2896 68.2367L81.4021 69.3266C81.3466 69.3569 81.2978 69.398 81.2585 69.4475C81.2192 69.4969 81.1901 69.5537 81.1731 69.6145C81.156 69.6754 81.1513 69.739 81.1591 69.8017C81.167 69.8644 81.1873 69.9249 81.2189 69.9796C81.2505 70.0343 81.2927 70.0822 81.343 70.1204C81.3933 70.1586 81.4508 70.1863 81.512 70.202C81.5732 70.2177 81.6369 70.2209 81.6994 70.2116C81.7619 70.2023 81.8219 70.1807 81.8759 70.1479L83.7634 69.058C83.8723 68.9951 83.9519 68.8916 83.9845 68.7701C84.0171 68.6486 84.0001 68.5192 83.9373 68.4102Z" fill="black"/>
<path d="M78.1736 66.9197C78.2275 66.9509 78.2871 66.9711 78.3488 66.9793C78.4106 66.9874 78.4733 66.9833 78.5335 66.9672C78.5936 66.9511 78.65 66.9233 78.6994 66.8854C78.7488 66.8475 78.7903 66.8002 78.8214 66.7462L79.9112 64.8587C79.973 64.7499 79.9893 64.621 79.9564 64.5003C79.9236 64.3795 79.8444 64.2766 79.736 64.214C79.6276 64.1515 79.4989 64.1343 79.3779 64.1662C79.2569 64.1981 79.1534 64.2766 79.09 64.3845L78.0001 66.272C77.9373 66.3809 77.9202 66.5103 77.9528 66.6318C77.9853 66.7532 78.0647 66.8568 78.1736 66.9197Z" fill="black"/>
<path d="M74.0009 65.8017C74.1266 65.8016 74.2473 65.7517 74.3362 65.6627C74.4251 65.5738 74.4751 65.4532 74.4751 65.3274V63.1477C74.4758 63.0849 74.4641 63.0227 74.4406 62.9645C74.4171 62.9063 74.3823 62.8534 74.3382 62.8088C74.2941 62.7642 74.2415 62.7288 74.1836 62.7046C74.1258 62.6804 74.0636 62.668 74.0009 62.668C73.9382 62.668 73.8761 62.6804 73.8182 62.7046C73.7603 62.7288 73.7077 62.7642 73.6636 62.8088C73.6195 62.8534 73.5847 62.9063 73.5612 62.9645C73.5377 63.0227 73.526 63.0849 73.5267 63.1477V65.3274C73.5267 65.4532 73.5767 65.5738 73.6656 65.6627C73.7545 65.7517 73.8751 65.8016 74.0009 65.8017Z" fill="black"/>
<path d="M69.1804 66.7461C69.2438 66.854 69.3473 66.9325 69.4683 66.9644C69.5893 66.9963 69.718 66.9791 69.8264 66.9165C69.9348 66.854 70.014 66.7511 70.0469 66.6303C70.0797 66.5095 70.0635 66.3807 70.0017 66.2719L68.9118 64.3844C68.8809 64.3299 68.8396 64.2822 68.7902 64.2438C68.7407 64.2054 68.6842 64.1772 68.6238 64.1608C68.5634 64.1444 68.5004 64.1401 68.4384 64.1482C68.3763 64.1562 68.3165 64.1765 68.2623 64.2078C68.2081 64.2391 68.1606 64.2808 68.1226 64.3305C68.0847 64.3802 68.0569 64.4369 68.0409 64.4974C68.025 64.5579 68.0211 64.621 68.0296 64.683C68.0382 64.745 68.0589 64.8047 68.0906 64.8586L69.1804 66.7461Z" fill="black"/>
<path d="M66.5999 69.3266L64.7124 68.2367C64.6585 68.205 64.5988 68.1843 64.5368 68.1758C64.4748 68.1673 64.4118 68.1711 64.3513 68.1871C64.2908 68.203 64.234 68.2308 64.1843 68.2688C64.1346 68.3068 64.0929 68.3543 64.0616 68.4084C64.0303 68.4626 64.0101 68.5225 64.002 68.5845C63.9939 68.6466 63.9982 68.7096 64.0147 68.77C64.0311 68.8304 64.0593 68.8869 64.0976 68.9363C64.136 68.9857 64.1838 69.0271 64.2382 69.058L66.1259 70.1479C66.1798 70.1795 66.2395 70.2003 66.3015 70.2088C66.3635 70.2173 66.4265 70.2135 66.487 70.1975C66.5475 70.1815 66.6043 70.1538 66.654 70.1158C66.7037 70.0778 66.7454 70.0303 66.7767 69.9761C66.808 69.9219 66.8283 69.8621 66.8363 69.8001C66.8444 69.738 66.8401 69.675 66.8237 69.6146C66.8072 69.5542 66.779 69.4977 66.7407 69.4483C66.7023 69.3988 66.6544 69.3575 66.5999 69.3266Z" fill="black"/>
</g>
<text fill="black" xml:space="preserve" style="white-space: pre" font-family="IBM Plex Sans" font-size="14" font-weight="600" letter-spacing="0.16px"><tspan x="100" y="77.25">IBM Cloud</tspan></text>
</g>
<rect x="48.5" y="48.5" width="327" height="391" stroke="#0F62FE"/>
<rect x="96" y="175" width="48" height="48" rx="8" fill="#0F62FE"/>
<rect width="20" height="20" transform="translate(110 189)" fill="white" style="mix-blend-mode:multiply"/>
<path d="M127.5 197.754H126.875V190.254H125.625V197.754H125C124.669 197.754 124.351 197.886 124.116 198.12C123.882 198.355 123.75 198.672 123.75 199.004V200.254C123.75 200.585 123.882 200.903 124.117 201.137C124.351 201.372 124.669 201.504 125 201.504H125.625V207.754H126.875V201.504H127.5C127.831 201.503 128.149 201.372 128.383 201.137C128.618 200.903 128.75 200.585 128.75 200.254V199.004C128.75 198.673 128.618 198.355 128.383 198.12C128.149 197.886 127.831 197.754 127.5 197.754ZM127.5 200.254H125V199.004H127.5V200.254Z" fill="white"/>
<path d="M121.25 192.754H120.625V190.254H119.375V192.754H118.75C118.419 192.754 118.101 192.886 117.866 193.12C117.632 193.355 117.5 193.672 117.5 194.004V195.254C117.5 195.585 117.632 195.903 117.866 196.137C118.101 196.372 118.419 196.504 118.75 196.504H119.375V207.754H120.625V196.504H121.25C121.581 196.504 121.899 196.372 122.134 196.137C122.368 195.903 122.5 195.585 122.5 195.254V194.004C122.5 193.672 122.368 193.355 122.134 193.12C121.899 192.886 121.581 192.754 121.25 192.754ZM121.25 195.254H118.75V194.004H121.25V195.254Z" fill="white"/>
<path d="M115 201.504H114.375V190.254H113.125V201.504H112.5C112.169 201.504 111.851 201.636 111.617 201.87C111.382 202.105 111.25 202.423 111.25 202.754V204.004C111.25 204.335 111.382 204.653 111.617 204.887C111.851 205.122 112.169 205.254 112.5 205.254H113.125V207.754H114.375V205.254H115C115.331 205.254 115.649 205.122 115.883 204.887C116.118 204.653 116.25 204.335 116.25 204.004V202.754C116.25 202.423 116.118 202.105 115.883 201.87C115.649 201.636 115.331 201.504 115 201.504ZM115 204.004H112.5V202.754H115V204.004Z" fill="white"/>
<text fill="black" xml:space="preserve" style="white-space: pre" font-family="IBM Plex Sans" font-size="14" font-weight="600" letter-spacing="0.16px"><tspan x="90.4734" y="245.25">Satellite &#10;</tspan><tspan x="73.1346" y="263.25"> management &#10;</tspan><tspan x="101.496" y="281.25">plane</tspan></text>
<rect x="424.5" y="48.5" width="279" height="391" fill="white"/>
<rect x="425" y="49" width="278" height="390" fill="white"/>
<g clip-path="url(#clip2_22_27)">
<line x1="426" y1="48" x2="426" y2="96" stroke="#8D8D8D" stroke-width="4"/>
<text fill="black" xml:space="preserve" style="white-space: pre" font-family="IBM Plex Sans" font-size="14" font-weight="600" letter-spacing="0.16px"><tspan x="440" y="68.25">Edge or other data center A</tspan></text>
<text fill="black" xml:space="preserve" style="white-space: pre" font-family="IBM Plex Sans" font-size="14" letter-spacing="0.16px"><tspan x="440" y="86.25">(Customer-owned)</tspan></text>
</g>
<rect x="424.5" y="48.5" width="279" height="391" stroke="#8D8D8D"/>
<rect x="752.5" y="48.5" width="279" height="391" fill="white"/>
<rect x="753" y="49" width="278" height="390" fill="white"/>
<g clip-path="url(#clip3_22_27)">
<line x1="754" y1="48" x2="754" y2="96" stroke="#8D8D8D" stroke-width="4"/>
<text fill="black" xml:space="preserve" style="white-space: pre" font-family="IBM Plex Sans" font-size="14" font-weight="600" letter-spacing="0.16px"><tspan x="768" y="68.25">Edge or other data center B</tspan></text>
<text fill="black" xml:space="preserve" style="white-space: pre" font-family="IBM Plex Sans" font-size="14" letter-spacing="0.16px"><tspan x="768" y="86.25">(Customer-owned)</tspan></text>
</g>
<rect x="752.5" y="48.5" width="279" height="391" stroke="#8D8D8D"/>
<path d="M192.5 112.5H1008C1012.14 112.5 1015.5 115.858 1015.5 120V416C1015.5 420.142 1012.14 423.5 1008 423.5H200C195.858 423.5 192.5 420.142 192.5 416V112.5Z" fill="#F7F3F2"/>
<g clip-path="url(#clip4_22_27)">
<line x1="194" y1="112" x2="194" y2="160" stroke="#8D8D8D" stroke-width="4"/>
<g clip-path="url(#clip5_22_27)">
<rect width="20" height="20" transform="translate(208 126)" fill="white" style="mix-blend-mode:multiply"/>
<path d="M228 142.25V141H226.687C226.606 140.609 226.451 140.237 226.229 139.904L227.161 138.973L226.277 138.089L225.346 139.021C225.013 138.799 224.641 138.644 224.25 138.563V137.25H223V138.563C222.609 138.644 222.237 138.799 221.904 139.021L220.973 138.089L220.089 138.973L221.021 139.904C220.799 140.237 220.644 140.609 220.563 141H219.25V142.25H220.563C220.644 142.641 220.799 143.013 221.021 143.346L220.089 144.277L220.973 145.161L221.904 144.229C222.237 144.451 222.609 144.606 223 144.687V146H224.25V144.687C224.641 144.606 225.013 144.451 225.346 144.229L226.277 145.161L227.161 144.277L226.229 143.346C226.451 143.013 226.606 142.641 226.687 142.25H228ZM223.625 143.5C223.254 143.5 222.892 143.39 222.583 143.184C222.275 142.978 222.035 142.685 221.893 142.343C221.751 142 221.714 141.623 221.786 141.259C221.858 140.896 222.037 140.561 222.299 140.299C222.561 140.037 222.895 139.858 223.259 139.786C223.623 139.714 224 139.751 224.343 139.893C224.685 140.035 224.978 140.275 225.184 140.583C225.39 140.892 225.5 141.254 225.5 141.625C225.499 142.122 225.302 142.599 224.95 142.95C224.599 143.302 224.122 143.499 223.625 143.5Z" fill="black"/>
<path d="M212.375 139.75C213.065 139.75 213.625 139.19 213.625 138.5C213.625 137.81 213.065 137.25 212.375 137.25C211.685 137.25 211.125 137.81 211.125 138.5C211.125 139.19 211.685 139.75 212.375 139.75Z" fill="black"/>
<path d="M216.75 138.5C216.256 138.5 215.772 138.353 215.361 138.079C214.95 137.804 214.63 137.414 214.44 136.957C214.251 136.5 214.202 135.997 214.298 135.512C214.394 135.027 214.633 134.582 214.982 134.232C215.332 133.883 215.777 133.645 216.262 133.548C216.747 133.452 217.25 133.501 217.707 133.69C218.164 133.88 218.554 134.2 218.829 134.611C219.103 135.022 219.25 135.506 219.25 136C219.248 136.662 218.984 137.297 218.516 137.766C218.047 138.234 217.412 138.498 216.75 138.5ZM216.75 134.75C216.503 134.75 216.261 134.823 216.056 134.961C215.85 135.098 215.69 135.293 215.595 135.522C215.501 135.75 215.476 136.001 215.524 136.244C215.572 136.486 215.691 136.709 215.866 136.884C216.041 137.059 216.264 137.178 216.506 137.226C216.749 137.274 217 137.249 217.228 137.155C217.457 137.06 217.652 136.9 217.789 136.694C217.927 136.489 218 136.247 218 136C217.999 135.669 217.867 135.351 217.633 135.117C217.399 134.883 217.081 134.751 216.75 134.75Z" fill="black"/>
<path d="M221.125 134.75C221.815 134.75 222.375 134.19 222.375 133.5C222.375 132.81 221.815 132.25 221.125 132.25C220.435 132.25 219.875 132.81 219.875 133.5C219.875 134.19 220.435 134.75 221.125 134.75Z" fill="black"/>
<path d="M216.138 143.67L209.875 140.016V131.984L216.75 127.974L223.935 132.165L224.565 131.085L217.065 126.71C216.969 126.654 216.861 126.625 216.75 126.625C216.639 126.625 216.531 126.654 216.435 126.71L208.935 131.085C208.841 131.14 208.762 131.219 208.708 131.314C208.654 131.408 208.625 131.516 208.625 131.625V140.375C208.625 140.484 208.654 140.592 208.708 140.686C208.762 140.781 208.841 140.86 208.935 140.915L215.508 144.75L216.138 143.67Z" fill="black"/>
</g>
<text fill="black" xml:space="preserve" style="white-space: pre" font-family="IBM Plex Sans" font-size="14" font-weight="600" letter-spacing="0.16px"><tspan x="244" y="141.25">Satellite location</tspan></text>
</g>
<path d="M192.5 112.5H1008C1012.14 112.5 1015.5 115.858 1015.5 120V416C1015.5 420.142 1012.14 423.5 1008 423.5H200C195.858 423.5 192.5 420.142 192.5 416V112.5Z" stroke="#8D8D8D"/>
<rect width="48" height="48" transform="translate(480 272)" fill="#8D8D8D"/>
<rect width="20" height="20" transform="translate(494 286)" fill="white" style="mix-blend-mode:multiply"/>
<path d="M504 290.375C503.629 290.375 503.267 290.265 502.958 290.059C502.65 289.853 502.41 289.56 502.268 289.218C502.126 288.875 502.089 288.498 502.161 288.134C502.233 287.77 502.412 287.436 502.674 287.174C502.936 286.912 503.27 286.733 503.634 286.661C503.998 286.589 504.375 286.626 504.718 286.768C505.06 286.91 505.353 287.15 505.559 287.458C505.765 287.767 505.875 288.129 505.875 288.5C505.874 288.997 505.677 289.474 505.325 289.825C504.974 290.177 504.497 290.374 504 290.375ZM504 287.875C503.876 287.875 503.756 287.912 503.653 287.98C503.55 288.049 503.47 288.147 503.423 288.261C503.375 288.375 503.363 288.501 503.387 288.622C503.411 288.743 503.471 288.855 503.558 288.942C503.645 289.029 503.757 289.089 503.878 289.113C503.999 289.137 504.125 289.125 504.239 289.077C504.353 289.03 504.451 288.95 504.52 288.847C504.588 288.744 504.625 288.624 504.625 288.5C504.625 288.334 504.559 288.175 504.442 288.058C504.325 287.941 504.166 287.875 504 287.875Z" fill="white"/>
<path d="M500.875 304.75C500.504 304.75 500.142 304.64 499.833 304.434C499.525 304.228 499.285 303.935 499.143 303.593C499.001 303.25 498.964 302.873 499.036 302.509C499.108 302.145 499.287 301.811 499.549 301.549C499.811 301.287 500.145 301.108 500.509 301.036C500.873 300.964 501.25 301.001 501.593 301.143C501.935 301.285 502.228 301.525 502.434 301.833C502.64 302.142 502.75 302.504 502.75 302.875C502.749 303.372 502.552 303.849 502.2 304.2C501.849 304.552 501.372 304.749 500.875 304.75ZM500.875 302.25C500.751 302.25 500.631 302.287 500.528 302.355C500.425 302.424 500.345 302.522 500.298 302.636C500.25 302.75 500.238 302.876 500.262 302.997C500.286 303.118 500.346 303.23 500.433 303.317C500.52 303.404 500.632 303.464 500.753 303.488C500.874 303.512 501 303.5 501.114 303.452C501.228 303.405 501.326 303.325 501.395 303.222C501.463 303.119 501.5 302.999 501.5 302.875C501.5 302.709 501.434 302.55 501.317 302.433C501.2 302.316 501.041 302.25 500.875 302.25Z" fill="white"/>
<path d="M498.375 292.875C498.004 292.875 497.642 292.765 497.333 292.559C497.025 292.353 496.785 292.06 496.643 291.718C496.501 291.375 496.464 290.998 496.536 290.634C496.608 290.27 496.787 289.936 497.049 289.674C497.311 289.412 497.645 289.233 498.009 289.161C498.373 289.089 498.75 289.126 499.093 289.268C499.435 289.41 499.728 289.65 499.934 289.958C500.14 290.267 500.25 290.629 500.25 291C500.249 291.497 500.052 291.974 499.7 292.325C499.349 292.677 498.872 292.874 498.375 292.875ZM498.375 290.375C498.251 290.375 498.131 290.412 498.028 290.48C497.925 290.549 497.845 290.647 497.798 290.761C497.75 290.875 497.738 291.001 497.762 291.122C497.786 291.243 497.846 291.355 497.933 291.442C498.02 291.529 498.132 291.589 498.253 291.613C498.374 291.637 498.5 291.625 498.614 291.577C498.728 291.53 498.826 291.45 498.895 291.347C498.963 291.244 499 291.124 499 291C499 290.834 498.934 290.675 498.817 290.558C498.7 290.441 498.541 290.375 498.375 290.375Z" fill="white"/>
<path d="M507.125 304.75C506.754 304.75 506.392 304.64 506.083 304.434C505.775 304.228 505.535 303.935 505.393 303.593C505.251 303.25 505.214 302.873 505.286 302.509C505.358 302.145 505.537 301.811 505.799 301.549C506.061 301.287 506.395 301.108 506.759 301.036C507.123 300.964 507.5 301.001 507.843 301.143C508.185 301.285 508.478 301.525 508.684 301.833C508.89 302.142 509 302.504 509 302.875C508.999 303.372 508.802 303.849 508.45 304.2C508.099 304.552 507.622 304.749 507.125 304.75ZM507.125 302.25C507.001 302.25 506.881 302.287 506.778 302.355C506.675 302.424 506.595 302.522 506.548 302.636C506.5 302.75 506.488 302.876 506.512 302.997C506.536 303.118 506.596 303.23 506.683 303.317C506.77 303.404 506.882 303.464 507.003 303.488C507.124 303.512 507.25 303.5 507.364 303.452C507.478 303.405 507.576 303.325 507.645 303.222C507.713 303.119 507.75 302.999 507.75 302.875C507.75 302.709 507.684 302.55 507.567 302.433C507.45 302.316 507.291 302.25 507.125 302.25Z" fill="white"/>
<path d="M509.625 292.875C509.254 292.875 508.892 292.765 508.583 292.559C508.275 292.353 508.035 292.06 507.893 291.718C507.751 291.375 507.714 290.998 507.786 290.634C507.858 290.27 508.037 289.936 508.299 289.674C508.561 289.412 508.895 289.233 509.259 289.161C509.623 289.089 510 289.126 510.343 289.268C510.685 289.41 510.978 289.65 511.184 289.958C511.39 290.267 511.5 290.629 511.5 291C511.499 291.497 511.302 291.974 510.95 292.325C510.599 292.677 510.122 292.874 509.625 292.875ZM509.625 290.375C509.501 290.375 509.381 290.412 509.278 290.48C509.175 290.549 509.095 290.647 509.048 290.761C509 290.875 508.988 291.001 509.012 291.122C509.036 291.243 509.096 291.355 509.183 291.442C509.27 291.529 509.382 291.589 509.503 291.613C509.624 291.637 509.75 291.625 509.864 291.577C509.978 291.53 510.076 291.45 510.145 291.347C510.213 291.244 510.25 291.124 510.25 291C510.25 290.834 510.184 290.675 510.067 290.558C509.95 290.441 509.791 290.375 509.625 290.375Z" fill="white"/>
<path d="M496.5 299.125C496.129 299.125 495.767 299.015 495.458 298.809C495.15 298.603 494.91 298.31 494.768 297.968C494.626 297.625 494.589 297.248 494.661 296.884C494.733 296.52 494.912 296.186 495.174 295.924C495.436 295.662 495.77 295.483 496.134 295.411C496.498 295.339 496.875 295.376 497.218 295.518C497.56 295.66 497.853 295.9 498.059 296.208C498.265 296.517 498.375 296.879 498.375 297.25C498.374 297.747 498.177 298.224 497.825 298.575C497.474 298.927 496.997 299.124 496.5 299.125ZM496.5 296.625C496.376 296.625 496.256 296.662 496.153 296.73C496.05 296.799 495.97 296.897 495.923 297.011C495.875 297.125 495.863 297.251 495.887 297.372C495.911 297.493 495.971 297.605 496.058 297.692C496.145 297.779 496.257 297.839 496.378 297.863C496.499 297.887 496.625 297.875 496.739 297.827C496.853 297.78 496.951 297.7 497.02 297.597C497.088 297.494 497.125 297.374 497.125 297.25C497.125 297.084 497.059 296.925 496.942 296.808C496.825 296.691 496.666 296.625 496.5 296.625Z" fill="white"/>
<path d="M511.5 299.125C511.129 299.125 510.767 299.015 510.458 298.809C510.15 298.603 509.91 298.31 509.768 297.968C509.626 297.625 509.589 297.248 509.661 296.884C509.733 296.52 509.912 296.186 510.174 295.924C510.436 295.662 510.77 295.483 511.134 295.411C511.498 295.339 511.875 295.376 512.218 295.518C512.56 295.66 512.853 295.9 513.059 296.208C513.265 296.517 513.375 296.879 513.375 297.25C513.374 297.747 513.177 298.224 512.825 298.575C512.474 298.927 511.997 299.124 511.5 299.125ZM511.5 296.625C511.376 296.625 511.256 296.662 511.153 296.73C511.05 296.799 510.97 296.897 510.923 297.011C510.875 297.125 510.863 297.251 510.887 297.372C510.911 297.493 510.971 297.605 511.058 297.692C511.145 297.779 511.257 297.839 511.378 297.863C511.499 297.887 511.625 297.875 511.739 297.827C511.853 297.78 511.951 297.7 512.02 297.597C512.088 297.494 512.125 297.374 512.125 297.25C512.125 297.084 512.059 296.925 511.942 296.808C511.825 296.691 511.666 296.625 511.5 296.625Z" fill="white"/>
<path d="M504 299.75C503.258 299.75 502.533 299.53 501.917 299.118C501.3 298.706 500.819 298.12 500.535 297.435C500.252 296.75 500.177 295.996 500.322 295.268C500.467 294.541 500.824 293.873 501.348 293.348C501.873 292.824 502.541 292.467 503.268 292.322C503.996 292.177 504.75 292.252 505.435 292.535C506.12 292.819 506.706 293.3 507.118 293.917C507.53 294.533 507.75 295.258 507.75 296C507.749 296.994 507.353 297.947 506.65 298.65C505.947 299.353 504.994 299.749 504 299.75ZM504 293.5C503.506 293.5 503.022 293.647 502.611 293.921C502.2 294.196 501.88 294.586 501.69 295.043C501.501 295.5 501.452 296.003 501.548 296.488C501.645 296.973 501.883 297.418 502.232 297.768C502.582 298.117 503.027 298.356 503.512 298.452C503.997 298.548 504.5 298.499 504.957 298.31C505.414 298.12 505.804 297.8 506.079 297.389C506.353 296.978 506.5 296.494 506.5 296C506.499 295.337 506.236 294.702 505.767 294.233C505.298 293.764 504.663 293.501 504 293.5Z" fill="white"/>
<text fill="black" xml:space="preserve" style="white-space: pre" font-family="IBM Plex Sans" font-size="14" font-weight="600" letter-spacing="0.16px"><tspan x="536" y="300.25">Cluster 1</tspan></text>
<rect width="48" height="48" transform="translate(480 360)" fill="#8D8D8D"/>
<rect width="20" height="20" transform="translate(494 374)" fill="white" style="mix-blend-mode:multiply"/>
<path d="M504 378.375C503.629 378.375 503.267 378.265 502.958 378.059C502.65 377.853 502.41 377.56 502.268 377.218C502.126 376.875 502.089 376.498 502.161 376.134C502.233 375.77 502.412 375.436 502.674 375.174C502.936 374.912 503.27 374.733 503.634 374.661C503.998 374.589 504.375 374.626 504.718 374.768C505.06 374.91 505.353 375.15 505.559 375.458C505.765 375.767 505.875 376.129 505.875 376.5C505.874 376.997 505.677 377.474 505.325 377.825C504.974 378.177 504.497 378.374 504 378.375ZM504 375.875C503.876 375.875 503.756 375.912 503.653 375.98C503.55 376.049 503.47 376.147 503.423 376.261C503.375 376.375 503.363 376.501 503.387 376.622C503.411 376.743 503.471 376.855 503.558 376.942C503.645 377.029 503.757 377.089 503.878 377.113C503.999 377.137 504.125 377.125 504.239 377.077C504.353 377.03 504.451 376.95 504.52 376.847C504.588 376.744 504.625 376.624 504.625 376.5C504.625 376.334 504.559 376.175 504.442 376.058C504.325 375.941 504.166 375.875 504 375.875Z" fill="white"/>
<path d="M500.875 392.75C500.504 392.75 500.142 392.64 499.833 392.434C499.525 392.228 499.285 391.935 499.143 391.593C499.001 391.25 498.964 390.873 499.036 390.509C499.108 390.145 499.287 389.811 499.549 389.549C499.811 389.287 500.145 389.108 500.509 389.036C500.873 388.964 501.25 389.001 501.593 389.143C501.935 389.285 502.228 389.525 502.434 389.833C502.64 390.142 502.75 390.504 502.75 390.875C502.749 391.372 502.552 391.849 502.2 392.2C501.849 392.552 501.372 392.749 500.875 392.75ZM500.875 390.25C500.751 390.25 500.631 390.287 500.528 390.355C500.425 390.424 500.345 390.522 500.298 390.636C500.25 390.75 500.238 390.876 500.262 390.997C500.286 391.118 500.346 391.23 500.433 391.317C500.52 391.404 500.632 391.464 500.753 391.488C500.874 391.512 501 391.5 501.114 391.452C501.228 391.405 501.326 391.325 501.395 391.222C501.463 391.119 501.5 390.999 501.5 390.875C501.5 390.709 501.434 390.55 501.317 390.433C501.2 390.316 501.041 390.25 500.875 390.25Z" fill="white"/>
<path d="M498.375 380.875C498.004 380.875 497.642 380.765 497.333 380.559C497.025 380.353 496.785 380.06 496.643 379.718C496.501 379.375 496.464 378.998 496.536 378.634C496.608 378.27 496.787 377.936 497.049 377.674C497.311 377.412 497.645 377.233 498.009 377.161C498.373 377.089 498.75 377.126 499.093 377.268C499.435 377.41 499.728 377.65 499.934 377.958C500.14 378.267 500.25 378.629 500.25 379C500.249 379.497 500.052 379.974 499.7 380.325C499.349 380.677 498.872 380.874 498.375 380.875ZM498.375 378.375C498.251 378.375 498.131 378.412 498.028 378.48C497.925 378.549 497.845 378.647 497.798 378.761C497.75 378.875 497.738 379.001 497.762 379.122C497.786 379.243 497.846 379.355 497.933 379.442C498.02 379.529 498.132 379.589 498.253 379.613C498.374 379.637 498.5 379.625 498.614 379.577C498.728 379.53 498.826 379.45 498.895 379.347C498.963 379.244 499 379.124 499 379C499 378.834 498.934 378.675 498.817 378.558C498.7 378.441 498.541 378.375 498.375 378.375Z" fill="white"/>
<path d="M507.125 392.75C506.754 392.75 506.392 392.64 506.083 392.434C505.775 392.228 505.535 391.935 505.393 391.593C505.251 391.25 505.214 390.873 505.286 390.509C505.358 390.145 505.537 389.811 505.799 389.549C506.061 389.287 506.395 389.108 506.759 389.036C507.123 388.964 507.5 389.001 507.843 389.143C508.185 389.285 508.478 389.525 508.684 389.833C508.89 390.142 509 390.504 509 390.875C508.999 391.372 508.802 391.849 508.45 392.2C508.099 392.552 507.622 392.749 507.125 392.75ZM507.125 390.25C507.001 390.25 506.881 390.287 506.778 390.355C506.675 390.424 506.595 390.522 506.548 390.636C506.5 390.75 506.488 390.876 506.512 390.997C506.536 391.118 506.596 391.23 506.683 391.317C506.77 391.404 506.882 391.464 507.003 391.488C507.124 391.512 507.25 391.5 507.364 391.452C507.478 391.405 507.576 391.325 507.645 391.222C507.713 391.119 507.75 390.999 507.75 390.875C507.75 390.709 507.684 390.55 507.567 390.433C507.45 390.316 507.291 390.25 507.125 390.25Z" fill="white"/>
<path d="M509.625 380.875C509.254 380.875 508.892 380.765 508.583 380.559C508.275 380.353 508.035 380.06 507.893 379.718C507.751 379.375 507.714 378.998 507.786 378.634C507.858 378.27 508.037 377.936 508.299 377.674C508.561 377.412 508.895 377.233 509.259 377.161C509.623 377.089 510 377.126 510.343 377.268C510.685 377.41 510.978 377.65 511.184 377.958C511.39 378.267 511.5 378.629 511.5 379C511.499 379.497 511.302 379.974 510.95 380.325C510.599 380.677 510.122 380.874 509.625 380.875ZM509.625 378.375C509.501 378.375 509.381 378.412 509.278 378.48C509.175 378.549 509.095 378.647 509.048 378.761C509 378.875 508.988 379.001 509.012 379.122C509.036 379.243 509.096 379.355 509.183 379.442C509.27 379.529 509.382 379.589 509.503 379.613C509.624 379.637 509.75 379.625 509.864 379.577C509.978 379.53 510.076 379.45 510.145 379.347C510.213 379.244 510.25 379.124 510.25 379C510.25 378.834 510.184 378.675 510.067 378.558C509.95 378.441 509.791 378.375 509.625 378.375Z" fill="white"/>
<path d="M496.5 387.125C496.129 387.125 495.767 387.015 495.458 386.809C495.15 386.603 494.91 386.31 494.768 385.968C494.626 385.625 494.589 385.248 494.661 384.884C494.733 384.52 494.912 384.186 495.174 383.924C495.436 383.662 495.77 383.483 496.134 383.411C496.498 383.339 496.875 383.376 497.218 383.518C497.56 383.66 497.853 383.9 498.059 384.208C498.265 384.517 498.375 384.879 498.375 385.25C498.374 385.747 498.177 386.224 497.825 386.575C497.474 386.927 496.997 387.124 496.5 387.125ZM496.5 384.625C496.376 384.625 496.256 384.662 496.153 384.73C496.05 384.799 495.97 384.897 495.923 385.011C495.875 385.125 495.863 385.251 495.887 385.372C495.911 385.493 495.971 385.605 496.058 385.692C496.145 385.779 496.257 385.839 496.378 385.863C496.499 385.887 496.625 385.875 496.739 385.827C496.853 385.78 496.951 385.7 497.02 385.597C497.088 385.494 497.125 385.374 497.125 385.25C497.125 385.084 497.059 384.925 496.942 384.808C496.825 384.691 496.666 384.625 496.5 384.625Z" fill="white"/>
<path d="M511.5 387.125C511.129 387.125 510.767 387.015 510.458 386.809C510.15 386.603 509.91 386.31 509.768 385.968C509.626 385.625 509.589 385.248 509.661 384.884C509.733 384.52 509.912 384.186 510.174 383.924C510.436 383.662 510.77 383.483 511.134 383.411C511.498 383.339 511.875 383.376 512.218 383.518C512.56 383.66 512.853 383.9 513.059 384.208C513.265 384.517 513.375 384.879 513.375 385.25C513.374 385.747 513.177 386.224 512.825 386.575C512.474 386.927 511.997 387.124 511.5 387.125ZM511.5 384.625C511.376 384.625 511.256 384.662 511.153 384.73C511.05 384.799 510.97 384.897 510.923 385.011C510.875 385.125 510.863 385.251 510.887 385.372C510.911 385.493 510.971 385.605 511.058 385.692C511.145 385.779 511.257 385.839 511.378 385.863C511.499 385.887 511.625 385.875 511.739 385.827C511.853 385.78 511.951 385.7 512.02 385.597C512.088 385.494 512.125 385.374 512.125 385.25C512.125 385.084 512.059 384.925 511.942 384.808C511.825 384.691 511.666 384.625 511.5 384.625Z" fill="white"/>
<path d="M504 387.75C503.258 387.75 502.533 387.53 501.917 387.118C501.3 386.706 500.819 386.12 500.535 385.435C500.252 384.75 500.177 383.996 500.322 383.268C500.467 382.541 500.824 381.873 501.348 381.348C501.873 380.824 502.541 380.467 503.268 380.322C503.996 380.177 504.75 380.252 505.435 380.535C506.12 380.819 506.706 381.3 507.118 381.917C507.53 382.533 507.75 383.258 507.75 384C507.749 384.994 507.353 385.947 506.65 386.65C505.947 387.353 504.994 387.749 504 387.75ZM504 381.5C503.506 381.5 503.022 381.647 502.611 381.921C502.2 382.196 501.88 382.586 501.69 383.043C501.501 383.5 501.452 384.003 501.548 384.488C501.645 384.973 501.883 385.418 502.232 385.768C502.582 386.117 503.027 386.356 503.512 386.452C503.997 386.548 504.5 386.499 504.957 386.31C505.414 386.12 505.804 385.8 506.079 385.389C506.353 384.978 506.5 384.494 506.5 384C506.499 383.337 506.236 382.702 505.767 382.233C505.298 381.764 504.663 381.501 504 381.5Z" fill="white"/>
<text fill="black" xml:space="preserve" style="white-space: pre" font-family="IBM Plex Sans" font-size="14" font-weight="600" letter-spacing="0.16px"><tspan x="536" y="388.25">Cluster 2</tspan></text>
<rect width="48" height="48" transform="translate(808 272)" fill="#8D8D8D"/>
<rect width="20" height="20" transform="translate(822 286)" fill="white" style="mix-blend-mode:multiply"/>
<path d="M832 290.375C831.629 290.375 831.267 290.265 830.958 290.059C830.65 289.853 830.41 289.56 830.268 289.218C830.126 288.875 830.089 288.498 830.161 288.134C830.233 287.77 830.412 287.436 830.674 287.174C830.936 286.912 831.27 286.733 831.634 286.661C831.998 286.589 832.375 286.626 832.718 286.768C833.06 286.91 833.353 287.15 833.559 287.458C833.765 287.767 833.875 288.129 833.875 288.5C833.874 288.997 833.677 289.474 833.325 289.825C832.974 290.177 832.497 290.374 832 290.375ZM832 287.875C831.876 287.875 831.756 287.912 831.653 287.98C831.55 288.049 831.47 288.147 831.423 288.261C831.375 288.375 831.363 288.501 831.387 288.622C831.411 288.743 831.471 288.855 831.558 288.942C831.645 289.029 831.757 289.089 831.878 289.113C831.999 289.137 832.125 289.125 832.239 289.077C832.353 289.03 832.451 288.95 832.52 288.847C832.588 288.744 832.625 288.624 832.625 288.5C832.625 288.334 832.559 288.175 832.442 288.058C832.325 287.941 832.166 287.875 832 287.875Z" fill="white"/>
<path d="M828.875 304.75C828.504 304.75 828.142 304.64 827.833 304.434C827.525 304.228 827.285 303.935 827.143 303.593C827.001 303.25 826.964 302.873 827.036 302.509C827.108 302.145 827.287 301.811 827.549 301.549C827.811 301.287 828.145 301.108 828.509 301.036C828.873 300.964 829.25 301.001 829.593 301.143C829.935 301.285 830.228 301.525 830.434 301.833C830.64 302.142 830.75 302.504 830.75 302.875C830.749 303.372 830.552 303.849 830.2 304.2C829.849 304.552 829.372 304.749 828.875 304.75ZM828.875 302.25C828.751 302.25 828.631 302.287 828.528 302.355C828.425 302.424 828.345 302.522 828.298 302.636C828.25 302.75 828.238 302.876 828.262 302.997C828.286 303.118 828.346 303.23 828.433 303.317C828.52 303.404 828.632 303.464 828.753 303.488C828.874 303.512 829 303.5 829.114 303.452C829.228 303.405 829.326 303.325 829.395 303.222C829.463 303.119 829.5 302.999 829.5 302.875C829.5 302.709 829.434 302.55 829.317 302.433C829.2 302.316 829.041 302.25 828.875 302.25Z" fill="white"/>
<path d="M826.375 292.875C826.004 292.875 825.642 292.765 825.333 292.559C825.025 292.353 824.785 292.06 824.643 291.718C824.501 291.375 824.464 290.998 824.536 290.634C824.608 290.27 824.787 289.936 825.049 289.674C825.311 289.412 825.645 289.233 826.009 289.161C826.373 289.089 826.75 289.126 827.093 289.268C827.435 289.41 827.728 289.65 827.934 289.958C828.14 290.267 828.25 290.629 828.25 291C828.249 291.497 828.052 291.974 827.7 292.325C827.349 292.677 826.872 292.874 826.375 292.875ZM826.375 290.375C826.251 290.375 826.131 290.412 826.028 290.48C825.925 290.549 825.845 290.647 825.798 290.761C825.75 290.875 825.738 291.001 825.762 291.122C825.786 291.243 825.846 291.355 825.933 291.442C826.02 291.529 826.132 291.589 826.253 291.613C826.374 291.637 826.5 291.625 826.614 291.577C826.728 291.53 826.826 291.45 826.895 291.347C826.963 291.244 827 291.124 827 291C827 290.834 826.934 290.675 826.817 290.558C826.7 290.441 826.541 290.375 826.375 290.375Z" fill="white"/>
<path d="M835.125 304.75C834.754 304.75 834.392 304.64 834.083 304.434C833.775 304.228 833.535 303.935 833.393 303.593C833.251 303.25 833.214 302.873 833.286 302.509C833.358 302.145 833.537 301.811 833.799 301.549C834.061 301.287 834.395 301.108 834.759 301.036C835.123 300.964 835.5 301.001 835.843 301.143C836.185 301.285 836.478 301.525 836.684 301.833C836.89 302.142 837 302.504 837 302.875C836.999 303.372 836.802 303.849 836.45 304.2C836.099 304.552 835.622 304.749 835.125 304.75ZM835.125 302.25C835.001 302.25 834.881 302.287 834.778 302.355C834.675 302.424 834.595 302.522 834.548 302.636C834.5 302.75 834.488 302.876 834.512 302.997C834.536 303.118 834.596 303.23 834.683 303.317C834.77 303.404 834.882 303.464 835.003 303.488C835.124 303.512 835.25 303.5 835.364 303.452C835.478 303.405 835.576 303.325 835.645 303.222C835.713 303.119 835.75 302.999 835.75 302.875C835.75 302.709 835.684 302.55 835.567 302.433C835.45 302.316 835.291 302.25 835.125 302.25Z" fill="white"/>
<path d="M837.625 292.875C837.254 292.875 836.892 292.765 836.583 292.559C836.275 292.353 836.035 292.06 835.893 291.718C835.751 291.375 835.714 290.998 835.786 290.634C835.858 290.27 836.037 289.936 836.299 289.674C836.561 289.412 836.895 289.233 837.259 289.161C837.623 289.089 838 289.126 838.343 289.268C838.685 289.41 838.978 289.65 839.184 289.958C839.39 290.267 839.5 290.629 839.5 291C839.499 291.497 839.302 291.974 838.95 292.325C838.599 292.677 838.122 292.874 837.625 292.875ZM837.625 290.375C837.501 290.375 837.381 290.412 837.278 290.48C837.175 290.549 837.095 290.647 837.048 290.761C837 290.875 836.988 291.001 837.012 291.122C837.036 291.243 837.096 291.355 837.183 291.442C837.27 291.529 837.382 291.589 837.503 291.613C837.624 291.637 837.75 291.625 837.864 291.577C837.978 291.53 838.076 291.45 838.145 291.347C838.213 291.244 838.25 291.124 838.25 291C838.25 290.834 838.184 290.675 838.067 290.558C837.95 290.441 837.791 290.375 837.625 290.375Z" fill="white"/>
<path d="M824.5 299.125C824.129 299.125 823.767 299.015 823.458 298.809C823.15 298.603 822.91 298.31 822.768 297.968C822.626 297.625 822.589 297.248 822.661 296.884C822.733 296.52 822.912 296.186 823.174 295.924C823.436 295.662 823.77 295.483 824.134 295.411C824.498 295.339 824.875 295.376 825.218 295.518C825.56 295.66 825.853 295.9 826.059 296.208C826.265 296.517 826.375 296.879 826.375 297.25C826.374 297.747 826.177 298.224 825.825 298.575C825.474 298.927 824.997 299.124 824.5 299.125ZM824.5 296.625C824.376 296.625 824.256 296.662 824.153 296.73C824.05 296.799 823.97 296.897 823.923 297.011C823.875 297.125 823.863 297.251 823.887 297.372C823.911 297.493 823.971 297.605 824.058 297.692C824.145 297.779 824.257 297.839 824.378 297.863C824.499 297.887 824.625 297.875 824.739 297.827C824.853 297.78 824.951 297.7 825.02 297.597C825.088 297.494 825.125 297.374 825.125 297.25C825.125 297.084 825.059 296.925 824.942 296.808C824.825 296.691 824.666 296.625 824.5 296.625Z" fill="white"/>
<path d="M839.5 299.125C839.129 299.125 838.767 299.015 838.458 298.809C838.15 298.603 837.91 298.31 837.768 297.968C837.626 297.625 837.589 297.248 837.661 296.884C837.733 296.52 837.912 296.186 838.174 295.924C838.436 295.662 838.77 295.483 839.134 295.411C839.498 295.339 839.875 295.376 840.218 295.518C840.56 295.66 840.853 295.9 841.059 296.208C841.265 296.517 841.375 296.879 841.375 297.25C841.374 297.747 841.177 298.224 840.825 298.575C840.474 298.927 839.997 299.124 839.5 299.125ZM839.5 296.625C839.376 296.625 839.256 296.662 839.153 296.73C839.05 296.799 838.97 296.897 838.923 297.011C838.875 297.125 838.863 297.251 838.887 297.372C838.911 297.493 838.971 297.605 839.058 297.692C839.145 297.779 839.257 297.839 839.378 297.863C839.499 297.887 839.625 297.875 839.739 297.827C839.853 297.78 839.951 297.7 840.02 297.597C840.088 297.494 840.125 297.374 840.125 297.25C840.125 297.084 840.059 296.925 839.942 296.808C839.825 296.691 839.666 296.625 839.5 296.625Z" fill="white"/>
<path d="M832 299.75C831.258 299.75 830.533 299.53 829.917 299.118C829.3 298.706 828.819 298.12 828.535 297.435C828.252 296.75 828.177 295.996 828.322 295.268C828.467 294.541 828.824 293.873 829.348 293.348C829.873 292.824 830.541 292.467 831.268 292.322C831.996 292.177 832.75 292.252 833.435 292.535C834.12 292.819 834.706 293.3 835.118 293.917C835.53 294.533 835.75 295.258 835.75 296C835.749 296.994 835.353 297.947 834.65 298.65C833.947 299.353 832.994 299.749 832 299.75ZM832 293.5C831.506 293.5 831.022 293.647 830.611 293.921C830.2 294.196 829.88 294.586 829.69 295.043C829.501 295.5 829.452 296.003 829.548 296.488C829.645 296.973 829.883 297.418 830.232 297.768C830.582 298.117 831.027 298.356 831.512 298.452C831.997 298.548 832.5 298.499 832.957 298.31C833.414 298.12 833.804 297.8 834.079 297.389C834.353 296.978 834.5 296.494 834.5 296C834.499 295.337 834.236 294.702 833.767 294.233C833.298 293.764 832.663 293.501 832 293.5Z" fill="white"/>
<text fill="black" xml:space="preserve" style="white-space: pre" font-family="IBM Plex Sans" font-size="14" font-weight="600" letter-spacing="0.16px"><tspan x="864" y="300.25">Cluster 3</tspan></text>
<rect x="808.5" y="360.5" width="47" height="47" fill="white"/>
<rect width="20" height="20" transform="translate(822 374)" fill="white" style="mix-blend-mode:multiply"/>
<path d="M832 378.375C831.629 378.375 831.267 378.265 830.958 378.059C830.65 377.853 830.41 377.56 830.268 377.218C830.126 376.875 830.089 376.498 830.161 376.134C830.233 375.77 830.412 375.436 830.674 375.174C830.936 374.912 831.27 374.733 831.634 374.661C831.998 374.589 832.375 374.626 832.718 374.768C833.06 374.91 833.353 375.15 833.559 375.458C833.765 375.767 833.875 376.129 833.875 376.5C833.874 376.997 833.677 377.474 833.325 377.825C832.974 378.177 832.497 378.374 832 378.375ZM832 375.875C831.876 375.875 831.756 375.912 831.653 375.98C831.55 376.049 831.47 376.147 831.423 376.261C831.375 376.375 831.363 376.501 831.387 376.622C831.411 376.743 831.471 376.855 831.558 376.942C831.645 377.029 831.757 377.089 831.878 377.113C831.999 377.137 832.125 377.125 832.239 377.077C832.353 377.03 832.451 376.95 832.52 376.847C832.588 376.744 832.625 376.624 832.625 376.5C832.625 376.334 832.559 376.175 832.442 376.058C832.325 375.941 832.166 375.875 832 375.875Z" fill="black"/>
<path d="M828.875 392.75C828.504 392.75 828.142 392.64 827.833 392.434C827.525 392.228 827.285 391.935 827.143 391.593C827.001 391.25 826.964 390.873 827.036 390.509C827.108 390.145 827.287 389.811 827.549 389.549C827.811 389.287 828.145 389.108 828.509 389.036C828.873 388.964 829.25 389.001 829.593 389.143C829.935 389.285 830.228 389.525 830.434 389.833C830.64 390.142 830.75 390.504 830.75 390.875C830.749 391.372 830.552 391.849 830.2 392.2C829.849 392.552 829.372 392.749 828.875 392.75ZM828.875 390.25C828.751 390.25 828.631 390.287 828.528 390.355C828.425 390.424 828.345 390.522 828.298 390.636C828.25 390.75 828.238 390.876 828.262 390.997C828.286 391.118 828.346 391.23 828.433 391.317C828.52 391.404 828.632 391.464 828.753 391.488C828.874 391.512 829 391.5 829.114 391.452C829.228 391.405 829.326 391.325 829.395 391.222C829.463 391.119 829.5 390.999 829.5 390.875C829.5 390.709 829.434 390.55 829.317 390.433C829.2 390.316 829.041 390.25 828.875 390.25Z" fill="black"/>
<path d="M826.375 380.875C826.004 380.875 825.642 380.765 825.333 380.559C825.025 380.353 824.785 380.06 824.643 379.718C824.501 379.375 824.464 378.998 824.536 378.634C824.608 378.27 824.787 377.936 825.049 377.674C825.311 377.412 825.645 377.233 826.009 377.161C826.373 377.089 826.75 377.126 827.093 377.268C827.435 377.41 827.728 377.65 827.934 377.958C828.14 378.267 828.25 378.629 828.25 379C828.249 379.497 828.052 379.974 827.7 380.325C827.349 380.677 826.872 380.874 826.375 380.875ZM826.375 378.375C826.251 378.375 826.131 378.412 826.028 378.48C825.925 378.549 825.845 378.647 825.798 378.761C825.75 378.875 825.738 379.001 825.762 379.122C825.786 379.243 825.846 379.355 825.933 379.442C826.02 379.529 826.132 379.589 826.253 379.613C826.374 379.637 826.5 379.625 826.614 379.577C826.728 379.53 826.826 379.45 826.895 379.347C826.963 379.244 827 379.124 827 379C827 378.834 826.934 378.675 826.817 378.558C826.7 378.441 826.541 378.375 826.375 378.375Z" fill="black"/>
<path d="M835.125 392.75C834.754 392.75 834.392 392.64 834.083 392.434C833.775 392.228 833.535 391.935 833.393 391.593C833.251 391.25 833.214 390.873 833.286 390.509C833.358 390.145 833.537 389.811 833.799 389.549C834.061 389.287 834.395 389.108 834.759 389.036C835.123 388.964 835.5 389.001 835.843 389.143C836.185 389.285 836.478 389.525 836.684 389.833C836.89 390.142 837 390.504 837 390.875C836.999 391.372 836.802 391.849 836.45 392.2C836.099 392.552 835.622 392.749 835.125 392.75ZM835.125 390.25C835.001 390.25 834.881 390.287 834.778 390.355C834.675 390.424 834.595 390.522 834.548 390.636C834.5 390.75 834.488 390.876 834.512 390.997C834.536 391.118 834.596 391.23 834.683 391.317C834.77 391.404 834.882 391.464 835.003 391.488C835.124 391.512 835.25 391.5 835.364 391.452C835.478 391.405 835.576 391.325 835.645 391.222C835.713 391.119 835.75 390.999 835.75 390.875C835.75 390.709 835.684 390.55 835.567 390.433C835.45 390.316 835.291 390.25 835.125 390.25Z" fill="black"/>
<path d="M837.625 380.875C837.254 380.875 836.892 380.765 836.583 380.559C836.275 380.353 836.035 380.06 835.893 379.718C835.751 379.375 835.714 378.998 835.786 378.634C835.858 378.27 836.037 377.936 836.299 377.674C836.561 377.412 836.895 377.233 837.259 377.161C837.623 377.089 838 377.126 838.343 377.268C838.685 377.41 838.978 377.65 839.184 377.958C839.39 378.267 839.5 378.629 839.5 379C839.499 379.497 839.302 379.974 838.95 380.325C838.599 380.677 838.122 380.874 837.625 380.875ZM837.625 378.375C837.501 378.375 837.381 378.412 837.278 378.48C837.175 378.549 837.095 378.647 837.048 378.761C837 378.875 836.988 379.001 837.012 379.122C837.036 379.243 837.096 379.355 837.183 379.442C837.27 379.529 837.382 379.589 837.503 379.613C837.624 379.637 837.75 379.625 837.864 379.577C837.978 379.53 838.076 379.45 838.145 379.347C838.213 379.244 838.25 379.124 838.25 379C838.25 378.834 838.184 378.675 838.067 378.558C837.95 378.441 837.791 378.375 837.625 378.375Z" fill="black"/>
<path d="M824.5 387.125C824.129 387.125 823.767 387.015 823.458 386.809C823.15 386.603 822.91 386.31 822.768 385.968C822.626 385.625 822.589 385.248 822.661 384.884C822.733 384.52 822.912 384.186 823.174 383.924C823.436 383.662 823.77 383.483 824.134 383.411C824.498 383.339 824.875 383.376 825.218 383.518C825.56 383.66 825.853 383.9 826.059 384.208C826.265 384.517 826.375 384.879 826.375 385.25C826.374 385.747 826.177 386.224 825.825 386.575C825.474 386.927 824.997 387.124 824.5 387.125ZM824.5 384.625C824.376 384.625 824.256 384.662 824.153 384.73C824.05 384.799 823.97 384.897 823.923 385.011C823.875 385.125 823.863 385.251 823.887 385.372C823.911 385.493 823.971 385.605 824.058 385.692C824.145 385.779 824.257 385.839 824.378 385.863C824.499 385.887 824.625 385.875 824.739 385.827C824.853 385.78 824.951 385.7 825.02 385.597C825.088 385.494 825.125 385.374 825.125 385.25C825.125 385.084 825.059 384.925 824.942 384.808C824.825 384.691 824.666 384.625 824.5 384.625Z" fill="black"/>
<path d="M839.5 387.125C839.129 387.125 838.767 387.015 838.458 386.809C838.15 386.603 837.91 386.31 837.768 385.968C837.626 385.625 837.589 385.248 837.661 384.884C837.733 384.52 837.912 384.186 838.174 383.924C838.436 383.662 838.77 383.483 839.134 383.411C839.498 383.339 839.875 383.376 840.218 383.518C840.56 383.66 840.853 383.9 841.059 384.208C841.265 384.517 841.375 384.879 841.375 385.25C841.374 385.747 841.177 386.224 840.825 386.575C840.474 386.927 839.997 387.124 839.5 387.125ZM839.5 384.625C839.376 384.625 839.256 384.662 839.153 384.73C839.05 384.799 838.97 384.897 838.923 385.011C838.875 385.125 838.863 385.251 838.887 385.372C838.911 385.493 838.971 385.605 839.058 385.692C839.145 385.779 839.257 385.839 839.378 385.863C839.499 385.887 839.625 385.875 839.739 385.827C839.853 385.78 839.951 385.7 840.02 385.597C840.088 385.494 840.125 385.374 840.125 385.25C840.125 385.084 840.059 384.925 839.942 384.808C839.825 384.691 839.666 384.625 839.5 384.625Z" fill="black"/>
<path d="M832 387.75C831.258 387.75 830.533 387.53 829.917 387.118C829.3 386.706 828.819 386.12 828.535 385.435C828.252 384.75 828.177 383.996 828.322 383.268C828.467 382.541 828.824 381.873 829.348 381.348C829.873 380.824 830.541 380.467 831.268 380.322C831.996 380.177 832.75 380.252 833.435 380.535C834.12 380.819 834.706 381.3 835.118 381.917C835.53 382.533 835.75 383.258 835.75 384C835.749 384.994 835.353 385.947 834.65 386.65C833.947 387.353 832.994 387.749 832 387.75ZM832 381.5C831.506 381.5 831.022 381.647 830.611 381.921C830.2 382.196 829.88 382.586 829.69 383.043C829.501 383.5 829.452 384.003 829.548 384.488C829.645 384.973 829.883 385.418 830.232 385.768C830.582 386.117 831.027 386.356 831.512 386.452C831.997 386.548 832.5 386.499 832.957 386.31C833.414 386.12 833.804 385.8 834.079 385.389C834.353 384.978 834.5 384.494 834.5 384C834.499 383.337 834.236 382.702 833.767 382.233C833.298 381.764 832.663 381.501 832 381.5Z" fill="black"/>
<rect x="808.5" y="360.5" width="47" height="47" stroke="#6F6F6F" stroke-dasharray="4 4"/>
<text fill="#8D8D8D" xml:space="preserve" style="white-space: pre" font-family="IBM Plex Sans" font-size="14" font-weight="600" letter-spacing="0.16px"><tspan x="864" y="388.25">Cluster n</tspan></text>
<rect x="240.5" y="176.5" width="47" height="47" rx="7.5" fill="#EDF5FF"/>
<rect width="20" height="20" transform="translate(254 190)" fill="white" style="mix-blend-mode:multiply"/>
<path d="M271.5 198.754H270.875V191.254H269.625V198.754H269C268.669 198.754 268.351 198.886 268.116 199.12C267.882 199.355 267.75 199.672 267.75 200.004V201.254C267.75 201.585 267.882 201.903 268.117 202.137C268.351 202.372 268.669 202.504 269 202.504H269.625V208.754H270.875V202.504H271.5C271.831 202.503 272.149 202.372 272.383 202.137C272.618 201.903 272.75 201.585 272.75 201.254V200.004C272.75 199.673 272.618 199.355 272.383 199.12C272.149 198.886 271.831 198.754 271.5 198.754ZM271.5 201.254H269V200.004H271.5V201.254Z" fill="black"/>
<path d="M265.25 193.754H264.625V191.254H263.375V193.754H262.75C262.419 193.754 262.101 193.886 261.866 194.12C261.632 194.355 261.5 194.672 261.5 195.004V196.254C261.5 196.585 261.632 196.903 261.866 197.137C262.101 197.372 262.419 197.504 262.75 197.504H263.375V208.754H264.625V197.504H265.25C265.581 197.504 265.899 197.372 266.134 197.137C266.368 196.903 266.5 196.585 266.5 196.254V195.004C266.5 194.672 266.368 194.355 266.134 194.12C265.899 193.886 265.581 193.754 265.25 193.754ZM265.25 196.254H262.75V195.004H265.25V196.254Z" fill="black"/>
<path d="M259 202.504H258.375V191.254H257.125V202.504H256.5C256.169 202.504 255.851 202.636 255.617 202.87C255.382 203.105 255.25 203.423 255.25 203.754V205.004C255.25 205.335 255.382 205.653 255.617 205.887C255.851 206.122 256.169 206.254 256.5 206.254H257.125V208.754H258.375V206.254H259C259.331 206.254 259.649 206.122 259.883 205.887C260.118 205.653 260.25 205.335 260.25 205.004V203.754C260.25 203.423 260.118 203.105 259.883 202.87C259.649 202.636 259.331 202.504 259 202.504ZM259 205.004H256.5V203.754H259V205.004Z" fill="black"/>
<rect x="240.5" y="176.5" width="47" height="47" rx="7.5" stroke="#0F62FE"/>
<text fill="black" xml:space="preserve" style="white-space: pre" font-family="IBM Plex Sans" font-size="14" font-weight="600" letter-spacing="0.16px"><tspan x="296" y="196.25">Control &#10;</tspan><tspan x="296" y="214.25">plane</tspan></text>
<path fill-rule="evenodd" clip-rule="evenodd" d="M752 114L752 112L753 112L753 114L752 114ZM752 122L752 118L753 118L753 122L752 122ZM752 130L752 126L753 126L753 130L752 130ZM752 138L752 134L753 134L753 138L752 138ZM752 146L752 142L753 142L753 146L752 146ZM752 154L752 150L753 150L753 154L752 154ZM752 162L752 158L753 158L753 162L752 162ZM752 170L752 166L753 166L753 170L752 170ZM752 178L752 174L753 174L753 178L752 178ZM752 186L752 182L753 182L753 186L752 186ZM752 194L752 190L753 190L753 194L752 194ZM752 202L752 198L753 198L753 202L752 202ZM752 210L752 206L753 206L753 210L752 210ZM752 218L752 214L753 214L753 218L752 218ZM752 226L752 222L753 222L753 226L752 226ZM752 234L752 230L753 230L753 234L752 234ZM752 242L752 238L753 238L753 242L752 242ZM752 250L752 246L753 246L753 250L752 250ZM752 258L752 254L753 254L753 258L752 258ZM752 266L752 262L753 262L753 266L752 266ZM752 274L752 270L753 270L753 274L752 274ZM752 282L752 278L753 278L753 282L752 282ZM752 290L752 286L753 286L753 290L752 290ZM752 298L752 294L753 294L753 298L752 298ZM752 306L752 302L753 302L753 306L752 306ZM752 314L752 310L753 310L753 314L752 314ZM752 322L752 318L753 318L753 322L752 322ZM752 330L752 326L753 326L753 330L752 330ZM752 338L752 334L753 334L753 338L752 338ZM752 346L752 342L753 342L753 346L752 346ZM752 354L752 350L753 350L753 354L752 354ZM752 362L752 358L753 358L753 362L752 362ZM752 370L752 366L753 366L753 370L752 370ZM752 378L752 374L753 374L753 378L752 378ZM752 386L752 382L753 382L753 386L752 386ZM752 394L752 390L753 390L753 394L752 394ZM752 402L752 398L753 398L753 402L752 402ZM752 410L752 406L753 406L753 410L752 410ZM752 418L752 414L753 414L753 418L752 418ZM752 424L752 422L753 422L753 424L752 424Z" fill="#8D8D8D"/>
<path fill-rule="evenodd" clip-rule="evenodd" d="M703 114L703 112L704 112L704 114L703 114ZM703 122L703 118L704 118L704 122L703 122ZM703 130L703 126L704 126L704 130L703 130ZM703 138L703 134L704 134L704 138L703 138ZM703 146L703 142L704 142L704 146L703 146ZM703 154L703 150L704 150L704 154L703 154ZM703 162L703 158L704 158L704 162L703 162ZM703 170L703 166L704 166L704 170L703 170ZM703 178L703 174L704 174L704 178L703 178ZM703 186L703 182L704 182L704 186L703 186ZM703 194L703 190L704 190L704 194L703 194ZM703 202L703 198L704 198L704 202L703 202ZM703 210L703 206L704 206L704 210L703 210ZM703 218L703 214L704 214L704 218L703 218ZM703 226L703 222L704 222L704 226L703 226ZM703 234L703 230L704 230L704 234L703 234ZM703 242L703 238L704 238L704 242L703 242ZM703 250L703 246L704 246L704 250L703 250ZM703 258L703 254L704 254L704 258L703 258ZM703 266L703 262L704 262L704 266L703 266ZM703 274L703 270L704 270L704 274L703 274ZM703 282L703 278L704 278L704 282L703 282ZM703 290L703 286L704 286L704 290L703 290ZM703 298L703 294L704 294L704 298L703 298ZM703 306L703 302L704 302L704 306L703 306ZM703 314L703 310L704 310L704 314L703 314ZM703 322L703 318L704 318L704 322L703 322ZM703 330L703 326L704 326L704 330L703 330ZM703 338L703 334L704 334L704 338L703 338ZM703 346L703 342L704 342L704 346L703 346ZM703 354L703 350L704 350L704 354L703 354ZM703 362L703 358L704 358L704 362L703 362ZM703 370L703 366L704 366L704 370L703 370ZM703 378L703 374L704 374L704 378L703 378ZM703 386L703 382L704 382L704 386L703 386ZM703 394L703 390L704 390L704 394L703 394ZM703 402L703 398L704 398L704 402L703 402ZM703 410L703 406L704 406L704 410L703 410ZM703 418L703 414L704 414L704 418L703 418ZM703 424L703 422L704 422L704 424L703 424Z" fill="#8D8D8D"/>
<path fill-rule="evenodd" clip-rule="evenodd" d="M424 114L424 112L425 112L425 114L424 114ZM424 122L424 118L425 118L425 122L424 122ZM424 130L424 126L425 126L425 130L424 130ZM424 138L424 134L425 134L425 138L424 138ZM424 146L424 142L425 142L425 146L424 146ZM424 154L424 150L425 150L425 154L424 154ZM424 162L424 158L425 158L425 162L424 162ZM424 170L424 166L425 166L425 170L424 170ZM424 178L424 174L425 174L425 178L424 178ZM424 186L424 182L425 182L425 186L424 186ZM424 194L424 190L425 190L425 194L424 194ZM424 202L424 198L425 198L425 202L424 202ZM424 210L424 206L425 206L425 210L424 210ZM424 218L424 214L425 214L425 218L424 218ZM424 226L424 222L425 222L425 226L424 226ZM424 234L424 230L425 230L425 234L424 234ZM424 242L424 238L425 238L425 242L424 242ZM424 250L424 246L425 246L425 250L424 250ZM424 258L424 254L425 254L425 258L424 258ZM424 266L424 262L425 262L425 266L424 266ZM424 274L424 270L425 270L425 274L424 274ZM424 282L424 278L425 278L425 282L424 282ZM424 290L424 286L425 286L425 290L424 290ZM424 298L424 294L425 294L425 298L424 298ZM424 306L424 302L425 302L425 306L424 306ZM424 314L424 310L425 310L425 314L424 314ZM424 322L424 318L425 318L425 322L424 322ZM424 330L424 326L425 326L425 330L424 330ZM424 338L424 334L425 334L425 338L424 338ZM424 346L424 342L425 342L425 346L424 346ZM424 354L424 350L425 350L425 354L424 354ZM424 362L424 358L425 358L425 362L424 362ZM424 370L424 366L425 366L425 370L424 370ZM424 378L424 374L425 374L425 378L424 378ZM424 386L424 382L425 382L425 386L424 386ZM424 394L424 390L425 390L425 394L424 394ZM424 402L424 398L425 398L425 402L424 402ZM424 410L424 406L425 406L425 410L424 410ZM424 418L424 414L425 414L425 418L424 418ZM424 424L424 422L425 422L425 424L424 424Z" fill="#8D8D8D"/>
<path fill-rule="evenodd" clip-rule="evenodd" d="M375 114L375 112L376 112L376 114L375 114ZM375 122L375 118L376 118L376 122L375 122ZM375 130L375 126L376 126L376 130L375 130ZM375 138L375 134L376 134L376 138L375 138ZM375 146L375 142L376 142L376 146L375 146ZM375 154L375 150L376 150L376 154L375 154ZM375 162L375 158L376 158L376 162L375 162ZM375 170L375 166L376 166L376 170L375 170ZM375 178L375 174L376 174L376 178L375 178ZM375 186L375 182L376 182L376 186L375 186ZM375 194L375 190L376 190L376 194L375 194ZM375 202L375 198L376 198L376 202L375 202ZM375 210L375 206L376 206L376 210L375 210ZM375 218L375 214L376 214L376 218L375 218ZM375 226L375 222L376 222L376 226L375 226ZM375 234L375 230L376 230L376 234L375 234ZM375 242L375 238L376 238L376 242L375 242ZM375 250L375 246L376 246L376 250L375 250ZM375 258L375 254L376 254L376 258L375 258ZM375 266L375 262L376 262L376 266L375 266ZM375 274L375 270L376 270L376 274L375 274ZM375 282L375 278L376 278L376 282L375 282ZM375 290L375 286L376 286L376 290L375 290ZM375 298L375 294L376 294L376 298L375 298ZM375 306L375 302L376 302L376 306L375 306ZM375 314L375 310L376 310L376 314L375 314ZM375 322L375 318L376 318L376 322L375 322ZM375 330L375 326L376 326L376 330L375 330ZM375 338L375 334L376 334L376 338L375 338ZM375 346L375 342L376 342L376 346L375 346ZM375 354L375 350L376 350L376 354L375 354ZM375 362L375 358L376 358L376 362L375 362ZM375 370L375 366L376 366L376 370L375 370ZM375 378L375 374L376 374L376 378L375 378ZM375 386L375 382L376 382L376 386L375 386ZM375 394L375 390L376 390L376 394L375 394ZM375 402L375 398L376 398L376 402L375 402ZM375 410L375 406L376 406L376 410L375 410ZM375 418L375 414L376 414L376 418L375 418ZM375 424L375 422L376 422L376 424L375 424Z" fill="#0F62FE"/>
<path fill-rule="evenodd" clip-rule="evenodd" d="M264 224L261.113 229H263.5V240C263.5 244.694 267.306 248.5 272 248.5H314V248.504H383.361L439 248.5C443.142 248.5 446.5 251.858 446.5 256V280H446.504V283V284.516V284.516L446.503 287.997C446.503 288.046 446.503 288.094 446.504 288.143V335.673L446.501 375.999C446.5 380.694 450.306 384.5 455.001 384.5H474V386.887L479 384L474 381.113V383.5H455.001C450.858 383.5 447.5 380.142 447.501 375.999L447.504 335.673V292.006C448.936 294.68 451.757 296.5 455.003 296.5H474V298.887L479 296L474 293.113V295.5H455.003C450.905 295.5 447.575 292.214 447.504 288.134V284.516V284.516V283V272H447.5V256C447.5 252.753 445.679 249.931 443.003 248.5H472.605L568 248.499V248.504H676.475L768 248.5C772.142 248.5 775.5 251.858 775.5 256V280H775.504V280.688V281.409L775.502 287.998C775.502 288.531 775.551 289.052 775.644 289.557H775.504V293.632H776.504V292.007C777.936 294.681 780.757 296.5 784.002 296.5H803V298.887L808 296L803 293.113V295.5H784.002C779.859 295.5 776.501 292.141 776.502 287.998L776.503 285.483H776.504V281.409V280.689V277.334V273.26V269.186V265.111V264H776.5V261.037H776.504V259H776.5V256C776.5 251.306 772.694 247.5 768 247.5L676.475 247.504H664V247.497L568.303 247.499L472.605 247.5H272C267.858 247.5 264.5 244.142 264.5 240V229H266.887L264 224ZM776.643 377.464C776.55 376.991 776.501 376.501 776.501 376L776.501 373.841L775.501 373.841L775.501 375.999C775.501 376.567 775.556 377.121 775.662 377.658L776.643 377.464ZM776.501 369.523L776.501 365.206L775.501 365.206L775.501 369.523L776.501 369.523ZM776.502 360.888L776.502 356.571L775.502 356.571L775.502 360.888L776.502 360.888ZM776.502 352.253L776.502 347.936L775.502 347.936L775.502 352.253L776.502 352.253ZM776.503 343.618L776.503 339.301L775.503 339.3L775.503 343.618L776.503 343.618ZM776.503 334.983L776.503 330.665L775.503 330.665L775.503 334.983L776.503 334.983ZM776.504 326.348L776.504 324.189V322.152H775.504V324.189L775.504 326.348L776.504 326.348ZM776.504 301.78V297.706L775.504 297.706V301.78H776.504ZM776.504 309.929V305.855L775.504 305.855V309.929H776.504ZM776.504 318.078V314.003L775.504 314.003V318.078L776.504 318.078ZM779.834 382.237C779.016 381.689 778.311 380.985 777.763 380.167L776.932 380.723C777.553 381.65 778.351 382.447 779.277 383.068L779.834 382.237ZM784.001 383.5C783.499 383.5 783.009 383.451 782.536 383.357L782.342 384.338C782.879 384.444 783.434 384.5 784.001 384.5H786.001V383.5H784.001ZM794 383.5H790V384.5H794V383.5ZM802 383.5H798V384.5H802V383.5ZM803 386.887L808 384L803 381.113V386.887Z" fill="#565151"/>
<path fill-rule="evenodd" clip-rule="evenodd" d="M149 202.887L144 200L149 197.113V199.5H187V197.113L192 200L187 202.887V200.5H149V202.887Z" fill="#0043CE"/>
<rect x="48.5" y="480.5" width="15" height="15" fill="#F4F4F4"/>
<rect x="48.5" y="480.5" width="15" height="15" stroke="#8D8D8D" stroke-dasharray="4 4"/>
<text fill="#6F6F6F" xml:space="preserve" style="white-space: pre" font-family="IBM Plex Sans" font-size="14" letter-spacing="0.16px"><tspan x="72" y="493.25">Clusters 4 to n</tspan></text>
<defs>
<clipPath id="clip0_22_27">
<rect width="137" height="48" fill="white" transform="translate(48 48)"/>
</clipPath>
<clipPath id="clip1_22_27">
<rect width="20" height="20" fill="white" transform="translate(64 62)"/>
</clipPath>
<clipPath id="clip2_22_27">
<rect width="213" height="48" fill="white" transform="translate(424 48)"/>
</clipPath>
<clipPath id="clip3_22_27">
<rect width="213" height="48" fill="white" transform="translate(752 48)"/>
</clipPath>
<clipPath id="clip4_22_27">
<rect width="181" height="48" fill="white" transform="translate(192 112)"/>
</clipPath>
<clipPath id="clip5_22_27">
<rect width="20" height="20" fill="white" transform="translate(208 126)"/>
</clipPath>
</defs>
</svg>
