<svg width="1080" height="540" viewBox="0 0 1080 540" fill="none" xmlns="http://www.w3.org/2000/svg">
<rect width="1080" height="540" fill="#B0ADAD"/>
<rect x="-3587" y="-12492" width="19980" height="19930" fill="white" style="mix-blend-mode:multiply"/>
<rect x="-3587" y="-12492" width="19980" height="19930" stroke="#161616" stroke-width="20"/>
<rect width="1080" height="540" fill="#F4F4F4"/>
<rect x="48.5" y="48.5" width="143" height="391" fill="white"/>
<rect x="49" y="49" width="142" height="390" fill="#EDF5FF"/>
<g clip-path="url(#clip0_22_27)">
<line x1="50" y1="48" x2="50" y2="96" stroke="#0F62FE" stroke-width="4"/>
<g clip-path="url(#clip1_22_27)">
<rect width="20" height="20" transform="translate(64 62)" fill="white" style="mix-blend-mode:multiply"/>
<path d="M79.3637 70.5322C78.7425 69.3683 77.7598 68.4378 76.5637 67.8812C75.3675 67.3245 74.0228 67.1718 72.7324 67.4461C71.4419 67.7204 70.2755 68.4069 69.4092 69.4019C68.5429 70.397 68.0236 71.6467 67.9296 72.9627C66.8564 73.0781 65.8683 73.6004 65.1686 74.4222C64.4688 75.2441 64.1107 76.3028 64.1679 77.3807C64.225 78.4585 64.6932 79.4735 65.4759 80.2167C66.2587 80.9598 67.2965 81.3747 68.3759 81.376H78.3759C79.7404 81.3768 81.056 80.8673 82.0639 79.9475C83.0719 79.0278 83.6995 77.7643 83.8233 76.4053C83.947 75.0464 83.5581 73.6903 82.7329 72.6036C81.9077 71.5168 80.7059 70.778 79.3637 70.5322ZM78.3759 80.4385H68.3759C67.5443 80.4404 66.7433 80.1258 66.1353 79.5585C65.5273 78.9912 65.158 78.2138 65.1024 77.3842C65.0467 76.5545 65.3089 75.7348 65.8357 75.0914C66.3626 74.448 67.1145 74.0293 67.9388 73.9202C68.0049 74.7473 68.2397 75.5521 68.6286 76.285C68.6567 76.3409 68.6958 76.3906 68.7434 76.4311C68.7911 76.4717 68.8464 76.5023 68.9061 76.5211C68.9657 76.5399 69.0286 76.5466 69.0909 76.5408C69.1532 76.535 69.2137 76.5167 69.2688 76.4871C69.3239 76.4575 69.3726 76.4172 69.4119 76.3685C69.4512 76.3199 69.4804 76.2638 69.4977 76.2037C69.5149 76.1435 69.52 76.0805 69.5126 76.0184C69.5052 75.9563 69.4854 75.8963 69.4544 75.8419C68.8348 74.6837 68.6806 73.3326 69.0234 72.0645C69.3661 70.7965 70.1798 69.707 71.2985 69.0186C72.4172 68.3301 73.7565 68.0945 75.0429 68.36C76.3294 68.6254 77.466 69.3718 78.2209 70.4468C77.4718 70.4674 76.735 70.6418 76.056 70.9589C75.3771 71.2761 74.7705 71.7293 74.274 72.2905C74.2317 72.3364 74.199 72.3903 74.1778 72.449C74.1566 72.5077 74.1474 72.57 74.1506 72.6324C74.1538 72.6947 74.1695 72.7557 74.1966 72.8119C74.2237 72.8681 74.2618 72.9184 74.3086 72.9596C74.3554 73.0009 74.41 73.0325 74.4691 73.0524C74.5282 73.0723 74.5908 73.0802 74.653 73.0757C74.7152 73.0711 74.7759 73.0541 74.8315 73.0258C74.8872 72.9975 74.9365 72.9583 74.9768 72.9107C75.4776 72.3427 76.1127 71.9092 76.8241 71.6499C77.5355 71.3906 78.3006 71.3138 79.0494 71.4263C79.7982 71.5389 80.5068 71.8373 81.1106 72.2943C81.7143 72.7513 82.1939 73.3524 82.5055 74.0425C82.8171 74.7326 82.9508 75.4898 82.8944 76.2449C82.838 77 82.5932 77.729 82.1825 78.3651C81.7718 79.0012 81.2082 79.5243 80.5432 79.8865C79.8782 80.2487 79.1331 80.4385 78.3759 80.4385Z" fill="black"/>
<path d="M83.9373 68.4102C83.9062 68.3563 83.8648 68.309 83.8154 68.2711C83.766 68.2331 83.7096 68.2053 83.6494 68.1892C83.5892 68.1731 83.5265 68.169 83.4648 68.1771C83.403 68.1853 83.3435 68.2055 83.2896 68.2367L81.4021 69.3266C81.3466 69.3569 81.2978 69.398 81.2585 69.4475C81.2192 69.4969 81.1901 69.5537 81.1731 69.6145C81.156 69.6754 81.1513 69.739 81.1591 69.8017C81.167 69.8644 81.1873 69.9249 81.2189 69.9796C81.2505 70.0343 81.2927 70.0822 81.343 70.1204C81.3933 70.1586 81.4508 70.1863 81.512 70.202C81.5732 70.2177 81.6369 70.2209 81.6994 70.2116C81.7619 70.2023 81.8219 70.1807 81.8759 70.1479L83.7634 69.058C83.8723 68.9951 83.9519 68.8916 83.9845 68.7701C84.0171 68.6486 84.0001 68.5192 83.9373 68.4102Z" fill="black"/>
<path d="M78.1736 66.9197C78.2275 66.9509 78.2871 66.9711 78.3488 66.9793C78.4106 66.9874 78.4733 66.9833 78.5335 66.9672C78.5936 66.9511 78.65 66.9233 78.6994 66.8854C78.7488 66.8475 78.7903 66.8002 78.8214 66.7462L79.9112 64.8587C79.973 64.7499 79.9893 64.621 79.9564 64.5003C79.9236 64.3795 79.8444 64.2766 79.736 64.214C79.6276 64.1515 79.4989 64.1343 79.3779 64.1662C79.2569 64.1981 79.1534 64.2766 79.09 64.3845L78.0001 66.272C77.9373 66.3809 77.9202 66.5103 77.9528 66.6318C77.9853 66.7532 78.0647 66.8568 78.1736 66.9197Z" fill="black"/>
<path d="M74.0009 65.8017C74.1266 65.8016 74.2473 65.7517 74.3362 65.6627C74.4251 65.5738 74.4751 65.4532 74.4751 65.3274V63.1477C74.4758 63.0849 74.4641 63.0227 74.4406 62.9645C74.4171 62.9063 74.3823 62.8534 74.3382 62.8088C74.2941 62.7642 74.2415 62.7288 74.1836 62.7046C74.1258 62.6804 74.0636 62.668 74.0009 62.668C73.9382 62.668 73.8761 62.6804 73.8182 62.7046C73.7603 62.7288 73.7077 62.7642 73.6636 62.8088C73.6195 62.8534 73.5847 62.9063 73.5612 62.9645C73.5377 63.0227 73.526 63.0849 73.5267 63.1477V65.3274C73.5267 65.4532 73.5767 65.5738 73.6656 65.6627C73.7545 65.7517 73.8751 65.8016 74.0009 65.8017Z" fill="black"/>
<path d="M69.1804 66.7461C69.2438 66.854 69.3473 66.9325 69.4683 66.9644C69.5893 66.9963 69.718 66.9791 69.8264 66.9165C69.9348 66.854 70.014 66.7511 70.0469 66.6303C70.0797 66.5095 70.0635 66.3807 70.0017 66.2719L68.9118 64.3844C68.8809 64.3299 68.8396 64.2822 68.7902 64.2438C68.7407 64.2054 68.6842 64.1772 68.6238 64.1608C68.5634 64.1444 68.5004 64.1401 68.4384 64.1482C68.3763 64.1562 68.3165 64.1765 68.2623 64.2078C68.2081 64.2391 68.1606 64.2808 68.1226 64.3305C68.0847 64.3802 68.0569 64.4369 68.0409 64.4974C68.025 64.5579 68.0211 64.621 68.0296 64.683C68.0382 64.745 68.0589 64.8047 68.0906 64.8586L69.1804 66.7461Z" fill="black"/>
<path d="M66.5999 69.3266L64.7124 68.2367C64.6585 68.205 64.5988 68.1843 64.5368 68.1758C64.4748 68.1673 64.4118 68.1711 64.3513 68.1871C64.2908 68.203 64.234 68.2308 64.1843 68.2688C64.1346 68.3068 64.0929 68.3543 64.0616 68.4084C64.0303 68.4626 64.0101 68.5225 64.002 68.5845C63.9939 68.6466 63.9982 68.7096 64.0147 68.77C64.0311 68.8304 64.0593 68.8869 64.0976 68.9363C64.136 68.9857 64.1838 69.0271 64.2382 69.058L66.1259 70.1479C66.1798 70.1795 66.2395 70.2003 66.3015 70.2088C66.3635 70.2173 66.4265 70.2135 66.487 70.1975C66.5475 70.1815 66.6043 70.1538 66.654 70.1158C66.7037 70.0778 66.7454 70.0303 66.7767 69.9761C66.808 69.9219 66.8283 69.8621 66.8363 69.8001C66.8444 69.738 66.8401 69.675 66.8237 69.6146C66.8072 69.5542 66.779 69.4977 66.7407 69.4483C66.7023 69.3988 66.6544 69.3575 66.5999 69.3266Z" fill="black"/>
</g>
<text fill="black" xml:space="preserve" style="white-space: pre" font-family="IBM Plex Sans" font-size="14" font-weight="600" letter-spacing="0.16px"><tspan x="100" y="77.25">IBM Cloud</tspan></text>
</g>
<rect x="48.5" y="48.5" width="143" height="391" stroke="#0F62FE"/>
<rect x="96" y="175" width="48" height="48" rx="8" fill="#0F62FE"/>
<rect width="20" height="20" transform="translate(110 189)" fill="white" style="mix-blend-mode:multiply"/>
<path d="M127.5 197.754H126.875V190.254H125.625V197.754H125C124.669 197.754 124.351 197.886 124.116 198.12C123.882 198.355 123.75 198.672 123.75 199.004V200.254C123.75 200.585 123.882 200.903 124.117 201.137C124.351 201.372 124.669 201.504 125 201.504H125.625V207.754H126.875V201.504H127.5C127.831 201.503 128.149 201.372 128.383 201.137C128.618 200.903 128.75 200.585 128.75 200.254V199.004C128.75 198.673 128.618 198.355 128.383 198.12C128.149 197.886 127.831 197.754 127.5 197.754ZM127.5 200.254H125V199.004H127.5V200.254Z" fill="white"/>
<path d="M121.25 192.754H120.625V190.254H119.375V192.754H118.75C118.419 192.754 118.101 192.886 117.866 193.12C117.632 193.355 117.5 193.672 117.5 194.004V195.254C117.5 195.585 117.632 195.903 117.866 196.137C118.101 196.372 118.419 196.504 118.75 196.504H119.375V207.754H120.625V196.504H121.25C121.581 196.504 121.899 196.372 122.134 196.137C122.368 195.903 122.5 195.585 122.5 195.254V194.004C122.5 193.672 122.368 193.355 122.134 193.12C121.899 192.886 121.581 192.754 121.25 192.754ZM121.25 195.254H118.75V194.004H121.25V195.254Z" fill="white"/>
<path d="M115 201.504H114.375V190.254H113.125V201.504H112.5C112.169 201.504 111.851 201.636 111.617 201.87C111.382 202.105 111.25 202.423 111.25 202.754V204.004C111.25 204.335 111.382 204.653 111.617 204.887C111.851 205.122 112.169 205.254 112.5 205.254H113.125V207.754H114.375V205.254H115C115.331 205.254 115.649 205.122 115.883 204.887C116.118 204.653 116.25 204.335 116.25 204.004V202.754C116.25 202.423 116.118 202.105 115.883 201.87C115.649 201.636 115.331 201.504 115 201.504ZM115 204.004H112.5V202.754H115V204.004Z" fill="white"/>
<text fill="black" xml:space="preserve" style="white-space: pre" font-family="IBM Plex Sans" font-size="14" font-weight="600" letter-spacing="0.16px"><tspan x="90.4734" y="245.25">Satellite &#10;</tspan><tspan x="73.1346" y="263.25"> management &#10;</tspan><tspan x="101.496" y="281.25">plane</tspan></text>
<rect x="512.5" y="48.5" width="223" height="391" fill="white"/>
<rect x="513" y="49" width="222" height="390" fill="white"/>
<g clip-path="url(#clip2_22_27)">
<line x1="514" y1="48" x2="514" y2="96" stroke="#8D8D8D" stroke-width="4"/>
<text fill="black" xml:space="preserve" style="white-space: pre" font-family="IBM Plex Sans" font-size="14" font-weight="600" letter-spacing="0.16px"><tspan x="528" y="68.25">Edge or other data center B</tspan></text>
<text fill="black" xml:space="preserve" style="white-space: pre" font-family="IBM Plex Sans" font-size="14" letter-spacing="0.16px"><tspan x="528" y="86.25">(Customer-owned)</tspan></text>
</g>
<rect x="512.5" y="48.5" width="223" height="391" stroke="#8D8D8D"/>
<rect x="240.5" y="48.5" width="223" height="391" fill="white"/>
<rect x="241" y="49" width="222" height="390" fill="white"/>
<g clip-path="url(#clip3_22_27)">
<line x1="242" y1="48" x2="242" y2="96" stroke="#8D8D8D" stroke-width="4"/>
<text fill="black" xml:space="preserve" style="white-space: pre" font-family="IBM Plex Sans" font-size="14" font-weight="600" letter-spacing="0.16px"><tspan x="256" y="68.25">Edge or other data center A</tspan></text>
<text fill="black" xml:space="preserve" style="white-space: pre" font-family="IBM Plex Sans" font-size="14" letter-spacing="0.16px"><tspan x="256" y="86.25">(Customer-owned)</tspan></text>
</g>
<rect x="240.5" y="48.5" width="223" height="391" stroke="#8D8D8D"/>
<rect x="784.5" y="48.5" width="223" height="391" fill="white"/>
<rect x="785" y="49" width="222" height="390" fill="white"/>
<g clip-path="url(#clip4_22_27)">
<line x1="786" y1="48" x2="786" y2="96" stroke="#8D8D8D" stroke-width="4"/>
<text fill="black" xml:space="preserve" style="white-space: pre" font-family="IBM Plex Sans" font-size="14" font-weight="600" letter-spacing="0.16px"><tspan x="800" y="68.25">Edge or other data center C</tspan></text>
<text fill="black" xml:space="preserve" style="white-space: pre" font-family="IBM Plex Sans" font-size="14" letter-spacing="0.16px"><tspan x="800" y="86.25">(Customer-owned)</tspan></text>
</g>
<rect x="784.5" y="48.5" width="223" height="391" stroke="#8D8D8D"/>
<path d="M256.5 112.5H984C988.142 112.5 991.5 115.858 991.5 120V416C991.5 420.142 988.142 423.5 984 423.5H264C259.858 423.5 256.5 420.142 256.5 416V112.5Z" fill="#F7F3F2"/>
<g clip-path="url(#clip5_22_27)">
<line x1="258" y1="112" x2="258" y2="160" stroke="#8D8D8D" stroke-width="4"/>
<g clip-path="url(#clip6_22_27)">
<rect width="20" height="20" transform="translate(272 126)" fill="white" style="mix-blend-mode:multiply"/>
<path d="M292 142.25V141H290.687C290.606 140.609 290.451 140.237 290.229 139.904L291.161 138.973L290.277 138.089L289.346 139.021C289.013 138.799 288.641 138.644 288.25 138.563V137.25H287V138.563C286.609 138.644 286.237 138.799 285.904 139.021L284.973 138.089L284.089 138.973L285.021 139.904C284.799 140.237 284.644 140.609 284.563 141H283.25V142.25H284.563C284.644 142.641 284.799 143.013 285.021 143.346L284.089 144.277L284.973 145.161L285.904 144.229C286.237 144.451 286.609 144.606 287 144.687V146H288.25V144.687C288.641 144.606 289.013 144.451 289.346 144.229L290.277 145.161L291.161 144.277L290.229 143.346C290.451 143.013 290.606 142.641 290.687 142.25H292ZM287.625 143.5C287.254 143.5 286.892 143.39 286.583 143.184C286.275 142.978 286.035 142.685 285.893 142.343C285.751 142 285.714 141.623 285.786 141.259C285.858 140.896 286.037 140.561 286.299 140.299C286.561 140.037 286.895 139.858 287.259 139.786C287.623 139.714 288 139.751 288.343 139.893C288.685 140.035 288.978 140.275 289.184 140.583C289.39 140.892 289.5 141.254 289.5 141.625C289.499 142.122 289.302 142.599 288.95 142.95C288.599 143.302 288.122 143.499 287.625 143.5Z" fill="black"/>
<path d="M276.375 139.75C277.065 139.75 277.625 139.19 277.625 138.5C277.625 137.81 277.065 137.25 276.375 137.25C275.685 137.25 275.125 137.81 275.125 138.5C275.125 139.19 275.685 139.75 276.375 139.75Z" fill="black"/>
<path d="M280.75 138.5C280.256 138.5 279.772 138.353 279.361 138.079C278.95 137.804 278.63 137.414 278.44 136.957C278.251 136.5 278.202 135.997 278.298 135.512C278.394 135.027 278.633 134.582 278.982 134.232C279.332 133.883 279.777 133.645 280.262 133.548C280.747 133.452 281.25 133.501 281.707 133.69C282.164 133.88 282.554 134.2 282.829 134.611C283.103 135.022 283.25 135.506 283.25 136C283.248 136.662 282.984 137.297 282.516 137.766C282.047 138.234 281.412 138.498 280.75 138.5ZM280.75 134.75C280.503 134.75 280.261 134.823 280.056 134.961C279.85 135.098 279.69 135.293 279.595 135.522C279.501 135.75 279.476 136.001 279.524 136.244C279.572 136.486 279.691 136.709 279.866 136.884C280.041 137.059 280.264 137.178 280.506 137.226C280.749 137.274 281 137.249 281.228 137.155C281.457 137.06 281.652 136.9 281.789 136.694C281.927 136.489 282 136.247 282 136C281.999 135.669 281.867 135.351 281.633 135.117C281.399 134.883 281.081 134.751 280.75 134.75Z" fill="black"/>
<path d="M285.125 134.75C285.815 134.75 286.375 134.19 286.375 133.5C286.375 132.81 285.815 132.25 285.125 132.25C284.435 132.25 283.875 132.81 283.875 133.5C283.875 134.19 284.435 134.75 285.125 134.75Z" fill="black"/>
<path d="M280.138 143.67L273.875 140.016V131.984L280.75 127.974L287.935 132.165L288.565 131.085L281.065 126.71C280.969 126.654 280.861 126.625 280.75 126.625C280.639 126.625 280.531 126.654 280.435 126.71L272.935 131.085C272.841 131.14 272.762 131.219 272.708 131.314C272.654 131.408 272.625 131.516 272.625 131.625V140.375C272.625 140.484 272.654 140.592 272.708 140.686C272.762 140.781 272.841 140.86 272.935 140.915L279.508 144.75L280.138 143.67Z" fill="black"/>
</g>
<text fill="black" xml:space="preserve" style="white-space: pre" font-family="IBM Plex Sans" font-size="14" font-weight="600" letter-spacing="0.16px"><tspan x="308" y="141.25">Satellite location</tspan></text>
</g>
<path d="M256.5 112.5H984C988.142 112.5 991.5 115.858 991.5 120V416C991.5 420.142 988.142 423.5 984 423.5H264C259.858 423.5 256.5 420.142 256.5 416V112.5Z" stroke="#8D8D8D"/>
<rect width="48" height="48" transform="translate(568 272)" fill="#8D8D8D"/>
<rect width="20" height="20" transform="translate(582 286)" fill="white" style="mix-blend-mode:multiply"/>
<path d="M592 290.375C591.629 290.375 591.267 290.265 590.958 290.059C590.65 289.853 590.41 289.56 590.268 289.218C590.126 288.875 590.089 288.498 590.161 288.134C590.233 287.77 590.412 287.436 590.674 287.174C590.936 286.912 591.27 286.733 591.634 286.661C591.998 286.589 592.375 286.626 592.718 286.768C593.06 286.91 593.353 287.15 593.559 287.458C593.765 287.767 593.875 288.129 593.875 288.5C593.874 288.997 593.677 289.474 593.325 289.825C592.974 290.177 592.497 290.374 592 290.375ZM592 287.875C591.876 287.875 591.756 287.912 591.653 287.98C591.55 288.049 591.47 288.147 591.423 288.261C591.375 288.375 591.363 288.501 591.387 288.622C591.411 288.743 591.471 288.855 591.558 288.942C591.645 289.029 591.757 289.089 591.878 289.113C591.999 289.137 592.125 289.125 592.239 289.077C592.353 289.03 592.451 288.95 592.52 288.847C592.588 288.744 592.625 288.624 592.625 288.5C592.625 288.334 592.559 288.175 592.442 288.058C592.325 287.941 592.166 287.875 592 287.875Z" fill="white"/>
<path d="M588.875 304.75C588.504 304.75 588.142 304.64 587.833 304.434C587.525 304.228 587.285 303.935 587.143 303.593C587.001 303.25 586.964 302.873 587.036 302.509C587.108 302.145 587.287 301.811 587.549 301.549C587.811 301.287 588.145 301.108 588.509 301.036C588.873 300.964 589.25 301.001 589.593 301.143C589.935 301.285 590.228 301.525 590.434 301.833C590.64 302.142 590.75 302.504 590.75 302.875C590.749 303.372 590.552 303.849 590.2 304.2C589.849 304.552 589.372 304.749 588.875 304.75ZM588.875 302.25C588.751 302.25 588.631 302.287 588.528 302.355C588.425 302.424 588.345 302.522 588.298 302.636C588.25 302.75 588.238 302.876 588.262 302.997C588.286 303.118 588.346 303.23 588.433 303.317C588.52 303.404 588.632 303.464 588.753 303.488C588.874 303.512 589 303.5 589.114 303.452C589.228 303.405 589.326 303.325 589.395 303.222C589.463 303.119 589.5 302.999 589.5 302.875C589.5 302.709 589.434 302.55 589.317 302.433C589.2 302.316 589.041 302.25 588.875 302.25Z" fill="white"/>
<path d="M586.375 292.875C586.004 292.875 585.642 292.765 585.333 292.559C585.025 292.353 584.785 292.06 584.643 291.718C584.501 291.375 584.464 290.998 584.536 290.634C584.608 290.27 584.787 289.936 585.049 289.674C585.311 289.412 585.645 289.233 586.009 289.161C586.373 289.089 586.75 289.126 587.093 289.268C587.435 289.41 587.728 289.65 587.934 289.958C588.14 290.267 588.25 290.629 588.25 291C588.249 291.497 588.052 291.974 587.7 292.325C587.349 292.677 586.872 292.874 586.375 292.875ZM586.375 290.375C586.251 290.375 586.131 290.412 586.028 290.48C585.925 290.549 585.845 290.647 585.798 290.761C585.75 290.875 585.738 291.001 585.762 291.122C585.786 291.243 585.846 291.355 585.933 291.442C586.02 291.529 586.132 291.589 586.253 291.613C586.374 291.637 586.5 291.625 586.614 291.577C586.728 291.53 586.826 291.45 586.895 291.347C586.963 291.244 587 291.124 587 291C587 290.834 586.934 290.675 586.817 290.558C586.7 290.441 586.541 290.375 586.375 290.375Z" fill="white"/>
<path d="M595.125 304.75C594.754 304.75 594.392 304.64 594.083 304.434C593.775 304.228 593.535 303.935 593.393 303.593C593.251 303.25 593.214 302.873 593.286 302.509C593.358 302.145 593.537 301.811 593.799 301.549C594.061 301.287 594.395 301.108 594.759 301.036C595.123 300.964 595.5 301.001 595.843 301.143C596.185 301.285 596.478 301.525 596.684 301.833C596.89 302.142 597 302.504 597 302.875C596.999 303.372 596.802 303.849 596.45 304.2C596.099 304.552 595.622 304.749 595.125 304.75ZM595.125 302.25C595.001 302.25 594.881 302.287 594.778 302.355C594.675 302.424 594.595 302.522 594.548 302.636C594.5 302.75 594.488 302.876 594.512 302.997C594.536 303.118 594.596 303.23 594.683 303.317C594.77 303.404 594.882 303.464 595.003 303.488C595.124 303.512 595.25 303.5 595.364 303.452C595.478 303.405 595.576 303.325 595.645 303.222C595.713 303.119 595.75 302.999 595.75 302.875C595.75 302.709 595.684 302.55 595.567 302.433C595.45 302.316 595.291 302.25 595.125 302.25Z" fill="white"/>
<path d="M597.625 292.875C597.254 292.875 596.892 292.765 596.583 292.559C596.275 292.353 596.035 292.06 595.893 291.718C595.751 291.375 595.714 290.998 595.786 290.634C595.858 290.27 596.037 289.936 596.299 289.674C596.561 289.412 596.895 289.233 597.259 289.161C597.623 289.089 598 289.126 598.343 289.268C598.685 289.41 598.978 289.65 599.184 289.958C599.39 290.267 599.5 290.629 599.5 291C599.499 291.497 599.302 291.974 598.95 292.325C598.599 292.677 598.122 292.874 597.625 292.875ZM597.625 290.375C597.501 290.375 597.381 290.412 597.278 290.48C597.175 290.549 597.095 290.647 597.048 290.761C597 290.875 596.988 291.001 597.012 291.122C597.036 291.243 597.096 291.355 597.183 291.442C597.27 291.529 597.382 291.589 597.503 291.613C597.624 291.637 597.75 291.625 597.864 291.577C597.978 291.53 598.076 291.45 598.145 291.347C598.213 291.244 598.25 291.124 598.25 291C598.25 290.834 598.184 290.675 598.067 290.558C597.95 290.441 597.791 290.375 597.625 290.375Z" fill="white"/>
<path d="M584.5 299.125C584.129 299.125 583.767 299.015 583.458 298.809C583.15 298.603 582.91 298.31 582.768 297.968C582.626 297.625 582.589 297.248 582.661 296.884C582.733 296.52 582.912 296.186 583.174 295.924C583.436 295.662 583.77 295.483 584.134 295.411C584.498 295.339 584.875 295.376 585.218 295.518C585.56 295.66 585.853 295.9 586.059 296.208C586.265 296.517 586.375 296.879 586.375 297.25C586.374 297.747 586.177 298.224 585.825 298.575C585.474 298.927 584.997 299.124 584.5 299.125ZM584.5 296.625C584.376 296.625 584.256 296.662 584.153 296.73C584.05 296.799 583.97 296.897 583.923 297.011C583.875 297.125 583.863 297.251 583.887 297.372C583.911 297.493 583.971 297.605 584.058 297.692C584.145 297.779 584.257 297.839 584.378 297.863C584.499 297.887 584.625 297.875 584.739 297.827C584.853 297.78 584.951 297.7 585.02 297.597C585.088 297.494 585.125 297.374 585.125 297.25C585.125 297.084 585.059 296.925 584.942 296.808C584.825 296.691 584.666 296.625 584.5 296.625Z" fill="white"/>
<path d="M599.5 299.125C599.129 299.125 598.767 299.015 598.458 298.809C598.15 298.603 597.91 298.31 597.768 297.968C597.626 297.625 597.589 297.248 597.661 296.884C597.733 296.52 597.912 296.186 598.174 295.924C598.436 295.662 598.77 295.483 599.134 295.411C599.498 295.339 599.875 295.376 600.218 295.518C600.56 295.66 600.853 295.9 601.059 296.208C601.265 296.517 601.375 296.879 601.375 297.25C601.374 297.747 601.177 298.224 600.825 298.575C600.474 298.927 599.997 299.124 599.5 299.125ZM599.5 296.625C599.376 296.625 599.256 296.662 599.153 296.73C599.05 296.799 598.97 296.897 598.923 297.011C598.875 297.125 598.863 297.251 598.887 297.372C598.911 297.493 598.971 297.605 599.058 297.692C599.145 297.779 599.257 297.839 599.378 297.863C599.499 297.887 599.625 297.875 599.739 297.827C599.853 297.78 599.951 297.7 600.02 297.597C600.088 297.494 600.125 297.374 600.125 297.25C600.125 297.084 600.059 296.925 599.942 296.808C599.825 296.691 599.666 296.625 599.5 296.625Z" fill="white"/>
<path d="M592 299.75C591.258 299.75 590.533 299.53 589.917 299.118C589.3 298.706 588.819 298.12 588.535 297.435C588.252 296.75 588.177 295.996 588.322 295.268C588.467 294.541 588.824 293.873 589.348 293.348C589.873 292.824 590.541 292.467 591.268 292.322C591.996 292.177 592.75 292.252 593.435 292.535C594.12 292.819 594.706 293.3 595.118 293.917C595.53 294.533 595.75 295.258 595.75 296C595.749 296.994 595.353 297.947 594.65 298.65C593.947 299.353 592.994 299.749 592 299.75ZM592 293.5C591.506 293.5 591.022 293.647 590.611 293.921C590.2 294.196 589.88 294.586 589.69 295.043C589.501 295.5 589.452 296.003 589.548 296.488C589.645 296.973 589.883 297.418 590.232 297.768C590.582 298.117 591.027 298.356 591.512 298.452C591.997 298.548 592.5 298.499 592.957 298.31C593.414 298.12 593.804 297.8 594.079 297.389C594.353 296.978 594.5 296.494 594.5 296C594.499 295.337 594.236 294.702 593.767 294.233C593.298 293.764 592.663 293.501 592 293.5Z" fill="white"/>
<text fill="black" xml:space="preserve" style="white-space: pre" font-family="IBM Plex Sans" font-size="14" font-weight="600" letter-spacing="0.16px"><tspan x="624" y="300.25">Cluster 1</tspan></text>
<rect width="48" height="48" transform="translate(568 360)" fill="#8D8D8D"/>
<rect width="20" height="20" transform="translate(582 374)" fill="white" style="mix-blend-mode:multiply"/>
<path d="M592 378.375C591.629 378.375 591.267 378.265 590.958 378.059C590.65 377.853 590.41 377.56 590.268 377.218C590.126 376.875 590.089 376.498 590.161 376.134C590.233 375.77 590.412 375.436 590.674 375.174C590.936 374.912 591.27 374.733 591.634 374.661C591.998 374.589 592.375 374.626 592.718 374.768C593.06 374.91 593.353 375.15 593.559 375.458C593.765 375.767 593.875 376.129 593.875 376.5C593.874 376.997 593.677 377.474 593.325 377.825C592.974 378.177 592.497 378.374 592 378.375ZM592 375.875C591.876 375.875 591.756 375.912 591.653 375.98C591.55 376.049 591.47 376.147 591.423 376.261C591.375 376.375 591.363 376.501 591.387 376.622C591.411 376.743 591.471 376.855 591.558 376.942C591.645 377.029 591.757 377.089 591.878 377.113C591.999 377.137 592.125 377.125 592.239 377.077C592.353 377.03 592.451 376.95 592.52 376.847C592.588 376.744 592.625 376.624 592.625 376.5C592.625 376.334 592.559 376.175 592.442 376.058C592.325 375.941 592.166 375.875 592 375.875Z" fill="white"/>
<path d="M588.875 392.75C588.504 392.75 588.142 392.64 587.833 392.434C587.525 392.228 587.285 391.935 587.143 391.593C587.001 391.25 586.964 390.873 587.036 390.509C587.108 390.145 587.287 389.811 587.549 389.549C587.811 389.287 588.145 389.108 588.509 389.036C588.873 388.964 589.25 389.001 589.593 389.143C589.935 389.285 590.228 389.525 590.434 389.833C590.64 390.142 590.75 390.504 590.75 390.875C590.749 391.372 590.552 391.849 590.2 392.2C589.849 392.552 589.372 392.749 588.875 392.75ZM588.875 390.25C588.751 390.25 588.631 390.287 588.528 390.355C588.425 390.424 588.345 390.522 588.298 390.636C588.25 390.75 588.238 390.876 588.262 390.997C588.286 391.118 588.346 391.23 588.433 391.317C588.52 391.404 588.632 391.464 588.753 391.488C588.874 391.512 589 391.5 589.114 391.452C589.228 391.405 589.326 391.325 589.395 391.222C589.463 391.119 589.5 390.999 589.5 390.875C589.5 390.709 589.434 390.55 589.317 390.433C589.2 390.316 589.041 390.25 588.875 390.25Z" fill="white"/>
<path d="M586.375 380.875C586.004 380.875 585.642 380.765 585.333 380.559C585.025 380.353 584.785 380.06 584.643 379.718C584.501 379.375 584.464 378.998 584.536 378.634C584.608 378.27 584.787 377.936 585.049 377.674C585.311 377.412 585.645 377.233 586.009 377.161C586.373 377.089 586.75 377.126 587.093 377.268C587.435 377.41 587.728 377.65 587.934 377.958C588.14 378.267 588.25 378.629 588.25 379C588.249 379.497 588.052 379.974 587.7 380.325C587.349 380.677 586.872 380.874 586.375 380.875ZM586.375 378.375C586.251 378.375 586.131 378.412 586.028 378.48C585.925 378.549 585.845 378.647 585.798 378.761C585.75 378.875 585.738 379.001 585.762 379.122C585.786 379.243 585.846 379.355 585.933 379.442C586.02 379.529 586.132 379.589 586.253 379.613C586.374 379.637 586.5 379.625 586.614 379.577C586.728 379.53 586.826 379.45 586.895 379.347C586.963 379.244 587 379.124 587 379C587 378.834 586.934 378.675 586.817 378.558C586.7 378.441 586.541 378.375 586.375 378.375Z" fill="white"/>
<path d="M595.125 392.75C594.754 392.75 594.392 392.64 594.083 392.434C593.775 392.228 593.535 391.935 593.393 391.593C593.251 391.25 593.214 390.873 593.286 390.509C593.358 390.145 593.537 389.811 593.799 389.549C594.061 389.287 594.395 389.108 594.759 389.036C595.123 388.964 595.5 389.001 595.843 389.143C596.185 389.285 596.478 389.525 596.684 389.833C596.89 390.142 597 390.504 597 390.875C596.999 391.372 596.802 391.849 596.45 392.2C596.099 392.552 595.622 392.749 595.125 392.75ZM595.125 390.25C595.001 390.25 594.881 390.287 594.778 390.355C594.675 390.424 594.595 390.522 594.548 390.636C594.5 390.75 594.488 390.876 594.512 390.997C594.536 391.118 594.596 391.23 594.683 391.317C594.77 391.404 594.882 391.464 595.003 391.488C595.124 391.512 595.25 391.5 595.364 391.452C595.478 391.405 595.576 391.325 595.645 391.222C595.713 391.119 595.75 390.999 595.75 390.875C595.75 390.709 595.684 390.55 595.567 390.433C595.45 390.316 595.291 390.25 595.125 390.25Z" fill="white"/>
<path d="M597.625 380.875C597.254 380.875 596.892 380.765 596.583 380.559C596.275 380.353 596.035 380.06 595.893 379.718C595.751 379.375 595.714 378.998 595.786 378.634C595.858 378.27 596.037 377.936 596.299 377.674C596.561 377.412 596.895 377.233 597.259 377.161C597.623 377.089 598 377.126 598.343 377.268C598.685 377.41 598.978 377.65 599.184 377.958C599.39 378.267 599.5 378.629 599.5 379C599.499 379.497 599.302 379.974 598.95 380.325C598.599 380.677 598.122 380.874 597.625 380.875ZM597.625 378.375C597.501 378.375 597.381 378.412 597.278 378.48C597.175 378.549 597.095 378.647 597.048 378.761C597 378.875 596.988 379.001 597.012 379.122C597.036 379.243 597.096 379.355 597.183 379.442C597.27 379.529 597.382 379.589 597.503 379.613C597.624 379.637 597.75 379.625 597.864 379.577C597.978 379.53 598.076 379.45 598.145 379.347C598.213 379.244 598.25 379.124 598.25 379C598.25 378.834 598.184 378.675 598.067 378.558C597.95 378.441 597.791 378.375 597.625 378.375Z" fill="white"/>
<path d="M584.5 387.125C584.129 387.125 583.767 387.015 583.458 386.809C583.15 386.603 582.91 386.31 582.768 385.968C582.626 385.625 582.589 385.248 582.661 384.884C582.733 384.52 582.912 384.186 583.174 383.924C583.436 383.662 583.77 383.483 584.134 383.411C584.498 383.339 584.875 383.376 585.218 383.518C585.56 383.66 585.853 383.9 586.059 384.208C586.265 384.517 586.375 384.879 586.375 385.25C586.374 385.747 586.177 386.224 585.825 386.575C585.474 386.927 584.997 387.124 584.5 387.125ZM584.5 384.625C584.376 384.625 584.256 384.662 584.153 384.73C584.05 384.799 583.97 384.897 583.923 385.011C583.875 385.125 583.863 385.251 583.887 385.372C583.911 385.493 583.971 385.605 584.058 385.692C584.145 385.779 584.257 385.839 584.378 385.863C584.499 385.887 584.625 385.875 584.739 385.827C584.853 385.78 584.951 385.7 585.02 385.597C585.088 385.494 585.125 385.374 585.125 385.25C585.125 385.084 585.059 384.925 584.942 384.808C584.825 384.691 584.666 384.625 584.5 384.625Z" fill="white"/>
<path d="M599.5 387.125C599.129 387.125 598.767 387.015 598.458 386.809C598.15 386.603 597.91 386.31 597.768 385.968C597.626 385.625 597.589 385.248 597.661 384.884C597.733 384.52 597.912 384.186 598.174 383.924C598.436 383.662 598.77 383.483 599.134 383.411C599.498 383.339 599.875 383.376 600.218 383.518C600.56 383.66 600.853 383.9 601.059 384.208C601.265 384.517 601.375 384.879 601.375 385.25C601.374 385.747 601.177 386.224 600.825 386.575C600.474 386.927 599.997 387.124 599.5 387.125ZM599.5 384.625C599.376 384.625 599.256 384.662 599.153 384.73C599.05 384.799 598.97 384.897 598.923 385.011C598.875 385.125 598.863 385.251 598.887 385.372C598.911 385.493 598.971 385.605 599.058 385.692C599.145 385.779 599.257 385.839 599.378 385.863C599.499 385.887 599.625 385.875 599.739 385.827C599.853 385.78 599.951 385.7 600.02 385.597C600.088 385.494 600.125 385.374 600.125 385.25C600.125 385.084 600.059 384.925 599.942 384.808C599.825 384.691 599.666 384.625 599.5 384.625Z" fill="white"/>
<path d="M592 387.75C591.258 387.75 590.533 387.53 589.917 387.118C589.3 386.706 588.819 386.12 588.535 385.435C588.252 384.75 588.177 383.996 588.322 383.268C588.467 382.541 588.824 381.873 589.348 381.348C589.873 380.824 590.541 380.467 591.268 380.322C591.996 380.177 592.75 380.252 593.435 380.535C594.12 380.819 594.706 381.3 595.118 381.917C595.53 382.533 595.75 383.258 595.75 384C595.749 384.994 595.353 385.947 594.65 386.65C593.947 387.353 592.994 387.749 592 387.75ZM592 381.5C591.506 381.5 591.022 381.647 590.611 381.921C590.2 382.196 589.88 382.586 589.69 383.043C589.501 383.5 589.452 384.003 589.548 384.488C589.645 384.973 589.883 385.418 590.232 385.768C590.582 386.117 591.027 386.356 591.512 386.452C591.997 386.548 592.5 386.499 592.957 386.31C593.414 386.12 593.804 385.8 594.079 385.389C594.353 384.978 594.5 384.494 594.5 384C594.499 383.337 594.236 382.702 593.767 382.233C593.298 381.764 592.663 381.501 592 381.5Z" fill="white"/>
<text fill="black" xml:space="preserve" style="white-space: pre" font-family="IBM Plex Sans" font-size="14" font-weight="600" letter-spacing="0.16px"><tspan x="624" y="388.25">Cluster 2</tspan></text>
<rect width="48" height="48" transform="translate(840 272)" fill="#8D8D8D"/>
<rect width="20" height="20" transform="translate(854 286)" fill="white" style="mix-blend-mode:multiply"/>
<path d="M864 290.375C863.629 290.375 863.267 290.265 862.958 290.059C862.65 289.853 862.41 289.56 862.268 289.218C862.126 288.875 862.089 288.498 862.161 288.134C862.233 287.77 862.412 287.436 862.674 287.174C862.936 286.912 863.27 286.733 863.634 286.661C863.998 286.589 864.375 286.626 864.718 286.768C865.06 286.91 865.353 287.15 865.559 287.458C865.765 287.767 865.875 288.129 865.875 288.5C865.874 288.997 865.677 289.474 865.325 289.825C864.974 290.177 864.497 290.374 864 290.375ZM864 287.875C863.876 287.875 863.756 287.912 863.653 287.98C863.55 288.049 863.47 288.147 863.423 288.261C863.375 288.375 863.363 288.501 863.387 288.622C863.411 288.743 863.471 288.855 863.558 288.942C863.645 289.029 863.757 289.089 863.878 289.113C863.999 289.137 864.125 289.125 864.239 289.077C864.353 289.03 864.451 288.95 864.52 288.847C864.588 288.744 864.625 288.624 864.625 288.5C864.625 288.334 864.559 288.175 864.442 288.058C864.325 287.941 864.166 287.875 864 287.875Z" fill="white"/>
<path d="M860.875 304.75C860.504 304.75 860.142 304.64 859.833 304.434C859.525 304.228 859.285 303.935 859.143 303.593C859.001 303.25 858.964 302.873 859.036 302.509C859.108 302.145 859.287 301.811 859.549 301.549C859.811 301.287 860.145 301.108 860.509 301.036C860.873 300.964 861.25 301.001 861.593 301.143C861.935 301.285 862.228 301.525 862.434 301.833C862.64 302.142 862.75 302.504 862.75 302.875C862.749 303.372 862.552 303.849 862.2 304.2C861.849 304.552 861.372 304.749 860.875 304.75ZM860.875 302.25C860.751 302.25 860.631 302.287 860.528 302.355C860.425 302.424 860.345 302.522 860.298 302.636C860.25 302.75 860.238 302.876 860.262 302.997C860.286 303.118 860.346 303.23 860.433 303.317C860.52 303.404 860.632 303.464 860.753 303.488C860.874 303.512 861 303.5 861.114 303.452C861.228 303.405 861.326 303.325 861.395 303.222C861.463 303.119 861.5 302.999 861.5 302.875C861.5 302.709 861.434 302.55 861.317 302.433C861.2 302.316 861.041 302.25 860.875 302.25Z" fill="white"/>
<path d="M858.375 292.875C858.004 292.875 857.642 292.765 857.333 292.559C857.025 292.353 856.785 292.06 856.643 291.718C856.501 291.375 856.464 290.998 856.536 290.634C856.608 290.27 856.787 289.936 857.049 289.674C857.311 289.412 857.645 289.233 858.009 289.161C858.373 289.089 858.75 289.126 859.093 289.268C859.435 289.41 859.728 289.65 859.934 289.958C860.14 290.267 860.25 290.629 860.25 291C860.249 291.497 860.052 291.974 859.7 292.325C859.349 292.677 858.872 292.874 858.375 292.875ZM858.375 290.375C858.251 290.375 858.131 290.412 858.028 290.48C857.925 290.549 857.845 290.647 857.798 290.761C857.75 290.875 857.738 291.001 857.762 291.122C857.786 291.243 857.846 291.355 857.933 291.442C858.02 291.529 858.132 291.589 858.253 291.613C858.374 291.637 858.5 291.625 858.614 291.577C858.728 291.53 858.826 291.45 858.895 291.347C858.963 291.244 859 291.124 859 291C859 290.834 858.934 290.675 858.817 290.558C858.7 290.441 858.541 290.375 858.375 290.375Z" fill="white"/>
<path d="M867.125 304.75C866.754 304.75 866.392 304.64 866.083 304.434C865.775 304.228 865.535 303.935 865.393 303.593C865.251 303.25 865.214 302.873 865.286 302.509C865.358 302.145 865.537 301.811 865.799 301.549C866.061 301.287 866.395 301.108 866.759 301.036C867.123 300.964 867.5 301.001 867.843 301.143C868.185 301.285 868.478 301.525 868.684 301.833C868.89 302.142 869 302.504 869 302.875C868.999 303.372 868.802 303.849 868.45 304.2C868.099 304.552 867.622 304.749 867.125 304.75ZM867.125 302.25C867.001 302.25 866.881 302.287 866.778 302.355C866.675 302.424 866.595 302.522 866.548 302.636C866.5 302.75 866.488 302.876 866.512 302.997C866.536 303.118 866.596 303.23 866.683 303.317C866.77 303.404 866.882 303.464 867.003 303.488C867.124 303.512 867.25 303.5 867.364 303.452C867.478 303.405 867.576 303.325 867.645 303.222C867.713 303.119 867.75 302.999 867.75 302.875C867.75 302.709 867.684 302.55 867.567 302.433C867.45 302.316 867.291 302.25 867.125 302.25Z" fill="white"/>
<path d="M869.625 292.875C869.254 292.875 868.892 292.765 868.583 292.559C868.275 292.353 868.035 292.06 867.893 291.718C867.751 291.375 867.714 290.998 867.786 290.634C867.858 290.27 868.037 289.936 868.299 289.674C868.561 289.412 868.895 289.233 869.259 289.161C869.623 289.089 870 289.126 870.343 289.268C870.685 289.41 870.978 289.65 871.184 289.958C871.39 290.267 871.5 290.629 871.5 291C871.499 291.497 871.302 291.974 870.95 292.325C870.599 292.677 870.122 292.874 869.625 292.875ZM869.625 290.375C869.501 290.375 869.381 290.412 869.278 290.48C869.175 290.549 869.095 290.647 869.048 290.761C869 290.875 868.988 291.001 869.012 291.122C869.036 291.243 869.096 291.355 869.183 291.442C869.27 291.529 869.382 291.589 869.503 291.613C869.624 291.637 869.75 291.625 869.864 291.577C869.978 291.53 870.076 291.45 870.145 291.347C870.213 291.244 870.25 291.124 870.25 291C870.25 290.834 870.184 290.675 870.067 290.558C869.95 290.441 869.791 290.375 869.625 290.375Z" fill="white"/>
<path d="M856.5 299.125C856.129 299.125 855.767 299.015 855.458 298.809C855.15 298.603 854.91 298.31 854.768 297.968C854.626 297.625 854.589 297.248 854.661 296.884C854.733 296.52 854.912 296.186 855.174 295.924C855.436 295.662 855.77 295.483 856.134 295.411C856.498 295.339 856.875 295.376 857.218 295.518C857.56 295.66 857.853 295.9 858.059 296.208C858.265 296.517 858.375 296.879 858.375 297.25C858.374 297.747 858.177 298.224 857.825 298.575C857.474 298.927 856.997 299.124 856.5 299.125ZM856.5 296.625C856.376 296.625 856.256 296.662 856.153 296.73C856.05 296.799 855.97 296.897 855.923 297.011C855.875 297.125 855.863 297.251 855.887 297.372C855.911 297.493 855.971 297.605 856.058 297.692C856.145 297.779 856.257 297.839 856.378 297.863C856.499 297.887 856.625 297.875 856.739 297.827C856.853 297.78 856.951 297.7 857.02 297.597C857.088 297.494 857.125 297.374 857.125 297.25C857.125 297.084 857.059 296.925 856.942 296.808C856.825 296.691 856.666 296.625 856.5 296.625Z" fill="white"/>
<path d="M871.5 299.125C871.129 299.125 870.767 299.015 870.458 298.809C870.15 298.603 869.91 298.31 869.768 297.968C869.626 297.625 869.589 297.248 869.661 296.884C869.733 296.52 869.912 296.186 870.174 295.924C870.436 295.662 870.77 295.483 871.134 295.411C871.498 295.339 871.875 295.376 872.218 295.518C872.56 295.66 872.853 295.9 873.059 296.208C873.265 296.517 873.375 296.879 873.375 297.25C873.374 297.747 873.177 298.224 872.825 298.575C872.474 298.927 871.997 299.124 871.5 299.125ZM871.5 296.625C871.376 296.625 871.256 296.662 871.153 296.73C871.05 296.799 870.97 296.897 870.923 297.011C870.875 297.125 870.863 297.251 870.887 297.372C870.911 297.493 870.971 297.605 871.058 297.692C871.145 297.779 871.257 297.839 871.378 297.863C871.499 297.887 871.625 297.875 871.739 297.827C871.853 297.78 871.951 297.7 872.02 297.597C872.088 297.494 872.125 297.374 872.125 297.25C872.125 297.084 872.059 296.925 871.942 296.808C871.825 296.691 871.666 296.625 871.5 296.625Z" fill="white"/>
<path d="M864 299.75C863.258 299.75 862.533 299.53 861.917 299.118C861.3 298.706 860.819 298.12 860.535 297.435C860.252 296.75 860.177 295.996 860.322 295.268C860.467 294.541 860.824 293.873 861.348 293.348C861.873 292.824 862.541 292.467 863.268 292.322C863.996 292.177 864.75 292.252 865.435 292.535C866.12 292.819 866.706 293.3 867.118 293.917C867.53 294.533 867.75 295.258 867.75 296C867.749 296.994 867.353 297.947 866.65 298.65C865.947 299.353 864.994 299.749 864 299.75ZM864 293.5C863.506 293.5 863.022 293.647 862.611 293.921C862.2 294.196 861.88 294.586 861.69 295.043C861.501 295.5 861.452 296.003 861.548 296.488C861.645 296.973 861.883 297.418 862.232 297.768C862.582 298.117 863.027 298.356 863.512 298.452C863.997 298.548 864.5 298.499 864.957 298.31C865.414 298.12 865.804 297.8 866.079 297.389C866.353 296.978 866.5 296.494 866.5 296C866.499 295.337 866.236 294.702 865.767 294.233C865.298 293.764 864.663 293.501 864 293.5Z" fill="white"/>
<text fill="black" xml:space="preserve" style="white-space: pre" font-family="IBM Plex Sans" font-size="14" font-weight="600" letter-spacing="0.16px"><tspan x="896" y="300.25">Cluster 3</tspan></text>
<rect x="840.5" y="360.5" width="47" height="47" fill="white"/>
<rect width="20" height="20" transform="translate(854 374)" fill="white" style="mix-blend-mode:multiply"/>
<path d="M864 378.375C863.629 378.375 863.267 378.265 862.958 378.059C862.65 377.853 862.41 377.56 862.268 377.218C862.126 376.875 862.089 376.498 862.161 376.134C862.233 375.77 862.412 375.436 862.674 375.174C862.936 374.912 863.27 374.733 863.634 374.661C863.998 374.589 864.375 374.626 864.718 374.768C865.06 374.91 865.353 375.15 865.559 375.458C865.765 375.767 865.875 376.129 865.875 376.5C865.874 376.997 865.677 377.474 865.325 377.825C864.974 378.177 864.497 378.374 864 378.375ZM864 375.875C863.876 375.875 863.756 375.912 863.653 375.98C863.55 376.049 863.47 376.147 863.423 376.261C863.375 376.375 863.363 376.501 863.387 376.622C863.411 376.743 863.471 376.855 863.558 376.942C863.645 377.029 863.757 377.089 863.878 377.113C863.999 377.137 864.125 377.125 864.239 377.077C864.353 377.03 864.451 376.95 864.52 376.847C864.588 376.744 864.625 376.624 864.625 376.5C864.625 376.334 864.559 376.175 864.442 376.058C864.325 375.941 864.166 375.875 864 375.875Z" fill="black"/>
<path d="M860.875 392.75C860.504 392.75 860.142 392.64 859.833 392.434C859.525 392.228 859.285 391.935 859.143 391.593C859.001 391.25 858.964 390.873 859.036 390.509C859.108 390.145 859.287 389.811 859.549 389.549C859.811 389.287 860.145 389.108 860.509 389.036C860.873 388.964 861.25 389.001 861.593 389.143C861.935 389.285 862.228 389.525 862.434 389.833C862.64 390.142 862.75 390.504 862.75 390.875C862.749 391.372 862.552 391.849 862.2 392.2C861.849 392.552 861.372 392.749 860.875 392.75ZM860.875 390.25C860.751 390.25 860.631 390.287 860.528 390.355C860.425 390.424 860.345 390.522 860.298 390.636C860.25 390.75 860.238 390.876 860.262 390.997C860.286 391.118 860.346 391.23 860.433 391.317C860.52 391.404 860.632 391.464 860.753 391.488C860.874 391.512 861 391.5 861.114 391.452C861.228 391.405 861.326 391.325 861.395 391.222C861.463 391.119 861.5 390.999 861.5 390.875C861.5 390.709 861.434 390.55 861.317 390.433C861.2 390.316 861.041 390.25 860.875 390.25Z" fill="black"/>
<path d="M858.375 380.875C858.004 380.875 857.642 380.765 857.333 380.559C857.025 380.353 856.785 380.06 856.643 379.718C856.501 379.375 856.464 378.998 856.536 378.634C856.608 378.27 856.787 377.936 857.049 377.674C857.311 377.412 857.645 377.233 858.009 377.161C858.373 377.089 858.75 377.126 859.093 377.268C859.435 377.41 859.728 377.65 859.934 377.958C860.14 378.267 860.25 378.629 860.25 379C860.249 379.497 860.052 379.974 859.7 380.325C859.349 380.677 858.872 380.874 858.375 380.875ZM858.375 378.375C858.251 378.375 858.131 378.412 858.028 378.48C857.925 378.549 857.845 378.647 857.798 378.761C857.75 378.875 857.738 379.001 857.762 379.122C857.786 379.243 857.846 379.355 857.933 379.442C858.02 379.529 858.132 379.589 858.253 379.613C858.374 379.637 858.5 379.625 858.614 379.577C858.728 379.53 858.826 379.45 858.895 379.347C858.963 379.244 859 379.124 859 379C859 378.834 858.934 378.675 858.817 378.558C858.7 378.441 858.541 378.375 858.375 378.375Z" fill="black"/>
<path d="M867.125 392.75C866.754 392.75 866.392 392.64 866.083 392.434C865.775 392.228 865.535 391.935 865.393 391.593C865.251 391.25 865.214 390.873 865.286 390.509C865.358 390.145 865.537 389.811 865.799 389.549C866.061 389.287 866.395 389.108 866.759 389.036C867.123 388.964 867.5 389.001 867.843 389.143C868.185 389.285 868.478 389.525 868.684 389.833C868.89 390.142 869 390.504 869 390.875C868.999 391.372 868.802 391.849 868.45 392.2C868.099 392.552 867.622 392.749 867.125 392.75ZM867.125 390.25C867.001 390.25 866.881 390.287 866.778 390.355C866.675 390.424 866.595 390.522 866.548 390.636C866.5 390.75 866.488 390.876 866.512 390.997C866.536 391.118 866.596 391.23 866.683 391.317C866.77 391.404 866.882 391.464 867.003 391.488C867.124 391.512 867.25 391.5 867.364 391.452C867.478 391.405 867.576 391.325 867.645 391.222C867.713 391.119 867.75 390.999 867.75 390.875C867.75 390.709 867.684 390.55 867.567 390.433C867.45 390.316 867.291 390.25 867.125 390.25Z" fill="black"/>
<path d="M869.625 380.875C869.254 380.875 868.892 380.765 868.583 380.559C868.275 380.353 868.035 380.06 867.893 379.718C867.751 379.375 867.714 378.998 867.786 378.634C867.858 378.27 868.037 377.936 868.299 377.674C868.561 377.412 868.895 377.233 869.259 377.161C869.623 377.089 870 377.126 870.343 377.268C870.685 377.41 870.978 377.65 871.184 377.958C871.39 378.267 871.5 378.629 871.5 379C871.499 379.497 871.302 379.974 870.95 380.325C870.599 380.677 870.122 380.874 869.625 380.875ZM869.625 378.375C869.501 378.375 869.381 378.412 869.278 378.48C869.175 378.549 869.095 378.647 869.048 378.761C869 378.875 868.988 379.001 869.012 379.122C869.036 379.243 869.096 379.355 869.183 379.442C869.27 379.529 869.382 379.589 869.503 379.613C869.624 379.637 869.75 379.625 869.864 379.577C869.978 379.53 870.076 379.45 870.145 379.347C870.213 379.244 870.25 379.124 870.25 379C870.25 378.834 870.184 378.675 870.067 378.558C869.95 378.441 869.791 378.375 869.625 378.375Z" fill="black"/>
<path d="M856.5 387.125C856.129 387.125 855.767 387.015 855.458 386.809C855.15 386.603 854.91 386.31 854.768 385.968C854.626 385.625 854.589 385.248 854.661 384.884C854.733 384.52 854.912 384.186 855.174 383.924C855.436 383.662 855.77 383.483 856.134 383.411C856.498 383.339 856.875 383.376 857.218 383.518C857.56 383.66 857.853 383.9 858.059 384.208C858.265 384.517 858.375 384.879 858.375 385.25C858.374 385.747 858.177 386.224 857.825 386.575C857.474 386.927 856.997 387.124 856.5 387.125ZM856.5 384.625C856.376 384.625 856.256 384.662 856.153 384.73C856.05 384.799 855.97 384.897 855.923 385.011C855.875 385.125 855.863 385.251 855.887 385.372C855.911 385.493 855.971 385.605 856.058 385.692C856.145 385.779 856.257 385.839 856.378 385.863C856.499 385.887 856.625 385.875 856.739 385.827C856.853 385.78 856.951 385.7 857.02 385.597C857.088 385.494 857.125 385.374 857.125 385.25C857.125 385.084 857.059 384.925 856.942 384.808C856.825 384.691 856.666 384.625 856.5 384.625Z" fill="black"/>
<path d="M871.5 387.125C871.129 387.125 870.767 387.015 870.458 386.809C870.15 386.603 869.91 386.31 869.768 385.968C869.626 385.625 869.589 385.248 869.661 384.884C869.733 384.52 869.912 384.186 870.174 383.924C870.436 383.662 870.77 383.483 871.134 383.411C871.498 383.339 871.875 383.376 872.218 383.518C872.56 383.66 872.853 383.9 873.059 384.208C873.265 384.517 873.375 384.879 873.375 385.25C873.374 385.747 873.177 386.224 872.825 386.575C872.474 386.927 871.997 387.124 871.5 387.125ZM871.5 384.625C871.376 384.625 871.256 384.662 871.153 384.73C871.05 384.799 870.97 384.897 870.923 385.011C870.875 385.125 870.863 385.251 870.887 385.372C870.911 385.493 870.971 385.605 871.058 385.692C871.145 385.779 871.257 385.839 871.378 385.863C871.499 385.887 871.625 385.875 871.739 385.827C871.853 385.78 871.951 385.7 872.02 385.597C872.088 385.494 872.125 385.374 872.125 385.25C872.125 385.084 872.059 384.925 871.942 384.808C871.825 384.691 871.666 384.625 871.5 384.625Z" fill="black"/>
<path d="M864 387.75C863.258 387.75 862.533 387.53 861.917 387.118C861.3 386.706 860.819 386.12 860.535 385.435C860.252 384.75 860.177 383.996 860.322 383.268C860.467 382.541 860.824 381.873 861.348 381.348C861.873 380.824 862.541 380.467 863.268 380.322C863.996 380.177 864.75 380.252 865.435 380.535C866.12 380.819 866.706 381.3 867.118 381.917C867.53 382.533 867.75 383.258 867.75 384C867.749 384.994 867.353 385.947 866.65 386.65C865.947 387.353 864.994 387.749 864 387.75ZM864 381.5C863.506 381.5 863.022 381.647 862.611 381.921C862.2 382.196 861.88 382.586 861.69 383.043C861.501 383.5 861.452 384.003 861.548 384.488C861.645 384.973 861.883 385.418 862.232 385.768C862.582 386.117 863.027 386.356 863.512 386.452C863.997 386.548 864.5 386.499 864.957 386.31C865.414 386.12 865.804 385.8 866.079 385.389C866.353 384.978 866.5 384.494 866.5 384C866.499 383.337 866.236 382.702 865.767 382.233C865.298 381.764 864.663 381.501 864 381.5Z" fill="black"/>
<rect x="840.5" y="360.5" width="47" height="47" stroke="#6F6F6F" stroke-dasharray="4 4"/>
<text fill="#8D8D8D" xml:space="preserve" style="white-space: pre" font-family="IBM Plex Sans" font-size="14" font-weight="600" letter-spacing="0.16px"><tspan x="896" y="388.25">Cluster n</tspan></text>
<rect x="304.5" y="176.5" width="47" height="47" rx="7.5" fill="#EDF5FF"/>
<rect width="20" height="20" transform="translate(318 190)" fill="white" style="mix-blend-mode:multiply"/>
<path d="M335.5 198.754H334.875V191.254H333.625V198.754H333C332.669 198.754 332.351 198.886 332.116 199.12C331.882 199.355 331.75 199.672 331.75 200.004V201.254C331.75 201.585 331.882 201.903 332.117 202.137C332.351 202.372 332.669 202.504 333 202.504H333.625V208.754H334.875V202.504H335.5C335.831 202.503 336.149 202.372 336.383 202.137C336.618 201.903 336.75 201.585 336.75 201.254V200.004C336.75 199.673 336.618 199.355 336.383 199.12C336.149 198.886 335.831 198.754 335.5 198.754ZM335.5 201.254H333V200.004H335.5V201.254Z" fill="black"/>
<path d="M329.25 193.754H328.625V191.254H327.375V193.754H326.75C326.419 193.754 326.101 193.886 325.866 194.12C325.632 194.355 325.5 194.672 325.5 195.004V196.254C325.5 196.585 325.632 196.903 325.866 197.137C326.101 197.372 326.419 197.504 326.75 197.504H327.375V208.754H328.625V197.504H329.25C329.581 197.504 329.899 197.372 330.134 197.137C330.368 196.903 330.5 196.585 330.5 196.254V195.004C330.5 194.672 330.368 194.355 330.134 194.12C329.899 193.886 329.581 193.754 329.25 193.754ZM329.25 196.254H326.75V195.004H329.25V196.254Z" fill="black"/>
<path d="M323 202.504H322.375V191.254H321.125V202.504H320.5C320.169 202.504 319.851 202.636 319.617 202.87C319.382 203.105 319.25 203.423 319.25 203.754V205.004C319.25 205.335 319.382 205.653 319.617 205.887C319.851 206.122 320.169 206.254 320.5 206.254H321.125V208.754H322.375V206.254H323C323.331 206.254 323.649 206.122 323.883 205.887C324.118 205.653 324.25 205.335 324.25 205.004V203.754C324.25 203.423 324.118 203.105 323.883 202.87C323.649 202.636 323.331 202.504 323 202.504ZM323 205.004H320.5V203.754H323V205.004Z" fill="black"/>
<rect x="304.5" y="176.5" width="47" height="47" rx="7.5" stroke="#0F62FE"/>
<text fill="black" xml:space="preserve" style="white-space: pre" font-family="IBM Plex Sans" font-size="14" font-weight="600" letter-spacing="0.16px"><tspan x="360" y="196.25">Control &#10;</tspan><tspan x="360" y="214.25">plane</tspan></text>
<path fill-rule="evenodd" clip-rule="evenodd" d="M784 114L784 112L785 112L785 114L784 114ZM784 122L784 118L785 118L785 122L784 122ZM784 130L784 126L785 126L785 130L784 130ZM784 138L784 134L785 134L785 138L784 138ZM784 146L784 142L785 142L785 146L784 146ZM784 154L784 150L785 150L785 154L784 154ZM784 162L784 158L785 158L785 162L784 162ZM784 170L784 166L785 166L785 170L784 170ZM784 178L784 174L785 174L785 178L784 178ZM784 186L784 182L785 182L785 186L784 186ZM784 194L784 190L785 190L785 194L784 194ZM784 202L784 198L785 198L785 202L784 202ZM784 210L784 206L785 206L785 210L784 210ZM784 218L784 214L785 214L785 218L784 218ZM784 226L784 222L785 222L785 226L784 226ZM784 234L784 230L785 230L785 234L784 234ZM784 242L784 238L785 238L785 242L784 242ZM784 250L784 246L785 246L785 250L784 250ZM784 258L784 254L785 254L785 258L784 258ZM784 266L784 262L785 262L785 266L784 266ZM784 274L784 270L785 270L785 274L784 274ZM784 282L784 278L785 278L785 282L784 282ZM784 290L784 286L785 286L785 290L784 290ZM784 298L784 294L785 294L785 298L784 298ZM784 306L784 302L785 302L785 306L784 306ZM784 314L784 310L785 310L785 314L784 314ZM784 322L784 318L785 318L785 322L784 322ZM784 330L784 326L785 326L785 330L784 330ZM784 338L784 334L785 334L785 338L784 338ZM784 346L784 342L785 342L785 346L784 346ZM784 354L784 350L785 350L785 354L784 354ZM784 362L784 358L785 358L785 362L784 362ZM784 370L784 366L785 366L785 370L784 370ZM784 378L784 374L785 374L785 378L784 378ZM784 386L784 382L785 382L785 386L784 386ZM784 394L784 390L785 390L785 394L784 394ZM784 402L784 398L785 398L785 402L784 402ZM784 410L784 406L785 406L785 410L784 410ZM784 418L784 414L785 414L785 418L784 418ZM784 424L784 422L785 422L785 424L784 424Z" fill="#8D8D8D"/>
<path fill-rule="evenodd" clip-rule="evenodd" d="M735 114L735 112L736 112L736 114L735 114ZM735 122L735 118L736 118L736 122L735 122ZM735 130L735 126L736 126L736 130L735 130ZM735 138L735 134L736 134L736 138L735 138ZM735 146L735 142L736 142L736 146L735 146ZM735 154L735 150L736 150L736 154L735 154ZM735 162L735 158L736 158L736 162L735 162ZM735 170L735 166L736 166L736 170L735 170ZM735 178L735 174L736 174L736 178L735 178ZM735 186L735 182L736 182L736 186L735 186ZM735 194L735 190L736 190L736 194L735 194ZM735 202L735 198L736 198L736 202L735 202ZM735 210L735 206L736 206L736 210L735 210ZM735 218L735 214L736 214L736 218L735 218ZM735 226L735 222L736 222L736 226L735 226ZM735 234L735 230L736 230L736 234L735 234ZM735 242L735 238L736 238L736 242L735 242ZM735 250L735 246L736 246L736 250L735 250ZM735 258L735 254L736 254L736 258L735 258ZM735 266L735 262L736 262L736 266L735 266ZM735 274L735 270L736 270L736 274L735 274ZM735 282L735 278L736 278L736 282L735 282ZM735 290L735 286L736 286L736 290L735 290ZM735 298L735 294L736 294L736 298L735 298ZM735 306L735 302L736 302L736 306L735 306ZM735 314L735 310L736 310L736 314L735 314ZM735 322L735 318L736 318L736 322L735 322ZM735 330L735 326L736 326L736 330L735 330ZM735 338L735 334L736 334L736 338L735 338ZM735 346L735 342L736 342L736 346L735 346ZM735 354L735 350L736 350L736 354L735 354ZM735 362L735 358L736 358L736 362L735 362ZM735 370L735 366L736 366L736 370L735 370ZM735 378L735 374L736 374L736 378L735 378ZM735 386L735 382L736 382L736 386L735 386ZM735 394L735 390L736 390L736 394L735 394ZM735 402L735 398L736 398L736 402L735 402ZM735 410L735 406L736 406L736 410L735 410ZM735 418L735 414L736 414L736 418L735 418ZM735 424L735 422L736 422L736 424L735 424Z" fill="#8D8D8D"/>
<path fill-rule="evenodd" clip-rule="evenodd" d="M512 114L512 112L513 112L513 114L512 114ZM512 122L512 118L513 118L513 122L512 122ZM512 130L512 126L513 126L513 130L512 130ZM512 138L512 134L513 134L513 138L512 138ZM512 146L512 142L513 142L513 146L512 146ZM512 154L512 150L513 150L513 154L512 154ZM512 162L512 158L513 158L513 162L512 162ZM512 170L512 166L513 166L513 170L512 170ZM512 178L512 174L513 174L513 178L512 178ZM512 186L512 182L513 182L513 186L512 186ZM512 194L512 190L513 190L513 194L512 194ZM512 202L512 198L513 198L513 202L512 202ZM512 210L512 206L513 206L513 210L512 210ZM512 218L512 214L513 214L513 218L512 218ZM512 226L512 222L513 222L513 226L512 226ZM512 234L512 230L513 230L513 234L512 234ZM512 242L512 238L513 238L513 242L512 242ZM512 250L512 246L513 246L513 250L512 250ZM512 258L512 254L513 254L513 258L512 258ZM512 266L512 262L513 262L513 266L512 266ZM512 274L512 270L513 270L513 274L512 274ZM512 282L512 278L513 278L513 282L512 282ZM512 290L512 286L513 286L513 290L512 290ZM512 298L512 294L513 294L513 298L512 298ZM512 306L512 302L513 302L513 306L512 306ZM512 314L512 310L513 310L513 314L512 314ZM512 322L512 318L513 318L513 322L512 322ZM512 330L512 326L513 326L513 330L512 330ZM512 338L512 334L513 334L513 338L512 338ZM512 346L512 342L513 342L513 346L512 346ZM512 354L512 350L513 350L513 354L512 354ZM512 362L512 358L513 358L513 362L512 362ZM512 370L512 366L513 366L513 370L512 370ZM512 378L512 374L513 374L513 378L512 378ZM512 386L512 382L513 382L513 386L512 386ZM512 394L512 390L513 390L513 394L512 394ZM512 402L512 398L513 398L513 402L512 402ZM512 410L512 406L513 406L513 410L512 410ZM512 418L512 414L513 414L513 418L512 418ZM512 424L512 422L513 422L513 424L512 424Z" fill="#8D8D8D"/>
<path fill-rule="evenodd" clip-rule="evenodd" d="M463 114L463 112L464 112L464 114L463 114ZM463 122L463 118L464 118L464 122L463 122ZM463 130L463 126L464 126L464 130L463 130ZM463 138L463 134L464 134L464 138L463 138ZM463 146L463 142L464 142L464 146L463 146ZM463 154L463 150L464 150L464 154L463 154ZM463 162L463 158L464 158L464 162L463 162ZM463 170L463 166L464 166L464 170L463 170ZM463 178L463 174L464 174L464 178L463 178ZM463 186L463 182L464 182L464 186L463 186ZM463 194L463 190L464 190L464 194L463 194ZM463 202L463 198L464 198L464 202L463 202ZM463 210L463 206L464 206L464 210L463 210ZM463 218L463 214L464 214L464 218L463 218ZM463 226L463 222L464 222L464 226L463 226ZM463 234L463 230L464 230L464 234L463 234ZM463 242L463 238L464 238L464 242L463 242ZM463 250L463 246L464 246L464 250L463 250ZM463 258L463 254L464 254L464 258L463 258ZM463 266L463 262L464 262L464 266L463 266ZM463 274L463 270L464 270L464 274L463 274ZM463 282L463 278L464 278L464 282L463 282ZM463 290L463 286L464 286L464 290L463 290ZM463 298L463 294L464 294L464 298L463 298ZM463 306L463 302L464 302L464 306L463 306ZM463 314L463 310L464 310L464 314L463 314ZM463 322L463 318L464 318L464 322L463 322ZM463 330L463 326L464 326L464 330L463 330ZM463 338L463 334L464 334L464 338L463 338ZM463 346L463 342L464 342L464 346L463 346ZM463 354L463 350L464 350L464 354L463 354ZM463 362L463 358L464 358L464 362L463 362ZM463 370L463 366L464 366L464 370L463 370ZM463 378L463 374L464 374L464 378L463 378ZM463 386L463 382L464 382L464 386L463 386ZM463 394L463 390L464 390L464 394L463 394ZM463 402L463 398L464 398L464 402L463 402ZM463 410L463 406L464 406L464 410L463 410ZM463 418L463 414L464 414L464 418L463 418ZM463 424L463 422L464 422L464 424L463 424Z" fill="#8D8D8D"/>
<path d="M328 224L325.113 229H327.5V240C327.5 244.694 331.306 248.5 336 248.5H339V248.504L528 248.5C532.142 248.5 535.5 251.858 535.5 256V280H535.504L535.503 287.997C535.503 288.046 535.503 288.094 535.504 288.143L535.501 375.999C535.5 380.694 539.306 384.5 544.001 384.5H563V386.887L568 384L563 381.113V383.5H544.001C539.858 383.5 536.5 380.142 536.501 375.999L536.504 292.006C537.936 294.68 540.757 296.5 544.003 296.5H563V298.887L568 296L563 293.113V295.5H544.003C539.905 295.5 536.575 292.214 536.504 288.134V272H536.5V256C536.5 252.753 534.679 249.931 532.002 248.499L568 248.499V248.504L800 248.5C804.142 248.5 807.5 251.858 807.5 256V280H807.504L807.502 287.998C807.502 288.531 807.551 289.052 807.644 289.557H807.504V293.632H808.504V292.007C809.936 294.681 812.757 296.5 816.002 296.5H835V298.887L840 296L835 293.113V295.5H816.002C811.859 295.5 808.501 292.141 808.502 287.998L808.503 285.483H808.504V264H808.5V261.037H808.504V259H808.5V256C808.5 251.306 804.694 247.5 800 247.5L664 247.504V247.497L336 247.5C331.858 247.5 328.5 244.142 328.5 240V229H330.887L328 224Z" fill="#565151"/>
<path d="M808.643 377.464C808.55 376.991 808.501 376.501 808.501 376L808.501 373.841L807.501 373.841L807.501 375.999C807.501 376.567 807.556 377.121 807.662 377.658L808.643 377.464Z" fill="#565151"/>
<path d="M808.501 369.523L808.501 365.206L807.501 365.206L807.501 369.523L808.501 369.523Z" fill="#565151"/>
<path d="M808.502 360.888L808.502 356.571L807.502 356.571L807.502 360.888L808.502 360.888Z" fill="#565151"/>
<path d="M808.502 352.253L808.502 347.936L807.502 347.936L807.502 352.253L808.502 352.253Z" fill="#565151"/>
<path d="M808.503 343.618L808.503 339.301L807.503 339.3L807.503 343.618L808.503 343.618Z" fill="#565151"/>
<path d="M808.503 334.983L808.503 330.665L807.503 330.665L807.503 334.983L808.503 334.983Z" fill="#565151"/>
<path d="M808.504 326.348L808.504 322.152H807.504L807.504 326.348L808.504 326.348Z" fill="#565151"/>
<path d="M808.504 301.78V297.706L807.504 297.706V301.78H808.504Z" fill="#565151"/>
<path d="M808.504 309.929V305.855L807.504 305.855V309.929H808.504Z" fill="#565151"/>
<path d="M808.504 318.078V314.003L807.504 314.003V318.078L808.504 318.078Z" fill="#565151"/>
<path d="M811.834 382.237C811.016 381.689 810.311 380.985 809.763 380.167L808.932 380.723C809.553 381.65 810.351 382.447 811.277 383.068L811.834 382.237Z" fill="#565151"/>
<path d="M816.001 383.5C815.499 383.5 815.009 383.451 814.536 383.357L814.342 384.338C814.879 384.444 815.433 384.5 816.001 384.5H818V383.5H816.001Z" fill="#565151"/>
<path d="M826 383.5H822V384.5H826V383.5Z" fill="#565151"/>
<path d="M834 383.5H830V384.5H834V383.5Z" fill="#565151"/>
<path d="M835 386.887L840 384L835 381.113V386.887Z" fill="#565151"/>
<path fill-rule="evenodd" clip-rule="evenodd" d="M149 202.887L144 200L149 197.113V199.5H251V197.113L256 200L251 202.887V200.5H149V202.887Z" fill="#0043CE"/>
<rect x="48.5" y="480.5" width="15" height="15" fill="#F4F4F4"/>
<rect x="48.5" y="480.5" width="15" height="15" stroke="#8D8D8D" stroke-dasharray="4 4"/>
<text fill="#6F6F6F" xml:space="preserve" style="white-space: pre" font-family="IBM Plex Sans" font-size="14" letter-spacing="0.16px"><tspan x="72" y="493.25">Clusters 4 to n</tspan></text>
<defs>
<clipPath id="clip0_22_27">
<rect width="137" height="48" fill="white" transform="translate(48 48)"/>
</clipPath>
<clipPath id="clip1_22_27">
<rect width="20" height="20" fill="white" transform="translate(64 62)"/>
</clipPath>
<clipPath id="clip2_22_27">
<rect width="213" height="48" fill="white" transform="translate(512 48)"/>
</clipPath>
<clipPath id="clip3_22_27">
<rect width="213" height="48" fill="white" transform="translate(240 48)"/>
</clipPath>
<clipPath id="clip4_22_27">
<rect width="213" height="48" fill="white" transform="translate(784 48)"/>
</clipPath>
<clipPath id="clip5_22_27">
<rect width="181" height="48" fill="white" transform="translate(256 112)"/>
</clipPath>
<clipPath id="clip6_22_27">
<rect width="20" height="20" fill="white" transform="translate(272 126)"/>
</clipPath>
</defs>
</svg>
