<?xml version="1.0" encoding="utf-8"?>
<!-- Generator: Adobe Illustrator 26.5.0, SVG Export Plug-In . SVG Version: 6.00 Build 0)  -->
<svg version="1.1" id="Layer_1" xmlns="http://www.w3.org/2000/svg" xmlns:xlink="http://www.w3.org/1999/xlink" x="0px" y="0px"
	 viewBox="0 0 1080 540" style="enable-background:new 0 0 1080 540;" xml:space="preserve">
<style type="text/css">
	.st0{fill:#F4F4F4;}
	.st1{fill:#FFFFFF;}
	.st2{fill:#EDF5FF;}
	.st3{clip-path:url(#SVGID_00000058572076097766017930000017777031129455606152_);}
	.st4{fill:none;stroke:#0F62FE;stroke-width:4;}
	.st5{clip-path:url(#SVGID_00000001649027106999086430000010307335018547367339_);}
	.st6{fill:none;stroke:#0F62FE;}
	.st7{fill:#0F62FE;}
	.st8{clip-path:url(#SVGID_00000057106165774809147980000002080404706376087210_);}
	.st9{fill:none;stroke:#8D8D8D;stroke-width:4;}
	.st10{fill:none;stroke:#8D8D8D;}
	.st11{clip-path:url(#SVGID_00000065767915551552143120000003848018443035732909_);}
	.st12{fill:#F7F3F2;}
	.st13{clip-path:url(#SVGID_00000013190431163110650440000011730032138550731155_);}
	.st14{fill:#8D8D8D;}
	.st15{fill:none;stroke:#6F6F6F;stroke-dasharray:4,4;}
	.st16{fill-rule:evenodd;clip-rule:evenodd;fill:#8D8D8D;}
	.st17{fill-rule:evenodd;clip-rule:evenodd;fill:#0F62FE;}
	.st18{fill-rule:evenodd;clip-rule:evenodd;fill:#565151;}
	.st19{fill-rule:evenodd;clip-rule:evenodd;fill:#0043CE;}
	.st20{fill:none;stroke:#8D8D8D;stroke-dasharray:4,4;}
	.st21{fill:#6F6F6F;}
</style>
<rect class="st0" width="1080" height="540"/>
<rect x="48.5" y="48.5" class="st1" width="327" height="391"/>
<rect x="49" y="49" class="st2" width="326" height="390"/>
<g>
	<defs>
		<rect id="SVGID_1_" x="48" y="48" width="137" height="48"/>
	</defs>
	<clipPath id="SVGID_00000008107072154334006170000003797735905067027605_">
		<use xlink:href="#SVGID_1_"  style="overflow:visible;"/>
	</clipPath>
	<g style="clip-path:url(#SVGID_00000008107072154334006170000003797735905067027605_);">
		<line class="st4" x1="50" y1="48" x2="50" y2="96"/>
		<g>
			<defs>
				<rect id="SVGID_00000088123582695642769390000000803865344026232207_" x="64" y="62" width="20" height="20"/>
			</defs>
			<clipPath id="SVGID_00000075860543037135765990000010701651184553248910_">
				<use xlink:href="#SVGID_00000088123582695642769390000000803865344026232207_"  style="overflow:visible;"/>
			</clipPath>
			<g style="clip-path:url(#SVGID_00000075860543037135765990000010701651184553248910_);">
				<path d="M79.4,70.5c-0.6-1.2-1.6-2.1-2.8-2.7c-1.2-0.6-2.5-0.7-3.8-0.4c-1.3,0.3-2.5,1-3.3,2c-0.9,1-1.4,2.2-1.5,3.6
					c-1.1,0.1-2.1,0.6-2.8,1.5c-0.7,0.8-1.1,1.9-1,3c0.1,1.1,0.5,2.1,1.3,2.8c0.8,0.7,1.8,1.2,2.9,1.2h10c1.4,0,2.7-0.5,3.7-1.4
					c1-0.9,1.6-2.2,1.8-3.5c0.1-1.4-0.3-2.7-1.1-3.8C81.9,71.5,80.7,70.8,79.4,70.5z M78.4,80.4h-10c-0.8,0-1.6-0.3-2.2-0.9
					s-1-1.3-1-2.2c-0.1-0.8,0.2-1.6,0.7-2.3c0.5-0.6,1.3-1.1,2.1-1.2c0.1,0.8,0.3,1.6,0.7,2.4c0,0.1,0.1,0.1,0.1,0.1
					c0,0,0.1,0.1,0.2,0.1c0.1,0,0.1,0,0.2,0c0.1,0,0.1,0,0.2-0.1s0.1-0.1,0.1-0.1c0,0,0.1-0.1,0.1-0.2c0-0.1,0-0.1,0-0.2
					c0-0.1,0-0.1-0.1-0.2c-0.6-1.2-0.8-2.5-0.4-3.8c0.3-1.3,1.2-2.4,2.3-3c1.1-0.7,2.5-0.9,3.7-0.7c1.3,0.3,2.4,1,3.2,2.1
					c-0.7,0-1.5,0.2-2.2,0.5c-0.7,0.3-1.3,0.8-1.8,1.3c0,0-0.1,0.1-0.1,0.2c0,0.1,0,0.1,0,0.2c0,0.1,0,0.1,0,0.2
					c0,0.1,0.1,0.1,0.1,0.1c0,0,0.1,0.1,0.2,0.1c0.1,0,0.1,0,0.2,0c0.1,0,0.1,0,0.2,0c0.1,0,0.1-0.1,0.1-0.1c0.5-0.6,1.1-1,1.8-1.3
					c0.7-0.3,1.5-0.3,2.2-0.2c0.7,0.1,1.5,0.4,2.1,0.9c0.6,0.5,1.1,1.1,1.4,1.7c0.3,0.7,0.4,1.4,0.4,2.2c-0.1,0.8-0.3,1.5-0.7,2.1
					c-0.4,0.6-1,1.2-1.6,1.5C79.9,80.2,79.1,80.4,78.4,80.4z"/>
				<path d="M83.9,68.4c0-0.1-0.1-0.1-0.1-0.1c0,0-0.1-0.1-0.2-0.1c-0.1,0-0.1,0-0.2,0c-0.1,0-0.1,0-0.2,0.1l-1.9,1.1
					c-0.1,0-0.1,0.1-0.1,0.1c0,0-0.1,0.1-0.1,0.2c0,0.1,0,0.1,0,0.2c0,0.1,0,0.1,0.1,0.2s0.1,0.1,0.1,0.1s0.1,0.1,0.2,0.1
					c0.1,0,0.1,0,0.2,0s0.1,0,0.2-0.1l1.9-1.1c0.1-0.1,0.2-0.2,0.2-0.3C84,68.6,84,68.5,83.9,68.4z"/>
				<path d="M78.2,66.9c0.1,0,0.1,0.1,0.2,0.1c0.1,0,0.1,0,0.2,0c0.1,0,0.1,0,0.2-0.1c0,0,0.1-0.1,0.1-0.1l1.1-1.9
					c0.1-0.1,0.1-0.2,0-0.4c0-0.1-0.1-0.2-0.2-0.3c-0.1-0.1-0.2-0.1-0.4,0s-0.2,0.1-0.3,0.2L78,66.3c-0.1,0.1-0.1,0.2,0,0.4
					C78,66.8,78.1,66.9,78.2,66.9z"/>
				<path d="M74,65.8c0.1,0,0.2,0,0.3-0.1c0.1-0.1,0.1-0.2,0.1-0.3v-2.2c0-0.1,0-0.1,0-0.2c0-0.1-0.1-0.1-0.1-0.2
					c0,0-0.1-0.1-0.2-0.1c-0.1,0-0.1,0-0.2,0s-0.1,0-0.2,0s-0.1,0.1-0.2,0.1c0,0-0.1,0.1-0.1,0.2c0,0.1,0,0.1,0,0.2v2.2
					c0,0.1,0,0.2,0.1,0.3C73.8,65.8,73.9,65.8,74,65.8z"/>
				<path d="M69.2,66.7c0.1,0.1,0.2,0.2,0.3,0.2s0.2,0,0.4,0c0.1-0.1,0.2-0.2,0.2-0.3c0-0.1,0-0.2,0-0.4l-1.1-1.9
					c0-0.1-0.1-0.1-0.1-0.1c0,0-0.1-0.1-0.2-0.1c-0.1,0-0.1,0-0.2,0c-0.1,0-0.1,0-0.2,0.1c-0.1,0-0.1,0.1-0.1,0.1
					c0,0-0.1,0.1-0.1,0.2c0,0.1,0,0.1,0,0.2c0,0.1,0,0.1,0.1,0.2L69.2,66.7z"/>
				<path d="M66.6,69.3l-1.9-1.1c-0.1,0-0.1-0.1-0.2-0.1c-0.1,0-0.1,0-0.2,0c-0.1,0-0.1,0-0.2,0.1c0,0-0.1,0.1-0.1,0.1
					c0,0.1-0.1,0.1-0.1,0.2c0,0.1,0,0.1,0,0.2c0,0.1,0,0.1,0.1,0.2c0,0,0.1,0.1,0.1,0.1l1.9,1.1c0.1,0,0.1,0.1,0.2,0.1
					c0.1,0,0.1,0,0.2,0s0.1,0,0.2-0.1s0.1-0.1,0.1-0.1c0-0.1,0.1-0.1,0.1-0.2c0-0.1,0-0.1,0-0.2c0-0.1,0-0.1-0.1-0.2
					C66.7,69.4,66.7,69.4,66.6,69.3z"/>
			</g>
		</g>
		<path d="M105.2,77v-1.5h-1.3v-6.8h1.3v-1.5h-4.4v1.5h1.3v6.8h-1.3V77H105.2z M107.2,77h5c1.4,0,2.5-1.2,2.5-2.8
			c0-1.7-1.3-2.3-2.1-2.3v-0.1c0.9-0.1,1.8-0.6,1.8-2.1c0-1.5-1-2.5-2.6-2.5h-4.5V77z M109.1,72.8h2.6c0.7,0,1.1,0.4,1.1,1.1v0.5
			c0,0.7-0.4,1.1-1.1,1.1h-2.6V72.8z M109.1,68.8h2.3c0.7,0,1.1,0.4,1.1,1v0.4c0,0.6-0.4,1-1.1,1h-2.3V68.8z M116.7,77h1.8v-7h0.1
			l0.8,1.6l2,3.7l2-3.7L124,70h0.1v7h1.8v-9.8h-2l-2.5,4.8h-0.1l-2.5-4.8h-2.1V77z M135.5,77.2c1.8,0,2.9-0.9,3.6-2.3l-1.5-0.9
			c-0.3,0.9-1,1.6-2.1,1.6c-1.4,0-2.3-1-2.3-2.6v-1.5c0-1.7,0.9-2.7,2.3-2.7c1.1,0,1.7,0.6,2,1.5l1.6-0.8c-0.7-1.5-1.8-2.3-3.6-2.3
			c-2.6,0-4.2,1.8-4.2,5.1S132.9,77.2,135.5,77.2z M143.5,77v-1.4h-1v-8.9h-1.8v8.6c0,1.1,0.6,1.8,1.8,1.8H143.5z M147.9,77.2
			c2.1,0,3.4-1.5,3.4-3.8c0-2.3-1.3-3.8-3.4-3.8c-2.1,0-3.4,1.5-3.4,3.8C144.5,75.7,145.8,77.2,147.9,77.2z M147.9,75.7
			c-0.9,0-1.5-0.6-1.5-1.7v-1.4c0-1.1,0.6-1.7,1.5-1.7c0.9,0,1.5,0.6,1.5,1.7V74C149.5,75.1,148.9,75.7,147.9,75.7z M157.5,77h1.8
			v-7.3h-1.8v4.8c0,0.8-0.7,1.2-1.4,1.2c-0.9,0-1.2-0.5-1.2-1.6v-4.4H153v4.6c0,1.8,0.8,2.9,2.3,2.9c1.2,0,1.8-0.7,2-1.4h0.1V77z
			 M166,77h1.8V66.6H166v4.3h-0.1c-0.3-0.8-1.1-1.4-2-1.4c-1.8,0-2.9,1.4-2.9,3.8c0,2.4,1,3.8,2.9,3.8c1,0,1.8-0.6,2-1.4h0.1V77z
			 M164.5,75.7c-0.9,0-1.6-0.7-1.6-1.7v-1.3c0-1,0.6-1.7,1.6-1.7c0.9,0,1.5,0.5,1.5,1.2v2.3C166,75.2,165.4,75.7,164.5,75.7z"/>
	</g>
</g>
<rect x="48.5" y="48.5" class="st6" width="327" height="391"/>
<path class="st7" d="M104,175h32c4.4,0,8,3.6,8,8v32c0,4.4-3.6,8-8,8h-32c-4.4,0-8-3.6-8-8v-32C96,178.6,99.6,175,104,175z"/>
<path class="st1" d="M127.5,197.8h-0.6v-7.5h-1.2v7.5H125c-0.3,0-0.6,0.1-0.9,0.4c-0.2,0.2-0.4,0.6-0.4,0.9v1.2
	c0,0.3,0.1,0.6,0.4,0.9c0.2,0.2,0.6,0.4,0.9,0.4h0.6v6.2h1.2v-6.2h0.6c0.3,0,0.6-0.1,0.9-0.4c0.2-0.2,0.4-0.6,0.4-0.9V199
	c0-0.3-0.1-0.6-0.4-0.9C128.1,197.9,127.8,197.8,127.5,197.8z M127.5,200.3H125V199h2.5V200.3z"/>
<path class="st1" d="M121.2,192.8h-0.6v-2.5h-1.2v2.5h-0.6c-0.3,0-0.6,0.1-0.9,0.4c-0.2,0.2-0.4,0.6-0.4,0.9v1.2
	c0,0.3,0.1,0.6,0.4,0.9c0.2,0.2,0.6,0.4,0.9,0.4h0.6v11.2h1.2v-11.2h0.6c0.3,0,0.6-0.1,0.9-0.4c0.2-0.2,0.4-0.6,0.4-0.9V194
	c0-0.3-0.1-0.6-0.4-0.9C121.9,192.9,121.6,192.8,121.2,192.8z M121.2,195.3h-2.5V194h2.5V195.3z"/>
<path class="st1" d="M115,201.5h-0.6v-11.2h-1.2v11.2h-0.6c-0.3,0-0.6,0.1-0.9,0.4c-0.2,0.2-0.4,0.6-0.4,0.9v1.2
	c0,0.3,0.1,0.6,0.4,0.9c0.2,0.2,0.6,0.4,0.9,0.4h0.6v2.5h1.2v-2.5h0.6c0.3,0,0.6-0.1,0.9-0.4c0.2-0.2,0.4-0.6,0.4-0.9v-1.2
	c0-0.3-0.1-0.6-0.4-0.9C115.6,201.6,115.3,201.5,115,201.5z M115,204h-2.5v-1.2h2.5V204z"/>
<path d="M94.7,245.2c2.3,0,3.7-1.3,3.7-3.1c0-1.6-0.9-2.5-2.9-2.8l-0.9-0.2c-0.9-0.2-1.4-0.5-1.4-1.2c0-0.7,0.5-1.1,1.6-1.1
	c1,0,1.7,0.4,2.2,1l1.3-1.2c-0.8-0.9-1.9-1.4-3.3-1.4c-2.2,0-3.5,1.1-3.5,2.9c0,1.6,1,2.5,2.9,2.8l0.9,0.1c1,0.2,1.3,0.6,1.3,1.2
	c0,0.8-0.6,1.4-1.7,1.4c-1,0-1.8-0.4-2.5-1.2l-1.2,1.2C91.8,244.5,93,245.2,94.7,245.2z M102,245.2c1.1,0,1.9-0.5,2.1-1.4h0.1
	c0.1,0.8,0.6,1.3,1.4,1.3h1v-1.4h-0.7v-3.4c0-1.7-1.1-2.6-3-2.6c-1.5,0-2.3,0.6-2.9,1.4l1.1,1c0.3-0.5,0.8-0.9,1.7-0.9
	c1,0,1.4,0.5,1.4,1.3v0.5h-1.2c-2,0-3.1,0.7-3.1,2.2C99.7,244.3,100.6,245.2,102,245.2z M102.6,243.9c-0.7,0-1.1-0.3-1.1-0.9v-0.2
	c0-0.6,0.5-0.9,1.4-0.9h1.1v1C104.1,243.5,103.4,243.9,102.6,243.9z M110.4,245h1.3v-1.4h-1.4v-4.5h1.5v-1.4h-1.5v-2h-1.6v1.2
	c0,0.5-0.2,0.8-0.7,0.8h-0.6v1.4h1.1v4C108.5,244.3,109.2,245,110.4,245z M116.4,245.2c1.4,0,2.4-0.5,3-1.3l-1-1.1
	c-0.4,0.6-1,1-1.9,1c-1.2,0-1.8-0.7-1.8-1.8v-0.2h4.9v-0.6c0-2-1-3.7-3.3-3.7c-2.1,0-3.4,1.5-3.4,3.8
	C113,243.7,114.3,245.2,116.4,245.2z M116.4,238.9c0.9,0,1.4,0.7,1.4,1.7v0.1h-3v-0.1C114.9,239.6,115.5,238.9,116.4,238.9z
	 M124.2,245v-1.4h-1v-8.9h-1.8v8.6c0,1.1,0.6,1.8,1.8,1.8H124.2z M128.4,245v-1.4h-1v-8.9h-1.8v8.6c0,1.1,0.6,1.8,1.8,1.8H128.4z
	 M130.8,236.6c0.7,0,1.1-0.4,1.1-0.9v-0.3c0-0.5-0.3-0.9-1.1-0.9c-0.7,0-1.1,0.4-1.1,0.9v0.3C129.8,236.2,130.1,236.6,130.8,236.6z
	 M129.9,245h1.8v-7.3h-1.8V245z M136.2,245h1.3v-1.4h-1.4v-4.5h1.5v-1.4h-1.5v-2h-1.6v1.2c0,0.5-0.2,0.8-0.7,0.8h-0.6v1.4h1.1v4
	C134.3,244.3,135,245,136.2,245z M142.2,245.2c1.4,0,2.4-0.5,3-1.3l-1-1.1c-0.4,0.6-1,1-1.9,1c-1.2,0-1.8-0.7-1.8-1.8v-0.2h4.9v-0.6
	c0-2-1.1-3.7-3.3-3.7c-2.1,0-3.4,1.5-3.4,3.8C138.8,243.7,140.1,245.2,142.2,245.2z M142.2,238.9c0.9,0,1.4,0.7,1.4,1.7v0.1h-3v-0.1
	C140.7,239.6,141.3,238.9,142.2,238.9z M79.4,263v-4.8c0-0.8,0.7-1.2,1.4-1.2c0.8,0,1.2,0.5,1.2,1.6v4.4h1.8v-4.8
	c0-0.8,0.7-1.2,1.4-1.2c0.8,0,1.2,0.5,1.2,1.6v4.4h1.8v-4.6c0-1.8-0.8-2.9-2.2-2.9c-1.2,0-2,0.7-2.2,1.5h0c-0.4-1-1.1-1.5-2.1-1.5
	c-1.1,0-1.7,0.6-2,1.4h-0.1v-1.2h-1.8v7.3H79.4z M92,263.2c1.1,0,1.9-0.5,2.1-1.4h0.1c0.1,0.8,0.6,1.3,1.4,1.3h1v-1.4h-0.7v-3.4
	c0-1.7-1.1-2.6-3-2.6c-1.5,0-2.3,0.6-2.9,1.4l1.1,1c0.3-0.5,0.8-0.9,1.7-0.9c1,0,1.4,0.5,1.4,1.3v0.5h-1.2c-2,0-3.1,0.7-3.1,2.2
	C89.7,262.3,90.5,263.2,92,263.2z M92.6,261.9c-0.7,0-1.1-0.3-1.1-0.9v-0.2c0-0.6,0.5-0.9,1.4-0.9h1.1v1
	C94.1,261.5,93.4,261.9,92.6,261.9z M100,263v-4.8c0-0.8,0.7-1.2,1.5-1.2c0.9,0,1.2,0.5,1.2,1.6v4.4h1.8v-4.6c0-1.8-0.8-2.9-2.3-2.9
	c-1.1,0-1.8,0.6-2,1.4H100v-1.2h-1.8v7.3H100z M108.4,263.2c1.1,0,1.9-0.5,2.1-1.4h0.1c0.1,0.8,0.6,1.3,1.4,1.3h1v-1.4h-0.7v-3.4
	c0-1.7-1-2.6-3-2.6c-1.5,0-2.3,0.6-2.9,1.4l1.1,1c0.3-0.5,0.8-0.9,1.7-0.9c1,0,1.4,0.5,1.4,1.3v0.5h-1.2c-2,0-3.1,0.7-3.1,2.2
	C106.1,262.3,106.9,263.2,108.4,263.2z M109,261.9c-0.7,0-1.1-0.3-1.1-0.9v-0.2c0-0.6,0.5-0.9,1.4-0.9h1.1v1
	C110.4,261.5,109.8,261.9,109,261.9z M121.2,263.6c0-1.3-0.8-2.1-2.6-2.1h-2c-0.6,0-1-0.2-1-0.5c0-0.3,0.2-0.5,0.5-0.7
	c0.3,0.1,0.7,0.1,1.1,0.1c2,0,3-1,3-2.4c0-0.9-0.4-1.6-1.1-2v-0.2h1.6v-1.4h-1.1c-0.7,0-1,0.3-1,1.1v0.2c-0.4-0.1-0.8-0.2-1.3-0.2
	c-2,0-3,1-3,2.5c0,1,0.4,1.7,1.3,2.1v0.1c-0.7,0.2-1.3,0.5-1.3,1.3c0,0.6,0.3,1.1,0.9,1.2v0.2c-0.8,0.1-1.3,0.6-1.3,1.4
	c0,1.1,0.9,1.7,3.4,1.7C120.1,266,121.2,265.1,121.2,263.6z M119.5,263.8c0,0.6-0.5,0.9-1.7,0.9h-0.9c-1.1,0-1.5-0.3-1.5-0.9
	c0-0.3,0.1-0.6,0.4-0.8h2.5C119.2,263.1,119.5,263.4,119.5,263.8z M117.3,259.2c-0.9,0-1.3-0.4-1.3-1.1v-0.2c0-0.7,0.5-1.1,1.3-1.1
	c0.9,0,1.3,0.4,1.3,1.1v0.2C118.7,258.8,118.2,259.2,117.3,259.2z M125.2,263.2c1.4,0,2.4-0.5,3-1.3l-1-1.1c-0.4,0.6-1,1-1.9,1
	c-1.2,0-1.8-0.7-1.8-1.8v-0.2h4.9v-0.6c0-2-1.1-3.7-3.3-3.7c-2.1,0-3.4,1.5-3.4,3.8C121.8,261.7,123.1,263.2,125.2,263.2z
	 M125.2,256.9c0.9,0,1.4,0.7,1.4,1.7v0.1h-3v-0.1C123.7,257.6,124.3,256.9,125.2,256.9z M132,263v-4.8c0-0.8,0.7-1.2,1.4-1.2
	c0.8,0,1.2,0.5,1.2,1.6v4.4h1.8v-4.8c0-0.8,0.7-1.2,1.4-1.2c0.8,0,1.2,0.5,1.2,1.6v4.4h1.8v-4.6c0-1.8-0.8-2.9-2.2-2.9
	c-1.2,0-2,0.7-2.2,1.5h0c-0.4-1-1.1-1.5-2.1-1.5c-1.1,0-1.7,0.6-2,1.4H132v-1.2h-1.8v7.3H132z M145.8,263.2c1.4,0,2.4-0.5,3-1.3
	l-1-1.1c-0.4,0.6-1,1-1.9,1c-1.2,0-1.8-0.7-1.8-1.8v-0.2h4.9v-0.6c0-2-1.1-3.7-3.3-3.7c-2.1,0-3.4,1.5-3.4,3.8
	C142.3,261.7,143.6,263.2,145.8,263.2z M145.8,256.9c0.9,0,1.4,0.7,1.4,1.7v0.1h-3v-0.1C144.2,257.6,144.8,256.9,145.8,256.9z
	 M152.6,263v-4.8c0-0.8,0.7-1.2,1.5-1.2c0.9,0,1.2,0.5,1.2,1.6v4.4h1.8v-4.6c0-1.8-0.8-2.9-2.3-2.9c-1.1,0-1.8,0.6-2,1.4h-0.1v-1.2
	h-1.8v7.3H152.6z M161.5,263h1.3v-1.4h-1.4v-4.5h1.5v-1.4h-1.5v-2h-1.6v1.2c0,0.5-0.2,0.8-0.7,0.8h-0.6v1.4h1.1v4
	C159.6,262.3,160.2,263,161.5,263z M102.5,283.8h1.8v-4h0.1c0.3,0.8,1.1,1.4,2,1.4c1.8,0,2.9-1.4,2.9-3.8c0-2.4-1-3.8-2.9-3.8
	c-1,0-1.8,0.5-2,1.4h-0.1v-1.2h-1.8V283.8z M105.8,279.7c-0.9,0-1.5-0.4-1.5-1.2v-2.3c0-0.7,0.6-1.2,1.5-1.2c0.9,0,1.6,0.7,1.6,1.7
	v1.3C107.4,279,106.7,279.7,105.8,279.7z M113.8,281v-1.4h-1v-8.9h-1.8v8.6c0,1.1,0.6,1.8,1.8,1.8H113.8z M117.2,281.2
	c1.1,0,1.9-0.5,2.1-1.4h0.1c0.1,0.8,0.6,1.3,1.4,1.3h1v-1.4H121v-3.4c0-1.7-1-2.6-3-2.6c-1.5,0-2.3,0.6-2.9,1.4l1.1,1
	c0.3-0.5,0.8-0.9,1.7-0.9c1,0,1.4,0.5,1.4,1.3v0.5H118c-2,0-3.1,0.7-3.1,2.2C114.8,280.3,115.7,281.2,117.2,281.2z M117.8,279.9
	c-0.7,0-1.1-0.3-1.1-0.9v-0.2c0-0.6,0.5-0.9,1.4-0.9h1.1v1C119.2,279.5,118.6,279.9,117.8,279.9z M125.1,281v-4.8
	c0-0.8,0.7-1.2,1.5-1.2c0.9,0,1.2,0.5,1.2,1.6v4.4h1.8v-4.6c0-1.8-0.8-2.9-2.3-2.9c-1.1,0-1.8,0.6-2,1.4h-0.1v-1.2h-1.8v7.3H125.1z
	 M134.7,281.2c1.4,0,2.4-0.5,3-1.3l-1-1.1c-0.4,0.6-1,1-1.9,1c-1.2,0-1.8-0.7-1.8-1.8v-0.2h4.9v-0.6c0-2-1.1-3.7-3.3-3.7
	c-2.1,0-3.4,1.5-3.4,3.8C131.2,279.7,132.5,281.2,134.7,281.2z M134.7,274.9c0.9,0,1.4,0.7,1.4,1.7v0.1h-3v-0.1
	C133.1,275.6,133.7,274.9,134.7,274.9z"/>
<rect x="424.5" y="48.5" class="st1" width="279" height="391"/>
<rect x="425" y="49" class="st1" width="278" height="390"/>
<g>
	<defs>
		<rect id="SVGID_00000128469816260314687960000008794908352258471863_" x="424" y="48" width="213" height="48"/>
	</defs>
	<clipPath id="SVGID_00000016792385818607337530000003736869379024034478_">
		<use xlink:href="#SVGID_00000128469816260314687960000008794908352258471863_"  style="overflow:visible;"/>
	</clipPath>
	<g style="clip-path:url(#SVGID_00000016792385818607337530000003736869379024034478_);">
		<line class="st9" x1="426" y1="48" x2="426" y2="96"/>
		<path d="M447.6,68v-1.6H443v-2.5h4.1v-1.6H443v-2.4h4.6v-1.6h-6.4V68H447.6z M454,68h1.8V57.6H454v4.3h-0.1
			c-0.3-0.8-1.1-1.4-2-1.4c-1.8,0-2.9,1.4-2.9,3.8c0,2.4,1,3.8,2.9,3.8c1,0,1.8-0.6,2-1.4h0.1V68z M452.5,66.7
			c-0.9,0-1.6-0.7-1.6-1.7v-1.3c0-1,0.6-1.7,1.6-1.7c0.9,0,1.5,0.5,1.5,1.2v2.3C454,66.2,453.3,66.7,452.5,66.7z M464.6,68.6
			c0-1.3-0.8-2.1-2.6-2.1h-2c-0.6,0-1-0.2-1-0.5c0-0.3,0.2-0.5,0.5-0.7c0.3,0.1,0.7,0.1,1.1,0.1c2,0,3-1,3-2.5c0-0.9-0.4-1.6-1.1-2
			v-0.2h1.6v-1.4h-1.1c-0.7,0-1,0.4-1,1.1v0.2c-0.4-0.1-0.8-0.2-1.3-0.2c-2,0-3,1-3,2.5c0,1,0.4,1.7,1.3,2.1v0.1
			c-0.7,0.2-1.3,0.5-1.3,1.3c0,0.6,0.3,1.1,0.9,1.2v0.2c-0.8,0.1-1.3,0.6-1.3,1.4c0,1.1,0.9,1.7,3.4,1.7
			C463.6,71,464.6,70.1,464.6,68.6z M462.9,68.8c0,0.6-0.5,0.9-1.7,0.9h-0.9c-1.1,0-1.5-0.3-1.5-0.9c0-0.3,0.1-0.6,0.4-0.8h2.5
			C462.6,68.1,462.9,68.4,462.9,68.8z M460.8,64.2c-0.9,0-1.3-0.4-1.3-1.1v-0.2c0-0.7,0.5-1.1,1.3-1.1s1.3,0.4,1.3,1.1v0.2
			C462.1,63.8,461.6,64.2,460.8,64.2z M468.7,68.2c1.4,0,2.4-0.5,3-1.3l-1-1.1c-0.4,0.6-1,1-1.9,1c-1.2,0-1.8-0.7-1.8-1.8v-0.2h4.9
			v-0.6c0-2-1.1-3.7-3.3-3.7c-2.1,0-3.4,1.5-3.4,3.8C465.2,66.7,466.5,68.2,468.7,68.2z M468.6,61.9c0.9,0,1.4,0.7,1.4,1.7v0.1h-3
			v-0.1C467.1,62.6,467.7,61.9,468.6,61.9z M480,68.2c2.1,0,3.4-1.5,3.4-3.8c0-2.3-1.3-3.8-3.4-3.8c-2.1,0-3.4,1.5-3.4,3.8
			C476.7,66.7,478,68.2,480,68.2z M480,66.7c-0.9,0-1.5-0.6-1.5-1.7v-1.4c0-1.1,0.6-1.7,1.5-1.7c0.9,0,1.5,0.6,1.5,1.7V65
			C481.6,66.1,481,66.7,480,66.7z M487,68v-4.5c0-0.8,0.6-1.1,1.8-1.1h0.6v-1.7H489c-1.2,0-1.8,0.7-1.9,1.5H487v-1.5h-1.8V68H487z
			 M497.2,68.2c2.1,0,3.4-1.5,3.4-3.8c0-2.3-1.3-3.8-3.4-3.8c-2.1,0-3.4,1.5-3.4,3.8C493.8,66.7,495.1,68.2,497.2,68.2z M497.2,66.7
			c-0.9,0-1.5-0.6-1.5-1.7v-1.4c0-1.1,0.6-1.7,1.5-1.7c0.9,0,1.5,0.6,1.5,1.7V65C498.7,66.1,498.2,66.7,497.2,66.7z M504.6,68h1.3
			v-1.4h-1.4v-4.5h1.5v-1.4h-1.5v-2h-1.6v1.2c0,0.5-0.2,0.8-0.7,0.8h-0.6v1.4h1.1v4C502.7,67.3,503.4,68,504.6,68z M507.7,68h1.8
			v-4.8c0-0.8,0.7-1.2,1.5-1.2c0.9,0,1.2,0.5,1.2,1.6V68h1.8v-4.6c0-1.8-0.8-2.9-2.3-2.9c-1.1,0-1.8,0.6-2,1.4h-0.1v-4.3h-1.8V68z
			 M519.1,68.2c1.4,0,2.4-0.5,3-1.3l-1-1.1c-0.4,0.6-1,1-1.9,1c-1.2,0-1.8-0.7-1.8-1.8v-0.2h4.9v-0.6c0-2-1.1-3.7-3.3-3.7
			c-2.1,0-3.4,1.5-3.4,3.8C515.6,66.7,516.9,68.2,519.1,68.2z M519,61.9c0.9,0,1.4,0.7,1.4,1.7v0.1h-3v-0.1
			C517.5,62.6,518.1,61.9,519,61.9z M525.9,68v-4.5c0-0.8,0.6-1.1,1.8-1.1h0.6v-1.7h-0.4c-1.2,0-1.8,0.7-1.9,1.5h-0.1v-1.5h-1.8V68
			H525.9z M537.7,68h1.8V57.6h-1.8v4.3h-0.1c-0.3-0.8-1-1.4-2-1.4c-1.8,0-2.9,1.4-2.9,3.8c0,2.4,1,3.8,2.9,3.8c1,0,1.8-0.6,2-1.4
			h0.1V68z M536.2,66.7c-0.9,0-1.6-0.7-1.6-1.7v-1.3c0-1,0.6-1.7,1.6-1.7c0.9,0,1.5,0.5,1.5,1.2v2.3
			C537.7,66.2,537.1,66.7,536.2,66.7z M543.6,68.2c1.1,0,1.9-0.5,2.1-1.4h0.1c0.1,0.8,0.6,1.3,1.4,1.3h1v-1.4h-0.7v-3.4
			c0-1.7-1.1-2.6-3-2.6c-1.5,0-2.3,0.6-2.9,1.4l1.1,1c0.4-0.5,0.8-0.9,1.7-0.9c1,0,1.4,0.5,1.4,1.3v0.5h-1.2c-2,0-3.1,0.7-3.1,2.2
			C541.2,67.3,542.1,68.2,543.6,68.2z M544.2,66.9c-0.7,0-1.1-0.3-1.1-0.9v-0.2c0-0.6,0.5-0.9,1.4-0.9h1.1v1
			C545.6,66.5,545,66.9,544.2,66.9z M552,68h1.3v-1.4h-1.4v-4.5h1.5v-1.4h-1.5v-2h-1.6v1.2c0,0.5-0.2,0.8-0.7,0.8H549v1.4h1.1v4
			C550.1,67.3,550.7,68,552,68z M556.9,68.2c1.1,0,1.9-0.5,2.1-1.4h0.1c0.1,0.8,0.6,1.3,1.4,1.3h1v-1.4h-0.7v-3.4c0-1.7-1-2.6-3-2.6
			c-1.5,0-2.3,0.6-2.9,1.4l1.1,1c0.3-0.5,0.8-0.9,1.7-0.9c1,0,1.4,0.5,1.4,1.3v0.5h-1.2c-2,0-3.1,0.7-3.1,2.2
			C554.6,67.3,555.4,68.2,556.9,68.2z M557.5,66.9c-0.7,0-1.1-0.3-1.1-0.9v-0.2c0-0.6,0.5-0.9,1.4-0.9h1.1v1
			C558.9,66.5,558.3,66.9,557.5,66.9z M569.4,68.2c1.4,0,2.4-0.6,2.9-1.9l-1.4-0.7c-0.3,0.7-0.7,1.1-1.5,1.1c-1,0-1.5-0.7-1.5-1.7
			v-1.3c0-1,0.5-1.7,1.5-1.7c0.8,0,1.2,0.4,1.4,1.1l1.5-0.7c-0.4-1.1-1.4-1.8-2.9-1.8c-2.2,0-3.4,1.5-3.4,3.8
			C566,66.7,567.2,68.2,569.4,68.2z M576.7,68.2c1.4,0,2.4-0.5,3-1.3l-1-1.1c-0.4,0.6-1,1-1.9,1c-1.2,0-1.8-0.7-1.8-1.8v-0.2h4.9
			v-0.6c0-2-1-3.7-3.3-3.7c-2.1,0-3.4,1.5-3.4,3.8C573.3,66.7,574.6,68.2,576.7,68.2z M576.7,61.9c0.9,0,1.4,0.7,1.4,1.7v0.1h-3
			v-0.1C575.2,62.6,575.8,61.9,576.7,61.9z M583.5,68v-4.8c0-0.8,0.7-1.2,1.5-1.2c0.9,0,1.2,0.5,1.2,1.6V68h1.8v-4.6
			c0-1.8-0.8-2.9-2.3-2.9c-1.1,0-1.8,0.6-2,1.4h-0.1v-1.2h-1.8V68H583.5z M592.4,68h1.3v-1.4h-1.4v-4.5h1.5v-1.4h-1.5v-2h-1.6v1.2
			c0,0.5-0.2,0.8-0.7,0.8h-0.6v1.4h1.1v4C590.5,67.3,591.2,68,592.4,68z M598.4,68.2c1.4,0,2.4-0.5,3-1.3l-1-1.1c-0.4,0.6-1,1-1.9,1
			c-1.2,0-1.8-0.7-1.8-1.8v-0.2h4.9v-0.6c0-2-1-3.7-3.3-3.7c-2.1,0-3.4,1.5-3.4,3.8C595,66.7,596.3,68.2,598.4,68.2z M598.4,61.9
			c0.9,0,1.4,0.7,1.4,1.7v0.1h-3v-0.1C596.9,62.6,597.5,61.9,598.4,61.9z M605.2,68v-4.5c0-0.8,0.6-1.1,1.8-1.1h0.6v-1.7h-0.4
			c-1.2,0-1.8,0.7-1.9,1.5h-0.1v-1.5h-1.8V68H605.2z M620.7,68l-3.2-9.8h-2.3l-3.3,9.8h1.9l0.8-2.5h3.5l0.8,2.5H620.7z M617.5,63.9
			h-2.6l1.2-4h0.1L617.5,63.9z"/>
		<path d="M441.2,81.6c0,2.7,1.1,5.1,2.5,6.3h1.1c-1.5-1.3-2.5-3.7-2.5-5.7V81c0-2,1-4.3,2.5-5.7h-1.1
			C442.3,76.6,441.2,78.9,441.2,81.6z M449.6,86.2c1.6,0,2.8-0.9,3.4-2.2l-0.9-0.6c-0.4,1.1-1.2,1.8-2.5,1.8c-1.7,0-2.7-1.2-2.7-3.2
			v-1.5c0-2,1-3.3,2.7-3.3c1.2,0,2,0.7,2.4,1.7l1-0.6c-0.6-1.4-1.7-2.1-3.4-2.1c-2.5,0-3.9,1.8-3.9,5.1S447.1,86.2,449.6,86.2z
			 M459.3,86h1.1v-7.2h-1.1v5c0,1-0.9,1.4-1.8,1.4c-1.1,0-1.7-0.7-1.7-1.9v-4.4h-1.1v4.6c0,1.8,1,2.8,2.4,2.8c1.2,0,1.8-0.7,2-1.3
			h0.1V86z M465.2,86.2c1.7,0,2.7-0.9,2.7-2.3c0-1.1-0.6-1.8-2.2-2l-0.6-0.1c-0.9-0.1-1.4-0.4-1.4-1.1c0-0.7,0.5-1.1,1.4-1.1
			s1.5,0.4,1.9,0.9l0.7-0.7c-0.6-0.7-1.4-1.2-2.5-1.2c-1.5,0-2.6,0.7-2.6,2.1c0,1.3,1,1.9,2.3,2.1l0.6,0.1c1,0.1,1.3,0.6,1.3,1.1
			c0,0.7-0.6,1.2-1.5,1.2c-0.9,0-1.6-0.4-2.1-1.1l-0.8,0.6C463,85.6,463.9,86.2,465.2,86.2z M472.9,86v-1h-1.5v-5.3h1.6v-1h-1.6v-2
			h-1v1.3c0,0.5-0.2,0.7-0.6,0.7h-0.7v1h1.2v5.1c0,0.7,0.4,1.2,1.2,1.2H472.9z M477.6,86.2c1.9,0,3.3-1.5,3.3-3.8s-1.3-3.8-3.3-3.8
			s-3.3,1.5-3.3,3.8S475.7,86.2,477.6,86.2z M477.6,85.2c-1.2,0-2.1-0.7-2.1-2.3v-1c0-1.5,0.9-2.3,2.1-2.3s2.1,0.7,2.1,2.3v1
			C479.7,84.4,478.8,85.2,477.6,85.2z M484,86v-5c0-0.9,0.8-1.4,1.7-1.4c1.1,0,1.6,0.7,1.6,1.9V86h1.1v-5c0-0.9,0.8-1.4,1.7-1.4
			c1.1,0,1.6,0.7,1.6,1.9V86h1.1v-4.6c0-1.8-0.9-2.8-2.4-2.8c-1.2,0-1.9,0.7-2.2,1.5h0c-0.4-1-1.3-1.5-2.2-1.5
			c-1.1,0-1.6,0.6-1.9,1.3H484v-1.2h-1.1V86H484z M498,86.2c1.4,0,2.4-0.7,2.9-1.7l-0.8-0.6c-0.4,0.8-1.1,1.2-2,1.2
			c-1.3,0-2.1-0.9-2.1-2.2v-0.3h5.2v-0.5c0-2-1.2-3.5-3.1-3.5c-2,0-3.2,1.5-3.2,3.8S496,86.2,498,86.2z M498,79.5
			c1.1,0,1.9,0.9,1.9,2.1v0.2h-4v-0.1C495.9,80.5,496.8,79.5,498,79.5z M504.3,86v-4.9c0-0.7,0.7-1.2,1.9-1.2h0.7v-1.1h-0.4
			c-1.2,0-1.8,0.6-2.1,1.3h-0.1v-1.3h-1.1V86H504.3z M511.6,82.3v-1.2h-3.7v1.2H511.6z M516.8,86.2c1.9,0,3.3-1.5,3.3-3.8
			s-1.3-3.8-3.3-3.8s-3.3,1.5-3.3,3.8S514.8,86.2,516.8,86.2z M516.8,85.2c-1.2,0-2.1-0.7-2.1-2.3v-1c0-1.5,0.9-2.3,2.1-2.3
			c1.2,0,2.1,0.7,2.1,2.3v1C518.8,84.4,518,85.2,516.8,85.2z M523.1,86h1.4l1-3.5l0.6-2.2h0l0.6,2.2l1,3.5h1.4l1.9-7.2h-1l-0.8,3.1
			l-0.7,3.2h0l-0.9-3.2l-0.9-3.1h-1l-0.9,3.1l-0.9,3.2h0l-0.8-3.2l-0.8-3.1h-1.1L523.1,86z M534,86v-5c0-0.9,0.9-1.4,1.8-1.4
			c1.1,0,1.6,0.7,1.6,1.9V86h1.1v-4.6c0-1.8-0.9-2.8-2.4-2.8c-1.1,0-1.7,0.5-2,1.3H534v-1.2h-1.1V86H534z M543.7,86.2
			c1.4,0,2.4-0.7,2.9-1.7l-0.8-0.6c-0.4,0.8-1.1,1.2-2,1.2c-1.3,0-2.1-0.9-2.1-2.2v-0.3h5.2v-0.5c0-2-1.2-3.5-3.1-3.5
			c-2,0-3.2,1.5-3.2,3.8S541.8,86.2,543.7,86.2z M543.7,79.5c1.1,0,1.9,0.9,1.9,2.1v0.2h-4v-0.1C541.6,80.5,542.5,79.5,543.7,79.5z
			 M553.5,86h1.1V75.6h-1.1V80h-0.1c-0.4-0.9-1.1-1.3-2.1-1.3c-1.8,0-2.9,1.5-2.9,3.8s1.1,3.8,2.9,3.8c1,0,1.7-0.4,2.1-1.3h0.1V86z
			 M551.6,85.2c-1.3,0-2-0.9-2-2.2v-1.2c0-1.3,0.8-2.2,2-2.2c1,0,1.9,0.6,1.9,1.4v2.7C553.5,84.6,552.6,85.2,551.6,85.2z
			 M559.5,81.6c0-2.7-1.1-5.1-2.5-6.3h-1.1c1.6,1.4,2.5,3.7,2.5,5.7v1.2c0,2-1,4.3-2.5,5.7h1.1C558.3,86.7,559.5,84.4,559.5,81.6z"
			/>
	</g>
</g>
<rect x="424.5" y="48.5" class="st10" width="279" height="391"/>
<rect x="752.5" y="48.5" class="st1" width="279" height="391"/>
<rect x="753" y="49" class="st1" width="278" height="390"/>
<g>
	<defs>
		<rect id="SVGID_00000161631216209280883570000013993369503031307946_" x="752" y="48" width="213" height="48"/>
	</defs>
	<clipPath id="SVGID_00000034055824115043799870000011528195113290346923_">
		<use xlink:href="#SVGID_00000161631216209280883570000013993369503031307946_"  style="overflow:visible;"/>
	</clipPath>
	<g style="clip-path:url(#SVGID_00000034055824115043799870000011528195113290346923_);">
		<line class="st9" x1="754" y1="48" x2="754" y2="96"/>
		<path d="M775.6,68v-1.6H771v-2.5h4.1v-1.6H771v-2.4h4.6v-1.6h-6.4V68H775.6z M782,68h1.8V57.6H782v4.3h-0.1c-0.3-0.8-1-1.4-2-1.4
			c-1.8,0-2.9,1.4-2.9,3.8c0,2.4,1,3.8,2.9,3.8c1,0,1.8-0.6,2-1.4h0.1V68z M780.5,66.7c-0.9,0-1.6-0.7-1.6-1.7v-1.3
			c0-1,0.6-1.7,1.6-1.7c0.9,0,1.5,0.5,1.5,1.2v2.3C782,66.2,781.3,66.7,780.5,66.7z M792.6,68.6c0-1.3-0.8-2.1-2.6-2.1h-2
			c-0.6,0-1-0.2-1-0.5c0-0.3,0.2-0.5,0.5-0.7c0.3,0.1,0.7,0.1,1.1,0.1c2,0,3-1,3-2.5c0-0.9-0.4-1.6-1.1-2v-0.2h1.6v-1.4h-1.1
			c-0.7,0-1,0.4-1,1.1v0.2c-0.4-0.1-0.8-0.2-1.3-0.2c-2,0-3,1-3,2.5c0,1,0.4,1.7,1.3,2.1v0.1c-0.7,0.2-1.3,0.5-1.3,1.3
			c0,0.6,0.3,1.1,0.9,1.2v0.2c-0.8,0.1-1.3,0.6-1.3,1.4c0,1.1,0.9,1.7,3.4,1.7C791.6,71,792.6,70.1,792.6,68.6z M790.9,68.8
			c0,0.6-0.5,0.9-1.7,0.9h-0.9c-1.1,0-1.5-0.3-1.5-0.9c0-0.3,0.1-0.6,0.4-0.8h2.5C790.6,68.1,790.9,68.4,790.9,68.8z M788.8,64.2
			c-0.9,0-1.3-0.4-1.3-1.1v-0.2c0-0.7,0.5-1.1,1.3-1.1s1.3,0.4,1.3,1.1v0.2C790.1,63.8,789.6,64.2,788.8,64.2z M796.7,68.2
			c1.4,0,2.4-0.5,3-1.3l-1-1.1c-0.4,0.6-1,1-1.9,1c-1.2,0-1.8-0.7-1.8-1.8v-0.2h4.9v-0.6c0-2-1-3.7-3.3-3.7c-2.1,0-3.4,1.5-3.4,3.8
			C793.2,66.7,794.5,68.2,796.7,68.2z M796.6,61.9c0.9,0,1.4,0.7,1.4,1.7v0.1h-3v-0.1C795.1,62.6,795.7,61.9,796.6,61.9z M808,68.2
			c2.1,0,3.4-1.5,3.4-3.8c0-2.3-1.3-3.8-3.4-3.8c-2.1,0-3.4,1.5-3.4,3.8C804.7,66.7,806,68.2,808,68.2z M808,66.7
			c-0.9,0-1.5-0.6-1.5-1.7v-1.4c0-1.1,0.6-1.7,1.5-1.7c0.9,0,1.5,0.6,1.5,1.7V65C809.6,66.1,809,66.7,808,66.7z M815,68v-4.5
			c0-0.8,0.6-1.1,1.8-1.1h0.6v-1.7H817c-1.2,0-1.8,0.7-1.9,1.5H815v-1.5h-1.8V68H815z M825.2,68.2c2.1,0,3.4-1.5,3.4-3.8
			c0-2.3-1.3-3.8-3.4-3.8c-2.1,0-3.4,1.5-3.4,3.8C821.8,66.7,823.1,68.2,825.2,68.2z M825.2,66.7c-0.9,0-1.5-0.6-1.5-1.7v-1.4
			c0-1.1,0.6-1.7,1.5-1.7c0.9,0,1.5,0.6,1.5,1.7V65C826.7,66.1,826.2,66.7,825.2,66.7z M832.6,68h1.3v-1.4h-1.4v-4.5h1.5v-1.4h-1.5
			v-2h-1.6v1.2c0,0.5-0.2,0.8-0.7,0.8h-0.6v1.4h1.1v4C830.7,67.3,831.4,68,832.6,68z M835.7,68h1.8v-4.8c0-0.8,0.7-1.2,1.5-1.2
			c0.9,0,1.2,0.5,1.2,1.6V68h1.8v-4.6c0-1.8-0.8-2.9-2.3-2.9c-1.1,0-1.8,0.6-2,1.4h-0.1v-4.3h-1.8V68z M847.1,68.2
			c1.4,0,2.4-0.5,3-1.3l-1-1.1c-0.4,0.6-1,1-1.9,1c-1.2,0-1.8-0.7-1.8-1.8v-0.2h4.9v-0.6c0-2-1.1-3.7-3.3-3.7
			c-2.1,0-3.4,1.5-3.4,3.8C843.6,66.7,844.9,68.2,847.1,68.2z M847,61.9c0.9,0,1.4,0.7,1.4,1.7v0.1h-3v-0.1
			C845.5,62.6,846.1,61.9,847,61.9z M853.9,68v-4.5c0-0.8,0.6-1.1,1.8-1.1h0.6v-1.7h-0.4c-1.2,0-1.8,0.7-1.9,1.5h-0.1v-1.5h-1.8V68
			H853.9z M865.7,68h1.8V57.6h-1.8v4.3h-0.1c-0.3-0.8-1-1.4-2-1.4c-1.8,0-2.9,1.4-2.9,3.8c0,2.4,1,3.8,2.9,3.8c1,0,1.8-0.6,2-1.4
			h0.1V68z M864.2,66.7c-0.9,0-1.6-0.7-1.6-1.7v-1.3c0-1,0.6-1.7,1.6-1.7c0.9,0,1.5,0.5,1.5,1.2v2.3
			C865.7,66.2,865.1,66.7,864.2,66.7z M871.6,68.2c1.1,0,1.9-0.5,2.1-1.4h0.1c0.1,0.8,0.6,1.3,1.4,1.3h1v-1.4h-0.7v-3.4
			c0-1.7-1.1-2.6-3-2.6c-1.5,0-2.3,0.6-2.9,1.4l1.1,1c0.4-0.5,0.8-0.9,1.7-0.9c1,0,1.4,0.5,1.4,1.3v0.5h-1.2c-2,0-3.1,0.7-3.1,2.2
			C869.2,67.3,870.1,68.2,871.6,68.2z M872.2,66.9c-0.7,0-1.1-0.3-1.1-0.9v-0.2c0-0.6,0.5-0.9,1.4-0.9h1.1v1
			C873.6,66.5,873,66.9,872.2,66.9z M880,68h1.3v-1.4h-1.4v-4.5h1.5v-1.4h-1.5v-2h-1.6v1.2c0,0.5-0.2,0.8-0.7,0.8H877v1.4h1.1v4
			C878.1,67.3,878.7,68,880,68z M884.9,68.2c1.1,0,1.9-0.5,2.1-1.4h0.1c0.1,0.8,0.6,1.3,1.4,1.3h1v-1.4h-0.7v-3.4c0-1.7-1-2.6-3-2.6
			c-1.5,0-2.3,0.6-2.9,1.4l1.1,1c0.3-0.5,0.8-0.9,1.7-0.9c1,0,1.4,0.5,1.4,1.3v0.5h-1.2c-2,0-3.1,0.7-3.1,2.2
			C882.6,67.3,883.4,68.2,884.9,68.2z M885.5,66.9c-0.7,0-1.1-0.3-1.1-0.9v-0.2c0-0.6,0.5-0.9,1.4-0.9h1.1v1
			C886.9,66.5,886.3,66.9,885.5,66.9z M897.4,68.2c1.4,0,2.4-0.6,2.9-1.9l-1.4-0.7c-0.3,0.7-0.7,1.1-1.5,1.1c-1,0-1.5-0.7-1.5-1.7
			v-1.3c0-1,0.5-1.7,1.5-1.7c0.8,0,1.2,0.4,1.4,1.1l1.5-0.7c-0.4-1.1-1.4-1.8-2.9-1.8c-2.2,0-3.4,1.5-3.4,3.8
			C894,66.7,895.2,68.2,897.4,68.2z M904.7,68.2c1.4,0,2.4-0.5,3-1.3l-1-1.1c-0.4,0.6-1,1-1.9,1c-1.2,0-1.8-0.7-1.8-1.8v-0.2h4.9
			v-0.6c0-2-1-3.7-3.3-3.7c-2.1,0-3.4,1.5-3.4,3.8C901.3,66.7,902.6,68.2,904.7,68.2z M904.7,61.9c0.9,0,1.4,0.7,1.4,1.7v0.1h-3
			v-0.1C903.2,62.6,903.8,61.9,904.7,61.9z M911.5,68v-4.8c0-0.8,0.7-1.2,1.5-1.2c0.9,0,1.2,0.5,1.2,1.6V68h1.8v-4.6
			c0-1.8-0.8-2.9-2.3-2.9c-1.1,0-1.8,0.6-2,1.4h-0.1v-1.2h-1.8V68H911.5z M920.4,68h1.3v-1.4h-1.4v-4.5h1.5v-1.4h-1.5v-2h-1.6v1.2
			c0,0.5-0.2,0.8-0.7,0.8h-0.6v1.4h1.1v4C918.5,67.3,919.2,68,920.4,68z M926.4,68.2c1.4,0,2.4-0.5,3-1.3l-1-1.1c-0.4,0.6-1,1-1.9,1
			c-1.2,0-1.8-0.7-1.8-1.8v-0.2h4.9v-0.6c0-2-1-3.7-3.3-3.7c-2.1,0-3.4,1.5-3.4,3.8C923,66.7,924.3,68.2,926.4,68.2z M926.4,61.9
			c0.9,0,1.4,0.7,1.4,1.7v0.1h-3v-0.1C924.9,62.6,925.5,61.9,926.4,61.9z M933.2,68v-4.5c0-0.8,0.6-1.1,1.8-1.1h0.6v-1.7h-0.4
			c-1.2,0-1.8,0.7-1.9,1.5h-0.1v-1.5h-1.8V68H933.2z M940.7,68h5c1.4,0,2.5-1.2,2.5-2.8c0-1.7-1.3-2.3-2.1-2.3v-0.1
			c0.9-0.1,1.8-0.6,1.8-2.1c0-1.5-1-2.5-2.6-2.5h-4.5V68z M942.5,63.8h2.6c0.7,0,1.1,0.4,1.1,1.1v0.5c0,0.7-0.4,1.1-1.1,1.1h-2.6
			V63.8z M942.5,59.8h2.3c0.7,0,1.1,0.4,1.1,1v0.4c0,0.6-0.4,1-1.1,1h-2.3V59.8z"/>
		<path d="M769.2,81.6c0,2.7,1.1,5.1,2.5,6.3h1.1c-1.5-1.3-2.5-3.7-2.5-5.7V81c0-2,1-4.3,2.5-5.7h-1.1
			C770.3,76.6,769.2,78.9,769.2,81.6z M777.6,86.2c1.6,0,2.8-0.9,3.4-2.2l-0.9-0.6c-0.4,1.1-1.2,1.8-2.5,1.8c-1.7,0-2.7-1.2-2.7-3.2
			v-1.5c0-2,1-3.3,2.7-3.3c1.2,0,2,0.7,2.4,1.7l1-0.6c-0.6-1.4-1.7-2.1-3.4-2.1c-2.5,0-3.9,1.8-3.9,5.1S775.1,86.2,777.6,86.2z
			 M787.3,86h1.1v-7.2h-1.1v5c0,1-0.9,1.4-1.8,1.4c-1.1,0-1.7-0.7-1.7-1.9v-4.4h-1.1v4.6c0,1.8,1,2.8,2.4,2.8c1.2,0,1.8-0.7,2-1.3
			h0.1V86z M793.2,86.2c1.7,0,2.7-0.9,2.7-2.3c0-1.1-0.6-1.8-2.2-2l-0.6-0.1c-0.9-0.1-1.4-0.4-1.4-1.1c0-0.7,0.5-1.1,1.4-1.1
			s1.5,0.4,1.9,0.9l0.7-0.7c-0.6-0.7-1.4-1.2-2.5-1.2c-1.5,0-2.6,0.7-2.6,2.1c0,1.3,1,1.9,2.3,2.1l0.6,0.1c1,0.1,1.3,0.6,1.3,1.1
			c0,0.7-0.6,1.2-1.5,1.2c-0.9,0-1.6-0.4-2.1-1.1l-0.8,0.6C791,85.6,791.9,86.2,793.2,86.2z M800.9,86v-1h-1.5v-5.3h1.6v-1h-1.6v-2
			h-1v1.3c0,0.5-0.2,0.7-0.6,0.7h-0.7v1h1.2v5.1c0,0.7,0.4,1.2,1.2,1.2H800.9z M805.6,86.2c1.9,0,3.3-1.5,3.3-3.8s-1.3-3.8-3.3-3.8
			c-1.9,0-3.3,1.5-3.3,3.8S803.7,86.2,805.6,86.2z M805.6,85.2c-1.2,0-2.1-0.7-2.1-2.3v-1c0-1.5,0.9-2.3,2.1-2.3
			c1.2,0,2.1,0.7,2.1,2.3v1C807.7,84.4,806.8,85.2,805.6,85.2z M812,86v-5c0-0.9,0.8-1.4,1.7-1.4c1.1,0,1.6,0.7,1.6,1.9V86h1.1v-5
			c0-0.9,0.8-1.4,1.7-1.4c1.1,0,1.6,0.7,1.6,1.9V86h1.1v-4.6c0-1.8-0.9-2.8-2.4-2.8c-1.2,0-1.9,0.7-2.2,1.5h0
			c-0.4-1-1.3-1.5-2.2-1.5c-1.1,0-1.6,0.6-1.9,1.3H812v-1.2h-1.1V86H812z M826,86.2c1.4,0,2.4-0.7,2.9-1.7l-0.8-0.6
			c-0.4,0.8-1.1,1.2-2,1.2c-1.3,0-2.1-0.9-2.1-2.2v-0.3h5.2v-0.5c0-2-1.2-3.5-3.1-3.5c-2,0-3.2,1.5-3.2,3.8S824,86.2,826,86.2z
			 M826,79.5c1.1,0,1.9,0.9,1.9,2.1v0.2h-4v-0.1C823.9,80.5,824.8,79.5,826,79.5z M832.3,86v-4.9c0-0.7,0.7-1.2,1.9-1.2h0.7v-1.1
			h-0.4c-1.2,0-1.8,0.6-2.1,1.3h-0.1v-1.3h-1.1V86H832.3z M839.6,82.3v-1.2h-3.7v1.2H839.6z M844.8,86.2c1.9,0,3.3-1.5,3.3-3.8
			s-1.3-3.8-3.3-3.8s-3.3,1.5-3.3,3.8S842.8,86.2,844.8,86.2z M844.8,85.2c-1.2,0-2.1-0.7-2.1-2.3v-1c0-1.5,0.9-2.3,2.1-2.3
			c1.2,0,2.1,0.7,2.1,2.3v1C846.8,84.4,846,85.2,844.8,85.2z M851.1,86h1.4l1-3.5l0.6-2.2h0l0.6,2.2l1,3.5h1.4l1.9-7.2h-1l-0.8,3.1
			l-0.7,3.2h0l-0.9-3.2l-0.9-3.1h-1l-0.9,3.1l-0.9,3.2h0l-0.8-3.2l-0.8-3.1h-1.1L851.1,86z M862,86v-5c0-0.9,0.9-1.4,1.8-1.4
			c1.1,0,1.6,0.7,1.6,1.9V86h1.1v-4.6c0-1.8-0.9-2.8-2.4-2.8c-1.1,0-1.7,0.5-2,1.3H862v-1.2h-1.1V86H862z M871.7,86.2
			c1.4,0,2.4-0.7,2.9-1.7l-0.8-0.6c-0.4,0.8-1.1,1.2-2,1.2c-1.3,0-2.1-0.9-2.1-2.2v-0.3h5.2v-0.5c0-2-1.2-3.5-3.1-3.5
			c-2,0-3.2,1.5-3.2,3.8S869.8,86.2,871.7,86.2z M871.7,79.5c1.1,0,1.9,0.9,1.9,2.1v0.2h-4v-0.1C869.6,80.5,870.5,79.5,871.7,79.5z
			 M881.5,86h1.1V75.6h-1.1V80h-0.1c-0.4-0.9-1.1-1.3-2.1-1.3c-1.8,0-2.9,1.5-2.9,3.8s1.1,3.8,2.9,3.8c1,0,1.7-0.4,2.1-1.3h0.1V86z
			 M879.6,85.2c-1.3,0-2-0.9-2-2.2v-1.2c0-1.3,0.8-2.2,2-2.2c1,0,1.9,0.6,1.9,1.4v2.7C881.5,84.6,880.6,85.2,879.6,85.2z
			 M887.5,81.6c0-2.7-1.1-5.1-2.5-6.3h-1.1c1.6,1.4,2.5,3.7,2.5,5.7v1.2c0,2-1,4.3-2.5,5.7h1.1C886.3,86.7,887.5,84.4,887.5,81.6z"
			/>
	</g>
</g>
<rect x="752.5" y="48.5" class="st10" width="279" height="391"/>
<path class="st12" d="M192.5,112.5H1008c4.1,0,7.5,3.4,7.5,7.5v296c0,4.1-3.4,7.5-7.5,7.5H200c-4.1,0-7.5-3.4-7.5-7.5V112.5z"/>
<g>
	<defs>
		<rect id="SVGID_00000045597371175530076120000000296526431151309701_" x="192" y="112" width="181" height="48"/>
	</defs>
	<clipPath id="SVGID_00000171702867151418268870000011463532099039928982_">
		<use xlink:href="#SVGID_00000045597371175530076120000000296526431151309701_"  style="overflow:visible;"/>
	</clipPath>
	<g style="clip-path:url(#SVGID_00000171702867151418268870000011463532099039928982_);">
		<line class="st9" x1="194" y1="112" x2="194" y2="160"/>
		<path d="M213.6,139.8c0.7,0,1.2-0.6,1.2-1.2s-0.6-1.2-1.2-1.2s-1.2,0.6-1.2,1.2S212.9,139.8,213.6,139.8z"/>
		<path d="M218,138.5c-1.4,0-2.5-1.1-2.5-2.5s1.1-2.5,2.5-2.5s2.5,1.1,2.5,2.5S219.4,138.5,218,138.5z M218,134.8
			c-0.7,0-1.2,0.6-1.2,1.2s0.6,1.2,1.2,1.2s1.2-0.6,1.2-1.2S218.7,134.8,218,134.8z"/>
		<path d="M222.4,134.8c0.7,0,1.2-0.6,1.2-1.2s-0.6-1.2-1.2-1.2s-1.2,0.6-1.2,1.2S221.7,134.8,222.4,134.8z"/>
		<path d="M218,145.4c-0.1,0-0.2,0-0.3-0.1l-7.5-4.4c-0.2-0.1-0.3-0.3-0.3-0.5v-8.8c0-0.2,0.1-0.4,0.3-0.5l7.5-4.4
			c0.2-0.1,0.4-0.1,0.6,0l7.5,4.4l-0.6,1.1L218,128l-6.9,4v8l6.9,4l6.9-4v-4.6h1.2v5c0,0.2-0.1,0.4-0.3,0.5l-7.5,4.4
			C218.2,145.3,218.1,145.4,218,145.4L218,145.4z"/>
		<path d="M248.2,141.2c2.3,0,3.7-1.3,3.7-3.1c0-1.6-0.9-2.5-2.9-2.8l-0.9-0.2c-0.9-0.2-1.4-0.5-1.4-1.2c0-0.7,0.5-1.1,1.6-1.1
			c1,0,1.7,0.4,2.2,1l1.3-1.2c-0.8-0.9-1.9-1.4-3.3-1.4c-2.2,0-3.5,1.1-3.5,2.9c0,1.6,1,2.5,2.9,2.8l0.9,0.1c1,0.2,1.3,0.6,1.3,1.2
			c0,0.8-0.6,1.4-1.7,1.4c-1,0-1.8-0.4-2.5-1.2l-1.2,1.2C245.4,140.5,246.5,141.2,248.2,141.2z M255.6,141.2c1.1,0,1.9-0.5,2.1-1.4
			h0.1c0.1,0.8,0.6,1.3,1.4,1.3h1v-1.4h-0.7v-3.4c0-1.7-1.1-2.6-3-2.6c-1.5,0-2.3,0.6-2.9,1.4l1.1,1c0.4-0.5,0.8-0.9,1.7-0.9
			c1,0,1.4,0.5,1.4,1.3v0.5h-1.2c-2,0-3.1,0.7-3.1,2.2C253.2,140.3,254.1,141.2,255.6,141.2z M256.2,139.9c-0.7,0-1.1-0.3-1.1-0.9
			v-0.2c0-0.6,0.5-0.9,1.4-0.9h1.1v1C257.6,139.5,257,139.9,256.2,139.9z M264,141h1.3v-1.4h-1.4v-4.5h1.5v-1.4h-1.5v-2h-1.6v1.2
			c0,0.5-0.2,0.8-0.7,0.8H261v1.4h1.1v4C262.1,140.3,262.7,141,264,141z M270,141.2c1.4,0,2.4-0.5,3-1.3l-1-1.1c-0.4,0.6-1,1-1.9,1
			c-1.2,0-1.8-0.7-1.8-1.8v-0.2h4.9v-0.6c0-2-1.1-3.7-3.3-3.7c-2.1,0-3.4,1.5-3.4,3.8C266.5,139.7,267.8,141.2,270,141.2z
			 M269.9,134.9c0.9,0,1.4,0.7,1.4,1.7v0.1h-3v-0.1C268.4,135.6,269,134.9,269.9,134.9z M277.7,141v-1.4h-1v-8.9H275v8.6
			c0,1.1,0.6,1.8,1.8,1.8H277.7z M281.9,141v-1.4h-1v-8.9h-1.8v8.6c0,1.1,0.6,1.8,1.8,1.8H281.9z M284.3,132.6
			c0.7,0,1.1-0.4,1.1-0.9v-0.3c0-0.5-0.3-0.9-1.1-0.9c-0.7,0-1,0.4-1,0.9v0.3C283.3,132.2,283.6,132.6,284.3,132.6z M283.4,141h1.8
			v-7.3h-1.8V141z M289.8,141h1.3v-1.4h-1.4v-4.5h1.5v-1.4h-1.5v-2H288v1.2c0,0.5-0.2,0.8-0.7,0.8h-0.6v1.4h1.1v4
			C287.9,140.3,288.5,141,289.8,141z M295.8,141.2c1.4,0,2.4-0.5,3-1.3l-1-1.1c-0.4,0.6-1,1-1.9,1c-1.2,0-1.8-0.7-1.8-1.8v-0.2h4.9
			v-0.6c0-2-1.1-3.7-3.3-3.7c-2.1,0-3.4,1.5-3.4,3.8C292.3,139.7,293.6,141.2,295.8,141.2z M295.7,134.9c0.9,0,1.4,0.7,1.4,1.7v0.1
			h-3v-0.1C294.2,135.6,294.8,134.9,295.7,134.9z M307,141v-1.4h-1v-8.9h-1.8v8.6c0,1.1,0.6,1.8,1.8,1.8H307z M311.4,141.2
			c2.1,0,3.4-1.5,3.4-3.8c0-2.3-1.3-3.8-3.4-3.8c-2.1,0-3.4,1.5-3.4,3.8C308,139.7,309.3,141.2,311.4,141.2z M311.4,139.7
			c-0.9,0-1.5-0.6-1.5-1.7v-1.4c0-1.1,0.6-1.7,1.5-1.7c0.9,0,1.5,0.6,1.5,1.7v1.4C312.9,139.1,312.4,139.7,311.4,139.7z
			 M319.5,141.2c1.4,0,2.4-0.6,2.9-1.9l-1.4-0.7c-0.3,0.7-0.7,1.1-1.5,1.1c-1,0-1.5-0.7-1.5-1.7v-1.3c0-1,0.5-1.7,1.5-1.7
			c0.8,0,1.2,0.4,1.4,1.1l1.5-0.7c-0.4-1.1-1.4-1.8-2.9-1.8c-2.2,0-3.4,1.5-3.4,3.8C316.1,139.7,317.3,141.2,319.5,141.2z
			 M325.7,141.2c1.1,0,1.9-0.5,2.1-1.4h0.1c0.1,0.8,0.6,1.3,1.4,1.3h1v-1.4h-0.7v-3.4c0-1.7-1.1-2.6-3-2.6c-1.5,0-2.3,0.6-2.9,1.4
			l1.1,1c0.4-0.5,0.8-0.9,1.7-0.9c1,0,1.4,0.5,1.4,1.3v0.5h-1.2c-2,0-3.1,0.7-3.1,2.2C323.4,140.3,324.2,141.2,325.7,141.2z
			 M326.3,139.9c-0.7,0-1.1-0.3-1.1-0.9v-0.2c0-0.6,0.5-0.9,1.4-0.9h1.1v1C327.8,139.5,327.1,139.9,326.3,139.9z M334.1,141h1.3
			v-1.4H334v-4.5h1.5v-1.4H334v-2h-1.6v1.2c0,0.5-0.2,0.8-0.7,0.8h-0.6v1.4h1.1v4C332.2,140.3,332.9,141,334.1,141z M338.1,132.6
			c0.7,0,1-0.4,1-0.9v-0.3c0-0.5-0.3-0.9-1-0.9c-0.7,0-1,0.4-1,0.9v0.3C337.1,132.2,337.4,132.6,338.1,132.6z M337.2,141h1.8v-7.3
			h-1.8V141z M344.2,141.2c2.1,0,3.4-1.5,3.4-3.8c0-2.3-1.3-3.8-3.4-3.8c-2.1,0-3.4,1.5-3.4,3.8
			C340.8,139.7,342.1,141.2,344.2,141.2z M344.2,139.7c-0.9,0-1.5-0.6-1.5-1.7v-1.4c0-1.1,0.6-1.7,1.5-1.7c0.9,0,1.5,0.6,1.5,1.7
			v1.4C345.7,139.1,345.1,139.7,344.2,139.7z M351.1,141v-4.8c0-0.8,0.7-1.2,1.5-1.2c0.9,0,1.2,0.5,1.2,1.6v4.4h1.8v-4.6
			c0-1.8-0.8-2.9-2.3-2.9c-1.1,0-1.8,0.6-2,1.4h-0.1v-1.2h-1.8v7.3H351.1z"/>
	</g>
</g>
<path class="st10" d="M192.5,112.5H1008c4.1,0,7.5,3.4,7.5,7.5v296c0,4.1-3.4,7.5-7.5,7.5H200c-4.1,0-7.5-3.4-7.5-7.5V112.5z"/>
<rect x="480" y="272" class="st14" width="48" height="48"/>
<path class="st1" d="M504,290.4c-0.4,0-0.7-0.1-1-0.3c-0.3-0.2-0.5-0.5-0.7-0.8c-0.1-0.3-0.2-0.7-0.1-1.1c0.1-0.4,0.3-0.7,0.5-1
	c0.3-0.3,0.6-0.4,1-0.5c0.4-0.1,0.7,0,1.1,0.1c0.3,0.1,0.6,0.4,0.8,0.7c0.2,0.3,0.3,0.7,0.3,1c0,0.5-0.2,1-0.5,1.3
	C505,290.2,504.5,290.4,504,290.4z M504,287.9c-0.1,0-0.2,0-0.3,0.1c-0.1,0.1-0.2,0.2-0.2,0.3c0,0.1-0.1,0.2,0,0.4
	c0,0.1,0.1,0.2,0.2,0.3c0.1,0.1,0.2,0.1,0.3,0.2c0.1,0,0.2,0,0.4,0c0.1,0,0.2-0.1,0.3-0.2c0.1-0.1,0.1-0.2,0.1-0.3
	c0-0.2-0.1-0.3-0.2-0.4C504.3,287.9,504.2,287.9,504,287.9z"/>
<path class="st1" d="M500.9,304.8c-0.4,0-0.7-0.1-1-0.3c-0.3-0.2-0.5-0.5-0.7-0.8c-0.1-0.3-0.2-0.7-0.1-1.1c0.1-0.4,0.3-0.7,0.5-1
	c0.3-0.3,0.6-0.4,1-0.5c0.4-0.1,0.7,0,1.1,0.1c0.3,0.1,0.6,0.4,0.8,0.7c0.2,0.3,0.3,0.7,0.3,1c0,0.5-0.2,1-0.5,1.3
	C501.8,304.6,501.4,304.7,500.9,304.8z M500.9,302.2c-0.1,0-0.2,0-0.3,0.1c-0.1,0.1-0.2,0.2-0.2,0.3c0,0.1-0.1,0.2,0,0.4
	c0,0.1,0.1,0.2,0.2,0.3c0.1,0.1,0.2,0.1,0.3,0.2c0.1,0,0.2,0,0.4,0c0.1,0,0.2-0.1,0.3-0.2c0.1-0.1,0.1-0.2,0.1-0.3
	c0-0.2-0.1-0.3-0.2-0.4C501.2,302.3,501,302.2,500.9,302.2z"/>
<path class="st1" d="M498.4,292.9c-0.4,0-0.7-0.1-1-0.3c-0.3-0.2-0.5-0.5-0.7-0.8c-0.1-0.3-0.2-0.7-0.1-1.1c0.1-0.4,0.3-0.7,0.5-1
	c0.3-0.3,0.6-0.4,1-0.5c0.4-0.1,0.7,0,1.1,0.1c0.3,0.1,0.6,0.4,0.8,0.7c0.2,0.3,0.3,0.7,0.3,1c0,0.5-0.2,1-0.5,1.3
	C499.3,292.7,498.9,292.9,498.4,292.9z M498.4,290.4c-0.1,0-0.2,0-0.3,0.1c-0.1,0.1-0.2,0.2-0.2,0.3c0,0.1-0.1,0.2,0,0.4
	c0,0.1,0.1,0.2,0.2,0.3c0.1,0.1,0.2,0.1,0.3,0.2c0.1,0,0.2,0,0.4,0c0.1,0,0.2-0.1,0.3-0.2c0.1-0.1,0.1-0.2,0.1-0.3
	c0-0.2-0.1-0.3-0.2-0.4C498.7,290.4,498.5,290.4,498.4,290.4z"/>
<path class="st1" d="M507.1,304.8c-0.4,0-0.7-0.1-1-0.3c-0.3-0.2-0.5-0.5-0.7-0.8c-0.1-0.3-0.2-0.7-0.1-1.1c0.1-0.4,0.3-0.7,0.5-1
	c0.3-0.3,0.6-0.4,1-0.5c0.4-0.1,0.7,0,1.1,0.1c0.3,0.1,0.6,0.4,0.8,0.7c0.2,0.3,0.3,0.7,0.3,1c0,0.5-0.2,1-0.5,1.3
	C508.1,304.6,507.6,304.7,507.1,304.8z M507.1,302.2c-0.1,0-0.2,0-0.3,0.1c-0.1,0.1-0.2,0.2-0.2,0.3c0,0.1-0.1,0.2,0,0.4
	c0,0.1,0.1,0.2,0.2,0.3c0.1,0.1,0.2,0.1,0.3,0.2c0.1,0,0.2,0,0.4,0c0.1,0,0.2-0.1,0.3-0.2c0.1-0.1,0.1-0.2,0.1-0.3
	c0-0.2-0.1-0.3-0.2-0.4C507.5,302.3,507.3,302.2,507.1,302.2z"/>
<path class="st1" d="M509.6,292.9c-0.4,0-0.7-0.1-1-0.3c-0.3-0.2-0.5-0.5-0.7-0.8c-0.1-0.3-0.2-0.7-0.1-1.1c0.1-0.4,0.3-0.7,0.5-1
	c0.3-0.3,0.6-0.4,1-0.5c0.4-0.1,0.7,0,1.1,0.1c0.3,0.1,0.6,0.4,0.8,0.7c0.2,0.3,0.3,0.7,0.3,1c0,0.5-0.2,1-0.5,1.3
	C510.6,292.7,510.1,292.9,509.6,292.9z M509.6,290.4c-0.1,0-0.2,0-0.3,0.1c-0.1,0.1-0.2,0.2-0.2,0.3c0,0.1-0.1,0.2,0,0.4
	c0,0.1,0.1,0.2,0.2,0.3c0.1,0.1,0.2,0.1,0.3,0.2c0.1,0,0.2,0,0.4,0c0.1,0,0.2-0.1,0.3-0.2c0.1-0.1,0.1-0.2,0.1-0.3
	c0-0.2-0.1-0.3-0.2-0.4C510,290.4,509.8,290.4,509.6,290.4z"/>
<path class="st1" d="M496.5,299.1c-0.4,0-0.7-0.1-1-0.3c-0.3-0.2-0.5-0.5-0.7-0.8c-0.1-0.3-0.2-0.7-0.1-1.1c0.1-0.4,0.3-0.7,0.5-1
	c0.3-0.3,0.6-0.4,1-0.5c0.4-0.1,0.7,0,1.1,0.1c0.3,0.1,0.6,0.4,0.8,0.7c0.2,0.3,0.3,0.7,0.3,1c0,0.5-0.2,1-0.5,1.3
	C497.5,298.9,497,299.1,496.5,299.1z M496.5,296.6c-0.1,0-0.2,0-0.3,0.1c-0.1,0.1-0.2,0.2-0.2,0.3c0,0.1-0.1,0.2,0,0.4
	c0,0.1,0.1,0.2,0.2,0.3c0.1,0.1,0.2,0.1,0.3,0.2c0.1,0,0.2,0,0.4,0c0.1,0,0.2-0.1,0.3-0.2c0.1-0.1,0.1-0.2,0.1-0.3
	c0-0.2-0.1-0.3-0.2-0.4C496.8,296.7,496.7,296.6,496.5,296.6z"/>
<path class="st1" d="M511.5,299.1c-0.4,0-0.7-0.1-1-0.3c-0.3-0.2-0.5-0.5-0.7-0.8c-0.1-0.3-0.2-0.7-0.1-1.1c0.1-0.4,0.3-0.7,0.5-1
	c0.3-0.3,0.6-0.4,1-0.5c0.4-0.1,0.7,0,1.1,0.1c0.3,0.1,0.6,0.4,0.8,0.7c0.2,0.3,0.3,0.7,0.3,1c0,0.5-0.2,1-0.5,1.3
	C512.5,298.9,512,299.1,511.5,299.1z M511.5,296.6c-0.1,0-0.2,0-0.3,0.1c-0.1,0.1-0.2,0.2-0.2,0.3c0,0.1-0.1,0.2,0,0.4
	c0,0.1,0.1,0.2,0.2,0.3c0.1,0.1,0.2,0.1,0.3,0.2c0.1,0,0.2,0,0.4,0c0.1,0,0.2-0.1,0.3-0.2c0.1-0.1,0.1-0.2,0.1-0.3
	c0-0.2-0.1-0.3-0.2-0.4C511.8,296.7,511.7,296.6,511.5,296.6z"/>
<path class="st1" d="M504,299.8c-0.7,0-1.5-0.2-2.1-0.6c-0.6-0.4-1.1-1-1.4-1.7c-0.3-0.7-0.4-1.4-0.2-2.2c0.1-0.7,0.5-1.4,1-1.9
	c0.5-0.5,1.2-0.9,1.9-1c0.7-0.1,1.5-0.1,2.2,0.2c0.7,0.3,1.3,0.8,1.7,1.4c0.4,0.6,0.6,1.3,0.6,2.1c0,1-0.4,1.9-1.1,2.6
	S505,299.7,504,299.8z M504,293.5c-0.5,0-1,0.1-1.4,0.4c-0.4,0.3-0.7,0.7-0.9,1.1c-0.2,0.5-0.2,1-0.1,1.4c0.1,0.5,0.3,0.9,0.7,1.3
	c0.4,0.3,0.8,0.6,1.3,0.7c0.5,0.1,1,0,1.4-0.1c0.5-0.2,0.8-0.5,1.1-0.9c0.3-0.4,0.4-0.9,0.4-1.4c0-0.7-0.3-1.3-0.7-1.8
	S504.7,293.5,504,293.5z"/>
<path d="M540.9,300.2c1.8,0,2.9-0.9,3.6-2.3l-1.5-0.9c-0.3,0.9-1,1.6-2.1,1.6c-1.4,0-2.3-1-2.3-2.6v-1.5c0-1.7,0.9-2.7,2.3-2.7
	c1.1,0,1.7,0.6,2,1.5l1.6-0.8c-0.7-1.5-1.8-2.3-3.6-2.3c-2.6,0-4.2,1.8-4.2,5.1C536.7,298.5,538.4,300.2,540.9,300.2z M548.9,300
	v-1.4h-1v-8.9h-1.8v8.6c0,1.1,0.6,1.8,1.8,1.8H548.9z M554.8,300h1.8v-7.3h-1.8v4.8c0,0.8-0.7,1.2-1.4,1.2c-0.9,0-1.2-0.5-1.2-1.6
	v-4.4h-1.8v4.6c0,1.8,0.8,2.9,2.3,2.9c1.2,0,1.8-0.7,2-1.4h0.1V300z M561.2,300.2c1.8,0,3-1,3-2.4c0-1.2-0.8-1.9-2.4-2.2l-0.7-0.1
	c-0.7-0.1-1-0.3-1-0.8c0-0.4,0.3-0.8,1.1-0.8c0.7,0,1.3,0.3,1.8,0.8l1-1c-0.7-0.7-1.4-1.1-2.9-1.1c-1.7,0-2.8,0.9-2.8,2.3
	c0,1.3,0.9,2,2.4,2.2l0.7,0.1c0.6,0.1,0.9,0.3,0.9,0.8c0,0.5-0.4,0.8-1.2,0.8c-0.8,0-1.5-0.4-2-1l-1.1,1.1
	C558.9,299.7,559.9,300.2,561.2,300.2z M568.2,300h1.3v-1.4h-1.4v-4.5h1.5v-1.4h-1.5v-2h-1.6v1.2c0,0.5-0.2,0.8-0.7,0.8h-0.6v1.4
	h1.1v4C566.3,299.3,566.9,300,568.2,300z M574.2,300.2c1.4,0,2.4-0.5,3-1.3l-1-1.1c-0.4,0.6-1,1-1.9,1c-1.2,0-1.8-0.7-1.8-1.8v-0.2
	h4.9v-0.6c0-2-1-3.7-3.3-3.7c-2.1,0-3.4,1.5-3.4,3.8C570.7,298.7,572,300.2,574.2,300.2z M574.1,293.9c0.9,0,1.4,0.7,1.4,1.7v0.1h-3
	v-0.1C572.6,294.6,573.2,293.9,574.1,293.9z M581,300v-4.5c0-0.8,0.6-1.1,1.8-1.1h0.6v-1.7H583c-1.2,0-1.8,0.7-1.9,1.5H581v-1.5
	h-1.8v7.3H581z M595.3,300v-1.5H593v-8.3h-2.8l-2.4,2.9l1.1,1l2.1-2.5h0.1v6.9h-2.7v1.5H595.3z"/>
<rect x="480" y="360" class="st14" width="48" height="48"/>
<path class="st1" d="M504,378.4c-0.4,0-0.7-0.1-1-0.3c-0.3-0.2-0.5-0.5-0.7-0.8c-0.1-0.3-0.2-0.7-0.1-1.1c0.1-0.4,0.3-0.7,0.5-1
	c0.3-0.3,0.6-0.4,1-0.5c0.4-0.1,0.7,0,1.1,0.1c0.3,0.1,0.6,0.4,0.8,0.7c0.2,0.3,0.3,0.7,0.3,1c0,0.5-0.2,1-0.5,1.3
	C505,378.2,504.5,378.4,504,378.4z M504,375.9c-0.1,0-0.2,0-0.3,0.1c-0.1,0.1-0.2,0.2-0.2,0.3c0,0.1-0.1,0.2,0,0.4
	c0,0.1,0.1,0.2,0.2,0.3c0.1,0.1,0.2,0.1,0.3,0.2c0.1,0,0.2,0,0.4,0c0.1,0,0.2-0.1,0.3-0.2c0.1-0.1,0.1-0.2,0.1-0.3
	c0-0.2-0.1-0.3-0.2-0.4C504.3,375.9,504.2,375.9,504,375.9z"/>
<path class="st1" d="M500.9,392.8c-0.4,0-0.7-0.1-1-0.3c-0.3-0.2-0.5-0.5-0.7-0.8c-0.1-0.3-0.2-0.7-0.1-1.1c0.1-0.4,0.3-0.7,0.5-1
	c0.3-0.3,0.6-0.4,1-0.5c0.4-0.1,0.7,0,1.1,0.1c0.3,0.1,0.6,0.4,0.8,0.7c0.2,0.3,0.3,0.7,0.3,1c0,0.5-0.2,1-0.5,1.3
	C501.8,392.6,501.4,392.7,500.9,392.8z M500.9,390.2c-0.1,0-0.2,0-0.3,0.1c-0.1,0.1-0.2,0.2-0.2,0.3c0,0.1-0.1,0.2,0,0.4
	c0,0.1,0.1,0.2,0.2,0.3c0.1,0.1,0.2,0.1,0.3,0.2c0.1,0,0.2,0,0.4,0c0.1,0,0.2-0.1,0.3-0.2c0.1-0.1,0.1-0.2,0.1-0.3
	c0-0.2-0.1-0.3-0.2-0.4C501.2,390.3,501,390.2,500.9,390.2z"/>
<path class="st1" d="M498.4,380.9c-0.4,0-0.7-0.1-1-0.3c-0.3-0.2-0.5-0.5-0.7-0.8c-0.1-0.3-0.2-0.7-0.1-1.1c0.1-0.4,0.3-0.7,0.5-1
	c0.3-0.3,0.6-0.4,1-0.5c0.4-0.1,0.7,0,1.1,0.1c0.3,0.1,0.6,0.4,0.8,0.7c0.2,0.3,0.3,0.7,0.3,1c0,0.5-0.2,1-0.5,1.3
	C499.3,380.7,498.9,380.9,498.4,380.9z M498.4,378.4c-0.1,0-0.2,0-0.3,0.1c-0.1,0.1-0.2,0.2-0.2,0.3c0,0.1-0.1,0.2,0,0.4
	c0,0.1,0.1,0.2,0.2,0.3c0.1,0.1,0.2,0.1,0.3,0.2c0.1,0,0.2,0,0.4,0c0.1,0,0.2-0.1,0.3-0.2c0.1-0.1,0.1-0.2,0.1-0.3
	c0-0.2-0.1-0.3-0.2-0.4C498.7,378.4,498.5,378.4,498.4,378.4z"/>
<path class="st1" d="M507.1,392.8c-0.4,0-0.7-0.1-1-0.3c-0.3-0.2-0.5-0.5-0.7-0.8c-0.1-0.3-0.2-0.7-0.1-1.1c0.1-0.4,0.3-0.7,0.5-1
	c0.3-0.3,0.6-0.4,1-0.5c0.4-0.1,0.7,0,1.1,0.1c0.3,0.1,0.6,0.4,0.8,0.7c0.2,0.3,0.3,0.7,0.3,1c0,0.5-0.2,1-0.5,1.3
	C508.1,392.6,507.6,392.7,507.1,392.8z M507.1,390.2c-0.1,0-0.2,0-0.3,0.1c-0.1,0.1-0.2,0.2-0.2,0.3c0,0.1-0.1,0.2,0,0.4
	c0,0.1,0.1,0.2,0.2,0.3c0.1,0.1,0.2,0.1,0.3,0.2c0.1,0,0.2,0,0.4,0c0.1,0,0.2-0.1,0.3-0.2c0.1-0.1,0.1-0.2,0.1-0.3
	c0-0.2-0.1-0.3-0.2-0.4C507.5,390.3,507.3,390.2,507.1,390.2z"/>
<path class="st1" d="M509.6,380.9c-0.4,0-0.7-0.1-1-0.3c-0.3-0.2-0.5-0.5-0.7-0.8c-0.1-0.3-0.2-0.7-0.1-1.1c0.1-0.4,0.3-0.7,0.5-1
	c0.3-0.3,0.6-0.4,1-0.5c0.4-0.1,0.7,0,1.1,0.1c0.3,0.1,0.6,0.4,0.8,0.7c0.2,0.3,0.3,0.7,0.3,1c0,0.5-0.2,1-0.5,1.3
	C510.6,380.7,510.1,380.9,509.6,380.9z M509.6,378.4c-0.1,0-0.2,0-0.3,0.1c-0.1,0.1-0.2,0.2-0.2,0.3c0,0.1-0.1,0.2,0,0.4
	c0,0.1,0.1,0.2,0.2,0.3c0.1,0.1,0.2,0.1,0.3,0.2c0.1,0,0.2,0,0.4,0c0.1,0,0.2-0.1,0.3-0.2c0.1-0.1,0.1-0.2,0.1-0.3
	c0-0.2-0.1-0.3-0.2-0.4C510,378.4,509.8,378.4,509.6,378.4z"/>
<path class="st1" d="M496.5,387.1c-0.4,0-0.7-0.1-1-0.3c-0.3-0.2-0.5-0.5-0.7-0.8c-0.1-0.3-0.2-0.7-0.1-1.1c0.1-0.4,0.3-0.7,0.5-1
	c0.3-0.3,0.6-0.4,1-0.5c0.4-0.1,0.7,0,1.1,0.1c0.3,0.1,0.6,0.4,0.8,0.7c0.2,0.3,0.3,0.7,0.3,1c0,0.5-0.2,1-0.5,1.3
	C497.5,386.9,497,387.1,496.5,387.1z M496.5,384.6c-0.1,0-0.2,0-0.3,0.1c-0.1,0.1-0.2,0.2-0.2,0.3c0,0.1-0.1,0.2,0,0.4
	c0,0.1,0.1,0.2,0.2,0.3c0.1,0.1,0.2,0.1,0.3,0.2c0.1,0,0.2,0,0.4,0c0.1,0,0.2-0.1,0.3-0.2c0.1-0.1,0.1-0.2,0.1-0.3
	c0-0.2-0.1-0.3-0.2-0.4C496.8,384.7,496.7,384.6,496.5,384.6z"/>
<path class="st1" d="M511.5,387.1c-0.4,0-0.7-0.1-1-0.3c-0.3-0.2-0.5-0.5-0.7-0.8c-0.1-0.3-0.2-0.7-0.1-1.1c0.1-0.4,0.3-0.7,0.5-1
	c0.3-0.3,0.6-0.4,1-0.5c0.4-0.1,0.7,0,1.1,0.1c0.3,0.1,0.6,0.4,0.8,0.7c0.2,0.3,0.3,0.7,0.3,1c0,0.5-0.2,1-0.5,1.3
	C512.5,386.9,512,387.1,511.5,387.1z M511.5,384.6c-0.1,0-0.2,0-0.3,0.1c-0.1,0.1-0.2,0.2-0.2,0.3c0,0.1-0.1,0.2,0,0.4
	c0,0.1,0.1,0.2,0.2,0.3c0.1,0.1,0.2,0.1,0.3,0.2c0.1,0,0.2,0,0.4,0c0.1,0,0.2-0.1,0.3-0.2c0.1-0.1,0.1-0.2,0.1-0.3
	c0-0.2-0.1-0.3-0.2-0.4C511.8,384.7,511.7,384.6,511.5,384.6z"/>
<path class="st1" d="M504,387.8c-0.7,0-1.5-0.2-2.1-0.6c-0.6-0.4-1.1-1-1.4-1.7c-0.3-0.7-0.4-1.4-0.2-2.2c0.1-0.7,0.5-1.4,1-1.9
	c0.5-0.5,1.2-0.9,1.9-1c0.7-0.1,1.5-0.1,2.2,0.2c0.7,0.3,1.3,0.8,1.7,1.4c0.4,0.6,0.6,1.3,0.6,2.1c0,1-0.4,1.9-1.1,2.6
	S505,387.7,504,387.8z M504,381.5c-0.5,0-1,0.1-1.4,0.4c-0.4,0.3-0.7,0.7-0.9,1.1c-0.2,0.5-0.2,1-0.1,1.4c0.1,0.5,0.3,0.9,0.7,1.3
	c0.4,0.3,0.8,0.6,1.3,0.7c0.5,0.1,1,0,1.4-0.1c0.5-0.2,0.8-0.5,1.1-0.9c0.3-0.4,0.4-0.9,0.4-1.4c0-0.7-0.3-1.3-0.7-1.8
	S504.7,381.5,504,381.5z"/>
<path d="M540.9,388.2c1.8,0,2.9-0.9,3.6-2.3l-1.5-0.9c-0.3,0.9-1,1.6-2.1,1.6c-1.4,0-2.3-1-2.3-2.6v-1.5c0-1.7,0.9-2.7,2.3-2.7
	c1.1,0,1.7,0.6,2,1.5l1.6-0.8c-0.7-1.5-1.8-2.3-3.6-2.3c-2.6,0-4.2,1.8-4.2,5.1C536.7,386.5,538.4,388.2,540.9,388.2z M548.9,388
	v-1.4h-1v-8.9h-1.8v8.6c0,1.1,0.6,1.8,1.8,1.8H548.9z M554.8,388h1.8v-7.3h-1.8v4.8c0,0.8-0.7,1.2-1.4,1.2c-0.9,0-1.2-0.5-1.2-1.6
	v-4.4h-1.8v4.6c0,1.8,0.8,2.9,2.3,2.9c1.2,0,1.8-0.7,2-1.4h0.1V388z M561.2,388.2c1.8,0,3-1,3-2.4c0-1.2-0.8-1.9-2.4-2.2l-0.7-0.1
	c-0.7-0.1-1-0.3-1-0.8c0-0.4,0.3-0.8,1.1-0.8c0.7,0,1.3,0.3,1.8,0.8l1-1c-0.7-0.7-1.4-1.1-2.9-1.1c-1.7,0-2.8,0.9-2.8,2.3
	c0,1.3,0.9,2,2.4,2.2l0.7,0.1c0.6,0.1,0.9,0.3,0.9,0.8c0,0.5-0.4,0.8-1.2,0.8c-0.8,0-1.5-0.4-2-1l-1.1,1.1
	C558.9,387.7,559.9,388.2,561.2,388.2z M568.2,388h1.3v-1.4h-1.4v-4.5h1.5v-1.4h-1.5v-2h-1.6v1.2c0,0.5-0.2,0.8-0.7,0.8h-0.6v1.4
	h1.1v4C566.3,387.3,566.9,388,568.2,388z M574.2,388.2c1.4,0,2.4-0.5,3-1.3l-1-1.1c-0.4,0.6-1,1-1.9,1c-1.2,0-1.8-0.7-1.8-1.8v-0.2
	h4.9v-0.6c0-2-1-3.7-3.3-3.7c-2.1,0-3.4,1.5-3.4,3.8C570.7,386.7,572,388.2,574.2,388.2z M574.1,381.9c0.9,0,1.4,0.7,1.4,1.7v0.1h-3
	v-0.1C572.6,382.6,573.2,381.9,574.1,381.9z M581,388v-4.5c0-0.8,0.6-1.1,1.8-1.1h0.6v-1.7H583c-1.2,0-1.8,0.7-1.9,1.5H581v-1.5
	h-1.8v7.3H581z M594.9,386.4h-4.8l2.1-1.7c1.4-1.1,2.5-2.2,2.5-3.8c0-1.7-1.2-2.9-3.2-2.9c-2,0-3,1.1-3.5,2.4l1.6,0.6
	c0.2-0.8,0.7-1.5,1.7-1.5c0.8,0,1.4,0.5,1.4,1.3v0.2c0,0.9-0.5,1.5-1.5,2.4l-3.1,2.7v1.7h6.8V386.4z"/>
<rect x="808" y="272" class="st14" width="48" height="48"/>
<path class="st1" d="M832,290.4c-0.4,0-0.7-0.1-1-0.3c-0.3-0.2-0.5-0.5-0.7-0.8c-0.1-0.3-0.2-0.7-0.1-1.1c0.1-0.4,0.3-0.7,0.5-1
	c0.3-0.3,0.6-0.4,1-0.5c0.4-0.1,0.7,0,1.1,0.1c0.3,0.1,0.6,0.4,0.8,0.7c0.2,0.3,0.3,0.7,0.3,1c0,0.5-0.2,1-0.5,1.3
	C833,290.2,832.5,290.4,832,290.4z M832,287.9c-0.1,0-0.2,0-0.3,0.1c-0.1,0.1-0.2,0.2-0.2,0.3c0,0.1-0.1,0.2,0,0.4
	c0,0.1,0.1,0.2,0.2,0.3c0.1,0.1,0.2,0.1,0.3,0.2c0.1,0,0.2,0,0.4,0c0.1,0,0.2-0.1,0.3-0.2c0.1-0.1,0.1-0.2,0.1-0.3
	c0-0.2-0.1-0.3-0.2-0.4C832.3,287.9,832.2,287.9,832,287.9z"/>
<path class="st1" d="M828.9,304.8c-0.4,0-0.7-0.1-1-0.3c-0.3-0.2-0.5-0.5-0.7-0.8c-0.1-0.3-0.2-0.7-0.1-1.1c0.1-0.4,0.3-0.7,0.5-1
	c0.3-0.3,0.6-0.4,1-0.5c0.4-0.1,0.7,0,1.1,0.1c0.3,0.1,0.6,0.4,0.8,0.7c0.2,0.3,0.3,0.7,0.3,1c0,0.5-0.2,1-0.5,1.3
	C829.8,304.6,829.4,304.7,828.9,304.8z M828.9,302.2c-0.1,0-0.2,0-0.3,0.1c-0.1,0.1-0.2,0.2-0.2,0.3c0,0.1-0.1,0.2,0,0.4
	c0,0.1,0.1,0.2,0.2,0.3c0.1,0.1,0.2,0.1,0.3,0.2c0.1,0,0.2,0,0.4,0c0.1,0,0.2-0.1,0.3-0.2c0.1-0.1,0.1-0.2,0.1-0.3
	c0-0.2-0.1-0.3-0.2-0.4C829.2,302.3,829,302.2,828.9,302.2z"/>
<path class="st1" d="M826.4,292.9c-0.4,0-0.7-0.1-1-0.3c-0.3-0.2-0.5-0.5-0.7-0.8c-0.1-0.3-0.2-0.7-0.1-1.1c0.1-0.4,0.3-0.7,0.5-1
	c0.3-0.3,0.6-0.4,1-0.5c0.4-0.1,0.7,0,1.1,0.1c0.3,0.1,0.6,0.4,0.8,0.7c0.2,0.3,0.3,0.7,0.3,1c0,0.5-0.2,1-0.5,1.3
	C827.3,292.7,826.9,292.9,826.4,292.9z M826.4,290.4c-0.1,0-0.2,0-0.3,0.1c-0.1,0.1-0.2,0.2-0.2,0.3c0,0.1-0.1,0.2,0,0.4
	c0,0.1,0.1,0.2,0.2,0.3c0.1,0.1,0.2,0.1,0.3,0.2c0.1,0,0.2,0,0.4,0c0.1,0,0.2-0.1,0.3-0.2c0.1-0.1,0.1-0.2,0.1-0.3
	c0-0.2-0.1-0.3-0.2-0.4C826.7,290.4,826.5,290.4,826.4,290.4z"/>
<path class="st1" d="M835.1,304.8c-0.4,0-0.7-0.1-1-0.3c-0.3-0.2-0.5-0.5-0.7-0.8c-0.1-0.3-0.2-0.7-0.1-1.1c0.1-0.4,0.3-0.7,0.5-1
	c0.3-0.3,0.6-0.4,1-0.5c0.4-0.1,0.7,0,1.1,0.1c0.3,0.1,0.6,0.4,0.8,0.7c0.2,0.3,0.3,0.7,0.3,1c0,0.5-0.2,1-0.5,1.3
	C836.1,304.6,835.6,304.7,835.1,304.8z M835.1,302.2c-0.1,0-0.2,0-0.3,0.1c-0.1,0.1-0.2,0.2-0.2,0.3c0,0.1-0.1,0.2,0,0.4
	c0,0.1,0.1,0.2,0.2,0.3c0.1,0.1,0.2,0.1,0.3,0.2c0.1,0,0.2,0,0.4,0c0.1,0,0.2-0.1,0.3-0.2c0.1-0.1,0.1-0.2,0.1-0.3
	c0-0.2-0.1-0.3-0.2-0.4C835.5,302.3,835.3,302.2,835.1,302.2z"/>
<path class="st1" d="M837.6,292.9c-0.4,0-0.7-0.1-1-0.3c-0.3-0.2-0.5-0.5-0.7-0.8c-0.1-0.3-0.2-0.7-0.1-1.1c0.1-0.4,0.3-0.7,0.5-1
	c0.3-0.3,0.6-0.4,1-0.5c0.4-0.1,0.7,0,1.1,0.1c0.3,0.1,0.6,0.4,0.8,0.7c0.2,0.3,0.3,0.7,0.3,1c0,0.5-0.2,1-0.5,1.3
	C838.6,292.7,838.1,292.9,837.6,292.9z M837.6,290.4c-0.1,0-0.2,0-0.3,0.1c-0.1,0.1-0.2,0.2-0.2,0.3c0,0.1-0.1,0.2,0,0.4
	c0,0.1,0.1,0.2,0.2,0.3c0.1,0.1,0.2,0.1,0.3,0.2c0.1,0,0.2,0,0.4,0c0.1,0,0.2-0.1,0.3-0.2c0.1-0.1,0.1-0.2,0.1-0.3
	c0-0.2-0.1-0.3-0.2-0.4C838,290.4,837.8,290.4,837.6,290.4z"/>
<path class="st1" d="M824.5,299.1c-0.4,0-0.7-0.1-1-0.3c-0.3-0.2-0.5-0.5-0.7-0.8c-0.1-0.3-0.2-0.7-0.1-1.1c0.1-0.4,0.3-0.7,0.5-1
	c0.3-0.3,0.6-0.4,1-0.5c0.4-0.1,0.7,0,1.1,0.1c0.3,0.1,0.6,0.4,0.8,0.7c0.2,0.3,0.3,0.7,0.3,1c0,0.5-0.2,1-0.5,1.3
	C825.5,298.9,825,299.1,824.5,299.1z M824.5,296.6c-0.1,0-0.2,0-0.3,0.1c-0.1,0.1-0.2,0.2-0.2,0.3c0,0.1-0.1,0.2,0,0.4
	c0,0.1,0.1,0.2,0.2,0.3c0.1,0.1,0.2,0.1,0.3,0.2c0.1,0,0.2,0,0.4,0c0.1,0,0.2-0.1,0.3-0.2c0.1-0.1,0.1-0.2,0.1-0.3
	c0-0.2-0.1-0.3-0.2-0.4C824.8,296.7,824.7,296.6,824.5,296.6z"/>
<path class="st1" d="M839.5,299.1c-0.4,0-0.7-0.1-1-0.3c-0.3-0.2-0.5-0.5-0.7-0.8c-0.1-0.3-0.2-0.7-0.1-1.1c0.1-0.4,0.3-0.7,0.5-1
	c0.3-0.3,0.6-0.4,1-0.5c0.4-0.1,0.7,0,1.1,0.1c0.3,0.1,0.6,0.4,0.8,0.7c0.2,0.3,0.3,0.7,0.3,1c0,0.5-0.2,1-0.5,1.3
	C840.5,298.9,840,299.1,839.5,299.1z M839.5,296.6c-0.1,0-0.2,0-0.3,0.1c-0.1,0.1-0.2,0.2-0.2,0.3c0,0.1-0.1,0.2,0,0.4
	c0,0.1,0.1,0.2,0.2,0.3c0.1,0.1,0.2,0.1,0.3,0.2c0.1,0,0.2,0,0.4,0c0.1,0,0.2-0.1,0.3-0.2c0.1-0.1,0.1-0.2,0.1-0.3
	c0-0.2-0.1-0.3-0.2-0.4C839.8,296.7,839.7,296.6,839.5,296.6z"/>
<path class="st1" d="M832,299.8c-0.7,0-1.5-0.2-2.1-0.6c-0.6-0.4-1.1-1-1.4-1.7c-0.3-0.7-0.4-1.4-0.2-2.2c0.1-0.7,0.5-1.4,1-1.9
	c0.5-0.5,1.2-0.9,1.9-1c0.7-0.1,1.5-0.1,2.2,0.2c0.7,0.3,1.3,0.8,1.7,1.4c0.4,0.6,0.6,1.3,0.6,2.1c0,1-0.4,1.9-1.1,2.6
	S833,299.7,832,299.8z M832,293.5c-0.5,0-1,0.1-1.4,0.4c-0.4,0.3-0.7,0.7-0.9,1.1c-0.2,0.5-0.2,1-0.1,1.4c0.1,0.5,0.3,0.9,0.7,1.3
	c0.3,0.3,0.8,0.6,1.3,0.7c0.5,0.1,1,0,1.4-0.1c0.5-0.2,0.8-0.5,1.1-0.9c0.3-0.4,0.4-0.9,0.4-1.4c0-0.7-0.3-1.3-0.7-1.8
	C833.3,293.8,832.7,293.5,832,293.5z"/>
<path d="M868.9,300.2c1.8,0,2.9-0.9,3.6-2.3l-1.5-0.9c-0.3,0.9-1,1.6-2.1,1.6c-1.4,0-2.3-1-2.3-2.6v-1.5c0-1.7,0.9-2.7,2.3-2.7
	c1.1,0,1.7,0.6,2,1.5l1.6-0.8c-0.7-1.5-1.8-2.3-3.6-2.3c-2.6,0-4.2,1.8-4.2,5.1C864.7,298.5,866.4,300.2,868.9,300.2z M876.9,300
	v-1.4h-1v-8.9h-1.8v8.6c0,1.1,0.6,1.8,1.8,1.8H876.9z M882.8,300h1.8v-7.3h-1.8v4.8c0,0.8-0.7,1.2-1.4,1.2c-0.9,0-1.2-0.5-1.2-1.6
	v-4.4h-1.8v4.6c0,1.8,0.8,2.9,2.3,2.9c1.2,0,1.8-0.7,2-1.4h0.1V300z M889.2,300.2c1.8,0,3-1,3-2.4c0-1.2-0.8-1.9-2.4-2.2l-0.7-0.1
	c-0.7-0.1-1-0.3-1-0.8c0-0.4,0.3-0.8,1.1-0.8c0.7,0,1.3,0.3,1.8,0.8l1-1c-0.7-0.7-1.4-1.1-2.9-1.1c-1.7,0-2.8,0.9-2.8,2.3
	c0,1.3,0.9,2,2.4,2.2l0.7,0.1c0.6,0.1,0.9,0.3,0.9,0.8c0,0.5-0.4,0.8-1.2,0.8c-0.8,0-1.5-0.4-2-1l-1.1,1.1
	C886.9,299.7,887.9,300.2,889.2,300.2z M896.2,300h1.3v-1.4h-1.4v-4.5h1.5v-1.4h-1.5v-2h-1.6v1.2c0,0.5-0.2,0.8-0.7,0.8h-0.6v1.4
	h1.1v4C894.3,299.3,894.9,300,896.2,300z M902.2,300.2c1.4,0,2.4-0.5,3-1.3l-1-1.1c-0.4,0.6-1,1-1.9,1c-1.2,0-1.8-0.7-1.8-1.8v-0.2
	h4.9v-0.6c0-2-1-3.7-3.3-3.7c-2.1,0-3.4,1.5-3.4,3.8C898.7,298.7,900,300.2,902.2,300.2z M902.1,293.9c0.9,0,1.4,0.7,1.4,1.7v0.1h-3
	v-0.1C900.6,294.6,901.2,293.9,902.1,293.9z M909,300v-4.5c0-0.8,0.6-1.1,1.8-1.1h0.6v-1.7H911c-1.2,0-1.8,0.7-1.9,1.5H909v-1.5
	h-1.8v7.3H909z M918,294.2v1.5h1c1.2,0,1.8,0.5,1.8,1.4v0.1c0,0.9-0.6,1.5-1.7,1.5c-1.1,0-1.7-0.6-2.1-1.3l-1.4,1
	c0.6,1,1.6,1.8,3.5,1.8c2.2,0,3.6-1.1,3.6-2.9c0-1.4-0.9-2.2-2-2.4v-0.1c1-0.2,1.9-1,1.9-2.2c0-1.6-1.3-2.5-3.3-2.5
	c-1.7,0-2.6,0.7-3.2,1.6l1.2,1.1c0.5-0.7,1.1-1.2,2-1.2c0.9,0,1.4,0.5,1.4,1.3v0.1c0,0.7-0.5,1.2-1.6,1.2H918z"/>
<rect x="808.5" y="360.5" class="st1" width="47" height="47"/>
<path d="M832,378.4c-0.4,0-0.7-0.1-1-0.3c-0.3-0.2-0.5-0.5-0.7-0.8c-0.1-0.3-0.2-0.7-0.1-1.1c0.1-0.4,0.3-0.7,0.5-1
	c0.3-0.3,0.6-0.4,1-0.5c0.4-0.1,0.7,0,1.1,0.1c0.3,0.1,0.6,0.4,0.8,0.7c0.2,0.3,0.3,0.7,0.3,1c0,0.5-0.2,1-0.5,1.3
	C833,378.2,832.5,378.4,832,378.4z M832,375.9c-0.1,0-0.2,0-0.3,0.1c-0.1,0.1-0.2,0.2-0.2,0.3c0,0.1-0.1,0.2,0,0.4
	c0,0.1,0.1,0.2,0.2,0.3c0.1,0.1,0.2,0.1,0.3,0.2c0.1,0,0.2,0,0.4,0c0.1,0,0.2-0.1,0.3-0.2c0.1-0.1,0.1-0.2,0.1-0.3
	c0-0.2-0.1-0.3-0.2-0.4C832.3,375.9,832.2,375.9,832,375.9z"/>
<path d="M828.9,392.8c-0.4,0-0.7-0.1-1-0.3c-0.3-0.2-0.5-0.5-0.7-0.8c-0.1-0.3-0.2-0.7-0.1-1.1c0.1-0.4,0.3-0.7,0.5-1
	c0.3-0.3,0.6-0.4,1-0.5c0.4-0.1,0.7,0,1.1,0.1c0.3,0.1,0.6,0.4,0.8,0.7c0.2,0.3,0.3,0.7,0.3,1c0,0.5-0.2,1-0.5,1.3
	C829.8,392.6,829.4,392.7,828.9,392.8z M828.9,390.2c-0.1,0-0.2,0-0.3,0.1c-0.1,0.1-0.2,0.2-0.2,0.3c0,0.1-0.1,0.2,0,0.4
	c0,0.1,0.1,0.2,0.2,0.3c0.1,0.1,0.2,0.1,0.3,0.2c0.1,0,0.2,0,0.4,0c0.1,0,0.2-0.1,0.3-0.2c0.1-0.1,0.1-0.2,0.1-0.3
	c0-0.2-0.1-0.3-0.2-0.4C829.2,390.3,829,390.2,828.9,390.2z"/>
<path d="M826.4,380.9c-0.4,0-0.7-0.1-1-0.3c-0.3-0.2-0.5-0.5-0.7-0.8c-0.1-0.3-0.2-0.7-0.1-1.1c0.1-0.4,0.3-0.7,0.5-1
	c0.3-0.3,0.6-0.4,1-0.5c0.4-0.1,0.7,0,1.1,0.1c0.3,0.1,0.6,0.4,0.8,0.7c0.2,0.3,0.3,0.7,0.3,1c0,0.5-0.2,1-0.5,1.3
	C827.3,380.7,826.9,380.9,826.4,380.9z M826.4,378.4c-0.1,0-0.2,0-0.3,0.1c-0.1,0.1-0.2,0.2-0.2,0.3c0,0.1-0.1,0.2,0,0.4
	c0,0.1,0.1,0.2,0.2,0.3c0.1,0.1,0.2,0.1,0.3,0.2c0.1,0,0.2,0,0.4,0c0.1,0,0.2-0.1,0.3-0.2c0.1-0.1,0.1-0.2,0.1-0.3
	c0-0.2-0.1-0.3-0.2-0.4C826.7,378.4,826.5,378.4,826.4,378.4z"/>
<path d="M835.1,392.8c-0.4,0-0.7-0.1-1-0.3c-0.3-0.2-0.5-0.5-0.7-0.8c-0.1-0.3-0.2-0.7-0.1-1.1c0.1-0.4,0.3-0.7,0.5-1
	c0.3-0.3,0.6-0.4,1-0.5c0.4-0.1,0.7,0,1.1,0.1c0.3,0.1,0.6,0.4,0.8,0.7c0.2,0.3,0.3,0.7,0.3,1c0,0.5-0.2,1-0.5,1.3
	C836.1,392.6,835.6,392.7,835.1,392.8z M835.1,390.2c-0.1,0-0.2,0-0.3,0.1c-0.1,0.1-0.2,0.2-0.2,0.3c0,0.1-0.1,0.2,0,0.4
	c0,0.1,0.1,0.2,0.2,0.3c0.1,0.1,0.2,0.1,0.3,0.2c0.1,0,0.2,0,0.4,0c0.1,0,0.2-0.1,0.3-0.2c0.1-0.1,0.1-0.2,0.1-0.3
	c0-0.2-0.1-0.3-0.2-0.4C835.5,390.3,835.3,390.2,835.1,390.2z"/>
<path d="M837.6,380.9c-0.4,0-0.7-0.1-1-0.3c-0.3-0.2-0.5-0.5-0.7-0.8c-0.1-0.3-0.2-0.7-0.1-1.1c0.1-0.4,0.3-0.7,0.5-1
	c0.3-0.3,0.6-0.4,1-0.5c0.4-0.1,0.7,0,1.1,0.1c0.3,0.1,0.6,0.4,0.8,0.7c0.2,0.3,0.3,0.7,0.3,1c0,0.5-0.2,1-0.5,1.3
	C838.6,380.7,838.1,380.9,837.6,380.9z M837.6,378.4c-0.1,0-0.2,0-0.3,0.1c-0.1,0.1-0.2,0.2-0.2,0.3c0,0.1-0.1,0.2,0,0.4
	c0,0.1,0.1,0.2,0.2,0.3c0.1,0.1,0.2,0.1,0.3,0.2c0.1,0,0.2,0,0.4,0c0.1,0,0.2-0.1,0.3-0.2c0.1-0.1,0.1-0.2,0.1-0.3
	c0-0.2-0.1-0.3-0.2-0.4C838,378.4,837.8,378.4,837.6,378.4z"/>
<path d="M824.5,387.1c-0.4,0-0.7-0.1-1-0.3c-0.3-0.2-0.5-0.5-0.7-0.8c-0.1-0.3-0.2-0.7-0.1-1.1c0.1-0.4,0.3-0.7,0.5-1
	c0.3-0.3,0.6-0.4,1-0.5c0.4-0.1,0.7,0,1.1,0.1c0.3,0.1,0.6,0.4,0.8,0.7c0.2,0.3,0.3,0.7,0.3,1c0,0.5-0.2,1-0.5,1.3
	C825.5,386.9,825,387.1,824.5,387.1z M824.5,384.6c-0.1,0-0.2,0-0.3,0.1c-0.1,0.1-0.2,0.2-0.2,0.3c0,0.1-0.1,0.2,0,0.4
	c0,0.1,0.1,0.2,0.2,0.3c0.1,0.1,0.2,0.1,0.3,0.2c0.1,0,0.2,0,0.4,0c0.1,0,0.2-0.1,0.3-0.2c0.1-0.1,0.1-0.2,0.1-0.3
	c0-0.2-0.1-0.3-0.2-0.4C824.8,384.7,824.7,384.6,824.5,384.6z"/>
<path d="M839.5,387.1c-0.4,0-0.7-0.1-1-0.3c-0.3-0.2-0.5-0.5-0.7-0.8c-0.1-0.3-0.2-0.7-0.1-1.1c0.1-0.4,0.3-0.7,0.5-1
	c0.3-0.3,0.6-0.4,1-0.5c0.4-0.1,0.7,0,1.1,0.1c0.3,0.1,0.6,0.4,0.8,0.7c0.2,0.3,0.3,0.7,0.3,1c0,0.5-0.2,1-0.5,1.3
	C840.5,386.9,840,387.1,839.5,387.1z M839.5,384.6c-0.1,0-0.2,0-0.3,0.1c-0.1,0.1-0.2,0.2-0.2,0.3c0,0.1-0.1,0.2,0,0.4
	c0,0.1,0.1,0.2,0.2,0.3c0.1,0.1,0.2,0.1,0.3,0.2c0.1,0,0.2,0,0.4,0c0.1,0,0.2-0.1,0.3-0.2c0.1-0.1,0.1-0.2,0.1-0.3
	c0-0.2-0.1-0.3-0.2-0.4C839.8,384.7,839.7,384.6,839.5,384.6z"/>
<path d="M832,387.8c-0.7,0-1.5-0.2-2.1-0.6c-0.6-0.4-1.1-1-1.4-1.7c-0.3-0.7-0.4-1.4-0.2-2.2c0.1-0.7,0.5-1.4,1-1.9
	c0.5-0.5,1.2-0.9,1.9-1c0.7-0.1,1.5-0.1,2.2,0.2c0.7,0.3,1.3,0.8,1.7,1.4c0.4,0.6,0.6,1.3,0.6,2.1c0,1-0.4,1.9-1.1,2.6
	S833,387.7,832,387.8z M832,381.5c-0.5,0-1,0.1-1.4,0.4c-0.4,0.3-0.7,0.7-0.9,1.1c-0.2,0.5-0.2,1-0.1,1.4c0.1,0.5,0.3,0.9,0.7,1.3
	c0.3,0.3,0.8,0.6,1.3,0.7c0.5,0.1,1,0,1.4-0.1c0.5-0.2,0.8-0.5,1.1-0.9c0.3-0.4,0.4-0.9,0.4-1.4c0-0.7-0.3-1.3-0.7-1.8
	C833.3,381.8,832.7,381.5,832,381.5z"/>
<rect x="808.5" y="360.5" class="st15" width="47" height="47"/>
<path class="st14" d="M868.9,388.2c1.8,0,2.9-0.9,3.6-2.3l-1.5-0.9c-0.3,0.9-1,1.6-2.1,1.6c-1.4,0-2.3-1-2.3-2.6v-1.5
	c0-1.7,0.9-2.7,2.3-2.7c1.1,0,1.7,0.6,2,1.5l1.6-0.8c-0.7-1.5-1.8-2.3-3.6-2.3c-2.6,0-4.2,1.8-4.2,5.1
	C864.7,386.5,866.4,388.2,868.9,388.2z M876.9,388v-1.4h-1v-8.9h-1.8v8.6c0,1.1,0.6,1.8,1.8,1.8H876.9z M882.8,388h1.8v-7.3h-1.8
	v4.8c0,0.8-0.7,1.2-1.4,1.2c-0.9,0-1.2-0.5-1.2-1.6v-4.4h-1.8v4.6c0,1.8,0.8,2.9,2.3,2.9c1.2,0,1.8-0.7,2-1.4h0.1V388z M889.2,388.2
	c1.8,0,3-1,3-2.4c0-1.2-0.8-1.9-2.4-2.2l-0.7-0.1c-0.7-0.1-1-0.3-1-0.8c0-0.4,0.3-0.8,1.1-0.8c0.7,0,1.3,0.3,1.8,0.8l1-1
	c-0.7-0.7-1.4-1.1-2.9-1.1c-1.7,0-2.8,0.9-2.8,2.3c0,1.3,0.9,2,2.4,2.2l0.7,0.1c0.6,0.1,0.9,0.3,0.9,0.8c0,0.5-0.4,0.8-1.2,0.8
	c-0.8,0-1.5-0.4-2-1l-1.1,1.1C886.9,387.7,887.9,388.2,889.2,388.2z M896.2,388h1.3v-1.4h-1.4v-4.5h1.5v-1.4h-1.5v-2h-1.6v1.2
	c0,0.5-0.2,0.8-0.7,0.8h-0.6v1.4h1.1v4C894.3,387.3,894.9,388,896.2,388z M902.2,388.2c1.4,0,2.4-0.5,3-1.3l-1-1.1
	c-0.4,0.6-1,1-1.9,1c-1.2,0-1.8-0.7-1.8-1.8v-0.2h4.9v-0.6c0-2-1-3.7-3.3-3.7c-2.1,0-3.4,1.5-3.4,3.8
	C898.7,386.7,900,388.2,902.2,388.2z M902.1,381.9c0.9,0,1.4,0.7,1.4,1.7v0.1h-3v-0.1C900.6,382.6,901.2,381.9,902.1,381.9z
	 M909,388v-4.5c0-0.8,0.6-1.1,1.8-1.1h0.6v-1.7H911c-1.2,0-1.8,0.7-1.9,1.5H909v-1.5h-1.8v7.3H909z M918.1,388v-4.8
	c0-0.8,0.7-1.2,1.5-1.2c0.9,0,1.2,0.5,1.2,1.6v4.4h1.8v-4.6c0-1.8-0.8-2.9-2.3-2.9c-1.1,0-1.8,0.6-2,1.4h-0.1v-1.2h-1.8v7.3H918.1z"
	/>
<path class="st2" d="M248,176.5h32c4.1,0,7.5,3.4,7.5,7.5v32c0,4.1-3.4,7.5-7.5,7.5h-32c-4.1,0-7.5-3.4-7.5-7.5v-32
	C240.5,179.9,243.9,176.5,248,176.5z"/>
<path d="M271.5,198.8h-0.6v-7.5h-1.2v7.5H269c-0.3,0-0.6,0.1-0.9,0.4c-0.2,0.2-0.4,0.6-0.4,0.9v1.2c0,0.3,0.1,0.6,0.4,0.9
	c0.2,0.2,0.6,0.4,0.9,0.4h0.6v6.2h1.2v-6.2h0.6c0.3,0,0.6-0.1,0.9-0.4c0.2-0.2,0.4-0.6,0.4-0.9V200c0-0.3-0.1-0.6-0.4-0.9
	C272.1,198.9,271.8,198.8,271.5,198.8z M271.5,201.3H269V200h2.5V201.3z"/>
<path d="M265.2,193.8h-0.6v-2.5h-1.2v2.5h-0.6c-0.3,0-0.6,0.1-0.9,0.4c-0.2,0.2-0.4,0.6-0.4,0.9v1.2c0,0.3,0.1,0.6,0.4,0.9
	c0.2,0.2,0.6,0.4,0.9,0.4h0.6v11.2h1.2v-11.2h0.6c0.3,0,0.6-0.1,0.9-0.4c0.2-0.2,0.4-0.6,0.4-0.9V195c0-0.3-0.1-0.6-0.4-0.9
	C265.9,193.9,265.6,193.8,265.2,193.8z M265.2,196.3h-2.5V195h2.5V196.3z"/>
<path d="M259,202.5h-0.6v-11.2h-1.2v11.2h-0.6c-0.3,0-0.6,0.1-0.9,0.4c-0.2,0.2-0.4,0.6-0.4,0.9v1.2c0,0.3,0.1,0.6,0.4,0.9
	c0.2,0.2,0.6,0.4,0.9,0.4h0.6v2.5h1.2v-2.5h0.6c0.3,0,0.6-0.1,0.9-0.4c0.2-0.2,0.4-0.6,0.4-0.9v-1.2c0-0.3-0.1-0.6-0.4-0.9
	C259.6,202.6,259.3,202.5,259,202.5z M259,205h-2.5v-1.2h2.5V205z"/>
<path class="st6" d="M248,176.5h32c4.1,0,7.5,3.4,7.5,7.5v32c0,4.1-3.4,7.5-7.5,7.5h-32c-4.1,0-7.5-3.4-7.5-7.5v-32
	C240.5,179.9,243.9,176.5,248,176.5z"/>
<path d="M300.9,196.2c1.8,0,2.9-0.9,3.6-2.3l-1.5-0.9c-0.3,0.9-1,1.6-2.1,1.6c-1.4,0-2.3-1-2.3-2.6v-1.5c0-1.7,0.9-2.7,2.3-2.7
	c1.1,0,1.7,0.6,2,1.5l1.6-0.8c-0.7-1.5-1.8-2.3-3.6-2.3c-2.6,0-4.2,1.8-4.2,5.1C296.7,194.5,298.4,196.2,300.9,196.2z M309.1,196.2
	c2.1,0,3.4-1.5,3.4-3.8c0-2.3-1.3-3.8-3.4-3.8c-2.1,0-3.4,1.5-3.4,3.8C305.7,194.7,307,196.2,309.1,196.2z M309.1,194.7
	c-0.9,0-1.5-0.6-1.5-1.7v-1.4c0-1.1,0.6-1.7,1.5-1.7c0.9,0,1.5,0.6,1.5,1.7v1.4C310.6,194.1,310,194.7,309.1,194.7z M316,196v-4.8
	c0-0.8,0.7-1.2,1.5-1.2c0.9,0,1.2,0.5,1.2,1.6v4.4h1.8v-4.6c0-1.8-0.8-2.9-2.3-2.9c-1.1,0-1.8,0.6-2,1.4H316v-1.2h-1.8v7.3H316z
	 M324.9,196h1.3v-1.4h-1.4v-4.5h1.5v-1.4h-1.5v-2h-1.6v1.2c0,0.5-0.2,0.8-0.7,0.8h-0.6v1.4h1.1v4C323,195.3,323.7,196,324.9,196z
	 M329.8,196v-4.5c0-0.8,0.6-1.1,1.8-1.1h0.6v-1.7h-0.4c-1.2,0-1.8,0.7-1.9,1.5h-0.1v-1.5H328v7.3H329.8z M336.5,196.2
	c2.1,0,3.4-1.5,3.4-3.8c0-2.3-1.3-3.8-3.4-3.8c-2.1,0-3.4,1.5-3.4,3.8C333.1,194.7,334.4,196.2,336.5,196.2z M336.5,194.7
	c-0.9,0-1.5-0.6-1.5-1.7v-1.4c0-1.1,0.6-1.7,1.5-1.7c0.9,0,1.5,0.6,1.5,1.7v1.4C338,194.1,337.4,194.7,336.5,194.7z M344.4,196v-1.4
	h-1v-8.9h-1.8v8.6c0,1.1,0.6,1.8,1.8,1.8H344.4z M297,216.8h1.8v-4h0.1c0.3,0.8,1,1.4,2,1.4c1.8,0,2.9-1.4,2.9-3.8
	c0-2.4-1-3.8-2.9-3.8c-1,0-1.8,0.5-2,1.4h-0.1v-1.2H297V216.8z M300.3,212.7c-0.9,0-1.5-0.4-1.5-1.2v-2.3c0-0.7,0.6-1.2,1.5-1.2
	c0.9,0,1.6,0.7,1.6,1.7v1.3C301.9,212,301.2,212.7,300.3,212.7z M308.3,214v-1.4h-1v-8.9h-1.8v8.6c0,1.1,0.6,1.8,1.8,1.8H308.3z
	 M311.7,214.2c1.1,0,1.9-0.5,2.1-1.4h0.1c0.1,0.8,0.6,1.3,1.4,1.3h1v-1.4h-0.7v-3.4c0-1.7-1-2.6-3-2.6c-1.5,0-2.3,0.6-2.9,1.4l1.1,1
	c0.4-0.5,0.8-0.9,1.7-0.9c1,0,1.4,0.5,1.4,1.3v0.5h-1.2c-2,0-3.1,0.7-3.1,2.2C309.3,213.3,310.2,214.2,311.7,214.2z M312.3,212.9
	c-0.7,0-1.1-0.3-1.1-0.9v-0.2c0-0.6,0.5-0.9,1.4-0.9h1.1v1C313.7,212.5,313.1,212.9,312.3,212.9z M319.6,214v-4.8
	c0-0.8,0.7-1.2,1.5-1.2c0.9,0,1.2,0.5,1.2,1.6v4.4h1.8v-4.6c0-1.8-0.8-2.9-2.3-2.9c-1.1,0-1.8,0.6-2,1.4h-0.1v-1.2h-1.8v7.3H319.6z
	 M329.2,214.2c1.4,0,2.4-0.5,3-1.3l-1-1.1c-0.4,0.6-1,1-1.9,1c-1.2,0-1.8-0.7-1.8-1.8v-0.2h4.9v-0.6c0-2-1.1-3.7-3.3-3.7
	c-2.1,0-3.4,1.5-3.4,3.8C325.7,212.7,327,214.2,329.2,214.2z M329.2,207.9c0.9,0,1.4,0.7,1.4,1.7v0.1h-3v-0.1
	C327.6,208.6,328.2,207.9,329.2,207.9z"/>
<path class="st16" d="M752,114v-2h1v2H752z M752,122v-4h1v4H752z M752,130v-4h1v4H752z M752,138v-4h1v4H752z M752,146v-4h1v4H752z
	 M752,154v-4h1v4H752z M752,162v-4h1v4H752z M752,170v-4h1v4H752z M752,178v-4h1v4H752z M752,186v-4h1v4H752z M752,194v-4h1v4H752z
	 M752,202v-4h1v4H752z M752,210v-4h1v4H752z M752,218v-4h1v4H752z M752,226v-4h1v4H752z M752,234v-4h1v4H752z M752,242v-4h1v4H752z
	 M752,250v-4h1v4H752z M752,258v-4h1v4H752z M752,266v-4h1v4H752z M752,274v-4h1v4H752z M752,282v-4h1v4H752z M752,290v-4h1v4H752z
	 M752,298v-4h1v4H752z M752,306v-4h1v4H752z M752,314v-4h1v4H752z M752,322v-4h1v4H752z M752,330v-4h1v4H752z M752,338v-4h1v4H752z
	 M752,346v-4h1v4H752z M752,354v-4h1v4H752z M752,362v-4h1v4H752z M752,370v-4h1v4H752z M752,378v-4h1v4H752z M752,386v-4h1v4H752z
	 M752,394v-4h1v4H752z M752,402v-4h1v4H752z M752,410v-4h1v4H752z M752,418v-4h1v4H752z M752,424v-2h1v2H752z"/>
<path class="st16" d="M703,114v-2h1v2H703z M703,122v-4h1v4H703z M703,130v-4h1v4H703z M703,138v-4h1v4H703z M703,146v-4h1v4H703z
	 M703,154v-4h1v4H703z M703,162v-4h1v4H703z M703,170v-4h1v4H703z M703,178v-4h1v4H703z M703,186v-4h1v4H703z M703,194v-4h1v4H703z
	 M703,202v-4h1v4H703z M703,210v-4h1v4H703z M703,218v-4h1v4H703z M703,226v-4h1v4H703z M703,234v-4h1v4H703z M703,242v-4h1v4H703z
	 M703,250v-4h1v4H703z M703,258v-4h1v4H703z M703,266v-4h1v4H703z M703,274v-4h1v4H703z M703,282v-4h1v4H703z M703,290v-4h1v4H703z
	 M703,298v-4h1v4H703z M703,306v-4h1v4H703z M703,314v-4h1v4H703z M703,322v-4h1v4H703z M703,330v-4h1v4H703z M703,338v-4h1v4H703z
	 M703,346v-4h1v4H703z M703,354v-4h1v4H703z M703,362v-4h1v4H703z M703,370v-4h1v4H703z M703,378v-4h1v4H703z M703,386v-4h1v4H703z
	 M703,394v-4h1v4H703z M703,402v-4h1v4H703z M703,410v-4h1v4H703z M703,418v-4h1v4H703z M703,424v-2h1v2H703z"/>
<path class="st16" d="M424,114v-2h1v2H424z M424,122v-4h1v4H424z M424,130v-4h1v4H424z M424,138v-4h1v4H424z M424,146v-4h1v4H424z
	 M424,154v-4h1v4H424z M424,162v-4h1v4H424z M424,170v-4h1v4H424z M424,178v-4h1v4H424z M424,186v-4h1v4H424z M424,194v-4h1v4H424z
	 M424,202v-4h1v4H424z M424,210v-4h1v4H424z M424,218v-4h1v4H424z M424,226v-4h1v4H424z M424,234v-4h1v4H424z M424,242v-4h1v4H424z
	 M424,250v-4h1v4H424z M424,258v-4h1v4H424z M424,266v-4h1v4H424z M424,274v-4h1v4H424z M424,282v-4h1v4H424z M424,290v-4h1v4H424z
	 M424,298v-4h1v4H424z M424,306v-4h1v4H424z M424,314v-4h1v4H424z M424,322v-4h1v4H424z M424,330v-4h1v4H424z M424,338v-4h1v4H424z
	 M424,346v-4h1v4H424z M424,354v-4h1v4H424z M424,362v-4h1v4H424z M424,370v-4h1v4H424z M424,378v-4h1v4H424z M424,386v-4h1v4H424z
	 M424,394v-4h1v4H424z M424,402v-4h1v4H424z M424,410v-4h1v4H424z M424,418v-4h1v4H424z M424,424v-2h1v2H424z"/>
<path class="st17" d="M375,114v-2h1v2H375z M375,122v-4h1v4H375z M375,130v-4h1v4H375z M375,138v-4h1v4H375z M375,146v-4h1v4H375z
	 M375,154v-4h1v4H375z M375,162v-4h1v4H375z M375,170v-4h1v4H375z M375,178v-4h1v4H375z M375,186v-4h1v4H375z M375,194v-4h1v4H375z
	 M375,202v-4h1v4H375z M375,210v-4h1v4H375z M375,218v-4h1v4H375z M375,226v-4h1v4H375z M375,234v-4h1v4H375z M375,242v-4h1v4H375z
	 M375,250v-4h1v4H375z M375,258v-4h1v4H375z M375,266v-4h1v4H375z M375,274v-4h1v4H375z M375,282v-4h1v4H375z M375,290v-4h1v4H375z
	 M375,298v-4h1v4H375z M375,306v-4h1v4H375z M375,314v-4h1v4H375z M375,322v-4h1v4H375z M375,330v-4h1v4H375z M375,338v-4h1v4H375z
	 M375,346v-4h1v4H375z M375,354v-4h1v4H375z M375,362v-4h1v4H375z M375,370v-4h1v4H375z M375,378v-4h1v4H375z M375,386v-4h1v4H375z
	 M375,394v-4h1v4H375z M375,402v-4h1v4H375z M375,410v-4h1v4H375z M375,418v-4h1v4H375z M375,424v-2h1v2H375z"/>
<path class="st18" d="M264,224l-2.9,5h2.4v11c0,4.7,3.8,8.5,8.5,8.5h42v0h69.4l55.6,0c4.1,0,7.5,3.4,7.5,7.5v24h0v3v1.5l0,0l0,3.5
	c0,0,0,0.1,0,0.1v47.5l0,40.3c0,4.7,3.8,8.5,8.5,8.5h19v2.4l5-2.9l-5-2.9v2.4h-19c-4.1,0-7.5-3.4-7.5-7.5l0-40.3V292
	c1.4,2.7,4.3,4.5,7.5,4.5h19v2.4l5-2.9l-5-2.9v2.4h-19c-4.1,0-7.4-3.3-7.5-7.4v-3.6l0,0V283v-11h0v-16c0-3.2-1.8-6.1-4.5-7.5h29.6
	l95.4,0v0h108.5l91.5,0c4.1,0,7.5,3.4,7.5,7.5v24h0v0.7v0.7l0,6.6c0,0.5,0,1.1,0.1,1.6h-0.1v4.1h1V292c1.4,2.7,4.3,4.5,7.5,4.5h19
	v2.4l5-2.9l-5-2.9v2.4h-19c-4.1,0-7.5-3.4-7.5-7.5l0-2.5h0v-4.1v-0.7v-3.4v-4.1v-4.1v-4.1V264h0v-3h0v-2h0v-3c0-4.7-3.8-8.5-8.5-8.5
	l-91.5,0H664v0l-95.7,0l-95.7,0H272c-4.1,0-7.5-3.4-7.5-7.5v-11h2.4L264,224z M776.6,377.5c-0.1-0.5-0.1-1-0.1-1.5v-2.2h-1v2.2
	c0,0.6,0.1,1.1,0.2,1.7L776.6,377.5z M776.5,369.5v-4.3h-1v4.3H776.5z M776.5,360.9v-4.3h-1v4.3H776.5z M776.5,352.3v-4.3h-1v4.3
	H776.5z M776.5,343.6v-4.3l-1,0v4.3H776.5z M776.5,335v-4.3h-1v4.3H776.5z M776.5,326.3v-2.2v-2h-1v2v2.2H776.5z M776.5,301.8v-4.1
	h-1v4.1H776.5z M776.5,309.9v-4.1h-1v4.1H776.5z M776.5,318.1V314h-1v4.1H776.5z M779.8,382.2c-0.8-0.5-1.5-1.3-2.1-2.1l-0.8,0.6
	c0.6,0.9,1.4,1.7,2.3,2.3L779.8,382.2z M784,383.5c-0.5,0-1,0-1.5-0.1l-0.2,1c0.5,0.1,1.1,0.2,1.7,0.2h2v-1H784z M794,383.5h-4v1h4
	V383.5z M802,383.5h-4v1h4V383.5z M803,386.9l5-2.9l-5-2.9V386.9z"/>
<path class="st19" d="M149,202.9l-5-2.9l5-2.9v2.4h38v-2.4l5,2.9l-5,2.9v-2.4h-38V202.9z"/>
<rect x="48.5" y="480.5" class="st0" width="15" height="15"/>
<rect x="48.5" y="480.5" class="st20" width="15" height="15"/>
<path class="st21" d="M76.7,493.2c1.6,0,2.8-0.9,3.4-2.2l-0.9-0.6c-0.4,1.1-1.2,1.8-2.5,1.8c-1.7,0-2.7-1.2-2.7-3.2v-1.5
	c0-2,1-3.3,2.7-3.3c1.2,0,2,0.7,2.4,1.7l1-0.6c-0.6-1.4-1.7-2.1-3.4-2.1c-2.5,0-3.9,1.8-3.9,5.1C72.8,491.4,74.3,493.2,76.7,493.2z
	 M84.2,493v-1h-1.1v-9.4H82v9.2c0,0.7,0.4,1.2,1.2,1.2H84.2z M90.5,493h1.1v-7.2h-1.1v5c0,1-0.9,1.4-1.8,1.4c-1.1,0-1.7-0.7-1.7-1.9
	v-4.4h-1.1v4.6c0,1.8,1,2.8,2.4,2.8c1.2,0,1.8-0.7,2-1.3h0.1V493z M96.3,493.2c1.7,0,2.7-0.9,2.7-2.3c0-1.1-0.6-1.8-2.2-2l-0.6-0.1
	c-0.9-0.1-1.4-0.4-1.4-1.1c0-0.7,0.5-1.1,1.4-1.1c0.9,0,1.5,0.4,1.9,0.9l0.7-0.7c-0.6-0.7-1.4-1.2-2.5-1.2c-1.5,0-2.6,0.7-2.6,2.1
	c0,1.3,1,1.9,2.3,2.1l0.6,0.1c1,0.1,1.3,0.6,1.3,1.1c0,0.7-0.6,1.2-1.5,1.2c-0.9,0-1.6-0.4-2.1-1.1l-0.8,0.6
	C94.1,492.6,95,493.2,96.3,493.2z M104,493v-1h-1.5v-5.3h1.6v-1h-1.6v-2h-1v1.3c0,0.5-0.2,0.7-0.6,0.7h-0.7v1h1.2v5.1
	c0,0.7,0.4,1.2,1.2,1.2H104z M108.8,493.2c1.4,0,2.4-0.7,2.9-1.7l-0.8-0.6c-0.4,0.8-1.1,1.2-2,1.2c-1.3,0-2.1-0.9-2.1-2.2v-0.3h5.2
	v-0.5c0-2-1.2-3.5-3.1-3.5c-2,0-3.2,1.5-3.2,3.8S106.8,493.2,108.8,493.2z M108.8,486.5c1.1,0,1.9,0.9,1.9,2.1v0.2h-4v-0.1
	C106.7,487.5,107.5,486.5,108.8,486.5z M115,493v-4.9c0-0.7,0.7-1.2,1.9-1.2h0.7v-1.1h-0.4c-1.2,0-1.8,0.6-2.1,1.3H115v-1.3h-1.1
	v7.2H115z M121.4,493.2c1.7,0,2.7-0.9,2.7-2.3c0-1.1-0.6-1.8-2.2-2l-0.6-0.1c-0.9-0.1-1.4-0.4-1.4-1.1c0-0.7,0.5-1.1,1.4-1.1
	c0.9,0,1.5,0.4,1.9,0.9l0.7-0.7c-0.6-0.7-1.4-1.2-2.5-1.2c-1.5,0-2.6,0.7-2.6,2.1c0,1.3,1,1.9,2.3,2.1l0.6,0.1
	c1,0.1,1.3,0.6,1.3,1.1c0,0.7-0.6,1.2-1.5,1.2c-0.9,0-1.6-0.4-2.1-1.1l-0.8,0.6C119.1,492.6,120,493.2,121.4,493.2z M134.8,493v-1.9
	h1.4v-1h-1.4v-6.9h-1.8L129,490v1h4.7v1.9H134.8z M133.6,484.1L133.6,484.1l0.1,6h-3.6L133.6,484.1z M144.7,493v-1h-1.5v-5.3h1.6v-1
	h-1.6v-2h-1v1.3c0,0.5-0.2,0.7-0.6,0.7h-0.7v1h1.2v5.1c0,0.7,0.4,1.2,1.2,1.2H144.7z M149.4,493.2c1.9,0,3.3-1.5,3.3-3.8
	s-1.3-3.8-3.3-3.8c-1.9,0-3.3,1.5-3.3,3.8S147.5,493.2,149.4,493.2z M149.4,492.2c-1.2,0-2.1-0.7-2.1-2.3v-1c0-1.5,0.9-2.3,2.1-2.3
	s2.1,0.7,2.1,2.3v1C151.5,491.4,150.6,492.2,149.4,492.2z M159.3,493v-5c0-0.9,0.9-1.4,1.8-1.4c1.1,0,1.6,0.7,1.6,1.9v4.4h1.1v-4.6
	c0-1.8-0.9-2.8-2.4-2.8c-1.1,0-1.7,0.5-2,1.3h-0.1v-1.2h-1.1v7.2H159.3z"/>
</svg>
