<?xml version="1.0" encoding="utf-8"?>
<!-- Generator: Adobe Illustrator 26.5.0, SVG Export Plug-In . SVG Version: 6.00 Build 0)  -->
<svg version="1.1" id="Layer_1" xmlns="http://www.w3.org/2000/svg" xmlns:xlink="http://www.w3.org/1999/xlink" x="0px" y="0px"
	 viewBox="0 0 1080 540" style="enable-background:new 0 0 1080 540;" xml:space="preserve">
<style type="text/css">
	.st0{fill:#F4F4F4;}
	.st1{fill:#FFFFFF;}
	.st2{fill:#EDF5FF;}
	.st3{clip-path:url(#SVGID_00000097480901222458853440000007941245009975075005_);}
	.st4{fill:none;stroke:#0F62FE;stroke-width:4;}
	.st5{clip-path:url(#SVGID_00000092438994245283600850000009237676528512131746_);}
	.st6{fill:none;stroke:#0F62FE;}
	.st7{fill:#0F62FE;}
	.st8{clip-path:url(#SVGID_00000087370996785575260250000008302605220694394522_);}
	.st9{fill:none;stroke:#8D8D8D;stroke-width:4;}
	.st10{fill:none;stroke:#8D8D8D;}
	.st11{clip-path:url(#SVGID_00000080198974329131955880000001132226948156449720_);}
	.st12{clip-path:url(#SVGID_00000181772461181354866820000016936606193208708272_);}
	.st13{fill:#F7F3F2;}
	.st14{clip-path:url(#SVGID_00000117657061075919020280000008308794090278612405_);}
	.st15{fill:#8D8D8D;}
	.st16{fill:none;stroke:#6F6F6F;stroke-dasharray:4,4;}
	.st17{fill-rule:evenodd;clip-rule:evenodd;fill:#8D8D8D;}
	.st18{fill:#565151;}
	.st19{fill-rule:evenodd;clip-rule:evenodd;fill:#0043CE;}
	.st20{fill:none;stroke:#8D8D8D;stroke-dasharray:4,4;}
	.st21{fill:#6F6F6F;}
</style>
<rect class="st0" width="1080" height="540"/>
<rect x="48.5" y="48.5" class="st1" width="143" height="391"/>
<rect x="49" y="49" class="st2" width="142" height="390"/>
<g>
	<defs>
		<rect id="SVGID_1_" x="48" y="48" width="137" height="48"/>
	</defs>
	<clipPath id="SVGID_00000049913071266734892600000013293872893145922451_">
		<use xlink:href="#SVGID_1_"  style="overflow:visible;"/>
	</clipPath>
	<g style="clip-path:url(#SVGID_00000049913071266734892600000013293872893145922451_);">
		<line class="st4" x1="50" y1="48" x2="50" y2="96"/>
		<g>
			<defs>
				<rect id="SVGID_00000064352248321058225100000014831299336209448372_" x="64" y="62" width="20" height="20"/>
			</defs>
			<clipPath id="SVGID_00000176746749241658423260000016612774755663182245_">
				<use xlink:href="#SVGID_00000064352248321058225100000014831299336209448372_"  style="overflow:visible;"/>
			</clipPath>
			<g style="clip-path:url(#SVGID_00000176746749241658423260000016612774755663182245_);">
				<path d="M79.4,70.5c-0.6-1.2-1.6-2.1-2.8-2.7c-1.2-0.6-2.5-0.7-3.8-0.4c-1.3,0.3-2.5,1-3.3,2c-0.9,1-1.4,2.2-1.5,3.6
					c-1.1,0.1-2.1,0.6-2.8,1.5c-0.7,0.8-1.1,1.9-1,3c0.1,1.1,0.5,2.1,1.3,2.8c0.8,0.7,1.8,1.2,2.9,1.2h10c1.4,0,2.7-0.5,3.7-1.4
					c1-0.9,1.6-2.2,1.8-3.5c0.1-1.4-0.3-2.7-1.1-3.8C81.9,71.5,80.7,70.8,79.4,70.5z M78.4,80.4h-10c-0.8,0-1.6-0.3-2.2-0.9
					s-1-1.3-1-2.2c-0.1-0.8,0.2-1.6,0.7-2.3c0.5-0.6,1.3-1.1,2.1-1.2c0.1,0.8,0.3,1.6,0.7,2.4c0,0.1,0.1,0.1,0.1,0.1
					c0,0,0.1,0.1,0.2,0.1c0.1,0,0.1,0,0.2,0c0.1,0,0.1,0,0.2-0.1s0.1-0.1,0.1-0.1c0,0,0.1-0.1,0.1-0.2c0-0.1,0-0.1,0-0.2
					c0-0.1,0-0.1-0.1-0.2c-0.6-1.2-0.8-2.5-0.4-3.8c0.3-1.3,1.2-2.4,2.3-3c1.1-0.7,2.5-0.9,3.7-0.7c1.3,0.3,2.4,1,3.2,2.1
					c-0.7,0-1.5,0.2-2.2,0.5c-0.7,0.3-1.3,0.8-1.8,1.3c0,0-0.1,0.1-0.1,0.2c0,0.1,0,0.1,0,0.2c0,0.1,0,0.1,0,0.2
					c0,0.1,0.1,0.1,0.1,0.1c0,0,0.1,0.1,0.2,0.1c0.1,0,0.1,0,0.2,0c0.1,0,0.1,0,0.2,0c0.1,0,0.1-0.1,0.1-0.1c0.5-0.6,1.1-1,1.8-1.3
					c0.7-0.3,1.5-0.3,2.2-0.2c0.7,0.1,1.5,0.4,2.1,0.9c0.6,0.5,1.1,1.1,1.4,1.7c0.3,0.7,0.4,1.4,0.4,2.2c-0.1,0.8-0.3,1.5-0.7,2.1
					c-0.4,0.6-1,1.2-1.6,1.5C79.9,80.2,79.1,80.4,78.4,80.4z"/>
				<path d="M83.9,68.4c0-0.1-0.1-0.1-0.1-0.1c0,0-0.1-0.1-0.2-0.1c-0.1,0-0.1,0-0.2,0c-0.1,0-0.1,0-0.2,0.1l-1.9,1.1
					c-0.1,0-0.1,0.1-0.1,0.1c0,0-0.1,0.1-0.1,0.2c0,0.1,0,0.1,0,0.2c0,0.1,0,0.1,0.1,0.2s0.1,0.1,0.1,0.1s0.1,0.1,0.2,0.1
					c0.1,0,0.1,0,0.2,0s0.1,0,0.2-0.1l1.9-1.1c0.1-0.1,0.2-0.2,0.2-0.3C84,68.6,84,68.5,83.9,68.4z"/>
				<path d="M78.2,66.9c0.1,0,0.1,0.1,0.2,0.1c0.1,0,0.1,0,0.2,0c0.1,0,0.1,0,0.2-0.1c0,0,0.1-0.1,0.1-0.1l1.1-1.9
					c0.1-0.1,0.1-0.2,0-0.4c0-0.1-0.1-0.2-0.2-0.3c-0.1-0.1-0.2-0.1-0.4,0s-0.2,0.1-0.3,0.2L78,66.3c-0.1,0.1-0.1,0.2,0,0.4
					C78,66.8,78.1,66.9,78.2,66.9z"/>
				<path d="M74,65.8c0.1,0,0.2,0,0.3-0.1c0.1-0.1,0.1-0.2,0.1-0.3v-2.2c0-0.1,0-0.1,0-0.2c0-0.1-0.1-0.1-0.1-0.2
					c0,0-0.1-0.1-0.2-0.1c-0.1,0-0.1,0-0.2,0s-0.1,0-0.2,0s-0.1,0.1-0.2,0.1c0,0-0.1,0.1-0.1,0.2c0,0.1,0,0.1,0,0.2v2.2
					c0,0.1,0,0.2,0.1,0.3C73.8,65.8,73.9,65.8,74,65.8z"/>
				<path d="M69.2,66.7c0.1,0.1,0.2,0.2,0.3,0.2s0.2,0,0.4,0c0.1-0.1,0.2-0.2,0.2-0.3c0-0.1,0-0.2,0-0.4l-1.1-1.9
					c0-0.1-0.1-0.1-0.1-0.1c0,0-0.1-0.1-0.2-0.1c-0.1,0-0.1,0-0.2,0c-0.1,0-0.1,0-0.2,0.1c-0.1,0-0.1,0.1-0.1,0.1
					c0,0-0.1,0.1-0.1,0.2c0,0.1,0,0.1,0,0.2c0,0.1,0,0.1,0.1,0.2L69.2,66.7z"/>
				<path d="M66.6,69.3l-1.9-1.1c-0.1,0-0.1-0.1-0.2-0.1c-0.1,0-0.1,0-0.2,0c-0.1,0-0.1,0-0.2,0.1c0,0-0.1,0.1-0.1,0.1
					c0,0.1-0.1,0.1-0.1,0.2c0,0.1,0,0.1,0,0.2c0,0.1,0,0.1,0.1,0.2c0,0,0.1,0.1,0.1,0.1l1.9,1.1c0.1,0,0.1,0.1,0.2,0.1
					c0.1,0,0.1,0,0.2,0s0.1,0,0.2-0.1s0.1-0.1,0.1-0.1c0-0.1,0.1-0.1,0.1-0.2c0-0.1,0-0.1,0-0.2c0-0.1,0-0.1-0.1-0.2
					C66.7,69.4,66.7,69.4,66.6,69.3z"/>
			</g>
		</g>
		<path d="M105.2,77v-1.5h-1.3v-6.8h1.3v-1.5h-4.4v1.5h1.3v6.8h-1.3V77H105.2z M107.2,77h5c1.4,0,2.5-1.2,2.5-2.8
			c0-1.7-1.3-2.3-2.1-2.3v-0.1c0.9-0.1,1.8-0.6,1.8-2.1c0-1.5-1-2.5-2.6-2.5h-4.5V77z M109.1,72.8h2.6c0.7,0,1.1,0.4,1.1,1.1v0.5
			c0,0.7-0.4,1.1-1.1,1.1h-2.6V72.8z M109.1,68.8h2.3c0.7,0,1.1,0.4,1.1,1v0.4c0,0.6-0.4,1-1.1,1h-2.3V68.8z M116.7,77h1.8v-7h0.1
			l0.8,1.6l2,3.7l2-3.7L124,70h0.1v7h1.8v-9.8h-2l-2.5,4.8h-0.1l-2.5-4.8h-2.1V77z M135.5,77.2c1.8,0,2.9-0.9,3.6-2.3l-1.5-0.9
			c-0.3,0.9-1,1.6-2.1,1.6c-1.4,0-2.3-1-2.3-2.6v-1.5c0-1.7,0.9-2.7,2.3-2.7c1.1,0,1.7,0.6,2,1.5l1.6-0.8c-0.7-1.5-1.8-2.3-3.6-2.3
			c-2.6,0-4.2,1.8-4.2,5.1S132.9,77.2,135.5,77.2z M143.5,77v-1.4h-1v-8.9h-1.8v8.6c0,1.1,0.6,1.8,1.8,1.8H143.5z M147.9,77.2
			c2.1,0,3.4-1.5,3.4-3.8c0-2.3-1.3-3.8-3.4-3.8c-2.1,0-3.4,1.5-3.4,3.8C144.5,75.7,145.8,77.2,147.9,77.2z M147.9,75.7
			c-0.9,0-1.5-0.6-1.5-1.7v-1.4c0-1.1,0.6-1.7,1.5-1.7c0.9,0,1.5,0.6,1.5,1.7V74C149.5,75.1,148.9,75.7,147.9,75.7z M157.5,77h1.8
			v-7.3h-1.8v4.8c0,0.8-0.7,1.2-1.4,1.2c-0.9,0-1.2-0.5-1.2-1.6v-4.4H153v4.6c0,1.8,0.8,2.9,2.3,2.9c1.2,0,1.8-0.7,2-1.4h0.1V77z
			 M166,77h1.8V66.6H166v4.3h-0.1c-0.3-0.8-1.1-1.4-2-1.4c-1.8,0-2.9,1.4-2.9,3.8c0,2.4,1,3.8,2.9,3.8c1,0,1.8-0.6,2-1.4h0.1V77z
			 M164.5,75.7c-0.9,0-1.6-0.7-1.6-1.7v-1.3c0-1,0.6-1.7,1.6-1.7c0.9,0,1.5,0.5,1.5,1.2v2.3C166,75.2,165.4,75.7,164.5,75.7z"/>
	</g>
</g>
<rect x="48.5" y="48.5" class="st6" width="143" height="391"/>
<path class="st7" d="M104,175h32c4.4,0,8,3.6,8,8v32c0,4.4-3.6,8-8,8h-32c-4.4,0-8-3.6-8-8v-32C96,178.6,99.6,175,104,175z"/>
<path class="st1" d="M127.5,197.8h-0.6v-7.5h-1.2v7.5H125c-0.3,0-0.6,0.1-0.9,0.4c-0.2,0.2-0.4,0.6-0.4,0.9v1.2
	c0,0.3,0.1,0.6,0.4,0.9c0.2,0.2,0.6,0.4,0.9,0.4h0.6v6.2h1.2v-6.2h0.6c0.3,0,0.6-0.1,0.9-0.4c0.2-0.2,0.4-0.6,0.4-0.9V199
	c0-0.3-0.1-0.6-0.4-0.9C128.1,197.9,127.8,197.8,127.5,197.8z M127.5,200.3H125V199h2.5V200.3z"/>
<path class="st1" d="M121.2,192.8h-0.6v-2.5h-1.2v2.5h-0.6c-0.3,0-0.6,0.1-0.9,0.4c-0.2,0.2-0.4,0.6-0.4,0.9v1.2
	c0,0.3,0.1,0.6,0.4,0.9c0.2,0.2,0.6,0.4,0.9,0.4h0.6v11.2h1.2v-11.2h0.6c0.3,0,0.6-0.1,0.9-0.4c0.2-0.2,0.4-0.6,0.4-0.9V194
	c0-0.3-0.1-0.6-0.4-0.9C121.9,192.9,121.6,192.8,121.2,192.8z M121.2,195.3h-2.5V194h2.5V195.3z"/>
<path class="st1" d="M115,201.5h-0.6v-11.2h-1.2v11.2h-0.6c-0.3,0-0.6,0.1-0.9,0.4c-0.2,0.2-0.4,0.6-0.4,0.9v1.2
	c0,0.3,0.1,0.6,0.4,0.9c0.2,0.2,0.6,0.4,0.9,0.4h0.6v2.5h1.2v-2.5h0.6c0.3,0,0.6-0.1,0.9-0.4c0.2-0.2,0.4-0.6,0.4-0.9v-1.2
	c0-0.3-0.1-0.6-0.4-0.9C115.6,201.6,115.3,201.5,115,201.5z M115,204h-2.5v-1.2h2.5V204z"/>
<path d="M94.7,245.2c2.3,0,3.7-1.3,3.7-3.1c0-1.6-0.9-2.5-2.9-2.8l-0.9-0.2c-0.9-0.2-1.4-0.5-1.4-1.2c0-0.7,0.5-1.1,1.6-1.1
	c1,0,1.7,0.4,2.2,1l1.3-1.2c-0.8-0.9-1.9-1.4-3.3-1.4c-2.2,0-3.5,1.1-3.5,2.9c0,1.6,1,2.5,2.9,2.8l0.9,0.1c1,0.2,1.3,0.6,1.3,1.2
	c0,0.8-0.6,1.4-1.7,1.4c-1,0-1.8-0.4-2.5-1.2l-1.2,1.2C91.8,244.5,93,245.2,94.7,245.2z M102,245.2c1.1,0,1.9-0.5,2.1-1.4h0.1
	c0.1,0.8,0.6,1.3,1.4,1.3h1v-1.4h-0.7v-3.4c0-1.7-1.1-2.6-3-2.6c-1.5,0-2.3,0.6-2.9,1.4l1.1,1c0.3-0.5,0.8-0.9,1.7-0.9
	c1,0,1.4,0.5,1.4,1.3v0.5h-1.2c-2,0-3.1,0.7-3.1,2.2C99.7,244.3,100.6,245.2,102,245.2z M102.6,243.9c-0.7,0-1.1-0.3-1.1-0.9v-0.2
	c0-0.6,0.5-0.9,1.4-0.9h1.1v1C104.1,243.5,103.4,243.9,102.6,243.9z M110.4,245h1.3v-1.4h-1.4v-4.5h1.5v-1.4h-1.5v-2h-1.6v1.2
	c0,0.5-0.2,0.8-0.7,0.8h-0.6v1.4h1.1v4C108.5,244.3,109.2,245,110.4,245z M116.4,245.2c1.4,0,2.4-0.5,3-1.3l-1-1.1
	c-0.4,0.6-1,1-1.9,1c-1.2,0-1.8-0.7-1.8-1.8v-0.2h4.9v-0.6c0-2-1-3.7-3.3-3.7c-2.1,0-3.4,1.5-3.4,3.8
	C113,243.7,114.3,245.2,116.4,245.2z M116.4,238.9c0.9,0,1.4,0.7,1.4,1.7v0.1h-3v-0.1C114.9,239.6,115.5,238.9,116.4,238.9z
	 M124.2,245v-1.4h-1v-8.9h-1.8v8.6c0,1.1,0.6,1.8,1.8,1.8H124.2z M128.4,245v-1.4h-1v-8.9h-1.8v8.6c0,1.1,0.6,1.8,1.8,1.8H128.4z
	 M130.8,236.6c0.7,0,1.1-0.4,1.1-0.9v-0.3c0-0.5-0.3-0.9-1.1-0.9c-0.7,0-1.1,0.4-1.1,0.9v0.3C129.8,236.2,130.1,236.6,130.8,236.6z
	 M129.9,245h1.8v-7.3h-1.8V245z M136.2,245h1.3v-1.4h-1.4v-4.5h1.5v-1.4h-1.5v-2h-1.6v1.2c0,0.5-0.2,0.8-0.7,0.8h-0.6v1.4h1.1v4
	C134.3,244.3,135,245,136.2,245z M142.2,245.2c1.4,0,2.4-0.5,3-1.3l-1-1.1c-0.4,0.6-1,1-1.9,1c-1.2,0-1.8-0.7-1.8-1.8v-0.2h4.9v-0.6
	c0-2-1.1-3.7-3.3-3.7c-2.1,0-3.4,1.5-3.4,3.8C138.8,243.7,140.1,245.2,142.2,245.2z M142.2,238.9c0.9,0,1.4,0.7,1.4,1.7v0.1h-3v-0.1
	C140.7,239.6,141.3,238.9,142.2,238.9z M79.4,263v-4.8c0-0.8,0.7-1.2,1.4-1.2c0.8,0,1.2,0.5,1.2,1.6v4.4h1.8v-4.8
	c0-0.8,0.7-1.2,1.4-1.2c0.8,0,1.2,0.5,1.2,1.6v4.4h1.8v-4.6c0-1.8-0.8-2.9-2.2-2.9c-1.2,0-2,0.7-2.2,1.5h0c-0.4-1-1.1-1.5-2.1-1.5
	c-1.1,0-1.7,0.6-2,1.4h-0.1v-1.2h-1.8v7.3H79.4z M92,263.2c1.1,0,1.9-0.5,2.1-1.4h0.1c0.1,0.8,0.6,1.3,1.4,1.3h1v-1.4h-0.7v-3.4
	c0-1.7-1.1-2.6-3-2.6c-1.5,0-2.3,0.6-2.9,1.4l1.1,1c0.3-0.5,0.8-0.9,1.7-0.9c1,0,1.4,0.5,1.4,1.3v0.5h-1.2c-2,0-3.1,0.7-3.1,2.2
	C89.7,262.3,90.5,263.2,92,263.2z M92.6,261.9c-0.7,0-1.1-0.3-1.1-0.9v-0.2c0-0.6,0.5-0.9,1.4-0.9h1.1v1
	C94.1,261.5,93.4,261.9,92.6,261.9z M100,263v-4.8c0-0.8,0.7-1.2,1.5-1.2c0.9,0,1.2,0.5,1.2,1.6v4.4h1.8v-4.6c0-1.8-0.8-2.9-2.3-2.9
	c-1.1,0-1.8,0.6-2,1.4H100v-1.2h-1.8v7.3H100z M108.4,263.2c1.1,0,1.9-0.5,2.1-1.4h0.1c0.1,0.8,0.6,1.3,1.4,1.3h1v-1.4h-0.7v-3.4
	c0-1.7-1-2.6-3-2.6c-1.5,0-2.3,0.6-2.9,1.4l1.1,1c0.3-0.5,0.8-0.9,1.7-0.9c1,0,1.4,0.5,1.4,1.3v0.5h-1.2c-2,0-3.1,0.7-3.1,2.2
	C106.1,262.3,106.9,263.2,108.4,263.2z M109,261.9c-0.7,0-1.1-0.3-1.1-0.9v-0.2c0-0.6,0.5-0.9,1.4-0.9h1.1v1
	C110.4,261.5,109.8,261.9,109,261.9z M121.2,263.6c0-1.3-0.8-2.1-2.6-2.1h-2c-0.6,0-1-0.2-1-0.5c0-0.3,0.2-0.5,0.5-0.7
	c0.3,0.1,0.7,0.1,1.1,0.1c2,0,3-1,3-2.4c0-0.9-0.4-1.6-1.1-2v-0.2h1.6v-1.4h-1.1c-0.7,0-1,0.3-1,1.1v0.2c-0.4-0.1-0.8-0.2-1.3-0.2
	c-2,0-3,1-3,2.5c0,1,0.4,1.7,1.3,2.1v0.1c-0.7,0.2-1.3,0.5-1.3,1.3c0,0.6,0.3,1.1,0.9,1.2v0.2c-0.8,0.1-1.3,0.6-1.3,1.4
	c0,1.1,0.9,1.7,3.4,1.7C120.1,266,121.2,265.1,121.2,263.6z M119.5,263.8c0,0.6-0.5,0.9-1.7,0.9h-0.9c-1.1,0-1.5-0.3-1.5-0.9
	c0-0.3,0.1-0.6,0.4-0.8h2.5C119.2,263.1,119.5,263.4,119.5,263.8z M117.3,259.2c-0.9,0-1.3-0.4-1.3-1.1v-0.2c0-0.7,0.5-1.1,1.3-1.1
	c0.9,0,1.3,0.4,1.3,1.1v0.2C118.7,258.8,118.2,259.2,117.3,259.2z M125.2,263.2c1.4,0,2.4-0.5,3-1.3l-1-1.1c-0.4,0.6-1,1-1.9,1
	c-1.2,0-1.8-0.7-1.8-1.8v-0.2h4.9v-0.6c0-2-1.1-3.7-3.3-3.7c-2.1,0-3.4,1.5-3.4,3.8C121.8,261.7,123.1,263.2,125.2,263.2z
	 M125.2,256.9c0.9,0,1.4,0.7,1.4,1.7v0.1h-3v-0.1C123.7,257.6,124.3,256.9,125.2,256.9z M132,263v-4.8c0-0.8,0.7-1.2,1.4-1.2
	c0.8,0,1.2,0.5,1.2,1.6v4.4h1.8v-4.8c0-0.8,0.7-1.2,1.4-1.2c0.8,0,1.2,0.5,1.2,1.6v4.4h1.8v-4.6c0-1.8-0.8-2.9-2.2-2.9
	c-1.2,0-2,0.7-2.2,1.5h0c-0.4-1-1.1-1.5-2.1-1.5c-1.1,0-1.7,0.6-2,1.4H132v-1.2h-1.8v7.3H132z M145.8,263.2c1.4,0,2.4-0.5,3-1.3
	l-1-1.1c-0.4,0.6-1,1-1.9,1c-1.2,0-1.8-0.7-1.8-1.8v-0.2h4.9v-0.6c0-2-1.1-3.7-3.3-3.7c-2.1,0-3.4,1.5-3.4,3.8
	C142.3,261.7,143.6,263.2,145.8,263.2z M145.8,256.9c0.9,0,1.4,0.7,1.4,1.7v0.1h-3v-0.1C144.2,257.6,144.8,256.9,145.8,256.9z
	 M152.6,263v-4.8c0-0.8,0.7-1.2,1.5-1.2c0.9,0,1.2,0.5,1.2,1.6v4.4h1.8v-4.6c0-1.8-0.8-2.9-2.3-2.9c-1.1,0-1.8,0.6-2,1.4h-0.1v-1.2
	h-1.8v7.3H152.6z M161.5,263h1.3v-1.4h-1.4v-4.5h1.5v-1.4h-1.5v-2h-1.6v1.2c0,0.5-0.2,0.8-0.7,0.8h-0.6v1.4h1.1v4
	C159.6,262.3,160.2,263,161.5,263z M102.5,283.8h1.8v-4h0.1c0.3,0.8,1.1,1.4,2,1.4c1.8,0,2.9-1.4,2.9-3.8c0-2.4-1-3.8-2.9-3.8
	c-1,0-1.8,0.5-2,1.4h-0.1v-1.2h-1.8V283.8z M105.8,279.7c-0.9,0-1.5-0.4-1.5-1.2v-2.3c0-0.7,0.6-1.2,1.5-1.2c0.9,0,1.6,0.7,1.6,1.7
	v1.3C107.4,279,106.7,279.7,105.8,279.7z M113.8,281v-1.4h-1v-8.9h-1.8v8.6c0,1.1,0.6,1.8,1.8,1.8H113.8z M117.2,281.2
	c1.1,0,1.9-0.5,2.1-1.4h0.1c0.1,0.8,0.6,1.3,1.4,1.3h1v-1.4H121v-3.4c0-1.7-1-2.6-3-2.6c-1.5,0-2.3,0.6-2.9,1.4l1.1,1
	c0.3-0.5,0.8-0.9,1.7-0.9c1,0,1.4,0.5,1.4,1.3v0.5H118c-2,0-3.1,0.7-3.1,2.2C114.8,280.3,115.7,281.2,117.2,281.2z M117.8,279.9
	c-0.7,0-1.1-0.3-1.1-0.9v-0.2c0-0.6,0.5-0.9,1.4-0.9h1.1v1C119.2,279.5,118.6,279.9,117.8,279.9z M125.1,281v-4.8
	c0-0.8,0.7-1.2,1.5-1.2c0.9,0,1.2,0.5,1.2,1.6v4.4h1.8v-4.6c0-1.8-0.8-2.9-2.3-2.9c-1.1,0-1.8,0.6-2,1.4h-0.1v-1.2h-1.8v7.3H125.1z
	 M134.7,281.2c1.4,0,2.4-0.5,3-1.3l-1-1.1c-0.4,0.6-1,1-1.9,1c-1.2,0-1.8-0.7-1.8-1.8v-0.2h4.9v-0.6c0-2-1.1-3.7-3.3-3.7
	c-2.1,0-3.4,1.5-3.4,3.8C131.2,279.7,132.5,281.2,134.7,281.2z M134.7,274.9c0.9,0,1.4,0.7,1.4,1.7v0.1h-3v-0.1
	C133.1,275.6,133.7,274.9,134.7,274.9z"/>
<rect x="512.5" y="48.5" class="st1" width="223" height="391"/>
<rect x="513" y="49" class="st1" width="222" height="390"/>
<g>
	<defs>
		<rect id="SVGID_00000179615131313536099850000013787421998077609107_" x="512" y="48" width="213" height="48"/>
	</defs>
	<clipPath id="SVGID_00000051383082261156429200000003422645968080547259_">
		<use xlink:href="#SVGID_00000179615131313536099850000013787421998077609107_"  style="overflow:visible;"/>
	</clipPath>
	<g style="clip-path:url(#SVGID_00000051383082261156429200000003422645968080547259_);">
		<line class="st9" x1="514" y1="48" x2="514" y2="96"/>
		<path d="M535.6,68v-1.6H531v-2.5h4.1v-1.6H531v-2.4h4.6v-1.6h-6.4V68H535.6z M542,68h1.8V57.6H542v4.3h-0.1c-0.3-0.8-1-1.4-2-1.4
			c-1.8,0-2.9,1.4-2.9,3.8c0,2.4,1,3.8,2.9,3.8c1,0,1.8-0.6,2-1.4h0.1V68z M540.5,66.7c-0.9,0-1.6-0.7-1.6-1.7v-1.3
			c0-1,0.6-1.7,1.6-1.7c0.9,0,1.5,0.5,1.5,1.2v2.3C542,66.2,541.3,66.7,540.5,66.7z M552.6,68.6c0-1.3-0.8-2.1-2.6-2.1h-2
			c-0.6,0-1-0.2-1-0.5c0-0.3,0.2-0.5,0.5-0.7c0.3,0.1,0.7,0.1,1.1,0.1c2,0,3-1,3-2.5c0-0.9-0.4-1.6-1.1-2v-0.2h1.6v-1.4h-1.1
			c-0.7,0-1,0.4-1,1.1v0.2c-0.4-0.1-0.8-0.2-1.3-0.2c-2,0-3,1-3,2.5c0,1,0.4,1.7,1.3,2.1v0.1c-0.7,0.2-1.3,0.5-1.3,1.3
			c0,0.6,0.3,1.1,0.9,1.2v0.2c-0.8,0.1-1.3,0.6-1.3,1.4c0,1.1,0.9,1.7,3.4,1.7C551.6,71,552.6,70.1,552.6,68.6z M550.9,68.8
			c0,0.6-0.5,0.9-1.7,0.9h-0.9c-1.1,0-1.5-0.3-1.5-0.9c0-0.3,0.1-0.6,0.4-0.8h2.5C550.6,68.1,550.9,68.4,550.9,68.8z M548.8,64.2
			c-0.9,0-1.3-0.4-1.3-1.1v-0.2c0-0.7,0.5-1.1,1.3-1.1s1.3,0.4,1.3,1.1v0.2C550.1,63.8,549.6,64.2,548.8,64.2z M556.7,68.2
			c1.4,0,2.4-0.5,3-1.3l-1-1.1c-0.4,0.6-1,1-1.9,1c-1.2,0-1.8-0.7-1.8-1.8v-0.2h4.9v-0.6c0-2-1-3.7-3.3-3.7c-2.1,0-3.4,1.5-3.4,3.8
			C553.2,66.7,554.5,68.2,556.7,68.2z M556.6,61.9c0.9,0,1.4,0.7,1.4,1.7v0.1h-3v-0.1C555.1,62.6,555.7,61.9,556.6,61.9z M568,68.2
			c2.1,0,3.4-1.5,3.4-3.8c0-2.3-1.3-3.8-3.4-3.8c-2.1,0-3.4,1.5-3.4,3.8C564.7,66.7,566,68.2,568,68.2z M568,66.7
			c-0.9,0-1.5-0.6-1.5-1.7v-1.4c0-1.1,0.6-1.7,1.5-1.7c0.9,0,1.5,0.6,1.5,1.7V65C569.6,66.1,569,66.7,568,66.7z M575,68v-4.5
			c0-0.8,0.6-1.1,1.8-1.1h0.6v-1.7H577c-1.2,0-1.8,0.7-1.9,1.5H575v-1.5h-1.8V68H575z M585.2,68.2c2.1,0,3.4-1.5,3.4-3.8
			c0-2.3-1.3-3.8-3.4-3.8c-2.1,0-3.4,1.5-3.4,3.8C581.8,66.7,583.1,68.2,585.2,68.2z M585.2,66.7c-0.9,0-1.5-0.6-1.5-1.7v-1.4
			c0-1.1,0.6-1.7,1.5-1.7c0.9,0,1.5,0.6,1.5,1.7V65C586.7,66.1,586.2,66.7,585.2,66.7z M592.6,68h1.3v-1.4h-1.4v-4.5h1.5v-1.4h-1.5
			v-2h-1.6v1.2c0,0.5-0.2,0.8-0.7,0.8h-0.6v1.4h1.1v4C590.7,67.3,591.4,68,592.6,68z M595.7,68h1.8v-4.8c0-0.8,0.7-1.2,1.5-1.2
			c0.9,0,1.2,0.5,1.2,1.6V68h1.8v-4.6c0-1.8-0.8-2.9-2.3-2.9c-1.1,0-1.8,0.6-2,1.4h-0.1v-4.3h-1.8V68z M607.1,68.2
			c1.4,0,2.4-0.5,3-1.3l-1-1.1c-0.4,0.6-1,1-1.9,1c-1.2,0-1.8-0.7-1.8-1.8v-0.2h4.9v-0.6c0-2-1.1-3.7-3.3-3.7
			c-2.1,0-3.4,1.5-3.4,3.8C603.6,66.7,604.9,68.2,607.1,68.2z M607,61.9c0.9,0,1.4,0.7,1.4,1.7v0.1h-3v-0.1
			C605.5,62.6,606.1,61.9,607,61.9z M613.9,68v-4.5c0-0.8,0.6-1.1,1.8-1.1h0.6v-1.7h-0.4c-1.2,0-1.8,0.7-1.9,1.5h-0.1v-1.5h-1.8V68
			H613.9z M625.7,68h1.8V57.6h-1.8v4.3h-0.1c-0.3-0.8-1-1.4-2-1.4c-1.8,0-2.9,1.4-2.9,3.8c0,2.4,1,3.8,2.9,3.8c1,0,1.8-0.6,2-1.4
			h0.1V68z M624.2,66.7c-0.9,0-1.6-0.7-1.6-1.7v-1.3c0-1,0.6-1.7,1.6-1.7c0.9,0,1.5,0.5,1.5,1.2v2.3
			C625.7,66.2,625.1,66.7,624.2,66.7z M631.6,68.2c1.1,0,1.9-0.5,2.1-1.4h0.1c0.1,0.8,0.6,1.3,1.4,1.3h1v-1.4h-0.7v-3.4
			c0-1.7-1.1-2.6-3-2.6c-1.5,0-2.3,0.6-2.9,1.4l1.1,1c0.4-0.5,0.8-0.9,1.7-0.9c1,0,1.4,0.5,1.4,1.3v0.5h-1.2c-2,0-3.1,0.7-3.1,2.2
			C629.2,67.3,630.1,68.2,631.6,68.2z M632.2,66.9c-0.7,0-1.1-0.3-1.1-0.9v-0.2c0-0.6,0.5-0.9,1.4-0.9h1.1v1
			C633.6,66.5,633,66.9,632.2,66.9z M640,68h1.3v-1.4h-1.4v-4.5h1.5v-1.4h-1.5v-2h-1.6v1.2c0,0.5-0.2,0.8-0.7,0.8H637v1.4h1.1v4
			C638.1,67.3,638.7,68,640,68z M644.9,68.2c1.1,0,1.9-0.5,2.1-1.4h0.1c0.1,0.8,0.6,1.3,1.4,1.3h1v-1.4h-0.7v-3.4c0-1.7-1-2.6-3-2.6
			c-1.5,0-2.3,0.6-2.9,1.4l1.1,1c0.3-0.5,0.8-0.9,1.7-0.9c1,0,1.4,0.5,1.4,1.3v0.5h-1.2c-2,0-3.1,0.7-3.1,2.2
			C642.6,67.3,643.4,68.2,644.9,68.2z M645.5,66.9c-0.7,0-1.1-0.3-1.1-0.9v-0.2c0-0.6,0.5-0.9,1.4-0.9h1.1v1
			C646.9,66.5,646.3,66.9,645.5,66.9z M657.4,68.2c1.4,0,2.4-0.6,2.9-1.9l-1.4-0.7c-0.3,0.7-0.7,1.1-1.5,1.1c-1,0-1.5-0.7-1.5-1.7
			v-1.3c0-1,0.5-1.7,1.5-1.7c0.8,0,1.2,0.4,1.4,1.1l1.5-0.7c-0.4-1.1-1.4-1.8-2.9-1.8c-2.2,0-3.4,1.5-3.4,3.8
			C654,66.7,655.2,68.2,657.4,68.2z M664.7,68.2c1.4,0,2.4-0.5,3-1.3l-1-1.1c-0.4,0.6-1,1-1.9,1c-1.2,0-1.8-0.7-1.8-1.8v-0.2h4.9
			v-0.6c0-2-1-3.7-3.3-3.7c-2.1,0-3.4,1.5-3.4,3.8C661.3,66.7,662.6,68.2,664.7,68.2z M664.7,61.9c0.9,0,1.4,0.7,1.4,1.7v0.1h-3
			v-0.1C663.2,62.6,663.8,61.9,664.7,61.9z M671.5,68v-4.8c0-0.8,0.7-1.2,1.5-1.2c0.9,0,1.2,0.5,1.2,1.6V68h1.8v-4.6
			c0-1.8-0.8-2.9-2.3-2.9c-1.1,0-1.8,0.6-2,1.4h-0.1v-1.2h-1.8V68H671.5z M680.4,68h1.3v-1.4h-1.4v-4.5h1.5v-1.4h-1.5v-2h-1.6v1.2
			c0,0.5-0.2,0.8-0.7,0.8h-0.6v1.4h1.1v4C678.5,67.3,679.2,68,680.4,68z M686.4,68.2c1.4,0,2.4-0.5,3-1.3l-1-1.1c-0.4,0.6-1,1-1.9,1
			c-1.2,0-1.8-0.7-1.8-1.8v-0.2h4.9v-0.6c0-2-1-3.7-3.3-3.7c-2.1,0-3.4,1.5-3.4,3.8C683,66.7,684.3,68.2,686.4,68.2z M686.4,61.9
			c0.9,0,1.4,0.7,1.4,1.7v0.1h-3v-0.1C684.9,62.6,685.5,61.9,686.4,61.9z M693.2,68v-4.5c0-0.8,0.6-1.1,1.8-1.1h0.6v-1.7h-0.4
			c-1.2,0-1.8,0.7-1.9,1.5h-0.1v-1.5h-1.8V68H693.2z M700.7,68h5c1.4,0,2.5-1.2,2.5-2.8c0-1.7-1.3-2.3-2.1-2.3v-0.1
			c0.9-0.1,1.8-0.6,1.8-2.1c0-1.5-1-2.5-2.6-2.5h-4.5V68z M702.5,63.8h2.6c0.7,0,1.1,0.4,1.1,1.1v0.5c0,0.7-0.4,1.1-1.1,1.1h-2.6
			V63.8z M702.5,59.8h2.3c0.7,0,1.1,0.4,1.1,1v0.4c0,0.6-0.4,1-1.1,1h-2.3V59.8z"/>
		<path d="M529.2,81.6c0,2.7,1.1,5.1,2.5,6.3h1.1c-1.5-1.3-2.5-3.7-2.5-5.7V81c0-2,1-4.3,2.5-5.7h-1.1
			C530.3,76.6,529.2,78.9,529.2,81.6z M537.6,86.2c1.6,0,2.8-0.9,3.4-2.2l-0.9-0.6c-0.4,1.1-1.2,1.8-2.5,1.8c-1.7,0-2.7-1.2-2.7-3.2
			v-1.5c0-2,1-3.3,2.7-3.3c1.2,0,2,0.7,2.4,1.7l1-0.6c-0.6-1.4-1.7-2.1-3.4-2.1c-2.5,0-3.9,1.8-3.9,5.1S535.1,86.2,537.6,86.2z
			 M547.3,86h1.1v-7.2h-1.1v5c0,1-0.9,1.4-1.8,1.4c-1.1,0-1.7-0.7-1.7-1.9v-4.4h-1.1v4.6c0,1.8,1,2.8,2.4,2.8c1.2,0,1.8-0.7,2-1.3
			h0.1V86z M553.2,86.2c1.7,0,2.7-0.9,2.7-2.3c0-1.1-0.6-1.8-2.2-2l-0.6-0.1c-0.9-0.1-1.4-0.4-1.4-1.1c0-0.7,0.5-1.1,1.4-1.1
			s1.5,0.4,1.9,0.9l0.7-0.7c-0.6-0.7-1.4-1.2-2.5-1.2c-1.5,0-2.6,0.7-2.6,2.1c0,1.3,1,1.9,2.3,2.1l0.6,0.1c1,0.1,1.3,0.6,1.3,1.1
			c0,0.7-0.6,1.2-1.5,1.2c-0.9,0-1.6-0.4-2.1-1.1l-0.8,0.6C551,85.6,551.9,86.2,553.2,86.2z M560.9,86v-1h-1.5v-5.3h1.6v-1h-1.6v-2
			h-1v1.3c0,0.5-0.2,0.7-0.6,0.7h-0.7v1h1.2v5.1c0,0.7,0.4,1.2,1.2,1.2H560.9z M565.6,86.2c1.9,0,3.3-1.5,3.3-3.8s-1.3-3.8-3.3-3.8
			c-1.9,0-3.3,1.5-3.3,3.8S563.7,86.2,565.6,86.2z M565.6,85.2c-1.2,0-2.1-0.7-2.1-2.3v-1c0-1.5,0.9-2.3,2.1-2.3
			c1.2,0,2.1,0.7,2.1,2.3v1C567.7,84.4,566.8,85.2,565.6,85.2z M572,86v-5c0-0.9,0.8-1.4,1.7-1.4c1.1,0,1.6,0.7,1.6,1.9V86h1.1v-5
			c0-0.9,0.8-1.4,1.7-1.4c1.1,0,1.6,0.7,1.6,1.9V86h1.1v-4.6c0-1.8-0.9-2.8-2.4-2.8c-1.2,0-1.9,0.7-2.2,1.5h0
			c-0.4-1-1.3-1.5-2.2-1.5c-1.1,0-1.6,0.6-1.9,1.3H572v-1.2h-1.1V86H572z M586,86.2c1.4,0,2.4-0.7,2.9-1.7l-0.8-0.6
			c-0.4,0.8-1.1,1.2-2,1.2c-1.3,0-2.1-0.9-2.1-2.2v-0.3h5.2v-0.5c0-2-1.2-3.5-3.1-3.5c-2,0-3.2,1.5-3.2,3.8S584,86.2,586,86.2z
			 M586,79.5c1.1,0,1.9,0.9,1.9,2.1v0.2h-4v-0.1C583.9,80.5,584.8,79.5,586,79.5z M592.3,86v-4.9c0-0.7,0.7-1.2,1.9-1.2h0.7v-1.1
			h-0.4c-1.2,0-1.8,0.6-2.1,1.3h-0.1v-1.3h-1.1V86H592.3z M599.6,82.3v-1.2h-3.7v1.2H599.6z M604.8,86.2c1.9,0,3.3-1.5,3.3-3.8
			s-1.3-3.8-3.3-3.8s-3.3,1.5-3.3,3.8S602.8,86.2,604.8,86.2z M604.8,85.2c-1.2,0-2.1-0.7-2.1-2.3v-1c0-1.5,0.9-2.3,2.1-2.3
			c1.2,0,2.1,0.7,2.1,2.3v1C606.8,84.4,606,85.2,604.8,85.2z M611.1,86h1.4l1-3.5l0.6-2.2h0l0.6,2.2l1,3.5h1.4l1.9-7.2h-1l-0.8,3.1
			l-0.7,3.2h0l-0.9-3.2l-0.9-3.1h-1l-0.9,3.1l-0.9,3.2h0l-0.8-3.2l-0.8-3.1h-1.1L611.1,86z M622,86v-5c0-0.9,0.9-1.4,1.8-1.4
			c1.1,0,1.6,0.7,1.6,1.9V86h1.1v-4.6c0-1.8-0.9-2.8-2.4-2.8c-1.1,0-1.7,0.5-2,1.3H622v-1.2h-1.1V86H622z M631.7,86.2
			c1.4,0,2.4-0.7,2.9-1.7l-0.8-0.6c-0.4,0.8-1.1,1.2-2,1.2c-1.3,0-2.1-0.9-2.1-2.2v-0.3h5.2v-0.5c0-2-1.2-3.5-3.1-3.5
			c-2,0-3.2,1.5-3.2,3.8S629.8,86.2,631.7,86.2z M631.7,79.5c1.1,0,1.9,0.9,1.9,2.1v0.2h-4v-0.1C629.6,80.5,630.5,79.5,631.7,79.5z
			 M641.5,86h1.1V75.6h-1.1V80h-0.1c-0.4-0.9-1.1-1.3-2.1-1.3c-1.8,0-2.9,1.5-2.9,3.8s1.1,3.8,2.9,3.8c1,0,1.7-0.4,2.1-1.3h0.1V86z
			 M639.6,85.2c-1.3,0-2-0.9-2-2.2v-1.2c0-1.3,0.8-2.2,2-2.2c1,0,1.9,0.6,1.9,1.4v2.7C641.5,84.6,640.6,85.2,639.6,85.2z
			 M647.5,81.6c0-2.7-1.1-5.1-2.5-6.3h-1.1c1.6,1.4,2.5,3.7,2.5,5.7v1.2c0,2-1,4.3-2.5,5.7h1.1C646.3,86.7,647.5,84.4,647.5,81.6z"
			/>
	</g>
</g>
<rect x="512.5" y="48.5" class="st10" width="223" height="391"/>
<rect x="240.5" y="48.5" class="st1" width="223" height="391"/>
<rect x="241" y="49" class="st1" width="222" height="390"/>
<g>
	<defs>
		<rect id="SVGID_00000049943298601892371230000014324573188362808202_" x="240" y="48" width="213" height="48"/>
	</defs>
	<clipPath id="SVGID_00000071551431406141744770000002665843666036722110_">
		<use xlink:href="#SVGID_00000049943298601892371230000014324573188362808202_"  style="overflow:visible;"/>
	</clipPath>
	<g style="clip-path:url(#SVGID_00000071551431406141744770000002665843666036722110_);">
		<line class="st9" x1="242" y1="48" x2="242" y2="96"/>
		<path d="M263.6,68v-1.6H259v-2.5h4.1v-1.6H259v-2.4h4.6v-1.6h-6.4V68H263.6z M270,68h1.8V57.6H270v4.3h-0.1
			c-0.3-0.8-1.1-1.4-2-1.4c-1.8,0-2.9,1.4-2.9,3.8c0,2.4,1,3.8,2.9,3.8c1,0,1.8-0.6,2-1.4h0.1V68z M268.5,66.7
			c-0.9,0-1.6-0.7-1.6-1.7v-1.3c0-1,0.6-1.7,1.6-1.7c0.9,0,1.5,0.5,1.5,1.2v2.3C270,66.2,269.3,66.7,268.5,66.7z M280.6,68.6
			c0-1.3-0.8-2.1-2.6-2.1h-2c-0.6,0-1-0.2-1-0.5c0-0.3,0.2-0.5,0.5-0.7c0.3,0.1,0.7,0.1,1.1,0.1c2,0,3-1,3-2.5c0-0.9-0.4-1.6-1.1-2
			v-0.2h1.6v-1.4h-1.1c-0.7,0-1,0.4-1,1.1v0.2c-0.4-0.1-0.8-0.2-1.3-0.2c-2,0-3,1-3,2.5c0,1,0.4,1.7,1.3,2.1v0.1
			c-0.7,0.2-1.3,0.5-1.3,1.3c0,0.6,0.3,1.1,0.9,1.2v0.2c-0.8,0.1-1.3,0.6-1.3,1.4c0,1.1,0.9,1.7,3.4,1.7
			C279.6,71,280.6,70.1,280.6,68.6z M278.9,68.8c0,0.6-0.5,0.9-1.7,0.9h-0.9c-1.1,0-1.5-0.3-1.5-0.9c0-0.3,0.1-0.6,0.4-0.8h2.5
			C278.6,68.1,278.9,68.4,278.9,68.8z M276.8,64.2c-0.9,0-1.3-0.4-1.3-1.1v-0.2c0-0.7,0.5-1.1,1.3-1.1s1.3,0.4,1.3,1.1v0.2
			C278.1,63.8,277.6,64.2,276.8,64.2z M284.7,68.2c1.4,0,2.4-0.5,3-1.3l-1-1.1c-0.4,0.6-1,1-1.9,1c-1.2,0-1.8-0.7-1.8-1.8v-0.2h4.9
			v-0.6c0-2-1.1-3.7-3.3-3.7c-2.1,0-3.4,1.5-3.4,3.8C281.2,66.7,282.5,68.2,284.7,68.2z M284.6,61.9c0.9,0,1.4,0.7,1.4,1.7v0.1h-3
			v-0.1C283.1,62.6,283.7,61.9,284.6,61.9z M296,68.2c2.1,0,3.4-1.5,3.4-3.8c0-2.3-1.3-3.8-3.4-3.8c-2.1,0-3.4,1.5-3.4,3.8
			C292.7,66.7,294,68.2,296,68.2z M296,66.7c-0.9,0-1.5-0.6-1.5-1.7v-1.4c0-1.1,0.6-1.7,1.5-1.7c0.9,0,1.5,0.6,1.5,1.7V65
			C297.6,66.1,297,66.7,296,66.7z M303,68v-4.5c0-0.8,0.6-1.1,1.8-1.1h0.6v-1.7H305c-1.2,0-1.8,0.7-1.9,1.5H303v-1.5h-1.8V68H303z
			 M313.2,68.2c2.1,0,3.4-1.5,3.4-3.8c0-2.3-1.3-3.8-3.4-3.8c-2.1,0-3.4,1.5-3.4,3.8C309.8,66.7,311.1,68.2,313.2,68.2z M313.2,66.7
			c-0.9,0-1.5-0.6-1.5-1.7v-1.4c0-1.1,0.6-1.7,1.5-1.7c0.9,0,1.5,0.6,1.5,1.7V65C314.7,66.1,314.2,66.7,313.2,66.7z M320.6,68h1.3
			v-1.4h-1.4v-4.5h1.5v-1.4h-1.5v-2h-1.6v1.2c0,0.5-0.2,0.8-0.7,0.8h-0.6v1.4h1.1v4C318.7,67.3,319.4,68,320.6,68z M323.7,68h1.8
			v-4.8c0-0.8,0.7-1.2,1.5-1.2c0.9,0,1.2,0.5,1.2,1.6V68h1.8v-4.6c0-1.8-0.8-2.9-2.3-2.9c-1.1,0-1.8,0.6-2,1.4h-0.1v-4.3h-1.8V68z
			 M335.1,68.2c1.4,0,2.4-0.5,3-1.3l-1-1.1c-0.4,0.6-1,1-1.9,1c-1.2,0-1.8-0.7-1.8-1.8v-0.2h4.9v-0.6c0-2-1-3.7-3.3-3.7
			c-2.1,0-3.4,1.5-3.4,3.8C331.6,66.7,332.9,68.2,335.1,68.2z M335,61.9c0.9,0,1.4,0.7,1.4,1.7v0.1h-3v-0.1
			C333.5,62.6,334.1,61.9,335,61.9z M341.9,68v-4.5c0-0.8,0.6-1.1,1.8-1.1h0.6v-1.7h-0.4c-1.2,0-1.8,0.7-1.9,1.5h-0.1v-1.5h-1.8V68
			H341.9z M353.7,68h1.8V57.6h-1.8v4.3h-0.1c-0.3-0.8-1-1.4-2-1.4c-1.8,0-2.9,1.4-2.9,3.8c0,2.4,1,3.8,2.9,3.8c1,0,1.8-0.6,2-1.4
			h0.1V68z M352.2,66.7c-0.9,0-1.6-0.7-1.6-1.7v-1.3c0-1,0.6-1.7,1.6-1.7c0.9,0,1.5,0.5,1.5,1.2v2.3
			C353.7,66.2,353.1,66.7,352.2,66.7z M359.6,68.2c1.1,0,1.9-0.5,2.1-1.4h0.1c0.1,0.8,0.6,1.3,1.4,1.3h1v-1.4h-0.7v-3.4
			c0-1.7-1-2.6-3-2.6c-1.5,0-2.3,0.6-2.9,1.4l1.1,1c0.4-0.5,0.8-0.9,1.7-0.9c1,0,1.4,0.5,1.4,1.3v0.5h-1.2c-2,0-3.1,0.7-3.1,2.2
			C357.2,67.3,358.1,68.2,359.6,68.2z M360.2,66.9c-0.7,0-1.1-0.3-1.1-0.9v-0.2c0-0.6,0.5-0.9,1.4-0.9h1.1v1
			C361.6,66.5,361,66.9,360.2,66.9z M368,68h1.3v-1.4h-1.4v-4.5h1.5v-1.4h-1.5v-2h-1.6v1.2c0,0.5-0.2,0.8-0.7,0.8H365v1.4h1.1v4
			C366.1,67.3,366.7,68,368,68z M372.9,68.2c1.1,0,1.9-0.5,2.1-1.4h0.1c0.1,0.8,0.6,1.3,1.4,1.3h1v-1.4h-0.7v-3.4c0-1.7-1-2.6-3-2.6
			c-1.5,0-2.3,0.6-2.9,1.4l1.1,1c0.3-0.5,0.8-0.9,1.7-0.9c1,0,1.4,0.5,1.4,1.3v0.5h-1.2c-2,0-3.1,0.7-3.1,2.2
			C370.6,67.3,371.4,68.2,372.9,68.2z M373.5,66.9c-0.7,0-1.1-0.3-1.1-0.9v-0.2c0-0.6,0.5-0.9,1.4-0.9h1.1v1
			C374.9,66.5,374.3,66.9,373.5,66.9z M385.4,68.2c1.4,0,2.4-0.6,2.9-1.9l-1.4-0.7c-0.3,0.7-0.7,1.1-1.5,1.1c-1,0-1.5-0.7-1.5-1.7
			v-1.3c0-1,0.5-1.7,1.5-1.7c0.8,0,1.2,0.4,1.4,1.1l1.5-0.7c-0.4-1.1-1.4-1.8-2.9-1.8c-2.2,0-3.4,1.5-3.4,3.8
			C382,66.7,383.2,68.2,385.4,68.2z M392.7,68.2c1.4,0,2.4-0.5,3-1.3l-1-1.1c-0.4,0.6-1,1-1.9,1c-1.2,0-1.8-0.7-1.8-1.8v-0.2h4.9
			v-0.6c0-2-1-3.7-3.3-3.7c-2.1,0-3.4,1.5-3.4,3.8C389.3,66.7,390.6,68.2,392.7,68.2z M392.7,61.9c0.9,0,1.4,0.7,1.4,1.7v0.1h-3
			v-0.1C391.2,62.6,391.8,61.9,392.7,61.9z M399.5,68v-4.8c0-0.8,0.7-1.2,1.5-1.2c0.9,0,1.2,0.5,1.2,1.6V68h1.8v-4.6
			c0-1.8-0.8-2.9-2.3-2.9c-1.1,0-1.8,0.6-2,1.4h-0.1v-1.2h-1.8V68H399.5z M408.4,68h1.3v-1.4h-1.4v-4.5h1.5v-1.4h-1.5v-2h-1.6v1.2
			c0,0.5-0.2,0.8-0.7,0.8h-0.6v1.4h1.1v4C406.5,67.3,407.2,68,408.4,68z M414.4,68.2c1.4,0,2.4-0.5,3-1.3l-1-1.1c-0.4,0.6-1,1-1.9,1
			c-1.2,0-1.8-0.7-1.8-1.8v-0.2h4.9v-0.6c0-2-1-3.7-3.3-3.7c-2.1,0-3.4,1.5-3.4,3.8C411,66.7,412.3,68.2,414.4,68.2z M414.4,61.9
			c0.9,0,1.4,0.7,1.4,1.7v0.1h-3v-0.1C412.9,62.6,413.5,61.9,414.4,61.9z M421.2,68v-4.5c0-0.8,0.6-1.1,1.8-1.1h0.6v-1.7h-0.4
			c-1.2,0-1.8,0.7-1.9,1.5h-0.1v-1.5h-1.8V68H421.2z M436.7,68l-3.2-9.8h-2.3l-3.3,9.8h1.9l0.8-2.5h3.5l0.8,2.5H436.7z M433.5,63.9
			h-2.6l1.2-4h0.1L433.5,63.9z"/>
		<path d="M257.2,81.6c0,2.7,1.1,5.1,2.5,6.3h1.1c-1.5-1.3-2.5-3.7-2.5-5.7V81c0-2,1-4.3,2.5-5.7h-1.1
			C258.3,76.6,257.2,78.9,257.2,81.6z M265.6,86.2c1.6,0,2.8-0.9,3.4-2.2l-0.9-0.6c-0.4,1.1-1.2,1.8-2.5,1.8c-1.7,0-2.7-1.2-2.7-3.2
			v-1.5c0-2,1-3.3,2.7-3.3c1.2,0,2,0.7,2.4,1.7l1-0.6c-0.6-1.4-1.7-2.1-3.4-2.1c-2.5,0-3.9,1.8-3.9,5.1S263.1,86.2,265.6,86.2z
			 M275.3,86h1.1v-7.2h-1.1v5c0,1-0.9,1.4-1.8,1.4c-1.1,0-1.7-0.7-1.7-1.9v-4.4h-1.1v4.6c0,1.8,1,2.8,2.4,2.8c1.2,0,1.8-0.7,2-1.3
			h0.1V86z M281.2,86.2c1.7,0,2.7-0.9,2.7-2.3c0-1.1-0.6-1.8-2.2-2l-0.6-0.1c-0.9-0.1-1.4-0.4-1.4-1.1c0-0.7,0.5-1.1,1.4-1.1
			s1.5,0.4,1.9,0.9l0.7-0.7c-0.6-0.7-1.4-1.2-2.5-1.2c-1.5,0-2.6,0.7-2.6,2.1c0,1.3,1,1.9,2.3,2.1l0.6,0.1c1,0.1,1.3,0.6,1.3,1.1
			c0,0.7-0.6,1.2-1.5,1.2c-0.9,0-1.6-0.4-2.1-1.1l-0.8,0.6C279,85.6,279.9,86.2,281.2,86.2z M288.9,86v-1h-1.5v-5.3h1.6v-1h-1.6v-2
			h-1v1.3c0,0.5-0.2,0.7-0.6,0.7h-0.7v1h1.2v5.1c0,0.7,0.4,1.2,1.2,1.2H288.9z M293.6,86.2c1.9,0,3.3-1.5,3.3-3.8s-1.3-3.8-3.3-3.8
			s-3.3,1.5-3.3,3.8S291.7,86.2,293.6,86.2z M293.6,85.2c-1.2,0-2.1-0.7-2.1-2.3v-1c0-1.5,0.9-2.3,2.1-2.3s2.1,0.7,2.1,2.3v1
			C295.7,84.4,294.8,85.2,293.6,85.2z M300,86v-5c0-0.9,0.8-1.4,1.7-1.4c1.1,0,1.6,0.7,1.6,1.9V86h1.1v-5c0-0.9,0.8-1.4,1.7-1.4
			c1.1,0,1.6,0.7,1.6,1.9V86h1.1v-4.6c0-1.8-0.9-2.8-2.4-2.8c-1.2,0-1.9,0.7-2.2,1.5h0c-0.4-1-1.3-1.5-2.2-1.5
			c-1.1,0-1.6,0.6-1.9,1.3H300v-1.2h-1.1V86H300z M314,86.2c1.4,0,2.4-0.7,2.9-1.7l-0.8-0.6c-0.4,0.8-1.1,1.2-2,1.2
			c-1.3,0-2.1-0.9-2.1-2.2v-0.3h5.2v-0.5c0-2-1.2-3.5-3.1-3.5c-2,0-3.2,1.5-3.2,3.8S312,86.2,314,86.2z M314,79.5
			c1.1,0,1.9,0.9,1.9,2.1v0.2h-4v-0.1C311.9,80.5,312.8,79.5,314,79.5z M320.3,86v-4.9c0-0.7,0.7-1.2,1.9-1.2h0.7v-1.1h-0.4
			c-1.2,0-1.8,0.6-2.1,1.3h-0.1v-1.3h-1.1V86H320.3z M327.6,82.3v-1.2h-3.7v1.2H327.6z M332.8,86.2c1.9,0,3.3-1.5,3.3-3.8
			s-1.3-3.8-3.3-3.8c-1.9,0-3.3,1.5-3.3,3.8S330.8,86.2,332.8,86.2z M332.8,85.2c-1.2,0-2.1-0.7-2.1-2.3v-1c0-1.5,0.9-2.3,2.1-2.3
			c1.2,0,2.1,0.7,2.1,2.3v1C334.8,84.4,334,85.2,332.8,85.2z M339.1,86h1.4l1-3.5l0.6-2.2h0l0.6,2.2l1,3.5h1.4l1.9-7.2h-1.1
			l-0.8,3.1l-0.7,3.2h0l-0.9-3.2l-0.9-3.1h-1l-0.9,3.1l-0.9,3.2h0l-0.8-3.2l-0.8-3.1h-1.1L339.1,86z M350,86v-5
			c0-0.9,0.9-1.4,1.8-1.4c1.1,0,1.6,0.7,1.6,1.9V86h1.1v-4.6c0-1.8-0.9-2.8-2.4-2.8c-1.1,0-1.7,0.5-2,1.3H350v-1.2h-1.1V86H350z
			 M359.7,86.2c1.4,0,2.4-0.7,2.9-1.7l-0.8-0.6c-0.4,0.8-1.1,1.2-2,1.2c-1.3,0-2.1-0.9-2.1-2.2v-0.3h5.2v-0.5c0-2-1.2-3.5-3.1-3.5
			c-2,0-3.2,1.5-3.2,3.8S357.8,86.2,359.7,86.2z M359.7,79.5c1.1,0,1.9,0.9,1.9,2.1v0.2h-4v-0.1C357.6,80.5,358.5,79.5,359.7,79.5z
			 M369.5,86h1.1V75.6h-1.1V80h-0.1c-0.4-0.9-1.1-1.3-2.1-1.3c-1.8,0-2.9,1.5-2.9,3.8s1.1,3.8,2.9,3.8c1,0,1.7-0.4,2.1-1.3h0.1V86z
			 M367.6,85.2c-1.3,0-2-0.9-2-2.2v-1.2c0-1.3,0.8-2.2,2-2.2c1,0,1.9,0.6,1.9,1.4v2.7C369.5,84.6,368.6,85.2,367.6,85.2z
			 M375.5,81.6c0-2.7-1.1-5.1-2.5-6.3h-1.1c1.6,1.4,2.5,3.7,2.5,5.7v1.2c0,2-1,4.3-2.5,5.7h1.1C374.3,86.7,375.5,84.4,375.5,81.6z"
			/>
	</g>
</g>
<rect x="240.5" y="48.5" class="st10" width="223" height="391"/>
<rect x="784.5" y="48.5" class="st1" width="223" height="391"/>
<rect x="785" y="49" class="st1" width="222" height="390"/>
<g>
	<defs>
		<rect id="SVGID_00000029748718439144012260000011223896501948012203_" x="784" y="48" width="213" height="48"/>
	</defs>
	<clipPath id="SVGID_00000013180156586104753350000007362196579473769389_">
		<use xlink:href="#SVGID_00000029748718439144012260000011223896501948012203_"  style="overflow:visible;"/>
	</clipPath>
	<g style="clip-path:url(#SVGID_00000013180156586104753350000007362196579473769389_);">
		<line class="st9" x1="786" y1="48" x2="786" y2="96"/>
		<path d="M807.6,68v-1.6H803v-2.5h4.1v-1.6H803v-2.4h4.6v-1.6h-6.4V68H807.6z M814,68h1.8V57.6H814v4.3h-0.1c-0.3-0.8-1-1.4-2-1.4
			c-1.8,0-2.9,1.4-2.9,3.8c0,2.4,1,3.8,2.9,3.8c1,0,1.8-0.6,2-1.4h0.1V68z M812.5,66.7c-0.9,0-1.6-0.7-1.6-1.7v-1.3
			c0-1,0.6-1.7,1.6-1.7c0.9,0,1.5,0.5,1.5,1.2v2.3C814,66.2,813.3,66.7,812.5,66.7z M824.6,68.6c0-1.3-0.8-2.1-2.6-2.1h-2
			c-0.6,0-1-0.2-1-0.5c0-0.3,0.2-0.5,0.5-0.7c0.3,0.1,0.7,0.1,1.1,0.1c2,0,3-1,3-2.5c0-0.9-0.4-1.6-1.1-2v-0.2h1.6v-1.4h-1.1
			c-0.7,0-1,0.4-1,1.1v0.2c-0.4-0.1-0.8-0.2-1.3-0.2c-2,0-3,1-3,2.5c0,1,0.4,1.7,1.3,2.1v0.1c-0.7,0.2-1.3,0.5-1.3,1.3
			c0,0.6,0.3,1.1,0.9,1.2v0.2c-0.8,0.1-1.3,0.6-1.3,1.4c0,1.1,0.9,1.7,3.4,1.7C823.6,71,824.6,70.1,824.6,68.6z M822.9,68.8
			c0,0.6-0.5,0.9-1.7,0.9h-0.9c-1.1,0-1.5-0.3-1.5-0.9c0-0.3,0.1-0.6,0.4-0.8h2.5C822.6,68.1,822.9,68.4,822.9,68.8z M820.8,64.2
			c-0.9,0-1.3-0.4-1.3-1.1v-0.2c0-0.7,0.5-1.1,1.3-1.1s1.3,0.4,1.3,1.1v0.2C822.1,63.8,821.6,64.2,820.8,64.2z M828.7,68.2
			c1.4,0,2.4-0.5,3-1.3l-1-1.1c-0.4,0.6-1,1-1.9,1c-1.2,0-1.8-0.7-1.8-1.8v-0.2h4.9v-0.6c0-2-1-3.7-3.3-3.7c-2.1,0-3.4,1.5-3.4,3.8
			C825.2,66.7,826.5,68.2,828.7,68.2z M828.6,61.9c0.9,0,1.4,0.7,1.4,1.7v0.1h-3v-0.1C827.1,62.6,827.7,61.9,828.6,61.9z M840,68.2
			c2.1,0,3.4-1.5,3.4-3.8c0-2.3-1.3-3.8-3.4-3.8c-2.1,0-3.4,1.5-3.4,3.8C836.7,66.7,838,68.2,840,68.2z M840,66.7
			c-0.9,0-1.5-0.6-1.5-1.7v-1.4c0-1.1,0.6-1.7,1.5-1.7c0.9,0,1.5,0.6,1.5,1.7V65C841.6,66.1,841,66.7,840,66.7z M847,68v-4.5
			c0-0.8,0.6-1.1,1.8-1.1h0.6v-1.7H849c-1.2,0-1.8,0.7-1.9,1.5H847v-1.5h-1.8V68H847z M857.2,68.2c2.1,0,3.4-1.5,3.4-3.8
			c0-2.3-1.3-3.8-3.4-3.8c-2.1,0-3.4,1.5-3.4,3.8C853.8,66.7,855.1,68.2,857.2,68.2z M857.2,66.7c-0.9,0-1.5-0.6-1.5-1.7v-1.4
			c0-1.1,0.6-1.7,1.5-1.7c0.9,0,1.5,0.6,1.5,1.7V65C858.7,66.1,858.2,66.7,857.2,66.7z M864.6,68h1.3v-1.4h-1.4v-4.5h1.5v-1.4h-1.5
			v-2h-1.6v1.2c0,0.5-0.2,0.8-0.7,0.8h-0.6v1.4h1.1v4C862.7,67.3,863.4,68,864.6,68z M867.7,68h1.8v-4.8c0-0.8,0.7-1.2,1.5-1.2
			c0.9,0,1.2,0.5,1.2,1.6V68h1.8v-4.6c0-1.8-0.8-2.9-2.3-2.9c-1.1,0-1.8,0.6-2,1.4h-0.1v-4.3h-1.8V68z M879.1,68.2
			c1.4,0,2.4-0.5,3-1.3l-1-1.1c-0.4,0.6-1,1-1.9,1c-1.2,0-1.8-0.7-1.8-1.8v-0.2h4.9v-0.6c0-2-1.1-3.7-3.3-3.7
			c-2.1,0-3.4,1.5-3.4,3.8C875.6,66.7,876.9,68.2,879.1,68.2z M879,61.9c0.9,0,1.4,0.7,1.4,1.7v0.1h-3v-0.1
			C877.5,62.6,878.1,61.9,879,61.9z M885.9,68v-4.5c0-0.8,0.6-1.1,1.8-1.1h0.6v-1.7h-0.4c-1.2,0-1.8,0.7-1.9,1.5h-0.1v-1.5h-1.8V68
			H885.9z M897.7,68h1.8V57.6h-1.8v4.3h-0.1c-0.3-0.8-1-1.4-2-1.4c-1.8,0-2.9,1.4-2.9,3.8c0,2.4,1,3.8,2.9,3.8c1,0,1.8-0.6,2-1.4
			h0.1V68z M896.2,66.7c-0.9,0-1.6-0.7-1.6-1.7v-1.3c0-1,0.6-1.7,1.6-1.7c0.9,0,1.5,0.5,1.5,1.2v2.3
			C897.7,66.2,897.1,66.7,896.2,66.7z M903.6,68.2c1.1,0,1.9-0.5,2.1-1.4h0.1c0.1,0.8,0.6,1.3,1.4,1.3h1v-1.4h-0.7v-3.4
			c0-1.7-1.1-2.6-3-2.6c-1.5,0-2.3,0.6-2.9,1.4l1.1,1c0.4-0.5,0.8-0.9,1.7-0.9c1,0,1.4,0.5,1.4,1.3v0.5h-1.2c-2,0-3.1,0.7-3.1,2.2
			C901.2,67.3,902.1,68.2,903.6,68.2z M904.2,66.9c-0.7,0-1.1-0.3-1.1-0.9v-0.2c0-0.6,0.5-0.9,1.4-0.9h1.1v1
			C905.6,66.5,905,66.9,904.2,66.9z M912,68h1.3v-1.4h-1.4v-4.5h1.5v-1.4h-1.5v-2h-1.6v1.2c0,0.5-0.2,0.8-0.7,0.8H909v1.4h1.1v4
			C910.1,67.3,910.7,68,912,68z M916.9,68.2c1.1,0,1.9-0.5,2.1-1.4h0.1c0.1,0.8,0.6,1.3,1.4,1.3h1v-1.4h-0.7v-3.4c0-1.7-1-2.6-3-2.6
			c-1.5,0-2.3,0.6-2.9,1.4l1.1,1c0.3-0.5,0.8-0.9,1.7-0.9c1,0,1.4,0.5,1.4,1.3v0.5h-1.2c-2,0-3.1,0.7-3.1,2.2
			C914.6,67.3,915.4,68.2,916.9,68.2z M917.5,66.9c-0.7,0-1.1-0.3-1.1-0.9v-0.2c0-0.6,0.5-0.9,1.4-0.9h1.1v1
			C918.9,66.5,918.3,66.9,917.5,66.9z M929.4,68.2c1.4,0,2.4-0.6,2.9-1.9l-1.4-0.7c-0.3,0.7-0.7,1.1-1.5,1.1c-1,0-1.5-0.7-1.5-1.7
			v-1.3c0-1,0.5-1.7,1.5-1.7c0.8,0,1.2,0.4,1.4,1.1l1.5-0.7c-0.4-1.1-1.4-1.8-2.9-1.8c-2.2,0-3.4,1.5-3.4,3.8
			C926,66.7,927.2,68.2,929.4,68.2z M936.7,68.2c1.4,0,2.4-0.5,3-1.3l-1-1.1c-0.4,0.6-1,1-1.9,1c-1.2,0-1.8-0.7-1.8-1.8v-0.2h4.9
			v-0.6c0-2-1-3.7-3.3-3.7c-2.1,0-3.4,1.5-3.4,3.8C933.3,66.7,934.6,68.2,936.7,68.2z M936.7,61.9c0.9,0,1.4,0.7,1.4,1.7v0.1h-3
			v-0.1C935.2,62.6,935.8,61.9,936.7,61.9z M943.5,68v-4.8c0-0.8,0.7-1.2,1.5-1.2c0.9,0,1.2,0.5,1.2,1.6V68h1.8v-4.6
			c0-1.8-0.8-2.9-2.3-2.9c-1.1,0-1.8,0.6-2,1.4h-0.1v-1.2h-1.8V68H943.5z M952.4,68h1.3v-1.4h-1.4v-4.5h1.5v-1.4h-1.5v-2h-1.6v1.2
			c0,0.5-0.2,0.8-0.7,0.8h-0.6v1.4h1.1v4C950.5,67.3,951.2,68,952.4,68z M958.4,68.2c1.4,0,2.4-0.5,3-1.3l-1-1.1c-0.4,0.6-1,1-1.9,1
			c-1.2,0-1.8-0.7-1.8-1.8v-0.2h4.9v-0.6c0-2-1-3.7-3.3-3.7c-2.1,0-3.4,1.5-3.4,3.8C955,66.7,956.3,68.2,958.4,68.2z M958.4,61.9
			c0.9,0,1.4,0.7,1.4,1.7v0.1h-3v-0.1C956.9,62.6,957.5,61.9,958.4,61.9z M965.2,68v-4.5c0-0.8,0.6-1.1,1.8-1.1h0.6v-1.7h-0.4
			c-1.2,0-1.8,0.7-1.9,1.5h-0.1v-1.5h-1.8V68H965.2z M976.5,68.2c1.8,0,2.9-0.9,3.6-2.3l-1.5-0.9c-0.3,0.9-1,1.6-2.1,1.6
			c-1.4,0-2.3-1-2.3-2.6v-1.5c0-1.7,0.9-2.7,2.3-2.7c1.1,0,1.7,0.6,2,1.5l1.6-0.8c-0.7-1.5-1.8-2.3-3.6-2.3c-2.6,0-4.2,1.8-4.2,5.1
			C972.3,66.5,973.9,68.2,976.5,68.2z"/>
		<path d="M801.2,81.6c0,2.7,1.1,5.1,2.5,6.3h1.1c-1.5-1.3-2.5-3.7-2.5-5.7V81c0-2,1-4.3,2.5-5.7h-1.1
			C802.3,76.6,801.2,78.9,801.2,81.6z M809.6,86.2c1.6,0,2.8-0.9,3.4-2.2l-0.9-0.6c-0.4,1.1-1.2,1.8-2.5,1.8c-1.7,0-2.7-1.2-2.7-3.2
			v-1.5c0-2,1-3.3,2.7-3.3c1.2,0,2,0.7,2.4,1.7l1-0.6c-0.6-1.4-1.7-2.1-3.4-2.1c-2.5,0-3.9,1.8-3.9,5.1S807.1,86.2,809.6,86.2z
			 M819.3,86h1.1v-7.2h-1.1v5c0,1-0.9,1.4-1.8,1.4c-1.1,0-1.7-0.7-1.7-1.9v-4.4h-1.1v4.6c0,1.8,1,2.8,2.4,2.8c1.2,0,1.8-0.7,2-1.3
			h0.1V86z M825.2,86.2c1.7,0,2.7-0.9,2.7-2.3c0-1.1-0.6-1.8-2.2-2l-0.6-0.1c-0.9-0.1-1.4-0.4-1.4-1.1c0-0.7,0.5-1.1,1.4-1.1
			s1.5,0.4,1.9,0.9l0.7-0.7c-0.6-0.7-1.4-1.2-2.5-1.2c-1.5,0-2.6,0.7-2.6,2.1c0,1.3,1,1.9,2.3,2.1l0.6,0.1c1,0.1,1.3,0.6,1.3,1.1
			c0,0.7-0.6,1.2-1.5,1.2c-0.9,0-1.6-0.4-2.1-1.1l-0.8,0.6C823,85.6,823.9,86.2,825.2,86.2z M832.9,86v-1h-1.5v-5.3h1.6v-1h-1.6v-2
			h-1v1.3c0,0.5-0.2,0.7-0.6,0.7h-0.7v1h1.2v5.1c0,0.7,0.4,1.2,1.2,1.2H832.9z M837.6,86.2c1.9,0,3.3-1.5,3.3-3.8s-1.3-3.8-3.3-3.8
			c-1.9,0-3.3,1.5-3.3,3.8S835.7,86.2,837.6,86.2z M837.6,85.2c-1.2,0-2.1-0.7-2.1-2.3v-1c0-1.5,0.9-2.3,2.1-2.3
			c1.2,0,2.1,0.7,2.1,2.3v1C839.7,84.4,838.8,85.2,837.6,85.2z M844,86v-5c0-0.9,0.8-1.4,1.7-1.4c1.1,0,1.6,0.7,1.6,1.9V86h1.1v-5
			c0-0.9,0.8-1.4,1.7-1.4c1.1,0,1.6,0.7,1.6,1.9V86h1.1v-4.6c0-1.8-0.9-2.8-2.4-2.8c-1.2,0-1.9,0.7-2.2,1.5h0
			c-0.4-1-1.3-1.5-2.2-1.5c-1.1,0-1.6,0.6-1.9,1.3H844v-1.2h-1.1V86H844z M858,86.2c1.4,0,2.4-0.7,2.9-1.7l-0.8-0.6
			c-0.4,0.8-1.1,1.2-2,1.2c-1.3,0-2.1-0.9-2.1-2.2v-0.3h5.2v-0.5c0-2-1.2-3.5-3.1-3.5c-2,0-3.2,1.5-3.2,3.8S856,86.2,858,86.2z
			 M858,79.5c1.1,0,1.9,0.9,1.9,2.1v0.2h-4v-0.1C855.9,80.5,856.8,79.5,858,79.5z M864.3,86v-4.9c0-0.7,0.7-1.2,1.9-1.2h0.7v-1.1
			h-0.4c-1.2,0-1.8,0.6-2.1,1.3h-0.1v-1.3h-1.1V86H864.3z M871.6,82.3v-1.2h-3.7v1.2H871.6z M876.8,86.2c1.9,0,3.3-1.5,3.3-3.8
			s-1.3-3.8-3.3-3.8s-3.3,1.5-3.3,3.8S874.8,86.2,876.8,86.2z M876.8,85.2c-1.2,0-2.1-0.7-2.1-2.3v-1c0-1.5,0.9-2.3,2.1-2.3
			c1.2,0,2.1,0.7,2.1,2.3v1C878.8,84.4,878,85.2,876.8,85.2z M883.1,86h1.4l1-3.5l0.6-2.2h0l0.6,2.2l1,3.5h1.4l1.9-7.2h-1l-0.8,3.1
			l-0.7,3.2h0l-0.9-3.2l-0.9-3.1h-1l-0.9,3.1l-0.9,3.2h0l-0.8-3.2l-0.8-3.1h-1.1L883.1,86z M894,86v-5c0-0.9,0.9-1.4,1.8-1.4
			c1.1,0,1.6,0.7,1.6,1.9V86h1.1v-4.6c0-1.8-0.9-2.8-2.4-2.8c-1.1,0-1.7,0.5-2,1.3H894v-1.2h-1.1V86H894z M903.7,86.2
			c1.4,0,2.4-0.7,2.9-1.7l-0.8-0.6c-0.4,0.8-1.1,1.2-2,1.2c-1.3,0-2.1-0.9-2.1-2.2v-0.3h5.2v-0.5c0-2-1.2-3.5-3.1-3.5
			c-2,0-3.2,1.5-3.2,3.8S901.8,86.2,903.7,86.2z M903.7,79.5c1.1,0,1.9,0.9,1.9,2.1v0.2h-4v-0.1C901.6,80.5,902.5,79.5,903.7,79.5z
			 M913.5,86h1.1V75.6h-1.1V80h-0.1c-0.4-0.9-1.1-1.3-2.1-1.3c-1.8,0-2.9,1.5-2.9,3.8s1.1,3.8,2.9,3.8c1,0,1.7-0.4,2.1-1.3h0.1V86z
			 M911.6,85.2c-1.3,0-2-0.9-2-2.2v-1.2c0-1.3,0.8-2.2,2-2.2c1,0,1.9,0.6,1.9,1.4v2.7C913.5,84.6,912.6,85.2,911.6,85.2z
			 M919.5,81.6c0-2.7-1.1-5.1-2.5-6.3h-1.1c1.6,1.4,2.5,3.7,2.5,5.7v1.2c0,2-1,4.3-2.5,5.7h1.1C918.3,86.7,919.5,84.4,919.5,81.6z"
			/>
	</g>
</g>
<rect x="784.5" y="48.5" class="st10" width="223" height="391"/>
<path class="st13" d="M256.5,112.5H984c4.1,0,7.5,3.4,7.5,7.5v296c0,4.1-3.4,7.5-7.5,7.5H264c-4.1,0-7.5-3.4-7.5-7.5V112.5z"/>
<g>
	<defs>
		<rect id="SVGID_00000018235402373324554470000010837715466999479694_" x="256" y="112" width="181" height="48"/>
	</defs>
	<clipPath id="SVGID_00000114056444488860963640000000594171406370379416_">
		<use xlink:href="#SVGID_00000018235402373324554470000010837715466999479694_"  style="overflow:visible;"/>
	</clipPath>
	<g style="clip-path:url(#SVGID_00000114056444488860963640000000594171406370379416_);">
		<line class="st9" x1="258" y1="112" x2="258" y2="160"/>
		<path d="M277.6,139.8c0.7,0,1.2-0.6,1.2-1.2s-0.6-1.2-1.2-1.2s-1.2,0.6-1.2,1.2S276.9,139.8,277.6,139.8z"/>
		<path d="M282,138.5c-1.4,0-2.5-1.1-2.5-2.5s1.1-2.5,2.5-2.5s2.5,1.1,2.5,2.5S283.4,138.5,282,138.5z M282,134.8
			c-0.7,0-1.2,0.6-1.2,1.2s0.6,1.2,1.2,1.2s1.2-0.6,1.2-1.2S282.7,134.8,282,134.8z"/>
		<path d="M286.4,134.8c0.7,0,1.2-0.6,1.2-1.2s-0.6-1.2-1.2-1.2s-1.2,0.6-1.2,1.2S285.7,134.8,286.4,134.8z"/>
		<path d="M282,145.4c-0.1,0-0.2,0-0.3-0.1l-7.5-4.4c-0.2-0.1-0.3-0.3-0.3-0.5v-8.8c0-0.2,0.1-0.4,0.3-0.5l7.5-4.4
			c0.2-0.1,0.4-0.1,0.6,0l7.5,4.4l-0.6,1.1L282,128l-6.9,4v8l6.9,4l6.9-4v-4.6h1.2v5c0,0.2-0.1,0.4-0.3,0.5l-7.5,4.4
			C282.2,145.3,282.1,145.4,282,145.4L282,145.4z"/>
		<path d="M312.2,141.2c2.3,0,3.7-1.3,3.7-3.1c0-1.6-0.9-2.5-2.9-2.8l-0.9-0.2c-0.9-0.2-1.4-0.5-1.4-1.2c0-0.7,0.5-1.1,1.6-1.1
			c1,0,1.7,0.4,2.2,1l1.3-1.2c-0.8-0.9-1.9-1.4-3.3-1.4c-2.2,0-3.5,1.1-3.5,2.9c0,1.6,1,2.5,2.9,2.8l0.9,0.1c1,0.2,1.3,0.6,1.3,1.2
			c0,0.8-0.6,1.4-1.7,1.4c-1,0-1.8-0.4-2.5-1.2l-1.2,1.2C309.4,140.5,310.5,141.2,312.2,141.2z M319.6,141.2c1.1,0,1.9-0.5,2.1-1.4
			h0.1c0.1,0.8,0.6,1.3,1.4,1.3h1v-1.4h-0.7v-3.4c0-1.7-1.1-2.6-3-2.6c-1.5,0-2.3,0.6-2.9,1.4l1.1,1c0.4-0.5,0.8-0.9,1.7-0.9
			c1,0,1.4,0.5,1.4,1.3v0.5h-1.2c-2,0-3.1,0.7-3.1,2.2C317.2,140.3,318.1,141.2,319.6,141.2z M320.2,139.9c-0.7,0-1.1-0.3-1.1-0.9
			v-0.2c0-0.6,0.5-0.9,1.4-0.9h1.1v1C321.6,139.5,321,139.9,320.2,139.9z M328,141h1.3v-1.4h-1.4v-4.5h1.5v-1.4h-1.5v-2h-1.6v1.2
			c0,0.5-0.2,0.8-0.7,0.8H325v1.4h1.1v4C326.1,140.3,326.7,141,328,141z M334,141.2c1.4,0,2.4-0.5,3-1.3l-1-1.1c-0.4,0.6-1,1-1.9,1
			c-1.2,0-1.8-0.7-1.8-1.8v-0.2h4.9v-0.6c0-2-1.1-3.7-3.3-3.7c-2.1,0-3.4,1.5-3.4,3.8C330.5,139.7,331.8,141.2,334,141.2z
			 M333.9,134.9c0.9,0,1.4,0.7,1.4,1.7v0.1h-3v-0.1C332.4,135.6,333,134.9,333.9,134.9z M341.7,141v-1.4h-1v-8.9H339v8.6
			c0,1.1,0.6,1.8,1.8,1.8H341.7z M345.9,141v-1.4h-1v-8.9h-1.8v8.6c0,1.1,0.6,1.8,1.8,1.8H345.9z M348.3,132.6
			c0.7,0,1.1-0.4,1.1-0.9v-0.3c0-0.5-0.3-0.9-1.1-0.9c-0.7,0-1,0.4-1,0.9v0.3C347.3,132.2,347.6,132.6,348.3,132.6z M347.4,141h1.8
			v-7.3h-1.8V141z M353.8,141h1.3v-1.4h-1.4v-4.5h1.5v-1.4h-1.5v-2H352v1.2c0,0.5-0.2,0.8-0.7,0.8h-0.6v1.4h1.1v4
			C351.9,140.3,352.5,141,353.8,141z M359.8,141.2c1.4,0,2.4-0.5,3-1.3l-1-1.1c-0.4,0.6-1,1-1.9,1c-1.2,0-1.8-0.7-1.8-1.8v-0.2h4.9
			v-0.6c0-2-1.1-3.7-3.3-3.7c-2.1,0-3.4,1.5-3.4,3.8C356.3,139.7,357.6,141.2,359.8,141.2z M359.7,134.9c0.9,0,1.4,0.7,1.4,1.7v0.1
			h-3v-0.1C358.2,135.6,358.8,134.9,359.7,134.9z M371,141v-1.4h-1v-8.9h-1.8v8.6c0,1.1,0.6,1.8,1.8,1.8H371z M375.4,141.2
			c2.1,0,3.4-1.5,3.4-3.8c0-2.3-1.3-3.8-3.4-3.8c-2.1,0-3.4,1.5-3.4,3.8C372,139.7,373.3,141.2,375.4,141.2z M375.4,139.7
			c-0.9,0-1.5-0.6-1.5-1.7v-1.4c0-1.1,0.6-1.7,1.5-1.7c0.9,0,1.5,0.6,1.5,1.7v1.4C376.9,139.1,376.4,139.7,375.4,139.7z
			 M383.5,141.2c1.4,0,2.4-0.6,2.9-1.9l-1.4-0.7c-0.3,0.7-0.7,1.1-1.5,1.1c-1,0-1.5-0.7-1.5-1.7v-1.3c0-1,0.5-1.7,1.5-1.7
			c0.8,0,1.2,0.4,1.4,1.1l1.5-0.7c-0.4-1.1-1.4-1.8-2.9-1.8c-2.2,0-3.4,1.5-3.4,3.8C380.1,139.7,381.3,141.2,383.5,141.2z
			 M389.7,141.2c1.1,0,1.9-0.5,2.1-1.4h0.1c0.1,0.8,0.6,1.3,1.4,1.3h1v-1.4h-0.7v-3.4c0-1.7-1.1-2.6-3-2.6c-1.5,0-2.3,0.6-2.9,1.4
			l1.1,1c0.4-0.5,0.8-0.9,1.7-0.9c1,0,1.4,0.5,1.4,1.3v0.5h-1.2c-2,0-3.1,0.7-3.1,2.2C387.4,140.3,388.2,141.2,389.7,141.2z
			 M390.3,139.9c-0.7,0-1.1-0.3-1.1-0.9v-0.2c0-0.6,0.5-0.9,1.4-0.9h1.1v1C391.8,139.5,391.1,139.9,390.3,139.9z M398.1,141h1.3
			v-1.4H398v-4.5h1.5v-1.4H398v-2h-1.6v1.2c0,0.5-0.2,0.8-0.7,0.8h-0.6v1.4h1.1v4C396.2,140.3,396.9,141,398.1,141z M402.1,132.6
			c0.7,0,1-0.4,1-0.9v-0.3c0-0.5-0.3-0.9-1-0.9c-0.7,0-1,0.4-1,0.9v0.3C401.1,132.2,401.4,132.6,402.1,132.6z M401.2,141h1.8v-7.3
			h-1.8V141z M408.2,141.2c2.1,0,3.4-1.5,3.4-3.8c0-2.3-1.3-3.8-3.4-3.8c-2.1,0-3.4,1.5-3.4,3.8
			C404.8,139.7,406.1,141.2,408.2,141.2z M408.2,139.7c-0.9,0-1.5-0.6-1.5-1.7v-1.4c0-1.1,0.6-1.7,1.5-1.7c0.9,0,1.5,0.6,1.5,1.7
			v1.4C409.7,139.1,409.1,139.7,408.2,139.7z M415.1,141v-4.8c0-0.8,0.7-1.2,1.5-1.2c0.9,0,1.2,0.5,1.2,1.6v4.4h1.8v-4.6
			c0-1.8-0.8-2.9-2.3-2.9c-1.1,0-1.8,0.6-2,1.4h-0.1v-1.2h-1.8v7.3H415.1z"/>
	</g>
</g>
<path class="st10" d="M256.5,112.5H984c4.1,0,7.5,3.4,7.5,7.5v296c0,4.1-3.4,7.5-7.5,7.5H264c-4.1,0-7.5-3.4-7.5-7.5V112.5z"/>
<rect x="568" y="272" class="st15" width="48" height="48"/>
<path class="st1" d="M592,290.4c-0.4,0-0.7-0.1-1-0.3c-0.3-0.2-0.5-0.5-0.7-0.8c-0.1-0.3-0.2-0.7-0.1-1.1c0.1-0.4,0.3-0.7,0.5-1
	c0.3-0.3,0.6-0.4,1-0.5c0.4-0.1,0.7,0,1.1,0.1c0.3,0.1,0.6,0.4,0.8,0.7c0.2,0.3,0.3,0.7,0.3,1c0,0.5-0.2,1-0.5,1.3
	C593,290.2,592.5,290.4,592,290.4z M592,287.9c-0.1,0-0.2,0-0.3,0.1c-0.1,0.1-0.2,0.2-0.2,0.3c0,0.1-0.1,0.2,0,0.4
	c0,0.1,0.1,0.2,0.2,0.3c0.1,0.1,0.2,0.1,0.3,0.2c0.1,0,0.2,0,0.4,0c0.1,0,0.2-0.1,0.3-0.2c0.1-0.1,0.1-0.2,0.1-0.3
	c0-0.2-0.1-0.3-0.2-0.4C592.3,287.9,592.2,287.9,592,287.9z"/>
<path class="st1" d="M588.9,304.8c-0.4,0-0.7-0.1-1-0.3c-0.3-0.2-0.5-0.5-0.7-0.8c-0.1-0.3-0.2-0.7-0.1-1.1c0.1-0.4,0.3-0.7,0.5-1
	c0.3-0.3,0.6-0.4,1-0.5c0.4-0.1,0.7,0,1.1,0.1c0.3,0.1,0.6,0.4,0.8,0.7c0.2,0.3,0.3,0.7,0.3,1c0,0.5-0.2,1-0.5,1.3
	C589.8,304.6,589.4,304.7,588.9,304.8z M588.9,302.2c-0.1,0-0.2,0-0.3,0.1c-0.1,0.1-0.2,0.2-0.2,0.3c0,0.1-0.1,0.2,0,0.4
	c0,0.1,0.1,0.2,0.2,0.3c0.1,0.1,0.2,0.1,0.3,0.2c0.1,0,0.2,0,0.4,0c0.1,0,0.2-0.1,0.3-0.2c0.1-0.1,0.1-0.2,0.1-0.3
	c0-0.2-0.1-0.3-0.2-0.4C589.2,302.3,589,302.2,588.9,302.2z"/>
<path class="st1" d="M586.4,292.9c-0.4,0-0.7-0.1-1-0.3c-0.3-0.2-0.5-0.5-0.7-0.8c-0.1-0.3-0.2-0.7-0.1-1.1c0.1-0.4,0.3-0.7,0.5-1
	c0.3-0.3,0.6-0.4,1-0.5c0.4-0.1,0.7,0,1.1,0.1c0.3,0.1,0.6,0.4,0.8,0.7c0.2,0.3,0.3,0.7,0.3,1c0,0.5-0.2,1-0.5,1.3
	C587.3,292.7,586.9,292.9,586.4,292.9z M586.4,290.4c-0.1,0-0.2,0-0.3,0.1c-0.1,0.1-0.2,0.2-0.2,0.3c0,0.1-0.1,0.2,0,0.4
	c0,0.1,0.1,0.2,0.2,0.3c0.1,0.1,0.2,0.1,0.3,0.2c0.1,0,0.2,0,0.4,0c0.1,0,0.2-0.1,0.3-0.2c0.1-0.1,0.1-0.2,0.1-0.3
	c0-0.2-0.1-0.3-0.2-0.4C586.7,290.4,586.5,290.4,586.4,290.4z"/>
<path class="st1" d="M595.1,304.8c-0.4,0-0.7-0.1-1-0.3c-0.3-0.2-0.5-0.5-0.7-0.8c-0.1-0.3-0.2-0.7-0.1-1.1c0.1-0.4,0.3-0.7,0.5-1
	c0.3-0.3,0.6-0.4,1-0.5c0.4-0.1,0.7,0,1.1,0.1c0.3,0.1,0.6,0.4,0.8,0.7c0.2,0.3,0.3,0.7,0.3,1c0,0.5-0.2,1-0.5,1.3
	C596.1,304.6,595.6,304.7,595.1,304.8z M595.1,302.2c-0.1,0-0.2,0-0.3,0.1c-0.1,0.1-0.2,0.2-0.2,0.3c0,0.1-0.1,0.2,0,0.4
	c0,0.1,0.1,0.2,0.2,0.3c0.1,0.1,0.2,0.1,0.3,0.2c0.1,0,0.2,0,0.4,0c0.1,0,0.2-0.1,0.3-0.2c0.1-0.1,0.1-0.2,0.1-0.3
	c0-0.2-0.1-0.3-0.2-0.4C595.5,302.3,595.3,302.2,595.1,302.2z"/>
<path class="st1" d="M597.6,292.9c-0.4,0-0.7-0.1-1-0.3c-0.3-0.2-0.5-0.5-0.7-0.8c-0.1-0.3-0.2-0.7-0.1-1.1c0.1-0.4,0.3-0.7,0.5-1
	c0.3-0.3,0.6-0.4,1-0.5c0.4-0.1,0.7,0,1.1,0.1c0.3,0.1,0.6,0.4,0.8,0.7c0.2,0.3,0.3,0.7,0.3,1c0,0.5-0.2,1-0.5,1.3
	C598.6,292.7,598.1,292.9,597.6,292.9z M597.6,290.4c-0.1,0-0.2,0-0.3,0.1c-0.1,0.1-0.2,0.2-0.2,0.3c0,0.1-0.1,0.2,0,0.4
	c0,0.1,0.1,0.2,0.2,0.3c0.1,0.1,0.2,0.1,0.3,0.2c0.1,0,0.2,0,0.4,0c0.1,0,0.2-0.1,0.3-0.2c0.1-0.1,0.1-0.2,0.1-0.3
	c0-0.2-0.1-0.3-0.2-0.4C598,290.4,597.8,290.4,597.6,290.4z"/>
<path class="st1" d="M584.5,299.1c-0.4,0-0.7-0.1-1-0.3c-0.3-0.2-0.5-0.5-0.7-0.8c-0.1-0.3-0.2-0.7-0.1-1.1c0.1-0.4,0.3-0.7,0.5-1
	c0.3-0.3,0.6-0.4,1-0.5c0.4-0.1,0.7,0,1.1,0.1c0.3,0.1,0.6,0.4,0.8,0.7c0.2,0.3,0.3,0.7,0.3,1c0,0.5-0.2,1-0.5,1.3
	C585.5,298.9,585,299.1,584.5,299.1z M584.5,296.6c-0.1,0-0.2,0-0.3,0.1c-0.1,0.1-0.2,0.2-0.2,0.3c0,0.1-0.1,0.2,0,0.4
	c0,0.1,0.1,0.2,0.2,0.3c0.1,0.1,0.2,0.1,0.3,0.2c0.1,0,0.2,0,0.4,0c0.1,0,0.2-0.1,0.3-0.2c0.1-0.1,0.1-0.2,0.1-0.3
	c0-0.2-0.1-0.3-0.2-0.4C584.8,296.7,584.7,296.6,584.5,296.6z"/>
<path class="st1" d="M599.5,299.1c-0.4,0-0.7-0.1-1-0.3c-0.3-0.2-0.5-0.5-0.7-0.8c-0.1-0.3-0.2-0.7-0.1-1.1c0.1-0.4,0.3-0.7,0.5-1
	c0.3-0.3,0.6-0.4,1-0.5c0.4-0.1,0.7,0,1.1,0.1c0.3,0.1,0.6,0.4,0.8,0.7c0.2,0.3,0.3,0.7,0.3,1c0,0.5-0.2,1-0.5,1.3
	C600.5,298.9,600,299.1,599.5,299.1z M599.5,296.6c-0.1,0-0.2,0-0.3,0.1c-0.1,0.1-0.2,0.2-0.2,0.3c0,0.1-0.1,0.2,0,0.4
	c0,0.1,0.1,0.2,0.2,0.3c0.1,0.1,0.2,0.1,0.3,0.2c0.1,0,0.2,0,0.4,0c0.1,0,0.2-0.1,0.3-0.2c0.1-0.1,0.1-0.2,0.1-0.3
	c0-0.2-0.1-0.3-0.2-0.4C599.8,296.7,599.7,296.6,599.5,296.6z"/>
<path class="st1" d="M592,299.8c-0.7,0-1.5-0.2-2.1-0.6c-0.6-0.4-1.1-1-1.4-1.7c-0.3-0.7-0.4-1.4-0.2-2.2c0.1-0.7,0.5-1.4,1-1.9
	c0.5-0.5,1.2-0.9,1.9-1c0.7-0.1,1.5-0.1,2.2,0.2c0.7,0.3,1.3,0.8,1.7,1.4c0.4,0.6,0.6,1.3,0.6,2.1c0,1-0.4,1.9-1.1,2.6
	S593,299.7,592,299.8z M592,293.5c-0.5,0-1,0.1-1.4,0.4c-0.4,0.3-0.7,0.7-0.9,1.1c-0.2,0.5-0.2,1-0.1,1.4c0.1,0.5,0.3,0.9,0.7,1.3
	c0.3,0.3,0.8,0.6,1.3,0.7c0.5,0.1,1,0,1.4-0.1c0.5-0.2,0.8-0.5,1.1-0.9c0.3-0.4,0.4-0.9,0.4-1.4c0-0.7-0.3-1.3-0.7-1.8
	C593.3,293.8,592.7,293.5,592,293.5z"/>
<path d="M628.9,300.2c1.8,0,2.9-0.9,3.6-2.3l-1.5-0.9c-0.3,0.9-1,1.6-2.1,1.6c-1.4,0-2.3-1-2.3-2.6v-1.5c0-1.7,0.9-2.7,2.3-2.7
	c1.1,0,1.7,0.6,2,1.5l1.6-0.8c-0.7-1.5-1.8-2.3-3.6-2.3c-2.6,0-4.2,1.8-4.2,5.1C624.7,298.5,626.4,300.2,628.9,300.2z M636.9,300
	v-1.4h-1v-8.9h-1.8v8.6c0,1.1,0.6,1.8,1.8,1.8H636.9z M642.8,300h1.8v-7.3h-1.8v4.8c0,0.8-0.7,1.2-1.4,1.2c-0.9,0-1.2-0.5-1.2-1.6
	v-4.4h-1.8v4.6c0,1.8,0.8,2.9,2.3,2.9c1.2,0,1.8-0.7,2-1.4h0.1V300z M649.2,300.2c1.8,0,3-1,3-2.4c0-1.2-0.8-1.9-2.4-2.2l-0.7-0.1
	c-0.7-0.1-1-0.3-1-0.8c0-0.4,0.3-0.8,1.1-0.8c0.7,0,1.3,0.3,1.8,0.8l1-1c-0.7-0.7-1.4-1.1-2.9-1.1c-1.7,0-2.8,0.9-2.8,2.3
	c0,1.3,0.9,2,2.4,2.2l0.7,0.1c0.6,0.1,0.9,0.3,0.9,0.8c0,0.5-0.4,0.8-1.2,0.8c-0.8,0-1.5-0.4-2-1l-1.1,1.1
	C646.9,299.7,647.9,300.2,649.2,300.2z M656.2,300h1.3v-1.4h-1.4v-4.5h1.5v-1.4h-1.5v-2h-1.6v1.2c0,0.5-0.2,0.8-0.7,0.8h-0.6v1.4
	h1.1v4C654.3,299.3,654.9,300,656.2,300z M662.2,300.2c1.4,0,2.4-0.5,3-1.3l-1-1.1c-0.4,0.6-1,1-1.9,1c-1.2,0-1.8-0.7-1.8-1.8v-0.2
	h4.9v-0.6c0-2-1-3.7-3.3-3.7c-2.1,0-3.4,1.5-3.4,3.8C658.7,298.7,660,300.2,662.2,300.2z M662.1,293.9c0.9,0,1.4,0.7,1.4,1.7v0.1h-3
	v-0.1C660.6,294.6,661.2,293.9,662.1,293.9z M669,300v-4.5c0-0.8,0.6-1.1,1.8-1.1h0.6v-1.7H671c-1.2,0-1.8,0.7-1.9,1.5H669v-1.5
	h-1.8v7.3H669z M683.3,300v-1.5H681v-8.3h-2.8l-2.4,2.9l1.1,1l2.1-2.5h0.1v6.9h-2.7v1.5H683.3z"/>
<rect x="568" y="360" class="st15" width="48" height="48"/>
<path class="st1" d="M592,378.4c-0.4,0-0.7-0.1-1-0.3c-0.3-0.2-0.5-0.5-0.7-0.8c-0.1-0.3-0.2-0.7-0.1-1.1c0.1-0.4,0.3-0.7,0.5-1
	c0.3-0.3,0.6-0.4,1-0.5c0.4-0.1,0.7,0,1.1,0.1c0.3,0.1,0.6,0.4,0.8,0.7c0.2,0.3,0.3,0.7,0.3,1c0,0.5-0.2,1-0.5,1.3
	C593,378.2,592.5,378.4,592,378.4z M592,375.9c-0.1,0-0.2,0-0.3,0.1c-0.1,0.1-0.2,0.2-0.2,0.3c0,0.1-0.1,0.2,0,0.4
	c0,0.1,0.1,0.2,0.2,0.3c0.1,0.1,0.2,0.1,0.3,0.2c0.1,0,0.2,0,0.4,0c0.1,0,0.2-0.1,0.3-0.2c0.1-0.1,0.1-0.2,0.1-0.3
	c0-0.2-0.1-0.3-0.2-0.4C592.3,375.9,592.2,375.9,592,375.9z"/>
<path class="st1" d="M588.9,392.8c-0.4,0-0.7-0.1-1-0.3c-0.3-0.2-0.5-0.5-0.7-0.8c-0.1-0.3-0.2-0.7-0.1-1.1c0.1-0.4,0.3-0.7,0.5-1
	c0.3-0.3,0.6-0.4,1-0.5c0.4-0.1,0.7,0,1.1,0.1c0.3,0.1,0.6,0.4,0.8,0.7c0.2,0.3,0.3,0.7,0.3,1c0,0.5-0.2,1-0.5,1.3
	C589.8,392.6,589.4,392.7,588.9,392.8z M588.9,390.2c-0.1,0-0.2,0-0.3,0.1c-0.1,0.1-0.2,0.2-0.2,0.3c0,0.1-0.1,0.2,0,0.4
	c0,0.1,0.1,0.2,0.2,0.3c0.1,0.1,0.2,0.1,0.3,0.2c0.1,0,0.2,0,0.4,0c0.1,0,0.2-0.1,0.3-0.2c0.1-0.1,0.1-0.2,0.1-0.3
	c0-0.2-0.1-0.3-0.2-0.4C589.2,390.3,589,390.2,588.9,390.2z"/>
<path class="st1" d="M586.4,380.9c-0.4,0-0.7-0.1-1-0.3c-0.3-0.2-0.5-0.5-0.7-0.8c-0.1-0.3-0.2-0.7-0.1-1.1c0.1-0.4,0.3-0.7,0.5-1
	c0.3-0.3,0.6-0.4,1-0.5c0.4-0.1,0.7,0,1.1,0.1c0.3,0.1,0.6,0.4,0.8,0.7c0.2,0.3,0.3,0.7,0.3,1c0,0.5-0.2,1-0.5,1.3
	C587.3,380.7,586.9,380.9,586.4,380.9z M586.4,378.4c-0.1,0-0.2,0-0.3,0.1c-0.1,0.1-0.2,0.2-0.2,0.3c0,0.1-0.1,0.2,0,0.4
	c0,0.1,0.1,0.2,0.2,0.3c0.1,0.1,0.2,0.1,0.3,0.2c0.1,0,0.2,0,0.4,0c0.1,0,0.2-0.1,0.3-0.2c0.1-0.1,0.1-0.2,0.1-0.3
	c0-0.2-0.1-0.3-0.2-0.4C586.7,378.4,586.5,378.4,586.4,378.4z"/>
<path class="st1" d="M595.1,392.8c-0.4,0-0.7-0.1-1-0.3c-0.3-0.2-0.5-0.5-0.7-0.8c-0.1-0.3-0.2-0.7-0.1-1.1c0.1-0.4,0.3-0.7,0.5-1
	c0.3-0.3,0.6-0.4,1-0.5c0.4-0.1,0.7,0,1.1,0.1c0.3,0.1,0.6,0.4,0.8,0.7c0.2,0.3,0.3,0.7,0.3,1c0,0.5-0.2,1-0.5,1.3
	C596.1,392.6,595.6,392.7,595.1,392.8z M595.1,390.2c-0.1,0-0.2,0-0.3,0.1c-0.1,0.1-0.2,0.2-0.2,0.3c0,0.1-0.1,0.2,0,0.4
	c0,0.1,0.1,0.2,0.2,0.3c0.1,0.1,0.2,0.1,0.3,0.2c0.1,0,0.2,0,0.4,0c0.1,0,0.2-0.1,0.3-0.2c0.1-0.1,0.1-0.2,0.1-0.3
	c0-0.2-0.1-0.3-0.2-0.4C595.5,390.3,595.3,390.2,595.1,390.2z"/>
<path class="st1" d="M597.6,380.9c-0.4,0-0.7-0.1-1-0.3c-0.3-0.2-0.5-0.5-0.7-0.8c-0.1-0.3-0.2-0.7-0.1-1.1c0.1-0.4,0.3-0.7,0.5-1
	c0.3-0.3,0.6-0.4,1-0.5c0.4-0.1,0.7,0,1.1,0.1c0.3,0.1,0.6,0.4,0.8,0.7c0.2,0.3,0.3,0.7,0.3,1c0,0.5-0.2,1-0.5,1.3
	C598.6,380.7,598.1,380.9,597.6,380.9z M597.6,378.4c-0.1,0-0.2,0-0.3,0.1c-0.1,0.1-0.2,0.2-0.2,0.3c0,0.1-0.1,0.2,0,0.4
	c0,0.1,0.1,0.2,0.2,0.3c0.1,0.1,0.2,0.1,0.3,0.2c0.1,0,0.2,0,0.4,0c0.1,0,0.2-0.1,0.3-0.2c0.1-0.1,0.1-0.2,0.1-0.3
	c0-0.2-0.1-0.3-0.2-0.4C598,378.4,597.8,378.4,597.6,378.4z"/>
<path class="st1" d="M584.5,387.1c-0.4,0-0.7-0.1-1-0.3c-0.3-0.2-0.5-0.5-0.7-0.8c-0.1-0.3-0.2-0.7-0.1-1.1c0.1-0.4,0.3-0.7,0.5-1
	c0.3-0.3,0.6-0.4,1-0.5c0.4-0.1,0.7,0,1.1,0.1c0.3,0.1,0.6,0.4,0.8,0.7c0.2,0.3,0.3,0.7,0.3,1c0,0.5-0.2,1-0.5,1.3
	C585.5,386.9,585,387.1,584.5,387.1z M584.5,384.6c-0.1,0-0.2,0-0.3,0.1c-0.1,0.1-0.2,0.2-0.2,0.3c0,0.1-0.1,0.2,0,0.4
	c0,0.1,0.1,0.2,0.2,0.3c0.1,0.1,0.2,0.1,0.3,0.2c0.1,0,0.2,0,0.4,0c0.1,0,0.2-0.1,0.3-0.2c0.1-0.1,0.1-0.2,0.1-0.3
	c0-0.2-0.1-0.3-0.2-0.4C584.8,384.7,584.7,384.6,584.5,384.6z"/>
<path class="st1" d="M599.5,387.1c-0.4,0-0.7-0.1-1-0.3c-0.3-0.2-0.5-0.5-0.7-0.8c-0.1-0.3-0.2-0.7-0.1-1.1c0.1-0.4,0.3-0.7,0.5-1
	c0.3-0.3,0.6-0.4,1-0.5c0.4-0.1,0.7,0,1.1,0.1c0.3,0.1,0.6,0.4,0.8,0.7c0.2,0.3,0.3,0.7,0.3,1c0,0.5-0.2,1-0.5,1.3
	C600.5,386.9,600,387.1,599.5,387.1z M599.5,384.6c-0.1,0-0.2,0-0.3,0.1c-0.1,0.1-0.2,0.2-0.2,0.3c0,0.1-0.1,0.2,0,0.4
	c0,0.1,0.1,0.2,0.2,0.3c0.1,0.1,0.2,0.1,0.3,0.2c0.1,0,0.2,0,0.4,0c0.1,0,0.2-0.1,0.3-0.2c0.1-0.1,0.1-0.2,0.1-0.3
	c0-0.2-0.1-0.3-0.2-0.4C599.8,384.7,599.7,384.6,599.5,384.6z"/>
<path class="st1" d="M592,387.8c-0.7,0-1.5-0.2-2.1-0.6c-0.6-0.4-1.1-1-1.4-1.7c-0.3-0.7-0.4-1.4-0.2-2.2c0.1-0.7,0.5-1.4,1-1.9
	c0.5-0.5,1.2-0.9,1.9-1c0.7-0.1,1.5-0.1,2.2,0.2c0.7,0.3,1.3,0.8,1.7,1.4c0.4,0.6,0.6,1.3,0.6,2.1c0,1-0.4,1.9-1.1,2.6
	S593,387.7,592,387.8z M592,381.5c-0.5,0-1,0.1-1.4,0.4c-0.4,0.3-0.7,0.7-0.9,1.1c-0.2,0.5-0.2,1-0.1,1.4c0.1,0.5,0.3,0.9,0.7,1.3
	c0.3,0.3,0.8,0.6,1.3,0.7c0.5,0.1,1,0,1.4-0.1c0.5-0.2,0.8-0.5,1.1-0.9c0.3-0.4,0.4-0.9,0.4-1.4c0-0.7-0.3-1.3-0.7-1.8
	C593.3,381.8,592.7,381.5,592,381.5z"/>
<path d="M628.9,388.2c1.8,0,2.9-0.9,3.6-2.3l-1.5-0.9c-0.3,0.9-1,1.6-2.1,1.6c-1.4,0-2.3-1-2.3-2.6v-1.5c0-1.7,0.9-2.7,2.3-2.7
	c1.1,0,1.7,0.6,2,1.5l1.6-0.8c-0.7-1.5-1.8-2.3-3.6-2.3c-2.6,0-4.2,1.8-4.2,5.1C624.7,386.5,626.4,388.2,628.9,388.2z M636.9,388
	v-1.4h-1v-8.9h-1.8v8.6c0,1.1,0.6,1.8,1.8,1.8H636.9z M642.8,388h1.8v-7.3h-1.8v4.8c0,0.8-0.7,1.2-1.4,1.2c-0.9,0-1.2-0.5-1.2-1.6
	v-4.4h-1.8v4.6c0,1.8,0.8,2.9,2.3,2.9c1.2,0,1.8-0.7,2-1.4h0.1V388z M649.2,388.2c1.8,0,3-1,3-2.4c0-1.2-0.8-1.9-2.4-2.2l-0.7-0.1
	c-0.7-0.1-1-0.3-1-0.8c0-0.4,0.3-0.8,1.1-0.8c0.7,0,1.3,0.3,1.8,0.8l1-1c-0.7-0.7-1.4-1.1-2.9-1.1c-1.7,0-2.8,0.9-2.8,2.3
	c0,1.3,0.9,2,2.4,2.2l0.7,0.1c0.6,0.1,0.9,0.3,0.9,0.8c0,0.5-0.4,0.8-1.2,0.8c-0.8,0-1.5-0.4-2-1l-1.1,1.1
	C646.9,387.7,647.9,388.2,649.2,388.2z M656.2,388h1.3v-1.4h-1.4v-4.5h1.5v-1.4h-1.5v-2h-1.6v1.2c0,0.5-0.2,0.8-0.7,0.8h-0.6v1.4
	h1.1v4C654.3,387.3,654.9,388,656.2,388z M662.2,388.2c1.4,0,2.4-0.5,3-1.3l-1-1.1c-0.4,0.6-1,1-1.9,1c-1.2,0-1.8-0.7-1.8-1.8v-0.2
	h4.9v-0.6c0-2-1-3.7-3.3-3.7c-2.1,0-3.4,1.5-3.4,3.8C658.7,386.7,660,388.2,662.2,388.2z M662.1,381.9c0.9,0,1.4,0.7,1.4,1.7v0.1h-3
	v-0.1C660.6,382.6,661.2,381.9,662.1,381.9z M669,388v-4.5c0-0.8,0.6-1.1,1.8-1.1h0.6v-1.7H671c-1.2,0-1.8,0.7-1.9,1.5H669v-1.5
	h-1.8v7.3H669z M682.9,386.4h-4.8l2.1-1.7c1.4-1.1,2.5-2.2,2.5-3.8c0-1.7-1.2-2.9-3.2-2.9c-2,0-3,1.1-3.5,2.4l1.6,0.6
	c0.2-0.8,0.7-1.5,1.7-1.5c0.8,0,1.4,0.5,1.4,1.3v0.2c0,0.9-0.5,1.5-1.5,2.4l-3.1,2.7v1.7h6.8V386.4z"/>
<rect x="840" y="272" class="st15" width="48" height="48"/>
<path class="st1" d="M864,290.4c-0.4,0-0.7-0.1-1-0.3c-0.3-0.2-0.5-0.5-0.7-0.8c-0.1-0.3-0.2-0.7-0.1-1.1c0.1-0.4,0.3-0.7,0.5-1
	c0.3-0.3,0.6-0.4,1-0.5c0.4-0.1,0.7,0,1.1,0.1c0.3,0.1,0.6,0.4,0.8,0.7c0.2,0.3,0.3,0.7,0.3,1c0,0.5-0.2,1-0.5,1.3
	C865,290.2,864.5,290.4,864,290.4z M864,287.9c-0.1,0-0.2,0-0.3,0.1c-0.1,0.1-0.2,0.2-0.2,0.3c0,0.1-0.1,0.2,0,0.4
	c0,0.1,0.1,0.2,0.2,0.3c0.1,0.1,0.2,0.1,0.3,0.2c0.1,0,0.2,0,0.4,0c0.1,0,0.2-0.1,0.3-0.2c0.1-0.1,0.1-0.2,0.1-0.3
	c0-0.2-0.1-0.3-0.2-0.4C864.3,287.9,864.2,287.9,864,287.9z"/>
<path class="st1" d="M860.9,304.8c-0.4,0-0.7-0.1-1-0.3c-0.3-0.2-0.5-0.5-0.7-0.8c-0.1-0.3-0.2-0.7-0.1-1.1c0.1-0.4,0.3-0.7,0.5-1
	c0.3-0.3,0.6-0.4,1-0.5c0.4-0.1,0.7,0,1.1,0.1c0.3,0.1,0.6,0.4,0.8,0.7c0.2,0.3,0.3,0.7,0.3,1c0,0.5-0.2,1-0.5,1.3
	C861.8,304.6,861.4,304.7,860.9,304.8z M860.9,302.2c-0.1,0-0.2,0-0.3,0.1c-0.1,0.1-0.2,0.2-0.2,0.3c0,0.1-0.1,0.2,0,0.4
	c0,0.1,0.1,0.2,0.2,0.3c0.1,0.1,0.2,0.1,0.3,0.2c0.1,0,0.2,0,0.4,0c0.1,0,0.2-0.1,0.3-0.2c0.1-0.1,0.1-0.2,0.1-0.3
	c0-0.2-0.1-0.3-0.2-0.4C861.2,302.3,861,302.2,860.9,302.2z"/>
<path class="st1" d="M858.4,292.9c-0.4,0-0.7-0.1-1-0.3c-0.3-0.2-0.5-0.5-0.7-0.8c-0.1-0.3-0.2-0.7-0.1-1.1c0.1-0.4,0.3-0.7,0.5-1
	c0.3-0.3,0.6-0.4,1-0.5c0.4-0.1,0.7,0,1.1,0.1c0.3,0.1,0.6,0.4,0.8,0.7c0.2,0.3,0.3,0.7,0.3,1c0,0.5-0.2,1-0.5,1.3
	C859.3,292.7,858.9,292.9,858.4,292.9z M858.4,290.4c-0.1,0-0.2,0-0.3,0.1c-0.1,0.1-0.2,0.2-0.2,0.3c0,0.1-0.1,0.2,0,0.4
	c0,0.1,0.1,0.2,0.2,0.3c0.1,0.1,0.2,0.1,0.3,0.2c0.1,0,0.2,0,0.4,0c0.1,0,0.2-0.1,0.3-0.2c0.1-0.1,0.1-0.2,0.1-0.3
	c0-0.2-0.1-0.3-0.2-0.4C858.7,290.4,858.5,290.4,858.4,290.4z"/>
<path class="st1" d="M867.1,304.8c-0.4,0-0.7-0.1-1-0.3c-0.3-0.2-0.5-0.5-0.7-0.8c-0.1-0.3-0.2-0.7-0.1-1.1c0.1-0.4,0.3-0.7,0.5-1
	c0.3-0.3,0.6-0.4,1-0.5c0.4-0.1,0.7,0,1.1,0.1c0.3,0.1,0.6,0.4,0.8,0.7c0.2,0.3,0.3,0.7,0.3,1c0,0.5-0.2,1-0.5,1.3
	C868.1,304.6,867.6,304.7,867.1,304.8z M867.1,302.2c-0.1,0-0.2,0-0.3,0.1c-0.1,0.1-0.2,0.2-0.2,0.3c0,0.1-0.1,0.2,0,0.4
	c0,0.1,0.1,0.2,0.2,0.3c0.1,0.1,0.2,0.1,0.3,0.2c0.1,0,0.2,0,0.4,0c0.1,0,0.2-0.1,0.3-0.2c0.1-0.1,0.1-0.2,0.1-0.3
	c0-0.2-0.1-0.3-0.2-0.4C867.5,302.3,867.3,302.2,867.1,302.2z"/>
<path class="st1" d="M869.6,292.9c-0.4,0-0.7-0.1-1-0.3c-0.3-0.2-0.5-0.5-0.7-0.8c-0.1-0.3-0.2-0.7-0.1-1.1c0.1-0.4,0.3-0.7,0.5-1
	c0.3-0.3,0.6-0.4,1-0.5c0.4-0.1,0.7,0,1.1,0.1c0.3,0.1,0.6,0.4,0.8,0.7c0.2,0.3,0.3,0.7,0.3,1c0,0.5-0.2,1-0.5,1.3
	C870.6,292.7,870.1,292.9,869.6,292.9z M869.6,290.4c-0.1,0-0.2,0-0.3,0.1c-0.1,0.1-0.2,0.2-0.2,0.3c0,0.1-0.1,0.2,0,0.4
	c0,0.1,0.1,0.2,0.2,0.3c0.1,0.1,0.2,0.1,0.3,0.2c0.1,0,0.2,0,0.4,0c0.1,0,0.2-0.1,0.3-0.2c0.1-0.1,0.1-0.2,0.1-0.3
	c0-0.2-0.1-0.3-0.2-0.4C870,290.4,869.8,290.4,869.6,290.4z"/>
<path class="st1" d="M856.5,299.1c-0.4,0-0.7-0.1-1-0.3c-0.3-0.2-0.5-0.5-0.7-0.8c-0.1-0.3-0.2-0.7-0.1-1.1c0.1-0.4,0.3-0.7,0.5-1
	c0.3-0.3,0.6-0.4,1-0.5c0.4-0.1,0.7,0,1.1,0.1c0.3,0.1,0.6,0.4,0.8,0.7c0.2,0.3,0.3,0.7,0.3,1c0,0.5-0.2,1-0.5,1.3
	C857.5,298.9,857,299.1,856.5,299.1z M856.5,296.6c-0.1,0-0.2,0-0.3,0.1c-0.1,0.1-0.2,0.2-0.2,0.3c0,0.1-0.1,0.2,0,0.4
	c0,0.1,0.1,0.2,0.2,0.3c0.1,0.1,0.2,0.1,0.3,0.2c0.1,0,0.2,0,0.4,0c0.1,0,0.2-0.1,0.3-0.2c0.1-0.1,0.1-0.2,0.1-0.3
	c0-0.2-0.1-0.3-0.2-0.4C856.8,296.7,856.7,296.6,856.5,296.6z"/>
<path class="st1" d="M871.5,299.1c-0.4,0-0.7-0.1-1-0.3c-0.3-0.2-0.5-0.5-0.7-0.8c-0.1-0.3-0.2-0.7-0.1-1.1c0.1-0.4,0.3-0.7,0.5-1
	c0.3-0.3,0.6-0.4,1-0.5c0.4-0.1,0.7,0,1.1,0.1c0.3,0.1,0.6,0.4,0.8,0.7c0.2,0.3,0.3,0.7,0.3,1c0,0.5-0.2,1-0.5,1.3
	C872.5,298.9,872,299.1,871.5,299.1z M871.5,296.6c-0.1,0-0.2,0-0.3,0.1c-0.1,0.1-0.2,0.2-0.2,0.3c0,0.1-0.1,0.2,0,0.4
	c0,0.1,0.1,0.2,0.2,0.3c0.1,0.1,0.2,0.1,0.3,0.2c0.1,0,0.2,0,0.4,0c0.1,0,0.2-0.1,0.3-0.2c0.1-0.1,0.1-0.2,0.1-0.3
	c0-0.2-0.1-0.3-0.2-0.4C871.8,296.7,871.7,296.6,871.5,296.6z"/>
<path class="st1" d="M864,299.8c-0.7,0-1.5-0.2-2.1-0.6c-0.6-0.4-1.1-1-1.4-1.7c-0.3-0.7-0.4-1.4-0.2-2.2c0.1-0.7,0.5-1.4,1-1.9
	c0.5-0.5,1.2-0.9,1.9-1c0.7-0.1,1.5-0.1,2.2,0.2c0.7,0.3,1.3,0.8,1.7,1.4c0.4,0.6,0.6,1.3,0.6,2.1c0,1-0.4,1.9-1.1,2.6
	S865,299.7,864,299.8z M864,293.5c-0.5,0-1,0.1-1.4,0.4c-0.4,0.3-0.7,0.7-0.9,1.1c-0.2,0.5-0.2,1-0.1,1.4c0.1,0.5,0.3,0.9,0.7,1.3
	c0.3,0.3,0.8,0.6,1.3,0.7c0.5,0.1,1,0,1.4-0.1c0.5-0.2,0.8-0.5,1.1-0.9c0.3-0.4,0.4-0.9,0.4-1.4c0-0.7-0.3-1.3-0.7-1.8
	C865.3,293.8,864.7,293.5,864,293.5z"/>
<path d="M900.9,300.2c1.8,0,2.9-0.9,3.6-2.3l-1.5-0.9c-0.3,0.9-1,1.6-2.1,1.6c-1.4,0-2.3-1-2.3-2.6v-1.5c0-1.7,0.9-2.7,2.3-2.7
	c1.1,0,1.7,0.6,2,1.5l1.6-0.8c-0.7-1.5-1.8-2.3-3.6-2.3c-2.6,0-4.2,1.8-4.2,5.1C896.7,298.5,898.4,300.2,900.9,300.2z M908.9,300
	v-1.4h-1v-8.9h-1.8v8.6c0,1.1,0.6,1.8,1.8,1.8H908.9z M914.8,300h1.8v-7.3h-1.8v4.8c0,0.8-0.7,1.2-1.4,1.2c-0.9,0-1.2-0.5-1.2-1.6
	v-4.4h-1.8v4.6c0,1.8,0.8,2.9,2.3,2.9c1.2,0,1.8-0.7,2-1.4h0.1V300z M921.2,300.2c1.8,0,3-1,3-2.4c0-1.2-0.8-1.9-2.4-2.2l-0.7-0.1
	c-0.7-0.1-1-0.3-1-0.8c0-0.4,0.3-0.8,1.1-0.8c0.7,0,1.3,0.3,1.8,0.8l1-1c-0.7-0.7-1.4-1.1-2.9-1.1c-1.7,0-2.8,0.9-2.8,2.3
	c0,1.3,0.9,2,2.4,2.2l0.7,0.1c0.6,0.1,0.9,0.3,0.9,0.8c0,0.5-0.4,0.8-1.2,0.8c-0.8,0-1.5-0.4-2-1l-1.1,1.1
	C918.9,299.7,919.9,300.2,921.2,300.2z M928.2,300h1.3v-1.4h-1.4v-4.5h1.5v-1.4h-1.5v-2h-1.6v1.2c0,0.5-0.2,0.8-0.7,0.8h-0.6v1.4
	h1.1v4C926.3,299.3,926.9,300,928.2,300z M934.2,300.2c1.4,0,2.4-0.5,3-1.3l-1-1.1c-0.4,0.6-1,1-1.9,1c-1.2,0-1.8-0.7-1.8-1.8v-0.2
	h4.9v-0.6c0-2-1-3.7-3.3-3.7c-2.1,0-3.4,1.5-3.4,3.8C930.7,298.7,932,300.2,934.2,300.2z M934.1,293.9c0.9,0,1.4,0.7,1.4,1.7v0.1h-3
	v-0.1C932.6,294.6,933.2,293.9,934.1,293.9z M941,300v-4.5c0-0.8,0.6-1.1,1.8-1.1h0.6v-1.7H943c-1.2,0-1.8,0.7-1.9,1.5H941v-1.5
	h-1.8v7.3H941z M950,294.2v1.5h1c1.2,0,1.8,0.5,1.8,1.4v0.1c0,0.9-0.6,1.5-1.7,1.5c-1.1,0-1.7-0.6-2.1-1.3l-1.4,1
	c0.6,1,1.6,1.8,3.5,1.8c2.2,0,3.6-1.1,3.6-2.9c0-1.4-0.9-2.2-2-2.4v-0.1c1-0.2,1.9-1,1.9-2.2c0-1.6-1.3-2.5-3.3-2.5
	c-1.7,0-2.6,0.7-3.2,1.6l1.2,1.1c0.5-0.7,1.1-1.2,2-1.2c0.9,0,1.4,0.5,1.4,1.3v0.1c0,0.7-0.5,1.2-1.6,1.2H950z"/>
<rect x="840.5" y="360.5" class="st1" width="47" height="47"/>
<rect x="854" y="374" class="st1" width="20" height="20"/>
<path d="M864,378.4c-0.4,0-0.7-0.1-1-0.3c-0.3-0.2-0.5-0.5-0.7-0.8c-0.1-0.3-0.2-0.7-0.1-1.1c0.1-0.4,0.3-0.7,0.5-1
	c0.3-0.3,0.6-0.4,1-0.5c0.4-0.1,0.7,0,1.1,0.1c0.3,0.1,0.6,0.4,0.8,0.7c0.2,0.3,0.3,0.7,0.3,1c0,0.5-0.2,1-0.5,1.3
	C865,378.2,864.5,378.4,864,378.4z M864,375.9c-0.1,0-0.2,0-0.3,0.1c-0.1,0.1-0.2,0.2-0.2,0.3c0,0.1-0.1,0.2,0,0.4
	c0,0.1,0.1,0.2,0.2,0.3c0.1,0.1,0.2,0.1,0.3,0.2c0.1,0,0.2,0,0.4,0c0.1,0,0.2-0.1,0.3-0.2c0.1-0.1,0.1-0.2,0.1-0.3
	c0-0.2-0.1-0.3-0.2-0.4C864.3,375.9,864.2,375.9,864,375.9z"/>
<path d="M860.9,392.8c-0.4,0-0.7-0.1-1-0.3c-0.3-0.2-0.5-0.5-0.7-0.8c-0.1-0.3-0.2-0.7-0.1-1.1c0.1-0.4,0.3-0.7,0.5-1
	c0.3-0.3,0.6-0.4,1-0.5c0.4-0.1,0.7,0,1.1,0.1c0.3,0.1,0.6,0.4,0.8,0.7c0.2,0.3,0.3,0.7,0.3,1c0,0.5-0.2,1-0.5,1.3
	C861.8,392.6,861.4,392.7,860.9,392.8z M860.9,390.2c-0.1,0-0.2,0-0.3,0.1c-0.1,0.1-0.2,0.2-0.2,0.3c0,0.1-0.1,0.2,0,0.4
	c0,0.1,0.1,0.2,0.2,0.3c0.1,0.1,0.2,0.1,0.3,0.2c0.1,0,0.2,0,0.4,0c0.1,0,0.2-0.1,0.3-0.2c0.1-0.1,0.1-0.2,0.1-0.3
	c0-0.2-0.1-0.3-0.2-0.4C861.2,390.3,861,390.2,860.9,390.2z"/>
<path d="M858.4,380.9c-0.4,0-0.7-0.1-1-0.3c-0.3-0.2-0.5-0.5-0.7-0.8c-0.1-0.3-0.2-0.7-0.1-1.1c0.1-0.4,0.3-0.7,0.5-1
	c0.3-0.3,0.6-0.4,1-0.5c0.4-0.1,0.7,0,1.1,0.1c0.3,0.1,0.6,0.4,0.8,0.7c0.2,0.3,0.3,0.7,0.3,1c0,0.5-0.2,1-0.5,1.3
	C859.3,380.7,858.9,380.9,858.4,380.9z M858.4,378.4c-0.1,0-0.2,0-0.3,0.1c-0.1,0.1-0.2,0.2-0.2,0.3c0,0.1-0.1,0.2,0,0.4
	c0,0.1,0.1,0.2,0.2,0.3c0.1,0.1,0.2,0.1,0.3,0.2c0.1,0,0.2,0,0.4,0c0.1,0,0.2-0.1,0.3-0.2c0.1-0.1,0.1-0.2,0.1-0.3
	c0-0.2-0.1-0.3-0.2-0.4C858.7,378.4,858.5,378.4,858.4,378.4z"/>
<path d="M867.1,392.8c-0.4,0-0.7-0.1-1-0.3c-0.3-0.2-0.5-0.5-0.7-0.8c-0.1-0.3-0.2-0.7-0.1-1.1c0.1-0.4,0.3-0.7,0.5-1
	c0.3-0.3,0.6-0.4,1-0.5c0.4-0.1,0.7,0,1.1,0.1c0.3,0.1,0.6,0.4,0.8,0.7c0.2,0.3,0.3,0.7,0.3,1c0,0.5-0.2,1-0.5,1.3
	C868.1,392.6,867.6,392.7,867.1,392.8z M867.1,390.2c-0.1,0-0.2,0-0.3,0.1c-0.1,0.1-0.2,0.2-0.2,0.3c0,0.1-0.1,0.2,0,0.4
	c0,0.1,0.1,0.2,0.2,0.3c0.1,0.1,0.2,0.1,0.3,0.2c0.1,0,0.2,0,0.4,0c0.1,0,0.2-0.1,0.3-0.2c0.1-0.1,0.1-0.2,0.1-0.3
	c0-0.2-0.1-0.3-0.2-0.4C867.5,390.3,867.3,390.2,867.1,390.2z"/>
<path d="M869.6,380.9c-0.4,0-0.7-0.1-1-0.3c-0.3-0.2-0.5-0.5-0.7-0.8c-0.1-0.3-0.2-0.7-0.1-1.1c0.1-0.4,0.3-0.7,0.5-1
	c0.3-0.3,0.6-0.4,1-0.5c0.4-0.1,0.7,0,1.1,0.1c0.3,0.1,0.6,0.4,0.8,0.7c0.2,0.3,0.3,0.7,0.3,1c0,0.5-0.2,1-0.5,1.3
	C870.6,380.7,870.1,380.9,869.6,380.9z M869.6,378.4c-0.1,0-0.2,0-0.3,0.1c-0.1,0.1-0.2,0.2-0.2,0.3c0,0.1-0.1,0.2,0,0.4
	c0,0.1,0.1,0.2,0.2,0.3c0.1,0.1,0.2,0.1,0.3,0.2c0.1,0,0.2,0,0.4,0c0.1,0,0.2-0.1,0.3-0.2c0.1-0.1,0.1-0.2,0.1-0.3
	c0-0.2-0.1-0.3-0.2-0.4C870,378.4,869.8,378.4,869.6,378.4z"/>
<path d="M856.5,387.1c-0.4,0-0.7-0.1-1-0.3c-0.3-0.2-0.5-0.5-0.7-0.8c-0.1-0.3-0.2-0.7-0.1-1.1c0.1-0.4,0.3-0.7,0.5-1
	c0.3-0.3,0.6-0.4,1-0.5c0.4-0.1,0.7,0,1.1,0.1c0.3,0.1,0.6,0.4,0.8,0.7c0.2,0.3,0.3,0.7,0.3,1c0,0.5-0.2,1-0.5,1.3
	C857.5,386.9,857,387.1,856.5,387.1z M856.5,384.6c-0.1,0-0.2,0-0.3,0.1c-0.1,0.1-0.2,0.2-0.2,0.3c0,0.1-0.1,0.2,0,0.4
	c0,0.1,0.1,0.2,0.2,0.3c0.1,0.1,0.2,0.1,0.3,0.2c0.1,0,0.2,0,0.4,0c0.1,0,0.2-0.1,0.3-0.2c0.1-0.1,0.1-0.2,0.1-0.3
	c0-0.2-0.1-0.3-0.2-0.4C856.8,384.7,856.7,384.6,856.5,384.6z"/>
<path d="M871.5,387.1c-0.4,0-0.7-0.1-1-0.3c-0.3-0.2-0.5-0.5-0.7-0.8c-0.1-0.3-0.2-0.7-0.1-1.1c0.1-0.4,0.3-0.7,0.5-1
	c0.3-0.3,0.6-0.4,1-0.5c0.4-0.1,0.7,0,1.1,0.1c0.3,0.1,0.6,0.4,0.8,0.7c0.2,0.3,0.3,0.7,0.3,1c0,0.5-0.2,1-0.5,1.3
	C872.5,386.9,872,387.1,871.5,387.1z M871.5,384.6c-0.1,0-0.2,0-0.3,0.1c-0.1,0.1-0.2,0.2-0.2,0.3c0,0.1-0.1,0.2,0,0.4
	c0,0.1,0.1,0.2,0.2,0.3c0.1,0.1,0.2,0.1,0.3,0.2c0.1,0,0.2,0,0.4,0c0.1,0,0.2-0.1,0.3-0.2c0.1-0.1,0.1-0.2,0.1-0.3
	c0-0.2-0.1-0.3-0.2-0.4C871.8,384.7,871.7,384.6,871.5,384.6z"/>
<path d="M864,387.8c-0.7,0-1.5-0.2-2.1-0.6c-0.6-0.4-1.1-1-1.4-1.7c-0.3-0.7-0.4-1.4-0.2-2.2c0.1-0.7,0.5-1.4,1-1.9
	c0.5-0.5,1.2-0.9,1.9-1c0.7-0.1,1.5-0.1,2.2,0.2c0.7,0.3,1.3,0.8,1.7,1.4c0.4,0.6,0.6,1.3,0.6,2.1c0,1-0.4,1.9-1.1,2.6
	S865,387.7,864,387.8z M864,381.5c-0.5,0-1,0.1-1.4,0.4c-0.4,0.3-0.7,0.7-0.9,1.1c-0.2,0.5-0.2,1-0.1,1.4c0.1,0.5,0.3,0.9,0.7,1.3
	c0.3,0.3,0.8,0.6,1.3,0.7c0.5,0.1,1,0,1.4-0.1c0.5-0.2,0.8-0.5,1.1-0.9c0.3-0.4,0.4-0.9,0.4-1.4c0-0.7-0.3-1.3-0.7-1.8
	C865.3,381.8,864.7,381.5,864,381.5z"/>
<rect x="840.5" y="360.5" class="st16" width="47" height="47"/>
<path class="st15" d="M900.9,388.2c1.8,0,2.9-0.9,3.6-2.3l-1.5-0.9c-0.3,0.9-1,1.6-2.1,1.6c-1.4,0-2.3-1-2.3-2.6v-1.5
	c0-1.7,0.9-2.7,2.3-2.7c1.1,0,1.7,0.6,2,1.5l1.6-0.8c-0.7-1.5-1.8-2.3-3.6-2.3c-2.6,0-4.2,1.8-4.2,5.1
	C896.7,386.5,898.4,388.2,900.9,388.2z M908.9,388v-1.4h-1v-8.9h-1.8v8.6c0,1.1,0.6,1.8,1.8,1.8H908.9z M914.8,388h1.8v-7.3h-1.8
	v4.8c0,0.8-0.7,1.2-1.4,1.2c-0.9,0-1.2-0.5-1.2-1.6v-4.4h-1.8v4.6c0,1.8,0.8,2.9,2.3,2.9c1.2,0,1.8-0.7,2-1.4h0.1V388z M921.2,388.2
	c1.8,0,3-1,3-2.4c0-1.2-0.8-1.9-2.4-2.2l-0.7-0.1c-0.7-0.1-1-0.3-1-0.8c0-0.4,0.3-0.8,1.1-0.8c0.7,0,1.3,0.3,1.8,0.8l1-1
	c-0.7-0.7-1.4-1.1-2.9-1.1c-1.7,0-2.8,0.9-2.8,2.3c0,1.3,0.9,2,2.4,2.2l0.7,0.1c0.6,0.1,0.9,0.3,0.9,0.8c0,0.5-0.4,0.8-1.2,0.8
	c-0.8,0-1.5-0.4-2-1l-1.1,1.1C918.9,387.7,919.9,388.2,921.2,388.2z M928.2,388h1.3v-1.4h-1.4v-4.5h1.5v-1.4h-1.5v-2h-1.6v1.2
	c0,0.5-0.2,0.8-0.7,0.8h-0.6v1.4h1.1v4C926.3,387.3,926.9,388,928.2,388z M934.2,388.2c1.4,0,2.4-0.5,3-1.3l-1-1.1
	c-0.4,0.6-1,1-1.9,1c-1.2,0-1.8-0.7-1.8-1.8v-0.2h4.9v-0.6c0-2-1-3.7-3.3-3.7c-2.1,0-3.4,1.5-3.4,3.8
	C930.7,386.7,932,388.2,934.2,388.2z M934.1,381.9c0.9,0,1.4,0.7,1.4,1.7v0.1h-3v-0.1C932.6,382.6,933.2,381.9,934.1,381.9z
	 M941,388v-4.5c0-0.8,0.6-1.1,1.8-1.1h0.6v-1.7H943c-1.2,0-1.8,0.7-1.9,1.5H941v-1.5h-1.8v7.3H941z M950.1,388v-4.8
	c0-0.8,0.7-1.2,1.5-1.2c0.9,0,1.2,0.5,1.2,1.6v4.4h1.8v-4.6c0-1.8-0.8-2.9-2.3-2.9c-1.1,0-1.8,0.6-2,1.4h-0.1v-1.2h-1.8v7.3H950.1z"
	/>
<path class="st2" d="M312,176.5h32c4.1,0,7.5,3.4,7.5,7.5v32c0,4.1-3.4,7.5-7.5,7.5h-32c-4.1,0-7.5-3.4-7.5-7.5v-32
	C304.5,179.9,307.9,176.5,312,176.5z"/>
<path d="M335.5,198.8h-0.6v-7.5h-1.2v7.5H333c-0.3,0-0.6,0.1-0.9,0.4c-0.2,0.2-0.4,0.6-0.4,0.9v1.2c0,0.3,0.1,0.6,0.4,0.9
	c0.2,0.2,0.6,0.4,0.9,0.4h0.6v6.2h1.2v-6.2h0.6c0.3,0,0.6-0.1,0.9-0.4c0.2-0.2,0.4-0.6,0.4-0.9V200c0-0.3-0.1-0.6-0.4-0.9
	C336.1,198.9,335.8,198.8,335.5,198.8z M335.5,201.3H333V200h2.5V201.3z"/>
<path d="M329.2,193.8h-0.6v-2.5h-1.2v2.5h-0.6c-0.3,0-0.6,0.1-0.9,0.4c-0.2,0.2-0.4,0.6-0.4,0.9v1.2c0,0.3,0.1,0.6,0.4,0.9
	c0.2,0.2,0.6,0.4,0.9,0.4h0.6v11.2h1.2v-11.2h0.6c0.3,0,0.6-0.1,0.9-0.4c0.2-0.2,0.4-0.6,0.4-0.9V195c0-0.3-0.1-0.6-0.4-0.9
	C329.9,193.9,329.6,193.8,329.2,193.8z M329.2,196.3h-2.5V195h2.5V196.3z"/>
<path d="M323,202.5h-0.6v-11.2h-1.2v11.2h-0.6c-0.3,0-0.6,0.1-0.9,0.4c-0.2,0.2-0.4,0.6-0.4,0.9v1.2c0,0.3,0.1,0.6,0.4,0.9
	c0.2,0.2,0.6,0.4,0.9,0.4h0.6v2.5h1.2v-2.5h0.6c0.3,0,0.6-0.1,0.9-0.4c0.2-0.2,0.4-0.6,0.4-0.9v-1.2c0-0.3-0.1-0.6-0.4-0.9
	C323.6,202.6,323.3,202.5,323,202.5z M323,205h-2.5v-1.2h2.5V205z"/>
<path class="st6" d="M312,176.5h32c4.1,0,7.5,3.4,7.5,7.5v32c0,4.1-3.4,7.5-7.5,7.5h-32c-4.1,0-7.5-3.4-7.5-7.5v-32
	C304.5,179.9,307.9,176.5,312,176.5z"/>
<path d="M364.9,196.2c1.8,0,2.9-0.9,3.6-2.3l-1.5-0.9c-0.3,0.9-1,1.6-2.1,1.6c-1.4,0-2.3-1-2.3-2.6v-1.5c0-1.7,0.9-2.7,2.3-2.7
	c1.1,0,1.7,0.6,2,1.5l1.6-0.8c-0.7-1.5-1.8-2.3-3.6-2.3c-2.6,0-4.2,1.8-4.2,5.1C360.7,194.5,362.4,196.2,364.9,196.2z M373.1,196.2
	c2.1,0,3.4-1.5,3.4-3.8c0-2.3-1.3-3.8-3.4-3.8c-2.1,0-3.4,1.5-3.4,3.8C369.7,194.7,371,196.2,373.1,196.2z M373.1,194.7
	c-0.9,0-1.5-0.6-1.5-1.7v-1.4c0-1.1,0.6-1.7,1.5-1.7c0.9,0,1.5,0.6,1.5,1.7v1.4C374.6,194.1,374,194.7,373.1,194.7z M380,196v-4.8
	c0-0.8,0.7-1.2,1.5-1.2c0.9,0,1.2,0.5,1.2,1.6v4.4h1.8v-4.6c0-1.8-0.8-2.9-2.3-2.9c-1.1,0-1.8,0.6-2,1.4H380v-1.2h-1.8v7.3H380z
	 M388.9,196h1.3v-1.4h-1.4v-4.5h1.5v-1.4h-1.5v-2h-1.6v1.2c0,0.5-0.2,0.8-0.7,0.8h-0.6v1.4h1.1v4C387,195.3,387.7,196,388.9,196z
	 M393.8,196v-4.5c0-0.8,0.6-1.1,1.8-1.1h0.6v-1.7h-0.4c-1.2,0-1.8,0.7-1.9,1.5h-0.1v-1.5H392v7.3H393.8z M400.5,196.2
	c2.1,0,3.4-1.5,3.4-3.8c0-2.3-1.3-3.8-3.4-3.8c-2.1,0-3.4,1.5-3.4,3.8C397.1,194.7,398.4,196.2,400.5,196.2z M400.5,194.7
	c-0.9,0-1.5-0.6-1.5-1.7v-1.4c0-1.1,0.6-1.7,1.5-1.7c0.9,0,1.5,0.6,1.5,1.7v1.4C402,194.1,401.4,194.7,400.5,194.7z M408.4,196v-1.4
	h-1v-8.9h-1.8v8.6c0,1.1,0.6,1.8,1.8,1.8H408.4z M361,216.8h1.8v-4h0.1c0.3,0.8,1,1.4,2,1.4c1.8,0,2.9-1.4,2.9-3.8
	c0-2.4-1-3.8-2.9-3.8c-1,0-1.8,0.5-2,1.4h-0.1v-1.2H361V216.8z M364.3,212.7c-0.9,0-1.5-0.4-1.5-1.2v-2.3c0-0.7,0.6-1.2,1.5-1.2
	c0.9,0,1.6,0.7,1.6,1.7v1.3C365.9,212,365.2,212.7,364.3,212.7z M372.3,214v-1.4h-1v-8.9h-1.8v8.6c0,1.1,0.6,1.8,1.8,1.8H372.3z
	 M375.7,214.2c1.1,0,1.9-0.5,2.1-1.4h0.1c0.1,0.8,0.6,1.3,1.4,1.3h1v-1.4h-0.7v-3.4c0-1.7-1-2.6-3-2.6c-1.5,0-2.3,0.6-2.9,1.4l1.1,1
	c0.4-0.5,0.8-0.9,1.7-0.9c1,0,1.4,0.5,1.4,1.3v0.5h-1.2c-2,0-3.1,0.7-3.1,2.2C373.3,213.3,374.2,214.2,375.7,214.2z M376.3,212.9
	c-0.7,0-1.1-0.3-1.1-0.9v-0.2c0-0.6,0.5-0.9,1.4-0.9h1.1v1C377.7,212.5,377.1,212.9,376.3,212.9z M383.6,214v-4.8
	c0-0.8,0.7-1.2,1.5-1.2c0.9,0,1.2,0.5,1.2,1.6v4.4h1.8v-4.6c0-1.8-0.8-2.9-2.3-2.9c-1.1,0-1.8,0.6-2,1.4h-0.1v-1.2h-1.8v7.3H383.6z
	 M393.2,214.2c1.4,0,2.4-0.5,3-1.3l-1-1.1c-0.4,0.6-1,1-1.9,1c-1.2,0-1.8-0.7-1.8-1.8v-0.2h4.9v-0.6c0-2-1.1-3.7-3.3-3.7
	c-2.1,0-3.4,1.5-3.4,3.8C389.7,212.7,391,214.2,393.2,214.2z M393.2,207.9c0.9,0,1.4,0.7,1.4,1.7v0.1h-3v-0.1
	C391.6,208.6,392.2,207.9,393.2,207.9z"/>
<path class="st17" d="M784,114v-2h1v2H784z M784,122v-4h1v4H784z M784,130v-4h1v4H784z M784,138v-4h1v4H784z M784,146v-4h1v4H784z
	 M784,154v-4h1v4H784z M784,162v-4h1v4H784z M784,170v-4h1v4H784z M784,178v-4h1v4H784z M784,186v-4h1v4H784z M784,194v-4h1v4H784z
	 M784,202v-4h1v4H784z M784,210v-4h1v4H784z M784,218v-4h1v4H784z M784,226v-4h1v4H784z M784,234v-4h1v4H784z M784,242v-4h1v4H784z
	 M784,250v-4h1v4H784z M784,258v-4h1v4H784z M784,266v-4h1v4H784z M784,274v-4h1v4H784z M784,282v-4h1v4H784z M784,290v-4h1v4H784z
	 M784,298v-4h1v4H784z M784,306v-4h1v4H784z M784,314v-4h1v4H784z M784,322v-4h1v4H784z M784,330v-4h1v4H784z M784,338v-4h1v4H784z
	 M784,346v-4h1v4H784z M784,354v-4h1v4H784z M784,362v-4h1v4H784z M784,370v-4h1v4H784z M784,378v-4h1v4H784z M784,386v-4h1v4H784z
	 M784,394v-4h1v4H784z M784,402v-4h1v4H784z M784,410v-4h1v4H784z M784,418v-4h1v4H784z M784,424v-2h1v2H784z"/>
<path class="st17" d="M735,114v-2h1v2H735z M735,122v-4h1v4H735z M735,130v-4h1v4H735z M735,138v-4h1v4H735z M735,146v-4h1v4H735z
	 M735,154v-4h1v4H735z M735,162v-4h1v4H735z M735,170v-4h1v4H735z M735,178v-4h1v4H735z M735,186v-4h1v4H735z M735,194v-4h1v4H735z
	 M735,202v-4h1v4H735z M735,210v-4h1v4H735z M735,218v-4h1v4H735z M735,226v-4h1v4H735z M735,234v-4h1v4H735z M735,242v-4h1v4H735z
	 M735,250v-4h1v4H735z M735,258v-4h1v4H735z M735,266v-4h1v4H735z M735,274v-4h1v4H735z M735,282v-4h1v4H735z M735,290v-4h1v4H735z
	 M735,298v-4h1v4H735z M735,306v-4h1v4H735z M735,314v-4h1v4H735z M735,322v-4h1v4H735z M735,330v-4h1v4H735z M735,338v-4h1v4H735z
	 M735,346v-4h1v4H735z M735,354v-4h1v4H735z M735,362v-4h1v4H735z M735,370v-4h1v4H735z M735,378v-4h1v4H735z M735,386v-4h1v4H735z
	 M735,394v-4h1v4H735z M735,402v-4h1v4H735z M735,410v-4h1v4H735z M735,418v-4h1v4H735z M735,424v-2h1v2H735z"/>
<path class="st17" d="M512,114v-2h1v2H512z M512,122v-4h1v4H512z M512,130v-4h1v4H512z M512,138v-4h1v4H512z M512,146v-4h1v4H512z
	 M512,154v-4h1v4H512z M512,162v-4h1v4H512z M512,170v-4h1v4H512z M512,178v-4h1v4H512z M512,186v-4h1v4H512z M512,194v-4h1v4H512z
	 M512,202v-4h1v4H512z M512,210v-4h1v4H512z M512,218v-4h1v4H512z M512,226v-4h1v4H512z M512,234v-4h1v4H512z M512,242v-4h1v4H512z
	 M512,250v-4h1v4H512z M512,258v-4h1v4H512z M512,266v-4h1v4H512z M512,274v-4h1v4H512z M512,282v-4h1v4H512z M512,290v-4h1v4H512z
	 M512,298v-4h1v4H512z M512,306v-4h1v4H512z M512,314v-4h1v4H512z M512,322v-4h1v4H512z M512,330v-4h1v4H512z M512,338v-4h1v4H512z
	 M512,346v-4h1v4H512z M512,354v-4h1v4H512z M512,362v-4h1v4H512z M512,370v-4h1v4H512z M512,378v-4h1v4H512z M512,386v-4h1v4H512z
	 M512,394v-4h1v4H512z M512,402v-4h1v4H512z M512,410v-4h1v4H512z M512,418v-4h1v4H512z M512,424v-2h1v2H512z"/>
<path class="st17" d="M463,114v-2h1v2H463z M463,122v-4h1v4H463z M463,130v-4h1v4H463z M463,138v-4h1v4H463z M463,146v-4h1v4H463z
	 M463,154v-4h1v4H463z M463,162v-4h1v4H463z M463,170v-4h1v4H463z M463,178v-4h1v4H463z M463,186v-4h1v4H463z M463,194v-4h1v4H463z
	 M463,202v-4h1v4H463z M463,210v-4h1v4H463z M463,218v-4h1v4H463z M463,226v-4h1v4H463z M463,234v-4h1v4H463z M463,242v-4h1v4H463z
	 M463,250v-4h1v4H463z M463,258v-4h1v4H463z M463,266v-4h1v4H463z M463,274v-4h1v4H463z M463,282v-4h1v4H463z M463,290v-4h1v4H463z
	 M463,298v-4h1v4H463z M463,306v-4h1v4H463z M463,314v-4h1v4H463z M463,322v-4h1v4H463z M463,330v-4h1v4H463z M463,338v-4h1v4H463z
	 M463,346v-4h1v4H463z M463,354v-4h1v4H463z M463,362v-4h1v4H463z M463,370v-4h1v4H463z M463,378v-4h1v4H463z M463,386v-4h1v4H463z
	 M463,394v-4h1v4H463z M463,402v-4h1v4H463z M463,410v-4h1v4H463z M463,418v-4h1v4H463z M463,424v-2h1v2H463z"/>
<path class="st18" d="M328,224l-2.9,5h2.4v11c0,4.7,3.8,8.5,8.5,8.5h3v0l189,0c4.1,0,7.5,3.4,7.5,7.5v24h0l0,8c0,0,0,0.1,0,0.1
	l0,87.9c0,4.7,3.8,8.5,8.5,8.5h19v2.4l5-2.9l-5-2.9v2.4h-19c-4.1,0-7.5-3.4-7.5-7.5l0-84c1.4,2.7,4.3,4.5,7.5,4.5h19v2.4l5-2.9
	l-5-2.9v2.4h-19c-4.1,0-7.4-3.3-7.5-7.4V272h0v-16c0-3.2-1.8-6.1-4.5-7.5h36v0l232,0c4.1,0,7.5,3.4,7.5,7.5v24h0l0,8
	c0,0.5,0,1.1,0.1,1.6h-0.1v4.1h1V292c1.4,2.7,4.3,4.5,7.5,4.5h19v2.4l5-2.9l-5-2.9v2.4h-19c-4.1,0-7.5-3.4-7.5-7.5l0-2.5h0V264h0v-3
	h0v-2h0v-3c0-4.7-3.8-8.5-8.5-8.5l-136,0v0l-328,0c-4.1,0-7.5-3.4-7.5-7.5v-11h2.4L328,224z"/>
<path class="st18" d="M808.6,377.5c-0.1-0.5-0.1-1-0.1-1.5v-2.2h-1v2.2c0,0.6,0.1,1.1,0.2,1.7L808.6,377.5z"/>
<path class="st18" d="M808.5,369.5v-4.3h-1v4.3H808.5z"/>
<path class="st18" d="M808.5,360.9v-4.3h-1v4.3H808.5z"/>
<path class="st18" d="M808.5,352.3v-4.3h-1v4.3H808.5z"/>
<path class="st18" d="M808.5,343.6v-4.3l-1,0v4.3H808.5z"/>
<path class="st18" d="M808.5,335v-4.3h-1v4.3H808.5z"/>
<path class="st18" d="M808.5,326.3v-4.2h-1v4.2H808.5z"/>
<path class="st18" d="M808.5,301.8v-4.1h-1v4.1H808.5z"/>
<path class="st18" d="M808.5,309.9v-4.1h-1v4.1H808.5z"/>
<path class="st18" d="M808.5,318.1V314h-1v4.1H808.5z"/>
<path class="st18" d="M811.8,382.2c-0.8-0.5-1.5-1.3-2.1-2.1l-0.8,0.6c0.6,0.9,1.4,1.7,2.3,2.3L811.8,382.2z"/>
<path class="st18" d="M816,383.5c-0.5,0-1,0-1.5-0.1l-0.2,1c0.5,0.1,1.1,0.2,1.7,0.2h2v-1H816z"/>
<path class="st18" d="M826,383.5h-4v1h4V383.5z"/>
<path class="st18" d="M834,383.5h-4v1h4V383.5z"/>
<path class="st18" d="M835,386.9l5-2.9l-5-2.9V386.9z"/>
<path class="st19" d="M149,202.9l-5-2.9l5-2.9v2.4h102v-2.4l5,2.9l-5,2.9v-2.4H149V202.9z"/>
<rect x="48.5" y="480.5" class="st0" width="15" height="15"/>
<rect x="48.5" y="480.5" class="st20" width="15" height="15"/>
<path class="st21" d="M76.7,493.2c1.6,0,2.8-0.9,3.4-2.2l-0.9-0.6c-0.4,1.1-1.2,1.8-2.5,1.8c-1.7,0-2.7-1.2-2.7-3.2v-1.5
	c0-2,1-3.3,2.7-3.3c1.2,0,2,0.7,2.4,1.7l1-0.6c-0.6-1.4-1.7-2.1-3.4-2.1c-2.5,0-3.9,1.8-3.9,5.1C72.8,491.4,74.3,493.2,76.7,493.2z
	 M84.2,493v-1h-1.1v-9.4H82v9.2c0,0.7,0.4,1.2,1.2,1.2H84.2z M90.5,493h1.1v-7.2h-1.1v5c0,1-0.9,1.4-1.8,1.4c-1.1,0-1.7-0.7-1.7-1.9
	v-4.4h-1.1v4.6c0,1.8,1,2.8,2.4,2.8c1.2,0,1.8-0.7,2-1.3h0.1V493z M96.3,493.2c1.7,0,2.7-0.9,2.7-2.3c0-1.1-0.6-1.8-2.2-2l-0.6-0.1
	c-0.9-0.1-1.4-0.4-1.4-1.1c0-0.7,0.5-1.1,1.4-1.1c0.9,0,1.5,0.4,1.9,0.9l0.7-0.7c-0.6-0.7-1.4-1.2-2.5-1.2c-1.5,0-2.6,0.7-2.6,2.1
	c0,1.3,1,1.9,2.3,2.1l0.6,0.1c1,0.1,1.3,0.6,1.3,1.1c0,0.7-0.6,1.2-1.5,1.2c-0.9,0-1.6-0.4-2.1-1.1l-0.8,0.6
	C94.1,492.6,95,493.2,96.3,493.2z M104,493v-1h-1.5v-5.3h1.6v-1h-1.6v-2h-1v1.3c0,0.5-0.2,0.7-0.6,0.7h-0.7v1h1.2v5.1
	c0,0.7,0.4,1.2,1.2,1.2H104z M108.8,493.2c1.4,0,2.4-0.7,2.9-1.7l-0.8-0.6c-0.4,0.8-1.1,1.2-2,1.2c-1.3,0-2.1-0.9-2.1-2.2v-0.3h5.2
	v-0.5c0-2-1.2-3.5-3.1-3.5c-2,0-3.2,1.5-3.2,3.8S106.8,493.2,108.8,493.2z M108.8,486.5c1.1,0,1.9,0.9,1.9,2.1v0.2h-4v-0.1
	C106.7,487.5,107.5,486.5,108.8,486.5z M115,493v-4.9c0-0.7,0.7-1.2,1.9-1.2h0.7v-1.1h-0.4c-1.2,0-1.8,0.6-2.1,1.3H115v-1.3h-1.1
	v7.2H115z M121.4,493.2c1.7,0,2.7-0.9,2.7-2.3c0-1.1-0.6-1.8-2.2-2l-0.6-0.1c-0.9-0.1-1.4-0.4-1.4-1.1c0-0.7,0.5-1.1,1.4-1.1
	c0.9,0,1.5,0.4,1.9,0.9l0.7-0.7c-0.6-0.7-1.4-1.2-2.5-1.2c-1.5,0-2.6,0.7-2.6,2.1c0,1.3,1,1.9,2.3,2.1l0.6,0.1
	c1,0.1,1.3,0.6,1.3,1.1c0,0.7-0.6,1.2-1.5,1.2c-0.9,0-1.6-0.4-2.1-1.1l-0.8,0.6C119.1,492.6,120,493.2,121.4,493.2z M134.8,493v-1.9
	h1.4v-1h-1.4v-6.9h-1.8L129,490v1h4.7v1.9H134.8z M133.6,484.1L133.6,484.1l0.1,6h-3.6L133.6,484.1z M144.7,493v-1h-1.5v-5.3h1.6v-1
	h-1.6v-2h-1v1.3c0,0.5-0.2,0.7-0.6,0.7h-0.7v1h1.2v5.1c0,0.7,0.4,1.2,1.2,1.2H144.7z M149.4,493.2c1.9,0,3.3-1.5,3.3-3.8
	s-1.3-3.8-3.3-3.8c-1.9,0-3.3,1.5-3.3,3.8S147.5,493.2,149.4,493.2z M149.4,492.2c-1.2,0-2.1-0.7-2.1-2.3v-1c0-1.5,0.9-2.3,2.1-2.3
	s2.1,0.7,2.1,2.3v1C151.5,491.4,150.6,492.2,149.4,492.2z M159.3,493v-5c0-0.9,0.9-1.4,1.8-1.4c1.1,0,1.6,0.7,1.6,1.9v4.4h1.1v-4.6
	c0-1.8-0.9-2.8-2.4-2.8c-1.1,0-1.7,0.5-2,1.3h-0.1v-1.2h-1.1v7.2H159.3z"/>
</svg>
